# Blender v3.0.1 OBJ File: ''
# www.blender.org
mtllib 00.mtl
o Bookshelf_(w)-_IKEA_LAIVA.001_Cylinder.001
v -0.334094 0.393883 0.134463
v -0.334094 0.798605 0.134463
v 0.340442 0.798605 0.134464
v 0.340442 0.393883 0.134464
v 0.340442 0.798605 0.135307
v 0.340442 0.393883 0.135307
v -0.334094 0.393883 0.135306
v -0.334094 0.798605 0.135306
vt 0.625000 0.000000
vt 0.375000 0.250000
vt 0.375000 0.000000
vt 0.625000 0.250000
vt 0.375000 0.500000
vt 0.625000 0.750000
vt 0.375000 1.000000
vt 0.375000 0.750000
vt 0.125000 0.750000
vt 0.125000 0.500000
vt 0.875000 0.500000
vt 0.625000 0.500000
vt 0.625000 1.000000
vt 0.875000 0.750000
vn 0.0000 0.0000 -1.0000
vn 1.0000 -0.0000 0.0000
vn -1.0000 -0.0000 0.0000
vn 0.0000 -1.0000 0.0000
vn 0.0000 1.0000 0.0000
vn -0.0000 -0.0000 1.0000
usemtl Material.011
s 1
f 2/1/1 4/2/1 1/3/1
f 3/4/2 6/5/2 4/2/2
f 8/6/3 1/7/3 7/8/3
f 6/5/4 1/9/4 4/10/4
f 3/11/5 8/6/5 5/12/5
f 2/1/1 3/4/1 4/2/1
f 3/4/2 5/12/2 6/5/2
f 8/6/3 2/13/3 1/7/3
f 6/5/4 7/8/4 1/9/4
f 3/11/5 2/14/5 8/6/5
usemtl Material.012
f 5/12/6 7/8/6 6/5/6
f 5/12/6 8/6/6 7/8/6