# Blender v3.0.1 OBJ File: ''
# www.blender.org
mtllib 03.mtl
o Bookshelf_(w)-_IKEA_LAIVA.001_Cylinder.004
v -0.331647 0.387359 0.134462
v -0.331647 0.387359 0.067025
v -0.331647 0.387369 -0.067853
v -0.331647 0.387369 -0.135307
v 0.331647 0.387369 -0.135306
v 0.331647 0.387369 -0.067852
v 0.331647 0.387359 0.067026
v 0.331647 0.387359 0.134463
v -0.331647 0.404279 -0.067853
v -0.331647 0.404250 0.067025
v -0.331647 0.404249 0.134462
v 0.331647 0.404250 0.134463
v 0.331647 0.404250 0.067026
v 0.331647 0.404280 -0.067852
v 0.331647 0.404280 -0.135306
v -0.331647 0.404280 -0.135307
v 0.331647 0.404250 0.067026
v 0.331647 0.387359 0.067026
v 0.331647 0.387369 -0.067852
v 0.331647 0.404280 -0.067852
v -0.331647 0.387359 0.067025
v -0.331647 0.404250 0.067025
v -0.331647 0.404279 -0.067853
v -0.331647 0.387369 -0.067853
vt 0.000000 0.000000
vt 0.533941 0.250000
vt 0.553671 0.500000
vt 0.000000 0.000000
vt 0.555847 0.500000
vt 0.535084 0.250000
vt 0.555847 0.250000
vt 0.553671 0.250000
vt 0.553671 0.250000
vt 0.533941 0.500000
vt 0.535084 0.500000
vt 0.535084 0.500000
vt 0.535084 0.250000
vt 0.553671 0.500000
vt 0.555847 0.500000
vt 0.000000 0.000000
vt 0.000000 0.000000
vt 0.000000 0.000000
vt 0.533941 0.500000
vt 0.000000 0.000000
vt 0.000000 0.000000
vt 0.555847 0.250000
vt 0.533941 0.250000
vt 0.555847 0.500000
vn 0.0000 -1.0000 -0.0000
vn -0.0000 1.0000 0.0001
vn 0.0000 0.0000 -1.0000
vn -0.0000 0.0000 1.0000
vn 1.0000 0.0000 0.0000
vn -1.0000 0.0000 0.0000
vn -0.0000 1.0000 0.0000
usemtl Material.023
s 1
f 6/1/1 7/2/1 3/3/1
f 13/4/2 14/5/2 10/6/2
f 16/7/3 5/8/3 4/9/3
f 1/10/4 12/11/4 11/12/4
f 17/13/5 19/14/5 20/15/5
f 22/16/6 24/17/6 21/18/6
f 8/19/1 1/10/1 2/20/1
f 3/3/1 4/9/1 5/8/1
f 8/19/1 2/20/1 7/2/1
f 2/20/1 3/3/1 7/2/1
f 5/8/1 6/1/1 3/3/1
f 16/7/7 9/21/2 15/22/7
f 9/21/2 10/6/2 14/5/2
f 15/22/7 9/21/2 14/5/2
f 10/6/2 11/12/7 13/4/2
f 11/12/7 12/11/7 13/4/2
f 16/7/3 15/22/3 5/8/3
f 1/10/4 8/19/4 12/11/4
f 17/13/5 18/23/5 19/14/5
f 22/16/6 23/24/6 24/17/6