# Blender v3.0.1 OBJ File: ''
# www.blender.org
mtllib 05.mtl
o Bookshelf_(w)-_IKEA_LAIVA.001_Cylinder.007
v -0.331647 -0.809150 0.067051
v -0.331647 -0.809150 -0.067853
v -0.331647 -0.809150 -0.135307
v 0.331647 -0.809150 -0.135306
v 0.331647 -0.809150 -0.067853
v 0.331647 -0.809151 0.067052
v 0.331647 -0.809151 0.134463
v -0.331647 -0.809150 0.134462
v -0.331647 -0.792540 0.134462
v 0.331647 -0.792540 0.134463
v -0.331647 -0.792540 -0.067853
v -0.331647 -0.792540 0.067051
v 0.331647 -0.792541 0.067052
v 0.331647 -0.792540 -0.067853
v 0.331647 -0.792540 -0.135306
v -0.331647 -0.792540 -0.135307
vt 0.389509 0.500000
vt 0.389509 0.250000
vt 0.389509 0.500000
vt 0.389509 0.500000
vt 0.391546 0.500000
vt 0.391546 0.500000
vt 0.391546 0.500000
vt 0.391546 0.500000
vt 0.391546 0.250000
vt 0.391546 0.250000
vt 0.389509 0.250000
vt 0.389509 0.500000
vt 0.389509 0.500000
vt 0.389509 0.250000
vt 0.391546 0.500000
vt 0.391546 0.250000
vn -0.0000 -1.0000 -0.0000
vn -0.0000 0.0000 1.0000
vn 0.0000 1.0000 -0.0000
vn 0.0000 0.0000 -1.0000
usemtl Material.006
s 1
f 2/1/1 4/2/1 5/3/1
f 8/4/2 10/5/2 9/6/2
f 13/7/3 14/8/3 12/9/3
f 16/10/4 4/2/4 3/11/4
f 8/4/1 1/12/1 7/13/1
f 1/12/1 2/1/1 6/14/1
f 7/13/1 1/12/1 6/14/1
f 2/1/1 3/11/1 4/2/1
f 5/3/1 6/14/1 2/1/1
f 8/4/2 7/13/2 10/5/2
f 16/10/3 11/15/3 15/16/3
f 11/15/3 12/9/3 14/8/3
f 15/16/3 11/15/3 14/8/3
f 12/9/3 9/6/3 13/7/3
f 9/6/3 10/5/3 13/7/3
f 16/10/4 15/16/4 4/2/4