# Blender v3.0.1 OBJ File: ''
# www.blender.org
mtllib 07.mtl
o Bookshelf_(w)-_IKEA_LAIVA.001_Cylinder.013
v 0.348510 -0.792540 -0.067853
v 0.331647 -0.792540 -0.067853
v 0.331647 -0.792541 0.067052
v 0.348510 -0.792541 0.067052
v 0.331647 -0.860014 -0.067853
v 0.348510 -0.860014 -0.067853
v 0.348510 -0.860014 0.067052
v 0.331647 -0.860014 0.067052
v 0.331647 -0.809150 -0.067853
v 0.331647 -0.809151 0.067052
vt 0.391546 0.750000
vt 0.391546 0.500000
vt 0.391546 0.500000
vt 0.383273 0.500000
vt 0.383273 0.750000
vt 0.383273 0.750000
vt 0.389509 0.750000
vt 0.389509 0.750000
vt 0.391546 0.750000
vt 0.383273 0.500000
vn -0.7071 0.7071 0.0000
vn 0.0000 1.0000 0.0000
vn 0.0000 -1.0000 0.0000
vn -1.0000 -0.0000 0.0000
vn 1.0000 0.0000 0.0000
usemtl Material.045
s 1
f 2/1/1 4/2/2 1/3/2
f 6/4/3 8/5/3 5/6/3
f 5/6/4 10/7/4 9/8/4
f 9/8/4 3/9/1 2/1/1
f 6/4/5 4/2/5 7/10/5
f 2/1/1 3/9/1 4/2/2
f 6/4/3 7/10/3 8/5/3
f 5/6/4 8/5/4 10/7/4
f 9/8/4 10/7/4 3/9/1
f 6/4/5 1/3/5 4/2/5