# Blender v3.0.1 OBJ File: ''
# www.blender.org
mtllib 08.mtl
o Bookshelf_(w)-_IKEA_LAIVA.001_Cylinder.014
v -0.331647 -0.792540 -0.067853
v -0.348510 -0.792540 -0.067853
v -0.348510 -0.792540 0.067051
v -0.331647 -0.792540 0.067051
v -0.348510 -0.860014 -0.067853
v -0.348510 -0.860014 0.067051
v -0.331647 -0.860014 -0.067853
v -0.331647 -0.860014 0.067051
v -0.331647 -0.809150 -0.067853
v -0.331647 -0.809150 0.067051
vt 0.391546 0.750000
vt 0.391546 0.500000
vt 0.391546 0.500000
vt 0.383273 0.750000
vt 0.391546 0.750000
vt 0.383273 0.500000
vt 0.383273 0.750000
vt 0.389509 0.500000
vt 0.383273 0.500000
vt 0.389509 0.500000
vn 0.0000 1.0000 0.0000
vn -1.0000 0.0000 0.0000
vn 0.0000 -1.0000 0.0000
vn 1.0000 0.0000 0.0000
usemtl Material.027
s 1
f 2/1/1 4/2/1 1/3/1
f 5/4/2 3/5/2 2/1/2
f 7/6/3 6/7/3 5/4/3
f 9/8/4 8/9/4 7/6/4
f 2/1/1 3/5/1 4/2/1
f 5/4/2 6/7/2 3/5/2
f 7/6/3 8/9/3 6/7/3
f 9/8/4 10/10/4 8/9/4