# Blender v3.0.1 OBJ File: ''
# www.blender.org
mtllib 00.mtl
o model.003_model.9661
v -0.788975 0.465780 -0.351712
v -0.750952 0.465780 -0.313689
v -0.788975 0.465780 0.351712
v 0.788975 0.465780 -0.351712
v -0.655895 0.465780 -0.313689
v 0.655895 0.465780 -0.313689
v 0.750952 0.465780 -0.313689
v 0.750952 0.465780 -0.218631
v 0.750952 0.465780 0.218632
v 0.750952 0.465780 0.313689
v -0.750952 0.465780 0.313689
v 0.788975 0.465780 0.351712
v -0.750952 0.465780 -0.218631
v -0.750952 0.465780 0.218632
v -0.655895 0.465780 0.313689
v 0.655895 0.465780 0.313689
v 0.655895 0.465780 -0.275666
v -0.655895 0.465780 -0.218631
v -0.655895 0.465780 -0.275666
v 0.712929 0.465780 -0.218631
v 0.655895 0.465780 0.218632
v 0.655895 0.465780 -0.218631
v 0.712929 0.465780 0.218632
v -0.712929 0.465780 0.218632
v -0.712929 0.465780 -0.218631
v -0.655895 0.465780 0.218632
v -0.655895 0.465780 0.275666
v 0.655895 0.465780 0.275666
v 0.712929 0.465780 0.275666
v 0.788975 0.465780 -0.351712
v 0.750952 0.465780 0.313689
v 0.788975 0.465780 0.351712
v 0.655895 0.465780 0.313689
v -0.655895 0.465780 0.313689
v -0.750952 0.465780 0.313689
v -0.750952 0.465780 0.218632
v -0.750952 0.465780 -0.218631
v -0.750952 0.465780 -0.313689
v -0.788975 0.465780 0.351712
v 0.750952 0.465780 0.218632
v 0.750952 0.465780 -0.218631
v 0.750952 0.465780 -0.313689
v 0.655895 0.465780 -0.313689
v -0.655895 0.465780 -0.313689
v -0.788975 0.465780 -0.351712
v 0.655895 0.465780 0.218632
v 0.655895 0.465780 -0.218631
v 0.655895 0.465780 0.275666
v 0.655895 0.465780 -0.275666
v -0.655895 0.465780 -0.218631
v -0.655895 0.465780 0.275666
v -0.655895 0.465780 0.218632
v -0.712929 0.465780 0.218632
v -0.712929 0.465780 -0.218631
v 0.712929 0.465780 0.218632
v 0.712929 0.465780 -0.218631
v -0.655895 0.465780 -0.275666
v 0.712929 0.465780 0.275666
v 0.788975 0.503803 0.351712
v -0.788975 0.503803 -0.351712
v -0.788975 0.503803 0.351712
v 0.788975 0.503803 -0.351712
v -0.788975 0.503803 -0.351712
v -0.788975 0.465780 0.351712
v -0.788975 0.503803 0.351712
v -0.788975 0.465780 -0.351712
v 0.788975 0.503803 0.351712
v -0.788975 0.465780 0.351712
v 0.788975 0.465780 0.351712
v -0.788975 0.503803 0.351712
v 0.788975 0.465780 -0.351712
v 0.788975 0.503803 0.351712
v 0.788975 0.465780 0.351712
v 0.788975 0.503803 -0.351712
v -0.788975 0.503803 -0.351712
v 0.788975 0.465780 -0.351712
v -0.788975 0.465780 -0.351712
v 0.788975 0.503803 -0.351712
v 0.788975 0.503803 -0.351712
v 0.788975 0.503803 0.351712
v -0.788975 0.503803 -0.351712
v -0.788975 0.503803 0.351712
v -0.788975 0.465780 -0.351712
v -0.788975 0.503803 -0.351712
v -0.788975 0.465780 0.351712
v -0.788975 0.503803 0.351712
v -0.788975 0.503803 0.351712
v 0.788975 0.503803 0.351712
v -0.788975 0.465780 0.351712
v 0.788975 0.465780 0.351712
v 0.788975 0.503803 -0.351712
v 0.788975 0.465780 -0.351712
v 0.788975 0.503803 0.351712
v 0.788975 0.465780 0.351712
v 0.788975 0.503803 -0.351712
v -0.788975 0.503803 -0.351712
v 0.788975 0.465780 -0.351712
v -0.788975 0.465780 -0.351712
vn 0.0000 -1.0000 -0.0000
vn -0.0001 -1.0000 -0.0000
vn -1.0000 0.0000 0.0000
vn -0.0000 0.0000 -1.0000
vn 0.0003 -1.0000 -0.0000
vn -0.4317 -0.3070 -0.8481
vn 0.7995 0.6007 0.0000
vn -0.2195 -0.2345 -0.9470
vn -0.0002 -1.0000 -0.0000
vn 0.0004 -1.0000 -0.0000
vn 0.0000 1.0000 -0.0000
vn 0.0001 1.0000 0.0000
vn 0.0000 -0.0000 1.0000
vn 1.0000 0.0000 0.0000
vn -0.5438 -0.1221 0.8303
vn 0.5789 -0.7105 -0.4000
vn -0.0001 1.0000 0.0000
vn 0.0002 1.0000 0.0000
vn -0.1491 -0.2708 0.9510
usemtl Default_OBJ.064
s 1
f 1//1 2//2 3//1
f 2//2 1//1 4//1
f 2//2 4//1 5//1
f 5//1 4//1 6//1
f 6//1 4//1 7//1
f 7//1 4//1 8//1
f 8//1 4//1 9//1
f 9//1 4//1 10//1
f 3//1 11//2 12//1
f 11//2 3//1 2//2
f 11//2 2//2 13//3
f 11//2 13//3 14//4
f 12//1 11//2 15//1
f 12//1 15//1 16//1
f 12//1 16//1 10//1
f 12//1 10//1 4//1
f 17//5 18//1 19//1
f 20//1 21//6 22//7
f 21//6 20//1 23//1
f 18//1 24//1 25//1
f 24//1 18//1 26//8
f 26//8 18//1 27//9
f 27//9 18//1 28//10
f 28//10 18//1 17//5
f 28//10 17//5 22//7
f 28//10 22//7 21//6
f 23//1 28//10 21//6
f 28//10 23//1 29//1
f 30//11 31//11 32//11
f 31//11 33//11 32//11
f 33//11 34//11 32//11
f 34//11 35//12 32//11
f 36//13 37//14 35//12
f 37//14 38//12 35//12
f 38//12 39//11 35//12
f 32//11 35//12 39//11
f 31//11 30//11 40//11
f 40//11 30//11 41//11
f 41//11 30//11 42//11
f 42//11 30//11 43//11
f 43//11 30//11 44//11
f 44//11 30//11 38//12
f 30//11 45//11 38//12
f 39//11 38//12 45//11
f 46//15 47//16 48//17
f 47//16 49//11 48//17
f 49//11 50//11 48//17
f 48//17 50//11 51//18
f 51//18 50//11 52//19
f 52//19 50//11 53//11
f 54//11 53//11 50//11
f 55//11 56//11 46//15
f 47//16 46//15 56//11
f 57//11 50//11 49//11
f 58//11 55//11 48//17
f 46//15 48//17 55//11
f 59//11 60//11 61//11
f 60//11 59//11 62//11
f 63//3 64//3 65//3
f 64//3 63//3 66//3
f 67//13 68//13 69//13
f 68//13 67//13 70//13
f 71//14 72//14 73//14
f 72//14 71//14 74//14
f 75//4 76//4 77//4
f 76//4 75//4 78//4
f 79//1 80//1 81//1
f 82//1 81//1 80//1
f 83//14 84//14 85//14
f 86//14 85//14 84//14
f 87//4 88//4 89//4
f 90//4 89//4 88//4
f 91//3 92//3 93//3
f 94//3 93//3 92//3
f 95//13 96//13 97//13
f 98//13 97//13 96//13