# Blender v3.0.1 OBJ File: ''
# www.blender.org
mtllib 10.mtl
o model.001_model.9672
v 0.655895 0.370723 -0.313689
v -0.655895 0.370723 -0.275666
v -0.655895 0.370723 -0.313689
v 0.655895 0.370723 -0.275666
v 0.655895 0.465780 -0.275666
v -0.655895 0.370723 -0.275666
v 0.655895 0.370723 -0.275666
v -0.655895 0.465780 -0.275666
v -0.655895 0.465780 -0.313689
v 0.655895 0.370723 -0.313689
v -0.655895 0.370723 -0.313689
v 0.655895 0.465780 -0.313689
v 0.655895 0.370723 -0.275666
v 0.655895 0.370723 -0.313689
v -0.655895 0.370723 -0.275666
v -0.655895 0.370723 -0.313689
v -0.655895 0.465780 -0.275666
v 0.655895 0.465780 -0.275666
v -0.655895 0.370723 -0.275666
v 0.655895 0.370723 -0.275666
v 0.655895 0.465780 -0.313689
v -0.655895 0.465780 -0.313689
v 0.655895 0.370723 -0.313689
v -0.655895 0.370723 -0.313689
vn 0.0000 -1.0000 0.0000
vn 0.0000 -0.0000 1.0000
vn 0.0000 0.0000 -1.0000
vn 0.0000 1.0000 0.0000
vn 0.0000 -0.7071 -0.7071
vn 0.0000 -0.7071 0.7071
usemtl Default_OBJ.059
s 1
f 1//1 2//1 3//1
f 2//1 1//1 4//1
f 5//2 6//2 7//2
f 6//2 5//2 8//2
f 9//3 10//3 11//3
f 10//3 9//3 12//3
f 13//4 14//4 15//4
f 16//4 15//4 14//4
f 17//5 18//5 19//3
f 20//3 19//3 18//5
f 21//6 22//6 23//2
f 24//2 23//2 22//6
f 22//6 18//5 17//5
f 22//6 21//6 18//5