# Blender v3.0.1 OBJ File: ''
# www.blender.org
mtllib 04.mtl
o model.006_model.9666
v -0.655895 -0.161597 0.218632
v -0.750952 -0.161597 -0.218631
v -0.750952 -0.161597 0.218632
v -0.655895 -0.161597 -0.218631
v -0.750952 -0.161597 -0.218631
v -0.750952 -0.256654 0.218632
v -0.750952 -0.161597 0.218632
v -0.750952 -0.256654 -0.218631
v -0.655895 -0.256654 -0.218631
v -0.655895 -0.161597 0.218632
v -0.655895 -0.256654 0.218632
v -0.655895 -0.161597 -0.218631
v -0.655895 -0.256654 -0.218631
v -0.750952 -0.256654 0.218632
v -0.750952 -0.256654 -0.218631
v -0.655895 -0.256654 0.218632
v -0.655895 -0.161597 -0.218631
v -0.655895 -0.161597 0.218632
v -0.750952 -0.161597 -0.218631
v -0.750952 -0.161597 0.218632
v -0.750952 -0.256654 -0.218631
v -0.750952 -0.161597 -0.218631
v -0.750952 -0.256654 0.218632
v -0.750952 -0.161597 0.218632
v -0.655895 -0.161597 -0.218631
v -0.655895 -0.256654 -0.218631
v -0.655895 -0.161597 0.218632
v -0.655895 -0.256654 0.218632
v -0.655895 -0.256654 0.218632
v -0.655895 -0.256654 -0.218631
v -0.750952 -0.256654 0.218632
v -0.750952 -0.256654 -0.218631
vn 0.0000 1.0000 0.0000
vn -1.0000 0.0000 0.0000
vn 1.0000 0.0000 0.0000
vn 0.0000 -1.0000 -0.0000
usemtl Default_OBJ.060
s 1
f 1//1 2//1 3//1
f 2//1 1//1 4//1
f 5//2 6//2 7//2
f 6//2 5//2 8//2
f 9//3 10//3 11//3
f 10//3 9//3 12//3
f 13//4 14//4 15//4
f 14//4 13//4 16//4
f 17//4 18//4 19//4
f 20//4 19//4 18//4
f 21//3 22//3 23//3
f 24//3 23//3 22//3
f 25//2 26//2 27//2
f 28//2 27//2 26//2
f 29//1 30//1 31//1
f 32//1 31//1 30//1