# Blender v3.0.1 OBJ File: ''
# www.blender.org
mtllib 07.mtl
o model.010_model.9669
v 0.655895 0.465780 -0.275666
v 0.655895 -0.161597 -0.218631
v 0.655895 0.465780 -0.218631
v 0.655895 -0.256654 -0.218631
v 0.655895 -0.161597 -0.275666
v 0.655895 0.370723 -0.275666
v 0.655895 -0.161597 -0.313689
v 0.655895 0.370723 -0.313689
v 0.655895 -0.484792 -0.313689
v 0.655895 -0.484792 -0.218631
v 0.655895 -0.256654 -0.275666
v 0.655895 -0.256654 -0.313689
v 0.750952 0.370723 -0.218631
v 0.655895 -0.161597 -0.218631
v 0.750952 -0.161597 -0.218631
v 0.712929 0.370723 -0.218631
v 0.655895 0.465780 -0.218631
v 0.712929 0.465780 -0.218631
v 0.655895 -0.256654 -0.313689
v 0.750952 -0.484792 -0.313689
v 0.655895 -0.484792 -0.313689
v 0.750952 0.465780 -0.313689
v 0.655895 -0.161597 -0.313689
v 0.655895 0.370723 -0.313689
v 0.655895 0.465780 -0.313689
v 0.655895 -0.161597 -0.313689
v 0.655895 -0.256654 -0.275666
v 0.655895 -0.161597 -0.275666
v 0.655895 -0.256654 -0.313689
v 0.750952 -0.484792 -0.313689
v 0.655895 -0.484792 -0.218631
v 0.655895 -0.484792 -0.313689
v 0.750952 -0.484792 -0.218631
v 0.750952 -0.256654 -0.218631
v 0.655895 -0.484792 -0.218631
v 0.750952 -0.484792 -0.218631
v 0.655895 -0.256654 -0.218631
v 0.750952 -0.161597 -0.218631
v 0.655895 -0.256654 -0.218631
v 0.750952 -0.256654 -0.218631
v 0.655895 -0.161597 -0.218631
v 0.750952 -0.484792 -0.313689
v 0.750952 -0.256654 -0.218631
v 0.750952 -0.484792 -0.218631
v 0.750952 -0.161597 -0.218631
v 0.750952 0.465780 -0.218631
v 0.750952 0.370723 -0.218631
v 0.750952 0.465780 -0.313689
v 0.655895 -0.256654 -0.313689
v 0.655895 -0.256654 -0.275666
v 0.655895 -0.484792 -0.313689
v 0.655895 -0.161597 -0.275666
v 0.655895 -0.256654 -0.218631
v 0.655895 -0.484792 -0.218631
v 0.655895 0.370723 -0.313689
v 0.655895 0.370723 -0.275666
v 0.655895 -0.161597 -0.313689
v 0.655895 0.465780 -0.275666
v 0.655895 -0.161597 -0.218631
v 0.655895 0.465780 -0.218631
v 0.712929 0.465780 -0.218631
v 0.712929 0.370723 -0.218631
v 0.655895 0.465780 -0.218631
v 0.655895 -0.161597 -0.218631
v 0.750952 0.370723 -0.218631
v 0.750952 -0.161597 -0.218631
v 0.655895 0.465780 -0.313689
v 0.655895 0.370723 -0.313689
v 0.750952 0.465780 -0.313689
v 0.655895 -0.161597 -0.313689
v 0.655895 -0.256654 -0.313689
v 0.750952 -0.484792 -0.313689
v 0.655895 -0.484792 -0.313689
v 0.655895 -0.256654 -0.313689
v 0.655895 -0.161597 -0.313689
v 0.655895 -0.256654 -0.275666
v 0.655895 -0.161597 -0.275666
v 0.750952 -0.484792 -0.218631
v 0.750952 -0.484792 -0.313689
v 0.655895 -0.484792 -0.218631
v 0.655895 -0.484792 -0.313689
v 0.655895 -0.256654 -0.218631
v 0.750952 -0.256654 -0.218631
v 0.655895 -0.484792 -0.218631
v 0.750952 -0.484792 -0.218631
v 0.655895 -0.161597 -0.218631
v 0.750952 -0.161597 -0.218631
v 0.655895 -0.256654 -0.218631
v 0.750952 -0.256654 -0.218631
v 0.750952 -0.484792 -0.313689
v 0.750952 -0.161597 -0.218631
v 0.750952 0.465780 -0.313689
v 0.750952 0.465780 -0.218631
v 0.750952 0.370723 -0.218631
v 0.750952 -0.256654 -0.218631
v 0.750952 -0.484792 -0.218631
v 0.713264 -0.503803 -0.229433
v 0.722434 -0.484792 -0.233231
v 0.713264 -0.484792 -0.229433
v 0.722434 -0.503803 -0.233231
v 0.722434 -0.503803 -0.233231
v 0.713264 -0.503803 -0.229433
v 0.722434 -0.484792 -0.233231
v 0.713264 -0.484792 -0.229433
v 0.740150 -0.503803 -0.256319
v 0.740150 -0.503803 -0.276001
v 0.741446 -0.503803 -0.266160
v 0.736352 -0.503803 -0.247149
v 0.736352 -0.503803 -0.285171
v 0.730309 -0.503803 -0.239274
v 0.730309 -0.503803 -0.293046
v 0.722434 -0.503803 -0.233231
v 0.722434 -0.503803 -0.299089
v 0.713264 -0.503803 -0.229433
v 0.713264 -0.503803 -0.302888
v 0.703423 -0.503803 -0.228137
v 0.703423 -0.503803 -0.304183
v 0.693582 -0.503803 -0.229433
v 0.693582 -0.503803 -0.302888
v 0.684412 -0.503803 -0.233231
v 0.684412 -0.503803 -0.299089
v 0.676537 -0.503803 -0.239274
v 0.676537 -0.503803 -0.293046
v 0.670494 -0.503803 -0.247149
v 0.670494 -0.503803 -0.285171
v 0.666696 -0.503803 -0.256319
v 0.666696 -0.503803 -0.276001
v 0.665400 -0.503803 -0.266160
v 0.665400 -0.503803 -0.266160
v 0.666696 -0.503803 -0.256319
v 0.666696 -0.503803 -0.276001
v 0.670494 -0.503803 -0.285171
v 0.670494 -0.503803 -0.247149
v 0.676537 -0.503803 -0.293046
v 0.676537 -0.503803 -0.239274
v 0.684412 -0.503803 -0.299089
v 0.684412 -0.503803 -0.233231
v 0.693582 -0.503803 -0.302888
v 0.693582 -0.503803 -0.229433
v 0.703423 -0.503803 -0.304183
v 0.703423 -0.503803 -0.228137
v 0.713264 -0.503803 -0.302888
v 0.713264 -0.503803 -0.229433
v 0.722434 -0.503803 -0.299089
v 0.722434 -0.503803 -0.233231
v 0.730309 -0.503803 -0.293046
v 0.730309 -0.503803 -0.239274
v 0.736352 -0.503803 -0.285171
v 0.736352 -0.503803 -0.247149
v 0.740150 -0.503803 -0.276001
v 0.740150 -0.503803 -0.256319
v 0.741446 -0.503803 -0.266160
v 0.730309 -0.484792 -0.239274
v 0.730309 -0.503803 -0.239274
v 0.730309 -0.503803 -0.239274
v 0.730309 -0.484792 -0.239274
v 0.703423 -0.503803 -0.228137
v 0.703423 -0.484792 -0.228137
v 0.703423 -0.503803 -0.228137
v 0.703423 -0.484792 -0.228137
v 0.741446 -0.503803 -0.266160
v 0.740150 -0.484792 -0.256319
v 0.740150 -0.503803 -0.256319
v 0.741446 -0.484792 -0.266160
v 0.741446 -0.484792 -0.266160
v 0.741446 -0.503803 -0.266160
v 0.740150 -0.484792 -0.256319
v 0.740150 -0.503803 -0.256319
v 0.736352 -0.484792 -0.247149
v 0.736352 -0.503803 -0.247149
v 0.736352 -0.484792 -0.247149
v 0.736352 -0.503803 -0.247149
v 0.693582 -0.503803 -0.229433
v 0.693582 -0.484792 -0.229433
v 0.693582 -0.503803 -0.229433
v 0.693582 -0.484792 -0.229433
v 0.684412 -0.503803 -0.233231
v 0.684412 -0.484792 -0.233231
v 0.684412 -0.503803 -0.233231
v 0.684412 -0.484792 -0.233231
v 0.676537 -0.503803 -0.239274
v 0.676537 -0.484792 -0.239274
v 0.676537 -0.503803 -0.239274
v 0.676537 -0.484792 -0.239274
v 0.670494 -0.484792 -0.247149
v 0.670494 -0.503803 -0.247149
v 0.670494 -0.503803 -0.247149
v 0.670494 -0.484792 -0.247149
v 0.666696 -0.484792 -0.256319
v 0.666696 -0.503803 -0.256319
v 0.666696 -0.503803 -0.256319
v 0.666696 -0.484792 -0.256319
v 0.665400 -0.484792 -0.266160
v 0.665400 -0.503803 -0.266160
v 0.665400 -0.503803 -0.266160
v 0.665400 -0.484792 -0.266160
v 0.666696 -0.484792 -0.276001
v 0.666696 -0.503803 -0.276001
v 0.666696 -0.503803 -0.276001
v 0.666696 -0.484792 -0.276001
v 0.670494 -0.484792 -0.285171
v 0.670494 -0.503803 -0.285171
v 0.670494 -0.503803 -0.285171
v 0.670494 -0.484792 -0.285171
v 0.676537 -0.484792 -0.293046
v 0.676537 -0.503803 -0.293046
v 0.676537 -0.503803 -0.293046
v 0.676537 -0.484792 -0.293046
v 0.684412 -0.484792 -0.299089
v 0.684412 -0.503803 -0.299089
v 0.684412 -0.503803 -0.299089
v 0.684412 -0.484792 -0.299089
v 0.693582 -0.484792 -0.302888
v 0.693582 -0.503803 -0.302888
v 0.693582 -0.503803 -0.302888
v 0.693582 -0.484792 -0.302888
v 0.703423 -0.484792 -0.304183
v 0.703423 -0.503803 -0.304183
v 0.703423 -0.503803 -0.304183
v 0.703423 -0.484792 -0.304183
v 0.713264 -0.484792 -0.302888
v 0.713264 -0.503803 -0.302888
v 0.713264 -0.503803 -0.302888
v 0.713264 -0.484792 -0.302888
v 0.722434 -0.484792 -0.299089
v 0.722434 -0.503803 -0.299089
v 0.722434 -0.503803 -0.299089
v 0.722434 -0.484792 -0.299089
v 0.730309 -0.484792 -0.293046
v 0.730309 -0.503803 -0.293046
v 0.730309 -0.503803 -0.293046
v 0.730309 -0.484792 -0.293046
v 0.736352 -0.484792 -0.285171
v 0.736352 -0.503803 -0.285171
v 0.736352 -0.484792 -0.285171
v 0.736352 -0.503803 -0.285171
v 0.740150 -0.484792 -0.276001
v 0.740150 -0.503803 -0.276001
v 0.740150 -0.484792 -0.276001
v 0.740150 -0.503803 -0.276001
vn -1.0000 -0.0000 0.0000
vn 0.5953 0.0000 -0.8035
vn 0.0000 -0.0000 1.0000
vn -0.0000 0.0000 -1.0000
vn 0.0000 0.7071 -0.7071
vn 0.0000 -1.0000 -0.0000
vn 1.0000 0.0000 0.0000
vn -0.0000 1.0000 0.0000
vn -0.2086 0.8470 -0.4890
vn 0.3009 -0.0000 0.9537
vn 0.4616 0.0000 0.8871
vn 0.2162 -0.0000 0.9764
vn 0.5375 0.0000 0.8433
vn -0.5375 0.0000 -0.8433
vn -0.3009 0.0000 -0.9537
vn -0.4616 0.0000 -0.8871
vn -0.2162 0.0000 -0.9764
vn 0.7071 0.0000 0.7071
vn -0.7071 0.0000 -0.7071
vn 0.0438 -0.0000 0.9990
vn -0.0438 -0.0000 0.9990
vn -0.0438 0.0000 -0.9990
vn 0.0438 0.0000 -0.9990
vn 0.9990 -0.0000 0.0438
vn 0.9764 -0.0000 0.2162
vn 0.9537 0.0000 0.3009
vn 0.9990 -0.0000 -0.0438
vn -0.9990 -0.0000 0.0438
vn -0.9990 -0.0000 -0.0438
vn -0.9764 -0.0000 -0.2162
vn -0.9537 0.0000 -0.3009
vn 0.8871 0.0000 0.4616
vn 0.8433 0.0000 0.5375
vn -0.8871 0.0000 -0.4615
vn -0.8433 -0.0000 -0.5375
vn -0.2162 -0.0000 0.9764
vn -0.3009 0.0000 0.9537
vn 0.2162 0.0000 -0.9764
vn 0.3009 0.0000 -0.9537
vn -0.4616 -0.0000 0.8871
vn -0.5375 0.0000 0.8433
vn 0.4616 0.0000 -0.8871
vn 0.5375 -0.0000 -0.8433
vn -0.7071 -0.0000 0.7071
vn 0.7071 0.0000 -0.7071
vn -0.8433 0.0000 0.5375
vn -0.8871 -0.0000 0.4616
vn 0.8871 0.0000 -0.4616
vn 0.8433 -0.0000 -0.5375
vn -0.9537 -0.0000 0.3009
vn -0.9764 -0.0000 0.2162
vn 0.9764 -0.0000 -0.2162
vn 0.9537 -0.0000 -0.3009
vn -0.8871 -0.0000 -0.4616
vn -0.7374 -0.0000 -0.6754
vn -0.6754 -0.0000 -0.7374
vn 0.6754 0.0000 0.7374
vn 0.7374 -0.0000 0.6754
vn -0.2163 -0.0000 -0.9763
vn 0.2163 0.0000 0.9763
vn 0.2163 0.0000 -0.9763
vn -0.2163 0.0000 0.9763
vn 0.6754 0.0000 -0.7374
vn 0.7374 -0.0000 -0.6754
vn -0.7374 -0.0000 0.6754
vn -0.6754 0.0000 0.7374
usemtl Default_OBJ.057
s 1
f 1//1 2//1 3//1
f 2//1 1//1 4//1
f 4//1 1//1 5//1
f 5//1 1//1 6//2
f 5//1 6//2 7//1
f 7//1 6//2 8//1
f 4//1 9//1 10//1
f 9//1 4//1 11//1
f 11//1 4//1 5//1
f 9//1 11//1 12//1
f 13//3 14//3 15//3
f 14//3 13//3 16//3
f 14//3 16//3 17//3
f 17//3 16//3 18//3
f 19//4 20//4 21//4
f 20//4 19//4 22//5
f 22//5 19//4 23//4
f 22//5 23//4 24//4
f 22//5 24//4 25//5
f 26//1 27//1 28//1
f 27//1 26//1 29//1
f 30//6 31//6 32//6
f 31//6 30//6 33//6
f 34//3 35//3 36//3
f 35//3 34//3 37//3
f 38//3 39//3 40//3
f 39//3 38//3 41//3
f 42//7 43//7 44//7
f 43//7 42//7 45//7
f 45//7 46//7 47//8
f 46//7 45//7 48//7
f 48//7 45//7 42//7
f 49//7 50//7 51//7
f 52//7 53//7 50//7
f 50//7 53//7 51//7
f 54//7 51//7 53//7
f 55//7 56//9 57//7
f 57//7 56//9 52//7
f 56//9 58//7 52//7
f 52//7 58//7 53//7
f 53//7 58//7 59//7
f 60//7 59//7 58//7
f 61//4 62//4 63//4
f 63//4 62//4 64//4
f 62//4 65//4 64//4
f 66//4 64//4 65//4
f 67//3 68//3 69//3
f 68//3 70//3 69//3
f 70//3 71//3 69//3
f 69//3 71//3 72//3
f 73//3 72//3 71//3
f 74//7 75//7 76//7
f 77//7 76//7 75//7
f 78//8 79//8 80//8
f 81//8 80//8 79//8
f 82//4 83//4 84//4
f 85//4 84//4 83//4
f 86//4 87//4 88//4
f 89//4 88//4 87//4
f 90//1 91//1 92//1
f 92//1 91//1 93//1
f 94//6 93//1 91//1
f 91//1 90//1 95//1
f 96//1 95//1 90//1
f 97//10 98//11 99//12
f 98//11 97//10 100//13
f 101//14 102//15 103//16
f 104//17 103//16 102//15
f 105//6 106//6 107//6
f 106//6 105//6 108//6
f 106//6 108//6 109//6
f 109//6 108//6 110//6
f 109//6 110//6 111//6
f 111//6 110//6 112//6
f 111//6 112//6 113//6
f 113//6 112//6 114//6
f 113//6 114//6 115//6
f 115//6 114//6 116//6
f 115//6 116//6 117//6
f 117//6 116//6 118//6
f 117//6 118//6 119//6
f 119//6 118//6 120//6
f 119//6 120//6 121//6
f 121//6 120//6 122//6
f 121//6 122//6 123//6
f 123//6 122//6 124//6
f 123//6 124//6 125//6
f 125//6 124//6 126//6
f 125//6 126//6 127//6
f 127//6 126//6 128//6
f 129//8 130//8 131//8
f 131//8 130//8 132//8
f 130//8 133//8 132//8
f 132//8 133//8 134//8
f 133//8 135//8 134//8
f 134//8 135//8 136//8
f 135//8 137//8 136//8
f 136//8 137//8 138//8
f 137//8 139//8 138//8
f 138//8 139//8 140//8
f 139//8 141//8 140//8
f 140//8 141//8 142//8
f 141//8 143//8 142//8
f 142//8 143//8 144//8
f 143//8 145//8 144//8
f 144//8 145//8 146//8
f 145//8 147//8 146//8
f 146//8 147//8 148//8
f 147//8 149//8 148//8
f 148//8 149//8 150//8
f 149//8 151//8 150//8
f 152//8 150//8 151//8
f 100//13 153//18 98//11
f 153//18 100//13 154//18
f 155//19 101//14 156//19
f 103//16 156//19 101//14
f 157//20 99//12 158//21
f 99//12 157//20 97//10
f 102//15 159//22 104//17
f 160//23 104//17 159//22
f 161//24 162//25 163//26
f 162//25 161//24 164//27
f 165//28 166//29 167//30
f 168//31 167//30 166//29
f 163//26 169//32 170//33
f 169//32 163//26 162//25
f 167//30 168//31 171//34
f 172//35 171//34 168//31
f 170//33 153//18 154//18
f 153//18 170//33 169//32
f 171//34 172//35 156//19
f 155//19 156//19 172//35
f 173//36 158//21 174//37
f 158//21 173//36 157//20
f 159//22 175//38 160//23
f 176//39 160//23 175//38
f 177//40 174//37 178//41
f 174//37 177//40 173//36
f 175//38 179//42 176//39
f 180//43 176//39 179//42
f 181//44 178//41 182//44
f 178//41 181//44 177//40
f 179//42 183//45 180//43
f 184//45 180//43 183//45
f 185//46 181//44 182//44
f 181//44 185//46 186//47
f 187//48 188//49 183//45
f 184//45 183//45 188//49
f 189//50 186//47 185//46
f 186//47 189//50 190//51
f 191//52 192//53 187//48
f 188//49 187//48 192//53
f 193//28 190//51 189//50
f 190//51 193//28 194//29
f 195//24 196//27 191//52
f 192//53 191//52 196//27
f 197//30 194//29 193//28
f 194//29 197//30 198//31
f 199//26 200//25 195//24
f 196//27 195//24 200//25
f 201//54 198//31 197//30
f 198//31 201//54 202//35
f 203//33 204//32 199//26
f 200//25 199//26 204//32
f 205//55 202//35 201//54
f 202//35 205//55 206//56
f 207//57 208//58 203//33
f 204//32 203//33 208//58
f 209//14 206//56 205//55
f 206//56 209//14 210//16
f 211//11 212//13 207//57
f 208//58 207//57 212//13
f 213//15 210//16 209//14
f 210//16 213//15 214//59
f 215//60 216//10 211//11
f 212//13 211//11 216//10
f 217//22 214//59 213//15
f 214//59 217//22 218//23
f 219//21 220//20 215//60
f 216//10 215//60 220//20
f 221//61 218//23 217//22
f 218//23 221//61 222//39
f 223//37 224//62 219//21
f 220//20 219//21 224//62
f 225//42 222//39 221//61
f 222//39 225//42 226//43
f 227//41 228//40 223//37
f 224//62 223//37 228//40
f 229//63 226//43 225//42
f 226//43 229//63 230//64
f 231//65 232//66 227//41
f 228//40 227//41 232//66
f 230//64 233//49 234//48
f 233//49 230//64 229//63
f 232//66 231//65 235//46
f 236//47 235//46 231//65
f 234//48 237//53 238//52
f 237//53 234//48 233//49
f 235//46 236//47 239//50
f 240//51 239//50 236//47
f 238//52 164//27 161//24
f 164//27 238//52 237//53
f 239//50 240//51 165//28
f 166//29 165//28 240//51
f 3//8 22//5 25//5
f 3//8 46//8 22//5