# Blender v3.0.1 OBJ File: ''
# www.blender.org
mtllib 03.mtl
o model_normalized.005
v 0.603487 0.155313 0.362335
v 0.603487 -0.659669 0.369541
v 0.603487 0.155313 0.369541
v 0.603487 0.099465 0.362335
v 0.603487 -0.659669 0.325769
v 0.603487 0.099465 0.341553
v 0.603487 0.155313 0.325769
v 0.647260 -0.659669 0.325769
v 0.603487 0.099465 0.325769
v 0.640053 0.099465 0.325769
v 0.647260 -0.659669 0.369541
v 0.647260 0.155313 0.369541
v 0.647260 0.155313 0.325769
vt -0.088900 1.436220
vt -0.076200 -0.000000
vt -0.076200 1.436220
vt -0.088900 1.337800
vt -0.153339 -0.000000
vt -0.125523 1.337800
vt -0.153339 1.436220
vt -2.282820 0.000000
vt -2.205690 1.337800
vt -2.270120 1.337800
vt -2.205690 0.000000
vt -2.282820 0.153339
vt -2.205690 0.076200
vt -2.205690 0.153339
vt -2.282820 0.076200
vt 0.153339 0.000000
vt 0.076200 1.436220
vt 0.076200 0.000000
vt 0.153339 1.436220
vt -2.282820 1.436220
vt 2.282820 1.436220
vt 2.205690 0.000000
vt 2.282820 0.000000
vt 2.205690 1.436220
vn -1.0000 -0.0000 0.0000
vn 0.0000 0.0000 -1.0000
vn 0.0000 -1.0000 0.0000
vn 1.0000 -0.0000 0.0000
vn 0.0000 -0.0000 1.0000
usemtl wood_maple.004
s 1
f 1/1/1 2/2/1 3/3/1
f 2/2/1 1/1/1 4/4/1
f 2/2/1 4/4/1 5/5/1
f 5/5/1 4/4/1 6/6/1
f 5/5/1 6/6/1 7/7/1
f 8/8/2 9/9/2 10/10/2
f 9/9/2 8/8/2 5/11/2
f 8/12/3 2/13/3 5/14/3
f 2/13/3 8/12/3 11/15/3
f 8/16/4 12/17/4 11/18/4
f 12/17/4 8/16/4 13/19/4
f 8/8/2 10/10/2 13/20/2
f 12/21/5 2/22/5 11/23/5
f 2/22/5 12/21/5 3/24/5