# Blender v3.0.1 OBJ File: ''
# www.blender.org
mtllib 04.mtl
o model_normalized.004
v 0.603487 -0.659669 -0.381959
v 0.603487 0.099465 -0.353971
v 0.603487 0.099465 -0.374752
v 0.603487 -0.659669 -0.338186
v 0.603487 0.155313 -0.353971
v 0.603487 0.155313 -0.338186
v 0.640053 0.099465 -0.338186
v 0.603487 0.099465 -0.338186
v 0.647260 0.155313 -0.338186
v 0.647260 -0.659669 -0.338186
v 0.647260 -0.659669 -0.381959
v 0.603487 0.155313 -0.381959
v 0.647260 0.155313 -0.381959
vt -1.400550 -0.000000
vt -1.351230 1.337800
vt -1.387850 1.337800
vt -1.323410 -0.000000
vt -1.351230 1.436220
vt -1.323410 1.436220
vt 2.270130 1.337800
vt 2.205690 1.337800
vt 2.205690 -0.000000
vt 2.282830 1.436220
vt 2.282830 -0.000000
vt -2.205690 1.323410
vt -2.282820 1.400550
vt -2.282820 1.323410
vt -2.205690 1.400550
vt -2.205690 1.436220
vt -2.282820 0.000000
vt -2.205690 0.000000
vt -2.282820 1.436220
vt 1.400550 1.436220
vt 1.323410 0.000000
vt 1.400550 0.000000
vt 1.323410 1.436220
vt -1.400550 1.436220
vn -1.0000 -0.0000 0.0000
vn 0.0000 -0.0000 1.0000
vn 0.0000 -1.0000 0.0000
vn 0.0000 0.0000 -1.0000
vn 1.0000 0.0000 0.0000
usemtl wood_maple
s 1
f 1/1/1 2/2/1 3/3/1
f 4/4/1 2/2/1 1/1/1
f 4/4/1 5/5/1 2/2/1
f 4/4/1 6/6/1 5/5/1
f 7/7/2 8/8/2 4/9/2
f 4/9/2 9/10/2 7/7/2
f 9/10/2 4/9/2 10/11/2
f 4/12/3 11/13/3 10/14/3
f 11/13/3 4/12/3 1/15/3
f 12/16/4 11/17/4 1/18/4
f 11/17/4 12/16/4 13/19/4
f 13/20/5 10/21/5 11/22/5
f 10/21/5 13/20/5 9/23/5
f 1/1/1 3/3/1 12/24/1