# Blender v3.0.1 OBJ File: ''
# www.blender.org
mtllib 01.mtl
o model_normalized.004_model_normalized.018
v 0.295413 -0.087226 -0.328176
v 0.263142 -0.109939 0.244582
v 0.295413 -0.107230 0.244677
v 0.263142 -0.089935 -0.328270
v 0.269917 -0.170562 -0.331085
v 0.302187 -0.187859 0.241861
v 0.269917 -0.190566 0.241767
v 0.302187 -0.167853 -0.330991
vt 0.000000 0.000000
vt 0.787402 13.937000
vt 0.000000 13.937000
vt 0.787402 0.000000
vt 1.968500 -0.000000
vt 0.000000 13.937000
vt 0.000000 0.000000
vt 0.787402 0.000000
vt 0.000000 1.968500
vt 0.000000 0.000000
vt 0.787402 1.968500
vt 1.968500 13.937000
vt -0.787402 1.968500
vt 0.000000 1.968500
vt -0.787402 0.000000
vt 0.000000 0.000000
vt -0.787402 13.937000
vt -0.787402 -0.000000
vt -1.968500 0.000000
vt -1.968500 13.937000
vt -0.000000 13.937000
vn -0.0837 0.9959 0.0348
vn -0.9965 -0.0836 -0.0029
vn -0.0000 -0.0349 0.9994
vn -0.0000 0.0349 -0.9994
vn 0.0837 -0.9959 -0.0348
vn 0.0836 -0.9959 -0.0348
vn 0.9965 0.0836 0.0029
usemtl _Color_007_4.004
s 1
f 1/1/1 2/2/1 3/3/1
f 2/2/1 1/1/1 4/4/1
f 5/5/2 2/6/2 4/7/2
f 2/8/3 6/9/3 3/10/3
f 6/9/3 2/8/3 7/11/3
f 2/6/2 5/5/2 7/12/2
f 5/13/4 1/1/4 8/14/4
f 1/1/4 5/13/4 4/15/4
f 8/16/5 7/17/6 5/18/5
f 3/3/7 8/19/7 1/1/7
f 8/19/7 3/3/7 6/20/7
f 7/17/6 8/16/5 6/21/6