# Blender v3.0.1 OBJ File: ''
# www.blender.org
mtllib 02.mtl
o model_normalized.005_model_normalized.019
v -0.316969 -0.830234 0.295572
v -0.365076 -0.829061 0.246545
v -0.316696 -0.833384 0.247099
v -0.365350 -0.825912 0.295018
v -0.259803 0.345710 0.219492
v -0.271350 0.211349 0.179476
v -0.211423 0.341386 0.220046
v -0.211259 0.339498 0.190969
v -0.259639 0.343820 0.190414
v -0.222969 0.207027 0.180031
vt 0.000000 0.000000
vt -1.181100 1.181100
vt -1.181100 -0.000000
vt 0.000000 1.181100
vt 0.000000 28.661400
vt -1.181100 -0.000000
vt -0.000000 -0.000000
vt 1.181100 25.451599
vt 0.000000 0.000000
vt 1.181100 0.000000
vt -1.181100 25.451599
vt -1.181100 28.661400
vt 0.000000 28.661400
vt 0.708497 -0.000000
vt 0.000000 1.181100
vt 0.000000 -0.000000
vt -1.181100 0.000000
vt -0.708497 28.661400
vt 0.708497 1.181100
vt 1.181100 25.451599
vt 0.708497 28.661400
vt -0.000000 25.008101
vt 1.181100 28.252501
vt -0.000000 28.252501
vt 1.181100 0.000000
vt -0.000000 25.451599
vt 1.181100 25.008101
vn -0.0895 -0.9939 0.0641
vn -0.9960 0.0890 -0.0114
vn 0.0057 -0.0648 -0.9979
vn 0.0056 -0.0648 -0.9979
vn -0.0056 0.0648 0.9979
vn 0.0896 0.9939 -0.0641
vn 0.0895 0.9939 -0.0641
vn 0.0896 0.9939 -0.0640
vn 0.9960 -0.0890 0.0114
vn 0.0186 0.0806 -0.9966
usemtl _Color_007_4.006
s 1
f 1/1/1 2/2/1 3/3/1
f 2/2/1 1/1/1 4/4/1
f 5/5/2 2/6/2 4/7/2
f 6/8/3 3/9/4 2/10/4
f 2/6/2 5/5/2 6/11/2
f 5/12/5 1/1/5 7/13/5
f 8/14/6 5/15/7 7/16/8
f 1/1/5 5/12/5 4/17/5
f 6/11/2 5/5/2 9/18/2
f 5/15/7 8/14/6 9/19/7
f 7/13/9 10/20/9 8/21/9
f 10/22/10 9/23/10 8/24/10
f 7/13/9 3/25/9 10/20/9
f 3/9/4 6/8/3 10/26/3
f 9/23/10 10/22/10 6/27/10
f 3/25/9 7/13/9 1/1/9