# Blender v3.0.1 OBJ File: ''
# www.blender.org
mtllib 04.mtl
o model_normalized.003_model_normalized.017
v -0.250138 -0.115204 0.162820
v -0.255988 -0.195783 0.168073
v -0.213636 -0.198806 0.168843
v -0.257238 -0.195692 0.168050
v -0.256804 -0.197831 0.135741
v -0.255553 -0.197920 0.135763
v -0.249702 -0.117342 0.130509
v -0.208307 -0.118192 0.163580
v -0.213202 -0.200945 0.136532
v -0.207872 -0.120329 0.131268
v -0.166441 -0.120642 0.164305
v -0.166005 -0.122779 0.131994
v -0.170296 -0.203455 0.137275
v -0.127359 -0.205414 0.137982
v -0.127793 -0.203277 0.170293
v -0.170730 -0.201317 0.169586
v -0.124111 -0.124691 0.132683
v -0.084836 -0.204684 0.170963
v -0.084400 -0.206821 0.138653
v -0.041862 -0.205539 0.171598
v -0.041428 -0.207678 0.139287
v -0.082193 -0.126064 0.133338
v -0.082629 -0.123925 0.165649
v -0.040696 -0.124761 0.166268
v -0.040262 -0.126898 0.133958
v 0.001554 -0.207980 0.139885
v 0.001677 -0.127195 0.134541
v 0.001243 -0.125056 0.166851
v 0.043183 -0.124813 0.167399
v 0.043617 -0.126952 0.135088
v 0.044536 -0.207731 0.140447
v 0.044102 -0.205592 0.172757
v 0.087078 -0.204791 0.173282
v 0.087514 -0.206930 0.140971
v 0.085551 -0.126170 0.135601
v 0.085117 -0.124031 0.167911
v 0.127039 -0.122711 0.168388
v 0.127472 -0.124848 0.136077
v 0.168939 -0.120852 0.168828
v 0.169373 -0.122990 0.136518
v 0.130476 -0.205576 0.141459
v 0.173418 -0.203672 0.141911
v 0.130041 -0.203439 0.173770
v 0.172984 -0.201533 0.174221
v 0.211247 -0.120593 0.136921
v 0.216332 -0.201214 0.142325
v 0.215898 -0.199076 0.174636
v 0.253087 -0.117658 0.137290
v 0.258692 -0.198243 0.142698
v 0.258257 -0.196105 0.175009
v 0.252652 -0.115520 0.169601
v 0.259801 -0.195997 0.175022
v 0.260235 -0.198134 0.142712
v 0.210812 -0.118454 0.169232
v 0.001120 -0.205842 0.172196
v -0.124545 -0.122552 0.164995
vt 0.169772 2.194300
vt 0.029268 0.230819
vt 1.059160 0.157122
vt -0.001153 0.232996
vt 0.146439 0.160001
vt 0.744614 0.672952
vt 0.723879 0.695317
vt 0.167173 0.137635
vt 1.446570 -0.084247
vt 0.985986 0.298017
vt 0.069840 2.210240
vt 0.200316 0.245833
vt -0.169772 2.194300
vt -0.029268 0.230819
vt 0.001153 0.232996
vt -1.437960 -0.074955
vt -0.167173 0.137635
vt -0.744614 0.672952
vt 0.855510 2.262430
vt -1.059160 0.157122
vt -1.187020 2.121510
vt -0.860519 -0.610271
vt -2.223380 -0.626826
vt -0.937798 -0.540918
vt -1.459480 0.048866
vt -1.701690 -1.216610
vt -2.102560 0.095948
vt -2.205120 2.061820
vt -3.146660 0.048212
vt 1.847760 -1.012730
vt 3.155240 -0.958440
vt 2.295050 -0.364710
vt 2.707950 -1.606460
vt 2.232870 -0.635222
vt 0.928306 -0.532523
vt 1.711180 -1.225010
vt -3.223910 2.015240
vt 2.912240 -1.202670
vt 4.198430 -0.961519
vt 3.262020 -0.497226
vt -4.191290 0.013921
vt 3.848650 -1.666970
vt 4.074360 -1.001940
vt 5.302280 -0.549574
vt 4.301540 -0.248023
vt 5.075110 -1.303490
vt -4.243210 1.981780
vt -5.236270 -0.006919
vt -2.923600 -1.208300
vt -4.187080 -0.955890
vt -3.837300 -1.661340
vt -5.290150 -0.545918
vt -4.086500 -1.005600
vt -4.313670 -0.251679
vt -5.062980 -1.299840
vt -5.262850 1.961450
vt -6.281440 -0.014304
vt -6.282680 1.954240
vt -6.339830 0.332314
vt -5.242150 -0.342354
vt -5.325750 0.440597
vt -6.256230 -0.450637
vt -7.197990 1.639310
vt -6.250910 0.765738
vt -6.182050 1.550120
vt -7.266850 0.854923
vt -7.326620 -0.008232
vt -7.302510 1.960160
vt 7.210610 1.640420
vt 6.238280 0.764630
vt 7.279470 0.856031
vt 6.990860 2.198390
vt 7.782780 3.240160
vt 6.776910 2.956160
vt 7.996730 2.482380
vt -8.322180 1.979220
vt -8.371630 0.011294
vt -7.003060 2.201830
vt -7.770590 3.236710
vt -7.984540 2.478940
vt -8.053110 4.951860
vt -7.471470 3.802170
vt -7.132560 4.512900
vt -8.392020 4.241120
vt -9.341520 2.011400
vt -8.110090 6.652700
vt -7.702170 5.430530
vt -7.263320 6.084300
vt -8.548940 5.998930
vt -9.416300 0.044272
vt -10.360400 2.056690
vt -10.460500 0.090696
vt 8.064550 4.957310
vt 7.460030 3.796710
vt 8.403450 4.246580
vt 7.691650 5.423470
vt 8.120610 6.659760
vt 7.252800 6.077240
vt 8.559460 6.006000
vt 9.341520 2.011400
vt 8.371630 0.011294
vt 9.416300 0.044272
vt 10.360400 2.056690
vt 10.460500 0.090696
vt 7.121120 4.507450
vt -11.378500 2.115110
vt -11.503900 0.150559
vt 7.758600 7.001550
vt 8.033540 8.280940
vt 7.243280 7.596900
vt 8.548860 7.685590
vt -12.395900 2.186620
vt -12.533900 0.222961
vt 7.861770 9.793750
vt 7.725830 8.502380
vt 8.434460 9.253350
vt 7.153150 9.042780
vt 12.395900 2.186620
vt 11.503900 0.150559
vt 12.533900 0.222961
vt 12.571400 0.225599
vt 7.887590 9.821100
vt -1.060770 -0.827780
vt -0.144593 1.084560
vt -0.930263 1.136750
vt -0.275104 -0.879975
vt 8.460280 9.280700
vt -12.571400 0.225599
vt 11.378500 2.115110
vt -7.861770 9.793750
vt -7.734530 8.511600
vt -7.161840 9.052000
vt -8.434460 9.253350
vt -8.023960 8.272640
vt -7.768180 7.009840
vt -7.252860 7.605190
vt -8.539280 7.677290
vt 8.322180 1.979220
vt 7.302510 1.960160
vt 7.326620 -0.008232
vt -6.789110 2.959610
vt 6.169430 1.549020
vt 6.282680 1.954240
vt 6.281440 -0.014304
vt 5.229550 -0.341008
vt 6.352430 0.330969
vt 5.313150 0.441942
vt 5.262850 1.961450
vt 5.236270 -0.006919
vt 6.268830 -0.451982
vt 4.243210 1.981780
vt 3.223910 2.015240
vt 4.191290 0.013921
vt -3.273370 -0.502855
vt 2.205120 2.061820
vt 3.146660 0.048212
vt -3.144810 -0.951242
vt -1.858190 -1.019930
vt -2.305480 -0.371909
vt -2.697520 -1.599260
vt 1.187020 2.121510
vt 2.102560 0.095948
vt 1.449990 0.057261
vt 0.869134 -0.619564
vn -0.0134 0.0660 0.9977
vn -0.0135 0.0660 0.9977
vn -0.0729 -0.9952 0.0649
vn -0.0720 -0.9953 0.0649
vn -0.0736 -0.9952 0.0649
vn -0.0721 -0.9953 0.0649
vn -0.0723 -0.9953 0.0649
vn -0.9961 0.0866 -0.0191
vn -0.9961 0.0866 -0.0192
vn 0.0134 -0.0660 -0.9977
vn 0.0131 -0.0660 -0.9977
vn 0.0129 -0.0660 -0.9977
vn 0.0723 0.9953 -0.0650
vn 0.0723 0.9953 -0.0649
vn 0.0594 0.9961 -0.0651
vn 0.0466 0.9968 -0.0653
vn -0.0466 -0.9968 0.0653
vn -0.0593 -0.9961 0.0651
vn -0.0337 -0.9973 0.0655
vn -0.0594 -0.9961 0.0651
vn -0.0209 -0.9976 0.0657
vn -0.0208 -0.9976 0.0658
vn -0.0079 -0.9978 0.0659
vn 0.0337 0.9973 -0.0657
vn 0.0208 0.9976 -0.0657
vn 0.0079 0.9978 -0.0659
vn -0.0049 0.9978 -0.0660
vn -0.0049 0.9978 -0.0661
vn -0.0178 0.9976 -0.0663
vn 0.0049 -0.9978 0.0661
vn 0.0178 -0.9976 0.0663
vn 0.0307 -0.9973 0.0664
vn -0.0306 0.9973 -0.0664
vn -0.0307 0.9973 -0.0664
vn -0.0435 0.9968 -0.0665
vn -0.0564 0.9962 -0.0667
vn 0.0435 -0.9968 0.0665
vn 0.0435 -0.9968 0.0666
vn 0.0564 -0.9962 0.0667
vn 0.0692 -0.9954 0.0668
vn 0.0136 -0.0660 -0.9977
vn 0.0691 -0.9954 0.0668
vn 0.0695 -0.9953 0.0668
vn -0.0132 0.0660 0.9977
vn -0.0130 0.0660 0.9977
vn 0.9960 0.0890 0.0075
vn 0.0694 -0.9954 0.0668
vn 0.0137 -0.0660 -0.9977
vn -0.0692 0.9954 -0.0668
vn 0.0465 0.9968 -0.0653
usemtl _Color_007_4.002
s 1
f 1/1/1 2/2/2 3/3/1
f 2/2/2 1/1/1 4/4/2
f 5/5/3 2/6/4 4/7/5
f 6/8/6 3/9/7 2/6/4
f 2/6/4 5/5/3 6/8/6
f 4/10/8 7/11/9 5/12/8
f 7/13/10 6/14/11 5/15/12
f 8/16/13 7/17/14 1/18/14
f 7/11/9 4/10/8 1/19/9
f 6/14/11 7/13/10 9/20/10
f 9/20/10 7/13/10 10/21/10
f 7/17/14 8/16/13 10/22/15
f 11/23/15 10/24/15 8/25/13
f 10/24/15 11/23/15 12/26/16
f 13/27/10 10/21/10 12/28/10
f 9/20/10 10/21/10 13/27/10
f 13/27/10 12/28/10 14/29/10
f 13/30/17 15/31/17 16/32/18
f 15/31/17 13/30/17 14/33/19
f 16/34/18 9/35/20 13/36/17
f 14/29/10 12/28/10 17/37/10
f 14/38/19 18/39/19 15/40/17
f 14/29/10 17/37/10 19/41/10
f 18/39/19 14/38/19 19/42/21
f 19/43/21 20/44/22 18/45/19
f 20/44/22 19/43/21 21/46/23
f 19/41/10 17/37/10 22/47/10
f 19/41/10 22/47/10 21/48/10
f 17/49/24 23/50/24 22/51/25
f 24/52/25 22/53/25 23/54/24
f 22/53/25 24/52/25 25/55/26
f 21/48/10 22/47/10 25/56/10
f 26/57/10 25/56/10 27/58/10
f 21/48/10 25/56/10 26/57/10
f 28/59/26 25/60/26 24/61/25
f 25/60/26 28/59/26 27/62/27
f 29/63/28 27/64/27 28/65/26
f 27/64/27 29/63/28 30/66/29
f 31/67/10 27/58/10 30/68/10
f 26/57/10 27/58/10 31/67/10
f 32/69/30 26/70/30 31/71/31
f 31/72/31 33/73/31 32/74/30
f 33/73/31 31/72/31 34/75/32
f 31/67/10 35/76/10 34/77/10
f 31/67/10 30/68/10 35/76/10
f 30/78/29 36/79/29 35/80/33
f 37/81/34 35/82/33 36/83/29
f 35/82/33 37/81/34 38/84/35
f 34/77/10 35/76/10 38/85/10
f 39/86/35 38/87/35 37/88/34
f 38/87/35 39/86/35 40/89/36
f 41/90/10 38/85/10 40/91/10
f 34/77/10 38/85/10 41/90/10
f 41/90/10 40/91/10 42/92/10
f 43/93/32 34/94/32 41/95/37
f 41/96/37 44/97/38 43/98/32
f 44/97/38 41/96/37 42/99/39
f 37/100/1 33/101/1 43/102/1
f 37/100/1 43/102/1 39/103/1
f 39/103/1 43/102/1 44/104/1
f 34/94/32 43/93/32 33/105/31
f 42/92/10 40/91/10 45/106/10
f 42/92/10 45/106/10 46/107/10
f 42/108/39 47/109/39 44/110/38
f 47/109/39 42/108/39 46/111/40
f 46/107/10 45/106/10 48/112/10
f 46/107/10 48/112/10 49/113/41
f 50/114/42 46/115/40 49/116/43
f 46/115/40 50/114/42 47/117/39
f 51/118/1 47/119/1 50/120/44
f 51/118/1 50/120/44 52/121/45
f 49/116/43 52/122/42 50/114/42
f 52/123/46 48/124/46 51/125/46
f 48/124/46 52/123/46 53/126/46
f 52/122/42 49/116/43 53/127/47
f 49/113/41 48/112/10 53/128/48
f 54/129/1 47/119/1 51/118/1
f 51/130/49 45/131/49 54/132/36
f 45/131/49 51/130/49 48/133/49
f 39/103/1 44/104/1 54/129/1
f 54/134/36 40/135/36 39/136/35
f 40/135/36 54/134/36 45/137/49
f 54/129/1 44/104/1 47/119/1
f 36/138/1 33/101/1 37/100/1
f 29/139/1 32/140/1 36/138/1
f 36/79/29 30/78/29 29/141/28
f 36/138/1 32/140/1 33/101/1
f 26/70/30 32/69/30 55/142/23
f 28/143/1 55/144/1 32/140/1
f 28/143/1 32/140/1 29/139/1
f 21/145/23 55/146/23 20/147/22
f 24/148/1 20/149/1 55/144/1
f 55/146/23 21/145/23 26/150/30
f 24/148/1 55/144/1 28/143/1
f 23/151/1 20/149/1 24/148/1
f 56/152/1 18/153/1 23/151/1
f 23/50/24 17/49/24 56/154/50
f 23/151/1 18/153/1 20/149/1
f 11/155/1 15/156/1 56/152/1
f 56/157/50 12/158/16 11/159/15
f 12/158/16 56/157/50 17/160/24
f 56/152/1 15/156/1 18/153/1
f 8/161/1 3/3/1 16/162/1
f 8/161/1 16/162/1 11/155/1
f 11/155/1 16/162/1 15/156/1
f 9/35/20 16/34/18 3/163/7
f 1/1/1 3/3/1 8/161/1
f 3/9/7 6/8/6 9/164/20