# Blender v3.0.1 OBJ File: ''
# www.blender.org
mtllib 05.mtl
o model_normalized.001_model_normalized.015
v 0.252582 -0.089995 -0.375293
v 0.258330 -0.170573 -0.380658
v 0.215973 -0.173598 -0.380614
v 0.259581 -0.170484 -0.380659
v 0.259767 -0.172622 -0.348346
v 0.258516 -0.172711 -0.348345
v 0.252768 -0.092134 -0.342980
v 0.210745 -0.092982 -0.375249
v 0.216158 -0.175735 -0.348301
v 0.210931 -0.095121 -0.342936
v 0.168873 -0.095432 -0.375170
v 0.169057 -0.097569 -0.342857
v 0.173244 -0.178247 -0.348220
v 0.130303 -0.180204 -0.348103
v 0.130117 -0.178067 -0.380416
v 0.173060 -0.176108 -0.380533
v 0.127157 -0.099482 -0.342744
v 0.087154 -0.179474 -0.380262
v 0.087340 -0.181613 -0.347948
v 0.044177 -0.180329 -0.380071
v 0.044361 -0.182468 -0.347758
v 0.085235 -0.100855 -0.342593
v 0.001192 -0.180632 -0.379843
v 0.001378 -0.182771 -0.347530
v 0.043299 -0.101689 -0.342407
v -0.041794 -0.180384 -0.379579
v -0.041607 -0.182522 -0.347266
v 0.001357 -0.101985 -0.342185
v 0.001171 -0.099846 -0.374498
v -0.040772 -0.099603 -0.374241
v -0.040586 -0.101742 -0.341928
v -0.082708 -0.098821 -0.373948
v -0.082522 -0.100960 -0.341635
v -0.124631 -0.097501 -0.373619
v -0.124445 -0.099639 -0.341306
v -0.084586 -0.181720 -0.346967
v -0.084772 -0.179583 -0.379280
v -0.127737 -0.178229 -0.378943
v -0.127550 -0.180366 -0.346630
v -0.166531 -0.095643 -0.373255
v -0.170680 -0.176323 -0.378570
v -0.208406 -0.093245 -0.372855
v -0.213594 -0.173867 -0.378161
v -0.170494 -0.178462 -0.346257
v -0.250245 -0.090311 -0.372421
v -0.255953 -0.170896 -0.377720
v -0.213408 -0.176006 -0.345848
v -0.208220 -0.095384 -0.340542
v -0.250059 -0.092448 -0.340108
v -0.255766 -0.173035 -0.345407
v -0.257311 -0.172926 -0.345391
v -0.257496 -0.170787 -0.377704
v -0.166345 -0.097780 -0.340941
v 0.043113 -0.099551 -0.374720
v 0.085049 -0.098716 -0.374906
v 0.126971 -0.097343 -0.375057
vt 0.169772 2.194300
vt 0.029268 0.230819
vt 1.059160 0.157122
vt -0.001153 0.232996
vt 0.146439 0.160001
vt 0.744614 0.672952
vt 0.723879 0.695317
vt 0.167173 0.137635
vt 1.446570 -0.084247
vt 0.985986 0.298017
vt 0.069840 2.210240
vt 0.200316 0.245833
vt -0.169772 2.194300
vt -0.029268 0.230819
vt 0.001153 0.232996
vt -1.437960 -0.074955
vt -0.167173 0.137635
vt -0.744614 0.672952
vt 0.855510 2.262430
vt -1.059160 0.157122
vt -1.187020 2.121510
vt -0.860519 -0.610271
vt -2.223380 -0.626826
vt -0.937798 -0.540918
vt -1.459480 0.048866
vt -1.701690 -1.216610
vt -2.102560 0.095948
vt -2.205120 2.061820
vt -3.146660 0.048212
vt 1.847760 -1.012730
vt 3.155240 -0.958440
vt 2.295050 -0.364710
vt 2.707950 -1.606460
vt 2.232870 -0.635222
vt 0.928306 -0.532523
vt 1.711180 -1.225010
vt -3.223910 2.015240
vt 2.912240 -1.202670
vt 4.198430 -0.961519
vt 3.262020 -0.497226
vt 3.848650 -1.666970
vt -4.191290 0.013921
vt 4.074360 -1.001940
vt 5.302280 -0.549574
vt 4.301540 -0.248023
vt 5.075110 -1.303490
vt -4.243210 1.981780
vt -5.236270 -0.006919
vt 5.229550 -0.341008
vt 6.352430 0.330969
vt 5.313150 0.441942
vt 6.268830 -0.451982
vt -5.262850 1.961450
vt -6.281440 -0.014304
vt 6.238280 0.764630
vt 7.210610 1.640420
vt 6.169430 1.549020
vt 7.279470 0.856031
vt -6.282680 1.954240
vt -7.326620 -0.008232
vt -5.242150 -0.342354
vt -6.339830 0.332314
vt -6.256230 -0.450637
vt -7.197990 1.639310
vt -6.250910 0.765738
vt -6.182050 1.550120
vt -7.266850 0.854923
vt -7.302510 1.960160
vt -7.770590 3.236710
vt -7.003060 2.201830
vt -6.789110 2.959610
vt -7.984540 2.478940
vt -8.322180 1.979220
vt -8.053110 4.951860
vt -7.471470 3.802170
vt -7.132560 4.512900
vt -8.392020 4.241120
vt -8.371630 0.011294
vt -9.341520 2.011400
vt 7.782780 3.240160
vt 6.990860 2.198390
vt 7.996730 2.482380
vt 7.460030 3.796710
vt 8.064550 4.957310
vt 7.121120 4.507450
vt -9.416300 0.044272
vt 8.403450 4.246580
vt 9.341520 2.011400
vt 8.371630 0.011294
vt 9.416300 0.044272
vt 10.360400 2.056690
vt 10.460500 0.090696
vt 7.691650 5.423470
vt 8.120610 6.659760
vt 7.252800 6.077240
vt 11.378500 2.115110
vt 11.503900 0.150559
vt 8.559460 6.006000
vt 7.758600 7.001550
vt 8.033540 8.280940
vt 7.243280 7.596900
vt 12.395900 2.186620
vt 12.533900 0.222961
vt 7.725830 8.502380
vt 7.861770 9.793750
vt 7.153150 9.042780
vt 8.548860 7.685590
vt -11.503900 0.150559
vt -11.378500 2.115110
vt -12.395900 2.186620
vt -10.460500 0.090696
vt -12.533900 0.222961
vt 8.434460 9.253350
vt -12.571400 0.225599
vt 7.887590 9.821100
vt 8.460280 9.280700
vt -0.144593 1.084560
vt -1.060770 -0.827780
vt -0.275104 -0.879975
vt 12.571400 0.225599
vt -0.930263 1.136750
vt -7.734530 8.511600
vt -7.861770 9.793750
vt -8.434460 9.253350
vt -10.360400 2.056690
vt -7.768180 7.009840
vt -8.023960 8.272640
vt -8.539280 7.677290
vt -7.161840 9.052000
vt -7.702170 5.430530
vt -8.110090 6.652700
vt -8.548940 5.998930
vt -7.252860 7.605190
vt -7.263320 6.084300
vt 6.776910 2.956160
vt 8.322180 1.979220
vt 7.326620 -0.008232
vt 7.302510 1.960160
vt 6.282680 1.954240
vt 5.262850 1.961450
vt 6.281440 -0.014304
vt -5.325750 0.440597
vt 4.243210 1.981780
vt 5.236270 -0.006919
vt -5.290150 -0.545918
vt -4.086500 -1.005600
vt -4.313670 -0.251679
vt -5.062980 -1.299840
vt 3.223910 2.015240
vt 4.191290 0.013921
vt -4.187080 -0.955890
vt -2.923600 -1.208300
vt -3.273370 -0.502855
vt -3.837300 -1.661340
vt 2.205120 2.061820
vt 3.146660 0.048212
vt -3.144810 -0.951242
vt -1.858190 -1.019930
vt -2.305480 -0.371909
vt -2.697520 -1.599260
vt 1.187020 2.121510
vt 2.102560 0.095948
vt 1.449990 0.057261
vt 0.869134 -0.619564
vn -0.0058 0.0660 -0.9978
vn -0.0056 0.0660 -0.9978
vn -0.0057 0.0660 -0.9978
vn -0.0055 0.0660 -0.9978
vn 0.0708 -0.9953 -0.0663
vn 0.0709 -0.9953 -0.0663
vn 0.0707 -0.9953 -0.0663
vn 0.0710 -0.9953 -0.0662
vn 0.9962 0.0866 -0.0000
vn 0.0058 -0.0660 0.9978
vn 0.0056 -0.0660 0.9978
vn 0.0055 -0.0660 0.9978
vn -0.0710 0.9953 0.0663
vn -0.0582 0.9961 0.0663
vn -0.0581 0.9961 0.0662
vn -0.0453 0.9968 0.0662
vn 0.0057 -0.0660 0.9978
vn 0.0453 -0.9968 -0.0662
vn 0.0581 -0.9961 -0.0663
vn 0.0324 -0.9973 -0.0662
vn 0.0582 -0.9961 -0.0662
vn 0.0196 -0.9976 -0.0660
vn 0.0196 -0.9976 -0.0662
vn 0.0067 -0.9978 -0.0661
vn -0.0062 -0.9978 -0.0660
vn -0.0190 -0.9976 -0.0659
vn -0.0067 0.9978 0.0661
vn 0.0062 0.9978 0.0660
vn 0.0189 0.9976 0.0659
vn 0.0191 0.9976 0.0659
vn 0.0319 0.9973 0.0658
vn 0.0448 0.9968 0.0657
vn -0.0192 -0.9976 -0.0659
vn -0.0319 -0.9973 -0.0659
vn -0.0448 -0.9968 -0.0657
vn -0.0576 -0.9962 -0.0656
vn -0.0704 -0.9954 -0.0655
vn -0.0707 -0.9953 -0.0655
vn -0.0710 -0.9953 -0.0655
vn -0.0709 -0.9953 -0.0655
vn -0.9960 0.0890 0.0116
vn 0.0705 0.9954 0.0655
vn 0.0705 0.9954 0.0654
vn 0.0577 0.9962 0.0657
vn 0.0578 0.9962 0.0656
vn 0.0448 0.9968 0.0658
vn -0.0195 0.9976 0.0661
vn -0.0324 0.9973 0.0662
usemtl _Color_007_4.003
s 1
f 1/1/1 2/2/2 3/3/3
f 2/2/2 1/1/1 4/4/4
f 5/5/5 2/6/6 4/7/7
f 6/8/6 3/9/8 2/6/6
f 2/6/6 5/5/5 6/8/6
f 4/10/9 7/11/9 5/12/9
f 7/13/10 6/14/11 5/15/12
f 8/16/13 7/17/13 1/18/13
f 7/11/9 4/10/9 1/19/9
f 6/14/11 7/13/10 9/20/10
f 9/20/10 7/13/10 10/21/10
f 7/17/13 8/16/13 10/22/14
f 11/23/15 10/24/14 8/25/13
f 10/24/14 11/23/15 12/26/16
f 13/27/17 10/21/10 12/28/17
f 9/20/10 10/21/10 13/27/17
f 13/27/17 12/28/17 14/29/17
f 13/30/18 15/31/18 16/32/19
f 15/31/18 13/30/18 14/33/20
f 16/34/19 9/35/21 13/36/18
f 14/29/17 12/28/17 17/37/17
f 14/38/20 18/39/20 15/40/18
f 18/39/20 14/38/20 19/41/22
f 14/29/17 17/37/17 19/42/17
f 19/43/22 20/44/23 18/45/20
f 20/44/23 19/43/22 21/46/24
f 19/42/17 17/37/17 22/47/17
f 19/42/17 22/47/17 21/48/17
f 21/49/24 23/50/24 20/51/23
f 23/50/24 21/49/24 24/52/25
f 21/48/17 22/47/17 25/53/17
f 21/48/17 25/53/17 24/54/10
f 24/55/25 26/56/25 23/57/24
f 26/56/25 24/55/25 27/58/26
f 24/54/10 25/53/17 28/59/17
f 24/54/10 28/59/17 27/60/17
f 25/61/27 29/62/27 28/63/28
f 30/64/28 28/65/28 29/66/27
f 28/65/28 30/64/28 31/67/29
f 27/60/17 28/59/17 31/68/17
f 32/69/30 31/70/29 30/71/28
f 31/70/29 32/69/30 33/72/31
f 27/60/17 31/68/17 33/73/17
f 34/74/31 33/75/31 32/76/30
f 33/75/31 34/74/31 35/77/32
f 36/78/17 33/73/17 35/79/10
f 27/60/17 33/73/17 36/78/17
f 37/80/33 27/81/26 36/82/34
f 36/83/34 38/84/34 37/85/33
f 36/78/17 35/79/10 39/86/17
f 38/84/34 36/83/34 39/87/35
f 34/88/3 37/89/3 38/90/3
f 34/88/3 38/90/3 40/91/3
f 40/91/3 38/90/3 41/92/3
f 39/93/35 41/94/35 38/95/34
f 40/91/3 41/92/3 42/96/3
f 42/96/3 41/92/3 43/97/3
f 41/94/35 39/93/35 44/98/36
f 44/99/36 43/100/36 41/101/35
f 42/96/3 43/97/3 45/102/3
f 45/102/3 43/97/3 46/103/3
f 47/104/37 46/105/38 43/106/36
f 43/100/36 44/99/36 47/107/37
f 47/108/17 48/109/17 49/110/17
f 44/111/17 48/109/17 47/108/17
f 47/108/17 49/110/17 50/112/17
f 46/105/38 47/104/37 50/113/38
f 50/112/17 49/110/17 51/114/11
f 50/113/38 52/115/39 46/105/38
f 52/115/39 50/113/38 51/116/40
f 49/117/41 52/118/41 51/119/41
f 45/102/3 46/103/3 52/120/3
f 52/118/41 49/117/41 45/121/41
f 48/122/42 45/123/43 49/124/43
f 44/111/17 53/125/17 48/109/17
f 53/126/44 42/127/45 48/128/42
f 45/123/43 48/122/42 42/129/45
f 39/86/17 35/79/10 53/125/17
f 35/130/32 40/131/46 53/132/44
f 42/127/45 53/126/44 40/133/46
f 39/86/17 53/125/17 44/111/17
f 40/131/46 35/130/32 34/134/31
f 27/81/26 37/80/33 26/135/25
f 32/136/3 37/89/3 34/88/3
f 32/136/3 26/137/3 37/89/3
f 30/138/3 26/137/3 32/136/3
f 29/139/3 26/137/3 30/138/3
f 54/140/3 23/141/1 29/139/3
f 29/62/27 25/61/27 54/142/47
f 29/139/3 23/141/1 26/137/3
f 55/143/3 20/144/1 54/140/3
f 54/145/47 22/146/47 55/147/48
f 22/146/47 54/145/47 25/148/27
f 54/140/3 20/144/1 23/141/1
f 56/149/3 18/150/3 55/143/3
f 55/151/48 17/152/48 56/153/16
f 17/152/48 55/151/48 22/154/47
f 55/143/3 18/150/3 20/144/1
f 11/155/3 15/156/3 56/149/3
f 56/157/16 12/158/16 11/159/15
f 12/158/16 56/157/16 17/160/48
f 56/149/3 15/156/3 18/150/3
f 8/161/1 3/3/3 16/162/3
f 8/161/1 16/162/3 11/155/3
f 11/155/3 16/162/3 15/156/3
f 9/35/21 16/34/19 3/163/8
f 1/1/1 3/3/3 8/161/1
f 3/9/8 6/8/6 9/164/21
o model_normalized.006_model_normalized.020
v 0.365611 -0.829076 -0.381033
v 0.316938 -0.830077 -0.429503
v 0.365332 -0.825869 -0.429503
v 0.317217 -0.833285 -0.381033
v 0.252834 -0.092877 -0.331670
v 0.300949 -0.085463 -0.380139
v 0.252555 -0.089671 -0.380139
v 0.301227 -0.088670 -0.331670
vt 0.000000 0.000000
vt -1.181100 1.181100
vt -1.181100 -0.000000
vt 0.000000 1.181100
vt 0.000000 18.110201
vt -1.181100 0.000000
vt 0.000000 0.000000
vt 1.181100 0.000000
vt -0.000000 18.110201
vt -0.000000 0.000000
vt 1.181100 18.110201
vt -1.181100 18.110201
vt -1.181100 18.110201
vt -0.000000 18.110201
vt -1.181100 -0.000000
vt -0.000000 1.181100
vt 1.181100 0.000000
vt 1.181100 1.181100
vt -0.000000 0.000000
vt 1.181100 0.000000
vt 1.181100 18.110201
vn 0.0864 -0.9940 -0.0663
vn 0.0864 -0.9941 -0.0663
vn 0.0865 -0.9940 -0.0663
vn -0.9962 -0.0866 0.0000
vn -0.0057 0.0660 -0.9978
vn 0.0057 -0.0660 0.9978
vn -0.0864 0.9941 0.0663
vn -0.0864 0.9941 0.0662
vn 0.9962 0.0866 -0.0000
usemtl _Color_007_4.003
s 1
f 57/165/49 58/166/49 59/167/50
f 58/166/49 57/165/49 60/168/51
f 61/169/52 58/170/52 60/171/52
f 58/172/53 62/173/53 59/174/53
f 62/173/53 58/172/53 63/175/53
f 58/170/52 61/169/52 63/176/52
f 61/177/54 57/165/54 64/178/54
f 57/165/54 61/177/54 60/179/54
f 61/180/55 62/181/55 63/182/56
f 62/181/55 61/180/55 64/183/55
f 59/184/57 64/178/57 57/165/57
f 64/178/57 59/184/57 62/185/57
o model_normalized.008_model_normalized.022
v -0.316691 -0.833446 -0.377397
v -0.365350 -0.825916 -0.425301
v -0.316969 -0.830238 -0.425866
v -0.365071 -0.829124 -0.376832
v -0.298374 -0.088871 -0.328232
v -0.250272 -0.089985 -0.377267
v -0.298653 -0.085663 -0.376703
v -0.249994 -0.093193 -0.328797
vt 0.000000 0.000000
vt -1.181100 1.181100
vt -1.181100 -0.000000
vt 0.000000 1.181100
vt 0.000000 18.110201
vt -1.181100 0.000000
vt 0.000000 0.000000
vt 1.181100 0.000000
vt -0.000000 18.110201
vt -0.000000 0.000000
vt 1.181100 18.110201
vt -1.181100 18.110201
vt -1.181100 18.110201
vt -0.000000 18.110201
vt -1.181100 -0.000000
vt -0.000000 1.181100
vt 1.181100 0.000000
vt 1.181100 1.181100
vt -0.000000 0.000000
vt 1.181100 0.000000
vt 1.181100 18.110201
vn -0.0895 -0.9938 -0.0653
vn -0.9960 0.0890 0.0116
vn -0.0058 0.0660 -0.9978
vn -0.0057 0.0660 -0.9978
vn 0.0058 -0.0660 0.9978
vn 0.0895 0.9938 0.0653
vn 0.9960 -0.0890 -0.0116
usemtl _Color_007_4.003
s 1
f 65/186/58 66/187/58 67/188/58
f 66/187/58 65/186/58 68/189/58
f 69/190/59 66/191/59 68/192/59
f 66/193/60 70/194/61 67/195/60
f 70/194/61 66/193/60 71/196/61
f 66/191/59 69/190/59 71/197/59
f 69/198/62 65/186/62 72/199/62
f 65/186/62 69/198/62 68/200/62
f 69/201/63 70/202/63 71/203/63
f 70/202/63 69/201/63 72/204/63
f 67/205/64 72/199/64 65/186/64
f 72/199/64 67/205/64 70/206/64