# Blender v3.0.1 OBJ File: ''
# www.blender.org
mtllib 06.mtl
o model_normalized.014
v 0.328899 -0.108295 0.223387
v 0.328899 -0.092038 0.224072
v 0.274412 -0.114277 0.223135
v 0.365332 -0.079692 -0.455294
v 0.304790 -0.085675 -0.455546
v 0.365332 -0.063435 -0.454609
v 0.363738 -0.063593 -0.454615
v 0.327465 -0.092195 0.224066
v 0.303341 -0.069560 -0.454866
v 0.244151 -0.090571 -0.455752
v 0.242991 -0.074434 -0.455072
v 0.273108 -0.098164 0.223814
v 0.218793 -0.103036 0.223609
v 0.182563 -0.078226 -0.455232
v 0.183434 -0.094381 -0.455912
v 0.165192 -0.122983 0.222768
v 0.219837 -0.119173 0.222929
v 0.164408 -0.106828 0.223449
v 0.110493 -0.125707 0.222653
v 0.122659 -0.097103 -0.456027
v 0.122077 -0.080935 -0.455345
v 0.109970 -0.109539 0.223335
v 0.061553 -0.082561 -0.455415
v 0.061843 -0.098737 -0.456097
v 0.055759 -0.127340 0.222584
v 0.055498 -0.111164 0.223266
v 0.001009 -0.127884 0.222562
v 0.001009 -0.099281 -0.456119
v 0.001009 -0.083103 -0.455438
v 0.001009 -0.111707 0.223243
v -0.053742 -0.127340 0.222584
v -0.059825 -0.098737 -0.456097
v -0.059535 -0.082561 -0.455415
v -0.053481 -0.111164 0.223266
v -0.107953 -0.109539 0.223335
v -0.108476 -0.125707 0.222653
v -0.120641 -0.097103 -0.456027
v -0.120060 -0.080935 -0.455345
v -0.180546 -0.078226 -0.455232
v -0.162391 -0.106828 0.223449
v -0.240973 -0.074434 -0.455072
v -0.181417 -0.094381 -0.455912
v -0.163175 -0.122983 0.222768
v -0.216776 -0.103036 0.223609
v -0.217820 -0.119173 0.222929
v -0.242134 -0.090571 -0.455752
v -0.301325 -0.069560 -0.454866
v -0.271091 -0.098164 0.223814
v -0.361721 -0.063593 -0.454615
v -0.302774 -0.085675 -0.455546
v -0.272394 -0.114277 0.223135
v -0.325448 -0.092195 0.224066
v -0.326882 -0.108295 0.223387
v -0.363315 -0.079692 -0.455294
v -0.363315 -0.063435 -0.454609
v -0.326882 -0.092038 0.224072
vt 0.885827 0.476724
vt 0.885827 0.872345
vt 2.210650 0.331156
vt 16.540001 0.476724
vt 0.000000 0.476724
vt 16.540001 0.872345
vt 16.611000 -1.278770
vt 0.000000 0.052142
vt 16.540001 0.052142
vt 0.065765 -1.430780
vt 0.000000 0.046961
vt 16.598600 -1.430780
vt -1.472030 0.331156
vt -0.000000 0.872345
vt -0.038744 0.868514
vt -0.000000 0.085969
vt -0.002075 0.047092
vt -16.540001 0.085969
vt -16.540001 0.091566
vt -0.002066 0.056536
vt -16.541901 0.056536
vt -0.080371 -1.426510
vt -16.541901 0.047090
vt -1.507260 0.723293
vt -2.946430 0.211991
vt -2.974630 0.604696
vt -0.067018 -1.442540
vt -0.132263 -2.913240
vt -16.599701 -1.442540
vt -16.585699 -1.581580
vt -0.105899 -2.906690
vt -16.632700 -2.906690
vt -0.105899 -2.928960
vt -0.158205 -4.400180
vt -16.632700 -2.928960
vt -4.443880 0.512415
vt -4.422720 0.119267
vt 0.118732 -4.404950
vt 0.079099 -2.926270
vt 16.641001 -4.404950
vt 16.679800 -4.253670
vt 0.105397 -2.922620
vt 16.632299 -2.922620
vt 0.105397 -2.917870
vt 0.052656 -1.439600
vt 16.632299 -2.917870
vt 16.657900 -2.765980
vt 0.065765 -1.435000
vt 16.598600 -1.435000
vt 3.537610 0.211991
vt 2.242360 0.723293
vt 0.920696 0.868514
vt -16.540899 -0.089349
vt -0.067018 -1.417670
vt -16.599701 -1.417670
vt 3.562990 0.604696
vt 4.866280 0.119267
vt 4.885320 0.512415
vt 6.196230 0.053015
vt 16.676701 -5.740840
vt 0.118732 -4.409710
vt 16.641001 -4.409710
vt 0.105651 -5.891200
vt 0.079192 -4.412230
vt 16.624599 -5.891200
vt -5.900450 0.053015
vt -5.914560 0.446478
vt -0.079191 -4.415760
vt -0.105399 -5.887680
vt -16.624300 -5.887680
vt -0.105399 -5.899480
vt -0.131623 -7.371390
vt -16.624300 -5.899480
vt -7.386180 0.406908
vt -7.379120 0.013255
vt 0.066082 -7.375800
vt 0.052840 -5.896650
vt 16.583000 -7.375800
vt 16.648399 -7.226470
vt 0.105651 -5.895290
vt 16.624599 -5.895290
vt 7.527030 0.013255
vt 6.208930 0.446478
vt -0.118731 -4.411290
vt -16.676300 -5.736060
vt -16.640900 -4.411290
vt -16.605600 -3.070750
vt -0.118731 -4.395820
vt -16.640900 -4.395820
vt 7.533380 0.406908
vt 8.858270 0.000000
vt 16.549801 -7.452550
vt 16.555799 -8.783830
vt 0.033042 -7.378590
vt 0.039666 -8.857790
vt -8.858270 0.000000
vt -8.858270 0.393717
vt -0.032916 -7.381950
vt -0.039476 -8.854080
vt -16.549700 -7.455550
vt -16.555599 -8.780480
vt 8.858270 0.393717
vt 10.189500 0.013255
vt -16.476500 8.931740
vt -16.470501 10.263000
vt 0.039666 8.857790
vt 0.046289 10.337000
vt -10.337400 0.013255
vt -10.330400 0.406908
vt -0.039476 8.861490
vt -0.046037 10.333600
vt 16.476700 8.935090
vt 16.470800 10.260000
vt 10.183200 0.406908
vt 11.507600 0.446478
vt 11.520300 0.053015
vt -16.412500 11.664100
vt 0.092575 10.332800
vt -16.424400 10.332800
vt 0.211574 11.811300
vt 0.185098 10.332400
vt -16.307400 11.811300
vt -11.816100 0.053015
vt -11.802000 0.446478
vt -13.272700 0.512415
vt -0.210314 11.808300
vt -0.236522 13.280200
vt 16.308599 11.808300
vt -0.354617 13.277000
vt 16.167601 13.277000
vt 16.202900 11.952200
vt -0.354617 13.273900
vt -0.393873 14.745600
vt 16.167601 13.273900
vt -14.741900 0.604696
vt -13.293800 0.119267
vt 0.356884 13.281000
vt 0.317213 11.802300
vt -16.165400 13.281000
vt -16.283600 13.133600
vt 0.211574 11.802200
vt -16.307400 11.802200
vt 12.850300 0.119267
vt 12.831200 0.512415
vt 14.153500 0.604696
vt 14.178900 0.211991
vt -16.129700 14.596500
vt 0.356884 13.265100
vt -16.165400 13.265100
vt 0.528343 14.744900
vt 0.475534 13.266600
vt -15.998500 14.744900
vt -14.770100 0.211991
vt -16.209299 0.723293
vt -0.524822 14.733400
vt -0.577061 16.204599
vt 16.002001 14.733400
vt 15.870600 14.868300
vt -0.720722 16.193001
vt 15.811900 16.193001
vt -0.720722 16.185699
vt -0.786018 17.660000
vt 15.811900 16.185699
vt -17.677799 0.868514
vt -16.244499 0.331156
vt 0.725744 16.202101
vt 0.659873 14.724400
vt -15.807100 16.202101
vt -15.951100 16.051800
vt 0.528343 14.720400
vt -15.998500 14.720400
vt 15.505900 0.331156
vt 15.474200 0.723293
vt 16.795799 0.868514
vt 16.830700 0.476724
vt -15.747900 17.498699
vt 0.725744 16.167200
vt -15.807100 16.167200
vt 0.948836 17.652000
vt 0.869999 16.174900
vt -15.591200 17.652000
vt -17.716499 0.476724
vt -17.716499 0.872345
vt -0.942632 17.652300
vt -0.944698 17.691200
vt 15.597200 17.652300
vt 15.593100 17.645399
vt -0.948836 17.680401
vt 15.591200 17.680401
vt 0.948836 0.872345
vt 0.948836 0.476724
vt -15.591200 0.872345
vt -15.591200 0.476724
vt 16.830700 0.872345
vt 15.667700 16.313999
vt -0.942632 17.641701
vt 15.597200 17.641701
vt 16.049000 13.414200
vt -0.524822 14.738900
vt 16.002001 14.738900
vt 16.332199 10.483300
vt -0.210314 11.808200
vt 16.308599 11.808200
vt -0.092070 10.337200
vt -0.105186 11.809200
vt 16.424900 10.337200
vt -16.570999 -6.045440
vt -0.065830 -7.370440
vt -16.582800 -7.370440
vn 0.0000 -0.0421 0.9991
vn 0.0001 -0.0424 0.9991
vn 0.9986 -0.0023 0.0535
vn 0.0931 -0.9949 -0.0384
vn 0.1062 -0.9937 -0.0364
vn 0.1092 -0.9934 -0.0360
vn 0.0952 -0.9948 -0.0364
vn -0.0000 0.0421 -0.9991
vn -0.0000 0.0422 -0.9991
vn -0.0001 0.0424 -0.9991
vn 0.0000 0.0423 -0.9991
vn -0.0987 0.9944 0.0366
vn -0.1046 0.9939 0.0363
vn -0.1020 0.9941 0.0364
vn -0.1028 0.9940 0.0366
vn -0.1062 0.9937 0.0369
vn -0.0806 0.9960 0.0384
vn -0.0870 0.9955 0.0387
vn -0.0830 0.9958 0.0385
vn -0.0894 0.9952 0.0388
vn -0.0627 0.9972 0.0398
vn -0.0677 0.9969 0.0400
vn -0.0646 0.9971 0.0399
vn 0.0627 -0.9972 -0.0403
vn 0.0710 -0.9969 -0.0338
vn 0.0646 -0.9971 -0.0401
vn 0.0731 -0.9965 -0.0409
vn -0.0002 -0.0421 0.9991
vn -0.1092 0.9933 0.0370
vn 0.0462 -0.9981 -0.0411
vn 0.0483 -0.9980 -0.0409
vn 0.0498 -0.9979 -0.0407
vn 0.0448 -0.9981 -0.0413
vn -0.0484 0.9980 0.0409
vn -0.0448 0.9981 0.0413
vn -0.0461 0.9981 0.0411
vn -0.0269 0.9988 0.0416
vn -0.0290 0.9987 0.0417
vn -0.0278 0.9987 0.0416
vn 0.0269 -0.9988 -0.0419
vn 0.0288 -0.9987 -0.0417
vn 0.0278 -0.9987 -0.0418
vn 0.0298 -0.9987 -0.0416
vn -0.0498 0.9979 0.0407
vn -0.0696 0.9968 0.0401
vn 0.0099 -0.9991 -0.0420
vn 0.0101 -0.9991 -0.0420
vn 0.0089 -0.9991 -0.0421
vn -0.0090 0.9991 0.0420
vn -0.0099 0.9991 0.0421
vn -0.0100 0.9991 0.0421
vn -0.0099 -0.9991 -0.0421
vn -0.0098 -0.9991 -0.0421
vn -0.0089 -0.9991 -0.0420
vn 0.0090 0.9991 0.0421
vn 0.0095 0.9991 0.0420
vn 0.0092 0.9991 0.0421
vn 0.0100 0.9991 0.0420
vn -0.0279 -0.9987 -0.0416
vn -0.0287 -0.9987 -0.0417
vn -0.0298 -0.9987 -0.0418
vn -0.0269 -0.9988 -0.0416
vn 0.0448 0.9981 0.0413
vn 0.0484 0.9980 0.0409
vn 0.0462 0.9981 0.0411
vn 0.0498 0.9979 0.0407
vn 0.0627 0.9972 0.0403
vn 0.0718 0.9969 0.0336
vn 0.0646 0.9971 0.0401
vn -0.0448 -0.9982 -0.0409
vn -0.0482 -0.9980 -0.0411
vn -0.0464 -0.9981 -0.0410
vn -0.0498 -0.9979 -0.0412
vn -0.0646 -0.9971 -0.0399
vn -0.0677 -0.9969 -0.0400
vn -0.0696 -0.9968 -0.0401
vn -0.0627 -0.9972 -0.0398
vn 0.0952 0.9948 0.0368
vn 0.0733 0.9964 0.0415
vn 0.0931 0.9949 0.0385
vn 0.1048 0.9938 0.0365
vn 0.0002 0.0421 -0.9991
vn -0.0805 -0.9960 -0.0384
vn -0.0870 -0.9955 -0.0386
vn -0.0830 -0.9958 -0.0385
vn -0.0894 -0.9952 -0.0387
vn -0.1014 -0.9942 -0.0367
vn -0.1062 -0.9937 -0.0369
vn -0.1092 -0.9933 -0.0370
vn -0.0984 -0.9945 -0.0366
vn 0.0004 0.0421 -0.9991
vn 0.1059 0.9937 0.0362
vn 0.1034 0.9940 0.0363
vn 0.1089 0.9934 0.0360
vn -0.9986 -0.0023 0.0535
vn 0.0277 0.9987 0.0418
vn 0.0289 0.9987 0.0417
vn 0.0298 0.9987 0.0416
vn 0.0269 0.9988 0.0419
vn -0.0298 0.9987 0.0418
usemtl _Color_007_4.001
s 1
f 1/1/1 2/2/2 3/3/1
f 1/4/3 4/5/3 2/6/3
f 3/7/4 4/8/5 1/9/6
f 5/10/7 4/11/5 3/12/4
f 4/5/8 5/13/9 6/14/10
f 7/15/11 6/14/10 5/13/9
f 6/16/12 7/17/13 2/18/14
f 2/19/14 7/20/13 8/21/15
f 7/17/13 9/22/16 8/23/15
f 9/24/9 7/15/11 5/13/9
f 10/25/8 9/24/9 5/13/9
f 11/26/8 9/24/9 10/25/8
f 9/27/17 11/28/18 12/29/19
f 12/30/19 11/31/18 13/32/20
f 11/33/21 14/34/22 13/35/23
f 14/36/8 11/26/8 15/37/8
f 15/37/8 11/26/8 10/25/8
f 15/38/24 10/39/25 16/40/26
f 16/41/26 10/42/25 17/43/27
f 10/44/25 5/45/7 17/46/27
f 17/47/27 5/48/7 3/49/4
f 17/50/1 3/3/1 12/51/1
f 12/51/1 3/3/1 8/52/28
f 8/52/28 3/3/1 2/2/2
f 8/53/15 9/54/16 12/55/29
f 13/56/1 17/50/1 12/51/1
f 16/57/1 17/50/1 13/56/1
f 18/58/1 16/57/1 13/56/1
f 19/59/1 16/57/1 18/58/1
f 19/60/30 15/61/31 16/62/32
f 20/63/33 15/64/31 19/65/30
f 20/66/8 14/36/8 15/37/8
f 21/67/8 14/36/8 20/66/8
f 14/68/34 21/69/35 22/70/36
f 21/71/37 23/72/38 22/73/39
f 23/74/8 21/67/8 24/75/8
f 24/75/8 21/67/8 20/66/8
f 24/76/40 20/77/41 25/78/42
f 25/79/42 20/80/41 19/81/43
f 25/82/1 19/59/1 22/83/1
f 22/83/1 19/59/1 18/58/1
f 14/84/34 22/85/36 18/86/44
f 13/87/23 14/88/22 18/89/45
f 26/90/1 25/82/1 22/83/1
f 27/91/1 25/82/1 26/90/1
f 25/92/46 27/93/46 24/94/47
f 28/95/48 24/94/47 27/93/46
f 28/96/8 23/74/8 24/75/8
f 29/97/8 23/74/8 28/96/8
f 23/98/49 29/99/49 26/100/50
f 30/101/51 26/100/50 29/99/49
f 30/102/1 27/91/1 26/90/1
f 31/103/1 27/91/1 30/102/1
f 27/104/52 31/105/52 28/106/53
f 32/107/54 28/106/53 31/105/52
f 32/108/8 29/97/8 28/96/8
f 33/109/8 29/97/8 32/108/8
f 29/110/55 33/111/56 30/112/57
f 34/113/58 30/112/57 33/111/56
f 34/114/1 31/103/1 30/102/1
f 35/115/1 31/103/1 34/114/1
f 36/116/1 31/103/1 35/115/1
f 36/117/59 32/118/60 31/119/61
f 37/120/62 32/121/60 36/122/59
f 37/123/8 38/124/8 32/108/8
f 39/125/8 38/124/8 37/123/8
f 38/126/63 39/127/64 35/128/65
f 39/129/64 40/130/66 35/131/65
f 39/132/67 41/133/68 40/134/69
f 41/135/8 39/125/8 42/136/8
f 42/136/8 39/125/8 37/123/8
f 42/137/70 37/138/71 43/139/72
f 43/140/72 37/141/71 36/142/73
f 43/143/1 36/116/1 40/144/1
f 40/144/1 36/116/1 35/115/1
f 44/145/1 43/143/1 40/144/1
f 45/146/1 43/143/1 44/145/1
f 45/147/74 42/148/75 43/149/76
f 46/150/77 42/151/75 45/152/74
f 46/153/8 41/135/8 42/136/8
f 47/154/9 41/135/8 46/153/8
f 41/155/68 47/156/78 44/157/79
f 44/158/79 47/159/78 48/160/80
f 47/161/78 49/162/81 48/163/80
f 49/164/82 47/154/9 50/165/9
f 50/165/9 47/154/9 46/153/8
f 50/166/83 46/167/84 51/168/85
f 51/169/85 46/170/84 45/171/86
f 51/172/1 45/146/1 48/173/1
f 48/173/1 45/146/1 44/145/1
f 52/174/28 51/172/1 48/173/1
f 53/175/1 51/172/1 52/174/28
f 53/176/87 50/177/88 51/178/89
f 54/179/90 50/180/88 53/181/87
f 54/182/8 49/164/82 50/165/9
f 55/183/91 49/164/82 54/182/8
f 49/184/81 55/185/92 52/186/93
f 52/187/93 55/188/92 56/189/94
f 55/190/95 54/191/95 56/192/95
f 53/193/95 56/192/95 54/191/95
f 56/194/1 53/175/1 52/174/28
f 48/195/80 49/196/81 52/197/93
f 40/198/69 41/199/68 44/200/79
f 34/201/96 38/202/97 35/203/98
f 33/204/99 38/205/97 34/206/96
f 38/124/8 33/109/8 32/108/8
f 22/207/39 23/208/38 26/209/100
f 6/14/3 2/6/3 4/5/3