# Blender v3.0.1 OBJ File: 'anno.blend'
# www.blender.org
mtllib 04.mtl
o model.319_model.001
v -0.717609 0.322925 -0.402039
v -0.799621 -0.384434 -0.402040
v -0.717609 -0.384434 -0.402040
v -0.799621 0.322925 -0.402039
v -0.762684 0.322925 -0.402039
v -0.799621 -0.384434 -0.402040
v -0.799621 0.322925 -0.441263
v -0.799621 -0.384434 -0.441263
v -0.799621 0.322925 -0.402039
v -0.717609 -0.384434 -0.441263
v -0.799621 -0.384434 -0.402040
v -0.799621 -0.384434 -0.441263
v -0.717609 -0.384434 -0.402040
v -0.717609 -0.384434 -0.402040
v -0.717609 -0.384434 -0.441263
v -0.799621 -0.384434 -0.402040
v -0.799621 -0.384434 -0.441263
v -0.762684 0.322925 -0.402039
v -0.717609 0.322925 -0.402039
v -0.799621 0.322925 -0.402039
v -0.799621 -0.384434 -0.402040
v -0.717609 -0.384434 -0.402040
v -0.799621 -0.384434 -0.441263
v -0.799621 0.322925 -0.441263
v -0.799621 -0.384434 -0.402040
v -0.799621 0.322925 -0.402039
v -0.799621 0.322925 -0.441263
v -0.717609 -0.384434 -0.441263
v -0.799621 -0.384434 -0.441263
v -0.717609 0.322925 -0.441263
v -0.717609 0.322925 -0.441263
v -0.799621 0.322925 -0.441263
v -0.717609 -0.384434 -0.441263
v -0.799621 -0.384434 -0.441263
v -0.717609 -0.384434 -0.441263
v -0.717609 0.322925 -0.402039
v -0.717609 -0.384434 -0.402040
v -0.717609 0.322925 -0.405931
v -0.717609 0.322925 -0.441263
v -0.717609 0.322925 -0.441263
v -0.717609 -0.384434 -0.441263
v -0.717609 0.322925 -0.405931
v -0.717609 0.322925 -0.402039
v -0.717609 -0.384434 -0.402040
vt 0.052493 0.452756
vt 0.000000 0.000000
vt 0.052493 0.000000
vt 0.000000 0.452756
vt 0.023642 0.452756
vt 0.000000 0.000000
vt -0.026247 0.452756
vt -0.026247 0.000000
vt 0.000000 0.452756
vt -0.052493 0.026247
vt 0.000000 0.000000
vt 0.000000 0.026247
vt -0.052493 0.000000
vt -0.052493 0.000000
vt -0.052493 0.026247
vt 0.000000 0.000000
vt 0.000000 0.026247
vt 0.023642 0.452756
vt 0.052493 0.452756
vt 0.000000 0.452756
vt 0.000000 0.000000
vt 0.052493 0.000000
vt -0.026247 0.000000
vt -0.026247 0.452756
vt 0.000000 0.000000
vt 0.000000 0.452756
vt 0.000000 0.452756
vt -0.052493 0.000000
vt 0.000000 0.000000
vt -0.052493 0.452756
vt -0.052493 0.452756
vt 0.000000 0.452756
vt -0.052493 0.000000
vt 0.000000 0.000000
vt 0.026247 0.000000
vt 0.000000 0.452756
vt 0.000000 0.000000
vt 0.002605 0.452756
vt 0.026247 0.452756
vt 0.026247 0.452756
vt 0.026247 0.000000
vt 0.002605 0.452756
vt 0.000000 0.452756
vt 0.000000 0.000000
vn 0.0000 -0.0000 1.0000
vn 1.0000 0.0000 -0.0000
vn -1.0000 0.0000 0.0000
vn 0.0000 -1.0000 0.0000
vn 0.0000 1.0000 0.0000
vn 0.0000 0.0000 -1.0000
usemtl material_0.006
s 1
f 1/1/1 2/2/1 3/3/1
f 2/2/1 1/1/1 4/4/1
f 4/4/1 1/1/1 5/5/2
f 6/6/3 7/7/3 8/8/3
f 7/7/3 6/6/3 9/9/3
f 10/10/4 11/11/4 12/12/4
f 11/11/4 10/10/4 13/13/4
f 14/14/5 15/15/5 16/16/5
f 17/17/5 16/16/5 15/15/5
f 18/18/1 19/19/6 20/20/6
f 20/20/6 19/19/6 21/21/6
f 22/22/6 21/21/6 19/19/6
f 23/23/2 24/24/2 25/25/2
f 26/26/2 25/25/2 24/24/2
f 27/27/6 28/28/6 29/29/6
f 28/28/6 27/27/6 30/30/6
f 31/31/1 32/32/1 33/33/1
f 34/34/1 33/33/1 32/32/1
f 35/35/2 36/36/2 37/37/2
f 36/36/2 35/35/2 38/38/2
f 38/38/2 35/35/2 39/39/2
f 40/40/3 41/41/3 42/42/3
f 42/42/3 41/41/3 43/43/3
f 44/44/3 43/43/3 41/41/3