# Blender v3.0.1 OBJ File: 'anno.blend'
# www.blender.org
mtllib 07.mtl
o model.001_model.001
v 0.022476 0.322925 -0.405931
v -0.027680 0.322925 0.405932
v -0.027680 0.322925 -0.405931
v 0.022476 0.322925 0.405932
v 0.022476 0.384434 -0.405931
v -0.027680 0.384434 -0.405931
v 0.022476 0.384434 0.405932
v -0.027680 0.384434 0.405932
vt -0.526196 0.566909
vt -0.494094 0.023642
vt -0.494094 0.566909
vt -0.526196 0.023642
vt 0.526196 0.566909
vt 0.494094 0.566909
vt 0.526196 0.023642
vt 0.494094 0.023642
vn 0.7071 -0.7071 -0.0000
vn -0.7071 -0.7071 -0.0000
vn 0.7071 0.7071 0.0000
vn -0.7071 0.7071 0.0000
usemtl material_0.009
s 1
f 1/1/1 2/2/2 3/3/2
f 2/2/2 1/1/1 4/4/1
f 5/5/3 6/6/4 7/7/3
f 8/8/4 7/7/3 6/6/4
f 5/5/3 4/4/1 1/1/1
f 2/2/2 6/6/4 3/3/2
f 5/5/3 7/7/3 4/4/1
f 2/2/2 8/8/4 6/6/4