# Blender v3.0.1 OBJ File: 'anno.blend'
# www.blender.org
mtllib 08.mtl
o model.002_model.001
v -0.764097 0.324291 0.441263
v -0.764097 0.383068 -0.441263
v -0.764097 0.322925 -0.441263
v -0.764097 0.384434 0.441263
v -0.799621 0.322925 0.441263
v -0.764097 0.322925 0.441263
v -0.764097 0.322925 0.407283
v -0.799621 0.322925 0.441263
v -0.764097 0.322925 -0.373509
v -0.764097 0.384434 0.407283
v -0.799621 0.384434 0.441263
v -0.764097 0.384434 0.441263
v -0.764097 0.384434 -0.407283
v -0.799621 0.384434 -0.441263
v -0.764097 0.384434 0.373509
v -0.799621 0.384434 -0.441263
v -0.799621 0.322925 0.441263
v -0.799621 0.384434 0.441263
v -0.799621 0.322925 -0.402039
v -0.799621 0.322925 -0.441263
v -0.764097 0.383068 -0.441263
v -0.799621 0.384434 -0.441263
v -0.764097 0.384434 -0.441263
v -0.764097 0.357792 -0.441263
v -0.799621 0.322925 -0.441263
v -0.762684 0.384434 -0.405931
v -0.762684 0.384434 0.405932
v -0.764097 0.384434 -0.441263
v -0.799621 0.322925 -0.402039
v -0.762684 0.322925 0.405932
v -0.762684 0.322925 -0.405931
v -0.799621 0.384434 0.441263
v -0.764097 0.384434 0.373509
v -0.762684 0.384434 -0.405931
v -0.762684 0.384434 0.405932
v -0.799621 0.384434 0.441263
v -0.799621 0.384434 -0.441263
v -0.799621 0.384434 0.441263
v -0.764097 0.324291 0.441263
v -0.799621 0.322925 0.441263
v -0.799621 0.322925 -0.441263
v -0.764097 0.357792 -0.441263
v -0.799621 0.384434 -0.441263
v -0.764097 0.322925 -0.373509
v -0.762684 0.322925 0.405932
v -0.762684 0.322925 -0.405931
v -0.799621 0.322925 -0.402039
v -0.799621 0.322925 0.441263
v -0.764097 0.322925 -0.373509
v -0.799621 0.322925 0.441263
v -0.764097 0.322925 0.407283
v -0.799621 0.322925 -0.441263
v -0.799621 0.384434 -0.441263
v -0.799621 0.322925 -0.402039
v -0.799621 0.322925 0.441263
v -0.799621 0.384434 0.441263
v -0.764097 0.384434 -0.441263
v -0.799621 0.384434 -0.441263
v -0.764097 0.357792 -0.441263
v -0.799621 0.384434 0.441263
v -0.764097 0.384434 0.407283
v -0.764097 0.384434 -0.441263
v -0.764097 0.384434 -0.407283
v -0.799621 0.384434 -0.441263
v -0.764097 0.384434 0.373509
v -0.762684 0.322925 -0.402039
v -0.762684 0.322925 -0.405931
v -0.717609 0.322925 -0.402039
v -0.764097 0.322925 -0.405783
v -0.762684 0.322925 -0.405931
v -0.764097 0.322925 -0.373509
v -0.799621 0.322925 0.441263
v -0.764097 0.322925 0.407283
v -0.764097 0.322925 0.441263
v -0.799621 0.322925 -0.402039
v -0.764097 0.322925 -0.419027
v -0.799621 0.322925 -0.402039
v -0.764097 0.322925 -0.403539
v -0.764097 0.322925 -0.402039
v -0.764097 0.322925 -0.407283
v -0.799621 0.322925 -0.441263
v -0.764097 0.322925 -0.403539
v -0.764097 0.322925 -0.407283
v -0.799621 0.322925 0.402040
v -0.764097 0.322925 0.436017
v -0.764097 0.322925 0.402040
v -0.799621 0.322925 -0.441263
v -0.764097 0.322925 -0.419027
v -0.764097 0.322925 -0.441263
v -0.764097 0.322925 -0.441263
v -0.764097 0.322925 -0.405783
v -0.764097 0.384434 0.441263
v -0.764097 0.384434 -0.407283
v -0.764097 0.384434 0.407283
v -0.764097 0.384434 0.441263
v -0.764097 0.322925 -0.441263
v -0.764097 0.322925 0.407283
v -0.764097 0.322925 -0.405783
v -0.799621 0.322925 -0.441263
v -0.799621 0.322925 -0.402039
vt 0.000000 0.000000
vt 0.000000 0.000000
vt 0.000000 0.000000
vt 0.000000 0.000000
vt 0.022737 0.000875
vt 0.000000 0.000000
vt 0.022737 0.000000
vt -0.022737 0.022737
vt 0.000000 0.000000
vt -0.022737 0.545213
vt 0.022737 0.022737
vt 0.000000 0.000000
vt 0.022737 0.000000
vt 0.022737 0.567814
vt 0.000000 0.590551
vt 0.022737 0.045338
vt -0.590551 0.039370
vt 0.000000 0.000000
vt 0.000000 0.039370
vt -0.564304 0.000000
vt -0.590551 0.000000
vt -0.022737 0.038495
vt 0.000000 0.039370
vt -0.022737 0.039370
vt -0.022737 0.022317
vt 0.000000 0.000000
vt 0.023642 0.566909
vt 0.023642 0.023642
vt 0.022737 0.590551
vt 0.000000 0.564304
vt -0.023642 0.023642
vt -0.023642 0.566909
vt 0.000000 0.039370
vt 0.113685 0.226688
vt 0.118209 2.834547
vt 0.118209 0.118209
vt 0.000000 0.000000
vt 0.000000 2.952756
vt 0.000000 0.196850
vt 0.113685 0.004373
vt 0.000000 0.000000
vt 0.000000 0.000000
vt -0.113685 0.111586
vt 0.000000 0.196850
vt -0.113685 2.726068
vt -0.118209 0.118209
vt -0.118209 2.834547
vt 0.000000 2.821522
vt 0.000000 0.000000
vt -0.113685 2.726068
vt 0.000000 0.000000
vt -0.113685 0.113685
vt -2.952756 0.000000
vt -2.952756 0.196850
vt -2.821522 0.000000
vt 0.000000 0.000000
vt 0.000000 0.196850
vt -0.113685 0.196850
vt 0.000000 0.196850
vt -0.113685 0.192477
vt -0.113685 0.111586
vt 0.113685 0.000000
vt 0.000000 0.000000
vt 0.113685 0.113685
vt 0.113685 2.952756
vt 0.113685 2.839071
vt 0.000000 2.952756
vt 0.113685 0.226688
vt 0.023642 0.000000
vt 0.023642 0.002605
vt 0.052493 0.000000
vt -0.022737 0.566809
vt -0.023642 0.566909
vt -0.022737 0.545213
vt 0.000000 0.000000
vt -0.022737 0.022737
vt -0.022737 0.000000
vt 0.000000 0.564304
vt -0.022737 0.575673
vt 0.000000 0.000000
vt 0.022737 0.001004
vt 0.022737 0.000000
vt 0.022737 0.003510
vt 0.000000 0.026247
vt 0.022737 0.001004
vt 0.022737 0.003510
vt 0.022737 0.026247
vt 0.000000 0.026247
vt 0.022737 0.003510
vt 0.022737 0.026247
vt 0.000000 2.952756
vt -0.113685 2.878365
vt -0.113685 2.952756
vt -0.022737 0.000000
vt -0.022737 0.566809
vt 0.022737 0.039370
vt 0.113685 2.839071
vt 0.113685 0.113685
vt 0.113685 0.196850
vt -0.113685 0.000000
vt -0.113685 0.113685
vt -0.113685 2.834049
vt 0.000000 0.026247
vt 0.000000 2.821522
vn -1.0000 0.0000 0.0000
vn 0.0000 0.0000 1.0000
vn -0.0000 -1.0000 -0.0000
vn 0.0000 1.0000 0.0000
vn 0.0000 0.0000 -1.0000
vn 1.0000 0.0000 0.0000
usemtl material_0.010
s off
f 1/1/1 2/2/1 3/3/1
f 1/1/1 4/4/1 2/2/1
s 1
f 1/5/2 5/6/2 6/7/2
f 7/8/3 8/9/3 9/10/3
f 10/11/4 11/12/4 12/13/4
f 13/14/4 14/15/4 15/16/4
f 16/17/1 17/18/1 18/19/1
f 17/18/1 16/17/1 19/20/1
f 19/20/1 16/17/1 20/21/1
f 21/22/5 22/23/5 23/24/5
f 24/25/5 22/23/5 21/22/5
f 24/25/5 25/26/5 22/23/5
f 26/27/4 15/16/4 27/28/4
f 14/15/4 13/14/4 28/29/4
f 11/12/4 15/16/4 14/15/4
f 29/30/3 9/10/3 8/9/3
f 30/31/3 9/10/3 31/32/3
f 1/5/2 32/33/2 5/6/2
f 33/34/3 34/35/3 35/36/3
f 33/34/3 36/37/3 37/38/3
f 38/39/5 39/40/5 40/41/5
f 41/42/2 42/43/2 43/44/2
f 44/45/4 45/46/4 46/47/4
f 44/45/4 47/48/4 48/49/4
f 49/50/4 50/51/4 51/52/4
f 52/53/6 53/54/6 54/55/6
f 54/55/6 53/54/6 55/56/6
f 56/57/6 55/56/6 53/54/6
f 57/58/2 58/59/2 2/60/2
f 2/60/2 58/59/2 59/61/2
f 4/62/3 60/63/3 61/64/3
f 62/65/3 63/66/3 64/67/3
f 65/68/3 64/67/3 63/66/3
f 66/69/3 67/70/3 68/71/3
f 69/72/3 70/73/3 71/74/3
f 72/75/3 73/76/3 74/77/3
f 75/78/3 76/79/3 69/72/3
f 77/80/3 78/81/3 79/82/3
f 67/70/3 78/81/3 80/83/3
f 81/84/4 82/85/4 83/86/4
f 81/84/4 83/86/4 3/87/4
f 84/88/4 85/89/4 86/90/4
f 87/91/4 88/92/4 89/93/4
f 24/25/5 90/94/5 25/26/5
f 26/27/4 13/14/4 15/16/4
f 11/12/4 10/11/4 15/16/4
f 29/30/3 91/95/3 9/10/3
f 30/31/3 7/8/3 9/10/3
f 1/5/2 92/96/2 32/33/2
f 33/34/3 93/97/3 34/35/3
f 33/34/3 94/98/3 36/37/3
f 38/39/5 95/99/5 39/40/5
f 41/42/2 96/100/2 42/43/2
f 44/45/4 97/101/4 45/46/4
f 44/45/4 98/102/4 47/48/4
f 77/80/3 99/103/3 78/81/3
f 67/70/3 66/69/3 78/81/3
f 87/91/4 100/104/4 88/92/4