# Blender v3.0.1 OBJ File: 'anno.blend'
# www.blender.org
mtllib 09.mtl
o model.003_model.001
v 0.799621 0.322925 0.441263
v 0.762684 0.322925 0.405932
v 0.799621 0.322925 -0.441263
v 0.799621 0.322925 -0.441263
v 0.799621 0.384434 0.441263
v 0.799621 0.322925 0.441263
v 0.799621 0.384434 -0.441263
v 0.799621 0.384434 -0.441263
v 0.763355 0.384434 -0.439614
v 0.763276 0.384434 -0.406495
v 0.799621 0.384434 0.441263
v 0.762684 0.384434 -0.159680
v 0.762684 0.384434 0.405932
v 0.763243 0.384434 -0.393123
v 0.762684 0.322925 -0.405931
v 0.763276 0.322925 -0.406495
v 0.762684 0.322925 -0.159680
v 0.761247 0.382956 0.441263
v 0.799621 0.322925 0.441263
v 0.799621 0.384434 0.441263
v 0.762684 0.384434 0.405932
v 0.761252 0.384434 0.439518
v 0.761331 0.384434 0.405932
v 0.763243 0.384434 -0.393123
v 0.799621 0.384434 -0.441263
v 0.799621 0.384434 0.441263
v 0.799621 0.384434 -0.441263
v 0.763358 0.324318 -0.441263
v 0.799621 0.322925 -0.441263
v 0.799621 0.322925 -0.441263
v 0.762684 0.322925 -0.159680
v 0.762684 0.322925 0.405932
v 0.799621 0.322925 -0.441263
v 0.762684 0.322925 0.405932
v 0.799621 0.322925 0.441263
v 0.799621 0.384434 -0.441263
v 0.799621 0.322925 -0.441263
v 0.799621 0.384434 0.441263
v 0.799621 0.322925 0.441263
v 0.799621 0.384434 0.441263
v 0.762684 0.384434 -0.159680
v 0.763243 0.384434 -0.393123
v 0.763276 0.384434 -0.406495
v 0.763355 0.384434 -0.439614
v 0.799621 0.384434 -0.441263
v 0.763355 0.322925 -0.439614
v 0.799621 0.322925 -0.441263
v 0.763276 0.322925 -0.406495
v 0.762684 0.322925 -0.159680
v 0.761252 0.384434 0.439518
v 0.762684 0.384434 0.405932
v 0.761331 0.384434 0.405932
v 0.763358 0.324318 -0.441263
v 0.799621 0.384434 -0.441263
v 0.799621 0.322925 -0.441263
v 0.799621 0.322925 0.441263
v 0.761247 0.382956 0.441263
v 0.799621 0.384434 0.441263
v 0.761247 0.322925 0.441263
v 0.761247 0.322925 0.441263
v 0.763276 0.384434 -0.406495
v 0.763358 0.384434 -0.441263
v 0.763276 0.322925 -0.406495
v 0.762684 0.384434 0.405932
v 0.762684 0.322925 0.405932
v 0.799621 0.384434 0.441263
v 0.763358 0.384434 -0.441263
vt -1.023622 0.000000
vt -0.999980 0.023642
vt -1.023622 0.590551
vt 0.590551 0.000000
vt 0.000000 0.039370
vt 0.000000 0.000000
vt 0.590551 0.039370
vt 1.023622 0.590551
vt 1.000409 0.589448
vt 1.000358 0.567287
vt 1.023622 0.000000
vt 0.999980 0.402128
vt 0.999980 0.023642
vt 1.000337 0.558338
vt -0.999980 0.566909
vt -1.000358 0.567287
vt -0.999980 0.402128
vt 0.999060 0.038425
vt 1.023622 0.000000
vt 1.023622 0.039370
vt 4.999901 0.118209
vt 4.995313 0.005836
vt 4.995570 0.118209
vt 5.001688 2.791691
vt 5.118110 2.952756
vt 5.118110 0.000000
vt -5.118110 0.196850
vt -5.002056 0.004464
vt -5.118110 0.000000
vt -5.118110 2.952756
vt -4.999901 2.010643
vt -4.999901 0.118209
vt -5.118110 2.952756
vt -4.999901 0.118209
vt -5.118110 0.000000
vt 2.952756 0.196850
vt 2.952756 0.000000
vt 0.000000 0.196850
vt 0.000000 0.000000
vt 5.118110 0.000000
vt 4.999901 2.010643
vt 5.001688 2.791691
vt 5.001791 2.836437
vt 5.002044 2.947240
vt 5.118110 2.952756
vt -1.000409 0.589448
vt -1.023622 0.590551
vt -1.000358 0.567287
vt -0.999980 0.402128
vt 0.999063 0.001167
vt 0.999980 0.023642
vt 0.999114 0.023642
vt -1.000411 0.000893
vt -1.023622 0.039370
vt -1.023622 0.000000
vt 5.118110 0.000000
vt 4.995299 0.192127
vt 5.118110 0.196850
vt 0.000000 0.000000
vt 4.995299 0.000000
vt 0.999060 0.000000
vt 5.001791 2.836437
vt -5.002056 0.196850
vt -5.001791 2.836437
vt 4.999901 0.118209
vt -0.999980 0.023642
vt 1.023622 0.000000
vt -1.000411 0.039370
vt 0.000000 0.000000
vn 0.0000 -1.0000 -0.0000
vn 1.0000 0.0000 0.0000
vn 0.0000 1.0000 0.0000
vn 0.0000 0.0000 1.0000
vn -1.0000 0.0000 0.0000
vn 0.0000 0.0000 -1.0000
vn 0.6997 0.0000 -0.7144
vn 1.0000 0.0000 0.0024
vn 0.7080 0.0000 -0.7063
usemtl material_0.011
s 1
f 1/1/1 2/2/1 3/3/1
f 4/4/2 5/5/2 6/6/2
f 5/5/2 4/4/2 7/7/2
f 8/8/3 9/9/3 10/10/3
f 11/11/3 12/12/3 13/13/3
f 8/8/3 14/14/3 11/11/3
f 15/15/1 16/16/1 17/17/1
f 18/18/4 19/19/4 20/20/4
f 21/21/1 22/22/1 23/23/1
f 24/24/1 25/25/1 26/26/1
f 27/27/4 28/28/4 29/29/4
f 30/30/3 31/31/3 32/32/3
f 33/33/3 34/34/3 35/35/3
f 36/36/5 37/37/5 38/38/5
f 39/39/5 38/38/5 37/37/5
f 40/40/1 41/41/1 42/42/1
f 43/43/1 44/44/1 45/45/1
f 46/46/1 47/47/1 48/48/1
f 47/47/1 49/49/1 48/48/1
f 50/50/3 51/51/3 52/52/3
f 53/53/6 54/54/6 55/55/6
f 56/56/6 57/57/7 58/58/6
f 46/59/8 57/57/7 59/60/9
f 11/11/3 14/14/3 12/12/3
f 8/8/3 10/10/3 14/14/3
f 18/18/4 60/61/4 19/19/4
f 21/21/1 26/26/1 22/22/1
f 24/24/1 61/62/1 25/25/1
f 27/27/4 62/63/4 28/28/4
f 30/30/3 63/64/3 31/31/3
f 40/40/1 64/65/1 41/41/1
f 47/47/1 65/66/1 49/49/1
f 50/50/3 66/67/3 51/51/3
f 53/53/6 67/68/6 54/54/6
f 56/56/6 59/60/9 57/57/7
f 46/59/8 67/69/8 57/57/7