# Blender v3.0.1 OBJ File: 'anno.blend'
# www.blender.org
mtllib 10.mtl
o model.004_model.001
v 0.761339 0.322925 0.402040
v -0.762684 0.384434 0.405932
v 0.761331 0.384434 0.405932
v -0.764097 0.322925 0.402040
v 0.717609 0.322925 0.441263
v 0.717609 0.322925 0.402040
v 0.754546 0.322925 0.441263
v -0.762684 0.322925 0.437371
v -0.717609 0.322925 0.441263
v -0.717609 0.322925 0.437371
v -0.762684 0.322925 0.441263
v -0.717609 0.322925 0.402040
v 0.761252 0.322925 0.439518
v 0.022476 0.322925 0.405932
v 0.761331 0.322925 0.405932
v -0.764097 0.324291 0.441263
v 0.761247 0.322925 0.441263
v 0.761247 0.382956 0.441263
v -0.762684 0.322925 0.437371
v -0.764097 0.322925 0.402040
v -0.717609 0.322925 0.402040
v -0.764097 0.384434 0.441263
v -0.764097 0.384434 0.407283
v -0.762684 0.384434 0.405932
v 0.761247 0.322925 0.441263
v -0.764097 0.324291 0.441263
v 0.761247 0.382956 0.441263
v -0.764097 0.384434 0.441263
v 0.022476 0.384434 0.405932
v 0.761252 0.384434 0.439518
v 0.761249 0.384434 0.439625
v -0.027680 0.384434 0.405932
v 0.761249 0.384434 0.440394
v 0.761247 0.384434 0.441263
v -0.764097 0.384434 0.441263
v -0.762684 0.322925 0.405932
v 0.761247 0.322925 0.441263
v -0.764097 0.322925 0.441263
v 0.761255 0.322925 0.437950
v 0.761247 0.322925 0.441263
v 0.754546 0.322925 0.437371
v 0.761339 0.322925 0.402040
v 0.717609 0.322925 0.402040
v -0.027680 0.384434 0.405932
v 0.761249 0.384434 0.440394
v 0.022476 0.384434 0.405932
v 0.761249 0.384434 0.439625
v -0.764097 0.384434 0.441263
v 0.022476 0.322925 0.405932
v 0.761249 0.322925 0.439625
v 0.761252 0.322925 0.439518
v -0.027680 0.322925 0.405932
v 0.761249 0.322925 0.440394
v 0.761331 0.322925 0.405932
v 0.022476 0.322925 0.405932
v 0.761252 0.322925 0.439518
v 0.761331 0.384434 0.405932
v 0.761252 0.384434 0.439518
v 0.022476 0.384434 0.405932
v -0.717609 0.322925 0.437371
v -0.717609 0.322925 0.441263
v -0.762684 0.322925 0.437371
v -0.717609 0.322925 0.402040
v -0.762684 0.322925 0.441263
v -0.762684 0.322925 0.437371
v -0.764097 0.322925 0.402040
v -0.764097 0.322925 0.436017
v 0.761249 0.322925 0.439625
v 0.022476 0.322925 0.405932
v 0.761252 0.322925 0.439518
v 0.761249 0.322925 0.440394
v -0.027680 0.322925 0.405932
v -0.762684 0.322925 0.441263
v -0.764097 0.322925 0.439760
v -0.764097 0.322925 0.441263
v -0.764097 0.322925 0.439760
v -0.764097 0.322925 0.436017
v -0.762684 0.322925 0.405932
v -0.764097 0.322925 0.441263
v 0.761247 0.322925 0.441263
v 0.761255 0.322925 0.437950
v 0.754546 0.322925 0.441263
v 0.761247 0.322925 0.441263
v 0.717609 0.322925 0.402040
v 0.717609 0.322925 0.441263
v 0.761255 0.322925 0.437371
v 0.754546 0.322925 0.437371
v 0.761269 0.322925 0.432099
v 0.761339 0.322925 0.402040
v 0.754546 0.322925 0.441263
v 0.717609 0.322925 0.402040
v 0.754546 0.322925 0.437371
v 0.761255 0.322925 0.437371
v -0.764097 0.322925 0.441263
v -0.764097 0.322925 0.436017
v 0.761247 0.384434 0.441263
v -0.764097 0.322925 0.441263
v 0.761247 0.384434 0.441263
v -0.764097 0.384434 0.407283
v -0.764097 0.322925 0.407283
v 0.761249 0.322925 0.440394
v 0.754546 0.322925 0.437371
v 0.761269 0.322925 0.432099
v 0.761252 0.384434 0.439518
v 0.761247 0.384434 0.441263
v -0.762684 0.322925 0.405932
v -0.717609 0.322925 0.402040
v -0.762684 0.322925 0.405932
v 0.761249 0.322925 0.440394
v -0.764097 0.322925 0.407283
vt 0.000000 0.000000
vt 0.000000 0.000000
vt 0.000000 0.000000
vt 0.000000 0.000000
vt 0.000000 0.000000
vt 0.000000 0.026247
vt 0.023642 0.000000
vt 0.023642 0.002605
vt 0.052493 0.000000
vt 0.052493 0.002605
vt 0.023642 0.000000
vt 0.052493 0.026247
vt -0.999063 0.001167
vt -0.526196 0.023642
vt -0.999114 0.023642
vt 0.022737 0.000875
vt 0.999060 0.000000
vt 0.999060 0.038425
vt 0.023642 0.002605
vt 0.022737 0.026247
vt 0.052493 0.026247
vt 0.113685 0.000000
vt 0.113685 0.113685
vt 0.118209 0.118209
vt 4.995299 0.000000
vt 0.113685 0.004373
vt 4.995299 0.192127
vt 0.022737 0.039370
vt 0.526196 0.023642
vt 0.999063 0.001167
vt 0.999114 0.023642
vt 0.999062 0.001097
vt 0.494094 0.023642
vt 0.999061 0.000581
vt 0.023642 0.023642
vt 0.999060 0.000000
vt 0.022737 0.000000
vt -0.023642 0.023642
vt -0.999060 0.000000
vt -0.022737 0.000000
vt 0.027936 0.002217
vt 0.027931 0.000000
vt 0.023642 0.002605
vt 0.027991 0.026247
vt 0.000000 0.026247
vt 2.470472 0.118209
vt 4.995306 0.002903
vt 2.630983 0.118209
vt 4.995312 0.005483
vt 0.113685 0.196850
vt -2.630983 0.118209
vt -4.995312 0.005483
vt -4.995313 0.005836
vt -2.470472 0.118209
vt -4.995306 0.002903
vt -4.995570 0.118209
vt -2.630983 0.118209
vt -4.995313 0.005836
vt 4.995570 0.118209
vt 4.995313 0.005836
vt 2.630983 0.118209
vt 0.052493 0.002605
vt 0.052493 0.000000
vt 0.023642 0.002605
vt 0.052493 0.026247
vt 0.023642 0.000000
vt 0.023642 0.002605
vt 0.022737 0.026247
vt 0.022737 0.003510
vt -0.999062 0.001097
vt -0.526196 0.023642
vt -0.999063 0.001167
vt -0.999061 0.000581
vt -0.494094 0.023642
vt 0.023642 0.000000
vt 0.022737 0.001004
vt 0.022737 0.000000
vt 0.022737 0.001004
vt 0.022737 0.003510
vt -0.118209 0.118209
vt -0.113685 0.000000
vt -4.995299 0.000000
vt 0.027936 0.002217
vt 0.023642 0.000000
vt 0.027931 0.000000
vt 0.000000 0.026247
vt 0.000000 0.000000
vt 0.027937 0.002605
vt 0.023642 0.002605
vt 0.027945 0.006131
vt 0.027991 0.026247
vt 0.023642 0.000000
vt 0.000000 0.026247
vt 0.023642 0.002605
vt 0.027937 0.002605
vt 0.022737 0.000000
vt 0.022737 0.003510
vt 4.995299 0.000000
vt 0.113685 0.000000
vt 0.999060 0.039370
vt 0.022737 0.022737
vt -0.022737 0.022737
vt -0.999061 0.000581
vt 0.023642 0.002605
vt 0.027945 0.006131
vt 4.995313 0.005836
vt 4.995299 0.196850
vt -0.118209 0.118209
vt 0.052493 0.026247
vt -0.023642 0.023642
vt -4.995306 0.002903
vt -0.113685 0.113685
vn 0.0000 0.0631 -0.9980
vn 0.0000 -1.0000 0.0000
vn 0.0000 1.0000 0.0000
vn 0.0000 0.0000 1.0000
vn 0.0000 0.0000 -1.0000
vn -0.0000 1.0000 0.0010
vn 0.0000 1.0000 0.0004
vn 0.0000 -1.0000 -0.0002
vn 0.0000 1.0000 -0.0001
vn 0.0000 1.0000 -0.0002
vn -0.0000 -1.0000 -0.0011
usemtl material_0.012
s off
f 1/1/1 2/2/1 3/3/1
f 1/1/1 4/4/1 2/2/1
s 1
f 5/5/2 6/6/2 7/7/2
f 8/8/3 9/9/3 10/10/3
f 9/9/3 8/8/3 11/11/3
f 12/12/3 8/8/3 10/10/3
f 13/13/2 14/14/2 15/15/2
f 16/16/4 17/17/4 18/18/4
f 19/19/2 20/20/2 21/21/2
f 22/22/2 23/23/2 24/24/2
f 25/25/5 26/26/5 27/27/5
f 18/18/4 28/28/4 16/16/4
f 29/29/3 30/30/6 3/31/3
f 31/32/7 29/29/3 32/33/3
f 33/34/3 32/33/3 2/35/3
f 34/36/3 2/35/3 35/37/3
f 36/38/2 37/39/2 38/40/2
f 7/7/2 39/41/2 40/42/2
f 41/43/3 42/44/3 43/45/3
f 44/46/2 45/47/2 24/24/2
f 46/48/2 47/49/8 44/46/2
f 48/50/5 27/27/5 26/26/5
f 49/51/3 50/52/9 51/53/10
f 52/54/3 53/55/3 50/52/9
f 54/56/3 55/57/3 56/58/3
f 57/59/2 58/60/2 59/61/2
f 60/62/2 61/63/2 62/64/2
f 60/62/2 62/64/2 63/65/2
f 64/66/2 62/64/2 61/63/2
f 65/67/3 66/68/3 67/69/3
f 68/70/2 69/71/2 70/72/2
f 71/73/2 72/74/2 68/70/2
f 73/75/3 74/76/3 75/77/3
f 62/64/2 76/78/2 77/79/2
f 78/80/3 79/81/3 80/82/3
f 81/83/3 82/84/3 83/85/3
f 82/84/3 84/86/3 85/87/3
f 86/88/2 87/89/2 88/90/2
f 87/89/2 89/91/2 88/90/2
f 87/89/2 90/92/2 91/93/2
f 92/94/3 81/83/3 93/95/3
f 16/16/4 94/96/4 17/17/4
f 19/19/2 95/97/2 20/20/2
f 45/47/2 96/98/2 24/24/2
f 96/98/2 22/22/2 24/24/2
f 25/25/5 97/99/5 26/26/5
f 18/18/4 98/100/4 28/28/4
f 31/32/7 30/30/6 29/29/3
f 33/34/3 31/32/7 32/33/3
f 33/34/3 2/35/3 34/36/3
f 2/35/3 99/101/3 35/37/3
f 38/40/2 100/102/2 36/38/2
f 36/38/2 101/103/2 37/39/2
f 7/7/2 102/104/2 39/41/2
f 41/43/3 103/105/3 42/44/3
f 44/46/2 47/49/8 45/47/2
f 46/48/2 104/106/11 47/49/8
f 48/50/5 105/107/5 27/27/5
f 49/51/3 52/54/3 50/52/9
f 52/54/3 106/108/3 53/55/3
f 65/67/3 107/109/3 66/68/3
f 68/70/2 72/74/2 69/71/2
f 71/73/2 108/110/2 72/74/2
f 62/64/2 64/66/2 76/78/2
f 80/82/3 109/111/3 78/80/3
f 78/80/3 110/112/3 79/81/3
f 81/83/3 92/94/3 82/84/3
f 87/89/2 91/93/2 89/91/2