# Blender v3.0.1 OBJ File: ''
# www.blender.org
mtllib 00.mtl
o normalized.005
v 0.288652 0.218644 -0.133211
v 0.288652 0.508465 -0.164097
v 0.288652 0.509111 -0.155779
v 0.170290 0.507023 -0.182660
v 0.170290 0.216555 -0.160092
v 0.288652 0.217997 -0.141530
v 0.170390 0.215832 -0.169406
v 0.049650 0.215509 -0.173555
v 0.049671 0.214751 -0.183319
v -0.071744 0.215519 -0.173431
v -0.071851 0.214769 -0.183078
v -0.071744 0.505986 -0.195999
v 0.049671 0.505218 -0.205887
v 0.049650 0.505977 -0.196123
v 0.170390 0.506299 -0.191974
v -0.071851 0.505237 -0.205646
v -0.192513 0.215888 -0.168688
v -0.192513 0.506355 -0.191255
v -0.310663 0.508557 -0.162911
v -0.310663 0.218090 -0.140343
v -0.192357 0.216584 -0.159722
v -0.310663 0.509159 -0.155167
v -0.192357 0.507051 -0.182289
v -0.310663 0.218691 -0.132599
vt 0.000000 0.002200
vt 1.000000 0.997800
vt 0.730700 1.000000
vt 1.000000 0.176100
vt 0.802500 0.542000
vt 0.000000 0.987900
vt 0.635100 0.999800
vt 0.567200 0.003600
vt 0.990400 0.010700
vt 0.197500 0.542000
vt 0.000000 0.176100
vt 1.000000 0.987900
vt 0.197300 0.725700
vt 0.398800 0.807500
vt 0.398800 1.000000
vt 0.211900 0.992700
vt 0.601200 0.000000
vt 0.601300 0.805100
vt 0.601500 0.995300
vt 0.398700 0.989200
vt 0.398700 0.000000
vt 0.601200 1.000000
vt 0.601200 0.807500
vt 0.802700 0.725700
vt 0.362400 0.999700
vt 0.443400 0.003700
vt 0.787700 0.992300
vt 0.398800 0.988600
vt 0.398800 0.000000
vt 0.398500 0.995300
vt 0.398700 0.805100
vt 0.601500 0.988700
vt 0.567600 0.003900
vt 0.223200 0.992500
vt 0.197100 0.711500
vt 0.802900 0.711500
vt 0.655700 1.000000
vt 1.000000 0.011400
vt 0.802600 0.534700
vt 1.000000 0.152700
vt 0.744500 0.000000
vt 0.255500 1.000000
vt 0.000000 0.997900
vt 0.197400 0.534700
vt 0.000000 0.152700
vt 0.000000 0.000000
vt 0.782200 0.992800
vt 0.000000 0.010800
vt 0.427000 0.003700
vt 0.269300 0.000000
vt 0.601200 0.989200
vt 0.018100 0.011100
vt 0.601500 0.000100
vt 0.000000 1.000000
vt 1.000000 0.002100
vt 0.355300 1.000000
vn 1.0000 0.0000 0.0000
vn -0.0000 0.9970 -0.0774
vn 0.0000 0.9970 -0.0775
vn -0.2221 0.0755 0.9721
vn -0.1669 0.0764 0.9830
vn 0.0000 -0.9970 0.0774
vn -0.0000 -0.9970 0.0775
vn -0.0552 0.0773 0.9955
vn 0.0572 0.0773 0.9954
vn 0.2301 -0.0754 -0.9702
vn 0.1728 -0.0763 -0.9820
vn 0.0565 -0.0773 -0.9954
vn -0.0605 -0.0773 -0.9952
vn -0.1767 -0.0762 -0.9813
vn -0.2339 -0.0753 -0.9693
vn -0.2340 -0.0753 -0.9693
vn -1.0000 0.0000 0.0000
vn 0.1690 0.0763 0.9827
vn 0.2241 0.0755 0.9716
vn 0.0000 -0.9970 0.0779
usemtl 01___Default.025
s 1
f 1/1/1 2/2/1 3/3/1
f 2/4/2 4/5/3 3/6/2
f 3/7/4 5/8/5 1/9/4
f 5/10/6 6/11/7 1/12/7
f 7/13/6 8/14/6 9/15/6
f 4/16/5 8/17/8 5/8/5
f 9/15/6 10/18/7 11/19/7
f 8/17/8 12/20/9 10/21/9
f 13/22/3 14/23/3 15/24/3
f 14/23/3 4/5/3 15/24/3
f 2/25/10 7/26/11 15/27/11
f 13/28/12 7/26/11 9/29/12
f 16/30/2 12/31/2 13/22/3
f 9/29/12 16/32/13 13/28/12
f 16/32/13 17/33/14 18/34/14
f 18/35/2 12/31/2 16/30/2
f 10/18/7 17/36/6 11/19/7
f 19/37/15 17/33/14 20/38/16
f 21/39/6 20/40/6 17/36/6
f 20/41/17 22/42/17 19/43/17
f 23/44/2 19/45/3 22/46/3
f 23/47/18 24/48/19 21/49/18
f 23/47/18 10/21/9 12/20/9
f 1/1/1 6/50/1 2/2/1
f 2/4/2 15/24/3 4/5/3
f 3/7/4 4/16/5 5/8/5
f 5/10/6 7/13/6 6/11/7
f 7/13/6 5/10/6 8/14/6
f 4/16/5 14/51/8 8/17/8
f 9/15/6 8/14/6 10/18/7
f 8/17/8 14/51/8 12/20/9
f 13/22/3 12/31/2 14/23/3
f 2/25/10 6/52/10 7/26/11
f 13/28/12 15/27/11 7/26/11
f 9/29/12 11/53/13 16/32/13
f 16/32/13 11/53/13 17/33/14
f 18/35/2 23/44/2 12/31/2
f 10/18/7 21/39/6 17/36/6
f 19/37/15 18/34/14 17/33/14
f 21/39/6 24/54/20 20/40/6
f 20/41/17 24/55/17 22/42/17
f 23/44/2 18/35/2 19/45/3
f 23/47/18 22/56/19 24/48/19
f 23/47/18 21/49/18 10/21/9