# Blender v3.0.1 OBJ File: ''
# www.blender.org
mtllib 01.mtl
o normalized.006
v -0.321666 0.263139 -0.155713
v -0.326646 0.261855 -0.158239
v -0.321666 0.261855 -0.158239
v -0.326646 0.263139 -0.155713
v -0.326646 0.272933 -0.151030
v -0.326646 0.261420 -0.163842
v -0.326646 0.261269 -0.161012
v -0.321666 0.261269 -0.161012
v -0.321666 0.261420 -0.163842
v -0.321666 0.272933 -0.151030
v -0.321666 0.267409 -0.152059
v -0.321666 0.265033 -0.153605
v -0.326646 0.265033 -0.153605
v -0.326646 0.270103 -0.151181
v -0.326646 0.267409 -0.152059
v -0.321666 0.270103 -0.151181
v -0.321666 0.271251 -0.172676
v -0.321666 0.262298 -0.166536
v -0.321666 0.473320 -0.188376
v -0.326646 0.475002 -0.166730
v -0.321666 0.477775 -0.167316
v -0.321666 0.475002 -0.166730
v -0.321666 0.480301 -0.168600
v -0.326646 0.476150 -0.188225
v -0.326646 0.473320 -0.188376
v -0.326646 0.271251 -0.172676
v -0.321666 0.483114 -0.183693
v -0.321666 0.476150 -0.188225
v -0.321666 0.484398 -0.181166
v -0.321666 0.484984 -0.178394
v -0.321666 0.482409 -0.170494
v -0.326646 0.484398 -0.181166
v -0.321666 0.481219 -0.185800
v -0.326646 0.483114 -0.183693
v -0.326646 0.480301 -0.168600
v -0.326646 0.481219 -0.185800
v -0.326646 0.482409 -0.170494
v -0.326646 0.484833 -0.175564
v -0.321666 0.478844 -0.187346
v -0.326646 0.478844 -0.187346
v -0.326646 0.484984 -0.178394
v -0.321666 0.484833 -0.175564
v -0.326646 0.483955 -0.172869
v -0.321666 0.483955 -0.172869
v -0.326646 0.477775 -0.167316
v -0.321666 0.268478 -0.172090
v -0.326646 0.265952 -0.170806
v -0.326646 0.268478 -0.172090
v -0.326646 0.262298 -0.166536
v -0.326646 0.263844 -0.168912
v -0.321666 0.263844 -0.168912
v -0.321666 0.265952 -0.170806
v -0.321666 -0.745311 -0.162997
v -0.321666 -0.733484 -0.155128
v -0.321666 -0.747094 -0.170099
v -0.321666 -0.740385 -0.157578
v -0.321666 -0.737086 -0.155926
v -0.321666 -0.122125 -0.165729
v -0.321666 -0.747094 -0.212555
v -0.321666 -0.743183 -0.159983
v -0.321666 -0.746641 -0.166438
v -0.321666 -0.129167 -0.097412
v -0.321666 0.544025 -0.156309
v -0.321666 0.547522 -0.160125
v -0.321666 0.545796 -0.156925
v -0.321666 0.544949 -0.156507
v -0.321666 0.547063 -0.158307
v -0.321666 0.547522 -0.212555
v -0.321666 0.547406 -0.159188
v -0.278697 0.547522 -0.160125
v -0.278697 0.546516 -0.157537
v -0.278697 0.544949 -0.156507
v -0.278697 0.545796 -0.156925
v -0.278697 0.544025 -0.156309
v -0.278697 0.547522 -0.212555
v -0.278697 0.547063 -0.158307
v -0.278697 0.547406 -0.159188
v -0.278697 -0.122125 -0.165729
v -0.278697 -0.129167 -0.097412
v -0.278697 -0.747094 -0.212555
v -0.278697 -0.733484 -0.155128
v -0.278697 -0.747094 -0.170099
v -0.278697 -0.740385 -0.157578
v -0.278697 -0.746641 -0.166438
v -0.278697 -0.743183 -0.159983
v -0.278697 -0.745311 -0.162997
v -0.321666 0.546516 -0.157537
v -0.278697 -0.737086 -0.155926
v -0.310663 -0.737524 0.532065
v -0.310663 -0.727802 0.529000
v -0.310663 -0.732858 0.529914
v -0.310663 -0.747094 0.549329
v -0.310663 -0.129167 0.554206
v -0.310663 -0.129167 0.497627
v -0.278697 -0.732858 0.529914
v -0.278697 -0.727802 0.529000
v -0.278697 -0.129167 0.497627
v -0.278697 -0.129167 0.554206
v -0.278697 -0.747094 0.586590
v -0.278697 -0.741503 0.535316
v -0.310663 -0.747094 0.586590
v -0.278697 -0.737524 0.532065
v -0.310663 -0.741503 0.535316
v -0.278697 -0.747094 0.549329
v -0.278697 -0.744541 0.539460
v -0.310663 -0.744541 0.539460
v -0.278697 -0.746445 0.544232
v -0.310663 -0.746445 0.544232
v -0.318250 -0.639717 0.580963
v -0.310663 -0.639717 -0.161368
v -0.310663 -0.639717 0.580963
v -0.310663 -0.587265 0.578214
v -0.318250 -0.587265 0.578214
v -0.318250 -0.639717 -0.161368
v -0.318250 -0.587265 -0.161368
v -0.310663 -0.587265 -0.161368
v -0.283167 -0.284301 -0.157974
v -0.310663 -0.284301 -0.159076
v -0.283167 -0.284301 -0.159076
v -0.283167 -0.146799 -0.159076
v -0.283167 -0.284301 0.512302
v -0.286645 -0.284301 0.512163
v -0.283167 -0.284301 0.512163
v -0.283167 -0.146799 0.512163
v -0.286645 -0.284301 -0.135057
v -0.286645 -0.146799 0.512163
v -0.310663 -0.284301 0.536181
v -0.310663 -0.146799 -0.159076
v -0.286645 -0.146799 -0.135057
v -0.310663 -0.146799 0.536181
v -0.283167 -0.146799 -0.135057
v -0.283167 -0.146799 0.536181
v -0.283167 -0.284301 0.536181
v -0.283167 -0.284301 -0.135057
vt 1.000000 0.160400
vt 1.000000 0.333100
vt 0.000000 0.333100
vt 0.874600 0.008400
vt 1.000000 0.052100
vt 0.806900 0.002600
vt 0.656900 0.000700
vt 0.732700 0.000000
vt 1.000000 0.461200
vt 0.000000 0.461200
vt 0.267300 0.000000
vt 0.343100 0.000700
vt 0.193100 0.002600
vt 0.125400 0.008400
vt 0.000000 0.052100
vt 0.027600 0.027400
vt 0.069000 0.016800
vt 1.000000 0.322800
vt 0.000000 0.160400
vt 1.000000 0.526400
vt 0.000000 0.322800
vt 0.996000 0.039500
vt 0.931000 0.016800
vt 0.972400 0.027400
vt 1.000000 0.757400
vt 0.000000 0.526400
vt 0.000000 0.757400
vt 1.000000 1.000000
vt 0.000000 1.000000
vt 0.004000 0.039500
vt 0.579600 0.044600
vt 0.415200 0.004600
vt 1.000000 0.947900
vt 1.000000 0.000000
vt 0.000000 1.000000
vt 0.000000 0.000000
vt 1.000000 0.381900
vt 0.000000 0.144200
vt 1.000000 0.144200
vt 0.470500 0.979100
vt 0.420400 0.955400
vt 1.000000 0.242600
vt 0.000000 0.000000
vt 1.000000 0.000000
vt 0.000000 1.000000
vt 1.000000 0.000000
vt 1.000000 1.000000
vt 0.874600 0.991600
vt 0.996000 0.960500
vt 0.806900 0.997400
vt 0.732700 1.000000
vt 0.521200 0.988500
vt 0.000000 0.839600
vt 0.000000 0.666900
vt 1.000000 0.666900
vt 0.931000 0.983200
vt 0.000000 0.677200
vt 1.000000 0.839600
vt 0.125400 0.991600
vt 0.000000 0.947900
vt 0.529500 0.979100
vt 0.069000 0.983200
vt 0.004000 0.960500
vt 0.478800 0.988500
vt 0.343100 0.999300
vt 0.193100 0.997400
vt 0.000000 0.473600
vt 1.000000 0.677200
vt 0.000000 0.242600
vt 1.000000 0.473600
vt 0.267300 1.000000
vt 0.000000 0.538800
vt 1.000000 0.538800
vt 0.000000 0.408100
vt 1.000000 0.408100
vt 0.000000 0.283600
vt 1.000000 0.283600
vt 0.656900 0.999300
vt 0.584800 0.995400
vt 0.000000 0.779200
vt 1.000000 0.779200
vt 0.000000 0.598500
vt 1.000000 0.598500
vt 0.579600 0.955400
vt 0.000000 0.381900
vt 0.420400 0.044600
vt 0.000000 0.618100
vt 1.000000 0.855800
vt 0.000000 0.855800
vt 0.470500 0.020900
vt 0.436100 0.032200
vt 0.584800 0.004600
vt 0.521200 0.011500
vt 0.000000 0.716400
vt 1.000000 0.220800
vt 0.000000 0.220800
vt 1.000000 0.401500
vt 0.000000 0.401500
vt 0.478800 0.011500
vt 0.529500 0.020900
vt 0.000000 0.591900
vt 1.000000 0.716400
vt 1.000000 0.618100
vt 1.000000 0.591900
vt 0.430400 0.001400
vt 0.498700 0.010500
vt 0.368700 0.000000
vt 0.477500 0.005200
vt 0.491800 0.007700
vt 0.406700 0.482700
vt 0.000000 0.000000
vt 0.456600 0.003000
vt 0.400500 0.000300
vt 1.000000 0.477300
vt 0.488500 0.997300
vt 0.455300 1.000000
vt 0.483100 0.998700
vt 0.486800 0.998000
vt 0.471100 0.999600
vt 0.000000 1.000000
vt 0.463500 0.999900
vt 0.544700 1.000000
vt 0.522200 0.999200
vt 0.513200 0.998000
vt 0.516900 0.998700
vt 0.511500 0.997300
vt 1.000000 1.000000
vt 0.528900 0.999600
vt 0.536500 0.999900
vt 0.593300 0.482700
vt 0.000000 0.477300
vt 1.000000 0.000000
vt 0.501300 0.010500
vt 0.631300 0.000000
vt 0.522500 0.005200
vt 0.599500 0.000300
vt 0.543400 0.003000
vt 0.569600 0.001400
vt 0.000000 1.000000
vt 1.000000 0.000000
vt 1.000000 1.000000
vt 0.000000 1.000000
vt 1.000000 0.000000
vt 1.000000 1.000000
vt 0.000000 1.000000
vt 1.000000 0.000000
vt 1.000000 1.000000
vt 1.000000 0.000000
vt 0.000000 0.000000
vt 1.000000 0.264200
vt 0.000000 0.000000
vt 1.000000 0.000000
vt 1.000000 0.506500
vt 0.000000 0.264200
vt 0.000000 0.506500
vt 1.000000 0.321800
vt 0.000000 0.321800
vt 1.000000 0.523600
vt 0.000000 0.754300
vt 1.000000 0.754300
vt 1.000000 1.000000
vt 0.000000 1.000000
vt 1.000000 0.000000
vt 0.000000 1.000000
vt 0.000000 0.000000
vt 1.000000 0.000000
vt 0.000000 1.000000
vt 0.000000 0.000000
vt 0.000000 0.755400
vt 1.000000 1.000000
vt 0.000000 1.000000
vt 0.000000 0.525600
vt 1.000000 0.755400
vt 1.000000 0.525600
vt 1.000000 0.287400
vt 0.000000 0.287400
vt 1.000000 0.492900
vt 1.000000 0.735300
vt 0.000000 0.492900
vt 0.000000 0.735300
vt 1.000000 1.000000
vt 0.000000 1.000000
vt 0.387100 0.015500
vt 0.352700 0.031200
vt 0.362900 0.023000
vt 0.581200 0.000000
vt 0.636000 1.000000
vt -0.000000 1.000000
vt 0.000000 0.737900
vt 1.000000 1.000000
vt 0.000000 1.000000
vt 0.000000 1.000000
vt 1.000000 0.000000
vt 1.000000 1.000000
vt 0.647300 0.031200
vt 0.364000 1.000000
vt 0.000000 0.000000
vt 0.576400 0.009000
vt 1.000000 0.000000
vt 0.000000 0.000000
vt 1.000000 0.000000
vt 0.000000 1.000000
vt 0.000000 0.000000
vt 0.612900 0.015500
vt 0.637100 0.023000
vt 0.000000 0.496000
vt 1.000000 0.737900
vt 1.000000 0.496000
vt 0.000000 0.689300
vt 1.000000 0.689300
vt 0.418800 0.000000
vt 0.000000 0.485500
vt 1.000000 0.485500
vt 0.000000 0.250700
vt 1.000000 0.250700
vt 0.476100 0.001000
vt 0.529800 0.004100
vt 1.000000 0.000000
vt 0.470200 0.004100
vt 0.523900 0.001000
vt 1.000000 0.000000
vt 0.000000 1.000000
vt 1.000000 1.000000
vt 1.000000 0.000000
vt 0.000000 1.000000
vt 0.000000 0.000000
vt 1.000000 0.000000
vt 0.003700 1.000000
vt 0.000000 1.000000
vt 1.000000 0.000000
vt 1.000000 1.000000
vt 0.000000 0.000000
vt 0.996300 1.000000
vt 0.000000 1.000000
vt 1.000000 0.000000
vt 1.000000 1.000000
vt 1.000000 0.000000
vt 0.000000 1.000000
vt 0.000000 0.000000
vt 0.368700 0.000000
vt 0.368700 0.000000
vt 0.368700 0.000000
vt 0.368700 0.000000
vt 0.368700 0.000000
vt 0.368700 0.000000
vt 0.368700 0.000000
vt 0.368700 0.000000
vt 0.368700 0.000000
vt 0.368700 0.000000
vt 0.368700 0.000000
vt 0.368700 0.000000
vt 0.368700 0.000000
vt 0.368700 0.000000
vt 0.368700 0.000000
vt 0.368700 0.000000
vt 0.368700 0.000000
vt 0.368700 0.000000
vt 1.000000 1.000000
vt 0.436100 0.967800
vt 0.000000 0.000000
vt 0.972400 0.972600
vt 0.027600 0.972600
vt 0.415200 0.995400
vt 0.563900 0.967800
vt 0.563900 0.032200
vt 0.477800 0.999200
vt 0.508200 0.007700
vt 0.000000 0.000000
vt 0.000000 0.000000
vt 0.000000 0.000000
vt 0.000000 0.523600
vt 1.000000 1.000000
vt 1.000000 1.000000
vt 0.423600 0.009000
vt 0.000000 0.000000
vt 1.000000 1.000000
vt 1.000000 1.000000
vt 0.000000 0.000000
vt 1.000000 1.000000
vt 0.000000 0.000000
vt 0.000000 0.000000
vt 1.000000 1.000000
vn 0.0000 -0.8247 0.5656
vn 0.0000 -0.8914 0.4531
vn -1.0000 0.0000 0.0000
vn -1.0000 -0.0001 0.0000
vn 0.0000 -0.9784 0.2068
vn 1.0000 0.0000 0.0000
vn 0.0000 -0.7439 0.6683
vn 0.0000 -0.4313 0.9022
vn 0.0000 -0.5458 0.8379
vn 0.0000 -0.3099 0.9508
vn 0.0000 -0.0533 0.9986
vn 0.0000 0.0775 0.9970
vn 0.0000 0.2068 0.9784
vn 0.0000 0.2071 0.9783
vn 0.0000 0.1833 -0.9831
vn 0.0000 0.0533 -0.9986
vn 0.0000 -0.0775 -0.9970
vn 0.0000 0.8246 -0.5657
vn 0.0000 0.9430 -0.3327
vn 0.0000 0.9430 -0.3328
vn 0.0000 0.7435 -0.6687
vn 0.0000 0.4316 -0.9021
vn 0.0000 0.5455 -0.8381
vn 0.0000 0.9784 -0.2068
vn 0.0000 0.9784 -0.2069
vn 0.0000 0.9831 0.1831
vn 0.0000 0.9986 0.0533
vn 0.0000 0.9508 0.3098
vn 1.0000 0.0001 0.0000
vn 0.0000 0.8381 0.5455
vn 0.0000 0.6683 0.7439
vn 0.0000 0.5656 0.8247
vn 0.0000 0.4531 0.8914
vn 0.0000 -0.2068 -0.9784
vn 0.0000 -0.8382 -0.5454
vn 0.0000 -0.6683 -0.7438
vn 0.0000 -0.5656 -0.8247
vn 0.0000 -0.9831 -0.1831
vn 0.0000 -0.9508 -0.3099
vn 0.0000 -0.4531 -0.8914
vn 0.0000 -0.4531 -0.8915
vn 0.0000 -0.9986 -0.0533
vn -1.0000 0.0001 0.0000
vn 1.0000 -0.0001 0.0000
vn 0.0000 -1.0000 -0.0000
vn 0.0000 0.0747 -0.9972
vn 0.0000 -0.0698 -0.9976
vn 0.0000 1.0000 0.0000
vn 0.0000 0.3285 0.9445
vn 0.0000 0.2096 0.9778
vn 0.0000 0.2095 0.9778
vn 0.0000 0.5492 0.8357
vn 0.0000 0.3286 0.9445
vn 0.0000 0.5493 0.8357
vn 0.0000 0.7371 0.6758
vn 0.0000 0.7371 0.6757
vn 0.0000 0.8802 0.4746
vn 0.0000 0.9696 0.2447
vn 0.0000 0.9924 0.1233
vn 0.0000 0.9924 0.1229
vn 0.0000 0.0872 0.9962
vn 0.0000 -0.0951 0.9955
vn 0.0000 -0.9699 0.2435
vn 0.0000 -0.9924 0.1228
vn 0.0000 -0.8815 0.4722
vn 0.0000 -0.7400 0.6726
vn 0.0000 -0.5540 0.8325
vn 0.0000 -0.3346 0.9424
vn 0.0000 -0.2163 0.9763
vn 0.0000 -0.3007 -0.9537
vn 0.0000 -0.1779 -0.9840
vn 0.0000 -0.0523 -0.9986
vn 0.0000 0.0523 0.9986
vn 0.0000 -0.5299 -0.8480
vn 0.0000 -0.5299 -0.8481
vn 0.0000 -0.7254 -0.6883
vn 0.0000 -0.8746 -0.4848
vn 0.0000 -0.9681 -0.2505
vn 0.0000 -0.9681 -0.2504
vn 0.0000 -0.9920 -0.1263
vn 0.0000 0.0000 -1.0000
vn 0.0000 -0.0000 1.0000
vn 0.0000 -0.9784 0.2067
vn 0.0000 0.8381 0.5456
vn 0.0000 -0.6683 -0.7439
usemtl 01___Default.024
s 1
f 1/1/1 2/2/2 3/3/2
f 4/4/3 5/5/3 2/6/3
f 5/5/3 6/7/3 2/6/3
f 2/6/3 6/7/3 7/8/4
f 3/3/5 7/9/5 8/10/5
f 8/11/6 9/12/6 3/13/6
f 1/14/6 9/12/6 10/15/6
f 1/14/6 11/16/6 12/17/6
f 12/18/7 4/19/1 1/1/1
f 11/20/8 13/21/9 12/18/9
f 14/22/3 13/23/3 15/24/3
f 16/25/10 15/26/8 11/20/8
f 14/27/11 10/28/11 5/29/11
f 10/15/6 16/30/6 11/16/6
f 17/31/6 9/12/6 18/32/6
f 19/33/6 10/15/6 17/31/6
f 10/34/12 20/35/12 5/36/12
f 21/37/13 20/38/13 22/39/14
f 23/40/6 22/41/6 19/33/6
f 24/42/15 19/43/16 25/44/16
f 19/45/17 26/46/17 25/47/17
f 27/48/6 23/40/6 19/33/6
f 27/48/6 19/33/6 28/49/6
f 29/50/6 30/51/6 27/48/6
f 30/51/6 31/52/6 27/48/6
f 27/53/18 32/54/19 29/55/20
f 28/49/6 33/56/6 27/48/6
f 33/57/21 34/58/18 27/53/18
f 34/59/3 25/60/3 35/61/3
f 36/62/3 24/63/3 34/59/3
f 37/64/3 34/59/3 35/61/3
f 34/59/3 38/65/3 32/66/3
f 39/67/22 36/68/23 33/57/23
f 28/69/15 40/70/22 39/67/22
f 41/71/3 32/66/3 38/65/3
f 29/55/20 41/72/24 30/73/25
f 38/74/26 30/73/27 41/72/27
f 42/75/26 43/76/28 44/77/28
f 42/78/6 44/79/29 31/52/6
f 44/77/30 37/80/30 31/81/30
f 31/81/31 35/82/32 23/83/32
f 20/84/3 35/61/3 25/60/3
f 23/83/32 45/85/33 21/37/33
f 5/5/3 25/60/3 26/86/3
f 46/87/34 26/88/34 17/89/34
f 47/90/3 26/86/3 48/91/3
f 49/92/3 26/86/3 50/93/3
f 18/94/35 50/95/35 51/96/35
f 51/96/36 47/97/37 52/98/37
f 51/99/6 17/31/6 18/32/6
f 52/100/6 17/31/6 51/99/6
f 9/101/38 49/102/39 18/94/39
f 52/98/37 48/103/40 46/87/41
f 6/104/38 8/10/42 7/9/42
f 53/105/3 54/106/3 55/107/3
f 56/108/3 57/109/3 54/106/3
f 54/106/3 58/110/3 55/107/3
f 58/110/3 59/111/3 55/107/3
f 60/112/3 56/108/3 53/105/3
f 53/105/3 55/107/3 61/113/43
f 54/106/3 62/114/3 63/115/3
f 64/116/3 63/115/3 65/117/3
f 63/115/3 66/118/3 65/117/3
f 65/117/3 67/119/3 64/116/3
f 68/120/3 58/110/3 64/116/3
f 64/116/3 67/119/3 69/121/3
f 70/122/6 71/123/6 72/124/6
f 71/123/6 73/125/44 72/124/6
f 70/122/6 74/126/6 75/127/6
f 76/128/6 71/123/6 77/129/6
f 78/130/6 74/126/6 79/131/6
f 80/132/6 81/133/6 82/134/6
f 81/133/6 83/135/6 82/134/6
f 83/135/6 84/136/6 82/134/6
f 85/137/6 86/138/6 84/136/6
f 81/133/6 78/130/6 79/131/6
f 80/139/45 55/140/45 59/141/45
f 78/142/46 59/143/46 58/144/46
f 75/145/47 58/146/47 68/147/47
f 70/148/48 68/120/48 64/149/48
f 72/150/49 63/151/50 74/152/51
f 73/153/52 66/154/53 72/150/49
f 65/155/54 71/156/55 87/157/56
f 76/158/57 87/157/56 71/156/55
f 69/159/58 76/158/57 77/160/58
f 69/159/58 70/161/59 64/162/60
f 79/163/61 63/164/61 62/165/61
f 81/166/62 62/167/62 54/168/62
f 84/169/63 55/170/64 82/171/64
f 86/172/65 61/173/63 84/169/63
f 53/174/65 85/175/66 60/176/66
f 83/177/67 60/176/66 85/175/66
f 88/178/68 56/179/67 83/177/67
f 57/180/68 81/181/69 54/182/69
f 89/183/3 90/184/3 91/185/3
f 90/184/3 92/186/3 93/187/3
f 90/184/3 93/187/3 94/188/3
f 95/189/70 90/190/71 96/191/71
f 97/192/72 90/193/72 94/194/72
f 96/195/6 98/196/6 99/197/6
f 100/198/6 96/195/6 99/197/6
f 98/199/48 94/188/48 93/200/48
f 99/201/73 93/202/73 101/203/73
f 102/204/6 95/205/6 100/198/6
f 102/206/74 91/207/70 95/189/70
f 89/208/75 100/209/76 103/210/76
f 104/211/6 100/198/6 99/197/6
f 105/212/77 103/210/76 100/209/76
f 106/213/77 107/214/78 108/215/79
f 107/216/29 105/217/6 104/211/6
f 107/214/78 92/218/80 108/215/79
f 92/186/3 106/219/3 108/220/3
f 92/186/3 101/221/3 93/187/3
f 104/222/45 101/221/45 92/223/45
f 109/224/45 110/225/45 111/226/45
f 110/227/6 112/228/6 111/226/6
f 113/229/73 111/230/73 112/231/73
f 114/232/3 113/233/3 115/234/3
f 115/234/48 112/235/48 116/236/48
f 114/237/81 116/238/81 110/239/81
f 117/240/45 118/241/45 119/242/45
f 118/241/81 120/243/81 119/242/81
f 121/244/45 122/245/45 123/246/45
f 122/245/81 124/247/81 123/246/81
f 125/248/6 126/249/6 122/245/6
f 127/250/3 128/251/3 118/241/3
f 129/252/48 130/253/48 126/249/48
f 120/243/48 129/252/48 131/254/48
f 126/249/48 132/255/48 124/247/48
f 133/256/82 130/253/82 127/250/82
f 134/257/82 129/252/82 125/248/82
f 117/240/45 134/257/45 125/248/45
f 122/245/45 133/256/45 127/250/45
f 1/1/1 4/19/1 2/2/2
f 4/4/3 13/23/3 5/5/3
f 5/5/3 49/92/3 6/7/3
f 3/3/5 2/2/83 7/9/5
f 1/14/6 3/13/6 9/12/6
f 1/14/6 10/15/6 11/16/6
f 12/18/7 13/21/7 4/19/1
f 11/20/8 15/26/8 13/21/9
f 14/22/3 5/5/3 13/23/3
f 16/25/10 14/27/10 15/26/8
f 14/27/11 16/25/11 10/28/11
f 17/31/6 10/15/6 9/12/6
f 19/33/6 22/41/6 10/15/6
f 10/34/12 22/258/12 20/35/12
f 21/37/13 45/85/13 20/38/13
f 23/40/6 21/259/6 22/41/6
f 24/42/15 28/69/15 19/43/16
f 19/45/17 17/260/17 26/46/17
f 27/48/6 31/52/6 23/40/6
f 30/51/6 42/78/6 31/52/6
f 27/53/18 34/58/18 32/54/19
f 28/49/6 39/261/44 33/56/6
f 33/57/21 36/68/21 34/58/18
f 34/59/3 24/63/3 25/60/3
f 36/62/3 40/262/3 24/63/3
f 37/64/3 43/263/3 34/59/3
f 34/59/3 43/263/3 38/65/3
f 39/67/22 40/70/22 36/68/23
f 28/69/15 24/42/15 40/70/22
f 29/55/20 32/54/19 41/72/24
f 38/74/26 42/75/26 30/73/27
f 42/75/26 38/74/26 43/76/28
f 44/77/30 43/76/84 37/80/30
f 31/81/31 37/80/31 35/82/32
f 20/84/3 45/264/3 35/61/3
f 23/83/32 35/82/32 45/85/33
f 5/5/3 20/84/3 25/60/3
f 46/87/34 48/103/34 26/88/34
f 47/90/3 50/93/3 26/86/3
f 49/92/3 5/5/3 26/86/3
f 18/94/35 49/102/35 50/95/35
f 51/96/36 50/95/85 47/97/37
f 52/100/6 46/265/6 17/31/6
f 9/101/38 6/104/38 49/102/39
f 52/98/37 47/97/37 48/103/40
f 6/104/38 9/101/38 8/10/42
f 53/105/3 56/108/3 54/106/3
f 54/106/3 63/115/3 58/110/3
f 64/116/3 58/110/3 63/115/3
f 65/117/3 87/266/3 67/119/3
f 70/122/6 77/129/6 71/123/6
f 70/122/6 72/124/6 74/126/6
f 78/130/6 75/127/6 74/126/6
f 80/132/6 78/130/6 81/133/6
f 81/133/6 88/267/6 83/135/6
f 83/135/6 85/137/6 84/136/6
f 80/139/45 82/268/45 55/140/45
f 78/142/46 80/269/46 59/143/46
f 75/145/47 78/270/47 58/146/47
f 70/148/48 75/127/48 68/120/48
f 72/150/49 66/154/53 63/151/50
f 73/153/52 65/155/54 66/154/53
f 65/155/54 73/153/52 71/156/55
f 76/158/57 67/271/57 87/157/56
f 69/159/58 67/271/57 76/158/57
f 69/159/58 77/160/58 70/161/59
f 79/163/61 74/272/61 63/164/61
f 81/166/62 79/273/62 62/167/62
f 84/169/63 61/173/63 55/170/64
f 86/172/65 53/174/65 61/173/63
f 53/174/65 86/172/65 85/175/66
f 83/177/67 56/179/67 60/176/66
f 88/178/68 57/180/68 56/179/67
f 57/180/68 88/178/68 81/181/69
f 89/183/3 103/274/3 90/184/3
f 90/184/3 103/274/3 92/186/3
f 95/189/70 91/207/70 90/190/71
f 97/192/72 96/275/72 90/193/72
f 96/195/6 97/276/6 98/196/6
f 100/198/6 95/205/6 96/195/6
f 98/199/48 97/276/48 94/188/48
f 99/201/73 98/277/73 93/202/73
f 102/206/74 89/208/75 91/207/70
f 89/208/75 102/206/74 100/209/76
f 104/211/6 105/217/6 100/198/6
f 105/212/77 106/213/77 103/210/76
f 106/213/77 105/212/77 107/214/78
f 107/214/78 104/278/80 92/218/80
f 92/186/3 103/274/3 106/219/3
f 104/222/45 99/197/45 101/221/45
f 109/224/45 114/279/45 110/225/45
f 110/227/6 116/236/6 112/228/6
f 113/229/73 109/280/73 111/230/73
f 114/232/3 109/224/3 113/233/3
f 115/234/48 113/281/48 112/235/48
f 114/237/81 115/282/81 116/238/81
f 118/241/81 128/251/81 120/243/81
f 122/245/81 126/249/81 124/247/81
f 125/248/6 129/252/6 126/249/6
f 127/250/3 130/253/3 128/251/3
f 129/252/48 128/251/48 130/253/48
f 120/243/48 128/251/48 129/252/48
f 126/249/48 130/253/48 132/255/48
f 133/256/82 132/255/82 130/253/82
f 134/257/82 131/254/82 129/252/82
f 125/248/45 127/250/45 118/241/45
f 118/241/45 117/240/45 125/248/45
f 122/245/45 121/244/45 133/256/45
f 127/250/45 125/248/45 122/245/45