# Blender v3.0.1 OBJ File: ''
# www.blender.org
mtllib 00.mtl
o model.043
v -0.695662 0.304872 -0.479480
v -0.784352 0.304872 -0.390790
v -0.784352 0.304872 -0.479480
v -0.695662 0.304872 -0.390790
v -0.784352 0.313143 0.390042
v -0.784352 0.393562 0.479480
v -0.784352 0.393562 0.390042
v -0.784352 0.385059 -0.387545
v -0.784352 0.393562 -0.479480
v -0.784352 0.384193 -0.387545
v -0.784352 0.304872 -0.390790
v -0.784352 0.304872 -0.387545
v -0.784352 0.304872 -0.479480
v -0.784352 0.393562 -0.479480
v -0.695662 0.304872 -0.479480
v -0.784352 0.304872 -0.479480
v 0.695662 0.304872 -0.479480
v 0.784352 0.304872 -0.479480
v 0.784352 0.393562 -0.479480
v -0.695662 0.304872 0.390790
v -0.784352 0.304872 0.479480
v -0.784352 0.304872 0.390790
v -0.695662 0.304872 0.479480
v 0.784352 0.393562 0.479480
v 0.695662 0.304872 0.479480
v 0.784352 0.304872 0.479480
v -0.695662 0.304872 0.479480
v -0.784352 0.304872 0.479480
v -0.784352 0.393562 0.479480
v -0.633961 0.393562 -0.387545
v -0.784352 0.393562 -0.479480
v -0.784352 0.393562 -0.387545
v 0.638046 0.393562 0.390042
v 0.784352 0.393562 0.479480
v 0.784352 0.393562 0.390042
v 0.784352 0.304872 -0.479480
v 0.695662 0.304872 -0.390790
v 0.695662 0.304872 -0.479480
v 0.784352 0.304872 -0.390790
v 0.784352 0.304872 0.390790
v 0.784352 0.393562 0.479480
v 0.784352 0.304872 0.479480
v 0.784352 0.393562 -0.387545
v 0.784352 0.384193 -0.387545
v 0.784352 0.393562 -0.479480
v 0.784352 0.304948 0.390042
v 0.784352 0.304872 0.390042
v 0.784352 0.304872 -0.390790
v 0.784352 0.304872 -0.479480
v 0.784352 0.304872 0.390790
v 0.695662 0.304872 0.479480
v 0.695662 0.304872 0.390790
v 0.784352 0.304872 0.479480
v -0.695662 0.304872 -0.390790
v -0.695662 0.304872 -0.479480
v -0.784352 0.304872 -0.390790
v -0.784352 0.304872 -0.479480
v -0.784352 0.304872 -0.479480
v -0.784352 0.393562 -0.479480
v -0.784352 0.304872 -0.390790
v -0.784352 0.304872 0.390042
v -0.784352 0.304948 0.390042
v -0.784352 0.304872 0.390790
v -0.784352 0.384193 -0.387545
v -0.784352 0.385059 -0.387545
v -0.784352 0.393562 -0.387545
v 0.784352 0.393562 -0.479480
v -0.784352 0.393562 -0.479480
v 0.784352 0.304872 -0.479480
v 0.695662 0.304872 -0.479480
v -0.695662 0.304872 -0.479480
v -0.784352 0.304872 -0.479480
v -0.695662 0.304872 0.479480
v -0.695662 0.304872 0.390790
v -0.784352 0.304872 0.479480
v -0.784352 0.304872 0.390790
v -0.784352 0.393562 0.479480
v 0.784352 0.393562 0.479480
v -0.784352 0.304872 0.479480
v -0.695662 0.304872 0.479480
v 0.695662 0.304872 0.479480
v 0.784352 0.304872 0.479480
v 0.784352 0.393562 0.390042
v 0.784352 0.393562 0.479480
v 0.638046 0.393562 0.390042
v -0.784352 0.393562 -0.387545
v -0.784352 0.393562 -0.479480
v -0.633961 0.393562 -0.387545
v 0.784352 0.304872 -0.390790
v 0.784352 0.304872 -0.479480
v 0.695662 0.304872 -0.390790
v 0.695662 0.304872 -0.479480
v 0.784352 0.304872 -0.479480
v 0.784352 0.304872 -0.390790
v 0.784352 0.393562 -0.479480
v 0.784352 0.304872 0.390042
v 0.784352 0.304872 0.390790
v 0.784352 0.304948 0.390042
v 0.784352 0.393562 0.390042
v 0.784352 0.304872 0.479480
v 0.784352 0.393562 0.479480
v 0.784352 0.304872 0.479480
v 0.784352 0.304872 0.390790
v 0.695662 0.304872 0.479480
v 0.695662 0.304872 0.390790
v 0.695747 0.304872 0.390042
v 0.695662 0.304872 0.390790
v 0.695662 0.304872 0.390042
v 0.783984 0.304872 -0.387545
v 0.784352 0.304872 -0.390790
v 0.784352 0.304872 -0.387545
v 0.695662 0.304872 -0.479480
v -0.695662 0.304872 -0.390790
v -0.695662 0.304872 -0.479480
v -0.695662 0.304872 0.390042
v -0.694467 0.304872 0.390042
v -0.695662 0.304872 0.390790
v 0.548683 0.304872 -0.387545
v 0.562276 0.304872 -0.387545
v 0.695662 0.304872 -0.387545
v 0.695662 0.304872 -0.390790
v 0.695662 0.304872 -0.387545
v 0.695662 0.304872 -0.387545
v -0.784267 0.304872 0.390042
v -0.784352 0.304872 0.390790
v -0.784352 0.304872 0.390042
v -0.696030 0.304872 -0.387545
v -0.695662 0.304872 -0.387545
v -0.695662 0.304872 -0.387545
v -0.695662 0.304872 -0.390790
v -0.696030 0.304872 -0.387545
v -0.784352 0.304872 0.390042
v -0.784352 0.304872 0.390790
v -0.784267 0.304872 0.390042
v 0.695662 0.304872 -0.387545
v 0.695662 0.304872 -0.390790
v 0.695662 0.304872 -0.387545
v 0.695662 0.304872 0.390042
v 0.695662 0.304872 0.390042
v 0.695662 0.304872 0.479480
v 0.695662 0.304872 -0.387545
v 0.695662 0.304872 -0.479480
v 0.562276 0.304872 -0.387545
v 0.548683 0.304872 -0.387545
v -0.695662 0.304872 -0.479480
v 0.784352 0.304872 -0.387545
v 0.784352 0.304872 -0.390790
v 0.783984 0.304872 -0.387545
v 0.695662 0.304872 0.390042
v 0.695662 0.304872 0.390790
v 0.695747 0.304872 0.390042
v -0.784352 0.393562 -0.387545
v -0.784352 0.304948 0.390042
v -0.695662 0.304872 0.390042
v -0.694467 0.304872 0.390042
v 0.695662 0.304872 0.390042
v -0.565899 0.304872 0.390042
v 0.784352 0.384193 -0.387545
v 0.784352 0.393562 -0.387545
v -0.565899 0.304872 0.390042
v -0.784352 0.304872 -0.390790
v 0.695662 0.304872 0.390042
v -0.784352 0.393562 0.390042
v 0.784352 0.393562 -0.479480
v -0.784352 0.393562 0.390042
v -0.784352 0.304872 -0.387545
v -0.784352 0.313143 0.390042
v 0.784352 0.304872 0.390042
v -0.784352 0.304872 0.390042
v -0.784352 0.393562 0.390042
v 0.784352 0.304872 0.390042
v -0.784352 0.304872 -0.390790
v 0.784352 0.393562 0.390042
v 0.784352 0.393562 -0.479480
v -0.695662 0.304872 0.390790
v 0.784352 0.393562 -0.387545
v 0.784352 0.304872 0.390790
v 0.784352 0.304872 -0.379571
v -0.784352 0.304872 -0.387545
v -0.784352 0.304872 -0.387545
v -0.784352 0.304872 0.390790
v -0.784352 0.304872 0.479480
v 0.695662 0.304872 0.479480
v -0.695662 0.304872 0.479480
v -0.695662 0.304872 0.479480
v 0.784352 0.304872 -0.387545
v -0.784352 0.393562 0.479480
v -0.784352 0.393562 0.479480
v -0.784352 0.304872 0.479480
v -0.784352 0.393562 0.479480
v 0.784352 0.304872 0.390790
v 0.784352 0.393562 -0.387545
v 0.784352 0.304872 -0.387545
vt 0.000000 0.000000
vt 0.000000 0.000000
vt 0.000000 0.000000
vt 0.000000 0.000000
vt 0.000000 0.000000
vt 0.000000 0.000000
vt 0.000000 0.000000
vt 0.000000 0.000000
vt 0.000000 0.000000
vt 0.000000 0.000000
vt 0.000000 0.000000
vt 0.000000 0.000000
vt 0.000000 0.000000
vt 0.000000 0.000000
vt 0.000000 0.000000
vt 0.000000 0.000000
vt 0.000000 0.000000
vt 0.000000 0.000000
vt 0.000000 0.000000
vt 0.000000 0.000000
vt 0.000000 0.000000
vt 0.000000 0.000000
vt 0.000000 0.000000
vt 0.000000 0.000000
vt 0.000000 0.000000
vt 0.000000 0.000000
vt 0.000000 0.000000
vt 0.000000 0.000000
vt 0.000000 0.000000
vt 0.000000 0.000000
vt 0.000000 0.000000
vt 0.000000 0.000000
vt 0.000000 0.000000
vt 0.000000 0.000000
vt 0.000000 0.000000
vt 0.000000 0.000000
vt 0.000000 0.000000
vt 0.000000 0.000000
vt 0.000000 0.000000
vt 0.000000 0.000000
vt 0.000000 0.000000
vt 0.000000 0.000000
vt 0.000000 0.000000
vt 0.000000 0.000000
vt 0.000000 0.000000
vt 0.000000 0.000000
vt 0.000000 0.000000
vt 0.000000 0.000000
vt 0.000000 0.000000
vt 0.000000 0.000000
vt 0.000000 0.000000
vt 0.000000 0.000000
vt 0.000000 0.000000
vt 0.000000 0.000000
vt 0.000000 0.000000
vt 0.000000 0.000000
vt 0.000000 0.000000
vt 0.000000 0.000000
vt 0.000000 0.000000
vt 0.000000 0.000000
vt 0.000000 0.000000
vt 0.000000 0.000000
vt 0.000000 0.000000
vt 0.000000 0.000000
vt 0.000000 0.000000
vt 0.000000 0.000000
vt 0.000000 0.000000
vt 0.000000 0.000000
vt 0.000000 0.000000
vt 0.000000 0.000000
vt 0.000000 0.000000
vt 0.000000 0.000000
vt 0.000000 0.000000
vt 0.000000 0.000000
vt 0.000000 0.000000
vt 0.000000 0.000000
vt 0.000000 0.000000
vt 0.000000 0.000000
vt 0.000000 0.000000
vt 0.000000 0.000000
vt 0.000000 0.000000
vt 0.000000 0.000000
vt 0.000000 0.000000
vt 0.000000 0.000000
vt 0.000000 0.000000
vt 0.000000 0.000000
vt 0.000000 0.000000
vt 0.000000 0.000000
vt 0.000000 0.000000
vt 0.000000 0.000000
vt 0.000000 0.000000
vt 0.000000 0.000000
vt 0.000000 0.000000
vt 0.000000 0.000000
vt 0.000000 0.000000
vt 0.000000 0.000000
vt 0.000000 0.000000
vt 0.000000 0.000000
vt 0.000000 0.000000
vt 0.000000 0.000000
vt 0.000000 0.000000
vt 0.000000 0.000000
vt 0.000000 0.000000
vt 0.000000 0.000000
vt 0.000000 0.000000
vt 16.413729 2.314741
vt 16.414049 2.311931
vt 16.414049 2.314741
vt 16.082104 5.237236
vt 16.080721 5.249431
vt 16.080721 5.237236
vt 16.414049 5.582764
vt 21.643221 5.249431
vt 21.643221 5.582764
vt 21.643221 2.314741
vt 21.638729 2.314741
vt 21.643221 2.311931
vt 16.966455 5.237235
vt 16.915367 5.237235
vt 16.414049 5.237235
vt 16.414049 5.249431
vt 16.414049 5.237236
vt 16.414049 5.237236
vt 21.976231 2.314741
vt 21.976549 2.311931
vt 21.976549 2.314741
vt 21.644604 5.237236
vt 21.643219 5.237236
vt 0.000000 0.000000
vt 0.000000 0.000000
vt 0.000000 0.000000
vt 0.000000 0.000000
vt 0.000000 0.000000
vt 0.000000 0.000000
vt 0.000000 0.000000
vt 0.000000 0.000000
vt 0.000000 0.000000
vt 0.000000 0.000000
vt 0.000000 0.000000
vt 0.000000 0.000000
vt 0.000000 0.000000
vt 0.000000 0.000000
vt 0.000000 0.000000
vt 0.000000 0.000000
vt 0.000000 0.000000
vt 0.000000 0.000000
vt 0.000000 0.000000
vt 0.000000 0.000000
vt 0.000000 0.000000
vt 0.000000 0.000000
vt 0.000000 0.000000
vt 0.000000 0.000000
vt 0.000000 0.000000
vt 0.000000 0.000000
vt 0.000000 0.000000
vt 16.414049 2.314741
vt 21.155521 2.314741
vt 0.000000 0.000000
vt 0.000000 0.000000
vt 0.000000 0.000000
vt 21.976549 5.249431
vt 16.414049 2.314741
vt 0.000000 0.000000
vt 0.000000 0.000000
vt 0.000000 0.000000
vt 0.000000 0.000000
vt 0.000000 0.000000
vt 16.080721 2.314741
vt 0.000000 0.000000
vt 0.000000 0.000000
vt 0.000000 0.000000
vt 0.000000 0.000000
vt 0.000000 0.000000
vt 0.000000 0.000000
vt 0.000000 0.000000
vt 0.000000 0.000000
vt 0.000000 0.000000
vt 0.000000 0.000000
vt 0.000000 0.000000
vt 21.976549 5.237236
vt 0.000000 0.000000
vt 0.000000 0.000000
vt 16.414049 1.978597
vt 21.643221 1.978597
vt 0.000000 0.000000
vt 0.000000 0.000000
vt 0.000000 0.000000
vt 0.000000 0.000000
vt 0.000000 0.000000
vt 0.000000 0.000000
vt 16.080721 2.311931
vt 0.000000 0.000000
vt 0.000000 0.000000
vn 0.0000 -1.0000 -0.0000
vn -1.0000 0.0000 0.0000
vn 0.0000 0.0000 -1.0000
vn 0.0000 0.0000 1.0000
vn 0.0000 1.0000 0.0000
vn 1.0000 0.0000 0.0000
vn -0.7024 0.7073 -0.0797
vn 0.0588 0.9983 -0.0000
vn 0.0004 0.9798 -0.2002
vn 0.1127 0.0001 -0.9936
vn -0.0004 -1.0000 -0.0002
vn -0.0001 -0.7071 0.7071
vn 0.8590 -0.3318 0.3899
vn 0.0000 0.0000 0.0071
vn 0.0000 0.6963 -0.6964
vn 0.0000 0.7071 0.7071
vn 0.5746 -0.7138 -0.4004
vn 0.0000 0.7071 0.7072
vn 0.0001 0.7071 0.7071
vn 0.0002 1.0000 0.0000
vn -0.6808 -0.6230 -0.3853
vn 0.0000 -0.7071 0.7072
usemtl material_0.173
s 1
f 1/1/1 2/2/1 3/3/1
f 2/2/1 1/1/1 4/4/1
f 5/5/2 6/6/2 7/7/2
f 8/8/2 9/9/2 10/10/2
f 10/10/2 11/11/2 12/12/2
f 11/11/2 9/9/2 13/13/2
f 14/14/3 15/15/3 16/16/3
f 15/15/3 14/14/3 17/17/3
f 17/17/3 14/14/3 18/18/3
f 18/18/3 14/14/3 19/19/3
f 20/20/1 21/21/1 22/22/1
f 21/21/1 20/20/1 23/23/1
f 24/24/4 25/25/4 26/26/4
f 25/25/4 24/24/4 27/27/4
f 27/27/4 24/24/4 28/28/4
f 28/28/4 24/24/4 29/29/4
f 30/30/5 31/31/5 32/32/5
f 33/33/5 34/34/5 35/35/5
f 36/36/1 37/37/1 38/38/1
f 37/37/1 36/36/1 39/39/1
f 40/40/6 41/41/6 42/42/6
f 43/43/6 44/44/6 45/45/6
f 46/46/6 40/40/6 47/47/6
f 45/45/6 48/48/6 49/49/6
f 50/50/1 51/51/1 52/52/1
f 51/51/1 50/50/1 53/53/1
f 54/54/5 55/55/5 56/56/5
f 57/57/5 56/56/5 55/55/5
f 58/58/6 59/59/6 60/60/6
f 61/61/6 62/62/6 63/63/6
f 64/64/6 59/59/6 65/65/6
f 66/66/6 65/65/6 59/59/6
f 67/67/4 68/68/4 69/69/4
f 69/69/4 68/68/4 70/70/4
f 70/70/4 68/68/4 71/71/4
f 72/72/4 71/71/4 68/68/4
f 73/73/5 74/74/5 75/75/5
f 76/76/5 75/75/5 74/74/5
f 77/77/3 78/78/3 79/79/3
f 79/79/3 78/78/3 80/80/3
f 80/80/3 78/78/3 81/81/3
f 82/82/3 81/81/3 78/78/3
f 83/83/1 84/84/1 85/85/1
f 86/86/1 87/87/1 88/88/1
f 89/89/5 90/90/5 91/91/5
f 92/92/5 91/91/5 90/90/5
f 93/93/2 94/94/2 95/95/2
f 96/96/2 97/97/2 98/98/2
f 97/97/2 99/99/2 98/98/2
f 100/100/2 101/101/2 97/97/2
f 102/102/5 103/103/5 104/104/5
f 105/105/5 104/104/5 103/103/5
f 106/106/7 107/107/8 108/108/9
f 109/109/10 110/110/1 111/111/1
f 112/112/11 113/113/1 114/114/1
f 115/115/1 116/116/1 117/117/1
f 118/118/1 112/112/11 119/119/1
f 119/119/1 112/112/11 120/120/12
f 120/120/12 121/121/13 122/122/14
f 122/122/14 121/121/13 123/123/15
f 124/124/1 125/125/1 126/126/1
f 127/127/1 113/113/1 128/128/1
f 129/129/5 130/130/5 131/131/5
f 132/132/5 133/133/5 134/134/5
f 135/135/16 136/136/17 137/137/4
f 138/138/4 139/139/18 140/140/5
f 141/141/19 142/142/20 143/143/5
f 143/143/5 142/142/20 144/144/5
f 144/144/5 130/130/5 129/129/5
f 145/145/5 130/130/5 142/142/20
f 146/146/5 147/147/5 148/148/5
f 149/149/18 150/150/21 151/151/5
f 127/127/1 115/115/1 124/124/1
f 9/9/2 8/8/2 152/152/2
f 5/5/2 10/10/2 153/153/2
f 154/154/5 131/131/5 134/134/5
f 155/155/5 129/129/5 154/154/5
f 119/119/1 156/156/22 157/157/1
f 113/113/1 118/118/1 128/128/1
f 118/118/1 157/157/1 116/116/1
f 95/95/2 158/158/2 159/159/2
f 160/160/5 144/144/5 155/155/5
f 94/94/2 158/158/2 95/95/2
f 127/127/1 161/161/1 113/113/1
f 139/139/18 143/143/5 160/160/5
f 156/156/22 122/122/14 162/162/4
f 30/30/5 163/163/5 33/33/5
f 30/30/5 164/164/5 31/31/5
f 165/165/6 65/65/6 66/66/6
f 60/60/6 64/64/6 166/166/6
f 64/64/6 167/167/6 62/62/6
f 136/136/17 141/141/19 137/137/4
f 162/162/4 123/123/15 108/108/9
f 149/149/18 137/137/4 138/138/4
f 136/136/17 148/148/5 147/147/5
f 109/109/10 121/121/13 110/110/1
f 109/109/10 168/168/1 106/106/7
f 153/153/2 12/12/2 169/169/2
f 170/170/1 88/88/1 85/85/1
f 171/171/5 148/148/5 151/151/5
f 172/172/5 131/131/5 130/130/5
f 173/173/6 44/44/6 43/43/6
f 44/44/6 48/48/6 45/45/6
f 174/174/1 88/88/1 87/87/1
f 175/175/5 155/155/5 154/154/5
f 33/33/5 176/176/5 30/30/5
f 135/135/16 151/151/5 148/148/5
f 177/177/5 151/151/5 150/150/21
f 46/46/6 47/47/6 178/178/6
f 40/40/6 173/173/6 41/41/6
f 179/179/5 134/134/5 131/131/5
f 175/175/5 134/134/5 133/133/5
f 124/124/1 180/180/1 127/127/1
f 124/124/1 117/117/1 125/125/1
f 181/181/2 153/153/2 169/169/2
f 8/8/2 7/7/2 152/152/2
f 5/5/2 181/181/2 182/182/2
f 157/157/1 183/183/1 184/184/1
f 128/128/1 116/116/1 115/115/1
f 116/116/1 184/184/1 117/117/1
f 158/158/2 99/99/2 159/159/2
f 185/185/5 155/155/5 175/175/5
f 140/140/5 160/160/5 185/185/5
f 186/186/2 98/98/2 158/158/2
f 33/33/5 187/187/5 34/34/5
f 183/183/1 156/156/22 162/162/4
f 183/183/1 108/108/9 107/107/8
f 188/188/6 167/167/6 165/165/6
f 166/166/6 62/62/6 61/61/6
f 63/63/6 167/167/6 189/189/6
f 137/137/4 139/139/18 138/138/4
f 150/150/21 138/138/4 140/140/5
f 190/190/1 85/85/1 84/84/1
f 106/106/7 123/123/15 109/109/10
f 106/106/7 191/191/1 107/107/8
f 192/192/1 85/85/1 88/88/1
f 5/5/2 182/182/2 6/6/2
f 10/10/2 9/9/2 11/11/2
f 97/97/2 101/101/2 99/99/2
f 120/120/12 112/112/11 121/121/13
f 144/144/5 142/142/20 130/130/5
f 127/127/1 128/128/1 115/115/1
f 5/5/2 8/8/2 10/10/2
f 154/154/5 129/129/5 131/131/5
f 155/155/5 144/144/5 129/129/5
f 119/119/1 120/120/12 156/156/22
f 113/113/1 112/112/11 118/118/1
f 118/118/1 119/119/1 157/157/1
f 160/160/5 143/143/5 144/144/5
f 94/94/2 186/186/2 158/158/2
f 127/127/1 180/180/1 161/161/1
f 139/139/18 141/141/19 143/143/5
f 156/156/22 120/120/12 122/122/14
f 30/30/5 32/32/5 163/163/5
f 30/30/5 176/176/5 164/164/5
f 165/165/6 167/167/6 65/65/6
f 60/60/6 59/59/6 64/64/6
f 64/64/6 65/65/6 167/167/6
f 136/136/17 142/142/20 141/141/19
f 162/162/4 122/122/14 123/123/15
f 149/149/18 135/135/16 137/137/4
f 136/136/17 135/135/16 148/148/5
f 109/109/10 123/123/15 121/121/13
f 109/109/10 111/111/1 168/168/1
f 153/153/2 10/10/2 12/12/2
f 170/170/1 86/86/1 88/88/1
f 171/171/5 146/146/5 148/148/5
f 172/172/5 179/179/5 131/131/5
f 173/173/6 46/46/6 44/44/6
f 44/44/6 193/193/6 48/48/6
f 174/174/1 192/192/1 88/88/1
f 33/33/5 35/35/5 176/176/5
f 135/135/16 149/149/18 151/151/5
f 177/177/5 171/171/5 151/151/5
f 193/193/6 44/44/6 178/178/6
f 44/44/6 46/46/6 178/178/6
f 40/40/6 46/46/6 173/173/6
f 179/179/5 132/132/5 134/134/5
f 175/175/5 154/154/5 134/134/5
f 124/124/1 126/126/1 180/180/1
f 124/124/1 115/115/1 117/117/1
f 8/8/2 5/5/2 7/7/2
f 5/5/2 153/153/2 181/181/2
f 157/157/1 156/156/22 183/183/1
f 128/128/1 118/118/1 116/116/1
f 116/116/1 157/157/1 184/184/1
f 158/158/2 98/98/2 99/99/2
f 185/185/5 160/160/5 155/155/5
f 140/140/5 139/139/18 160/160/5
f 186/186/2 96/96/2 98/98/2
f 33/33/5 163/163/5 187/187/5
f 183/183/1 162/162/4 108/108/9
f 188/188/6 189/189/6 167/167/6
f 166/166/6 64/64/6 62/62/6
f 63/63/6 62/62/6 167/167/6
f 137/137/4 141/141/19 139/139/18
f 150/150/21 149/149/18 138/138/4
f 190/190/1 170/170/1 85/85/1
f 106/106/7 108/108/9 123/123/15
f 106/106/7 168/168/1 191/191/1
f 192/192/1 83/83/1 85/85/1