# Blender v3.0.1 OBJ File: ''
# www.blender.org
mtllib 01.mtl
o model.016_model.059
v -0.695662 -0.038802 -0.390790
v -0.784352 -0.038802 0.390790
v -0.784352 -0.038802 -0.390790
v -0.695662 -0.038802 0.390790
v 0.695662 -0.038802 -0.390790
v 0.695662 -0.038802 0.390790
v 0.784352 -0.038802 -0.390790
v 0.784352 -0.038802 0.390790
v -0.695662 -0.016629 0.390790
v -0.784352 -0.016629 -0.390790
v -0.784352 -0.016629 0.390790
v -0.695662 -0.016629 -0.390790
v 0.695662 -0.016629 0.390790
v 0.695662 -0.016629 -0.390790
v 0.784352 -0.016629 0.390790
v 0.784352 -0.016629 -0.390790
v -0.695662 -0.016629 -0.390790
v 0.695662 -0.038802 -0.390790
v -0.695662 -0.038802 -0.390790
v 0.695662 -0.016629 -0.390790
v 0.695662 -0.016629 0.390790
v -0.695662 -0.038802 0.390790
v 0.695662 -0.038802 0.390790
v -0.695662 -0.016629 0.390790
v 0.784352 -0.038802 0.390790
v 0.784352 -0.038802 -0.390790
v 0.695662 -0.038802 0.390790
v 0.695662 -0.038802 -0.390790
v -0.695662 -0.038802 0.390790
v -0.695662 -0.038802 -0.390790
v -0.784352 -0.038802 0.390790
v -0.784352 -0.038802 -0.390790
v 0.784352 -0.016629 -0.390790
v 0.784352 -0.016629 0.390790
v 0.695662 -0.016629 -0.390790
v 0.695662 -0.016629 0.390790
v -0.695662 -0.016629 -0.390790
v -0.695662 -0.016629 0.390790
v -0.784352 -0.016629 -0.390790
v -0.784352 -0.016629 0.390790
v 0.695662 -0.016629 -0.390790
v -0.695662 -0.016629 -0.390790
v 0.695662 -0.038802 -0.390790
v -0.695662 -0.038802 -0.390790
v -0.695662 -0.016629 0.390790
v 0.695662 -0.016629 0.390790
v -0.695662 -0.038802 0.390790
v 0.695662 -0.038802 0.390790
v 0.784352 -0.016651 0.390042
v 0.784352 -0.016629 -0.387546
v 0.784352 -0.016629 0.390042
v -0.784352 -0.038781 0.390042
v -0.784352 -0.038802 -0.387546
v -0.784352 -0.038802 0.390042
v 0.784352 -0.038802 0.390042
v 0.784352 -0.038710 -0.387546
v 0.784352 -0.038802 -0.387546
v -0.784352 -0.016629 0.390042
v -0.784352 -0.016721 -0.387546
v -0.784352 -0.016629 -0.387546
v 0.784352 -0.038710 -0.387546
v 0.784352 -0.038802 0.390042
v 0.784352 -0.038802 -0.387546
v -0.784352 -0.016721 -0.387546
v -0.784352 -0.016629 0.390042
v -0.784352 -0.016629 -0.387546
v 0.784352 -0.016629 -0.387546
v 0.784352 -0.016651 0.390042
v 0.784352 -0.016629 0.390042
v -0.784352 -0.038802 -0.387546
v -0.784352 -0.038781 0.390042
v -0.784352 -0.038802 0.390042
vt 0.000000 0.000000
vt 0.000000 0.000000
vt 0.000000 0.000000
vt 0.000000 0.000000
vt 0.000000 0.000000
vt 0.000000 0.000000
vt 0.000000 0.000000
vt 0.000000 0.000000
vt 0.000000 0.000000
vt 0.000000 0.000000
vt 0.000000 0.000000
vt 0.000000 0.000000
vt 0.000000 0.000000
vt 0.000000 0.000000
vt 0.000000 0.000000
vt 0.000000 0.000000
vt 0.000000 0.000000
vt 0.000000 0.000000
vt 0.000000 0.000000
vt 0.000000 0.000000
vt 0.000000 0.000000
vt 0.000000 0.000000
vt 0.000000 0.000000
vt 0.000000 0.000000
vt 0.000000 0.000000
vt 0.000000 0.000000
vt 0.000000 0.000000
vt 0.000000 0.000000
vt 0.000000 0.000000
vt 0.000000 0.000000
vt 0.000000 0.000000
vt 0.000000 0.000000
vt 0.000000 0.000000
vt 0.000000 0.000000
vt 0.000000 0.000000
vt 0.000000 0.000000
vt 0.000000 0.000000
vt 0.000000 0.000000
vt 0.000000 0.000000
vt 0.000000 0.000000
vt 0.000000 0.000000
vt 0.000000 0.000000
vt 0.000000 0.000000
vt 0.000000 0.000000
vt 0.000000 0.000000
vt 0.000000 0.000000
vt 0.000000 0.000000
vt 0.000000 0.000000
vt 0.000000 0.000000
vt 0.000000 0.000000
vt 0.000000 0.000000
vt 0.000000 0.000000
vt 0.000000 0.000000
vt 0.000000 0.000000
vt 0.000000 0.000000
vt 0.000000 0.000000
vt 0.000000 0.000000
vt 0.000000 0.000000
vt 0.000000 0.000000
vt 0.000000 0.000000
vt 0.000000 0.000000
vt 0.000000 0.000000
vt 0.000000 0.000000
vt 0.000000 0.000000
vt 0.000000 0.000000
vt 0.000000 0.000000
vt 0.000000 0.000000
vt 0.000000 0.000000
vt 0.000000 0.000000
vt 0.000000 0.000000
vt 0.000000 0.000000
vt 0.000000 0.000000
vn 0.0000 -1.0000 -0.0000
vn 0.0000 1.0000 0.0000
vn 0.0000 0.0000 -1.0000
vn 0.0000 0.0000 1.0000
vn 0.6771 0.0000 -0.7359
vn 1.0000 0.0000 0.0000
vn -0.6721 0.7404 0.0000
vn -1.0000 0.0000 0.0000
vn -0.8518 -0.4537 0.2619
vn 0.8495 -0.0000 0.5276
vn 0.8518 0.2619 0.4536
vn 0.2249 0.9744 -0.0000
vn 0.2249 -0.0000 0.9744
vn -0.8495 -0.5276 0.0000
vn -0.5888 -0.4041 -0.7000
vn -0.5888 -0.7000 0.4041
vn -0.4512 -0.7729 0.4462
vn -0.6771 0.5204 -0.5203
vn -0.4512 -0.4462 -0.7729
vn 0.4432 -0.0000 0.8964
vn 0.6721 0.5235 -0.5236
vn 0.4432 0.8964 -0.0000
usemtl material_0.172
s 1
f 1/1/1 2/2/1 3/3/1
f 2/2/1 1/1/1 4/4/1
f 4/4/1 1/1/1 5/5/1
f 4/4/1 5/5/1 6/6/1
f 6/6/1 5/5/1 7/7/1
f 6/6/1 7/7/1 8/8/1
f 9/9/2 10/10/2 11/11/2
f 10/10/2 9/9/2 12/12/2
f 12/12/2 9/9/2 13/13/2
f 12/12/2 13/13/2 14/14/2
f 14/14/2 13/13/2 15/15/2
f 14/14/2 15/15/2 16/16/2
f 17/17/3 18/18/3 19/19/3
f 18/18/3 17/17/3 20/20/3
f 21/21/4 22/22/4 23/23/4
f 22/22/4 21/21/4 24/24/4
f 25/25/2 26/26/2 27/27/2
f 26/26/2 28/28/2 27/27/2
f 27/27/2 28/28/2 29/29/2
f 28/28/2 30/30/2 29/29/2
f 29/29/2 30/30/2 31/31/2
f 32/32/2 31/31/2 30/30/2
f 33/33/1 34/34/1 35/35/1
f 34/34/1 36/36/1 35/35/1
f 35/35/1 36/36/1 37/37/1
f 36/36/1 38/38/1 37/37/1
f 37/37/1 38/38/1 39/39/1
f 40/40/1 39/39/1 38/38/1
f 41/41/4 42/42/4 43/43/4
f 44/44/4 43/43/4 42/42/4
f 45/45/3 46/46/3 47/47/3
f 48/48/3 47/47/3 46/46/3
f 49/49/5 50/50/6 51/51/6
f 52/52/7 53/53/8 54/54/8
f 55/55/8 56/56/9 57/57/8
f 58/58/6 59/59/10 60/60/6
f 61/61/11 62/62/12 63/63/13
f 64/64/14 65/65/15 66/66/16
f 67/67/17 68/68/18 69/69/19
f 70/70/20 71/71/21 72/72/22
f 49/49/5 61/61/11 50/50/6
f 52/52/7 64/64/14 53/53/8
f 55/55/8 68/68/18 56/56/9
f 58/58/6 71/71/21 59/59/10
f 61/61/11 49/49/5 62/62/12
f 64/64/14 52/52/7 65/65/15
f 67/67/17 56/56/9 68/68/18
f 70/70/20 59/59/10 71/71/21