# Blender v3.0.1 OBJ File: ''
# www.blender.org
mtllib 02.mtl
o model.001_model.085
v -0.784352 0.304872 0.390790
v -0.784352 -0.393562 0.479480
v -0.784352 0.304872 0.479480
v -0.784352 -0.393562 0.390790
v -0.784352 -0.016629 0.390790
v -0.784352 -0.038802 0.390790
v -0.784352 -0.038781 0.390042
v -0.784352 -0.016629 0.390042
v -0.695662 0.304872 0.479480
v -0.784352 -0.393562 0.479480
v -0.695662 -0.393562 0.479480
v -0.784352 0.304872 0.479480
v -0.695662 -0.393562 0.390790
v -0.695662 0.304872 0.479480
v -0.695662 -0.393562 0.479480
v -0.695662 0.304872 0.390790
v -0.695662 -0.038802 0.390790
v -0.695662 -0.016629 0.390790
v -0.784352 -0.038802 0.390790
v -0.784352 -0.016629 0.390790
v -0.784352 -0.393562 0.390790
v -0.784352 0.304872 0.390790
v -0.784352 -0.393562 0.479480
v -0.784352 0.304872 0.479480
v -0.784352 -0.038802 0.390042
v -0.784352 -0.038781 0.390042
v -0.784352 0.304872 0.479480
v -0.695662 0.304872 0.479480
v -0.784352 -0.393562 0.479480
v -0.695662 -0.393562 0.479480
v -0.695662 -0.016629 0.390790
v -0.695662 -0.038802 0.390790
v -0.695662 0.304872 0.390790
v -0.695662 -0.393562 0.390790
v -0.695662 0.304872 0.479480
v -0.695662 -0.393562 0.479480
v -0.695662 -0.393562 0.390790
v -0.784352 -0.393562 0.479480
v -0.784352 -0.393562 0.390790
v -0.695662 -0.393562 0.479480
v -0.695662 -0.393562 0.479480
v -0.695662 -0.393562 0.390790
v -0.784352 -0.393562 0.479480
v -0.784352 -0.393562 0.390790
v -0.695662 -0.038802 0.390790
v -0.784352 -0.393562 0.390790
v -0.695662 -0.393562 0.390790
v -0.784352 -0.038802 0.390790
v -0.695662 -0.016629 0.390790
v -0.784352 -0.016629 0.390790
v -0.784352 -0.016629 0.390790
v -0.695662 -0.016629 0.390790
v -0.784352 -0.038802 0.390790
v -0.695662 -0.038802 0.390790
v -0.784352 -0.393562 0.390790
v -0.695662 -0.393562 0.390790
v -0.695662 0.304872 0.390790
v -0.784352 0.304872 0.390790
v -0.784352 0.304872 0.390790
v -0.695662 0.304872 0.390790
v -0.784352 -0.038802 0.390042
v -0.784352 -0.016629 0.390042
vt 0.000000 0.000000
vt 0.000000 0.000000
vt 0.000000 0.000000
vt 0.000000 0.000000
vt 0.000000 0.000000
vt 0.000000 0.000000
vt 0.000000 0.000000
vt 0.000000 0.000000
vt 0.000000 0.000000
vt 0.000000 0.000000
vt 0.000000 0.000000
vt 0.000000 0.000000
vt 0.000000 0.000000
vt 0.000000 0.000000
vt 0.000000 0.000000
vt 0.000000 0.000000
vt 0.000000 0.000000
vt 0.000000 0.000000
vt 0.000000 0.000000
vt 0.000000 0.000000
vt 0.000000 0.000000
vt 0.000000 0.000000
vt 0.000000 0.000000
vt 0.000000 0.000000
vt 0.000000 0.000000
vt 0.000000 0.000000
vt 0.000000 0.000000
vt 0.000000 0.000000
vt 0.000000 0.000000
vt 0.000000 0.000000
vt 0.000000 0.000000
vt 0.000000 0.000000
vt 0.000000 0.000000
vt 0.000000 0.000000
vt 0.000000 0.000000
vt 0.000000 0.000000
vt 21.643221 2.311931
vt 21.976549 1.978597
vt 21.976549 2.311931
vt 21.643221 1.978597
vt 0.000000 0.000000
vt 0.000000 0.000000
vt 0.000000 0.000000
vt 0.000000 0.000000
vt 0.000000 0.000000
vt 0.000000 0.000000
vt 0.000000 0.000000
vt 0.000000 0.000000
vt 0.000000 0.000000
vt 0.000000 0.000000
vt 0.000000 0.000000
vt 0.000000 0.000000
vt 0.000000 0.000000
vt 0.000000 0.000000
vt 0.000000 0.000000
vt 0.000000 0.000000
vt 0.000000 0.000000
vt 0.000000 0.000000
vt 0.000000 0.000000
vt 0.000000 0.000000
vt 0.000000 0.000000
vt 0.000000 0.000000
vn -1.0000 0.0000 0.0002
vn -1.0000 -0.0000 0.0000
vn 0.3945 -0.8188 -0.4172
vn -0.4432 -0.8964 -0.0000
vn -0.6721 -0.7404 0.0000
vn -0.5888 -0.7000 0.4041
vn 0.0000 -0.0000 1.0000
vn 1.0000 -0.0000 0.0000
vn 0.2706 -0.2706 -0.9239
vn 0.0000 -1.0000 -0.0000
vn 0.0302 -0.9977 0.0604
vn -0.3945 -0.8188 -0.4172
vn 1.0000 -0.0000 0.0002
vn 0.4432 -0.0000 0.8964
vn 0.6721 -0.5235 0.5236
vn 0.0000 0.0000 -1.0000
vn -0.0000 1.0000 0.0000
vn -0.0000 0.9812 0.1927
usemtl material_0.174
s 1
f 1/1/1 2/2/2 3/3/2
f 2/2/2 1/1/1 4/4/2
f 4/4/2 1/1/1 5/5/3
f 4/4/2 5/5/3 6/6/4
f 7/7/5 5/5/3 8/8/6
f 9/9/7 10/10/7 11/11/7
f 10/10/7 9/9/7 12/12/7
f 13/13/8 14/14/8 15/15/8
f 14/14/8 13/13/8 16/16/8
f 16/16/8 13/13/8 17/17/9
f 16/16/8 17/17/9 18/18/10
f 19/19/11 20/20/12 21/21/8
f 20/20/12 22/22/13 21/21/8
f 21/21/8 22/22/13 23/23/8
f 24/24/8 23/23/8 22/22/13
f 25/25/14 26/26/15 19/19/11
f 27/27/16 28/28/16 29/29/16
f 30/30/16 29/29/16 28/28/16
f 31/31/17 32/32/18 33/33/1
f 32/32/18 34/34/2 33/33/1
f 33/33/1 34/34/2 35/35/2
f 36/36/2 35/35/2 34/34/2
f 37/37/10 38/38/10 39/39/10
f 38/38/10 37/37/10 40/40/10
f 41/41/17 42/42/17 43/43/17
f 44/44/17 43/43/17 42/42/17
f 45/45/7 46/46/7 47/47/7
f 46/46/7 45/45/7 48/48/7
f 48/48/7 45/45/7 49/49/7
f 48/48/7 49/49/7 50/50/7
f 51/51/16 52/52/16 53/53/16
f 52/52/16 54/54/16 53/53/16
f 53/53/16 54/54/16 55/55/16
f 56/56/16 55/55/16 54/54/16
f 57/57/7 50/50/7 49/49/7
f 50/50/7 57/57/7 58/58/7
f 59/59/16 60/60/16 51/51/16
f 52/52/16 51/51/16 60/60/16
f 6/6/4 7/7/5 61/61/2
f 20/20/12 26/26/15 62/62/8
f 7/7/5 6/6/4 5/5/3
f 20/20/12 19/19/11 26/26/15