# Blender v3.0.1 OBJ File: ''
# www.blender.org
mtllib 03.mtl
o model.002_model.086
v 0.784352 0.304872 0.479480
v 0.695662 -0.393562 0.479480
v 0.784352 -0.393562 0.479480
v 0.695662 0.304872 0.479480
v 0.784352 -0.393562 0.390790
v 0.784352 0.304872 0.479480
v 0.784352 -0.393562 0.479480
v 0.784352 0.304872 0.390790
v 0.784352 -0.038802 0.390790
v 0.784352 -0.016629 0.390790
v 0.695662 0.304872 0.390790
v 0.695662 -0.393562 0.479480
v 0.695662 0.304872 0.479480
v 0.695662 -0.393562 0.390790
v 0.695662 -0.016629 0.390790
v 0.695662 -0.038802 0.390790
v 0.784352 -0.016651 0.390042
v 0.784352 -0.038802 0.390042
v 0.695662 0.304872 0.479480
v 0.784352 0.304872 0.479480
v 0.695662 -0.393562 0.479480
v 0.784352 -0.393562 0.479480
v 0.784352 -0.016629 0.390790
v 0.784352 -0.038802 0.390790
v 0.784352 0.304872 0.390790
v 0.784352 -0.393562 0.390790
v 0.784352 0.304872 0.479480
v 0.784352 -0.393562 0.479480
v 0.695662 -0.038802 0.390790
v 0.695662 -0.016629 0.390790
v 0.695662 -0.393562 0.390790
v 0.695662 0.304872 0.390790
v 0.695662 -0.393562 0.479480
v 0.695662 0.304872 0.479480
v 0.784352 -0.016629 0.390042
v 0.784352 -0.016651 0.390042
v 0.784352 -0.393562 0.390790
v 0.695662 -0.393562 0.479480
v 0.695662 -0.393562 0.390790
v 0.784352 -0.393562 0.479480
v 0.784352 -0.393562 0.479480
v 0.784352 -0.393562 0.390790
v 0.695662 -0.393562 0.479480
v 0.695662 -0.393562 0.390790
v 0.784352 -0.038802 0.390790
v 0.695662 -0.393562 0.390790
v 0.784352 -0.393562 0.390790
v 0.695662 -0.038802 0.390790
v 0.784352 -0.016629 0.390790
v 0.695662 -0.016629 0.390790
v 0.695662 -0.016629 0.390790
v 0.784352 -0.016629 0.390790
v 0.695662 -0.038802 0.390790
v 0.784352 -0.038802 0.390790
v 0.695662 -0.393562 0.390790
v 0.784352 -0.393562 0.390790
v 0.784352 0.304872 0.390790
v 0.695662 0.304872 0.390790
v 0.695662 0.304872 0.390790
v 0.784352 0.304872 0.390790
v 0.784352 -0.016629 0.390042
v 0.784352 -0.038802 0.390042
vt 0.000000 0.000000
vt 0.000000 0.000000
vt 0.000000 0.000000
vt 0.000000 0.000000
vt 0.000000 0.000000
vt 0.000000 0.000000
vt 0.000000 0.000000
vt 0.000000 0.000000
vt 0.000000 0.000000
vt 0.000000 0.000000
vt 0.000000 0.000000
vt 0.000000 0.000000
vt 0.000000 0.000000
vt 0.000000 0.000000
vt 0.000000 0.000000
vt 0.000000 0.000000
vt 0.000000 0.000000
vt 0.000000 0.000000
vt 0.000000 0.000000
vt 0.000000 0.000000
vt 0.000000 0.000000
vt 0.000000 0.000000
vt 0.000000 0.000000
vt 0.000000 0.000000
vt 0.000000 0.000000
vt 0.000000 0.000000
vt 0.000000 0.000000
vt 0.000000 0.000000
vt 0.000000 0.000000
vt 0.000000 0.000000
vt 0.000000 0.000000
vt 0.000000 0.000000
vt 0.000000 0.000000
vt 0.000000 0.000000
vt 0.000000 0.000000
vt 0.000000 0.000000
vt 18.372391 2.311931
vt 18.705721 1.978597
vt 18.705721 2.311931
vt 18.372391 1.978597
vt 0.000000 0.000000
vt 0.000000 0.000000
vt 0.000000 0.000000
vt 0.000000 0.000000
vt 0.000000 0.000000
vt 0.000000 0.000000
vt 0.000000 0.000000
vt 0.000000 0.000000
vt 0.000000 0.000000
vt 0.000000 0.000000
vt 0.000000 0.000000
vt 0.000000 0.000000
vt 0.000000 0.000000
vt 0.000000 0.000000
vt 0.000000 0.000000
vt 0.000000 0.000000
vt 0.000000 0.000000
vt 0.000000 0.000000
vt 0.000000 0.000000
vt 0.000000 0.000000
vt 0.000000 0.000000
vt 0.000000 0.000000
vn 0.0000 -0.0000 1.0000
vn 1.0000 -0.0000 0.0000
vn 0.0388 -0.9286 -0.3689
vn 0.4512 -0.8924 -0.0003
vn -1.0000 -0.0000 0.0002
vn -1.0000 0.0000 0.0000
vn -0.2706 0.2706 -0.9239
vn -0.0000 1.0000 0.0000
vn 0.6771 -0.0000 0.7359
vn 0.2249 -0.0000 0.9744
vn 0.0000 0.0000 -1.0000
vn -0.0356 -0.9968 0.0712
vn -0.0321 -0.9271 -0.3734
vn 0.0000 -1.0000 -0.0000
vn 0.2706 -0.2706 -0.9239
vn 1.0000 0.0000 0.0002
vn -0.4512 -0.7729 0.4462
vn -0.6771 -0.5204 0.5203
usemtl material_0.175
s 1
f 1/1/1 2/2/1 3/3/1
f 2/2/1 1/1/1 4/4/1
f 5/5/2 6/6/2 7/7/2
f 6/6/2 5/5/2 8/8/2
f 8/8/2 5/5/2 9/9/3
f 8/8/2 9/9/3 10/10/4
f 11/11/5 12/12/6 13/13/6
f 12/12/6 11/11/5 14/14/6
f 14/14/6 11/11/5 15/15/7
f 14/14/6 15/15/7 16/16/8
f 17/17/9 9/9/3 18/18/10
f 19/19/11 20/20/11 21/21/11
f 22/22/11 21/21/11 20/20/11
f 23/23/12 24/24/13 25/25/5
f 24/24/13 26/26/6 25/25/5
f 25/25/5 26/26/6 27/27/6
f 28/28/6 27/27/6 26/26/6
f 29/29/14 30/30/15 31/31/2
f 30/30/15 32/32/16 31/31/2
f 31/31/2 32/32/16 33/33/2
f 34/34/2 33/33/2 32/32/16
f 35/35/17 36/36/18 23/23/12
f 37/37/14 38/38/14 39/39/14
f 38/38/14 37/37/14 40/40/14
f 41/41/8 42/42/8 43/43/8
f 44/44/8 43/43/8 42/42/8
f 45/45/1 46/46/1 47/47/1
f 46/46/1 45/45/1 48/48/1
f 48/48/1 45/45/1 49/49/1
f 48/48/1 49/49/1 50/50/1
f 51/51/11 52/52/11 53/53/11
f 52/52/11 54/54/11 53/53/11
f 53/53/11 54/54/11 55/55/11
f 56/56/11 55/55/11 54/54/11
f 57/57/1 50/50/1 49/49/1
f 50/50/1 57/57/1 58/58/1
f 59/59/11 60/60/11 51/51/11
f 52/52/11 51/51/11 60/60/11
f 10/10/4 17/17/9 61/61/2
f 24/24/13 36/36/18 62/62/6
f 17/17/9 10/10/4 9/9/3
f 24/24/13 23/23/12 36/36/18