# Blender v3.0.1 OBJ File: ''
# www.blender.org
mtllib 04.mtl
o model.003_model.087
v 0.695662 0.304872 -0.479480
v 0.784352 -0.393562 -0.479480
v 0.695662 -0.393562 -0.479480
v 0.784352 0.304872 -0.479480
v 0.695662 0.304872 -0.479480
v 0.695662 -0.016629 -0.390790
v 0.695662 0.304872 -0.390790
v 0.695662 -0.038802 -0.390790
v 0.695662 -0.393562 -0.390790
v 0.695662 -0.393562 -0.479480
v 0.784352 -0.393562 -0.479480
v 0.784352 -0.038802 -0.390790
v 0.784352 -0.393562 -0.390790
v 0.784352 -0.016629 -0.390790
v 0.784352 0.304872 -0.390790
v 0.784352 0.304872 -0.479480
v 0.784352 -0.038710 -0.387545
v 0.784352 -0.016629 -0.387545
v 0.784352 0.304872 -0.479480
v 0.695662 0.304872 -0.479480
v 0.784352 -0.393562 -0.479480
v 0.695662 -0.393562 -0.479480
v 0.695662 -0.393562 -0.479480
v 0.695662 0.304872 -0.479480
v 0.695662 -0.393562 -0.390790
v 0.695662 -0.038802 -0.390790
v 0.695662 -0.016629 -0.390790
v 0.695662 0.304872 -0.390790
v 0.784352 0.304872 -0.479480
v 0.784352 -0.393562 -0.479480
v 0.784352 0.304872 -0.390790
v 0.784352 -0.016629 -0.390790
v 0.784352 -0.038802 -0.390790
v 0.784352 -0.393562 -0.390790
v 0.784352 -0.038802 -0.387545
v 0.784352 -0.038710 -0.387545
v 0.784352 -0.393562 -0.479480
v 0.695662 -0.393562 -0.390790
v 0.695662 -0.393562 -0.479480
v 0.784352 -0.393562 -0.390790
v 0.784352 -0.393562 -0.390790
v 0.784352 -0.393562 -0.479480
v 0.695662 -0.393562 -0.390790
v 0.695662 -0.393562 -0.479480
v 0.695662 0.304872 -0.390790
v 0.784352 -0.016629 -0.390790
v 0.695662 -0.016629 -0.390790
v 0.784352 0.304872 -0.390790
v 0.784352 0.304872 -0.390790
v 0.695662 0.304872 -0.390790
v 0.784352 -0.016629 -0.390790
v 0.695662 -0.016629 -0.390790
v 0.695662 -0.038802 -0.390790
v 0.784352 -0.393562 -0.390790
v 0.695662 -0.393562 -0.390790
v 0.784352 -0.038802 -0.390790
v 0.784352 -0.038802 -0.390790
v 0.695662 -0.038802 -0.390790
v 0.784352 -0.393562 -0.390790
v 0.695662 -0.393562 -0.390790
v 0.784352 -0.038802 -0.387545
v 0.784352 -0.016629 -0.387545
vt 0.000000 0.000000
vt 0.000000 0.000000
vt 0.000000 0.000000
vt 0.000000 0.000000
vt 0.000000 0.000000
vt 0.000000 0.000000
vt 0.000000 0.000000
vt 0.000000 0.000000
vt 0.000000 0.000000
vt 0.000000 0.000000
vt 0.000000 0.000000
vt 0.000000 0.000000
vt 0.000000 0.000000
vt 0.000000 0.000000
vt 0.000000 0.000000
vt 0.000000 0.000000
vt 0.000000 0.000000
vt 0.000000 0.000000
vt 0.000000 0.000000
vt 0.000000 0.000000
vt 0.000000 0.000000
vt 0.000000 0.000000
vt 0.000000 0.000000
vt 0.000000 0.000000
vt 0.000000 0.000000
vt 0.000000 0.000000
vt 0.000000 0.000000
vt 0.000000 0.000000
vt 0.000000 0.000000
vt 0.000000 0.000000
vt 0.000000 0.000000
vt 0.000000 0.000000
vt 0.000000 0.000000
vt 0.000000 0.000000
vt 0.000000 0.000000
vt 0.000000 0.000000
vt 18.372391 5.582764
vt 18.705721 5.249431
vt 18.705721 5.582764
vt 18.372391 5.249431
vt 0.000000 0.000000
vt 0.000000 0.000000
vt 0.000000 0.000000
vt 0.000000 0.000000
vt 0.000000 0.000000
vt 0.000000 0.000000
vt 0.000000 0.000000
vt 0.000000 0.000000
vt 0.000000 0.000000
vt 0.000000 0.000000
vt 0.000000 0.000000
vt 0.000000 0.000000
vt 0.000000 0.000000
vt 0.000000 0.000000
vt 0.000000 0.000000
vt 0.000000 0.000000
vt 0.000000 0.000000
vt 0.000000 0.000000
vt 0.000000 0.000000
vt 0.000000 0.000000
vt 0.000000 0.000000
vt 0.000000 0.000000
vn 0.0000 0.0000 -1.0000
vn -1.0000 -0.0000 0.0000
vn 1.0000 -0.0000 0.0000
vn 0.8518 -0.2619 -0.4536
vn 0.0000 -0.0000 1.0000
vn -0.8518 0.4537 -0.2619
vn 0.0000 -1.0000 -0.0000
vn 0.0000 1.0000 0.0000
vn 0.2249 0.9744 0.0000
vn -0.4512 -0.4462 -0.7729
usemtl material_0.170
s 1
f 1/1/1 2/2/1 3/3/1
f 2/2/1 1/1/1 4/4/1
f 5/5/2 6/6/2 7/7/2
f 6/6/2 5/5/2 8/8/2
f 8/8/2 5/5/2 9/9/2
f 9/9/2 5/5/2 10/10/2
f 11/11/3 12/12/3 13/13/3
f 12/12/3 11/11/3 14/14/3
f 14/14/3 11/11/3 15/15/3
f 15/15/3 11/11/3 16/16/3
f 17/17/4 14/14/3 18/18/3
f 19/19/5 20/20/5 21/21/5
f 22/22/5 21/21/5 20/20/5
f 23/23/3 24/24/3 25/25/3
f 25/25/3 24/24/3 26/26/3
f 26/26/3 24/24/3 27/27/3
f 28/28/3 27/27/3 24/24/3
f 29/29/2 30/30/2 31/31/2
f 31/31/2 30/30/2 32/32/2
f 32/32/2 30/30/2 33/33/2
f 34/34/2 33/33/2 30/30/2
f 35/35/2 36/36/6 33/33/2
f 37/37/7 38/38/7 39/39/7
f 38/38/7 37/37/7 40/40/7
f 41/41/8 42/42/8 43/43/8
f 44/44/8 43/43/8 42/42/8
f 45/45/1 46/46/1 47/47/1
f 46/46/1 45/45/1 48/48/1
f 49/49/5 50/50/5 51/51/5
f 52/52/5 51/51/5 50/50/5
f 53/53/1 54/54/1 55/55/1
f 54/54/1 53/53/1 56/56/1
f 56/56/1 53/53/1 47/47/1
f 56/56/1 47/47/1 46/46/1
f 51/51/5 52/52/5 57/57/5
f 52/52/5 58/58/5 57/57/5
f 57/57/5 58/58/5 59/59/5
f 60/60/5 59/59/5 58/58/5
f 12/12/3 17/17/4 61/61/9
f 32/32/2 36/36/6 62/62/10
f 17/17/4 12/12/3 14/14/3
f 32/32/2 33/33/2 36/36/6