# Blender v3.0.1 OBJ File: ''
# www.blender.org
mtllib 01.mtl
o model.008
v 0.691527 -0.389741 0.244219
v -0.688426 -0.388279 0.246124
v -0.688426 -0.389741 0.244219
v 0.691527 -0.388279 0.246124
v 0.691527 -0.390660 0.242001
v -0.688426 -0.390660 0.242001
v 0.691527 -0.386374 0.247586
v -0.688426 -0.386374 0.247586
v 0.691527 -0.390973 0.239621
v -0.688426 -0.390973 0.239621
v 0.691527 -0.384156 0.248505
v -0.688426 -0.384156 0.248505
v 0.691527 -0.390660 0.237240
v -0.688426 -0.390660 0.237240
v 0.691527 -0.381776 0.248818
v -0.688426 -0.381776 0.248818
v 0.691527 -0.389741 0.235022
v -0.688426 -0.389741 0.235022
v 0.691527 -0.379395 0.248505
v -0.688426 -0.379395 0.248505
v 0.691527 -0.388279 0.233117
v -0.688426 -0.388279 0.233117
v 0.691527 -0.377177 0.247586
v -0.688426 -0.377177 0.247586
v -0.688426 -0.386374 0.231656
v 0.691527 -0.386374 0.231656
v 0.691527 -0.375272 0.246124
v -0.688426 -0.375272 0.246124
v -0.688426 -0.384156 0.230737
v 0.691527 -0.384156 0.230737
v -0.688426 -0.373811 0.244219
v 0.691527 -0.373811 0.244219
v -0.688426 -0.381776 0.230423
v 0.691527 -0.381776 0.230423
v -0.688426 -0.372892 0.242001
v 0.691527 -0.372892 0.242001
v -0.688426 -0.379395 0.230737
v 0.691527 -0.379395 0.230737
v -0.688426 -0.372578 0.239621
v 0.691527 -0.372578 0.239621
v -0.688426 -0.377177 0.231656
v 0.691527 -0.377177 0.231656
v -0.688426 -0.372892 0.237240
v 0.691527 -0.372892 0.237240
v -0.688426 -0.375272 0.233117
v 0.691527 -0.375272 0.233117
v -0.688426 -0.373811 0.235022
v 0.691527 -0.373811 0.235022
v 0.691527 -0.388279 0.246124
v 0.691527 -0.389741 0.244219
v -0.688426 -0.388279 0.246124
v -0.688426 -0.389741 0.244219
v 0.691527 -0.390660 0.242001
v -0.688426 -0.390660 0.242001
v -0.688426 -0.386374 0.247586
v 0.691527 -0.386374 0.247586
v 0.691527 -0.390973 0.239621
v -0.688426 -0.390973 0.239621
v -0.688426 -0.384156 0.248505
v 0.691527 -0.384156 0.248505
v 0.691527 -0.390660 0.237240
v -0.688426 -0.390660 0.237240
v -0.688426 -0.381776 0.248818
v 0.691527 -0.381776 0.248818
v 0.691527 -0.389741 0.235022
v -0.688426 -0.389741 0.235022
v -0.688426 -0.379395 0.248505
v 0.691527 -0.379395 0.248505
v 0.691527 -0.388279 0.233117
v -0.688426 -0.388279 0.233117
v -0.688426 -0.377177 0.247586
v 0.691527 -0.377177 0.247586
v 0.691527 -0.386374 0.231656
v -0.688426 -0.386374 0.231656
v -0.688426 -0.375272 0.246124
v 0.691527 -0.375272 0.246124
v 0.691527 -0.384156 0.230737
v -0.688426 -0.384156 0.230737
v 0.691527 -0.373811 0.244219
v -0.688426 -0.373811 0.244219
v 0.691527 -0.381776 0.230423
v -0.688426 -0.381776 0.230423
v 0.691527 -0.372892 0.242001
v -0.688426 -0.372892 0.242001
v 0.691527 -0.379395 0.230737
v -0.688426 -0.379395 0.230737
v 0.691527 -0.372578 0.239621
v -0.688426 -0.372578 0.239621
v 0.691527 -0.377177 0.231656
v -0.688426 -0.377177 0.231656
v 0.691527 -0.372892 0.237240
v -0.688426 -0.372892 0.237240
v 0.691527 -0.375272 0.233117
v -0.688426 -0.375272 0.233117
v 0.691527 -0.373811 0.235022
v -0.688426 -0.373811 0.235022
vn 0.0000 -0.8433 0.5375
vn 0.0000 -0.7071 0.7071
vn 0.0000 -0.8871 0.4616
vn 0.0000 -0.9537 0.3009
vn 0.0000 -0.9763 0.2162
vn 0.0000 -0.5375 0.8433
vn -0.0000 -0.4616 0.8871
vn 0.0000 -0.9990 0.0438
vn 0.0000 -0.9990 -0.0438
vn 0.0000 -0.3009 0.9537
vn -0.0000 -0.2162 0.9763
vn 0.0000 -0.9763 -0.2162
vn 0.0000 -0.9537 -0.3009
vn 0.0000 -0.0438 0.9990
vn -0.0000 0.0438 0.9990
vn 0.0000 -0.8871 -0.4616
vn 0.0000 -0.8433 -0.5375
vn 0.0000 0.2162 0.9764
vn 0.0000 0.3009 0.9537
vn 0.0000 -0.7070 -0.7072
vn 0.0000 0.4616 0.8871
vn 0.0000 0.5375 0.8433
vn 0.0000 -0.5375 -0.8433
vn 0.0000 -0.4616 -0.8871
vn 0.0000 0.7072 0.7070
vn -0.0000 -0.3009 -0.9537
vn -0.0000 -0.2162 -0.9763
vn 0.0000 0.8433 0.5375
vn 0.0000 0.8871 0.4616
vn 0.0000 -0.0438 -0.9990
vn 0.0000 0.0438 -0.9990
vn 0.0000 0.9537 0.3009
vn 0.0000 0.9763 0.2162
vn 0.0000 0.2162 -0.9764
vn 0.0000 0.3009 -0.9537
vn 0.0000 0.9990 0.0438
vn 0.0000 0.9990 -0.0438
vn -0.0000 0.4616 -0.8871
vn -0.0000 0.5375 -0.8433
vn 0.0000 0.9764 -0.2162
vn 0.0000 0.9537 -0.3009
vn 0.0000 0.7071 -0.7071
vn 0.0000 0.8871 -0.4616
vn 0.0000 0.8433 -0.5375
vn 0.0000 0.8433 -0.5374
vn 0.0000 0.8871 -0.4615
vn 0.0000 0.9763 -0.2162
vn -0.0000 0.4615 -0.8871
vn 0.0000 0.9990 -0.0439
vn 0.0000 0.9990 0.0439
vn -0.0000 0.2162 -0.9763
vn -0.0000 -0.0439 -0.9990
vn 0.0000 0.0439 -0.9990
vn 0.0000 0.8871 0.4615
vn 0.0000 0.8433 0.5374
vn -0.0000 -0.3009 -0.9536
vn 0.0000 0.7070 0.7072
vn 0.0000 -0.4615 -0.8871
vn 0.0000 0.4615 0.8871
vn 0.0000 -0.7072 -0.7070
vn -0.0000 0.2162 0.9763
vn 0.0000 -0.8871 -0.4615
vn 0.0000 -0.0439 0.9990
vn 0.0000 0.0439 0.9990
vn -0.0000 -0.4615 0.8871
vn 0.0000 -0.8871 0.4615
usemtl Default_OBJ.077
s 1
f 1//1 2//2 3//3
f 2//2 1//1 4//2
f 5//4 3//3 6//5
f 3//3 5//4 1//1
f 7//6 2//2 4//2
f 2//2 7//6 8//7
f 9//8 6//5 10//9
f 6//5 9//8 5//4
f 11//10 8//7 7//6
f 8//7 11//10 12//11
f 13//12 10//9 14//13
f 10//9 13//12 9//8
f 15//14 12//11 11//10
f 12//11 15//14 16//15
f 17//16 14//13 18//17
f 14//13 17//16 13//12
f 19//18 16//15 15//14
f 16//15 19//18 20//19
f 21//20 18//17 22//20
f 18//17 21//20 17//16
f 23//21 20//19 19//18
f 20//19 23//21 24//22
f 25//23 21//20 22//20
f 21//20 25//23 26//24
f 27//25 24//22 23//21
f 24//22 27//25 28//25
f 29//26 26//24 25//23
f 26//24 29//26 30//27
f 27//25 31//28 28//25
f 31//28 27//25 32//29
f 33//30 30//27 29//26
f 30//27 33//30 34//31
f 32//29 35//32 31//28
f 35//32 32//29 36//33
f 37//34 34//31 33//30
f 34//31 37//34 38//35
f 36//33 39//36 35//32
f 39//36 36//33 40//37
f 41//38 38//35 37//34
f 38//35 41//38 42//39
f 40//37 43//40 39//36
f 43//40 40//37 44//41
f 45//42 42//39 41//38
f 42//39 45//42 46//42
f 44//41 47//43 43//40
f 47//43 44//41 48//44
f 48//44 45//42 47//43
f 45//42 48//44 46//42
f 49//42 50//45 51//42
f 52//46 51//42 50//45
f 50//45 53//41 52//46
f 54//47 52//46 53//41
f 55//48 56//39 51//42
f 49//42 51//42 56//39
f 53//41 57//49 54//47
f 58//50 54//47 57//49
f 59//51 60//35 55//48
f 56//39 55//48 60//35
f 57//49 61//33 58//50
f 62//32 58//50 61//33
f 63//52 64//53 59//51
f 60//35 59//51 64//53
f 61//33 65//54 62//32
f 66//55 62//32 65//54
f 67//56 68//27 63//52
f 64//53 63//52 68//27
f 65//54 69//57 66//55
f 70//57 66//55 69//57
f 71//23 72//58 67//56
f 68//27 67//56 72//58
f 73//59 74//22 69//57
f 70//57 69//57 74//22
f 75//60 76//60 71//23
f 72//58 71//23 76//60
f 77//61 78//19 73//59
f 74//22 73//59 78//19
f 79//62 76//60 80//17
f 75//60 80//17 76//60
f 81//63 82//64 77//61
f 78//19 77//61 82//64
f 83//12 79//62 84//13
f 80//17 84//13 79//62
f 85//10 86//11 81//63
f 82//64 81//63 86//11
f 87//8 83//12 88//9
f 84//13 88//9 83//12
f 89//6 90//65 85//10
f 86//11 85//10 90//65
f 91//4 87//8 92//5
f 88//9 92//5 87//8
f 93//2 94//2 89//6
f 90//65 89//6 94//2
f 95//1 91//4 96//66
f 92//5 96//66 91//4
f 93//2 95//1 94//2
f 96//66 94//2 95//1