# Blender v3.0.1 OBJ File: ''
# www.blender.org
mtllib 08.mtl
o model.009_model.010
v 0.691333 -0.093654 0.024867
v -0.698900 -0.096035 0.024554
v 0.691333 -0.096035 0.024554
v -0.698900 -0.093654 0.024867
v -0.698900 -0.098253 0.023635
v 0.691333 -0.098253 0.023635
v 0.691333 -0.091274 0.024554
v -0.698900 -0.091274 0.024554
v -0.698900 -0.100158 0.022173
v 0.691333 -0.100158 0.022173
v 0.691333 -0.089056 0.023635
v -0.698900 -0.089056 0.023635
v 0.691333 -0.101619 0.020268
v -0.698900 -0.101619 0.020268
v 0.691333 -0.087151 0.022173
v -0.698900 -0.087151 0.022173
v 0.691333 -0.102538 0.018050
v -0.698900 -0.102538 0.018050
v -0.698900 -0.085689 0.020268
v 0.691333 -0.085689 0.020268
v 0.691333 -0.102852 0.015670
v -0.698900 -0.102852 0.015670
v -0.698900 -0.084770 0.018050
v 0.691333 -0.084770 0.018050
v 0.691333 -0.102538 0.013289
v -0.698900 -0.102538 0.013289
v -0.698900 -0.084457 0.015670
v 0.691333 -0.084457 0.015670
v 0.691333 -0.101619 0.011071
v -0.698900 -0.101619 0.011071
v -0.698900 -0.084770 0.013289
v 0.691333 -0.084770 0.013289
v 0.691333 -0.100158 0.009166
v -0.698900 -0.100158 0.009166
v -0.698900 -0.085689 0.011071
v 0.691333 -0.085689 0.011071
v -0.698900 -0.098253 0.007705
v 0.691333 -0.098253 0.007705
v -0.698900 -0.087151 0.009166
v 0.691333 -0.087151 0.009166
v -0.698900 -0.096035 0.006786
v 0.691333 -0.096035 0.006786
v 0.691333 -0.089056 0.007705
v -0.698900 -0.089056 0.007705
v -0.698900 -0.093654 0.006473
v 0.691333 -0.093654 0.006473
v 0.691333 -0.091274 0.006786
v -0.698900 -0.091274 0.006786
v -0.698900 -0.093654 0.024867
v 0.691333 -0.093654 0.024867
v -0.698900 -0.096035 0.024554
v 0.691333 -0.096035 0.024554
v -0.698900 -0.098253 0.023635
v 0.691333 -0.098253 0.023635
v -0.698900 -0.091274 0.024554
v 0.691333 -0.091274 0.024554
v -0.698900 -0.100158 0.022173
v 0.691333 -0.100158 0.022173
v -0.698900 -0.089056 0.023635
v 0.691333 -0.089056 0.023635
v 0.691333 -0.101619 0.020268
v -0.698900 -0.101619 0.020268
v -0.698900 -0.087151 0.022173
v 0.691333 -0.087151 0.022173
v 0.691333 -0.102538 0.018050
v -0.698900 -0.102538 0.018050
v 0.691333 -0.085689 0.020268
v -0.698900 -0.085689 0.020268
v 0.691333 -0.102852 0.015670
v -0.698900 -0.102852 0.015670
v 0.691333 -0.084770 0.018050
v -0.698900 -0.084770 0.018050
v 0.691333 -0.102538 0.013289
v -0.698900 -0.102538 0.013289
v 0.691333 -0.084457 0.015670
v -0.698900 -0.084457 0.015670
v 0.691333 -0.101619 0.011071
v -0.698900 -0.101619 0.011071
v 0.691333 -0.084770 0.013289
v -0.698900 -0.084770 0.013289
v 0.691333 -0.100158 0.009166
v -0.698900 -0.100158 0.009166
v 0.691333 -0.085689 0.011071
v -0.698900 -0.085689 0.011071
v 0.691333 -0.098253 0.007705
v -0.698900 -0.098253 0.007705
v 0.691333 -0.087151 0.009166
v -0.698900 -0.087151 0.009166
v 0.691333 -0.096035 0.006786
v -0.698900 -0.096035 0.006786
v 0.691333 -0.089056 0.007705
v -0.698900 -0.089056 0.007705
v 0.691333 -0.093654 0.006473
v -0.698900 -0.093654 0.006473
v 0.691333 -0.091274 0.006786
v -0.698900 -0.091274 0.006786
vn -0.0000 -0.0438 0.9990
vn -0.0000 -0.2162 0.9764
vn 0.0000 -0.3009 0.9537
vn -0.0000 0.0438 0.9990
vn 0.0000 -0.4616 0.8871
vn 0.0000 -0.5375 0.8433
vn 0.0000 0.2162 0.9763
vn 0.0000 0.3009 0.9537
vn 0.0000 -0.7072 0.7070
vn 0.0000 0.4616 0.8871
vn 0.0000 0.5375 0.8433
vn 0.0000 -0.8433 0.5375
vn 0.0000 -0.8871 0.4616
vn 0.0000 0.7071 0.7071
vn 0.0000 -0.9537 0.3009
vn 0.0000 -0.9763 0.2162
vn 0.0000 0.8433 0.5375
vn 0.0000 0.8871 0.4616
vn 0.0000 -0.9990 0.0438
vn 0.0000 -0.9990 -0.0438
vn 0.0000 0.9537 0.3009
vn 0.0000 0.9763 0.2162
vn 0.0000 -0.9764 -0.2162
vn 0.0000 -0.9537 -0.3009
vn 0.0000 0.9990 0.0438
vn 0.0000 0.9990 -0.0438
vn 0.0000 -0.8871 -0.4616
vn 0.0000 -0.8433 -0.5375
vn 0.0000 0.9764 -0.2162
vn 0.0000 0.9537 -0.3009
vn 0.0000 -0.7071 -0.7071
vn 0.0000 0.8871 -0.4616
vn 0.0000 0.8433 -0.5375
vn 0.0000 -0.5375 -0.8433
vn 0.0000 -0.4616 -0.8871
vn 0.0000 0.7070 -0.7072
vn 0.0000 -0.3009 -0.9537
vn -0.0000 -0.2162 -0.9764
vn 0.0000 0.5375 -0.8433
vn 0.0000 0.4616 -0.8871
vn 0.0000 -0.0438 -0.9990
vn 0.0000 0.0438 -0.9990
vn -0.0000 0.3009 -0.9537
vn -0.0000 0.2162 -0.9763
vn -0.0000 -0.0439 -0.9990
vn 0.0000 0.0439 -0.9990
vn -0.0000 0.3009 -0.9536
vn 0.0000 0.4615 -0.8871
vn 0.0000 0.7072 -0.7070
vn -0.0000 -0.4615 -0.8871
vn 0.0000 0.8871 -0.4615
vn 0.0000 0.9763 -0.2162
vn 0.0000 -0.8871 -0.4615
vn 0.0000 0.9990 -0.0439
vn 0.0000 0.9990 0.0439
vn 0.0000 -0.9990 0.0439
vn 0.0000 -0.9990 -0.0439
vn 0.0000 0.8871 0.4615
vn 0.0000 -0.9536 0.3009
vn 0.0000 -0.8871 0.4615
vn 0.0000 0.4615 0.8871
vn 0.0000 -0.7070 0.7072
vn 0.0000 0.3009 0.9536
vn -0.0000 -0.4615 0.8871
vn 0.0000 -0.0439 0.9990
vn -0.0000 0.0439 0.9990
usemtl Default_OBJ.082
s 1
f 1//1 2//2 3//3
f 2//2 1//1 4//4
f 3//3 5//5 6//6
f 5//5 3//3 2//2
f 7//7 4//4 1//1
f 4//4 7//7 8//8
f 6//6 9//9 10//9
f 9//9 6//6 5//5
f 11//10 8//8 7//7
f 8//8 11//10 12//11
f 13//12 9//9 14//13
f 9//9 13//12 10//9
f 15//14 12//11 11//10
f 12//11 15//14 16//14
f 17//15 14//13 18//16
f 14//13 17//15 13//12
f 15//14 19//17 16//14
f 19//17 15//14 20//18
f 21//19 18//16 22//20
f 18//16 21//19 17//15
f 20//18 23//21 19//17
f 23//21 20//18 24//22
f 25//23 22//20 26//24
f 22//20 25//23 21//19
f 24//22 27//25 23//21
f 27//25 24//22 28//26
f 29//27 26//24 30//28
f 26//24 29//27 25//23
f 28//26 31//29 27//25
f 31//29 28//26 32//30
f 33//31 30//28 34//31
f 30//28 33//31 29//27
f 32//30 35//32 31//29
f 35//32 32//30 36//33
f 37//34 33//31 34//31
f 33//31 37//34 38//35
f 36//33 39//36 35//32
f 39//36 36//33 40//36
f 41//37 38//35 37//34
f 38//35 41//37 42//38
f 39//36 43//39 44//40
f 43//39 39//36 40//36
f 45//41 42//38 41//37
f 42//38 45//41 46//42
f 44//40 47//43 48//44
f 47//43 44//40 43//39
f 48//44 46//42 45//41
f 46//42 48//44 47//43
f 49//45 50//46 51//44
f 52//47 51//44 50//46
f 51//44 52//47 53//48
f 54//39 53//48 52//47
f 55//37 56//38 49//45
f 50//46 49//45 56//38
f 53//48 54//39 57//49
f 58//49 57//49 54//39
f 59//34 60//50 55//37
f 56//38 55//37 60//50
f 58//49 61//33 57//49
f 62//51 57//49 61//33
f 63//31 64//31 59//34
f 60//50 59//34 64//31
f 61//33 65//30 62//51
f 66//52 62//51 65//30
f 67//53 64//31 68//28
f 63//31 68//28 64//31
f 65//30 69//54 66//52
f 70//55 66//52 69//54
f 71//23 67//53 72//24
f 68//28 72//24 67//53
f 69//54 73//22 70//55
f 74//21 70//55 73//22
f 75//56 71//23 76//57
f 72//24 76//57 71//23
f 73//22 77//58 74//21
f 78//17 74//21 77//58
f 79//59 75//56 80//16
f 76//57 80//16 75//56
f 77//58 81//14 78//17
f 82//14 78//17 81//14
f 83//12 79//59 84//60
f 80//16 84//60 79//59
f 85//61 86//11 81//14
f 82//14 81//14 86//11
f 87//62 83//12 88//62
f 84//60 88//62 83//12
f 89//7 90//63 85//61
f 86//11 85//61 90//63
f 87//62 88//62 91//6
f 92//64 91//6 88//62
f 93//65 94//66 89//7
f 90//63 89//7 94//66
f 91//6 92//64 95//3
f 96//2 95//3 92//64
f 95//3 96//2 93//65
f 94//66 93//65 96//2