# Blender v3.0.1 OBJ File: ''
# www.blender.org
mtllib 09.mtl
o model.010_model.011
v 0.691333 -0.093654 0.142087
v -0.698900 -0.096035 0.141774
v 0.691333 -0.096035 0.141774
v -0.698900 -0.093654 0.142087
v -0.698900 -0.098253 0.140855
v 0.691333 -0.098253 0.140855
v 0.691333 -0.091274 0.141774
v -0.698900 -0.091274 0.141774
v -0.698900 -0.100158 0.139394
v 0.691333 -0.100158 0.139394
v 0.691333 -0.089056 0.140855
v -0.698900 -0.089056 0.140855
v 0.691333 -0.101619 0.137489
v -0.698900 -0.101619 0.137489
v 0.691333 -0.087151 0.139394
v -0.698900 -0.087151 0.139394
v 0.691333 -0.102538 0.135271
v -0.698900 -0.102538 0.135271
v -0.698900 -0.085689 0.137489
v 0.691333 -0.085689 0.137489
v 0.691333 -0.102852 0.132890
v -0.698900 -0.102852 0.132890
v -0.698900 -0.084770 0.135271
v 0.691333 -0.084770 0.135271
v 0.691333 -0.102538 0.130510
v -0.698900 -0.102538 0.130510
v -0.698900 -0.084457 0.132890
v 0.691333 -0.084457 0.132890
v 0.691333 -0.101619 0.128291
v -0.698900 -0.101619 0.128291
v -0.698900 -0.084770 0.130510
v 0.691333 -0.084770 0.130510
v 0.691333 -0.100158 0.126387
v -0.698900 -0.100158 0.126387
v -0.698900 -0.085689 0.128291
v 0.691333 -0.085689 0.128291
v -0.698900 -0.098253 0.124925
v 0.691333 -0.098253 0.124925
v -0.698900 -0.087151 0.126387
v 0.691333 -0.087151 0.126387
v -0.698900 -0.096035 0.124006
v 0.691333 -0.096035 0.124006
v 0.691333 -0.089056 0.124925
v -0.698900 -0.089056 0.124925
v -0.698900 -0.093654 0.123693
v 0.691333 -0.093654 0.123693
v 0.691333 -0.091274 0.124006
v -0.698900 -0.091274 0.124006
v -0.698900 -0.093654 0.142087
v 0.691333 -0.093654 0.142087
v -0.698900 -0.096035 0.141774
v 0.691333 -0.096035 0.141774
v -0.698900 -0.098253 0.140855
v 0.691333 -0.098253 0.140855
v -0.698900 -0.091274 0.141774
v 0.691333 -0.091274 0.141774
v -0.698900 -0.100158 0.139394
v 0.691333 -0.100158 0.139394
v -0.698900 -0.089056 0.140855
v 0.691333 -0.089056 0.140855
v 0.691333 -0.101619 0.137489
v -0.698900 -0.101619 0.137489
v -0.698900 -0.087151 0.139394
v 0.691333 -0.087151 0.139394
v 0.691333 -0.102538 0.135271
v -0.698900 -0.102538 0.135271
v 0.691333 -0.085689 0.137489
v -0.698900 -0.085689 0.137489
v 0.691333 -0.102852 0.132890
v -0.698900 -0.102852 0.132890
v 0.691333 -0.084770 0.135271
v -0.698900 -0.084770 0.135271
v 0.691333 -0.102538 0.130510
v -0.698900 -0.102538 0.130510
v 0.691333 -0.084457 0.132890
v -0.698900 -0.084457 0.132890
v 0.691333 -0.101619 0.128291
v -0.698900 -0.101619 0.128291
v 0.691333 -0.084770 0.130510
v -0.698900 -0.084770 0.130510
v 0.691333 -0.100158 0.126387
v -0.698900 -0.100158 0.126387
v 0.691333 -0.085689 0.128291
v -0.698900 -0.085689 0.128291
v 0.691333 -0.098253 0.124925
v -0.698900 -0.098253 0.124925
v 0.691333 -0.087151 0.126387
v -0.698900 -0.087151 0.126387
v 0.691333 -0.096035 0.124006
v -0.698900 -0.096035 0.124006
v 0.691333 -0.089056 0.124925
v -0.698900 -0.089056 0.124925
v 0.691333 -0.093654 0.123693
v -0.698900 -0.093654 0.123693
v 0.691333 -0.091274 0.124006
v -0.698900 -0.091274 0.124006
vn 0.0000 -0.0438 0.9990
vn 0.0000 -0.2162 0.9764
vn 0.0000 -0.3009 0.9537
vn -0.0000 0.0438 0.9990
vn 0.0000 -0.4616 0.8871
vn 0.0000 -0.5375 0.8433
vn -0.0000 0.2162 0.9763
vn -0.0000 0.3009 0.9537
vn 0.0000 -0.7071 0.7071
vn 0.0000 0.4616 0.8871
vn -0.0000 0.5375 0.8433
vn 0.0000 -0.8433 0.5375
vn 0.0000 -0.8871 0.4616
vn 0.0000 0.7070 0.7072
vn 0.0000 -0.9537 0.3009
vn 0.0000 -0.9764 0.2162
vn 0.0000 0.8433 0.5375
vn 0.0000 0.8871 0.4616
vn 0.0000 -0.9990 0.0438
vn 0.0000 -0.9990 -0.0438
vn 0.0000 0.9537 0.3009
vn 0.0000 0.9764 0.2162
vn 0.0000 -0.9764 -0.2162
vn 0.0000 -0.9537 -0.3009
vn 0.0000 0.9990 0.0438
vn 0.0000 0.9990 -0.0438
vn 0.0000 -0.8871 -0.4616
vn 0.0000 -0.8433 -0.5375
vn 0.0000 0.9764 -0.2162
vn 0.0000 0.9537 -0.3009
vn 0.0000 -0.7071 -0.7071
vn 0.0000 0.8871 -0.4616
vn 0.0000 0.8433 -0.5375
vn 0.0000 -0.5375 -0.8433
vn -0.0000 -0.4616 -0.8871
vn 0.0000 0.7070 -0.7072
vn 0.0000 -0.3009 -0.9537
vn 0.0000 -0.2162 -0.9764
vn 0.0000 0.5375 -0.8433
vn -0.0000 0.4616 -0.8871
vn 0.0000 -0.0438 -0.9990
vn 0.0000 0.0438 -0.9990
vn 0.0000 0.3009 -0.9537
vn -0.0000 0.2162 -0.9763
vn 0.0000 0.4615 -0.8871
vn 0.0000 0.7071 -0.7071
vn 0.0000 -0.4615 -0.8871
vn 0.0000 0.8871 -0.4615
vn 0.0000 -0.7070 -0.7072
vn 0.0000 0.9763 -0.2162
vn 0.0000 -0.8871 -0.4615
vn 0.0000 0.9990 -0.0439
vn 0.0000 0.9990 0.0439
vn 0.0000 -0.9763 -0.2162
vn 0.0000 -0.9536 -0.3009
vn 0.0000 0.9763 0.2162
vn 0.0000 -0.9990 0.0439
vn 0.0000 -0.9990 -0.0439
vn 0.0000 0.8871 0.4615
vn 0.0000 -0.9536 0.3009
vn 0.0000 -0.9763 0.2162
vn 0.0000 0.7071 0.7071
vn 0.0000 -0.8871 0.4615
vn 0.0000 0.4615 0.8871
vn 0.0000 -0.7070 0.7072
vn -0.0000 0.3009 0.9536
vn -0.0000 -0.4615 0.8871
vn 0.0000 -0.0439 0.9990
vn -0.0000 0.0439 0.9990
usemtl Default_OBJ.083
s 1
f 1//1 2//2 3//3
f 2//2 1//1 4//4
f 3//3 5//5 6//6
f 5//5 3//3 2//2
f 7//7 4//4 1//1
f 4//4 7//7 8//8
f 6//6 9//9 10//9
f 9//9 6//6 5//5
f 11//10 8//8 7//7
f 8//8 11//10 12//11
f 13//12 9//9 14//13
f 9//9 13//12 10//9
f 15//14 12//11 11//10
f 12//11 15//14 16//14
f 17//15 14//13 18//16
f 14//13 17//15 13//12
f 15//14 19//17 16//14
f 19//17 15//14 20//18
f 21//19 18//16 22//20
f 18//16 21//19 17//15
f 20//18 23//21 19//17
f 23//21 20//18 24//22
f 25//23 22//20 26//24
f 22//20 25//23 21//19
f 24//22 27//25 23//21
f 27//25 24//22 28//26
f 29//27 26//24 30//28
f 26//24 29//27 25//23
f 28//26 31//29 27//25
f 31//29 28//26 32//30
f 33//31 30//28 34//31
f 30//28 33//31 29//27
f 32//30 35//32 31//29
f 35//32 32//30 36//33
f 37//34 33//31 34//31
f 33//31 37//34 38//35
f 36//33 39//36 35//32
f 39//36 36//33 40//36
f 41//37 38//35 37//34
f 38//35 41//37 42//38
f 39//36 43//39 44//40
f 43//39 39//36 40//36
f 45//41 42//38 41//37
f 42//38 45//41 46//42
f 44//40 47//43 48//44
f 47//43 44//40 43//39
f 48//44 46//42 45//41
f 46//42 48//44 47//43
f 49//41 50//42 51//44
f 52//43 51//44 50//42
f 51//44 52//43 53//45
f 54//39 53//45 52//43
f 55//37 56//38 49//41
f 50//42 49//41 56//38
f 53//45 54//39 57//46
f 58//46 57//46 54//39
f 59//34 60//47 55//37
f 56//38 55//37 60//47
f 58//46 61//33 57//46
f 62//48 57//46 61//33
f 63//49 64//49 59//34
f 60//47 59//34 64//49
f 61//33 65//30 62//48
f 66//50 62//48 65//30
f 67//51 64//49 68//28
f 63//49 68//28 64//49
f 65//30 69//52 66//50
f 70//53 66//50 69//52
f 71//54 67//51 72//55
f 68//28 72//55 67//51
f 69//52 73//56 70//53
f 74//21 70//53 73//56
f 75//57 71//54 76//58
f 72//55 76//58 71//54
f 73//56 77//59 74//21
f 78//17 74//21 77//59
f 79//60 75//57 80//61
f 76//58 80//61 75//57
f 77//59 81//62 78//17
f 82//62 78//17 81//62
f 83//12 79//60 84//63
f 80//61 84//63 79//60
f 85//64 86//11 81//62
f 82//62 81//62 86//11
f 87//65 83//12 88//65
f 84//63 88//65 83//12
f 89//7 90//66 85//64
f 86//11 85//64 90//66
f 87//65 88//65 91//6
f 92//67 91//6 88//65
f 93//68 94//69 89//7
f 90//66 89//7 94//69
f 91//6 92//67 95//3
f 96//2 95//3 92//67
f 95//3 96//2 93//68
f 94//69 93//68 96//2