# Blender v3.0.1 OBJ File: ''
# www.blender.org
mtllib 12.mtl
o model.013_model.014
v 0.691333 -0.382197 -0.092353
v -0.698900 -0.384577 -0.092667
v 0.691333 -0.384577 -0.092667
v -0.698900 -0.382197 -0.092353
v -0.698900 -0.386795 -0.093585
v 0.691333 -0.386795 -0.093585
v 0.691333 -0.379816 -0.092667
v -0.698900 -0.379816 -0.092667
v -0.698900 -0.388700 -0.095047
v 0.691333 -0.388700 -0.095047
v 0.691333 -0.377598 -0.093585
v -0.698900 -0.377598 -0.093585
v 0.691333 -0.390162 -0.096952
v -0.698900 -0.390162 -0.096952
v 0.691333 -0.375693 -0.095047
v -0.698900 -0.375693 -0.095047
v 0.691333 -0.391081 -0.099170
v -0.698900 -0.391081 -0.099170
v -0.698900 -0.374232 -0.096952
v 0.691333 -0.374232 -0.096952
v 0.691333 -0.391394 -0.101551
v -0.698900 -0.391394 -0.101551
v -0.698900 -0.373313 -0.099170
v 0.691333 -0.373313 -0.099170
v 0.691333 -0.391081 -0.103931
v -0.698900 -0.391081 -0.103931
v -0.698900 -0.372999 -0.101551
v 0.691333 -0.372999 -0.101551
v 0.691333 -0.390162 -0.106149
v -0.698900 -0.390162 -0.106149
v -0.698900 -0.373313 -0.103931
v 0.691333 -0.373313 -0.103931
v 0.691333 -0.388700 -0.108054
v -0.698900 -0.388700 -0.108054
v -0.698900 -0.374232 -0.106149
v 0.691333 -0.374232 -0.106149
v -0.698900 -0.386795 -0.109516
v 0.691333 -0.386795 -0.109516
v -0.698900 -0.375693 -0.108054
v 0.691333 -0.375693 -0.108054
v -0.698900 -0.384577 -0.110434
v 0.691333 -0.384577 -0.110434
v 0.691333 -0.377598 -0.109516
v -0.698900 -0.377598 -0.109516
v -0.698900 -0.382197 -0.110748
v 0.691333 -0.382197 -0.110748
v 0.691333 -0.379816 -0.110434
v -0.698900 -0.379816 -0.110434
v -0.698900 -0.382197 -0.092353
v 0.691333 -0.382197 -0.092353
v -0.698900 -0.384577 -0.092667
v 0.691333 -0.384577 -0.092667
v -0.698900 -0.386795 -0.093585
v 0.691333 -0.386795 -0.093585
v -0.698900 -0.379816 -0.092667
v 0.691333 -0.379816 -0.092667
v -0.698900 -0.388700 -0.095047
v 0.691333 -0.388700 -0.095047
v -0.698900 -0.377598 -0.093585
v 0.691333 -0.377598 -0.093585
v 0.691333 -0.390162 -0.096952
v -0.698900 -0.390162 -0.096952
v -0.698900 -0.375693 -0.095047
v 0.691333 -0.375693 -0.095047
v 0.691333 -0.391081 -0.099170
v -0.698900 -0.391081 -0.099170
v 0.691333 -0.374232 -0.096952
v -0.698900 -0.374232 -0.096952
v 0.691333 -0.391394 -0.101551
v -0.698900 -0.391394 -0.101551
v 0.691333 -0.373313 -0.099170
v -0.698900 -0.373313 -0.099170
v 0.691333 -0.391081 -0.103931
v -0.698900 -0.391081 -0.103931
v 0.691333 -0.372999 -0.101551
v -0.698900 -0.372999 -0.101551
v 0.691333 -0.390162 -0.106149
v -0.698900 -0.390162 -0.106149
v 0.691333 -0.373313 -0.103931
v -0.698900 -0.373313 -0.103931
v 0.691333 -0.388700 -0.108054
v -0.698900 -0.388700 -0.108054
v 0.691333 -0.374232 -0.106149
v -0.698900 -0.374232 -0.106149
v 0.691333 -0.386795 -0.109516
v -0.698900 -0.386795 -0.109516
v 0.691333 -0.375693 -0.108054
v -0.698900 -0.375693 -0.108054
v 0.691333 -0.384577 -0.110434
v -0.698900 -0.384577 -0.110434
v 0.691333 -0.377598 -0.109516
v -0.698900 -0.377598 -0.109516
v 0.691333 -0.382197 -0.110748
v -0.698900 -0.382197 -0.110748
v 0.691333 -0.379816 -0.110434
v -0.698900 -0.379816 -0.110434
vn -0.0000 -0.0438 0.9990
vn 0.0000 -0.2162 0.9763
vn -0.0000 -0.3009 0.9537
vn 0.0000 0.0438 0.9990
vn -0.0000 -0.4616 0.8871
vn -0.0000 -0.5375 0.8433
vn 0.0000 0.2162 0.9763
vn 0.0000 0.3009 0.9537
vn 0.0000 -0.7071 0.7071
vn 0.0000 0.4616 0.8871
vn 0.0000 0.5375 0.8433
vn 0.0000 -0.8433 0.5375
vn 0.0000 -0.8871 0.4615
vn 0.0000 0.7072 0.7070
vn 0.0000 -0.9536 0.3009
vn 0.0000 -0.9764 0.2162
vn 0.0000 0.8433 0.5375
vn 0.0000 0.8871 0.4616
vn 0.0000 -0.9990 0.0438
vn 0.0000 -0.9990 -0.0438
vn 0.0000 0.9537 0.3009
vn 0.0000 0.9764 0.2162
vn 0.0000 -0.9763 -0.2162
vn 0.0000 -0.9537 -0.3009
vn 0.0000 0.9990 0.0438
vn 0.0000 0.9990 -0.0438
vn 0.0000 -0.8871 -0.4615
vn 0.0000 -0.8433 -0.5375
vn 0.0000 0.9764 -0.2162
vn 0.0000 0.9536 -0.3009
vn 0.0000 -0.7071 -0.7071
vn 0.0000 0.8871 -0.4616
vn 0.0000 0.8433 -0.5375
vn -0.0000 -0.5375 -0.8433
vn 0.0000 -0.4616 -0.8871
vn 0.0000 0.7072 -0.7070
vn 0.0000 -0.3009 -0.9537
vn -0.0000 -0.2162 -0.9763
vn -0.0000 0.5375 -0.8433
vn 0.0000 0.4616 -0.8871
vn 0.0000 -0.0438 -0.9990
vn -0.0000 0.0438 -0.9990
vn -0.0000 0.3009 -0.9537
vn -0.0000 0.2162 -0.9763
vn 0.0000 0.7071 -0.7071
vn 0.0000 0.8871 -0.4615
vn 0.0000 -0.7072 -0.7070
vn 0.0000 0.9763 -0.2162
vn 0.0000 0.9990 -0.0439
vn 0.0000 0.9990 0.0439
vn 0.0000 -0.9764 -0.2162
vn 0.0000 0.9763 0.2162
vn 0.0000 0.9536 0.3009
vn 0.0000 -0.9990 0.0439
vn 0.0000 -0.9990 -0.0439
vn 0.0000 -0.9537 0.3009
vn 0.0000 -0.9763 0.2162
vn 0.0000 0.7071 0.7071
vn 0.0000 -0.7072 0.7070
vn -0.0000 0.3009 0.9536
vn -0.0000 -0.0439 0.9990
vn 0.0000 0.0439 0.9990
vn -0.0000 -0.2163 0.9763
usemtl Default_OBJ.071
s 1
f 1//1 2//2 3//3
f 2//2 1//1 4//4
f 3//3 5//5 6//6
f 5//5 3//3 2//2
f 7//7 4//4 1//1
f 4//4 7//7 8//8
f 6//6 9//9 10//9
f 9//9 6//6 5//5
f 11//10 8//8 7//7
f 8//8 11//10 12//11
f 13//12 9//9 14//13
f 9//9 13//12 10//9
f 15//14 12//11 11//10
f 12//11 15//14 16//14
f 17//15 14//13 18//16
f 14//13 17//15 13//12
f 15//14 19//17 16//14
f 19//17 15//14 20//18
f 21//19 18//16 22//20
f 18//16 21//19 17//15
f 20//18 23//21 19//17
f 23//21 20//18 24//22
f 25//23 22//20 26//24
f 22//20 25//23 21//19
f 24//22 27//25 23//21
f 27//25 24//22 28//26
f 29//27 26//24 30//28
f 26//24 29//27 25//23
f 28//26 31//29 27//25
f 31//29 28//26 32//30
f 33//31 30//28 34//31
f 30//28 33//31 29//27
f 32//30 35//32 31//29
f 35//32 32//30 36//33
f 37//34 33//31 34//31
f 33//31 37//34 38//35
f 36//33 39//36 35//32
f 39//36 36//33 40//36
f 41//37 38//35 37//34
f 38//35 41//37 42//38
f 39//36 43//39 44//40
f 43//39 39//36 40//36
f 45//41 42//38 41//37
f 42//38 45//41 46//42
f 44//40 47//43 48//44
f 47//43 44//40 43//39
f 48//44 46//42 45//41
f 46//42 48//44 47//43
f 49//41 50//42 51//44
f 52//43 51//44 50//42
f 51//44 52//43 53//40
f 54//39 53//40 52//43
f 55//37 56//38 49//41
f 50//42 49//41 56//38
f 53//40 54//39 57//45
f 58//45 57//45 54//39
f 59//34 60//35 55//37
f 56//38 55//37 60//35
f 58//45 61//33 57//45
f 62//46 57//45 61//33
f 63//47 64//47 59//34
f 60//35 59//34 64//47
f 61//33 65//30 62//46
f 66//48 62//46 65//30
f 67//27 64//47 68//28
f 63//47 68//28 64//47
f 65//30 69//49 66//48
f 70//50 66//48 69//49
f 71//51 67//27 72//24
f 68//28 72//24 67//27
f 69//49 73//52 70//50
f 74//53 70//50 73//52
f 75//54 71//51 76//55
f 72//24 76//55 71//51
f 73//52 77//18 74//53
f 78//17 74//53 77//18
f 79//56 75//54 80//57
f 76//55 80//57 75//54
f 77//18 81//58 78//17
f 82//58 78//17 81//58
f 83//12 79//56 84//13
f 80//57 84//13 79//56
f 85//10 86//11 81//58
f 82//58 81//58 86//11
f 87//59 83//12 88//59
f 84//13 88//59 83//12
f 89//7 90//60 85//10
f 86//11 85//10 90//60
f 87//59 88//59 91//6
f 92//5 91//6 88//59
f 93//61 94//62 89//7
f 90//60 89//7 94//62
f 91//6 92//5 95//3
f 96//63 95//3 92//5
f 95//3 96//63 93//61
f 94//62 93//61 96//63