# Blender v3.0.1 OBJ File: ''
# www.blender.org
mtllib 13.mtl
o model.014_model.015
v 0.691333 -0.382197 0.024867
v -0.698900 -0.384577 0.024554
v 0.691333 -0.384577 0.024554
v -0.698900 -0.382197 0.024867
v -0.698900 -0.386795 0.023635
v 0.691333 -0.386795 0.023635
v 0.691333 -0.379816 0.024554
v -0.698900 -0.379816 0.024554
v -0.698900 -0.388700 0.022173
v 0.691333 -0.388700 0.022173
v 0.691333 -0.377598 0.023635
v -0.698900 -0.377598 0.023635
v 0.691333 -0.390162 0.020268
v -0.698900 -0.390162 0.020268
v 0.691333 -0.375693 0.022173
v -0.698900 -0.375693 0.022173
v 0.691333 -0.391081 0.018050
v -0.698900 -0.391081 0.018050
v -0.698900 -0.374232 0.020268
v 0.691333 -0.374232 0.020268
v 0.691333 -0.391394 0.015670
v -0.698900 -0.391394 0.015670
v -0.698900 -0.373313 0.018050
v 0.691333 -0.373313 0.018050
v 0.691333 -0.391081 0.013289
v -0.698900 -0.391081 0.013289
v -0.698900 -0.372999 0.015670
v 0.691333 -0.372999 0.015670
v 0.691333 -0.390162 0.011071
v -0.698900 -0.390162 0.011071
v -0.698900 -0.373313 0.013289
v 0.691333 -0.373313 0.013289
v 0.691333 -0.388700 0.009166
v -0.698900 -0.388700 0.009166
v -0.698900 -0.374232 0.011071
v 0.691333 -0.374232 0.011071
v -0.698900 -0.386795 0.007705
v 0.691333 -0.386795 0.007705
v -0.698900 -0.375693 0.009166
v 0.691333 -0.375693 0.009166
v -0.698900 -0.384577 0.006786
v 0.691333 -0.384577 0.006786
v 0.691333 -0.377598 0.007705
v -0.698900 -0.377598 0.007705
v -0.698900 -0.382197 0.006473
v 0.691333 -0.382197 0.006473
v 0.691333 -0.379816 0.006786
v -0.698900 -0.379816 0.006786
v -0.698900 -0.382197 0.024867
v 0.691333 -0.382197 0.024867
v -0.698900 -0.384577 0.024554
v 0.691333 -0.384577 0.024554
v -0.698900 -0.386795 0.023635
v 0.691333 -0.386795 0.023635
v -0.698900 -0.379816 0.024554
v 0.691333 -0.379816 0.024554
v -0.698900 -0.388700 0.022173
v 0.691333 -0.388700 0.022173
v -0.698900 -0.377598 0.023635
v 0.691333 -0.377598 0.023635
v 0.691333 -0.390162 0.020268
v -0.698900 -0.390162 0.020268
v -0.698900 -0.375693 0.022173
v 0.691333 -0.375693 0.022173
v 0.691333 -0.391081 0.018050
v -0.698900 -0.391081 0.018050
v 0.691333 -0.374232 0.020268
v -0.698900 -0.374232 0.020268
v 0.691333 -0.391394 0.015670
v -0.698900 -0.391394 0.015670
v 0.691333 -0.373313 0.018050
v -0.698900 -0.373313 0.018050
v 0.691333 -0.391081 0.013289
v -0.698900 -0.391081 0.013289
v 0.691333 -0.372999 0.015670
v -0.698900 -0.372999 0.015670
v 0.691333 -0.390162 0.011071
v -0.698900 -0.390162 0.011071
v 0.691333 -0.373313 0.013289
v -0.698900 -0.373313 0.013289
v 0.691333 -0.388700 0.009166
v -0.698900 -0.388700 0.009166
v 0.691333 -0.374232 0.011071
v -0.698900 -0.374232 0.011071
v 0.691333 -0.386795 0.007705
v -0.698900 -0.386795 0.007705
v 0.691333 -0.375693 0.009166
v -0.698900 -0.375693 0.009166
v 0.691333 -0.384577 0.006786
v -0.698900 -0.384577 0.006786
v 0.691333 -0.377598 0.007705
v -0.698900 -0.377598 0.007705
v 0.691333 -0.382197 0.006473
v -0.698900 -0.382197 0.006473
v 0.691333 -0.379816 0.006786
v -0.698900 -0.379816 0.006786
vn 0.0000 -0.0438 0.9990
vn -0.0000 -0.2162 0.9763
vn -0.0000 -0.3009 0.9537
vn -0.0000 0.0438 0.9990
vn -0.0000 -0.4616 0.8871
vn 0.0000 -0.5375 0.8433
vn -0.0000 0.2162 0.9764
vn 0.0000 0.3009 0.9537
vn 0.0000 -0.7071 0.7071
vn 0.0000 0.4616 0.8871
vn -0.0000 0.5375 0.8433
vn 0.0000 -0.8433 0.5375
vn 0.0000 -0.8871 0.4615
vn 0.0000 0.7072 0.7070
vn 0.0000 -0.9537 0.3009
vn 0.0000 -0.9763 0.2162
vn 0.0000 0.8433 0.5375
vn 0.0000 0.8871 0.4616
vn 0.0000 -0.9990 0.0438
vn 0.0000 -0.9990 -0.0438
vn 0.0000 0.9537 0.3009
vn 0.0000 0.9763 0.2162
vn 0.0000 -0.9764 -0.2162
vn 0.0000 -0.9537 -0.3009
vn 0.0000 0.9990 0.0438
vn 0.0000 0.9990 -0.0438
vn 0.0000 -0.8871 -0.4615
vn 0.0000 -0.8433 -0.5375
vn 0.0000 0.9763 -0.2162
vn 0.0000 0.9537 -0.3009
vn 0.0000 -0.7070 -0.7072
vn 0.0000 0.8871 -0.4616
vn 0.0000 0.8433 -0.5375
vn 0.0000 -0.5375 -0.8433
vn 0.0000 -0.4616 -0.8871
vn 0.0000 0.7071 -0.7071
vn -0.0000 -0.3009 -0.9537
vn 0.0000 -0.2162 -0.9763
vn 0.0000 0.5375 -0.8433
vn -0.0000 0.4616 -0.8871
vn -0.0000 -0.0438 -0.9990
vn 0.0000 0.0438 -0.9990
vn -0.0000 0.3009 -0.9537
vn -0.0000 0.2162 -0.9764
vn 0.0000 -0.0439 -0.9990
vn 0.0000 0.0439 -0.9990
vn -0.0000 0.4615 -0.8871
vn 0.0000 -0.3009 -0.9536
vn 0.0000 -0.4615 -0.8871
vn 0.0000 -0.7072 -0.7070
vn 0.0000 0.9990 -0.0439
vn 0.0000 0.9990 0.0439
vn 0.0000 -0.9763 -0.2162
vn 0.0000 0.9536 0.3009
vn 0.0000 -0.9990 0.0439
vn 0.0000 -0.9990 -0.0439
vn 0.0000 0.8871 0.4615
vn 0.0000 -0.9764 0.2162
vn 0.0000 0.7070 0.7072
vn 0.0000 0.4615 0.8871
vn 0.0000 0.2162 0.9763
vn -0.0000 -0.4615 0.8871
vn 0.0000 -0.0439 0.9990
vn -0.0000 0.0439 0.9990
vn -0.0000 -0.3009 0.9536
usemtl Default_OBJ.070
s 1
f 1//1 2//2 3//3
f 2//2 1//1 4//4
f 3//3 5//5 6//6
f 5//5 3//3 2//2
f 7//7 4//4 1//1
f 4//4 7//7 8//8
f 6//6 9//9 10//9
f 9//9 6//6 5//5
f 11//10 8//8 7//7
f 8//8 11//10 12//11
f 13//12 9//9 14//13
f 9//9 13//12 10//9
f 15//14 12//11 11//10
f 12//11 15//14 16//14
f 17//15 14//13 18//16
f 14//13 17//15 13//12
f 15//14 19//17 16//14
f 19//17 15//14 20//18
f 21//19 18//16 22//20
f 18//16 21//19 17//15
f 20//18 23//21 19//17
f 23//21 20//18 24//22
f 25//23 22//20 26//24
f 22//20 25//23 21//19
f 24//22 27//25 23//21
f 27//25 24//22 28//26
f 29//27 26//24 30//28
f 26//24 29//27 25//23
f 28//26 31//29 27//25
f 31//29 28//26 32//30
f 33//31 30//28 34//31
f 30//28 33//31 29//27
f 32//30 35//32 31//29
f 35//32 32//30 36//33
f 37//34 33//31 34//31
f 33//31 37//34 38//35
f 36//33 39//36 35//32
f 39//36 36//33 40//36
f 41//37 38//35 37//34
f 38//35 41//37 42//38
f 39//36 43//39 44//40
f 43//39 39//36 40//36
f 45//41 42//38 41//37
f 42//38 45//41 46//42
f 44//40 47//43 48//44
f 47//43 44//40 43//39
f 48//44 46//42 45//41
f 46//42 48//44 47//43
f 49//45 50//46 51//44
f 52//43 51//44 50//46
f 51//44 52//43 53//47
f 54//39 53//47 52//43
f 55//48 56//38 49//45
f 50//46 49//45 56//38
f 53//47 54//39 57//36
f 58//36 57//36 54//39
f 59//34 60//49 55//48
f 56//38 55//48 60//49
f 58//36 61//33 57//36
f 62//32 57//36 61//33
f 63//50 64//50 59//34
f 60//49 59//34 64//50
f 61//33 65//30 62//32
f 66//29 62//32 65//30
f 67//27 64//50 68//28
f 63//50 68//28 64//50
f 65//30 69//51 66//29
f 70//52 66//29 69//51
f 71//53 67//27 72//24
f 68//28 72//24 67//27
f 69//51 73//22 70//52
f 74//54 70//52 73//22
f 75//55 71//53 76//56
f 72//24 76//56 71//53
f 73//22 77//57 74//54
f 78//17 74//54 77//57
f 79//15 75//55 80//58
f 76//56 80//58 75//55
f 77//57 81//59 78//17
f 82//59 78//17 81//59
f 83//12 79//15 84//13
f 80//58 84//13 79//15
f 85//60 86//11 81//59
f 82//59 81//59 86//11
f 87//9 83//12 88//9
f 84//13 88//9 83//12
f 89//61 90//8 85//60
f 86//11 85//60 90//8
f 87//9 88//9 91//6
f 92//62 91//6 88//9
f 93//63 94//64 89//61
f 90//8 89//61 94//64
f 91//6 92//62 95//65
f 96//2 95//65 92//62
f 95//65 96//2 93//63
f 94//64 93//63 96//2