# Blender v3.0.1 OBJ File: ''
# www.blender.org
mtllib 00.mtl
o normalized.014
v -0.720062 0.225138 0.329479
v 0.720062 0.225139 -0.176214
v -0.720062 0.225139 -0.176214
v -0.720062 0.203152 0.329479
v 0.720062 0.203152 -0.176214
v 0.720062 0.203152 0.329479
v -0.720062 0.203152 -0.176214
v 0.720062 0.225138 0.329479
vt 0.000000 0.000000
vt 1.000000 1.000000
vt 0.000000 1.000000
vt 1.000000 0.000000
vt 0.000000 1.000000
vt 0.000000 0.000000
vt 0.000000 0.000000
vt 1.000000 1.000000
vt 0.000000 1.000000
vt -0.000000 0.000000
vt 1.000000 1.000000
vt 0.000000 0.000000
vt 1.000000 1.000000
vt 0.000000 1.000000
vt 0.000000 1.000000
vt 1.000000 0.000000
vt 1.000000 0.000000
vt 1.000000 1.000000
vt 1.000000 0.000000
vt 1.000000 0.000000
vn 0.0000 1.0000 0.0000
vn 0.0000 -1.0000 -0.0000
vn 0.0000 0.0000 -1.0000
vn -1.0000 0.0000 0.0000
vn 0.0000 0.0000 1.0000
vn 1.0000 0.0000 0.0000
usemtl 1.007
s 1
f 1/1/1 2/2/1 3/3/1
f 4/4/2 5/5/2 6/6/2
f 5/7/3 3/8/3 2/9/3
f 7/10/4 1/11/4 3/3/4
f 4/12/5 8/13/5 1/14/5
f 8/15/6 5/16/6 2/2/6
f 1/1/1 8/17/1 2/2/1
f 4/4/2 7/18/2 5/5/2
f 5/7/3 7/19/3 3/8/3
f 7/10/4 4/4/4 1/11/4
f 4/12/5 6/20/5 8/13/5
f 8/15/6 6/6/6 5/16/6