# Blender v3.0.1 OBJ File: ''
# www.blender.org
mtllib 02.mtl
o normalized.002_normalized.016
v -0.720062 0.203152 -0.308133
v -0.720062 0.093219 0.329479
v -0.720062 0.203152 0.329479
v -0.698075 0.203152 0.329479
v -0.698075 0.203152 -0.308133
v -0.720062 0.093219 -0.308133
v -0.698075 0.093219 -0.308133
v -0.698075 0.093219 0.329479
vt -0.000000 1.000000
vt 1.000000 0.000000
vt 1.000000 1.000000
vt 0.000000 0.000000
vt 1.000000 1.000000
vt 0.000000 1.000000
vt 1.000000 1.000000
vt 0.000000 0.000000
vt 1.000000 0.000000
vt 1.000000 0.000000
vt 0.000000 1.000000
vt 0.000000 0.000000
vt 1.000000 0.000000
vt 0.000000 1.000000
vt 0.000000 0.000000
vt 1.000000 1.000000
vt -0.000000 0.000000
vt 1.000000 0.000000
vt 1.000000 1.000000
vt 0.000000 1.000000
vn -1.0000 0.0000 0.0000
vn 0.0000 0.0000 1.0000
vn 0.0000 1.0000 0.0000
vn 0.0000 0.0000 -1.0000
vn 1.0000 0.0000 0.0000
vn 0.0000 -1.0000 -0.0000
usemtl 1.008
s 1
f 1/1/1 2/2/1 3/3/1
f 2/4/2 4/5/2 3/6/2
f 5/7/3 3/8/3 4/9/3
f 6/10/4 5/11/4 7/12/4
f 7/13/5 4/14/5 8/15/5
f 6/16/6 8/15/6 2/2/6
f 1/1/1 6/17/1 2/2/1
f 2/4/2 8/18/2 4/5/2
f 5/7/3 1/1/3 3/8/3
f 6/10/4 1/19/4 5/11/4
f 7/13/5 5/7/5 4/14/5
f 6/16/6 7/20/6 8/15/6