# Blender v3.0.1 OBJ File: ''
# www.blender.org
mtllib 03.mtl
o normalized.003_normalized.017
v 0.698076 0.093219 -0.308133
v 0.720062 0.093219 0.329479
v 0.698076 0.093219 0.329479
v 0.698076 0.203152 0.329479
v 0.698076 0.203152 -0.308133
v 0.720062 0.093219 -0.308133
v 0.720062 0.203152 -0.308133
v 0.720062 0.203152 0.329479
vt 1.000000 1.000000
vt 0.000000 0.000000
vt 1.000000 0.000000
vt 1.000000 0.000000
vt 0.000000 1.000000
vt 0.000000 0.000000
vt -0.000000 1.000000
vt 1.000000 1.000000
vt 0.000000 0.000000
vt 1.000000 1.000000
vt 0.000000 1.000000
vt 1.000000 1.000000
vt 0.000000 0.000000
vt 1.000000 0.000000
vt 1.000000 0.000000
vt 0.000000 1.000000
vt 0.000000 1.000000
vt 1.000000 1.000000
vt -0.000000 0.000000
vt 1.000000 0.000000
vn 0.0000 -1.0000 -0.0000
vn 0.0000 0.0000 1.0000
vn -1.0000 0.0000 0.0000
vn 0.0000 0.0000 -1.0000
vn 0.0000 1.0000 0.0000
vn 1.0000 0.0000 0.0000
usemtl 1.009
s 1
f 1/1/1 2/2/1 3/3/1
f 2/4/2 4/5/2 3/6/2
f 5/7/3 3/3/3 4/8/3
f 6/9/4 5/10/4 7/11/4
f 7/12/5 4/13/5 8/14/5
f 6/15/6 8/16/6 2/2/6
f 1/1/1 6/17/1 2/2/1
f 2/4/2 8/18/2 4/5/2
f 5/7/3 1/19/3 3/3/3
f 6/9/4 1/20/4 5/10/4
f 7/12/5 5/7/5 4/13/5
f 6/15/6 7/12/6 8/16/6