# Blender v3.0.1 OBJ File: ''
# www.blender.org
mtllib 04.mtl
o normalized.004_normalized.018
v -0.720062 0.203152 -0.308133
v 0.720062 0.093219 -0.308133
v 0.720062 0.203152 -0.308133
v 0.720062 0.203152 -0.330120
v -0.720062 0.203152 -0.330120
v -0.720062 0.093219 -0.308133
v -0.720062 0.093219 -0.330120
v 0.720062 0.093219 -0.330120
vt 0.000000 1.000000
vt 1.000000 0.000000
vt 1.000000 1.000000
vt 0.000000 0.000000
vt 1.000000 1.000000
vt 0.000000 1.000000
vt 0.000000 1.000000
vt 1.000000 0.000000
vt 1.000000 0.000000
vt 0.000000 0.000000
vt 1.000000 0.000000
vt -0.000000 1.000000
vt -0.000000 0.000000
vt 0.000000 1.000000
vt 0.000000 0.000000
vt 1.000000 0.000000
vt 0.000000 0.000000
vt 1.000000 1.000000
vt 1.000000 1.000000
vt 1.000000 1.000000
vn 0.0000 0.0000 1.0000
vn 1.0000 0.0000 0.0000
vn 0.0000 1.0000 0.0000
vn -1.0000 0.0000 0.0000
vn 0.0000 0.0000 -1.0000
vn 0.0000 -1.0000 0.0000
usemtl 1.004
s 1
f 1/1/1 2/2/1 3/3/1
f 2/4/2 4/5/2 3/6/2
f 5/7/3 3/8/3 4/5/3
f 6/9/4 5/7/4 7/10/4
f 7/11/5 4/12/5 8/13/5
f 6/9/6 8/14/6 2/4/6
f 1/1/1 6/15/1 2/2/1
f 2/4/2 8/16/2 4/5/2
f 5/7/3 1/17/3 3/8/3
f 6/9/4 1/18/4 5/7/4
f 7/11/5 5/19/5 4/12/5
f 6/9/6 7/20/6 8/14/6