# Blender v3.0.1 OBJ File: ''
# www.blender.org
mtllib 09.mtl
o normalized.016_normalized.029
v 0.698076 -0.460229 -0.308134
v 0.720062 -0.460229 0.307492
v 0.698076 -0.460229 0.307492
v 0.698076 -0.438242 0.307492
v 0.698076 -0.438242 -0.308134
v 0.720062 -0.460229 -0.308134
v 0.720062 -0.438242 -0.308134
v 0.720062 -0.438242 0.307492
v 0.698076 -0.610353 0.307492
v 0.720062 -0.610353 0.329479
v 0.698076 -0.610353 0.329479
v 0.698076 0.071232 0.329479
v 0.698076 0.071232 0.307492
v 0.720062 -0.610353 0.307492
v 0.720062 0.071232 0.307492
v 0.720062 0.071232 0.329479
v 0.698076 0.049246 -0.308133
v 0.720062 0.049245 0.307492
v 0.698076 0.049245 0.307492
v 0.698076 0.071232 0.307492
v 0.698076 0.071232 -0.308133
v 0.720062 0.049246 -0.308133
v 0.720062 0.071232 -0.308133
v 0.720062 0.071232 0.307492
vt 1.000000 1.000000
vt 0.000000 0.000000
vt 1.000000 0.000000
vt 1.000000 0.000000
vt 0.000000 1.000000
vt 0.000000 0.000000
vt 0.000000 1.000000
vt 1.000000 1.000000
vt 0.000000 0.000000
vt 1.000000 1.000000
vt 0.000000 1.000000
vt 1.000000 1.000000
vt 0.000000 0.000000
vt 1.000000 0.000000
vt 1.000000 0.000000
vt 0.000000 1.000000
vt 1.000000 1.000000
vt 0.000000 0.000000
vt 1.000000 0.000000
vt 1.000000 0.000000
vt 0.000000 1.000000
vt 0.000000 0.000000
vt 0.000000 1.000000
vt 1.000000 1.000000
vt 0.000000 0.000000
vt 1.000000 1.000000
vt 0.000000 1.000000
vt 1.000000 1.000000
vt 0.000000 0.000000
vt 1.000000 0.000000
vt 1.000000 0.000000
vt 0.000000 1.000000
vt 1.000000 1.000000
vt 0.000000 0.000000
vt 1.000000 0.000000
vt 1.000000 0.000000
vt 0.000000 1.000000
vt 0.000000 0.000000
vt 0.000000 1.000000
vt 1.000000 1.000000
vt 0.000000 0.000000
vt 1.000000 1.000000
vt 0.000000 1.000000
vt 1.000000 1.000000
vt 0.000000 0.000000
vt 1.000000 0.000000
vt 1.000000 0.000000
vt 0.000000 1.000000
vt 0.000000 1.000000
vt 1.000000 1.000000
vt 0.000000 0.000000
vt 1.000000 0.000000
vt 0.000000 1.000000
vt 1.000000 1.000000
vt 0.000000 0.000000
vt 1.000000 0.000000
vt 0.000000 1.000000
vt 1.000000 1.000000
vt 0.000000 0.000000
vt 1.000000 0.000000
vn 0.0000 -1.0000 -0.0000
vn 0.0000 -0.0000 1.0000
vn -1.0000 0.0000 0.0000
vn 0.0000 0.0000 -1.0000
vn 0.0000 1.0000 0.0000
vn 1.0000 -0.0000 0.0000
usemtl 1.011
s 1
f 1/1/1 2/2/1 3/3/1
f 2/4/2 4/5/2 3/6/2
f 5/7/3 3/3/3 4/8/3
f 6/9/4 5/10/4 7/11/4
f 7/12/5 4/13/5 8/14/5
f 6/15/6 8/16/6 2/2/6
f 9/17/1 10/18/1 11/19/1
f 10/20/2 12/21/2 11/22/2
f 13/23/3 11/19/3 12/24/3
f 14/25/4 13/26/4 15/27/4
f 15/28/5 12/29/5 16/30/5
f 14/31/6 16/32/6 10/18/6
f 17/33/1 18/34/1 19/35/1
f 18/36/2 20/37/2 19/38/2
f 21/39/3 19/35/3 20/40/3
f 22/41/4 21/42/4 23/43/4
f 23/44/5 20/45/5 24/46/5
f 22/47/6 24/48/6 18/34/6
f 1/1/1 6/49/1 2/2/1
f 2/4/2 8/50/2 4/5/2
f 5/7/3 1/51/3 3/3/3
f 6/9/4 1/52/4 5/10/4
f 7/12/5 5/7/5 4/13/5
f 6/15/6 7/12/6 8/16/6
f 9/17/1 14/53/1 10/18/1
f 10/20/2 16/54/2 12/21/2
f 13/23/3 9/55/3 11/19/3
f 14/25/4 9/56/4 13/26/4
f 15/28/5 13/23/5 12/29/5
f 14/31/6 15/28/6 16/32/6
f 17/33/1 22/57/1 18/34/1
f 18/36/2 24/58/2 20/37/2
f 21/39/3 17/59/3 19/35/3
f 22/41/4 17/60/4 21/42/4
f 23/44/5 21/39/5 20/45/5
f 22/47/6 23/44/6 24/48/6