# Blender v3.0.1 OBJ File: ''
# www.blender.org
mtllib 03.mtl
o group_2.005_ID380
v -0.343129 -0.059055 0.363130
v -0.348580 -0.057531 0.335055
v -0.350447 -0.057984 0.335527
v -0.335245 -0.054370 0.331674
v -0.328362 -0.061199 0.419002
v -0.313159 -0.057586 0.415148
v -0.313159 -0.057586 0.415148
v -0.328362 -0.061199 0.419002
v -0.335245 -0.054370 0.331674
v -0.343129 -0.059055 0.363130
v -0.348580 -0.057531 0.335055
v -0.350447 -0.057984 0.335527
v -0.617143 -0.639274 0.378991
v -0.430746 -0.166379 0.351720
v -0.590107 -0.646939 0.371481
v -0.457575 -0.158089 0.359204
v -0.426072 -0.154377 0.351042
v -0.452181 -0.144241 0.358423
v -0.420476 -0.143442 0.350072
v -0.445375 -0.130940 0.357242
v -0.413773 -0.133062 0.348782
v -0.406027 -0.123339 0.347186
v -0.437223 -0.118315 0.355674
v -0.397313 -0.114364 0.345299
v -0.427802 -0.106489 0.353732
v -0.387714 -0.106226 0.343138
v -0.417203 -0.095574 0.351437
v -0.377323 -0.099001 0.340726
v -0.366240 -0.092760 0.338084
v -0.405528 -0.085675 0.348810
v -0.354570 -0.087563 0.335239
v -0.342428 -0.083459 0.332218
v -0.392889 -0.076888 0.345875
v -0.329929 -0.080487 0.329050
v -0.320110 -0.079092 0.326517
v -0.005599 -0.097914 0.242427
v -0.010233 -0.124215 0.242427
v -0.319755 -0.052169 0.327678
v -0.379409 -0.069297 0.342663
v -0.365216 -0.062975 0.339202
v -0.350447 -0.057984 0.335527
v -0.348580 -0.057531 0.335055
v -0.335245 -0.054370 0.331674
v -0.335245 -0.054370 0.331674
v -0.348580 -0.057531 0.335055
v -0.319755 -0.052169 0.327678
v -0.350447 -0.057984 0.335527
v -0.365216 -0.062975 0.339202
v -0.379409 -0.069297 0.342663
v -0.392889 -0.076888 0.345875
v -0.320110 -0.079092 0.326517
v -0.005599 -0.097914 0.242427
v -0.010233 -0.124215 0.242427
v -0.329929 -0.080487 0.329050
v -0.342428 -0.083459 0.332218
v -0.405528 -0.085675 0.348810
v -0.354570 -0.087563 0.335239
v -0.366240 -0.092760 0.338084
v -0.417203 -0.095574 0.351437
v -0.377323 -0.099001 0.340726
v -0.387714 -0.106226 0.343138
v -0.427802 -0.106489 0.353732
v -0.397313 -0.114364 0.345299
v -0.437223 -0.118315 0.355674
v -0.406027 -0.123339 0.347186
v -0.445375 -0.130940 0.357242
v -0.413773 -0.133062 0.348782
v -0.420476 -0.143442 0.350072
v -0.452181 -0.144241 0.358423
v -0.426072 -0.154377 0.351042
v -0.457575 -0.158089 0.359204
v -0.430746 -0.166379 0.351720
v -0.617143 -0.639274 0.378991
v -0.590107 -0.646939 0.371481
v -0.343130 -0.066191 0.422677
v -0.350447 -0.057984 0.335527
v -0.365216 -0.062975 0.339202
v -0.343129 -0.059055 0.363130
v -0.328362 -0.061199 0.419002
v -0.328362 -0.061199 0.419002
v -0.343130 -0.066191 0.422677
v -0.343129 -0.059055 0.363130
v -0.350447 -0.057984 0.335527
v -0.365216 -0.062975 0.339202
v 0.016487 -0.101130 0.325902
v -0.298025 -0.082308 0.409992
v 0.011853 -0.127431 0.325902
v -0.297669 -0.055385 0.411153
v -0.370804 -0.080104 0.429350
v -0.357323 -0.072513 0.426137
v -0.343130 -0.066191 0.422677
v -0.328362 -0.061199 0.419002
v -0.313159 -0.057586 0.415148
v -0.408660 -0.169595 0.435194
v -0.595057 -0.642490 0.462466
v -0.568021 -0.650155 0.454956
v -0.435489 -0.161305 0.442679
v -0.403986 -0.157593 0.434517
v -0.430096 -0.147456 0.441898
v -0.398391 -0.146657 0.433546
v -0.423290 -0.134156 0.440717
v -0.391688 -0.136278 0.432257
v -0.383942 -0.126555 0.430661
v -0.415137 -0.121531 0.439148
v -0.375227 -0.117580 0.428773
v -0.405716 -0.109705 0.437207
v -0.365629 -0.109442 0.426613
v -0.395117 -0.098790 0.434912
v -0.355237 -0.102217 0.424201
v -0.344154 -0.095976 0.421559
v -0.383442 -0.088891 0.432284
v -0.332485 -0.090779 0.418714
v -0.320342 -0.086675 0.415693
v -0.307843 -0.083703 0.412524
v -0.298025 -0.082308 0.409992
v -0.307843 -0.083703 0.412524
v -0.370804 -0.080104 0.429350
v -0.320342 -0.086675 0.415693
v -0.383442 -0.088891 0.432284
v -0.332485 -0.090779 0.418714
v -0.344154 -0.095976 0.421559
v -0.395117 -0.098790 0.434912
v -0.355237 -0.102217 0.424201
v -0.365629 -0.109442 0.426613
v -0.405716 -0.109705 0.437207
v -0.375227 -0.117580 0.428773
v -0.415137 -0.121531 0.439148
v -0.383942 -0.126555 0.430661
v -0.423290 -0.134156 0.440717
v -0.391688 -0.136278 0.432257
v -0.398391 -0.146657 0.433546
v -0.430096 -0.147456 0.441898
v -0.403986 -0.157593 0.434517
v -0.435489 -0.161305 0.442679
v -0.408660 -0.169595 0.435194
v -0.595057 -0.642490 0.462466
v -0.568021 -0.650155 0.454956
v -0.313159 -0.057586 0.415148
v -0.297669 -0.055385 0.411153
v -0.328362 -0.061199 0.419002
v -0.343130 -0.066191 0.422677
v -0.357323 -0.072513 0.426137
v 0.016487 -0.101130 0.325902
v 0.011853 -0.127431 0.325902
v -0.313159 -0.057586 0.415148
v -0.319755 -0.052169 0.327678
v -0.335245 -0.054370 0.331674
v -0.297669 -0.055385 0.411153
v -0.297669 -0.055385 0.411153
v -0.313159 -0.057586 0.415148
v -0.319755 -0.052169 0.327678
v -0.335245 -0.054370 0.331674
v -0.590107 -0.646939 0.371481
v -0.595057 -0.642490 0.462466
v -0.617143 -0.639274 0.378991
v -0.568021 -0.650155 0.454956
v -0.568021 -0.650155 0.454956
v -0.590107 -0.646939 0.371481
v -0.595057 -0.642490 0.462466
v -0.617143 -0.639274 0.378991
v -0.435489 -0.161305 0.442679
v -0.617143 -0.639274 0.378991
v -0.595057 -0.642490 0.462466
v -0.457575 -0.158089 0.359204
v -0.457575 -0.158089 0.359204
v -0.435489 -0.161305 0.442679
v -0.617143 -0.639274 0.378991
v -0.595057 -0.642490 0.462466
v -0.430096 -0.147456 0.441898
v -0.457575 -0.158089 0.359204
v -0.435489 -0.161305 0.442679
v -0.452181 -0.144241 0.358423
v -0.452181 -0.144241 0.358423
v -0.430096 -0.147456 0.441898
v -0.457575 -0.158089 0.359204
v -0.435489 -0.161305 0.442679
v -0.423290 -0.134156 0.440717
v -0.452181 -0.144241 0.358423
v -0.430096 -0.147456 0.441898
v -0.445375 -0.130940 0.357242
v -0.445375 -0.130940 0.357242
v -0.423290 -0.134156 0.440717
v -0.452181 -0.144241 0.358423
v -0.430096 -0.147456 0.441898
v -0.415137 -0.121531 0.439148
v -0.445375 -0.130940 0.357242
v -0.423290 -0.134156 0.440717
v -0.437223 -0.118315 0.355674
v -0.437223 -0.118315 0.355674
v -0.415137 -0.121531 0.439148
v -0.445375 -0.130940 0.357242
v -0.423290 -0.134156 0.440717
v -0.405716 -0.109705 0.437207
v -0.437223 -0.118315 0.355674
v -0.415137 -0.121531 0.439148
v -0.427802 -0.106489 0.353732
v -0.427802 -0.106489 0.353732
v -0.405716 -0.109705 0.437207
v -0.437223 -0.118315 0.355674
v -0.415137 -0.121531 0.439148
v -0.395117 -0.098790 0.434912
v -0.427802 -0.106489 0.353732
v -0.405716 -0.109705 0.437207
v -0.417203 -0.095574 0.351437
v -0.417203 -0.095574 0.351437
v -0.395117 -0.098790 0.434912
v -0.427802 -0.106489 0.353732
v -0.405716 -0.109705 0.437207
v -0.395117 -0.098790 0.434912
v -0.405528 -0.085675 0.348810
v -0.417203 -0.095574 0.351437
v -0.383442 -0.088891 0.432284
v -0.383442 -0.088891 0.432284
v -0.395117 -0.098790 0.434912
v -0.405528 -0.085675 0.348810
v -0.417203 -0.095574 0.351437
v -0.383442 -0.088891 0.432284
v -0.392889 -0.076888 0.345875
v -0.405528 -0.085675 0.348810
v -0.370804 -0.080104 0.429350
v -0.370804 -0.080104 0.429350
v -0.383442 -0.088891 0.432284
v -0.392889 -0.076888 0.345875
v -0.405528 -0.085675 0.348810
v -0.370804 -0.080104 0.429350
v -0.379409 -0.069297 0.342663
v -0.392889 -0.076888 0.345875
v -0.357323 -0.072513 0.426137
v -0.357323 -0.072513 0.426137
v -0.370804 -0.080104 0.429350
v -0.379409 -0.069297 0.342663
v -0.392889 -0.076888 0.345875
v -0.357323 -0.072513 0.426137
v -0.365216 -0.062975 0.339202
v -0.379409 -0.069297 0.342663
v -0.343130 -0.066191 0.422677
v -0.343130 -0.066191 0.422677
v -0.357323 -0.072513 0.426137
v -0.365216 -0.062975 0.339202
v -0.379409 -0.069297 0.342663
v -0.297669 -0.055385 0.411153
v -0.005599 -0.097914 0.242427
v -0.319755 -0.052169 0.327678
v 0.016487 -0.101130 0.325902
v 0.016487 -0.101130 0.325902
v -0.297669 -0.055385 0.411153
v -0.005599 -0.097914 0.242427
v -0.319755 -0.052169 0.327678
v 0.011853 -0.127431 0.325902
v -0.005599 -0.097914 0.242427
v 0.016487 -0.101130 0.325902
v -0.010233 -0.124215 0.242427
v -0.010233 -0.124215 0.242427
v 0.011853 -0.127431 0.325902
v -0.005599 -0.097914 0.242427
v 0.016487 -0.101130 0.325902
v -0.010233 -0.124215 0.242427
v -0.298025 -0.082308 0.409992
v -0.320110 -0.079092 0.326517
v 0.011853 -0.127431 0.325902
v 0.011853 -0.127431 0.325902
v -0.010233 -0.124215 0.242427
v -0.298025 -0.082308 0.409992
v -0.320110 -0.079092 0.326517
v -0.320110 -0.079092 0.326517
v -0.307843 -0.083703 0.412524
v -0.329929 -0.080487 0.329050
v -0.298025 -0.082308 0.409992
v -0.298025 -0.082308 0.409992
v -0.320110 -0.079092 0.326517
v -0.307843 -0.083703 0.412524
v -0.329929 -0.080487 0.329050
v -0.329929 -0.080487 0.329050
v -0.320342 -0.086675 0.415693
v -0.342428 -0.083459 0.332218
v -0.307843 -0.083703 0.412524
v -0.307843 -0.083703 0.412524
v -0.329929 -0.080487 0.329050
v -0.320342 -0.086675 0.415693
v -0.342428 -0.083459 0.332218
v -0.342428 -0.083459 0.332218
v -0.332485 -0.090779 0.418714
v -0.354570 -0.087563 0.335239
v -0.320342 -0.086675 0.415693
v -0.320342 -0.086675 0.415693
v -0.342428 -0.083459 0.332218
v -0.332485 -0.090779 0.418714
v -0.354570 -0.087563 0.335239
v -0.354570 -0.087563 0.335239
v -0.344154 -0.095976 0.421559
v -0.366240 -0.092760 0.338084
v -0.332485 -0.090779 0.418714
v -0.332485 -0.090779 0.418714
v -0.354570 -0.087563 0.335239
v -0.344154 -0.095976 0.421559
v -0.366240 -0.092760 0.338084
v -0.366240 -0.092760 0.338084
v -0.355237 -0.102217 0.424201
v -0.377323 -0.099001 0.340726
v -0.344154 -0.095976 0.421559
v -0.344154 -0.095976 0.421559
v -0.366240 -0.092760 0.338084
v -0.355237 -0.102217 0.424201
v -0.377323 -0.099001 0.340726
v -0.377323 -0.099001 0.340726
v -0.365629 -0.109442 0.426613
v -0.387714 -0.106226 0.343138
v -0.355237 -0.102217 0.424201
v -0.355237 -0.102217 0.424201
v -0.377323 -0.099001 0.340726
v -0.365629 -0.109442 0.426613
v -0.387714 -0.106226 0.343138
v -0.387714 -0.106226 0.343138
v -0.375227 -0.117580 0.428773
v -0.397313 -0.114364 0.345299
v -0.365629 -0.109442 0.426613
v -0.365629 -0.109442 0.426613
v -0.387714 -0.106226 0.343138
v -0.375227 -0.117580 0.428773
v -0.397313 -0.114364 0.345299
v -0.406027 -0.123339 0.347186
v -0.375227 -0.117580 0.428773
v -0.383942 -0.126555 0.430661
v -0.397313 -0.114364 0.345299
v -0.397313 -0.114364 0.345299
v -0.406027 -0.123339 0.347186
v -0.375227 -0.117580 0.428773
v -0.383942 -0.126555 0.430661
v -0.413773 -0.133062 0.348782
v -0.383942 -0.126555 0.430661
v -0.391688 -0.136278 0.432257
v -0.406027 -0.123339 0.347186
v -0.406027 -0.123339 0.347186
v -0.413773 -0.133062 0.348782
v -0.383942 -0.126555 0.430661
v -0.391688 -0.136278 0.432257
v -0.420476 -0.143442 0.350072
v -0.391688 -0.136278 0.432257
v -0.398391 -0.146657 0.433546
v -0.413773 -0.133062 0.348782
v -0.413773 -0.133062 0.348782
v -0.420476 -0.143442 0.350072
v -0.391688 -0.136278 0.432257
v -0.398391 -0.146657 0.433546
v -0.426072 -0.154377 0.351042
v -0.398391 -0.146657 0.433546
v -0.403986 -0.157593 0.434517
v -0.420476 -0.143442 0.350072
v -0.420476 -0.143442 0.350072
v -0.426072 -0.154377 0.351042
v -0.398391 -0.146657 0.433546
v -0.403986 -0.157593 0.434517
v -0.430746 -0.166379 0.351720
v -0.403986 -0.157593 0.434517
v -0.408660 -0.169595 0.435194
v -0.426072 -0.154377 0.351042
v -0.426072 -0.154377 0.351042
v -0.430746 -0.166379 0.351720
v -0.403986 -0.157593 0.434517
v -0.408660 -0.169595 0.435194
v -0.590107 -0.646939 0.371481
v -0.408660 -0.169595 0.435194
v -0.568021 -0.650155 0.454956
v -0.430746 -0.166379 0.351720
v -0.430746 -0.166379 0.351720
v -0.590107 -0.646939 0.371481
v -0.408660 -0.169595 0.435194
v -0.568021 -0.650155 0.454956
vn -0.2103 0.9731 0.0941
vn -0.2096 0.9733 0.0935
vn -0.2122 0.9727 0.0940
vn -0.2077 0.9738 0.0929
vn -0.2081 0.9737 0.0925
vn -0.2080 0.9738 0.0925
vn 0.2080 -0.9738 -0.0925
vn 0.2081 -0.9737 -0.0925
vn 0.2083 -0.9737 -0.0926
vn 0.2103 -0.9731 -0.0941
vn 0.2096 -0.9733 -0.0935
vn 0.2119 -0.9728 -0.0939
vn -0.2555 0.0450 -0.9658
vn -0.2555 0.0451 -0.9658
vn -0.2555 0.0449 -0.9658
vn -0.2556 0.0452 -0.9657
vn -0.2555 0.0448 -0.9658
vn -0.2557 0.0456 -0.9657
vn -0.2555 0.0455 -0.9657
vn -0.2556 0.0451 -0.9657
vn 0.2556 -0.0451 0.9657
vn 0.2555 -0.0454 0.9657
vn 0.2555 -0.0450 0.9658
vn 0.2557 -0.0455 0.9657
vn 0.2555 -0.0448 0.9658
vn 0.2556 -0.0452 0.9657
vn 0.2555 -0.0449 0.9658
vn 0.2555 -0.0451 0.9658
vn -0.2916 0.9497 0.1140
vn -0.2907 0.9500 0.1140
vn -0.2925 0.9495 0.1140
vn -0.2920 0.9496 0.1139
vn -0.2926 0.9494 0.1138
vn 0.2926 -0.9494 -0.1138
vn 0.2916 -0.9497 -0.1140
vn 0.2920 -0.9496 -0.1139
vn 0.2908 -0.9500 -0.1140
vn 0.2925 -0.9495 -0.1140
vn 0.2555 -0.0451 0.9657
vn 0.2554 -0.0447 0.9658
vn 0.2554 -0.0445 0.9658
vn 0.2555 -0.0453 0.9657
vn -0.2554 0.0445 -0.9658
vn -0.2555 0.0452 -0.9658
vn -0.2555 0.0451 -0.9657
vn -0.1225 0.9900 0.0705
vn 0.1225 -0.9900 -0.0705
vn -0.2642 -0.9639 0.0328
vn 0.2642 0.9639 -0.0328
vn -0.9148 0.3138 0.2541
vn 0.9148 -0.3138 -0.2541
vn -0.8970 0.3635 0.2513
vn -0.8970 0.3636 0.2513
vn 0.8970 -0.3636 -0.2513
vn 0.8970 -0.3635 -0.2513
vn -0.8544 0.4589 0.2437
vn -0.8544 0.4588 0.2437
vn 0.8544 -0.4588 -0.2437
vn 0.8544 -0.4589 -0.2437
vn -0.8033 0.5478 0.2336
vn -0.8033 0.5478 0.2337
vn -0.8034 0.5477 0.2337
vn 0.8034 -0.5477 -0.2337
vn 0.8033 -0.5478 -0.2336
vn 0.8033 -0.5478 -0.2337
vn -0.7447 0.6296 0.2213
vn 0.7447 -0.6296 -0.2213
vn -0.6798 0.7036 0.2070
vn 0.6798 -0.7036 -0.2070
vn -0.6095 0.7695 0.1909
vn 0.6095 -0.7695 -0.1909
vn -0.5348 0.8270 0.1733
vn -0.5347 0.8270 0.1733
vn 0.5348 -0.8270 -0.1733
vn 0.5347 -0.8270 -0.1733
vn -0.4565 0.8762 0.1545
vn -0.4566 0.8762 0.1546
vn 0.4565 -0.8762 -0.1545
vn 0.4566 -0.8762 -0.1546
vn -0.3756 0.9169 0.1347
vn 0.3756 -0.9169 -0.1347
vn 0.1441 0.9896 0.0000
vn -0.1441 -0.9896 -0.0000
vn 0.9514 -0.1676 -0.2582
vn -0.9514 0.1676 0.2582
vn 0.1224 -0.9900 -0.0705
vn -0.1224 0.9900 0.0705
vn 0.2081 -0.9737 -0.0926
vn -0.2081 0.9737 0.0926
vn 0.2925 -0.9494 -0.1140
vn 0.2926 -0.9494 -0.1140
vn -0.2925 0.9494 0.1140
vn -0.2926 0.9494 0.1140
vn 0.3755 -0.9170 -0.1347
vn -0.3755 0.9170 0.1347
vn 0.5348 -0.8270 -0.1734
vn -0.5348 0.8270 0.1734
vn 0.6094 -0.7695 -0.1909
vn -0.6094 0.7695 0.1909
vn 0.8545 -0.4588 -0.2437
vn -0.8545 0.4588 0.2437
usemtl Color_A05.007
s 1
f 1//1 2//2 3//3
f 2//2 1//1 4//4
f 4//4 1//1 5//5
f 4//4 5//5 6//6
f 7//7 8//8 9//9
f 8//8 10//10 9//9
f 9//9 10//10 11//11
f 12//12 11//11 10//10
f 13//13 14//13 15//13
f 14//13 13//13 16//13
f 14//13 16//13 17//13
f 17//13 16//13 18//13
f 17//13 18//13 19//13
f 19//13 18//13 20//13
f 19//13 20//13 21//13
f 21//13 20//13 22//13
f 22//13 20//13 23//13
f 22//13 23//13 24//13
f 24//13 23//13 25//13
f 24//13 25//13 26//13
f 26//13 25//13 27//14
f 26//13 27//14 28//13
f 28//13 27//14 29//14
f 29//14 27//14 30//14
f 29//14 30//14 31//14
f 31//14 30//14 32//14
f 32//14 30//14 33//13
f 32//14 33//13 34//15
f 34//15 33//13 35//13
f 35//13 36//13 37//13
f 36//13 35//13 38//13
f 38//13 35//13 33//13
f 38//13 33//13 39//16
f 38//13 39//16 40//17
f 38//13 40//17 41//18
f 38//13 41//18 42//19
f 38//13 42//19 43//20
f 44//21 45//22 46//23
f 45//22 47//24 46//23
f 47//24 48//25 46//23
f 48//25 49//26 46//23
f 49//26 50//23 46//23
f 50//23 51//23 46//23
f 46//23 51//23 52//23
f 53//23 52//23 51//23
f 51//23 50//23 54//27
f 54//27 50//23 55//28
f 50//23 56//28 55//28
f 55//28 56//28 57//28
f 57//28 56//28 58//28
f 56//28 59//28 58//28
f 58//28 59//28 60//23
f 60//23 59//28 61//23
f 59//28 62//23 61//23
f 61//23 62//23 63//23
f 62//23 64//23 63//23
f 63//23 64//23 65//23
f 64//23 66//23 65//23
f 65//23 66//23 67//23
f 67//23 66//23 68//23
f 66//23 69//23 68//23
f 68//23 69//23 70//23
f 69//23 71//23 70//23
f 70//23 71//23 72//23
f 71//23 73//23 72//23
f 74//23 72//23 73//23
f 75//29 76//30 77//31
f 76//30 75//29 78//32
f 78//32 75//29 79//33
f 80//34 81//35 82//36
f 82//36 81//35 83//37
f 84//38 83//37 81//35
f 85//23 86//23 87//23
f 86//23 85//23 88//23
f 86//23 88//23 89//23
f 89//23 88//23 90//23
f 90//23 88//23 91//39
f 91//39 88//23 92//40
f 92//40 88//23 93//41
f 94//23 95//23 96//23
f 95//23 94//23 97//23
f 97//23 94//23 98//23
f 97//23 98//23 99//23
f 99//23 98//23 100//23
f 99//23 100//23 101//23
f 101//23 100//23 102//23
f 101//23 102//23 103//23
f 101//23 103//23 104//23
f 104//23 103//23 105//23
f 104//23 105//23 106//23
f 106//23 105//23 107//28
f 106//23 107//28 108//23
f 108//23 107//28 109//23
f 108//23 109//23 110//23
f 108//23 110//23 111//23
f 111//23 110//23 112//28
f 111//23 112//28 113//27
f 111//23 113//27 89//23
f 89//23 113//27 114//42
f 89//23 114//42 86//23
f 115//13 116//15 117//13
f 116//15 118//15 117//13
f 117//13 118//15 119//13
f 118//15 120//14 119//13
f 120//14 121//13 119//13
f 119//13 121//13 122//13
f 121//13 123//13 122//13
f 123//13 124//14 122//13
f 122//13 124//14 125//13
f 124//14 126//13 125//13
f 125//13 126//13 127//13
f 126//13 128//13 127//13
f 127//13 128//13 129//13
f 128//13 130//13 129//13
f 130//13 131//13 129//13
f 129//13 131//13 132//13
f 131//13 133//13 132//13
f 132//13 133//13 134//13
f 133//13 135//13 134//13
f 134//13 135//13 136//13
f 137//13 136//13 135//13
f 138//43 139//13 140//44
f 140//44 139//13 141//45
f 141//45 139//13 142//13
f 142//13 139//13 117//13
f 117//13 139//13 115//13
f 139//13 143//13 115//13
f 144//13 115//13 143//13
f 145//46 146//46 147//46
f 146//46 145//46 148//46
f 149//47 150//47 151//47
f 152//47 151//47 150//47
f 153//48 154//48 155//48
f 154//48 153//48 156//48
f 157//49 158//49 159//49
f 160//49 159//49 158//49
f 161//50 162//50 163//50
f 162//50 161//50 164//50
f 165//51 166//51 167//51
f 168//51 167//51 166//51
f 169//52 170//53 171//52
f 170//53 169//52 172//53
f 173//54 174//55 175//54
f 176//55 175//54 174//55
f 177//56 178//57 179//56
f 178//57 177//56 180//57
f 181//58 182//59 183//58
f 184//59 183//58 182//59
f 185//60 186//61 187//60
f 186//61 185//60 188//62
f 189//63 190//64 191//65
f 192//64 191//65 190//64
f 193//66 194//66 195//66
f 194//66 193//66 196//66
f 197//67 198//67 199//67
f 200//67 199//67 198//67
f 201//68 202//68 203//68
f 202//68 201//68 204//68
f 205//69 206//69 207//69
f 208//69 207//69 206//69
f 209//70 210//70 211//70
f 210//70 209//70 212//70
f 213//71 214//71 215//71
f 216//71 215//71 214//71
f 217//72 218//73 219//73
f 218//73 217//72 220//72
f 221//74 222//74 223//75
f 224//75 223//75 222//74
f 225//76 226//77 227//77
f 226//77 225//76 228//76
f 229//78 230//78 231//79
f 232//79 231//79 230//78
f 233//80 234//80 235//80
f 234//80 233//80 236//80
f 237//81 238//81 239//81
f 240//81 239//81 238//81
f 241//82 242//82 243//82
f 242//82 241//82 244//82
f 245//83 246//83 247//83
f 248//83 247//83 246//83
f 249//84 250//84 251//84
f 250//84 249//84 252//84
f 253//85 254//85 255//85
f 256//85 255//85 254//85
f 257//83 258//83 259//83
f 258//83 257//83 260//83
f 261//82 262//82 263//82
f 264//82 263//82 262//82
f 265//47 266//47 267//86
f 266//47 265//47 268//47
f 269//46 270//46 271//46
f 272//87 271//46 270//46
f 273//88 274//88 275//88
f 274//88 273//88 276//88
f 277//89 278//89 279//89
f 280//89 279//89 278//89
f 281//90 282//90 283//91
f 282//90 281//90 284//90
f 285//92 286//92 287//92
f 288//93 287//92 286//92
f 289//94 290//94 291//94
f 290//94 289//94 292//94
f 293//95 294//95 295//95
f 296//95 295//95 294//95
f 297//78 298//78 299//78
f 298//78 297//78 300//78
f 301//76 302//76 303//76
f 304//76 303//76 302//76
f 305//96 306//96 307//96
f 306//96 305//96 308//74
f 309//97 310//97 311//97
f 312//97 311//97 310//97
f 313//98 314//71 315//98
f 314//71 313//98 316//71
f 317//70 318//99 319//70
f 320//99 319//70 318//99
f 321//69 322//69 323//69
f 322//69 321//69 324//69
f 325//68 326//68 327//68
f 328//68 327//68 326//68
f 329//67 330//67 331//67
f 330//67 329//67 332//67
f 333//66 334//66 335//66
f 336//66 335//66 334//66
f 337//64 338//64 339//64
f 338//64 337//64 340//64
f 341//60 342//60 343//60
f 344//60 343//60 342//60
f 345//59 346//100 347//100
f 346//100 345//59 348//59
f 349//56 350//56 351//101
f 352//101 351//101 350//56
f 353//55 354//55 355//55
f 354//55 353//55 356//55
f 357//52 358//52 359//52
f 360//52 359//52 358//52
f 361//51 362//51 363//51
f 362//51 361//51 364//51
f 365//50 366//50 367//50
f 368//50 367//50 366//50