# Blender v3.0.1 OBJ File: ''
# www.blender.org
mtllib 04.mtl
o group_2.077_ID364.072
v 0.546027 -0.622179 -0.504978
v 0.519506 -0.339151 -0.441961
v 0.562479 -0.633704 -0.435424
v 0.535957 -0.350675 -0.372407
v 0.595366 -0.629867 -0.442433
v 0.578914 -0.618343 -0.511988
v 0.562479 -0.633704 -0.435424
v 0.546027 -0.622179 -0.504978
v 0.562479 -0.633704 -0.435424
v 0.578914 -0.618343 -0.511988
v 0.595366 -0.629867 -0.442433
v 0.546027 -0.622179 -0.504978
v 0.557452 -0.225998 -0.352836
v 0.568845 -0.346839 -0.379417
v 0.524565 -0.229835 -0.345827
v 0.535957 -0.350675 -0.372407
v 0.568845 -0.346839 -0.379417
v 0.524565 -0.229835 -0.345827
v 0.535957 -0.350675 -0.372407
v 0.557452 -0.225998 -0.352836
v 0.552393 -0.335314 -0.448971
v 0.508113 -0.218311 -0.415381
v 0.541000 -0.214474 -0.422390
v 0.519506 -0.339151 -0.441961
v 0.524565 -0.229835 -0.345827
v 0.476532 0.118720 -0.340340
v 0.508113 -0.218311 -0.415381
v 0.492983 0.107195 -0.270786
v 0.508113 -0.218311 -0.415381
v 0.476532 0.118720 -0.340340
v 0.524565 -0.229835 -0.345827
v 0.492983 0.107195 -0.270786
v 0.562478 -0.633704 -0.435424
v 0.519506 -0.339151 -0.441961
v 0.546027 -0.622179 -0.504978
v 0.535957 -0.350675 -0.372407
v 0.595366 -0.629867 -0.442433
v 0.535957 -0.350675 -0.372407
v 0.562478 -0.633704 -0.435424
v 0.568845 -0.346839 -0.379417
v 0.541000 -0.214474 -0.422390
v 0.557452 -0.225998 -0.352836
v 0.568845 -0.346839 -0.379417
v 0.509820 0.118282 -0.348301
v 0.526271 0.106757 -0.278748
v 0.595366 -0.629867 -0.442433
v 0.552393 -0.335314 -0.448971
v 0.578914 -0.618343 -0.511988
v 0.578914 -0.618343 -0.511988
v 0.595366 -0.629867 -0.442433
v 0.552393 -0.335314 -0.448971
v 0.541000 -0.214474 -0.422390
v 0.557452 -0.225998 -0.352836
v 0.509820 0.118282 -0.348301
v 0.568845 -0.346839 -0.379417
v 0.526271 0.106757 -0.278748
v 0.557452 -0.225998 -0.352836
v 0.492983 0.107195 -0.270786
v 0.524565 -0.229835 -0.345827
v 0.526271 0.106757 -0.278748
v 0.537242 0.252657 -0.252092
v 0.502151 0.258858 -0.242548
v 0.584200 0.438901 -0.225859
v 0.549109 0.445102 -0.216315
v 0.549109 0.445102 -0.216315
v 0.584200 0.438901 -0.225859
v 0.502151 0.258858 -0.242548
v 0.537242 0.252657 -0.252092
v 0.492983 0.107195 -0.270786
v 0.524565 -0.229835 -0.345827
v 0.557452 -0.225998 -0.352836
v 0.526271 0.106757 -0.278748
v 0.509820 0.118282 -0.348301
v 0.476532 0.118720 -0.340340
v 0.520790 0.264181 -0.321645
v 0.541000 -0.214474 -0.422390
v 0.508113 -0.218311 -0.415381
v 0.485699 0.270382 -0.312102
v 0.567748 0.450426 -0.295413
v 0.532658 0.456627 -0.285870
v 0.532658 0.456627 -0.285870
v 0.485699 0.270382 -0.312102
v 0.567748 0.450426 -0.295413
v 0.520790 0.264181 -0.321645
v 0.476532 0.118720 -0.340340
v 0.509820 0.118282 -0.348301
v 0.541000 -0.214474 -0.422390
v 0.508113 -0.218311 -0.415381
v 0.578914 -0.618343 -0.511988
v 0.519506 -0.339151 -0.441961
v 0.552393 -0.335314 -0.448971
v 0.546027 -0.622179 -0.504978
v 0.492983 0.107195 -0.270786
v 0.485699 0.270382 -0.312102
v 0.476532 0.118720 -0.340340
v 0.502151 0.258858 -0.242548
v 0.476532 0.118720 -0.340340
v 0.485699 0.270382 -0.312102
v 0.492983 0.107195 -0.270786
v 0.502151 0.258858 -0.242548
v 0.520790 0.264181 -0.321645
v 0.526271 0.106757 -0.278748
v 0.509820 0.118282 -0.348301
v 0.537242 0.252657 -0.252092
v 0.509820 0.118282 -0.348301
v 0.526271 0.106757 -0.278748
v 0.520790 0.264181 -0.321645
v 0.537242 0.252657 -0.252092
v 0.567748 0.450426 -0.295413
v 0.537242 0.252657 -0.252092
v 0.520790 0.264181 -0.321645
v 0.584200 0.438901 -0.225859
v 0.520790 0.264181 -0.321645
v 0.537242 0.252657 -0.252092
v 0.567748 0.450426 -0.295413
v 0.584200 0.438901 -0.225859
v 0.567748 0.450426 -0.295413
v 0.549109 0.445102 -0.216315
v 0.584200 0.438901 -0.225859
v 0.532658 0.456627 -0.285870
v 0.584200 0.438901 -0.225859
v 0.549109 0.445102 -0.216315
v 0.567748 0.450426 -0.295413
v 0.532658 0.456627 -0.285870
v 0.502151 0.258858 -0.242548
v 0.532658 0.456627 -0.285870
v 0.485699 0.270382 -0.312102
v 0.549109 0.445102 -0.216315
v 0.485699 0.270382 -0.312102
v 0.532658 0.456627 -0.285870
v 0.502151 0.258858 -0.242548
v 0.549109 0.445102 -0.216315
v 0.568845 -0.346839 -0.379417
v 0.595366 -0.629867 -0.442433
v 0.535957 -0.350675 -0.372407
v 0.562478 -0.633704 -0.435424
v 0.541000 -0.214474 -0.422390
v 0.508113 -0.218311 -0.415381
v 0.552393 -0.335314 -0.448971
v 0.519506 -0.339151 -0.441961
v 0.552393 -0.335314 -0.448971
v 0.519506 -0.339151 -0.441961
v 0.578914 -0.618343 -0.511988
v 0.546027 -0.622179 -0.504978
vn 0.9688 0.1368 -0.2065
vn -0.0760 0.9806 0.1804
vn -0.0759 0.9806 0.1804
vn 0.0759 -0.9806 -0.1804
vn 0.0760 -0.9806 -0.1804
vn -0.2257 0.1889 -0.9557
vn 0.2257 -0.1889 0.9557
vn -0.2258 0.1889 -0.9557
vn -0.9688 -0.1368 0.2065
vn 0.2259 -0.1915 0.9551
vn -0.2259 0.1915 -0.9551
vn -0.9725 0.0155 0.2326
vn 0.9725 -0.0155 -0.2326
vn 0.9716 -0.0302 -0.2348
vn -0.9716 0.0302 0.2348
vn 0.9450 -0.2021 -0.2570
vn -0.9450 0.2021 0.2570
vn 0.2027 0.9727 0.1132
vn -0.2027 -0.9727 -0.1132
vn 0.2258 -0.1889 0.9557
usemtl Color_A05.002
s 1
f 1//1 2//1 3//1
f 4//1 3//1 2//1
f 5//2 6//3 7//3
f 8//3 7//3 6//3
f 9//4 10//4 11//5
f 10//4 9//4 12//4
f 13//6 14//6 15//6
f 16//6 15//6 14//6
f 17//7 18//7 19//7
f 18//7 17//7 20//7
f 21//6 22//6 23//6
f 22//6 21//6 24//8
f 25//9 26//9 27//9
f 26//9 25//9 28//9
f 29//1 30//1 31//1
f 32//1 31//1 30//1
f 33//9 34//9 35//9
f 34//9 33//9 36//9
f 37//10 38//10 39//10
f 38//10 37//10 40//10
f 41//1 42//1 43//1
f 44//1 42//1 41//1
f 42//1 44//1 45//1
f 41//1 43//1 46//1
f 41//1 46//1 47//1
f 47//1 46//1 48//1
f 49//9 50//9 51//9
f 51//9 50//9 52//9
f 52//9 53//9 54//9
f 55//9 53//9 52//9
f 50//9 55//9 52//9
f 56//9 54//9 53//9
f 57//10 58//10 59//10
f 58//10 57//10 60//10
f 58//10 60//10 61//10
f 58//10 61//10 62//10
f 62//10 63//10 64//10
f 62//10 61//10 63//10
f 65//11 66//11 67//11
f 67//11 68//11 69//11
f 66//11 68//11 67//11
f 70//11 69//11 71//11
f 72//11 71//11 69//11
f 68//11 72//11 69//11
f 73//11 74//11 75//11
f 76//11 74//11 73//11
f 74//11 76//11 77//11
f 75//11 74//11 78//11
f 75//11 78//11 79//11
f 79//11 78//11 80//11
f 81//10 82//10 83//10
f 83//10 82//10 84//10
f 84//10 85//10 86//10
f 82//10 85//10 84//10
f 86//10 85//10 87//10
f 88//10 87//10 85//10
f 89//11 90//11 91//11
f 90//11 89//11 92//11
f 93//12 94//12 95//12
f 94//12 93//12 96//12
f 97//13 98//13 99//13
f 100//13 99//13 98//13
f 101//14 102//14 103//14
f 102//14 101//14 104//14
f 105//15 106//15 107//15
f 108//15 107//15 106//15
f 109//16 110//16 111//16
f 110//16 109//16 112//16
f 113//17 114//17 115//17
f 116//17 115//17 114//17
f 117//18 118//18 119//18
f 118//18 117//18 120//18
f 121//19 122//19 123//19
f 124//19 123//19 122//19
f 125//17 126//17 127//17
f 126//17 125//17 128//17
f 129//16 130//16 131//16
f 132//16 131//16 130//16
f 133//11 134//11 135//11
f 136//11 135//11 134//11
f 137//7 138//7 139//7
f 140//20 139//7 138//7
f 141//10 142//10 143//10
f 144//10 143//10 142//10