# Blender v3.0.1 OBJ File: ''
# www.blender.org
mtllib 05.mtl
o group_2.010_ID364.100
v 0.441299 -0.157917 -0.311887
v 0.424847 -0.146392 -0.381441
v 0.431397 -0.154184 -0.308804
v 0.414946 -0.142659 -0.378358
v 0.427694 -0.130580 -0.303261
v 0.440214 -0.134030 -0.306910
v 0.158577 -0.132361 -0.239858
v 0.452256 -0.138571 -0.310660
v 0.463706 -0.144158 -0.314477
v 0.474454 -0.150738 -0.318323
v 0.423462 -0.151996 -0.306491
v 0.158010 -0.153753 -0.243952
v 0.431397 -0.154184 -0.308804
v 0.441299 -0.157917 -0.311887
v 0.484395 -0.158248 -0.322162
v 0.450713 -0.162511 -0.315026
v 0.493434 -0.166614 -0.325957
v 0.459549 -0.167921 -0.318188
v 0.467722 -0.174094 -0.321344
v 0.501484 -0.175758 -0.329671
v 0.475154 -0.180973 -0.324464
v 0.508468 -0.185590 -0.333269
v 0.481772 -0.188491 -0.327518
v 0.514319 -0.196016 -0.336716
v 0.487515 -0.196575 -0.330476
v 0.492325 -0.205147 -0.333310
v 0.518979 -0.206937 -0.339978
v 0.496157 -0.214125 -0.335992
v 0.522406 -0.218246 -0.343025
v 0.498974 -0.223424 -0.338497
v 0.524565 -0.229835 -0.345827
v 0.500845 -0.233468 -0.340925
v 0.535957 -0.350675 -0.372407
v 0.512170 -0.353789 -0.367387
v 0.431397 -0.154184 -0.308804
v 0.414946 -0.142659 -0.378358
v 0.423462 -0.151996 -0.306491
v 0.407010 -0.140472 -0.376046
v 0.407010 -0.140472 -0.376046
v 0.414946 -0.142659 -0.378358
v 0.458002 -0.139214 -0.387877
v 0.142126 -0.120836 -0.309413
v 0.141558 -0.142229 -0.313506
v 0.411242 -0.119055 -0.372816
v 0.423762 -0.122506 -0.376464
v 0.435805 -0.127046 -0.380214
v 0.447255 -0.132634 -0.384031
v 0.424847 -0.146392 -0.381441
v 0.467943 -0.146723 -0.391717
v 0.434261 -0.150986 -0.384579
v 0.476983 -0.155090 -0.395511
v 0.443097 -0.156396 -0.387742
v 0.451271 -0.162570 -0.390898
v 0.485033 -0.164233 -0.399226
v 0.458703 -0.169449 -0.394018
v 0.492017 -0.174066 -0.402823
v 0.465321 -0.176966 -0.397072
v 0.497867 -0.184492 -0.406270
v 0.471063 -0.185050 -0.400030
v 0.475873 -0.193623 -0.402864
v 0.502528 -0.195412 -0.409532
v 0.479706 -0.202601 -0.405546
v 0.505954 -0.206721 -0.412579
v 0.482523 -0.211899 -0.408051
v 0.508113 -0.218311 -0.415381
v 0.484394 -0.221943 -0.410479
v 0.519506 -0.339151 -0.441961
v 0.495719 -0.342264 -0.436941
v 0.450713 -0.162511 -0.315026
v 0.434261 -0.150986 -0.384579
v 0.441299 -0.157917 -0.311887
v 0.424847 -0.146392 -0.381441
v 0.484395 -0.158248 -0.322162
v 0.474454 -0.150738 -0.318323
v 0.467943 -0.146723 -0.391717
v 0.458002 -0.139214 -0.387877
v 0.474454 -0.150738 -0.318323
v 0.463706 -0.144158 -0.314477
v 0.458002 -0.139214 -0.387877
v 0.447255 -0.132634 -0.384031
v 0.463706 -0.144158 -0.314477
v 0.452256 -0.138571 -0.310660
v 0.447255 -0.132634 -0.384031
v 0.435805 -0.127046 -0.380214
v 0.452256 -0.138571 -0.310660
v 0.440214 -0.134030 -0.306910
v 0.435805 -0.127046 -0.380214
v 0.423762 -0.122506 -0.376464
v 0.440214 -0.134030 -0.306910
v 0.427694 -0.130580 -0.303261
v 0.423762 -0.122506 -0.376464
v 0.411242 -0.119055 -0.372816
v 0.427694 -0.130580 -0.303261
v 0.158577 -0.132361 -0.239858
v 0.411242 -0.119055 -0.372816
v 0.142126 -0.120836 -0.309413
v 0.423462 -0.151996 -0.306491
v 0.407010 -0.140472 -0.376046
v 0.158010 -0.153753 -0.243952
v 0.141558 -0.142229 -0.313506
v 0.459549 -0.167921 -0.318188
v 0.443097 -0.156396 -0.387742
v 0.450713 -0.162511 -0.315026
v 0.434261 -0.150986 -0.384579
v 0.467722 -0.174094 -0.321344
v 0.451271 -0.162570 -0.390898
v 0.459549 -0.167921 -0.318188
v 0.443097 -0.156396 -0.387742
v 0.475154 -0.180973 -0.324464
v 0.458703 -0.169449 -0.394018
v 0.467722 -0.174094 -0.321344
v 0.451271 -0.162570 -0.390898
v 0.465321 -0.176966 -0.397072
v 0.458703 -0.169449 -0.394018
v 0.481772 -0.188491 -0.327518
v 0.475154 -0.180973 -0.324464
v 0.505954 -0.206721 -0.412579
v 0.524565 -0.229835 -0.345827
v 0.508113 -0.218311 -0.415381
v 0.522406 -0.218246 -0.343025
v 0.508113 -0.218311 -0.415381
v 0.524565 -0.229835 -0.345827
v 0.505954 -0.206721 -0.412579
v 0.522406 -0.218246 -0.343025
v 0.502528 -0.195412 -0.409532
v 0.522406 -0.218246 -0.343025
v 0.505954 -0.206721 -0.412579
v 0.518979 -0.206937 -0.339978
v 0.505954 -0.206721 -0.412579
v 0.522406 -0.218246 -0.343025
v 0.502528 -0.195412 -0.409532
v 0.518979 -0.206937 -0.339978
v 0.502528 -0.195412 -0.409532
v 0.518979 -0.206937 -0.339978
v 0.497867 -0.184492 -0.406270
v 0.514319 -0.196016 -0.336716
v 0.497867 -0.184492 -0.406270
v 0.514319 -0.196016 -0.336716
v 0.492017 -0.174066 -0.402823
v 0.508468 -0.185590 -0.333269
v 0.492017 -0.174066 -0.402823
v 0.508468 -0.185590 -0.333269
v 0.485033 -0.164233 -0.399226
v 0.501484 -0.175758 -0.329671
v 0.485033 -0.164233 -0.399226
v 0.501484 -0.175758 -0.329671
v 0.476983 -0.155090 -0.395511
v 0.493434 -0.166614 -0.325957
v 0.493434 -0.166614 -0.325957
v 0.484395 -0.158248 -0.322162
v 0.476983 -0.155090 -0.395511
v 0.467943 -0.146723 -0.391717
v 0.141558 -0.142229 -0.313506
v 0.142126 -0.120836 -0.309413
v 0.158010 -0.153753 -0.243952
v 0.158577 -0.132361 -0.239858
v 0.471063 -0.185050 -0.400030
v 0.465321 -0.176966 -0.397072
v 0.487515 -0.196575 -0.330476
v 0.481772 -0.188491 -0.327518
v 0.475873 -0.193623 -0.402864
v 0.471063 -0.185050 -0.400030
v 0.492325 -0.205147 -0.333310
v 0.487515 -0.196575 -0.330476
v 0.479706 -0.202601 -0.405546
v 0.475873 -0.193623 -0.402864
v 0.496157 -0.214125 -0.335992
v 0.492325 -0.205147 -0.333310
v 0.482523 -0.211899 -0.408051
v 0.479706 -0.202601 -0.405546
v 0.498974 -0.223424 -0.338497
v 0.496157 -0.214125 -0.335992
v 0.484394 -0.221943 -0.410479
v 0.482523 -0.211899 -0.408051
v 0.500845 -0.233468 -0.340925
v 0.498974 -0.223424 -0.338497
v 0.495719 -0.342264 -0.436941
v 0.484394 -0.221943 -0.410479
v 0.512170 -0.353789 -0.367387
v 0.500845 -0.233468 -0.340925
v 0.535957 -0.350675 -0.372407
v 0.519506 -0.339151 -0.441961
v 0.512170 -0.353789 -0.367387
v 0.495719 -0.342264 -0.436941
v 0.535957 -0.350675 -0.372407
v 0.508113 -0.218311 -0.415381
v 0.519506 -0.339151 -0.441961
v 0.524565 -0.229835 -0.345827
v 0.519506 -0.339151 -0.441961
v 0.508113 -0.218311 -0.415381
v 0.535957 -0.350675 -0.372407
v 0.524565 -0.229835 -0.345827
v 0.497867 -0.184492 -0.406270
v 0.518979 -0.206937 -0.339978
v 0.502528 -0.195412 -0.409532
v 0.514319 -0.196016 -0.336716
v 0.492017 -0.174066 -0.402823
v 0.514319 -0.196016 -0.336716
v 0.497867 -0.184492 -0.406270
v 0.508468 -0.185590 -0.333269
v 0.485033 -0.164233 -0.399226
v 0.508468 -0.185590 -0.333269
v 0.492017 -0.174066 -0.402823
v 0.501484 -0.175758 -0.329671
v 0.476983 -0.155090 -0.395511
v 0.501484 -0.175758 -0.329671
v 0.485033 -0.164233 -0.399226
v 0.493434 -0.166614 -0.325957
v 0.476983 -0.155090 -0.395511
v 0.484395 -0.158248 -0.322162
v 0.493434 -0.166614 -0.325957
v 0.467943 -0.146723 -0.391717
v 0.142126 -0.120836 -0.309413
v 0.158010 -0.153753 -0.243952
v 0.158577 -0.132361 -0.239858
v 0.141558 -0.142229 -0.313506
v 0.487515 -0.196575 -0.330476
v 0.465321 -0.176966 -0.397072
v 0.471063 -0.185050 -0.400030
v 0.481772 -0.188491 -0.327518
v 0.471063 -0.185050 -0.400030
v 0.492325 -0.205147 -0.333310
v 0.487515 -0.196575 -0.330476
v 0.475873 -0.193623 -0.402864
v 0.496157 -0.214125 -0.335992
v 0.475873 -0.193623 -0.402864
v 0.479706 -0.202601 -0.405546
v 0.492325 -0.205147 -0.333310
v 0.498974 -0.223424 -0.338497
v 0.479706 -0.202601 -0.405546
v 0.482523 -0.211899 -0.408051
v 0.496157 -0.214125 -0.335992
v 0.500845 -0.233468 -0.340925
v 0.482523 -0.211899 -0.408051
v 0.484394 -0.221943 -0.410479
v 0.498974 -0.223424 -0.338497
v 0.512170 -0.353789 -0.367387
v 0.484394 -0.221943 -0.410479
v 0.495719 -0.342264 -0.436941
v 0.500845 -0.233468 -0.340925
v 0.512170 -0.353789 -0.367387
v 0.519506 -0.339151 -0.441961
v 0.535957 -0.350675 -0.372407
v 0.495719 -0.342264 -0.436941
vn 0.3699 0.9267 0.0661
vn 0.3700 0.9267 0.0660
vn -0.2264 0.1891 -0.9555
vn -0.2264 0.1888 -0.9556
vn -0.2264 0.1889 -0.9556
vn -0.2264 0.1890 -0.9555
vn 0.2889 0.9531 0.0896
vn 0.2888 0.9532 0.0896
vn 0.2264 -0.1889 0.9555
vn 0.2264 -0.1888 0.9556
vn 0.2264 -0.1889 0.9556
vn 0.4493 0.8924 0.0416
vn -0.6004 -0.7996 0.0095
vn -0.6004 -0.7997 0.0095
vn -0.5263 -0.8501 -0.0164
vn -0.4493 -0.8924 -0.0416
vn -0.4494 -0.8924 -0.0416
vn -0.3700 -0.9267 -0.0660
vn -0.3699 -0.9267 -0.0660
vn -0.2888 -0.9532 -0.0896
vn -0.0303 -0.9872 -0.1564
vn 0.0303 0.9872 0.1564
vn 0.5264 0.8501 0.0164
vn 0.6003 0.7997 -0.0095
vn 0.6004 0.7997 -0.0095
vn 0.6707 0.7409 -0.0359
vn 0.7364 0.6737 -0.0625
vn 0.7364 0.6737 -0.0626
vn 0.9561 0.2238 -0.1891
vn -0.9561 -0.2238 0.1891
vn 0.9305 0.3266 -0.1660
vn 0.9305 0.3267 -0.1659
vn -0.9305 -0.3266 0.1660
vn -0.9305 -0.3267 0.1659
vn -0.8946 -0.4240 0.1413
vn -0.8946 -0.4240 0.1414
vn -0.8946 -0.4239 0.1414
vn -0.8494 -0.5149 0.1156
vn -0.7963 -0.5982 0.0892
vn -0.7963 -0.5983 0.0892
vn -0.7363 -0.6737 0.0625
vn -0.7364 -0.6737 0.0625
vn -0.7364 -0.6737 0.0626
vn -0.6707 -0.7409 0.0359
vn 0.9736 0.0177 -0.2274
vn 0.9737 0.0177 -0.2274
vn 0.7963 0.5983 -0.0892
vn 0.8495 0.5148 -0.1156
vn 0.8494 0.5149 -0.1156
vn 0.8945 0.4241 -0.1413
vn 0.8945 0.4240 -0.1413
vn 0.9689 0.1366 -0.2065
vn -0.0895 0.9790 0.1834
vn -0.0894 0.9790 0.1834
vn -0.9688 -0.1368 0.2065
vn 0.9688 0.1368 -0.2065
vn 0.8946 0.4240 -0.1413
vn 0.8946 0.4240 -0.1414
vn 0.8946 0.4239 -0.1414
vn 0.7963 0.5982 -0.0892
vn 0.7363 0.6737 -0.0625
vn -0.9736 -0.0177 0.2274
vn -0.9737 -0.0177 0.2274
vn -0.8495 -0.5148 0.1156
vn -0.8945 -0.4240 0.1413
vn -0.8945 -0.4241 0.1413
vn -0.9689 -0.1366 0.2065
vn 0.0895 -0.9790 -0.1834
vn 0.0894 -0.9790 -0.1834
usemtl Color_A05.003
s 1
f 1//1 2//2 3//1
f 4//2 3//1 2//2
f 5//3 6//4 7//5
f 6//4 8//5 7//5
f 8//5 9//4 7//5
f 9//4 10//4 7//5
f 10//4 11//4 7//5
f 12//5 7//5 11//4
f 11//4 10//4 13//3
f 13//3 10//4 14//4
f 14//4 15//5 16//6
f 10//4 15//5 14//4
f 15//5 17//4 16//6
f 16//6 17//4 18//4
f 18//4 17//4 19//4
f 19//4 20//5 21//4
f 17//4 20//5 19//4
f 20//5 22//5 21//4
f 21//4 22//5 23//5
f 22//5 24//4 23//5
f 23//5 24//4 25//4
f 25//4 24//4 26//5
f 24//4 27//4 26//5
f 26//5 27//4 28//4
f 27//4 29//5 28//4
f 28//4 29//5 30//4
f 29//5 31//4 30//4
f 30//4 31//4 32//4
f 31//4 33//4 32//4
f 34//4 32//4 33//4
f 35//7 36//8 37//7
f 38//8 37//7 36//8
f 39//9 40//10 41//9
f 41//9 42//10 39//9
f 43//10 39//9 42//10
f 44//10 42//10 45//10
f 45//10 42//10 46//11
f 46//11 42//10 47//10
f 47//10 42//10 41//9
f 40//10 48//10 41//9
f 41//9 48//10 49//10
f 48//10 50//10 49//10
f 49//10 50//10 51//9
f 50//10 52//9 51//9
f 52//9 53//10 51//9
f 51//9 53//10 54//10
f 53//10 55//10 54//10
f 54//10 55//10 56//11
f 55//10 57//9 56//11
f 56//11 57//9 58//11
f 59//11 60//10 58//11
f 57//9 59//11 58//11
f 58//11 60//10 61//10
f 60//10 62//10 61//10
f 61//10 62//10 63//11
f 62//10 64//10 63//11
f 63//11 64//10 65//10
f 64//10 66//10 65//10
f 65//10 66//10 67//10
f 68//10 67//10 66//10
f 69//12 70//12 71//12
f 72//12 71//12 70//12
f 73//13 74//13 75//14
f 76//14 75//14 74//13
f 77//15 78//15 79//15
f 80//15 79//15 78//15
f 81//16 82//16 83//17
f 84//17 83//17 82//16
f 85//18 86//18 87//19
f 88//19 87//19 86//18
f 89//20 90//20 91//20
f 92//20 91//20 90//20
f 93//21 94//21 95//21
f 96//21 95//21 94//21
f 97//22 98//22 99//22
f 100//22 99//22 98//22
f 101//23 102//23 103//23
f 104//23 103//23 102//23
f 105//24 106//24 107//24
f 108//25 107//24 106//24
f 109//26 110//26 111//26
f 112//26 111//26 110//26
f 113//27 114//27 115//28
f 116//28 115//28 114//27
f 117//29 118//29 119//29
f 118//29 117//29 120//29
f 121//30 122//30 123//30
f 124//30 123//30 122//30
f 125//31 126//32 127//31
f 126//32 125//31 128//32
f 129//33 130//34 131//33
f 132//34 131//33 130//34
f 133//35 134//36 135//35
f 136//37 135//35 134//36
f 137//38 138//38 139//38
f 140//38 139//38 138//38
f 141//39 142//40 143//39
f 144//40 143//39 142//40
f 145//41 146//42 147//41
f 148//43 147//41 146//42
f 149//44 150//44 151//44
f 152//44 151//44 150//44
f 153//45 154//45 155//46
f 156//46 155//46 154//45
f 157//47 158//47 159//47
f 160//47 159//47 158//47
f 161//48 162//48 163//49
f 164//49 163//49 162//48
f 165//50 166//50 167//51
f 168//51 167//51 166//50
f 169//31 170//31 171//31
f 172//31 171//31 170//31
f 173//29 174//29 175//29
f 176//29 175//29 174//29
f 177//52 178//52 179//52
f 180//52 179//52 178//52
f 181//53 182//54 183//53
f 184//54 183//53 182//54
f 185//55 186//55 187//55
f 186//55 185//55 188//55
f 189//56 190//56 191//56
f 192//56 191//56 190//56
f 193//57 194//58 195//57
f 194//58 193//57 196//59
f 197//49 198//49 199//49
f 198//49 197//49 200//49
f 201//60 202//47 203//60
f 202//47 201//60 204//47
f 205//61 206//27 207//61
f 206//27 205//61 208//28
f 209//26 210//26 211//26
f 210//26 209//26 212//26
f 213//62 214//63 215//63
f 214//63 213//62 216//62
f 217//40 218//40 219//40
f 218//40 217//40 220//40
f 221//64 222//38 223//38
f 222//38 221//64 224//64
f 225//65 226//66 227//66
f 226//66 225//65 228//65
f 229//33 230//33 231//33
f 230//33 229//33 232//33
f 233//30 234//30 235//30
f 234//30 233//30 236//30
f 237//67 238//67 239//67
f 238//67 237//67 240//67
f 241//68 242//69 243//68
f 242//69 241//68 244//69