# Blender v3.0.1 OBJ File: ''
# www.blender.org
mtllib 06.mtl
o group_2.012_ID372.007
v 0.484394 -0.221943 0.386573
v 0.519506 -0.339151 0.418055
v 0.508113 -0.218311 0.391474
v 0.495719 -0.342264 0.413035
v 0.482523 -0.211899 0.384144
v 0.505954 -0.206721 0.388672
v 0.479706 -0.202601 0.381639
v 0.502528 -0.195412 0.385625
v 0.475873 -0.193623 0.378957
v 0.497867 -0.184492 0.382363
v 0.471063 -0.185050 0.376123
v 0.465321 -0.176966 0.373166
v 0.492017 -0.174066 0.378917
v 0.458703 -0.169449 0.370112
v 0.485033 -0.164233 0.375319
v 0.451271 -0.162570 0.366992
v 0.476983 -0.155090 0.371605
v 0.443097 -0.156396 0.363835
v 0.434261 -0.150986 0.360673
v 0.467943 -0.146723 0.367810
v 0.424847 -0.146392 0.357535
v 0.458002 -0.139214 0.363971
v 0.414946 -0.142659 0.354451
v 0.407010 -0.140472 0.352139
v 0.142126 -0.120836 0.285506
v 0.447255 -0.132634 0.360124
v 0.435805 -0.127046 0.356307
v 0.423762 -0.122506 0.352557
v 0.411242 -0.119055 0.348909
v 0.141558 -0.142229 0.289599
v 0.435805 -0.127046 0.356307
v 0.440214 -0.134030 0.283003
v 0.423762 -0.122506 0.352557
v 0.452256 -0.138571 0.286753
v 0.452256 -0.138571 0.286753
v 0.435805 -0.127046 0.356307
v 0.440214 -0.134030 0.283003
v 0.423762 -0.122506 0.352557
v 0.423462 -0.151996 0.282585
v 0.158577 -0.132361 0.215952
v 0.474454 -0.150738 0.294417
v 0.158010 -0.153753 0.220045
v 0.463706 -0.144158 0.290570
v 0.452256 -0.138571 0.286753
v 0.440214 -0.134030 0.283003
v 0.427694 -0.130580 0.279355
v 0.441299 -0.157917 0.287981
v 0.431397 -0.154184 0.284897
v 0.484395 -0.158248 0.298256
v 0.493434 -0.166614 0.302051
v 0.450713 -0.162511 0.291119
v 0.459549 -0.167921 0.294281
v 0.467722 -0.174094 0.297438
v 0.501484 -0.175758 0.305765
v 0.475154 -0.180973 0.300558
v 0.508468 -0.185590 0.309363
v 0.481772 -0.188491 0.303611
v 0.514319 -0.196016 0.312809
v 0.487515 -0.196575 0.306569
v 0.492325 -0.205147 0.309403
v 0.518979 -0.206937 0.316071
v 0.496157 -0.214125 0.312085
v 0.522406 -0.218246 0.319118
v 0.498974 -0.223424 0.314590
v 0.524565 -0.229835 0.321920
v 0.500845 -0.233468 0.317019
v 0.535957 -0.350675 0.348501
v 0.512170 -0.353789 0.343481
v 0.423462 -0.151996 0.282585
v 0.431397 -0.154184 0.284897
v 0.474454 -0.150738 0.294417
v 0.158577 -0.132361 0.215952
v 0.158010 -0.153753 0.220045
v 0.427694 -0.130580 0.279355
v 0.440214 -0.134030 0.283003
v 0.452256 -0.138571 0.286753
v 0.463706 -0.144158 0.290570
v 0.441299 -0.157917 0.287981
v 0.484395 -0.158248 0.298256
v 0.450713 -0.162511 0.291119
v 0.493434 -0.166614 0.302051
v 0.459549 -0.167921 0.294281
v 0.467722 -0.174094 0.297438
v 0.501484 -0.175758 0.305765
v 0.475154 -0.180973 0.300558
v 0.508468 -0.185590 0.309363
v 0.481772 -0.188491 0.303611
v 0.514319 -0.196016 0.312809
v 0.487515 -0.196575 0.306569
v 0.492325 -0.205147 0.309403
v 0.518979 -0.206937 0.316071
v 0.496157 -0.214125 0.312085
v 0.522406 -0.218246 0.319118
v 0.498974 -0.223424 0.314590
v 0.524565 -0.229835 0.321920
v 0.500845 -0.233468 0.317019
v 0.535957 -0.350675 0.348501
v 0.512170 -0.353789 0.343481
v 0.427694 -0.130580 0.279355
v 0.423762 -0.122506 0.352557
v 0.440214 -0.134030 0.283003
v 0.411242 -0.119055 0.348909
v 0.440214 -0.134030 0.283003
v 0.423762 -0.122506 0.352557
v 0.427694 -0.130580 0.279355
v 0.411242 -0.119055 0.348909
v 0.411242 -0.119055 0.348909
v 0.423762 -0.122506 0.352557
v 0.142126 -0.120836 0.285506
v 0.435805 -0.127046 0.356307
v 0.447255 -0.132634 0.360124
v 0.458002 -0.139214 0.363971
v 0.407010 -0.140472 0.352139
v 0.141558 -0.142229 0.289599
v 0.414946 -0.142659 0.354451
v 0.424847 -0.146392 0.357535
v 0.467943 -0.146723 0.367810
v 0.434261 -0.150986 0.360673
v 0.476983 -0.155090 0.371605
v 0.443097 -0.156396 0.363835
v 0.451271 -0.162570 0.366992
v 0.485033 -0.164233 0.375319
v 0.458703 -0.169449 0.370112
v 0.492017 -0.174066 0.378917
v 0.465321 -0.176966 0.373166
v 0.497867 -0.184492 0.382363
v 0.471063 -0.185050 0.376123
v 0.475873 -0.193623 0.378957
v 0.502528 -0.195412 0.385625
v 0.479706 -0.202601 0.381639
v 0.505954 -0.206721 0.388672
v 0.482523 -0.211899 0.384144
v 0.508113 -0.218311 0.391474
v 0.484394 -0.221943 0.386573
v 0.519506 -0.339151 0.418055
v 0.495719 -0.342264 0.413035
v 0.452256 -0.138571 0.286753
v 0.447255 -0.132634 0.360124
v 0.463706 -0.144158 0.290570
v 0.435805 -0.127046 0.356307
v 0.463706 -0.144158 0.290570
v 0.447255 -0.132634 0.360124
v 0.452256 -0.138571 0.286753
v 0.435805 -0.127046 0.356307
v 0.505954 -0.206721 0.388672
v 0.524565 -0.229835 0.321920
v 0.522406 -0.218246 0.319118
v 0.508113 -0.218311 0.391474
v 0.522406 -0.218246 0.319118
v 0.524565 -0.229835 0.321920
v 0.505954 -0.206721 0.388672
v 0.508113 -0.218311 0.391474
v 0.535957 -0.350675 0.348501
v 0.508113 -0.218311 0.391474
v 0.524565 -0.229835 0.321920
v 0.519506 -0.339151 0.418055
v 0.524565 -0.229835 0.321920
v 0.508113 -0.218311 0.391474
v 0.535957 -0.350675 0.348501
v 0.519506 -0.339151 0.418055
v 0.519506 -0.339151 0.418055
v 0.512170 -0.353789 0.343481
v 0.535957 -0.350675 0.348501
v 0.495719 -0.342264 0.413035
v 0.535957 -0.350675 0.348501
v 0.512170 -0.353789 0.343481
v 0.519506 -0.339151 0.418055
v 0.495719 -0.342264 0.413035
v 0.512170 -0.353789 0.343481
v 0.484394 -0.221943 0.386573
v 0.500845 -0.233468 0.317019
v 0.495719 -0.342264 0.413035
v 0.500845 -0.233468 0.317019
v 0.484394 -0.221943 0.386573
v 0.512170 -0.353789 0.343481
v 0.495719 -0.342264 0.413035
v 0.500845 -0.233468 0.317019
v 0.482523 -0.211899 0.384144
v 0.498974 -0.223424 0.314590
v 0.484394 -0.221943 0.386573
v 0.498974 -0.223424 0.314590
v 0.482523 -0.211899 0.384144
v 0.500845 -0.233468 0.317019
v 0.484394 -0.221943 0.386573
v 0.498974 -0.223424 0.314590
v 0.479706 -0.202601 0.381639
v 0.496157 -0.214125 0.312085
v 0.482523 -0.211899 0.384144
v 0.496157 -0.214125 0.312085
v 0.479706 -0.202601 0.381639
v 0.498974 -0.223424 0.314590
v 0.482523 -0.211899 0.384144
v 0.496157 -0.214125 0.312085
v 0.475873 -0.193623 0.378957
v 0.492325 -0.205147 0.309403
v 0.479706 -0.202601 0.381639
v 0.492325 -0.205147 0.309403
v 0.475873 -0.193623 0.378957
v 0.496157 -0.214125 0.312085
v 0.479706 -0.202601 0.381639
v 0.471063 -0.185050 0.376123
v 0.492325 -0.205147 0.309403
v 0.475873 -0.193623 0.378957
v 0.487515 -0.196575 0.306569
v 0.487515 -0.196575 0.306569
v 0.471063 -0.185050 0.376123
v 0.492325 -0.205147 0.309403
v 0.475873 -0.193623 0.378957
v 0.465321 -0.176966 0.373166
v 0.487515 -0.196575 0.306569
v 0.471063 -0.185050 0.376123
v 0.481772 -0.188491 0.303611
v 0.481772 -0.188491 0.303611
v 0.465321 -0.176966 0.373166
v 0.487515 -0.196575 0.306569
v 0.471063 -0.185050 0.376123
v 0.458703 -0.169449 0.370112
v 0.481772 -0.188491 0.303611
v 0.465321 -0.176966 0.373166
v 0.475154 -0.180973 0.300558
v 0.475154 -0.180973 0.300558
v 0.458703 -0.169449 0.370112
v 0.481772 -0.188491 0.303611
v 0.465321 -0.176966 0.373166
v 0.458703 -0.169449 0.370112
v 0.467722 -0.174094 0.297438
v 0.475154 -0.180973 0.300558
v 0.451271 -0.162570 0.366992
v 0.475154 -0.180973 0.300558
v 0.467722 -0.174094 0.297438
v 0.458703 -0.169449 0.370112
v 0.451271 -0.162570 0.366992
v 0.451271 -0.162570 0.366992
v 0.459549 -0.167921 0.294281
v 0.467722 -0.174094 0.297438
v 0.443097 -0.156396 0.363835
v 0.467722 -0.174094 0.297438
v 0.459549 -0.167921 0.294281
v 0.451271 -0.162570 0.366992
v 0.443097 -0.156396 0.363835
v 0.443097 -0.156396 0.363835
v 0.450713 -0.162511 0.291119
v 0.459549 -0.167921 0.294281
v 0.434261 -0.150986 0.360673
v 0.459549 -0.167921 0.294281
v 0.450713 -0.162511 0.291119
v 0.443097 -0.156396 0.363835
v 0.434261 -0.150986 0.360673
v 0.434261 -0.150986 0.360673
v 0.441299 -0.157917 0.287981
v 0.450713 -0.162511 0.291119
v 0.424847 -0.146392 0.357535
v 0.450713 -0.162511 0.291119
v 0.441299 -0.157917 0.287981
v 0.434261 -0.150986 0.360673
v 0.424847 -0.146392 0.357535
v 0.424847 -0.146392 0.357535
v 0.431397 -0.154184 0.284897
v 0.441299 -0.157917 0.287981
v 0.414946 -0.142659 0.354451
v 0.441299 -0.157917 0.287981
v 0.431397 -0.154184 0.284897
v 0.424847 -0.146392 0.357535
v 0.414946 -0.142659 0.354451
v 0.414946 -0.142659 0.354451
v 0.423462 -0.151996 0.282585
v 0.431397 -0.154184 0.284897
v 0.407010 -0.140472 0.352139
v 0.431397 -0.154184 0.284897
v 0.423462 -0.151996 0.282585
v 0.414946 -0.142659 0.354451
v 0.407010 -0.140472 0.352139
v 0.407010 -0.140472 0.352139
v 0.158010 -0.153753 0.220045
v 0.423462 -0.151996 0.282585
v 0.141558 -0.142229 0.289599
v 0.423462 -0.151996 0.282585
v 0.158010 -0.153753 0.220045
v 0.407010 -0.140472 0.352139
v 0.141558 -0.142229 0.289599
v 0.158010 -0.153753 0.220045
v 0.142126 -0.120836 0.285506
v 0.158577 -0.132361 0.215952
v 0.141558 -0.142229 0.289599
v 0.158577 -0.132361 0.215952
v 0.142126 -0.120836 0.285506
v 0.158010 -0.153753 0.220045
v 0.141558 -0.142229 0.289599
v 0.158577 -0.132361 0.215952
v 0.411242 -0.119055 0.348909
v 0.427694 -0.130580 0.279355
v 0.142126 -0.120836 0.285506
v 0.427694 -0.130580 0.279355
v 0.411242 -0.119055 0.348909
v 0.158577 -0.132361 0.215952
v 0.142126 -0.120836 0.285506
v 0.463706 -0.144158 0.290570
v 0.458002 -0.139214 0.363971
v 0.474454 -0.150738 0.294417
v 0.447255 -0.132634 0.360124
v 0.474454 -0.150738 0.294417
v 0.458002 -0.139214 0.363971
v 0.463706 -0.144158 0.290570
v 0.447255 -0.132634 0.360124
v 0.467943 -0.146723 0.367810
v 0.474454 -0.150738 0.294417
v 0.458002 -0.139214 0.363971
v 0.484395 -0.158248 0.298256
v 0.484395 -0.158248 0.298256
v 0.467943 -0.146723 0.367810
v 0.474454 -0.150738 0.294417
v 0.458002 -0.139214 0.363971
v 0.476983 -0.155090 0.371605
v 0.484395 -0.158248 0.298256
v 0.467943 -0.146723 0.367810
v 0.493434 -0.166614 0.302051
v 0.493434 -0.166614 0.302051
v 0.476983 -0.155090 0.371605
v 0.484395 -0.158248 0.298256
v 0.467943 -0.146723 0.367810
v 0.501484 -0.175758 0.305765
v 0.476983 -0.155090 0.371605
v 0.485033 -0.164233 0.375319
v 0.493434 -0.166614 0.302051
v 0.493434 -0.166614 0.302051
v 0.501484 -0.175758 0.305765
v 0.476983 -0.155090 0.371605
v 0.485033 -0.164233 0.375319
v 0.508468 -0.185590 0.309363
v 0.485033 -0.164233 0.375319
v 0.492017 -0.174066 0.378917
v 0.501484 -0.175758 0.305765
v 0.501484 -0.175758 0.305765
v 0.508468 -0.185590 0.309363
v 0.485033 -0.164233 0.375319
v 0.492017 -0.174066 0.378917
v 0.514319 -0.196016 0.312809
v 0.492017 -0.174066 0.378917
v 0.497867 -0.184492 0.382363
v 0.508468 -0.185590 0.309363
v 0.508468 -0.185590 0.309363
v 0.514319 -0.196016 0.312809
v 0.492017 -0.174066 0.378917
v 0.497867 -0.184492 0.382363
v 0.518979 -0.206937 0.316071
v 0.497867 -0.184492 0.382363
v 0.502528 -0.195412 0.385625
v 0.514319 -0.196016 0.312809
v 0.514319 -0.196016 0.312809
v 0.518979 -0.206937 0.316071
v 0.497867 -0.184492 0.382363
v 0.502528 -0.195412 0.385625
v 0.522406 -0.218246 0.319118
v 0.502528 -0.195412 0.385625
v 0.505954 -0.206721 0.388672
v 0.518979 -0.206937 0.316071
v 0.518979 -0.206937 0.316071
v 0.522406 -0.218246 0.319118
v 0.502528 -0.195412 0.385625
v 0.505954 -0.206721 0.388672
vn -0.2264 0.1889 0.9556
vn -0.2264 0.1888 0.9556
vn -0.2264 0.1889 0.9555
vn -0.2264 0.1887 0.9556
vn 0.3699 0.9267 -0.0660
vn 0.3700 0.9267 -0.0660
vn -0.3700 -0.9267 0.0660
vn -0.3699 -0.9267 0.0660
vn 0.2264 -0.1888 -0.9556
vn 0.2264 -0.1889 -0.9555
vn 0.2264 -0.1889 -0.9556
vn 0.2264 -0.1887 -0.9556
vn -0.2265 0.1883 0.9556
vn 0.2888 0.9532 -0.0896
vn -0.2888 -0.9532 0.0896
vn 0.4493 0.8924 -0.0416
vn 0.4494 0.8924 -0.0416
vn -0.4493 -0.8924 0.0416
vn -0.4494 -0.8924 0.0416
vn 0.9561 0.2238 0.1891
vn -0.9561 -0.2238 -0.1891
vn -0.9688 -0.1368 -0.2065
vn 0.9688 0.1368 0.2065
vn 0.0894 -0.9790 0.1834
vn 0.0895 -0.9790 0.1834
vn -0.0895 0.9790 -0.1834
vn -0.0894 0.9790 -0.1834
vn -0.9689 -0.1366 -0.2065
vn 0.9689 0.1366 0.2065
vn -0.9305 -0.3266 -0.1660
vn 0.9305 0.3266 0.1660
vn -0.8945 -0.4240 -0.1413
vn -0.8945 -0.4241 -0.1413
vn 0.8945 0.4240 0.1413
vn 0.8945 0.4241 0.1413
vn -0.8495 -0.5148 -0.1156
vn -0.8494 -0.5149 -0.1156
vn 0.8494 0.5149 0.1156
vn 0.8495 0.5148 0.1156
vn -0.7963 -0.5983 -0.0892
vn 0.7963 0.5983 0.0892
vn -0.7364 -0.6737 -0.0625
vn -0.7364 -0.6737 -0.0626
vn -0.7364 -0.6736 -0.0626
vn 0.7364 0.6736 0.0626
vn 0.7364 0.6737 0.0625
vn 0.7364 0.6737 0.0626
vn -0.6707 -0.7409 -0.0359
vn 0.6707 0.7409 0.0359
vn -0.6003 -0.7997 -0.0095
vn 0.6003 0.7997 0.0095
vn -0.5263 -0.8501 0.0164
vn -0.5264 -0.8501 0.0164
vn 0.5264 0.8501 -0.0164
vn 0.5263 0.8501 -0.0164
vn -0.3699 -0.9267 0.0661
vn 0.3699 0.9267 -0.0661
vn -0.2885 -0.9533 0.0896
vn -0.2889 -0.9531 0.0896
vn 0.2889 0.9531 -0.0896
vn 0.2889 0.9532 -0.0896
vn -0.0303 -0.9872 0.1564
vn 0.0303 0.9872 -0.1564
vn -0.9737 -0.0177 -0.2274
vn -0.9736 -0.0177 -0.2274
vn 0.9737 0.0177 0.2274
vn 0.9736 0.0177 0.2274
vn 0.6004 0.7997 0.0095
vn 0.6004 0.7996 0.0095
vn -0.6004 -0.7996 -0.0095
vn -0.6004 -0.7997 -0.0095
vn 0.7363 0.6737 0.0625
vn -0.7363 -0.6737 -0.0625
vn 0.7963 0.5982 0.0892
vn -0.8494 -0.5148 -0.1156
vn 0.8946 0.4240 0.1414
vn 0.8946 0.4240 0.1413
vn 0.8946 0.4239 0.1414
vn -0.8946 -0.4239 -0.1414
vn -0.8946 -0.4240 -0.1414
vn -0.8946 -0.4240 -0.1413
vn 0.9305 0.3267 0.1659
vn -0.9305 -0.3267 -0.1659
usemtl Color_A05.001
s 1
f 1//1 2//2 3//1
f 2//2 1//1 4//2
f 5//1 3//1 6//1
f 1//1 3//1 5//1
f 5//1 6//1 7//2
f 7//2 6//1 8//2
f 7//2 8//2 9//2
f 9//2 8//2 10//2
f 9//2 10//2 11//2
f 11//2 10//2 12//1
f 12//1 10//2 13//2
f 12//1 13//2 14//2
f 14//2 13//2 15//1
f 14//2 15//1 16//1
f 16//1 15//1 17//2
f 16//1 17//2 18//2
f 18//2 17//2 19//2
f 19//2 17//2 20//2
f 21//3 20//2 22//1
f 19//2 20//2 21//3
f 21//3 22//1 23//4
f 23//4 22//1 24//2
f 25//2 24//2 22//1
f 25//2 22//1 26//3
f 25//2 26//3 27//1
f 25//2 27//1 28//2
f 25//2 28//2 29//2
f 24//2 25//2 30//2
f 31//5 32//6 33//5
f 32//6 31//5 34//6
f 35//7 36//8 37//7
f 38//8 37//7 36//8
f 39//9 40//9 41//9
f 40//9 39//9 42//9
f 41//9 40//9 43//10
f 43//10 40//9 44//11
f 44//11 40//9 45//9
f 45//9 40//9 46//11
f 41//9 47//10 48//12
f 49//11 47//10 41//9
f 41//9 48//12 39//9
f 50//9 51//9 49//11
f 49//11 51//9 47//10
f 50//9 52//9 51//9
f 50//9 53//10 52//9
f 54//11 55//9 53//10
f 54//11 53//10 50//9
f 56//9 55//9 54//11
f 56//9 57//9 55//9
f 58//9 57//9 56//9
f 58//9 59//9 57//9
f 58//9 60//11 59//9
f 61//9 62//9 60//11
f 61//9 60//11 58//9
f 63//11 62//9 61//9
f 63//11 64//11 62//9
f 65//11 64//11 63//11
f 65//11 66//11 64//11
f 67//9 66//11 65//11
f 66//11 67//9 68//9
f 69//2 70//4 71//2
f 71//2 72//2 69//2
f 73//2 69//2 72//2
f 74//1 72//2 75//2
f 75//2 72//2 76//1
f 76//1 72//2 77//13
f 77//13 72//2 71//2
f 70//4 78//3 71//2
f 71//2 78//3 79//1
f 78//3 80//2 79//1
f 79//1 80//2 81//2
f 82//2 83//3 81//2
f 80//2 82//2 81//2
f 81//2 83//3 84//1
f 83//3 85//2 84//1
f 84//1 85//2 86//2
f 85//2 87//2 86//2
f 86//2 87//2 88//2
f 87//2 89//2 88//2
f 89//2 90//1 88//2
f 88//2 90//1 91//2
f 90//1 92//2 91//2
f 91//2 92//2 93//1
f 92//2 94//1 93//1
f 93//1 94//1 95//1
f 94//1 96//1 95//1
f 95//1 96//1 97//2
f 98//2 97//2 96//1
f 99//14 100//14 101//14
f 100//14 99//14 102//14
f 103//15 104//15 105//15
f 106//15 105//15 104//15
f 107//9 108//9 109//9
f 108//9 110//11 109//9
f 110//11 111//10 109//9
f 111//10 112//11 109//9
f 112//11 113//9 109//9
f 114//9 109//9 113//9
f 113//9 112//11 115//12
f 115//12 112//11 116//10
f 112//11 117//9 116//10
f 116//10 117//9 118//9
f 117//9 119//9 118//9
f 118//9 119//9 120//9
f 120//9 119//9 121//11
f 121//11 122//11 123//9
f 119//9 122//11 121//11
f 122//11 124//9 123//9
f 123//9 124//9 125//11
f 124//9 126//9 125//11
f 125//11 126//9 127//9
f 127//9 126//9 128//9
f 128//9 129//9 130//9
f 126//9 129//9 128//9
f 129//9 131//11 130//9
f 130//9 131//11 132//11
f 131//11 133//11 132//11
f 132//11 133//11 134//11
f 133//11 135//9 134//11
f 136//9 134//11 135//9
f 137//16 138//17 139//16
f 138//17 137//16 140//17
f 141//18 142//19 143//18
f 144//19 143//18 142//19
f 145//20 146//20 147//20
f 146//20 145//20 148//20
f 149//21 150//21 151//21
f 152//21 151//21 150//21
f 153//22 154//22 155//22
f 154//22 153//22 156//22
f 157//23 158//23 159//23
f 160//23 159//23 158//23
f 161//24 162//25 163//25
f 162//25 161//24 164//24
f 165//26 166//26 167//27
f 168//27 167//27 166//26
f 169//28 170//28 171//28
f 170//28 169//28 172//28
f 173//29 174//29 175//29
f 176//29 175//29 174//29
f 177//21 178//21 179//21
f 178//21 177//21 180//21
f 181//20 182//20 183//20
f 184//20 183//20 182//20
f 185//30 186//30 187//30
f 186//30 185//30 188//30
f 189//31 190//31 191//31
f 192//31 191//31 190//31
f 193//32 194//33 195//32
f 194//33 193//32 196//33
f 197//34 198//35 199//34
f 200//35 199//34 198//35
f 201//36 202//37 203//36
f 202//37 201//36 204//37
f 205//38 206//39 207//38
f 208//39 207//38 206//39
f 209//40 210//40 211//40
f 210//40 209//40 212//40
f 213//41 214//41 215//41
f 216//41 215//41 214//41
f 217//42 218//43 219//42
f 218//43 217//42 220//44
f 221//45 222//46 223//47
f 224//46 223//47 222//46
f 225//48 226//48 227//48
f 226//48 225//48 228//48
f 229//49 230//49 231//49
f 232//49 231//49 230//49
f 233//50 234//50 235//50
f 234//50 233//50 236//50
f 237//51 238//51 239//51
f 240//51 239//51 238//51
f 241//52 242//53 243//53
f 242//53 241//52 244//52
f 245//54 246//54 247//55
f 248//55 247//55 246//54
f 249//18 250//18 251//18
f 250//18 249//18 252//18
f 253//16 254//16 255//16
f 256//16 255//16 254//16
f 257//7 258//56 259//56
f 258//56 257//7 260//7
f 261//57 262//57 263//6
f 264//6 263//6 262//57
f 265//15 266//58 267//59
f 266//58 265//15 268//15
f 269//60 270//61 271//14
f 272//14 271//14 270//61
f 273//62 274//62 275//62
f 274//62 273//62 276//62
f 277//63 278//63 279//63
f 280//63 279//63 278//63
f 281//64 282//65 283//64
f 282//65 281//64 284//65
f 285//66 286//67 287//66
f 288//67 287//66 286//67
f 289//63 290//63 291//63
f 290//63 289//63 292//63
f 293//62 294//62 295//62
f 296//62 295//62 294//62
f 297//55 298//55 299//55
f 298//55 297//55 300//55
f 301//52 302//52 303//52
f 304//52 303//52 302//52
f 305//68 306//69 307//68
f 306//69 305//68 308//69
f 309//70 310//71 311//70
f 312//71 311//70 310//71
f 313//49 314//49 315//49
f 314//49 313//49 316//49
f 317//48 318//48 319//48
f 320//48 319//48 318//48
f 321//46 322//72 323//72
f 322//72 321//46 324//47
f 325//43 326//42 327//73
f 328//73 327//73 326//42
f 329//41 330//41 331//74
f 330//41 329//41 332//41
f 333//40 334//40 335//40
f 336//40 335//40 334//40
f 337//38 338//38 339//39
f 338//38 337//38 340//38
f 341//37 342//37 343//37
f 344//75 343//37 342//37
f 345//76 346//77 347//77
f 346//77 345//76 348//78
f 349//79 350//80 351//81
f 352//81 351//81 350//80
f 353//82 354//31 355//31
f 354//31 353//82 356//82
f 357//83 358//83 359//30
f 360//30 359//30 358//83