# Blender v3.0.1 OBJ File: ''
# www.blender.org
mtllib 07.mtl
o group_2.090_ID372.084
v 0.502151 0.258858 0.218642
v 0.485700 0.270382 0.288196
v 0.492983 0.107195 0.246880
v 0.476532 0.118720 0.316434
v 0.492983 0.107195 0.246880
v 0.485699 0.270382 0.288196
v 0.502151 0.258858 0.218642
v 0.476532 0.118720 0.316434
v 0.502151 0.258858 0.218642
v 0.532658 0.456627 0.261963
v 0.549109 0.445102 0.192409
v 0.485699 0.270382 0.288196
v 0.508113 -0.218311 0.391474
v 0.552393 -0.335314 0.425064
v 0.541001 -0.214474 0.398484
v 0.519506 -0.339151 0.418055
v 0.519506 -0.339151 0.418055
v 0.578914 -0.618343 0.488081
v 0.552393 -0.335314 0.425064
v 0.546027 -0.622179 0.481071
v 0.578914 -0.618343 0.488081
v 0.562479 -0.633704 0.411517
v 0.595366 -0.629867 0.418527
v 0.546027 -0.622179 0.481071
v 0.537242 0.252657 0.228185
v 0.492983 0.107195 0.246880
v 0.502151 0.258858 0.218642
v 0.526271 0.106757 0.254841
v 0.557452 -0.225998 0.328930
v 0.524565 -0.229835 0.321920
v 0.584200 0.438901 0.201952
v 0.549109 0.445102 0.192409
v 0.552393 -0.335314 0.425064
v 0.595366 -0.629867 0.418527
v 0.541000 -0.214474 0.398484
v 0.578914 -0.618343 0.488081
v 0.568845 -0.346839 0.355510
v 0.509820 0.118282 0.324395
v 0.557452 -0.225998 0.328930
v 0.526271 0.106757 0.254841
v 0.541000 -0.214474 0.398484
v 0.476532 0.118720 0.316434
v 0.508113 -0.218311 0.391474
v 0.509820 0.118282 0.324395
v 0.520790 0.264181 0.297739
v 0.485699 0.270382 0.288196
v 0.567748 0.450426 0.271506
v 0.532658 0.456627 0.261963
v 0.549109 0.445102 0.192409
v 0.567748 0.450426 0.271506
v 0.584200 0.438901 0.201952
v 0.532658 0.456627 0.261963
v 0.520790 0.264181 0.297739
v 0.526271 0.106757 0.254841
v 0.537242 0.252657 0.228185
v 0.509820 0.118282 0.324395
v 0.557452 -0.225998 0.328930
v 0.524565 -0.229835 0.321920
v 0.568845 -0.346839 0.355510
v 0.535957 -0.350675 0.348501
v 0.535957 -0.350675 0.348501
v 0.595366 -0.629867 0.418527
v 0.562478 -0.633704 0.411517
v 0.568845 -0.346839 0.355510
v 0.532658 0.456627 0.261963
v 0.567748 0.450426 0.271506
v 0.485699 0.270382 0.288196
v 0.520790 0.264181 0.297739
v 0.476532 0.118720 0.316434
v 0.509820 0.118282 0.324395
v 0.541001 -0.214474 0.398484
v 0.508113 -0.218311 0.391474
v 0.526271 0.106757 0.254841
v 0.557452 -0.225998 0.328930
v 0.509820 0.118282 0.324395
v 0.568845 -0.346839 0.355510
v 0.541001 -0.214474 0.398484
v 0.595366 -0.629867 0.418527
v 0.552393 -0.335314 0.425064
v 0.578914 -0.618343 0.488081
v 0.537242 0.252657 0.228185
v 0.526271 0.106757 0.254841
v 0.520790 0.264181 0.297739
v 0.509820 0.118282 0.324395
v 0.524565 -0.229835 0.321920
v 0.476532 0.118720 0.316434
v 0.492983 0.107195 0.246880
v 0.508113 -0.218311 0.391474
v 0.492983 0.107195 0.246880
v 0.476532 0.118720 0.316434
v 0.524565 -0.229835 0.321920
v 0.508113 -0.218311 0.391474
v 0.549109 0.445102 0.192409
v 0.502151 0.258858 0.218642
v 0.584200 0.438901 0.201952
v 0.537242 0.252657 0.228185
v 0.492983 0.107195 0.246880
v 0.526271 0.106757 0.254841
v 0.557452 -0.225998 0.328930
v 0.524565 -0.229835 0.321920
v 0.549109 0.445102 0.192409
v 0.532658 0.456627 0.261963
v 0.502151 0.258858 0.218642
v 0.485699 0.270382 0.288196
v 0.584200 0.438901 0.201952
v 0.567748 0.450426 0.271506
v 0.549109 0.445102 0.192409
v 0.532658 0.456627 0.261963
v 0.567748 0.450426 0.271506
v 0.537242 0.252657 0.228185
v 0.584200 0.438901 0.201952
v 0.520790 0.264181 0.297739
v 0.584200 0.438901 0.201952
v 0.537242 0.252657 0.228185
v 0.567748 0.450426 0.271506
v 0.520790 0.264181 0.297739
v 0.568845 -0.346839 0.355510
v 0.524565 -0.229835 0.321920
v 0.557452 -0.225998 0.328930
v 0.535957 -0.350675 0.348501
v 0.568845 -0.346839 0.355510
v 0.535957 -0.350675 0.348501
v 0.595366 -0.629867 0.418527
v 0.562479 -0.633704 0.411517
v 0.552393 -0.335314 0.425064
v 0.578914 -0.618343 0.488081
v 0.519506 -0.339151 0.418055
v 0.546027 -0.622179 0.481071
v 0.519506 -0.339151 0.418055
v 0.562479 -0.633704 0.411517
v 0.546027 -0.622179 0.481071
v 0.535957 -0.350675 0.348501
v 0.535957 -0.350675 0.348501
v 0.519506 -0.339151 0.418055
v 0.562479 -0.633704 0.411517
v 0.546027 -0.622179 0.481071
v 0.595366 -0.629867 0.418527
v 0.562479 -0.633704 0.411517
v 0.578914 -0.618343 0.488081
v 0.546027 -0.622179 0.481071
v 0.541001 -0.214474 0.398484
v 0.552393 -0.335314 0.425064
v 0.508113 -0.218311 0.391474
v 0.519506 -0.339151 0.418055
vn 0.9725 -0.0155 0.2326
vn -0.9725 0.0155 -0.2326
vn -0.9450 0.2021 -0.2570
vn -0.2257 0.1889 0.9557
vn -0.2259 0.1915 0.9551
vn 0.0759 -0.9806 0.1804
vn 0.0760 -0.9806 0.1804
vn 0.0759 -0.9807 0.1804
vn 0.2259 -0.1915 -0.9551
vn 0.9688 0.1368 0.2065
vn 0.2027 0.9727 -0.1132
vn 0.9716 -0.0302 0.2348
vn -0.2258 0.1889 0.9557
vn -0.9688 -0.1368 -0.2065
vn -0.9716 0.0302 -0.2348
vn 0.9450 -0.2021 0.2570
vn -0.2027 -0.9727 0.1132
vn 0.2257 -0.1889 -0.9557
vn 0.2258 -0.1889 -0.9557
vn -0.0760 0.9806 -0.1804
vn -0.0759 0.9806 -0.1804
usemtl Color_A05
s 1
f 1//1 2//1 3//1
f 4//1 3//1 2//1
f 5//2 6//2 7//2
f 6//2 5//2 8//2
f 9//3 10//3 11//3
f 10//3 9//3 12//3
f 13//4 14//4 15//4
f 14//4 13//4 16//4
f 17//5 18//5 19//5
f 18//5 17//5 20//5
f 21//6 22//6 23//7
f 22//6 21//6 24//8
f 25//9 26//9 27//9
f 28//9 26//9 25//9
f 29//9 26//9 28//9
f 26//9 29//9 30//9
f 31//9 27//9 32//9
f 25//9 27//9 31//9
f 33//10 34//10 35//10
f 34//10 33//10 36//10
f 35//10 34//10 37//10
f 38//10 37//10 39//10
f 35//10 37//10 38//10
f 38//10 39//10 40//10
f 41//5 42//5 43//5
f 42//5 41//5 44//5
f 42//5 44//5 45//5
f 46//5 45//5 47//5
f 42//5 45//5 46//5
f 46//5 47//5 48//5
f 49//11 50//11 51//11
f 50//11 49//11 52//11
f 53//12 54//12 55//12
f 54//12 53//12 56//12
f 57//13 58//4 59//4
f 60//4 59//4 58//4
f 61//9 62//9 63//9
f 62//9 61//9 64//9
f 65//9 66//9 67//9
f 67//9 68//9 69//9
f 66//9 68//9 67//9
f 70//9 71//9 69//9
f 68//9 70//9 69//9
f 72//9 69//9 71//9
f 73//14 74//14 75//14
f 74//14 76//14 75//14
f 75//14 76//14 77//14
f 77//14 78//14 79//14
f 76//14 78//14 77//14
f 80//14 79//14 78//14
f 81//15 82//15 83//15
f 84//15 83//15 82//15
f 85//14 86//14 87//14
f 86//14 85//14 88//14
f 89//10 90//10 91//10
f 92//10 91//10 90//10
f 93//5 94//5 95//5
f 95//5 94//5 96//5
f 94//5 97//5 96//5
f 96//5 97//5 98//5
f 98//5 97//5 99//5
f 100//5 99//5 97//5
f 101//16 102//16 103//16
f 104//16 103//16 102//16
f 105//17 106//17 107//17
f 108//17 107//17 106//17
f 109//16 110//16 111//16
f 110//16 109//16 112//16
f 113//3 114//3 115//3
f 116//3 115//3 114//3
f 117//18 118//18 119//19
f 118//18 117//18 120//18
f 121//5 122//5 123//5
f 124//5 123//5 122//5
f 125//9 126//9 127//9
f 128//9 127//9 126//9
f 129//14 130//14 131//14
f 130//14 129//14 132//14
f 133//10 134//10 135//10
f 136//10 135//10 134//10
f 137//20 138//21 139//21
f 140//21 139//21 138//21
f 141//18 142//18 143//18
f 144//18 143//18 142//18