# Blender v3.0.1 OBJ File: ''
# www.blender.org
mtllib 04.mtl
o normalized.009_normalized.043
v -0.219037 -0.178903 -0.145288
v -0.219037 -0.142449 -0.113830
v -0.219037 -0.178903 -0.113830
v -0.243340 -0.178903 -0.145288
v -0.243340 0.947368 -0.193283
v -0.219037 0.947368 -0.193283
v -0.219037 0.948638 -0.156999
v -0.219037 0.948316 -0.156915
v -0.219037 0.947997 -0.156853
v -0.219037 0.949296 -0.157273
v -0.219037 0.948965 -0.157114
v -0.219037 0.949979 -0.157763
v -0.219037 0.949633 -0.157486
v -0.219037 0.950617 -0.158557
v -0.219037 0.950331 -0.158149
v -0.219037 0.950972 -0.159270
v -0.219037 0.950827 -0.158929
v -0.219037 0.951122 -0.159885
v -0.219037 0.951066 -0.159586
v -0.219037 0.951168 -0.160451
v -0.219037 0.951152 -0.160171
v -0.219037 0.951168 -0.189641
v -0.243340 0.947547 -0.193271
v -0.219037 0.947547 -0.193271
v -0.219037 0.947838 -0.156827
v -0.219037 0.947679 -0.156802
v -0.219037 -0.142449 -0.110355
v -0.243340 0.951161 -0.160311
v -0.219037 0.951161 -0.160311
v -0.243340 0.951168 -0.160451
v -0.219037 0.951153 -0.189802
v -0.243340 0.951168 -0.189641
v -0.219037 0.951136 -0.189963
v -0.243340 0.951153 -0.189802
v -0.219037 0.947726 -0.193258
v -0.243340 0.947905 -0.193241
v -0.219037 0.947905 -0.193241
v -0.243340 0.947726 -0.193258
v -0.243340 0.951136 -0.189963
v -0.243340 0.951116 -0.190126
v -0.243340 0.951091 -0.190289
v -0.243340 0.951059 -0.190454
v -0.243340 0.948084 -0.193220
v -0.219037 0.948084 -0.193220
v -0.219037 0.951091 -0.190289
v -0.219037 0.951116 -0.190126
v -0.219037 0.951059 -0.190454
v -0.219037 0.951019 -0.190620
v -0.243340 0.951019 -0.190620
v -0.243340 0.950970 -0.190789
v -0.219037 0.950970 -0.190789
v -0.219037 0.950909 -0.190960
v -0.243340 0.950835 -0.191134
v -0.219037 0.950835 -0.191134
v -0.243340 0.950909 -0.190960
v -0.219037 0.950746 -0.191311
v -0.243340 0.950642 -0.191491
v -0.219037 0.950642 -0.191491
v -0.243340 0.950746 -0.191311
v -0.219037 0.950519 -0.191675
v -0.243340 0.950519 -0.191675
v -0.243340 0.950377 -0.191864
v -0.219037 0.950377 -0.191864
v -0.219037 0.950214 -0.192057
v -0.243340 0.950214 -0.192057
v -0.243340 0.950029 -0.192255
v -0.219037 0.950029 -0.192255
v -0.219037 0.949855 -0.192426
v -0.243340 0.948263 -0.193193
v -0.243340 0.949855 -0.192426
v -0.219037 0.949680 -0.192576
v -0.243340 0.948441 -0.193159
v -0.243340 0.949680 -0.192576
v -0.219037 0.948263 -0.193193
v -0.219037 0.948441 -0.193159
v -0.243340 0.948619 -0.193115
v -0.219037 0.948619 -0.193115
v -0.219037 0.948797 -0.193061
v -0.219037 0.949151 -0.192914
v -0.243340 0.948797 -0.193061
v -0.219037 0.949504 -0.192707
v -0.243340 0.949328 -0.192819
v -0.219037 0.949328 -0.192819
v -0.219037 0.948975 -0.192994
v -0.243340 0.949151 -0.192914
v -0.243340 0.948975 -0.192994
v -0.243340 0.949504 -0.192707
v -0.243340 0.951152 -0.160171
v -0.243340 0.951139 -0.160029
v -0.219037 0.951139 -0.160029
v -0.243340 0.951122 -0.159885
v -0.243340 0.951066 -0.159586
v -0.243340 0.951098 -0.159737
v -0.219037 0.951098 -0.159737
v -0.243340 0.951025 -0.159431
v -0.219037 0.951025 -0.159431
v -0.243340 0.950972 -0.159270
v -0.243340 0.950827 -0.158929
v -0.243340 0.950906 -0.159103
v -0.219037 0.950906 -0.159103
v -0.243340 0.950731 -0.158747
v -0.219037 0.950731 -0.158747
v -0.243340 0.950617 -0.158557
v -0.243340 0.950331 -0.158149
v -0.243340 0.950485 -0.158358
v -0.219037 0.950485 -0.158358
v -0.243340 0.950155 -0.157929
v -0.219037 0.950155 -0.157929
v -0.243340 0.949979 -0.157763
v -0.243340 0.949633 -0.157486
v -0.243340 0.949805 -0.157615
v -0.219037 0.949805 -0.157615
v -0.243340 0.949464 -0.157372
v -0.219037 0.949464 -0.157372
v -0.243340 0.949296 -0.157273
v -0.243340 0.948965 -0.157114
v -0.243340 0.949129 -0.157188
v -0.219037 0.949129 -0.157188
v -0.243340 0.948801 -0.157052
v -0.219037 0.948801 -0.157052
v -0.243340 0.948638 -0.156999
v -0.243340 0.948316 -0.156915
v -0.243340 0.948477 -0.156953
v -0.219037 0.948477 -0.156953
v -0.243340 0.948156 -0.156882
v -0.219037 0.948156 -0.156882
v -0.243340 0.947997 -0.156853
v -0.243340 0.947838 -0.156827
v -0.243340 0.947679 -0.156802
v -0.243340 -0.142449 -0.110355
v -0.243340 -0.142449 -0.113830
v -0.243340 -0.178903 -0.113830
vt 0.773900 0.361400
vt 0.734600 0.379500
vt 0.734600 0.361400
vt 0.889700 0.734600
vt 0.934200 0.773900
vt 0.889700 0.773900
vt 0.889700 0.361400
vt 0.934200 0.920000
vt 0.889700 0.920000
vt 0.788600 0.920600
vt 0.788500 0.920500
vt 0.833900 0.920000
vt 0.788400 0.920300
vt 0.788900 0.921000
vt 0.788700 0.920800
vt 0.789500 0.921300
vt 0.789200 0.921100
vt 0.790500 0.921600
vt 0.790000 0.921500
vt 0.791400 0.921800
vt 0.791000 0.921700
vt 0.792200 0.921900
vt 0.791800 0.921800
vt 0.792900 0.921900
vt 0.792500 0.921900
vt 0.829400 0.921900
vt 0.934200 0.920100
vt 0.889700 0.920100
vt 0.788400 0.920200
vt 0.788300 0.920200
vt 0.730300 0.379500
vt 0.110300 0.792900
vt 0.065800 0.792700
vt 0.110300 0.792700
vt 0.110300 0.829400
vt 0.065800 0.792900
vt 0.110300 0.829600
vt 0.065800 0.829400
vt 0.833900 0.920100
vt 0.829600 0.921900
vt 0.110300 0.829800
vt 0.065800 0.829600
vt 0.833900 0.920200
vt 0.829800 0.921900
vt 0.889700 0.920200
vt 0.934200 0.920300
vt 0.889700 0.920300
vt 0.934200 0.920200
vt 0.166100 0.920200
vt 0.170200 0.921900
vt 0.166100 0.920300
vt 0.166100 0.920100
vt 0.170400 0.921900
vt 0.166100 0.920000
vt 0.170600 0.921900
vt 0.170000 0.921900
vt 0.169800 0.921900
vt 0.169600 0.921800
vt 0.166200 0.920400
vt 0.934200 0.920400
vt 0.889700 0.920400
vt 0.110300 0.830200
vt 0.065800 0.830000
vt 0.110300 0.830000
vt 0.110300 0.830400
vt 0.065800 0.830200
vt 0.110300 0.830600
vt 0.065800 0.830400
vt 0.169400 0.921800
vt 0.169200 0.921800
vt 0.110300 0.830800
vt 0.065800 0.830600
vt 0.110300 0.831000
vt 0.065800 0.830800
vt 0.168800 0.921700
vt 0.889700 0.921700
vt 0.934200 0.921800
vt 0.889700 0.921800
vt 0.889700 0.921700
vt 0.934200 0.921700
vt 0.168300 0.921600
vt 0.889700 0.921600
vt 0.934200 0.921700
vt 0.889700 0.921600
vt 0.934200 0.921600
vt 0.168100 0.921600
vt 0.167900 0.921500
vt 0.889700 0.921500
vt 0.934200 0.921600
vt 0.889700 0.921400
vt 0.934200 0.921500
vt 0.167600 0.921400
vt 0.167400 0.921300
vt 0.889700 0.921300
vt 0.934200 0.921400
vt 0.889700 0.921200
vt 0.934200 0.921300
vt 0.166200 0.920400
vt 0.167200 0.921200
vt 0.889700 0.921200
vt 0.934200 0.921200
vt 0.166200 0.920500
vt 0.167000 0.921200
vt 0.934200 0.920400
vt 0.889700 0.920400
vt 0.934200 0.920500
vt 0.889700 0.920500
vt 0.166300 0.920600
vt 0.934200 0.920600
vt 0.889700 0.920600
vt 0.833700 0.920600
vt 0.833000 0.921200
vt 0.833800 0.920500
vt 0.832800 0.921200
vt 0.833800 0.920400
vt 0.833600 0.920700
vt 0.833500 0.920900
vt 0.934200 0.920700
vt 0.889700 0.920700
vt 0.833200 0.921100
vt 0.889700 0.920900
vt 0.934200 0.921000
vt 0.889700 0.921000
vt 0.889700 0.920800
vt 0.934200 0.920900
vt 0.934200 0.920800
vt 0.166500 0.920900
vt 0.166400 0.920700
vt 0.166800 0.921100
vt 0.934200 0.921100
vt 0.889700 0.921100
vt 0.934200 0.921200
vt 0.832600 0.921300
vt 0.833800 0.920400
vt 0.831700 0.921600
vt 0.831200 0.921700
vt 0.830800 0.921800
vt 0.832400 0.921400
vt 0.832100 0.921500
vt 0.831900 0.921600
vt 0.830600 0.921800
vt 0.830400 0.921800
vt 0.833900 0.920300
vt 0.830000 0.921900
vt 0.065800 0.829800
vt 0.207500 0.921900
vt 0.207100 0.921900
vt 0.065800 0.792500
vt 0.110300 0.792500
vt 0.065800 0.792400
vt 0.110300 0.792400
vt 0.207800 0.921900
vt 0.065800 0.792200
vt 0.110300 0.792200
vt 0.208200 0.921800
vt 0.065800 0.792000
vt 0.110300 0.792000
vt 0.065800 0.791800
vt 0.110300 0.791800
vt 0.065800 0.791600
vt 0.110300 0.791600
vt 0.208600 0.921800
vt 0.065800 0.791400
vt 0.110300 0.791400
vt 0.209000 0.921700
vt 0.065800 0.791200
vt 0.110300 0.791200
vt 0.110300 0.921800
vt 0.065800 0.921700
vt 0.110300 0.921700
vt 0.065800 0.921700
vt 0.110300 0.921700
vt 0.209500 0.921600
vt 0.065800 0.921600
vt 0.110300 0.921600
vt 0.210000 0.921500
vt 0.065800 0.921600
vt 0.110300 0.921600
vt 0.065800 0.921500
vt 0.110300 0.921500
vt 0.065800 0.921400
vt 0.110300 0.921400
vt 0.210500 0.921300
vt 0.065800 0.921300
vt 0.110300 0.921300
vt 0.210800 0.921100
vt 0.065800 0.921200
vt 0.110300 0.921200
vt 0.065800 0.921100
vt 0.110300 0.921100
vt 0.065800 0.921000
vt 0.110300 0.921000
vt 0.211100 0.921000
vt 0.065800 0.921000
vt 0.110300 0.921000
vt 0.211300 0.920800
vt 0.065800 0.920900
vt 0.110300 0.920900
vt 0.065800 0.920800
vt 0.110300 0.920800
vt 0.065800 0.920700
vt 0.110300 0.920700
vt 0.211400 0.920600
vt 0.065800 0.920600
vt 0.110300 0.920600
vt 0.211500 0.920500
vt 0.065800 0.920600
vt 0.110300 0.920600
vt 0.065800 0.920500
vt 0.110300 0.920500
vt 0.065800 0.920400
vt 0.110300 0.920400
vt 0.211600 0.920300
vt 0.065800 0.920300
vt 0.110300 0.920300
vt 0.211600 0.920200
vt 0.065800 0.920200
vt 0.110300 0.920200
vt 0.065800 0.920200
vt 0.110300 0.920200
vt 0.065800 0.379500
vt 0.110300 0.379500
vt 0.265400 0.379500
vt 0.211700 0.920200
vt 0.889700 0.730300
vt 0.934200 0.734600
vt 0.889700 0.734600
vt 0.226100 0.361400
vt 0.110300 0.379500
vt 0.065800 0.361400
vt 0.110300 0.361400
vt 0.934200 0.734600
vt 0.934200 0.361400
vt 0.788500 0.920600
vt 0.788400 0.920400
vt 0.788800 0.920900
vt 0.788600 0.920700
vt 0.789300 0.921200
vt 0.789000 0.921000
vt 0.790300 0.921600
vt 0.789700 0.921400
vt 0.791200 0.921800
vt 0.790800 0.921700
vt 0.792000 0.921900
vt 0.791600 0.921800
vt 0.792700 0.921900
vt 0.792400 0.921900
vt 0.065800 0.831000
vt 0.169000 0.921800
vt 0.168600 0.921700
vt 0.833600 0.920800
vt 0.833300 0.921000
vt 0.166400 0.920800
vt 0.166700 0.921000
vt 0.831400 0.921700
vt 0.831000 0.921800
vt 0.830200 0.921900
vt 0.207300 0.921900
vt 0.207600 0.921900
vt 0.208000 0.921900
vt 0.208400 0.921800
vt 0.208800 0.921800
vt 0.065800 0.921800
vt 0.209200 0.921700
vt 0.209700 0.921600
vt 0.210300 0.921400
vt 0.210700 0.921200
vt 0.211000 0.921000
vt 0.211200 0.920900
vt 0.211400 0.920700
vt 0.211500 0.920600
vt 0.211600 0.920400
vt 0.269700 0.379500
vt 0.934200 0.730300
vt 0.265400 0.361400
vt 0.065800 0.379500
vn 1.0000 0.0000 0.0000
vn 0.0000 -1.0000 -0.0000
vn 0.0000 -0.0426 -0.9991
vn 1.0000 -0.0001 0.0000
vn 1.0000 0.0001 0.0000
vn -0.0000 0.0652 -0.9979
vn 0.0000 0.0697 -0.9976
vn 0.0000 0.9985 0.0548
vn 0.0000 0.9981 0.0609
vn 0.0000 0.9982 0.0603
vn 0.0000 1.0000 0.0000
vn 0.0000 0.9949 -0.1004
vn -0.0000 0.9955 -0.0948
vn 0.0000 0.9934 -0.1145
vn 0.0000 0.0832 -0.9965
vn -0.0000 0.1036 -0.9946
vn 0.0000 0.0829 -0.9966
vn -1.0000 -0.0000 0.0000
vn -1.0000 0.0001 0.0000
vn -1.0000 -0.0002 0.0000
vn -1.0000 -0.0001 0.0000
vn 0.0000 0.1329 -0.9911
vn 0.0000 0.1328 -0.9911
vn 0.0000 0.9853 -0.1708
vn -0.0000 0.9905 -0.1379
vn 0.0000 0.9906 -0.1364
vn -0.0000 0.9774 -0.2112
vn 0.0000 0.9854 -0.1703
vn 0.0000 0.9669 -0.2552
vn 0.0000 0.9771 -0.2129
vn 0.0000 0.9515 -0.3078
vn -0.0000 0.9663 -0.2575
vn 0.0000 0.9316 -0.3636
vn -0.0000 0.9514 -0.3081
vn 0.0000 0.9080 -0.4190
vn 0.0000 0.9314 -0.3639
vn 0.0000 0.8800 -0.4750
vn 0.0000 0.9077 -0.4195
vn 0.0000 0.8500 -0.5268
vn 0.0000 0.8799 -0.4752
vn -0.0000 0.8169 -0.5768
vn 0.0000 0.8489 -0.5286
vn 0.0000 0.7820 -0.6233
vn 0.0000 0.8164 -0.5775
vn 0.0000 0.7469 -0.6650
vn 0.0000 0.7822 -0.6231
vn -0.0000 0.7293 -0.6842
vn 0.0000 0.7471 -0.6647
vn 0.0000 0.6769 -0.7361
vn -0.0000 0.7000 -0.7141
vn 0.0000 0.7010 -0.7132
vn 0.0000 0.6245 -0.7811
vn -0.0000 0.6754 -0.7374
vn 0.0000 0.1698 -0.9855
vn 0.0000 0.2139 -0.9769
vn -0.0000 0.2145 -0.9767
vn 0.0000 0.2653 -0.9642
vn 0.0000 0.2652 -0.9642
vn 1.0000 0.0002 0.0000
vn 1.0000 0.0005 0.0000
vn 0.0000 0.3215 -0.9469
vn 0.0000 0.3213 -0.9470
vn 0.0000 0.4436 -0.8962
vn 0.0000 0.5063 -0.8623
vn 0.0000 0.5061 -0.8625
vn 0.0000 0.3822 -0.9241
vn 0.0000 0.4437 -0.8962
vn -0.0000 0.3828 -0.9238
vn -1.0000 0.0002 0.0000
vn -1.0000 -0.0003 0.0000
vn 0.0000 0.5676 -0.8233
vn 0.0000 0.5672 -0.8235
vn 0.0000 0.6243 -0.7812
vn -0.0000 0.9933 -0.1154
vn -0.0000 0.9970 0.0771
vn 0.0000 0.9969 0.0781
vn 0.0000 0.9946 0.1033
vn 0.0000 0.9944 0.1054
vn 0.0000 0.9904 0.1385
vn 0.0000 0.9902 0.1396
vn -0.0000 0.9831 0.1831
vn 0.0000 0.9831 0.1830
vn 0.0000 0.9728 0.2315
vn 0.0000 0.9727 0.2319
vn 0.0000 0.9589 0.2838
vn 0.0000 0.9586 0.2847
vn -0.0000 0.9412 0.3377
vn 0.0000 0.9412 0.3379
vn 0.0000 0.9202 0.3915
vn 0.0000 0.9207 0.3903
vn 0.0000 0.8970 0.4420
vn 0.0000 0.8974 0.4412
vn -0.0000 0.8715 0.4904
vn 0.0000 0.8456 0.5338
vn 0.0000 0.8194 0.5732
vn 0.0000 0.7931 0.6091
vn 0.0000 0.7932 0.6089
vn 0.0000 0.7806 0.6250
vn 0.0000 0.7809 0.6246
vn 0.0000 0.6859 0.7277
vn 0.0000 0.6667 0.7453
vn -0.0000 0.6664 0.7456
vn 0.0000 0.6244 0.7811
vn 0.0000 0.6241 0.7813
vn 0.0000 0.5797 0.8148
vn 0.0000 0.5799 0.8147
vn 0.0000 0.5321 0.8467
vn 0.0000 0.5322 0.8466
vn 0.0000 0.4823 0.8760
vn 0.0000 0.4824 0.8759
vn 0.0000 0.4320 0.9019
vn 0.0000 0.4328 0.9015
vn 0.0000 0.3821 0.9241
vn 0.0000 0.3828 0.9238
vn -0.0000 0.3343 0.9425
vn 0.0000 0.2902 0.9570
vn 0.0000 0.2508 0.9680
vn 0.0000 0.2509 0.9680
vn -0.0000 0.2168 0.9762
vn 0.0000 0.1907 0.9816
vn 0.0000 0.1704 0.9854
vn 0.0000 0.1705 0.9854
vn 0.0000 0.1583 0.9874
vn 0.0000 0.1584 0.9874
vn 0.0000 0.1554 0.9879
vn 0.0000 0.0426 0.9991
vn 0.0000 -0.0000 1.0000
vn 1.0000 0.0014 0.0000
vn 1.0000 0.0013 0.0000
vn 1.0000 -0.0012 0.0000
vn 1.0000 0.0015 0.0000
vn 1.0000 -0.0008 0.0000
vn 1.0000 0.0043 0.0000
vn 1.0000 -0.0029 0.0000
vn 1.0000 0.0045 0.0000
vn 0.0000 0.0657 -0.9978
vn 0.0000 0.9984 0.0559
vn -1.0000 0.0036 0.0000
vn -1.0000 -0.0030 0.0000
vn 1.0000 -0.0011 0.0000
vn 1.0000 0.0012 0.0000
vn -1.0000 -0.0007 -0.0000
vn -1.0000 -0.0012 0.0000
vn 1.0000 -0.0036 0.0000
vn -1.0000 0.0043 0.0000
vn -1.0000 -0.0029 0.0000
vn -1.0000 0.0024 0.0000
vn 0.0000 0.6862 0.7274
vn -1.0000 0.0015 0.0000
vn -1.0000 0.0014 0.0000
usemtl 01___Default.014
s 1
f 1/1/1 2/2/1 3/3/1
f 3/4/2 4/5/2 1/6/2
f 1/7/3 5/8/3 6/9/3
f 7/10/1 8/11/1 6/12/1
f 8/11/1 9/13/4 6/12/1
f 10/14/1 11/15/1 6/12/1
f 11/15/1 7/10/1 6/12/1
f 12/16/1 13/17/1 6/12/1
f 13/17/1 10/14/1 6/12/1
f 14/18/4 15/19/1 6/12/1
f 15/19/1 12/16/1 6/12/1
f 16/20/5 17/21/1 6/12/1
f 17/21/1 14/18/4 6/12/1
f 18/22/1 19/23/1 6/12/1
f 19/23/1 16/20/5 6/12/1
f 20/24/1 21/25/1 6/12/1
f 21/25/1 18/22/1 6/12/1
f 6/12/1 22/26/1 20/24/1
f 6/9/6 23/27/7 24/28/7
f 6/12/1 25/29/5 26/30/5
f 2/2/1 26/30/5 27/31/1
f 20/32/8 28/33/9 29/34/10
f 22/35/11 30/36/11 20/32/11
f 31/37/12 32/38/13 22/35/13
f 24/39/1 31/40/1 22/26/1
f 33/41/14 34/42/12 31/37/12
f 35/43/1 33/44/1 31/40/1
f 35/45/15 36/46/16 37/47/16
f 24/28/7 38/48/17 35/45/15
f 38/49/18 39/50/19 36/51/20
f 23/52/18 34/53/18 38/49/18
f 5/54/18 32/55/18 23/52/18
f 36/51/20 40/56/19 41/57/21
f 36/51/20 42/58/18 43/59/18
f 37/47/16 43/60/22 44/61/23
f 45/62/24 40/63/25 46/64/26
f 47/65/27 41/66/28 45/62/24
f 48/67/29 42/68/30 47/65/27
f 43/59/18 49/69/19 50/70/18
f 51/71/31 49/72/32 48/67/29
f 52/73/33 50/74/34 51/71/31
f 50/70/18 53/75/18 43/59/18
f 54/76/35 55/77/36 52/78/33
f 56/79/37 53/80/38 54/76/35
f 53/75/18 57/81/18 43/59/18
f 58/82/39 59/83/40 56/79/37
f 60/84/41 57/85/42 58/82/39
f 43/59/18 61/86/18 62/87/18
f 63/88/43 61/89/44 60/84/41
f 64/90/45 62/91/46 63/88/43
f 43/59/18 65/92/20 66/93/19
f 67/94/47 65/95/48 64/90/45
f 68/96/49 66/97/50 67/94/51
f 69/98/18 66/93/19 70/99/19
f 71/100/52 70/101/53 68/96/49
f 72/102/18 70/99/19 73/103/20
f 44/61/23 69/104/54 74/105/54
f 74/105/54 72/106/55 75/107/56
f 73/103/20 76/108/18 72/102/18
f 75/107/56 76/109/57 77/110/58
f 77/111/1 71/112/59 75/113/1
f 75/113/1 68/114/5 74/115/1
f 78/116/60 79/117/1 77/111/1
f 77/110/58 80/118/61 78/119/62
f 79/117/1 81/120/1 77/111/1
f 79/121/63 82/122/64 83/123/65
f 84/124/66 85/125/67 79/121/63
f 78/119/62 86/126/68 84/124/66
f 85/127/69 80/128/70 76/108/18
f 87/129/18 85/127/69 76/108/18
f 83/123/65 87/130/71 81/131/72
f 81/131/72 73/132/73 71/100/52
f 74/115/1 67/133/4 44/134/5
f 58/135/1 54/136/1 44/134/5
f 54/136/1 51/137/1 44/134/5
f 44/134/5 64/138/1 63/139/5
f 44/134/5 60/140/4 58/135/1
f 44/134/5 48/141/4 47/142/1
f 47/142/1 37/143/1 44/134/5
f 37/143/1 46/144/5 33/44/1
f 46/64/26 39/145/74 33/41/14
f 88/146/18 30/147/18 5/54/18
f 29/34/10 88/148/75 21/149/76
f 21/149/76 89/150/77 90/151/78
f 91/152/18 88/146/18 5/54/18
f 90/151/78 91/153/79 18/154/80
f 92/155/18 91/152/18 5/54/18
f 18/154/80 93/156/81 94/157/82
f 94/157/82 92/158/83 19/159/84
f 19/159/84 95/160/85 96/161/86
f 97/162/18 92/155/18 5/54/18
f 96/161/86 97/163/87 16/164/88
f 98/165/18 97/162/18 5/54/18
f 16/164/88 99/166/89 100/167/90
f 100/168/90 98/169/91 17/170/92
f 17/170/92 101/171/93 102/172/93
f 103/173/19 98/165/18 5/54/18
f 102/172/93 103/174/94 14/175/94
f 104/176/18 103/173/19 5/54/18
f 14/175/94 105/177/95 106/178/95
f 106/178/95 104/179/96 15/180/97
f 15/180/97 107/181/98 108/182/99
f 109/183/18 104/176/18 5/54/18
f 108/182/100 109/184/101 12/185/102
f 110/186/18 109/183/18 5/54/18
f 12/185/102 111/187/103 112/188/104
f 112/188/104 110/189/105 13/190/106
f 13/190/106 113/191/107 114/192/108
f 115/193/18 110/186/18 5/54/18
f 114/192/108 115/194/109 10/195/110
f 116/196/18 115/193/18 5/54/18
f 10/195/110 117/197/111 118/198/112
f 118/198/112 116/199/113 11/200/114
f 11/200/114 119/201/115 120/202/115
f 121/203/18 116/196/18 5/54/18
f 120/202/115 121/204/116 7/205/116
f 122/206/18 121/203/18 5/54/18
f 7/205/116 123/207/117 124/208/118
f 124/208/118 122/209/119 8/210/119
f 8/210/119 125/211/120 126/212/120
f 127/213/18 122/206/18 5/54/18
f 126/212/120 127/214/121 9/215/122
f 5/54/18 128/216/18 127/213/18
f 9/215/122 128/217/123 25/218/124
f 25/218/124 129/219/125 26/220/125
f 26/220/126 130/221/126 27/222/126
f 131/223/18 129/224/18 5/54/18
f 27/225/2 131/226/2 2/227/2
f 4/228/18 131/223/18 5/54/18
f 2/229/127 132/230/127 3/231/127
f 1/1/1 6/12/1 2/2/1
f 3/4/2 132/232/2 4/5/2
f 1/7/3 4/233/3 5/8/3
f 7/10/1 124/234/128 8/11/1
f 8/11/1 126/235/1 9/13/4
f 10/14/1 118/236/1 11/15/1
f 11/15/1 120/237/129 7/10/1
f 12/16/1 112/238/130 13/17/1
f 13/17/1 114/239/131 10/14/1
f 14/18/4 106/240/1 15/19/1
f 15/19/1 108/241/132 12/16/1
f 16/20/5 100/242/133 17/21/1
f 17/21/1 102/243/134 14/18/4
f 18/22/1 94/244/1 19/23/1
f 19/23/1 96/245/135 16/20/5
f 20/24/1 29/246/1 21/25/1
f 21/25/1 90/247/1 18/22/1
f 6/12/1 24/39/1 22/26/1
f 6/9/6 5/8/136 23/27/7
f 6/12/1 9/13/4 25/29/5
f 2/2/1 6/12/1 26/30/5
f 20/32/8 30/36/137 28/33/9
f 22/35/11 32/38/11 30/36/11
f 31/37/12 34/42/12 32/38/13
f 24/39/1 35/43/1 31/40/1
f 33/41/14 39/145/74 34/42/12
f 35/43/1 37/143/1 33/44/1
f 35/45/15 38/48/17 36/46/16
f 24/28/7 23/27/7 38/48/17
f 38/49/18 34/53/18 39/50/19
f 23/52/18 32/55/18 34/53/18
f 5/54/18 30/147/18 32/55/18
f 36/51/20 39/50/19 40/56/19
f 36/51/20 41/57/21 42/58/18
f 37/47/16 36/46/16 43/60/22
f 45/62/24 41/66/28 40/63/25
f 47/65/27 42/68/30 41/66/28
f 48/67/29 49/72/32 42/68/30
f 43/59/18 42/58/18 49/69/19
f 51/71/31 50/74/34 49/72/32
f 52/73/33 55/248/36 50/74/34
f 50/70/18 55/249/138 53/75/18
f 54/76/35 53/80/38 55/77/36
f 56/79/37 59/83/40 53/80/38
f 53/75/18 59/250/139 57/81/18
f 58/82/39 57/85/42 59/83/40
f 60/84/41 61/89/44 57/85/42
f 43/59/18 57/81/18 61/86/18
f 63/88/43 62/91/46 61/89/44
f 64/90/45 65/95/48 62/91/46
f 43/59/18 62/87/18 65/92/20
f 67/94/47 66/97/47 65/95/48
f 68/96/49 70/101/53 66/97/50
f 69/98/18 43/59/18 66/93/19
f 71/100/52 73/132/73 70/101/53
f 72/102/18 69/98/18 70/99/19
f 44/61/23 43/60/22 69/104/54
f 74/105/54 69/104/54 72/106/55
f 73/103/20 87/129/18 76/108/18
f 75/107/56 72/106/55 76/109/57
f 77/111/1 81/120/1 71/112/59
f 75/113/1 71/112/59 68/114/5
f 78/116/60 84/251/140 79/117/1
f 77/110/58 76/109/57 80/118/61
f 79/117/1 83/252/141 81/120/1
f 79/121/63 85/125/67 82/122/64
f 84/124/66 86/126/68 85/125/67
f 78/119/62 80/118/61 86/126/68
f 85/127/69 86/253/142 80/128/70
f 87/129/18 82/254/143 85/127/69
f 83/123/65 82/122/64 87/130/71
f 81/131/72 87/130/71 73/132/73
f 74/115/1 68/114/5 67/133/4
f 58/135/1 56/255/1 54/136/1
f 54/136/1 52/256/144 51/137/1
f 44/134/5 67/133/4 64/138/1
f 44/134/5 63/139/5 60/140/4
f 44/134/5 51/137/1 48/141/4
f 47/142/1 45/257/4 37/143/1
f 37/143/1 45/257/4 46/144/5
f 46/64/26 40/63/25 39/145/74
f 88/146/18 28/258/18 30/147/18
f 29/34/10 28/33/9 88/148/75
f 21/149/76 88/148/75 89/150/77
f 91/152/18 89/259/18 88/146/18
f 90/151/78 89/150/77 91/153/79
f 92/155/18 93/260/18 91/152/18
f 18/154/80 91/153/79 93/156/81
f 94/157/82 93/156/81 92/158/83
f 19/159/84 92/158/83 95/160/85
f 97/162/18 95/261/18 92/155/18
f 96/161/86 95/160/85 97/163/87
f 98/165/18 99/262/145 97/162/18
f 16/164/88 97/163/87 99/166/89
f 100/168/90 99/263/89 98/169/91
f 17/170/92 98/169/91 101/171/93
f 103/173/19 101/264/146 98/165/18
f 102/172/93 101/171/93 103/174/94
f 104/176/18 105/265/147 103/173/19
f 14/175/94 103/174/94 105/177/95
f 106/178/95 105/177/95 104/179/96
f 15/180/97 104/179/96 107/181/98
f 109/183/18 107/266/18 104/176/18
f 108/182/100 107/181/148 109/184/101
f 110/186/18 111/267/18 109/183/18
f 12/185/102 109/184/101 111/187/103
f 112/188/104 111/187/103 110/189/105
f 13/190/106 110/189/105 113/191/107
f 115/193/18 113/268/149 110/186/18
f 114/192/108 113/191/107 115/194/109
f 116/196/18 117/269/18 115/193/18
f 10/195/110 115/194/109 117/197/111
f 118/198/112 117/197/111 116/199/113
f 11/200/114 116/199/113 119/201/115
f 121/203/18 119/270/18 116/196/18
f 120/202/115 119/201/115 121/204/116
f 122/206/18 123/271/150 121/203/18
f 7/205/116 121/204/116 123/207/117
f 124/208/118 123/207/117 122/209/119
f 8/210/119 122/209/119 125/211/120
f 127/213/18 125/272/18 122/206/18
f 126/212/120 125/211/120 127/214/121
f 5/54/18 129/224/18 128/216/18
f 9/215/122 127/214/121 128/217/123
f 25/218/124 128/217/123 129/219/125
f 26/220/126 129/219/126 130/221/126
f 131/223/18 130/273/18 129/224/18
f 27/225/2 130/274/2 131/226/2
f 4/228/18 132/275/18 131/223/18
f 2/229/127 131/276/127 132/230/127