# Blender v3.0.1 OBJ File: ''
# www.blender.org
mtllib 07.mtl
o normalized.012_normalized.046
v 0.206258 0.192956 -0.127669
v 0.206258 0.196010 -0.131458
v 0.206258 0.196010 -0.131061
v -0.219037 0.192561 -0.127627
v 0.206258 0.192561 -0.127627
v -0.219037 0.157370 -0.125783
v 0.206258 0.157370 -0.125783
v 0.206258 0.194866 -0.153301
v 0.206258 0.194823 -0.153696
v 0.206258 0.194619 -0.154441
v 0.206258 0.194741 -0.154077
v 0.206258 0.194272 -0.155111
v 0.206258 0.194462 -0.154786
v 0.206258 0.193799 -0.155690
v 0.206258 0.194050 -0.155413
v 0.206258 0.193220 -0.156160
v 0.206258 0.193522 -0.155939
v 0.206258 0.192554 -0.156505
v 0.206258 0.192897 -0.156349
v 0.206258 0.191819 -0.156707
v 0.206258 0.192194 -0.156625
v 0.206258 0.191034 -0.156750
v 0.206258 0.191432 -0.156750
v 0.206258 0.155844 -0.154906
v 0.206258 0.155449 -0.154864
v 0.206258 0.154704 -0.154660
v 0.206258 0.155068 -0.154781
v 0.206258 0.154033 -0.154312
v 0.206258 0.154358 -0.154503
v 0.206258 0.153455 -0.153840
v 0.206258 0.153732 -0.154090
v 0.206258 0.152985 -0.153261
v 0.206258 0.153205 -0.153562
v 0.206258 0.152640 -0.152594
v 0.206258 0.152795 -0.152937
v 0.206258 0.152437 -0.151860
v 0.206258 0.152520 -0.152234
v 0.206258 0.152394 -0.151075
v 0.206258 0.152395 -0.151472
v 0.206258 0.153539 -0.129232
v 0.206258 0.156585 -0.125826
v 0.206258 0.156973 -0.125783
v -0.219037 0.156973 -0.125783
v 0.206258 0.153664 -0.128456
v 0.206258 0.153581 -0.128837
v 0.206258 0.153942 -0.127747
v 0.206258 0.153785 -0.128092
v 0.206258 0.154133 -0.127422
v 0.206258 0.154354 -0.127120
v 0.206258 0.154605 -0.126843
v 0.206258 0.154883 -0.126593
v 0.206258 0.155508 -0.126184
v 0.206258 0.155184 -0.126373
v 0.206258 0.156211 -0.125908
v 0.206258 0.155850 -0.126028
v -0.219037 0.155850 -0.126028
v -0.219037 0.156210 -0.125908
v -0.219037 0.156585 -0.125826
v -0.219037 0.155507 -0.126184
v -0.219037 0.155184 -0.126373
v -0.219037 0.154883 -0.126594
v -0.219037 0.154354 -0.127120
v -0.219037 0.154605 -0.126843
v -0.219037 0.154133 -0.127422
v -0.219037 0.153942 -0.127747
v -0.219037 0.153664 -0.128456
v -0.219037 0.153785 -0.128092
v -0.219037 0.153581 -0.128837
v -0.219037 0.153539 -0.129232
v -0.219037 0.152394 -0.151075
v -0.219037 0.152437 -0.151860
v -0.219037 0.152395 -0.151472
v -0.219037 0.152640 -0.152595
v -0.219037 0.152520 -0.152234
v -0.219037 0.152985 -0.153261
v -0.219037 0.152795 -0.152937
v -0.219037 0.153455 -0.153840
v -0.219037 0.153205 -0.153562
v -0.219037 0.154033 -0.154312
v -0.219037 0.153731 -0.154090
v -0.219037 0.154704 -0.154660
v -0.219037 0.154358 -0.154503
v -0.219037 0.155449 -0.154864
v -0.219037 0.155068 -0.154781
v -0.219037 0.155844 -0.154906
v -0.219037 0.191034 -0.156750
v -0.219037 0.191819 -0.156707
v -0.219037 0.191432 -0.156750
v -0.219037 0.192554 -0.156505
v -0.219037 0.192194 -0.156625
v -0.219037 0.193220 -0.156160
v -0.219037 0.192897 -0.156349
v -0.219037 0.193799 -0.155690
v -0.219037 0.193522 -0.155940
v -0.219037 0.194272 -0.155111
v -0.219037 0.194050 -0.155413
v -0.219037 0.194619 -0.154441
v -0.219037 0.194462 -0.154786
v -0.219037 0.194823 -0.153696
v -0.219037 0.194741 -0.154077
v -0.219037 0.194866 -0.153301
v -0.219037 0.196010 -0.131458
v -0.219037 0.192956 -0.127669
v -0.219037 0.196010 -0.131061
v -0.219037 0.195967 -0.130673
v 0.206258 0.195967 -0.130673
v -0.219037 0.193337 -0.127752
v -0.219037 0.194046 -0.128030
v -0.219037 0.194950 -0.128693
v -0.219037 0.195885 -0.130299
v -0.219037 0.194371 -0.128221
v -0.219037 0.194673 -0.128443
v 0.206258 0.195885 -0.130298
v 0.206258 0.194950 -0.128693
v 0.206258 0.194673 -0.128443
v 0.206258 0.194371 -0.128221
v 0.206258 0.194046 -0.128030
v 0.206258 0.193337 -0.127752
v 0.206258 0.195609 -0.129596
v 0.206258 0.195765 -0.129938
v -0.219037 0.195765 -0.129938
v 0.206258 0.195200 -0.128971
v 0.206258 0.195420 -0.129272
v -0.219037 0.195609 -0.129596
v -0.219037 0.195420 -0.129272
v -0.219037 0.195199 -0.128971
v -0.219037 0.193701 -0.127873
v 0.206258 0.193701 -0.127873
vt 0.751900 0.545800
vt 0.756700 0.547300
vt 0.756200 0.547300
vt 0.889700 0.545800
vt 0.110300 0.545600
vt 0.889700 0.545600
vt 0.110300 0.528200
vt 0.889700 0.528200
vt 0.784000 0.546800
vt 0.751900 0.545600
vt 0.784400 0.546700
vt 0.785400 0.546600
vt 0.784900 0.546700
vt 0.786200 0.546500
vt 0.785800 0.546600
vt 0.786900 0.546200
vt 0.786600 0.546400
vt 0.787500 0.546000
vt 0.787300 0.546100
vt 0.788000 0.545600
vt 0.787800 0.545800
vt 0.788200 0.545300
vt 0.788100 0.545400
vt 0.788300 0.544900
vt 0.788300 0.545100
vt 0.786000 0.527400
vt 0.785900 0.527200
vt 0.785700 0.526800
vt 0.785800 0.527000
vt 0.785200 0.526500
vt 0.785500 0.526700
vt 0.784600 0.526200
vt 0.784900 0.526400
vt 0.783900 0.526000
vt 0.784300 0.526100
vt 0.783100 0.525800
vt 0.783500 0.525900
vt 0.782200 0.525700
vt 0.782600 0.525800
vt 0.781200 0.525700
vt 0.781700 0.525700
vt 0.749600 0.528200
vt 0.753900 0.526300
vt 0.749600 0.527800
vt 0.749600 0.528000
vt 0.110300 0.528000
vt 0.889700 0.528000
vt 0.752900 0.526300
vt 0.753400 0.526300
vt 0.752000 0.526500
vt 0.752500 0.526400
vt 0.751600 0.526600
vt 0.751200 0.526700
vt 0.750900 0.526800
vt 0.750600 0.526900
vt 0.750100 0.527200
vt 0.750300 0.527100
vt 0.749700 0.527600
vt 0.749900 0.527400
vt 0.889700 0.527600
vt 0.110300 0.527400
vt 0.889700 0.527400
vt 0.889700 0.527800
vt 0.110300 0.527600
vt 0.110300 0.527800
vt 0.250400 0.527800
vt 0.250400 0.528200
vt 0.250300 0.527600
vt 0.249900 0.527200
vt 0.250100 0.527400
vt 0.110300 0.527200
vt 0.889700 0.527200
vt 0.110300 0.527100
vt 0.889700 0.527100
vt 0.249400 0.526900
vt 0.249700 0.527100
vt 0.110300 0.526900
vt 0.889700 0.526900
vt 0.248800 0.526700
vt 0.249100 0.526800
vt 0.110300 0.526800
vt 0.889700 0.526800
vt 0.110300 0.526700
vt 0.889700 0.526700
vt 0.110300 0.526600
vt 0.889700 0.526600
vt 0.248400 0.526600
vt 0.248000 0.526500
vt 0.110300 0.526500
vt 0.889700 0.526500
vt 0.247100 0.526300
vt 0.247500 0.526400
vt 0.110300 0.526400
vt 0.889700 0.526400
vt 0.110300 0.752500
vt 0.889700 0.752900
vt 0.110300 0.752900
vt 0.889700 0.753400
vt 0.110300 0.753400
vt 0.246100 0.526300
vt 0.246600 0.526300
vt 0.889700 0.753900
vt 0.110300 0.753900
vt 0.218800 0.525700
vt 0.248100 0.545600
vt 0.889700 0.781200
vt 0.110300 0.781200
vt 0.217800 0.525700
vt 0.218300 0.525700
vt 0.889700 0.781700
vt 0.110300 0.781700
vt 0.889700 0.782200
vt 0.110300 0.782200
vt 0.216900 0.525800
vt 0.217400 0.525800
vt 0.889700 0.782600
vt 0.110300 0.782600
vt 0.889700 0.783100
vt 0.110300 0.783100
vt 0.216100 0.526000
vt 0.216500 0.525900
vt 0.110300 0.525900
vt 0.889700 0.525800
vt 0.889700 0.525900
vt 0.889700 0.526000
vt 0.110300 0.526000
vt 0.215400 0.526200
vt 0.215700 0.526100
vt 0.889700 0.526100
vt 0.110300 0.526100
vt 0.889700 0.526200
vt 0.110300 0.526200
vt 0.214800 0.526500
vt 0.215100 0.526400
vt 0.889700 0.526400
vt 0.110300 0.526400
vt 0.110300 0.526500
vt 0.889700 0.526500
vt 0.214300 0.526800
vt 0.214500 0.526700
vt 0.889700 0.526700
vt 0.110300 0.526700
vt 0.889700 0.526800
vt 0.110300 0.526800
vt 0.214100 0.527200
vt 0.214200 0.527000
vt 0.889700 0.527000
vt 0.110300 0.527000
vt 0.889700 0.527200
vt 0.110300 0.527200
vt 0.214000 0.527400
vt 0.211700 0.544900
vt 0.889700 0.527400
vt 0.110300 0.527400
vt 0.889700 0.544900
vt 0.110300 0.544900
vt 0.211800 0.545300
vt 0.211700 0.545100
vt 0.889700 0.545100
vt 0.110300 0.545100
vt 0.889700 0.545300
vt 0.110300 0.545300
vt 0.212000 0.545600
vt 0.211900 0.545400
vt 0.889700 0.545400
vt 0.110300 0.545400
vt 0.889700 0.545600
vt 0.110300 0.545600
vt 0.212500 0.546000
vt 0.212200 0.545800
vt 0.889700 0.545800
vt 0.110300 0.545800
vt 0.889700 0.546000
vt 0.110300 0.546000
vt 0.213100 0.546200
vt 0.212700 0.546100
vt 0.889700 0.546100
vt 0.110300 0.546100
vt 0.889700 0.546200
vt 0.110300 0.546200
vt 0.213800 0.546500
vt 0.213400 0.546400
vt 0.889700 0.546400
vt 0.110300 0.546400
vt 0.889700 0.546500
vt 0.110300 0.546500
vt 0.214600 0.546600
vt 0.214200 0.546600
vt 0.889700 0.546600
vt 0.110300 0.546600
vt 0.889700 0.546600
vt 0.110300 0.546600
vt 0.215600 0.546700
vt 0.215100 0.546700
vt 0.889700 0.785400
vt 0.110300 0.784900
vt 0.889700 0.784900
vt 0.110300 0.784400
vt 0.889700 0.784400
vt 0.216000 0.546800
vt 0.243300 0.547300
vt 0.110300 0.784000
vt 0.889700 0.784000
vt 0.110300 0.756700
vt 0.889700 0.756700
vt 0.248100 0.545800
vt 0.243800 0.547300
vt 0.110300 0.756200
vt 0.889700 0.756200
vt 0.110300 0.755700
vt 0.889700 0.755700
vt 0.244300 0.547300
vt 0.248000 0.546000
vt 0.247600 0.546400
vt 0.246800 0.546800
vt 0.244800 0.547300
vt 0.247400 0.546500
vt 0.247100 0.546700
vt 0.110300 0.755200
vt 0.889700 0.755200
vt 0.755700 0.547300
vt 0.753200 0.546800
vt 0.752900 0.546700
vt 0.752600 0.546500
vt 0.752400 0.546400
vt 0.752000 0.546000
vt 0.754300 0.547100
vt 0.755200 0.547300
vt 0.754800 0.547200
vt 0.110300 0.754800
vt 0.889700 0.754800
vt 0.889700 0.546800
vt 0.110300 0.546700
vt 0.889700 0.546700
vt 0.889700 0.546900
vt 0.110300 0.546800
vt 0.753600 0.546900
vt 0.753900 0.547000
vt 0.889700 0.547200
vt 0.110300 0.547100
vt 0.889700 0.547100
vt 0.110300 0.547000
vt 0.889700 0.547000
vt 0.110300 0.546900
vt 0.245700 0.547100
vt 0.246400 0.546900
vt 0.246100 0.547000
vt 0.245200 0.547200
vt 0.889700 0.546400
vt 0.110300 0.546200
vt 0.889700 0.546200
vt 0.889700 0.546500
vt 0.110300 0.546400
vt 0.110300 0.546500
vt 0.110300 0.546000
vt 0.889700 0.546000
vt 0.110300 0.545800
vt 0.250400 0.528000
vt 0.889700 0.752500
vt 0.110300 0.525800
vt 0.110300 0.785400
vt 0.247800 0.546200
vt 0.752200 0.546200
vt 0.110300 0.547200
vn 1.0000 0.0000 0.0000
vn 0.0000 0.1595 0.9872
vn 0.0000 0.1057 0.9944
vn 0.0000 0.1058 0.9944
vn 0.0000 0.0523 0.9986
vn 1.0000 -0.0004 0.0000
vn 1.0000 0.0001 0.0000
vn 1.0000 0.0009 0.0000
vn 1.0000 0.0010 0.0000
vn 1.0000 -0.0005 0.0000
vn 1.0000 0.0002 0.0000
vn 1.0000 -0.0002 0.0000
vn 0.0000 -0.0014 1.0000
vn 0.0000 -0.0552 0.9985
vn 1.0000 -0.0009 0.0000
vn 1.0000 -0.0001 0.0000
vn 1.0000 0.0005 0.0000
vn 0.0000 -0.2652 0.9642
vn 0.0000 -0.3656 0.9308
vn 0.0000 -0.3657 0.9307
vn 0.0000 -0.1624 0.9867
vn 0.0000 -0.2653 0.9642
vn 0.0000 -0.1621 0.9868
vn -1.0000 0.0000 0.0000
vn -1.0000 0.0005 0.0000
vn 0.0000 -0.4601 0.8878
vn 0.0000 -0.4600 0.8879
vn 0.0000 -0.5488 0.8360
vn -0.0000 -0.5483 0.8363
vn -0.0000 -0.6303 0.7764
vn -0.0000 -0.6306 0.7761
vn -1.0000 -0.0005 0.0000
vn -0.0000 -0.7057 0.7085
vn 0.0000 -0.7058 0.7085
vn -0.0000 -0.7746 0.6325
vn 0.0000 -0.7747 0.6323
vn 0.0000 -0.8354 0.5496
vn 0.0000 -0.8354 0.5497
vn 0.0000 -0.8874 0.4611
vn 0.0000 -0.9309 0.3653
vn 0.0000 -0.9309 0.3654
vn 0.0000 -0.9644 0.2645
vn 0.0000 -0.9644 0.2646
vn 0.0000 -0.9872 0.1595
vn 0.0000 -0.9944 0.1058
vn 0.0000 -0.9944 0.1057
vn 0.0000 -0.9986 0.0523
vn -1.0000 -0.0009 0.0000
vn -0.0000 -1.0000 -0.0020
vn 0.0000 -0.9985 -0.0552
vn 0.0000 -0.9985 -0.0551
vn 0.0000 -0.9867 -0.1624
vn -1.0000 -0.0010 0.0000
vn 0.0000 -0.9639 -0.2664
vn 0.0000 -0.9312 -0.3646
vn 0.0000 -0.9308 -0.3656
vn 0.0000 -0.8882 -0.4595
vn 0.0000 -0.8880 -0.4599
vn -0.0000 -0.8363 -0.5482
vn 0.0000 -0.8363 -0.5483
vn 0.0000 -0.7765 -0.6301
vn 0.0000 -0.7764 -0.6302
vn 0.0000 -0.7084 -0.7058
vn 0.0000 -0.7077 -0.7065
vn 0.0000 -0.6326 -0.7744
vn 0.0000 -0.6325 -0.7745
vn -0.0000 -0.5501 -0.8351
vn 0.0000 -0.5502 -0.8350
vn 0.0000 -0.4606 -0.8876
vn 0.0000 -0.3648 -0.9311
vn 0.0000 -0.2645 -0.9644
vn 0.0000 -0.1595 -0.9872
vn 0.0000 -0.1058 -0.9944
vn 0.0000 -0.1057 -0.9944
vn 0.0000 -0.0523 -0.9986
vn 0.0000 0.0014 -1.0000
vn 0.0000 0.0553 -0.9985
vn 0.0000 0.1622 -0.9868
vn -1.0000 0.0002 0.0000
vn 0.0000 0.2653 -0.9642
vn 0.0000 0.3656 -0.9308
vn 0.0000 0.4601 -0.8879
vn 0.0000 0.4601 -0.8878
vn 0.0000 0.5476 -0.8367
vn 0.0000 0.5485 -0.8362
vn 0.0000 0.6303 -0.7764
vn 0.0000 0.6303 -0.7763
vn 0.0000 0.7064 -0.7078
vn 0.0000 0.7057 -0.7085
vn 0.0000 0.7744 -0.6327
vn -0.0000 0.8354 -0.5496
vn 0.0000 0.8353 -0.5499
vn 0.0000 0.8879 -0.4600
vn 0.0000 0.8877 -0.4604
vn 0.0000 0.9310 -0.3651
vn 0.0000 0.9644 -0.2645
vn 0.0000 0.9872 -0.1595
vn 0.0000 0.9872 -0.1596
vn -1.0000 0.0004 0.0000
vn 0.0000 0.9943 -0.1062
vn -0.0000 0.9943 -0.1065
vn 0.0000 0.9986 -0.0523
vn -1.0000 0.0001 0.0000
vn 0.0000 1.0000 0.0014
vn 0.0000 0.9985 0.0551
vn 0.0000 0.9867 0.1624
vn -0.0000 0.9868 0.1621
vn -1.0000 -0.0001 0.0000
vn -0.0000 0.9642 0.2652
vn -0.0000 0.9307 0.3658
vn 0.0000 0.9306 0.3661
vn 0.0000 0.7081 0.7061
vn -0.0000 0.6323 0.7747
vn 0.0000 0.6324 0.7746
vn -0.0000 0.7765 0.6301
vn -0.0000 0.7084 0.7058
vn 0.0000 0.8879 0.4600
vn 0.0000 0.8879 0.4601
vn -0.0000 0.8365 0.5480
vn -0.0000 0.8367 0.5477
vn -0.0000 0.7764 0.6303
vn -1.0000 0.0010 0.0000
vn 0.0000 0.4611 0.8874
vn 0.0000 0.3653 0.9309
vn 0.0000 0.5502 0.8350
vn 0.0000 0.4606 0.8876
vn 0.0000 0.2645 0.9644
usemtl 01___Default.011
s 1
f 1/1/1 2/2/1 3/3/1
f 1/4/2 4/5/3 5/6/4
f 5/6/5 6/7/5 7/8/5
f 8/9/6 5/10/1 9/11/7
f 9/11/7 10/12/1 11/13/8
f 10/12/1 12/14/1 13/15/9
f 12/14/1 14/16/1 15/17/1
f 14/16/1 16/18/1 17/19/1
f 16/18/1 18/20/1 19/21/10
f 18/20/1 20/22/1 21/23/11
f 20/22/1 22/24/1 23/25/1
f 24/26/1 5/10/1 25/27/1
f 25/27/1 26/28/1 27/29/12
f 26/28/1 28/30/1 29/31/1
f 28/30/1 30/32/1 31/33/1
f 30/32/1 32/34/1 33/35/1
f 32/34/1 34/36/1 35/37/1
f 34/36/1 36/38/1 37/39/1
f 36/38/1 38/40/1 39/41/8
f 38/40/1 7/42/1 40/43/1
f 41/44/1 7/42/1 42/45/1
f 7/8/13 43/46/14 42/47/14
f 40/43/1 44/48/1 45/49/15
f 44/48/1 46/50/1 47/51/15
f 48/52/1 7/42/1 49/53/16
f 50/54/7 7/42/1 51/55/1
f 51/55/1 52/56/1 53/57/17
f 52/56/1 54/58/1 55/59/1
f 54/60/18 56/61/19 55/62/20
f 41/63/21 57/64/22 54/60/18
f 42/47/14 58/65/23 41/63/21
f 58/66/24 6/67/24 57/68/24
f 57/68/24 59/69/24 56/70/25
f 55/62/20 59/71/26 52/72/27
f 52/72/27 60/73/28 53/74/29
f 59/69/24 61/75/24 60/76/25
f 53/74/29 61/77/30 51/78/31
f 61/75/24 62/79/24 63/80/32
f 51/78/31 63/81/33 50/82/34
f 50/82/34 62/83/35 49/84/36
f 49/84/36 64/85/37 48/86/38
f 64/87/24 6/67/24 65/88/24
f 48/86/38 65/89/39 46/90/39
f 65/88/24 66/91/24 67/92/24
f 46/90/39 67/93/40 47/94/41
f 47/95/41 66/96/42 44/97/43
f 44/97/43 68/98/44 45/99/44
f 66/91/24 69/100/24 68/101/24
f 45/99/44 69/102/45 40/103/46
f 70/104/24 6/67/24 4/105/24
f 40/103/47 70/106/47 38/107/47
f 70/104/24 71/108/24 72/109/48
f 38/107/49 72/110/50 39/111/51
f 39/111/51 71/112/52 36/113/52
f 71/108/24 73/114/24 74/115/53
f 36/113/52 74/116/54 37/117/54
f 37/117/54 73/118/55 34/119/56
f 73/114/24 75/120/24 76/121/24
f 35/122/57 73/123/55 76/124/58
f 35/122/57 75/125/59 32/126/60
f 75/120/24 77/127/24 78/128/24
f 32/126/60 78/129/61 33/130/62
f 33/130/62 77/131/63 30/132/64
f 77/127/24 79/133/24 80/134/32
f 30/132/64 80/135/65 31/136/66
f 28/137/67 80/135/65 79/138/68
f 79/133/24 81/139/24 82/140/32
f 28/137/67 82/141/69 29/142/69
f 29/142/69 81/143/70 26/144/70
f 81/139/24 83/145/24 84/146/24
f 26/144/70 84/147/71 27/148/71
f 27/148/71 83/149/72 25/150/72
f 85/151/24 4/105/24 86/152/24
f 25/150/72 85/153/73 24/154/74
f 24/154/75 86/155/75 22/156/75
f 86/152/24 87/157/24 88/158/24
f 22/156/76 88/159/77 23/160/77
f 23/160/77 87/161/78 20/162/78
f 87/157/24 89/163/24 90/164/79
f 20/162/78 90/165/80 21/166/80
f 21/166/80 89/167/81 18/168/81
f 89/163/24 91/169/24 92/170/24
f 18/168/81 92/171/82 19/172/83
f 19/172/83 91/173/84 16/174/85
f 91/169/24 93/175/24 94/176/24
f 16/174/85 94/177/86 17/178/87
f 17/178/87 93/179/88 14/180/89
f 93/175/24 95/181/24 96/182/24
f 14/180/89 96/183/90 15/184/90
f 15/184/90 95/185/91 12/186/92
f 95/181/24 97/187/24 98/188/24
f 12/186/92 98/189/93 13/190/94
f 13/190/94 97/191/95 10/192/95
f 97/187/24 99/193/24 100/194/24
f 10/195/95 100/196/96 11/197/96
f 11/197/96 99/198/97 9/199/98
f 101/200/99 4/105/24 102/201/24
f 9/199/98 101/202/100 8/203/101
f 8/203/102 102/204/102 2/205/102
f 102/201/24 103/206/24 104/207/103
f 2/205/104 104/208/105 3/209/105
f 3/209/105 105/210/106 106/211/107
f 105/212/24 103/206/24 107/213/24
f 107/213/24 108/214/24 105/212/24
f 105/212/24 109/215/24 110/216/24
f 105/212/24 111/217/108 112/218/103
f 106/211/107 110/219/109 113/220/109
f 106/221/1 114/222/1 115/223/1
f 106/221/1 116/224/16 117/225/1
f 117/225/1 118/226/7 106/221/1
f 106/221/1 1/1/1 3/3/1
f 119/227/1 113/228/1 120/229/1
f 113/220/109 121/230/110 120/231/111
f 114/232/112 112/233/113 115/234/114
f 122/235/115 109/236/116 114/232/112
f 122/237/1 119/227/1 123/238/1
f 120/239/111 124/240/117 119/241/118
f 119/241/118 125/242/119 123/243/120
f 123/243/120 126/244/121 122/235/115
f 124/245/24 126/246/79 125/247/53
f 110/216/24 124/245/24 121/248/122
f 117/249/123 127/250/124 128/251/124
f 116/252/125 108/253/126 117/249/123
f 115/234/114 111/254/125 116/252/125
f 128/251/124 107/255/127 118/256/127
f 118/256/127 103/257/2 1/4/2
f 1/1/1 5/10/1 2/2/1
f 1/4/2 103/257/2 4/5/3
f 5/6/5 4/5/5 6/7/5
f 8/9/6 2/2/1 5/10/1
f 9/11/7 5/10/1 10/12/1
f 10/12/1 5/10/1 12/14/1
f 12/14/1 5/10/1 14/16/1
f 14/16/1 5/10/1 16/18/1
f 16/18/1 5/10/1 18/20/1
f 18/20/1 5/10/1 20/22/1
f 20/22/1 5/10/1 22/24/1
f 24/26/1 22/24/1 5/10/1
f 25/27/1 5/10/1 26/28/1
f 26/28/1 5/10/1 28/30/1
f 28/30/1 5/10/1 30/32/1
f 30/32/1 5/10/1 32/34/1
f 32/34/1 5/10/1 34/36/1
f 34/36/1 5/10/1 36/38/1
f 36/38/1 5/10/1 38/40/1
f 38/40/1 5/10/1 7/42/1
f 41/44/1 54/58/1 7/42/1
f 7/8/13 6/7/13 43/46/14
f 40/43/1 7/42/1 44/48/1
f 44/48/1 7/42/1 46/50/1
f 48/52/1 46/50/1 7/42/1
f 50/54/7 49/53/16 7/42/1
f 51/55/1 7/42/1 52/56/1
f 52/56/1 7/42/1 54/58/1
f 54/60/18 57/64/22 56/61/19
f 41/63/21 58/65/23 57/64/22
f 42/47/14 43/46/14 58/65/23
f 58/66/24 43/258/24 6/67/24
f 57/68/24 6/67/24 59/69/24
f 55/62/20 56/61/19 59/71/26
f 52/72/27 59/71/26 60/73/28
f 59/69/24 6/67/24 61/75/24
f 53/74/29 60/73/28 61/77/30
f 61/75/24 6/67/24 62/79/24
f 51/78/31 61/77/30 63/81/33
f 50/82/34 63/81/33 62/83/35
f 49/84/36 62/83/35 64/85/37
f 64/87/24 62/79/24 6/67/24
f 48/86/38 64/85/37 65/89/39
f 65/88/24 6/67/24 66/91/24
f 46/90/39 65/89/39 67/93/40
f 47/95/41 67/259/40 66/96/42
f 44/97/43 66/96/42 68/98/44
f 66/91/24 6/67/24 69/100/24
f 45/99/44 68/98/44 69/102/45
f 70/104/24 69/100/24 6/67/24
f 40/103/47 69/102/47 70/106/47
f 70/104/24 4/105/24 71/108/24
f 38/107/49 70/106/49 72/110/50
f 39/111/51 72/110/50 71/112/52
f 71/108/24 4/105/24 73/114/24
f 36/113/52 71/112/52 74/116/54
f 37/117/54 74/116/54 73/118/55
f 73/114/24 4/105/24 75/120/24
f 35/122/57 34/260/56 73/123/55
f 35/122/57 76/124/58 75/125/59
f 75/120/24 4/105/24 77/127/24
f 32/126/60 75/125/59 78/129/61
f 33/130/62 78/129/61 77/131/63
f 77/127/24 4/105/24 79/133/24
f 30/132/64 77/131/63 80/135/65
f 28/137/67 31/136/66 80/135/65
f 79/133/24 4/105/24 81/139/24
f 28/137/67 79/138/68 82/141/69
f 29/142/69 82/141/69 81/143/70
f 81/139/24 4/105/24 83/145/24
f 26/144/70 81/143/70 84/147/71
f 27/148/71 84/147/71 83/149/72
f 85/151/24 83/145/24 4/105/24
f 25/150/72 83/149/72 85/153/73
f 24/154/75 85/153/75 86/155/75
f 86/152/24 4/105/24 87/157/24
f 22/156/76 86/155/76 88/159/77
f 23/160/77 88/159/77 87/161/78
f 87/157/24 4/105/24 89/163/24
f 20/162/78 87/161/78 90/165/80
f 21/166/80 90/165/80 89/167/81
f 89/163/24 4/105/24 91/169/24
f 18/168/81 89/167/81 92/171/82
f 19/172/83 92/171/82 91/173/84
f 91/169/24 4/105/24 93/175/24
f 16/174/85 91/173/84 94/177/86
f 17/178/87 94/177/86 93/179/88
f 93/175/24 4/105/24 95/181/24
f 14/180/89 93/179/88 96/183/90
f 15/184/90 96/183/90 95/185/91
f 95/181/24 4/105/24 97/187/24
f 12/186/92 95/185/91 98/189/93
f 13/190/94 98/189/93 97/191/95
f 97/187/24 4/105/24 99/193/24
f 10/195/95 97/261/95 100/196/96
f 11/197/96 100/196/96 99/198/97
f 101/200/99 99/193/24 4/105/24
f 9/199/98 99/198/97 101/202/100
f 8/203/102 101/202/102 102/204/102
f 102/201/24 4/105/24 103/206/24
f 2/205/104 102/204/104 104/208/105
f 3/209/105 104/208/105 105/210/106
f 105/212/24 104/207/103 103/206/24
f 107/213/24 127/262/25 108/214/24
f 105/212/24 112/218/103 109/215/24
f 105/212/24 108/214/24 111/217/108
f 106/211/107 105/210/106 110/219/109
f 106/221/1 113/228/1 114/222/1
f 106/221/1 115/223/1 116/224/16
f 117/225/1 128/263/1 118/226/7
f 106/221/1 118/226/7 1/1/1
f 119/227/1 114/222/1 113/228/1
f 113/220/109 110/219/109 121/230/110
f 114/232/112 109/236/116 112/233/113
f 122/235/115 126/244/121 109/236/116
f 122/237/1 114/222/1 119/227/1
f 120/239/111 121/264/110 124/240/117
f 119/241/118 124/240/117 125/242/119
f 123/243/120 125/242/119 126/244/121
f 124/245/24 109/215/24 126/246/79
f 110/216/24 109/215/24 124/245/24
f 117/249/123 108/253/126 127/250/124
f 116/252/125 111/254/125 108/253/126
f 115/234/114 112/233/113 111/254/125
f 128/251/124 127/250/124 107/255/127
f 118/256/127 107/255/127 103/257/2