# Blender v3.0.1 OBJ File: ''
# www.blender.org
mtllib 09.mtl
o normalized.016_normalized.050
v 0.230561 -0.178903 -0.145288
v 0.230561 -0.142449 -0.113830
v 0.230561 -0.178903 -0.113830
v 0.206258 -0.178903 -0.145288
v 0.206258 0.947368 -0.193283
v 0.230561 0.947368 -0.193283
v 0.230561 0.948316 -0.156915
v 0.230561 0.947997 -0.156853
v 0.230561 0.947838 -0.156827
v 0.230561 0.947679 -0.156802
v 0.230561 0.948965 -0.157114
v 0.230561 0.948638 -0.156999
v 0.230561 0.949633 -0.157486
v 0.230561 0.949296 -0.157273
v 0.230561 0.950331 -0.158149
v 0.230561 0.949979 -0.157763
v 0.230561 0.950827 -0.158928
v 0.230561 0.950617 -0.158557
v 0.230561 0.951066 -0.159586
v 0.230561 0.950972 -0.159270
v 0.230561 0.951152 -0.160171
v 0.230561 0.951122 -0.159885
v 0.230561 0.951168 -0.189641
v 0.230561 0.951168 -0.160451
v 0.230561 -0.142449 -0.110355
v 0.206258 0.947547 -0.193271
v 0.230561 0.947547 -0.193271
v 0.206258 0.949979 -0.157763
v 0.206258 0.950331 -0.158149
v 0.206258 0.949633 -0.157486
v 0.206258 0.950617 -0.158557
v 0.206258 0.950827 -0.158929
v 0.206258 0.950972 -0.159270
v 0.206258 0.951066 -0.159586
v 0.206258 0.951122 -0.159885
v 0.206258 0.951152 -0.160171
v 0.206258 0.951168 -0.189641
v 0.206258 0.951168 -0.160451
v 0.206258 -0.142449 -0.113830
v 0.206258 0.947679 -0.156802
v 0.206258 0.947997 -0.156853
v 0.206258 0.948316 -0.156915
v 0.206258 0.947838 -0.156827
v 0.206258 0.948638 -0.156999
v 0.206258 0.948965 -0.157114
v 0.206258 0.949296 -0.157273
v 0.206258 0.949464 -0.157372
v 0.230561 0.949464 -0.157372
v 0.230561 0.949805 -0.157615
v 0.206258 0.949805 -0.157615
v 0.206258 0.948801 -0.157052
v 0.230561 0.948801 -0.157052
v 0.230561 0.949129 -0.157188
v 0.206258 0.949129 -0.157188
v 0.206258 0.948156 -0.156882
v 0.230561 0.948156 -0.156882
v 0.230561 0.948477 -0.156953
v 0.206258 0.948477 -0.156953
v 0.206258 -0.142449 -0.110355
v 0.206258 0.951153 -0.189802
v 0.206258 0.947726 -0.193258
v 0.230561 0.947726 -0.193258
v 0.230561 0.951153 -0.189802
v 0.230561 0.951136 -0.189963
v 0.206258 0.951136 -0.189963
v 0.206258 0.947905 -0.193241
v 0.230561 0.951116 -0.190126
v 0.206258 0.951116 -0.190126
v 0.206258 0.951091 -0.190289
v 0.230561 0.947905 -0.193241
v 0.206258 0.948084 -0.193220
v 0.230561 0.948084 -0.193220
v 0.206258 0.951059 -0.190454
v 0.206258 0.950970 -0.190789
v 0.206258 0.950835 -0.191134
v 0.206258 0.951019 -0.190620
v 0.206258 0.950519 -0.191675
v 0.206258 0.950377 -0.191864
v 0.206258 0.950642 -0.191491
v 0.206258 0.948263 -0.193193
v 0.206258 0.950029 -0.192255
v 0.206258 0.949855 -0.192426
v 0.206258 0.950214 -0.192057
v 0.230561 0.948263 -0.193193
v 0.230561 0.950519 -0.191675
v 0.230561 0.950642 -0.191491
v 0.230561 0.950835 -0.191134
v 0.230561 0.950029 -0.192255
v 0.230561 0.950214 -0.192057
v 0.230561 0.950377 -0.191864
v 0.230561 0.950970 -0.190789
v 0.230561 0.951019 -0.190620
v 0.230561 0.951059 -0.190454
v 0.230561 0.948441 -0.193159
v 0.230561 0.949855 -0.192426
v 0.206258 0.948441 -0.193159
v 0.230561 0.948619 -0.193115
v 0.230561 0.949680 -0.192576
v 0.206258 0.948619 -0.193115
v 0.230561 0.949504 -0.192707
v 0.206258 0.949680 -0.192576
v 0.230561 0.949328 -0.192819
v 0.206258 0.949504 -0.192707
v 0.230561 0.949151 -0.192914
v 0.206258 0.949328 -0.192819
v 0.230561 0.948975 -0.192994
v 0.206258 0.949151 -0.192914
v 0.230561 0.948797 -0.193061
v 0.206258 0.948975 -0.192994
v 0.206258 0.948797 -0.193061
v 0.206258 0.950909 -0.190960
v 0.230561 0.950909 -0.190960
v 0.230561 0.950746 -0.191311
v 0.206258 0.950746 -0.191311
v 0.230561 0.951091 -0.190289
v 0.206258 0.951139 -0.160029
v 0.230561 0.951139 -0.160029
v 0.230561 0.951161 -0.160311
v 0.206258 0.951161 -0.160311
v 0.206258 0.951025 -0.159431
v 0.230561 0.951025 -0.159431
v 0.230561 0.951098 -0.159737
v 0.206258 0.951098 -0.159737
v 0.206258 0.950731 -0.158747
v 0.230561 0.950731 -0.158747
v 0.230561 0.950906 -0.159102
v 0.206258 0.950906 -0.159102
v 0.206258 0.950155 -0.157929
v 0.230561 0.950155 -0.157929
v 0.230561 0.950485 -0.158358
v 0.206258 0.950485 -0.158358
v 0.206258 -0.178903 -0.113830
vt 0.773900 0.361400
vt 0.734600 0.379500
vt 0.734600 0.361400
vt 0.065800 0.734600
vt 0.110300 0.773900
vt 0.065800 0.773900
vt 0.065800 0.361400
vt 0.110300 0.920000
vt 0.065800 0.920000
vt 0.788500 0.920500
vt 0.788400 0.920300
vt 0.833900 0.920000
vt 0.788400 0.920200
vt 0.788300 0.920200
vt 0.788700 0.920800
vt 0.788600 0.920600
vt 0.789200 0.921100
vt 0.788900 0.921000
vt 0.790000 0.921500
vt 0.789500 0.921300
vt 0.791000 0.921700
vt 0.790500 0.921600
vt 0.791800 0.921800
vt 0.791400 0.921800
vt 0.792500 0.921900
vt 0.792200 0.921900
vt 0.829400 0.921900
vt 0.792900 0.921900
vt 0.730300 0.379500
vt 0.110300 0.920100
vt 0.065800 0.920100
vt 0.210500 0.921300
vt 0.210000 0.921500
vt 0.166100 0.920000
vt 0.210800 0.921100
vt 0.209500 0.921600
vt 0.209000 0.921700
vt 0.208600 0.921800
vt 0.208200 0.921800
vt 0.207800 0.921900
vt 0.207500 0.921900
vt 0.170600 0.921900
vt 0.166100 0.920100
vt 0.207100 0.921900
vt 0.226100 0.361400
vt 0.265400 0.379500
vt 0.211700 0.920200
vt 0.211600 0.920300
vt 0.211500 0.920500
vt 0.211600 0.920200
vt 0.211400 0.920600
vt 0.211300 0.920800
vt 0.211100 0.921000
vt 0.934200 0.921100
vt 0.889700 0.921000
vt 0.934200 0.921000
vt 0.934200 0.921200
vt 0.889700 0.921100
vt 0.934200 0.921300
vt 0.889700 0.921200
vt 0.889700 0.921000
vt 0.934200 0.921000
vt 0.934200 0.920800
vt 0.889700 0.920700
vt 0.934200 0.920700
vt 0.934200 0.920900
vt 0.889700 0.920800
vt 0.889700 0.920900
vt 0.889700 0.920600
vt 0.934200 0.920600
vt 0.934200 0.920500
vt 0.889700 0.920400
vt 0.934200 0.920400
vt 0.934200 0.920600
vt 0.889700 0.920500
vt 0.889700 0.920600
vt 0.889700 0.920300
vt 0.934200 0.920300
vt 0.934200 0.920200
vt 0.889700 0.379500
vt 0.934200 0.379500
vt 0.934200 0.920200
vt 0.889700 0.920200
vt 0.889700 0.920200
vt 0.065800 0.730300
vt 0.110300 0.734600
vt 0.065800 0.734600
vt 0.170400 0.921900
vt 0.166100 0.920200
vt 0.110300 0.920200
vt 0.065800 0.920200
vt 0.934200 0.829400
vt 0.889700 0.792900
vt 0.934200 0.792900
vt 0.934200 0.829600
vt 0.889700 0.829400
vt 0.934200 0.829800
vt 0.889700 0.829600
vt 0.170200 0.921900
vt 0.166100 0.920300
vt 0.934200 0.830000
vt 0.889700 0.829800
vt 0.170000 0.921900
vt 0.169800 0.921900
vt 0.110300 0.920300
vt 0.065800 0.920300
vt 0.110300 0.920400
vt 0.065800 0.920400
vt 0.169600 0.921800
vt 0.166200 0.920400
vt 0.169200 0.921800
vt 0.168800 0.921700
vt 0.169400 0.921800
vt 0.168100 0.921600
vt 0.167900 0.921500
vt 0.168300 0.921600
vt 0.166200 0.920400
vt 0.167400 0.921300
vt 0.167200 0.921200
vt 0.167600 0.921400
vt 0.110300 0.920400
vt 0.065800 0.920400
vt 0.833800 0.920400
vt 0.831900 0.921600
vt 0.831700 0.921600
vt 0.831200 0.921700
vt 0.833800 0.920400
vt 0.832600 0.921300
vt 0.832400 0.921400
vt 0.832100 0.921500
vt 0.830800 0.921800
vt 0.830600 0.921800
vt 0.830400 0.921800
vt 0.833900 0.920300
vt 0.833800 0.920500
vt 0.832800 0.921200
vt 0.110300 0.920500
vt 0.065800 0.920500
vt 0.833700 0.920600
vt 0.833000 0.921200
vt 0.110300 0.920600
vt 0.065800 0.920600
vt 0.065800 0.921200
vt 0.110300 0.921200
vt 0.065800 0.921200
vt 0.065800 0.921100
vt 0.110300 0.921200
vt 0.065800 0.921000
vt 0.110300 0.921100
vt 0.833500 0.920900
vt 0.833200 0.921100
vt 0.065800 0.920900
vt 0.110300 0.921000
vt 0.065800 0.920800
vt 0.110300 0.920900
vt 0.833600 0.920700
vt 0.065800 0.920700
vt 0.110300 0.920800
vt 0.110300 0.920700
vt 0.166500 0.920900
vt 0.166400 0.920700
vt 0.166300 0.920600
vt 0.167000 0.921200
vt 0.166200 0.920500
vt 0.166800 0.921100
vt 0.110300 0.921300
vt 0.065800 0.921300
vt 0.065800 0.921500
vt 0.110300 0.921600
vt 0.065800 0.921600
vt 0.065800 0.921400
vt 0.110300 0.921500
vt 0.110300 0.921400
vt 0.110300 0.921600
vt 0.065800 0.921600
vt 0.065800 0.921700
vt 0.110300 0.921800
vt 0.065800 0.921800
vt 0.065800 0.921700
vt 0.110300 0.921700
vt 0.110300 0.921700
vt 0.934200 0.831000
vt 0.889700 0.830800
vt 0.934200 0.830800
vt 0.934200 0.830400
vt 0.889700 0.830200
vt 0.934200 0.830200
vt 0.934200 0.830600
vt 0.889700 0.830400
vt 0.889700 0.830600
vt 0.830000 0.921900
vt 0.829800 0.921900
vt 0.889700 0.830000
vt 0.833900 0.920200
vt 0.829600 0.921900
vt 0.833900 0.920100
vt 0.934200 0.792500
vt 0.889700 0.792400
vt 0.934200 0.792400
vt 0.934200 0.792700
vt 0.889700 0.792500
vt 0.889700 0.792700
vt 0.889700 0.792200
vt 0.934200 0.792200
vt 0.934200 0.791800
vt 0.889700 0.791600
vt 0.934200 0.791600
vt 0.934200 0.792000
vt 0.889700 0.791800
vt 0.889700 0.792000
vt 0.889700 0.791400
vt 0.934200 0.791400
vt 0.934200 0.921700
vt 0.889700 0.921700
vt 0.934200 0.921700
vt 0.934200 0.921800
vt 0.889700 0.921700
vt 0.889700 0.791200
vt 0.934200 0.791200
vt 0.889700 0.921600
vt 0.934200 0.921600
vt 0.934200 0.921500
vt 0.889700 0.921400
vt 0.934200 0.921400
vt 0.934200 0.921600
vt 0.889700 0.921500
vt 0.889700 0.921600
vt 0.889700 0.921300
vt 0.934200 0.379500
vt 0.889700 0.361400
vt 0.934200 0.361400
vt 0.110300 0.734600
vt 0.110300 0.361400
vt 0.788400 0.920400
vt 0.788600 0.920700
vt 0.788500 0.920600
vt 0.789000 0.921000
vt 0.788800 0.920900
vt 0.789700 0.921400
vt 0.789300 0.921200
vt 0.790800 0.921700
vt 0.790300 0.921600
vt 0.791600 0.921800
vt 0.791200 0.921800
vt 0.792400 0.921900
vt 0.792000 0.921900
vt 0.792700 0.921900
vt 0.210300 0.921400
vt 0.210700 0.921200
vt 0.209200 0.921700
vt 0.209700 0.921600
vt 0.208400 0.921800
vt 0.208800 0.921800
vt 0.207600 0.921900
vt 0.208000 0.921900
vt 0.207300 0.921900
vt 0.265400 0.361400
vt 0.269700 0.379500
vt 0.211600 0.920400
vt 0.211400 0.920700
vt 0.211500 0.920600
vt 0.211000 0.921000
vt 0.211200 0.920900
vt 0.110300 0.730300
vt 0.169000 0.921800
vt 0.168600 0.921700
vt 0.831400 0.921700
vt 0.831000 0.921800
vt 0.830200 0.921900
vt 0.833300 0.921000
vt 0.833600 0.920800
vt 0.166400 0.920800
vt 0.166700 0.921000
vt 0.889700 0.831000
vt 0.889700 0.921800
vt 0.889700 0.379500
vn 1.0000 -0.0000 0.0000
vn 0.0000 -1.0000 -0.0000
vn 0.0000 -0.0426 -0.9991
vn 1.0000 -0.0001 0.0000
vn 1.0000 0.0001 0.0000
vn -0.0000 0.0654 -0.9979
vn 0.0000 0.0697 -0.9976
vn -1.0000 -0.0001 0.0000
vn -1.0000 0.0000 0.0000
vn 0.0000 0.5799 0.8147
vn 0.0000 0.5323 0.8465
vn 0.0000 0.5326 0.8464
vn 0.0000 0.6241 0.7813
vn 0.0000 0.5797 0.8148
vn 0.0000 0.6664 0.7456
vn 0.0000 0.6244 0.7811
vn 0.0000 0.4822 0.8761
vn 0.0000 0.4824 0.8760
vn 0.0000 0.3828 0.9238
vn 0.0000 0.3343 0.9425
vn 0.0000 0.3344 0.9424
vn 0.0000 0.4322 0.9018
vn 0.0000 0.3820 0.9242
vn 0.0000 0.4313 0.9022
vn 0.0000 0.2902 0.9570
vn 0.0000 0.2166 0.9763
vn 0.0000 0.1907 0.9816
vn 0.0000 0.2509 0.9680
vn 0.0000 0.2508 0.9680
vn 0.0000 0.1704 0.9854
vn 0.0000 0.1705 0.9854
vn 0.0000 0.0426 0.9991
vn 0.0000 0.1584 0.9874
vn 0.0000 0.1554 0.9879
vn 0.0000 0.1583 0.9874
vn -1.0000 -0.0002 0.0000
vn 0.0000 0.0829 -0.9966
vn 0.0000 0.0828 -0.9966
vn 0.0000 1.0000 0.0000
vn 0.0000 0.9949 -0.1004
vn -0.0000 0.9955 -0.0946
vn 0.0000 0.9955 -0.0945
vn 0.0000 0.9934 -0.1149
vn 0.0000 0.9906 -0.1370
vn -0.0000 0.9933 -0.1159
vn -1.0000 0.0001 0.0000
vn -0.0000 0.1036 -0.9946
vn 0.0000 0.1329 -0.9911
vn 0.0000 0.1328 -0.9911
vn -1.0000 0.0002 0.0000
vn 0.0000 0.1697 -0.9855
vn 0.0000 0.1698 -0.9855
vn 1.0000 -0.0002 0.0000
vn 0.0000 0.2139 -0.9769
vn 0.0000 0.2139 -0.9768
vn 0.0000 0.2653 -0.9642
vn 0.0000 0.2652 -0.9642
vn 0.0000 0.6245 -0.7811
vn -0.0000 0.6755 -0.7373
vn 0.0000 0.6768 -0.7362
vn 0.0000 0.5672 -0.8235
vn 0.0000 0.6243 -0.7812
vn 0.0000 0.5061 -0.8625
vn 0.0000 0.5676 -0.8233
vn -0.0000 0.4440 -0.8960
vn 0.0000 0.5064 -0.8623
vn 0.0000 0.3822 -0.9241
vn 0.0000 0.4437 -0.8962
vn 1.0000 -0.0010 0.0000
vn 0.0000 0.3213 -0.9470
vn -0.0000 0.3830 -0.9237
vn 0.0000 0.3222 -0.9467
vn -1.0000 0.0003 0.0000
vn -0.0000 0.7000 -0.7141
vn 0.0000 0.7010 -0.7132
vn 0.0000 0.7820 -0.6233
vn 0.0000 0.8162 -0.5778
vn -0.0000 0.8167 -0.5771
vn 0.0000 0.7470 -0.6648
vn 0.0000 0.7822 -0.6231
vn -0.0000 0.7293 -0.6842
vn 0.0000 0.8489 -0.5286
vn 0.0000 0.8500 -0.5268
vn 0.0000 0.9079 -0.4191
vn 0.0000 0.9314 -0.3639
vn 0.0000 0.9316 -0.3636
vn 0.0000 0.8800 -0.4750
vn 0.0000 0.9078 -0.4194
vn 0.0000 0.8799 -0.4752
vn -0.0000 0.9514 -0.3078
vn 0.0000 0.9515 -0.3076
vn 0.0000 0.9774 -0.2112
vn 0.0000 0.9854 -0.1704
vn 0.0000 0.9853 -0.1711
vn 0.0000 0.9669 -0.2552
vn 0.0000 0.9771 -0.2129
vn -0.0000 0.9663 -0.2575
vn -0.0000 0.9904 -0.1385
vn 0.0000 0.9969 0.0781
vn 0.0000 0.9946 0.1033
vn 0.0000 0.9944 0.1054
vn 0.0000 0.9982 0.0605
vn 0.0000 0.9970 0.0774
vn 0.0000 0.9985 0.0548
vn 0.0000 0.9981 0.0611
vn 0.0000 0.9904 0.1383
vn -0.0000 0.9902 0.1395
vn 0.0000 0.9727 0.2319
vn 0.0000 0.9589 0.2838
vn 0.0000 0.9586 0.2847
vn 0.0000 0.9831 0.1830
vn 0.0000 0.9728 0.2315
vn -0.0000 0.9831 0.1831
vn 0.0000 0.9413 0.3377
vn 0.0000 0.9412 0.3380
vn -0.0000 0.8977 0.4407
vn -0.0000 0.8712 0.4910
vn 0.0000 0.8719 0.4896
vn -0.0000 0.9206 0.3906
vn -0.0000 0.8972 0.4416
vn 0.0000 0.9204 0.3910
vn 0.0000 0.8456 0.5338
vn 0.0000 0.7932 0.6089
vn 0.0000 0.7806 0.6250
vn 0.0000 0.7809 0.6246
vn 0.0000 0.8194 0.5732
vn 0.0000 0.7931 0.6091
vn 0.0000 0.6859 0.7277
vn 0.0000 0.6669 0.7451
vn 0.0000 -0.0000 1.0000
vn 1.0000 0.0015 0.0000
vn 1.0000 0.0045 0.0000
vn 0.0000 0.0658 -0.9978
vn -1.0000 -0.0045 0.0000
vn -1.0000 0.0039 0.0000
vn -1.0000 0.0014 0.0000
vn -1.0000 0.0015 0.0000
vn -1.0000 -0.0023 0.0000
vn -1.0000 0.0030 0.0000
vn 0.0000 0.9984 0.0559
vn 0.0000 0.6865 0.7271
usemtl 01___Default.021
s 1
f 1/1/1 2/2/1 3/3/1
f 3/4/2 4/5/2 1/6/2
f 1/7/3 5/8/3 6/9/3
f 7/10/1 8/11/1 6/12/1
f 6/12/1 9/13/4 10/14/1
f 11/15/5 12/16/1 6/12/1
f 12/16/1 7/10/1 6/12/1
f 13/17/1 14/18/5 6/12/1
f 14/18/5 11/15/5 6/12/1
f 15/19/1 16/20/1 6/12/1
f 16/20/1 13/17/1 6/12/1
f 17/21/1 18/22/1 6/12/1
f 18/22/1 15/19/1 6/12/1
f 19/23/1 20/24/1 6/12/1
f 20/24/1 17/21/1 6/12/1
f 21/25/1 22/26/1 6/12/1
f 22/26/1 19/23/1 6/12/1
f 6/12/1 23/27/1 24/28/1
f 24/28/1 21/25/1 6/12/1
f 2/2/1 10/14/1 25/29/1
f 6/9/6 26/30/7 27/31/7
f 28/32/8 29/33/9 5/34/9
f 30/35/9 28/32/8 5/34/9
f 31/36/9 32/37/9 5/34/9
f 29/33/9 31/36/9 5/34/9
f 33/38/9 34/39/9 5/34/9
f 32/37/9 33/38/9 5/34/9
f 35/40/9 36/41/9 5/34/9
f 34/39/9 35/40/9 5/34/9
f 5/34/9 37/42/9 26/43/9
f 36/41/9 38/44/9 5/34/9
f 4/45/9 39/46/9 5/34/9
f 39/46/9 40/47/9 5/34/9
f 41/48/9 42/49/9 5/34/9
f 5/34/9 43/50/9 41/48/9
f 44/51/9 45/52/9 5/34/9
f 42/49/9 44/51/9 5/34/9
f 46/53/9 30/35/9 5/34/9
f 45/52/9 46/53/9 5/34/9
f 13/54/10 47/55/11 48/56/12
f 49/57/13 30/58/14 13/54/10
f 16/59/15 50/60/16 49/57/13
f 48/56/12 46/61/17 14/62/18
f 11/63/19 51/64/20 52/65/21
f 53/66/22 45/67/23 11/63/19
f 14/62/18 54/68/24 53/66/22
f 52/65/21 44/69/25 12/70/25
f 7/71/26 55/72/27 56/73/27
f 57/74/28 42/75/26 7/71/26
f 12/70/25 58/76/29 57/74/28
f 56/73/27 41/77/30 8/78/31
f 10/79/32 59/80/32 25/81/32
f 9/82/33 40/83/34 10/79/34
f 8/78/31 43/84/35 9/82/33
f 25/85/2 39/86/2 2/87/2
f 26/43/9 60/88/9 61/89/36
f 27/31/7 61/90/37 62/91/38
f 23/92/39 38/93/39 24/94/39
f 63/95/40 37/96/41 23/92/42
f 64/97/43 60/98/40 63/95/40
f 61/89/36 65/99/9 66/100/9
f 67/101/44 65/102/45 64/97/43
f 66/100/9 68/103/9 69/104/46
f 62/91/38 66/105/47 70/106/47
f 70/106/47 71/107/48 72/108/49
f 66/100/9 73/109/9 71/110/9
f 74/111/9 75/112/9 71/110/9
f 71/110/9 76/113/9 74/111/9
f 71/110/9 77/114/9 78/115/50
f 75/112/9 79/116/8 71/110/9
f 80/117/9 81/118/8 82/119/9
f 71/110/9 83/120/8 81/118/8
f 72/108/49 80/121/51 84/122/52
f 72/123/4 85/124/5 86/125/1
f 86/125/1 87/126/1 72/123/4
f 84/127/1 88/128/53 72/123/4
f 72/123/4 89/129/1 90/130/1
f 87/126/1 91/131/1 72/123/4
f 72/123/4 92/132/1 93/133/1
f 93/133/1 70/134/1 72/123/4
f 94/135/1 95/136/1 84/127/1
f 84/122/52 96/137/54 94/138/55
f 97/139/1 98/140/1 94/135/1
f 94/138/55 99/141/56 97/142/57
f 98/143/58 82/144/59 95/145/60
f 100/146/61 101/147/62 98/143/58
f 102/148/63 103/149/64 100/146/61
f 104/150/1 100/151/1 97/139/1
f 104/152/65 105/153/66 102/148/63
f 106/154/67 107/155/68 104/152/65
f 108/156/69 104/150/1 97/139/1
f 108/157/70 109/158/71 106/154/67
f 97/142/57 110/159/72 108/157/70
f 107/160/36 110/161/9 99/162/8
f 101/163/46 99/162/8 96/164/9
f 103/165/73 107/160/36 99/162/8
f 96/164/9 82/119/9 101/163/46
f 95/145/60 81/166/74 88/167/75
f 90/168/76 77/169/77 85/170/78
f 89/171/79 78/172/80 90/168/76
f 88/167/81 83/173/79 89/171/79
f 85/170/78 79/174/82 86/175/83
f 87/176/84 111/177/85 112/178/86
f 113/179/87 75/180/88 87/176/84
f 86/175/83 114/181/89 113/179/87
f 112/182/86 74/183/90 91/184/91
f 93/185/92 69/186/93 115/187/94
f 92/188/95 73/189/96 93/185/92
f 91/184/91 76/190/97 92/188/95
f 70/134/1 67/191/4 64/192/1
f 115/187/94 68/193/98 67/101/44
f 62/194/1 64/192/1 63/195/1
f 27/196/1 63/195/1 23/27/1
f 21/197/99 116/198/100 117/199/101
f 118/200/102 36/201/103 21/197/99
f 24/94/104 119/202/105 118/200/102
f 117/199/101 35/203/106 22/204/107
f 19/205/108 120/206/109 121/207/110
f 122/208/111 34/209/112 19/205/108
f 22/204/107 123/210/113 122/208/111
f 121/207/110 33/211/114 20/212/115
f 17/213/116 124/214/117 125/215/118
f 126/216/119 32/217/120 17/213/116
f 20/212/115 127/218/121 126/219/119
f 125/215/118 31/220/122 18/221/122
f 15/222/123 128/223/124 129/224/125
f 130/225/126 29/226/127 15/222/123
f 18/221/122 131/227/126 130/225/126
f 129/224/128 28/228/129 16/59/15
f 2/229/130 132/230/130 3/231/130
f 1/1/1 6/12/1 2/2/1
f 3/4/2 132/232/2 4/5/2
f 1/7/3 4/233/3 5/8/3
f 7/10/1 56/234/1 8/11/1
f 6/12/1 8/11/1 9/13/4
f 11/15/5 52/235/1 12/16/1
f 12/16/1 57/236/1 7/10/1
f 13/17/1 48/237/131 14/18/5
f 14/18/5 53/238/1 11/15/5
f 15/19/1 129/239/1 16/20/1
f 16/20/1 49/240/1 13/17/1
f 17/21/1 125/241/1 18/22/1
f 18/22/1 130/242/1 15/19/1
f 19/23/1 121/243/132 20/24/1
f 20/24/1 126/244/1 17/21/1
f 21/25/1 117/245/1 22/26/1
f 22/26/1 122/246/1 19/23/1
f 6/12/1 27/196/1 23/27/1
f 24/28/1 118/247/1 21/25/1
f 2/2/1 6/12/1 10/14/1
f 6/9/6 5/8/133 26/30/7
f 28/32/8 128/248/9 29/33/9
f 30/35/9 50/249/9 28/32/8
f 31/36/9 124/250/9 32/37/9
f 29/33/9 131/251/9 31/36/9
f 33/38/9 120/252/134 34/39/9
f 32/37/9 127/253/135 33/38/9
f 35/40/9 116/254/9 36/41/9
f 34/39/9 123/255/9 35/40/9
f 5/34/9 38/44/9 37/42/9
f 36/41/9 119/256/9 38/44/9
f 4/45/9 132/257/9 39/46/9
f 39/46/9 59/258/9 40/47/9
f 41/48/9 55/259/9 42/49/9
f 5/34/9 40/47/9 43/50/9
f 44/51/9 51/260/9 45/52/9
f 42/49/9 58/261/136 44/51/9
f 46/53/9 47/262/137 30/35/9
f 45/52/9 54/263/138 46/53/9
f 13/54/10 30/58/14 47/55/11
f 49/57/13 50/60/16 30/58/14
f 16/59/15 28/228/129 50/60/16
f 48/56/12 47/55/11 46/61/17
f 11/63/19 45/67/23 51/64/20
f 53/66/22 54/68/24 45/67/23
f 14/62/18 46/61/17 54/68/24
f 52/65/21 51/64/20 44/69/25
f 7/71/26 42/75/26 55/72/27
f 57/74/28 58/76/29 42/75/26
f 12/70/25 44/69/25 58/76/29
f 56/73/27 55/72/27 41/77/30
f 10/79/32 40/83/32 59/80/32
f 9/82/33 43/84/35 40/83/34
f 8/78/31 41/77/30 43/84/35
f 25/85/2 59/264/2 39/86/2
f 26/43/9 37/42/9 60/88/9
f 27/31/7 26/30/7 61/90/37
f 23/92/39 37/96/39 38/93/39
f 63/95/40 60/98/40 37/96/41
f 64/97/43 65/102/45 60/98/40
f 61/89/36 60/88/9 65/99/9
f 67/101/44 68/193/98 65/102/45
f 66/100/9 65/99/9 68/103/9
f 62/91/38 61/90/37 66/105/47
f 70/106/47 66/105/47 71/107/48
f 66/100/9 69/104/46 73/109/9
f 74/111/9 111/265/135 75/112/9
f 71/110/9 73/109/9 76/113/9
f 71/110/9 79/116/8 77/114/9
f 75/112/9 114/266/139 79/116/8
f 80/117/9 71/110/9 81/118/8
f 71/110/9 78/115/50 83/120/8
f 72/108/49 71/107/48 80/121/51
f 72/123/4 90/130/1 85/124/5
f 86/125/1 113/267/1 87/126/1
f 84/127/1 95/136/1 88/128/53
f 72/123/4 88/128/53 89/129/1
f 87/126/1 112/268/1 91/131/1
f 72/123/4 91/131/1 92/132/1
f 93/133/1 115/269/4 70/134/1
f 94/135/1 98/140/1 95/136/1
f 84/122/52 80/121/51 96/137/54
f 97/139/1 100/151/1 98/140/1
f 94/138/55 96/137/54 99/141/56
f 98/143/58 101/147/62 82/144/59
f 100/146/61 103/149/64 101/147/62
f 102/148/63 105/153/66 103/149/64
f 104/150/1 102/270/1 100/151/1
f 104/152/65 107/155/68 105/153/66
f 106/154/67 109/158/71 107/155/68
f 108/156/69 106/271/1 104/150/1
f 108/157/70 110/159/72 109/158/71
f 97/142/57 99/141/56 110/159/72
f 107/160/36 109/272/9 110/161/9
f 101/163/46 103/165/73 99/162/8
f 103/165/73 105/273/9 107/160/36
f 96/164/9 80/117/9 82/119/9
f 95/145/60 82/144/59 81/166/74
f 90/168/76 78/172/80 77/169/77
f 89/171/79 83/173/79 78/172/80
f 88/167/81 81/166/81 83/173/79
f 85/170/78 77/169/77 79/174/82
f 87/176/84 75/180/88 111/177/85
f 113/179/87 114/181/89 75/180/88
f 86/175/83 79/174/82 114/181/89
f 112/182/86 111/274/85 74/183/90
f 93/185/92 73/189/96 69/186/93
f 92/188/95 76/190/97 73/189/96
f 91/184/91 74/183/90 76/190/97
f 70/134/1 115/269/4 67/191/4
f 115/187/94 69/186/93 68/193/98
f 62/194/1 70/134/1 64/192/1
f 27/196/1 62/194/1 63/195/1
f 21/197/99 36/201/103 116/198/100
f 118/200/102 119/202/105 36/201/103
f 24/94/104 38/93/140 119/202/105
f 117/199/101 116/198/100 35/203/106
f 19/205/108 34/209/112 120/206/109
f 122/208/111 123/210/113 34/209/112
f 22/204/107 35/203/106 123/210/113
f 121/207/110 120/206/109 33/211/114
f 17/213/116 32/217/120 124/214/117
f 126/216/119 127/275/121 32/217/120
f 20/212/115 33/211/114 127/218/121
f 125/215/118 124/214/117 31/220/122
f 15/222/123 29/226/127 128/223/124
f 130/225/126 131/227/126 29/226/127
f 18/221/122 31/220/122 131/227/126
f 129/224/128 128/223/141 28/228/129
f 2/229/130 39/276/130 132/230/130