# Blender v3.0.1 OBJ File: ''
# www.blender.org
mtllib 00.mtl
o model_normalized.002_model_normalized.024
v 0.660370 -0.324752 0.347491
v 0.619777 -0.324751 -0.420403
v 0.660370 -0.324751 -0.420403
v 0.619777 -0.324752 0.347491
v 0.619777 -0.304455 -0.420403
v 0.660370 -0.304455 -0.420403
v 0.621807 -0.300664 -0.420403
v 0.619777 -0.304455 0.347491
v 0.660370 -0.304455 0.347491
v 0.621807 -0.300664 0.347491
v 0.658314 -0.300664 0.347491
v 0.655580 -0.297342 0.347491
v 0.658314 -0.300664 -0.420403
v 0.624540 -0.297342 -0.420403
v 0.655580 -0.297342 -0.420403
v 0.627869 -0.294616 -0.420403
v 0.652252 -0.294616 -0.420403
v 0.631657 -0.292591 -0.420403
v 0.648463 -0.292591 -0.420403
v 0.652252 -0.294617 0.347491
v 0.644349 -0.291345 -0.420403
v 0.648463 -0.292592 0.347491
v 0.635771 -0.291345 -0.420403
v 0.640074 -0.290924 -0.420403
v 0.644349 -0.291345 0.347491
v 0.640074 -0.290924 0.347491
v 0.635771 -0.291345 0.347491
v 0.631657 -0.292592 0.347491
v 0.627869 -0.294617 0.347491
v 0.624540 -0.297342 0.347491
v 0.626542 -0.304455 0.133109
v 0.653605 0.439760 0.133109
v 0.626542 0.439760 0.133109
v 0.653605 -0.304455 0.133109
v 0.653605 -0.304455 0.051921
v 0.626542 0.439760 0.288717
v 0.653605 0.439760 0.288717
v 0.653605 0.460057 0.288717
v 0.653605 0.460057 0.133109
v 0.653605 0.460057 0.051922
v 0.653605 0.439760 0.051922
v 0.626542 0.439760 0.051922
v 0.626542 -0.304455 0.051921
v 0.626542 0.460057 0.051922
v 0.626542 0.460057 0.133109
v 0.626542 0.460057 -0.381076
v 0.653605 0.439760 -0.381076
v 0.626542 0.439760 -0.381076
v 0.653605 0.460057 -0.381076
v 0.626542 0.460057 0.288717
v 0.653605 -0.304455 0.051921
v 0.626542 -0.304455 0.051921
vt -51.250000 0.000000
vt -49.750000 28.375000
vt -51.250000 28.375000
vt -49.750000 0.000000
vt -0.000000 0.000000
vt -28.375000 0.750000
vt -28.375000 0.000000
vt -49.750000 0.750000
vt -51.250000 0.000000
vt -49.750000 0.000000
vt -51.250000 0.750000
vt -49.825199 0.890078
vt -0.000000 24.196800
vt -28.375000 24.355801
vt -28.375000 24.196800
vt -0.000000 0.750000
vt 49.750000 0.000000
vt 51.250000 0.750000
vt 49.750000 0.750000
vt -0.000000 24.355801
vt 51.174801 0.890078
vt 49.825199 0.890078
vt 28.375000 -23.584999
vt 0.000000 -23.426001
vt 0.000000 -23.584999
vt 0.000000 0.750000
vt 28.375000 0.000000
vt 28.375000 0.750000
vt 0.000000 0.000000
vt 51.250000 0.000000
vt 51.073700 1.012820
vt 28.375000 -31.839800
vt 0.000000 -31.680799
vt 0.000000 -31.839800
vt 28.375000 -23.426001
vt -51.174801 0.890078
vt -49.926300 1.012820
vt -51.073700 1.012820
vt 28.375000 -31.680799
vt -50.049301 1.113540
vt 28.375000 -38.719501
vt 0.000000 -38.878502
vt 28.375000 -38.878502
vt -50.950699 1.113540
vt -50.189602 1.188370
vt 28.375000 -44.272400
vt 0.000000 -44.431400
vt 28.375000 -44.431400
vt 0.000000 -38.719501
vt -50.810398 1.188370
vt 28.375000 -48.126900
vt 0.000000 -48.285900
vt 28.375000 -48.285900
vt 0.000000 -44.272400
vt -50.341801 1.234440
vt -50.658199 1.234440
vt 28.375000 -50.135399
vt 0.000000 -50.294399
vt 28.375000 -50.294399
vt 0.000000 -48.126900
vt -50.500000 1.250000
vt -28.375000 50.221001
vt -0.000000 50.380001
vt -28.375000 50.380001
vt 0.000000 -50.135399
vt -0.000000 50.221001
vt 50.341801 1.234440
vt 50.658199 1.234440
vt 50.500000 1.250000
vt -0.000000 48.539398
vt -28.375000 48.380402
vt -0.000000 48.380402
vt -28.375000 48.539398
vt 50.189602 1.188370
vt -0.000000 44.843201
vt -28.375000 44.684200
vt -0.000000 44.684200
vt -28.375000 44.843201
vt 50.810398 1.188370
vt 50.049301 1.113540
vt -0.000000 39.432701
vt -28.375000 39.273701
vt -0.000000 39.273701
vt -28.375000 39.432701
vt 50.950699 1.113540
vt 49.926300 1.012820
vt -28.375000 32.515301
vt -0.000000 32.356300
vt -0.000000 32.515301
vt -28.375000 32.356300
vt -0.000000 -0.000000
vt 1.000000 27.500000
vt 0.000000 27.500000
vt 1.000000 -0.000000
vt 3.000000 0.000000
vt 0.000000 27.500000
vt 0.000000 0.000000
vt -1.000000 0.000000
vt 0.000000 -5.750000
vt 0.000000 0.000000
vt -1.000000 -5.750000
vt -5.750000 28.250000
vt 0.000000 28.250000
vt -5.750000 27.500000
vt 1.000000 28.250000
vt 0.000000 27.500000
vt 1.000000 27.500000
vt 3.000000 28.250000
vt 3.000000 27.500000
vt -1.000000 0.000000
vt 0.000000 27.500000
vt -1.000000 27.500000
vt 0.000000 0.000000
vt -3.000000 28.250000
vt -3.000000 0.000000
vt -3.000000 27.500000
vt 0.000000 28.250000
vt 1.000000 3.000000
vt 0.000000 19.000000
vt 0.000000 3.000000
vt -19.000000 28.250000
vt 0.000000 28.250000
vt -1.000000 27.500000
vt 0.000000 27.500000
vt -19.000000 27.500000
vt -1.000000 28.250000
vt 1.000000 19.000000
vt 19.000000 27.500000
vt 19.000000 28.250000
vt -1.000000 19.000000
vt 0.000000 3.000000
vt 0.000000 19.000000
vt -1.000000 3.000000
vt 5.750000 27.500000
vt 5.750000 28.250000
vt 0.000000 0.000000
vt 1.000000 -5.750000
vt 1.000000 0.000000
vt 0.000000 -5.750000
vt 0.000000 28.250000
vt -50.000000 7.921800
vt -51.000000 10.921800
vt -51.000000 7.921800
vt -50.000000 10.921800
vn 0.0000 -1.0000 -0.0000
vn -1.0000 0.0000 0.0000
vn 0.0000 0.0000 -1.0000
vn -0.8816 0.4720 0.0000
vn -0.8816 0.4721 0.0000
vn 0.0000 0.0000 1.0000
vn 0.8790 0.4767 0.0000
vn 0.8791 0.4767 0.0000
vn 1.0000 0.0000 0.0000
vn 0.7721 0.6355 0.0000
vn 0.6337 0.7736 0.0000
vn 0.6335 0.7737 0.0000
vn 0.4713 0.8820 0.0000
vn 0.4714 0.8819 0.0000
vn 0.2899 0.9571 0.0000
vn 0.2901 0.9570 0.0000
vn 0.0980 0.9952 0.0000
vn -0.0974 0.9952 0.0000
vn -0.2901 0.9570 0.0000
vn -0.2899 0.9571 0.0000
vn -0.4714 0.8819 0.0000
vn -0.6334 0.7738 0.0000
vn -0.6335 0.7737 0.0000
vn -0.7723 0.6353 0.0000
vn -0.7722 0.6353 0.0000
vn -1.0000 0.0000 -0.0003
vn 0.0000 1.0000 0.0000
usemtl Color_006.001
s 1
f 1/1/1 2/2/1 3/3/1
f 2/2/1 1/1/1 4/4/1
f 4/5/2 5/6/2 2/7/2
f 5/8/3 3/9/3 2/10/3
f 6/11/3 5/8/3 7/12/3
f 3/9/3 5/8/3 6/11/3
f 8/13/4 7/14/5 5/15/5
f 5/6/2 4/5/2 8/16/2
f 4/17/6 9/18/6 8/19/6
f 7/14/5 8/13/4 10/20/4
f 8/19/6 11/21/6 10/22/6
f 8/19/6 9/18/6 11/21/6
f 6/23/7 11/24/8 9/25/8
f 9/26/9 3/27/9 6/28/9
f 3/27/9 9/26/9 1/29/9
f 9/18/6 4/17/6 1/30/6
f 10/22/6 11/21/6 12/31/6
f 13/32/10 12/33/10 11/34/10
f 11/24/8 6/23/7 13/35/7
f 6/11/3 7/12/3 13/36/3
f 13/36/3 7/12/3 14/37/3
f 13/36/3 14/37/3 15/38/3
f 12/33/10 13/32/10 15/39/10
f 15/38/3 14/37/3 16/40/3
f 17/41/11 12/42/12 15/43/11
f 15/38/3 16/40/3 17/44/3
f 17/44/3 16/40/3 18/45/3
f 19/46/13 20/47/14 17/48/13
f 12/42/12 17/41/11 20/49/12
f 17/44/3 18/45/3 19/50/3
f 21/51/15 22/52/16 19/53/15
f 20/47/14 19/46/13 22/54/14
f 19/50/3 23/55/3 21/56/3
f 19/50/3 18/45/3 23/55/3
f 24/57/17 25/58/17 21/59/17
f 22/52/16 21/51/15 25/60/16
f 21/56/3 23/55/3 24/61/3
f 23/62/18 26/63/18 24/64/18
f 25/58/17 24/57/17 26/65/17
f 26/63/18 23/62/18 27/66/18
f 27/67/6 25/68/6 26/69/6
f 27/70/19 18/71/20 28/72/19
f 18/71/20 27/70/19 23/73/20
f 28/74/6 25/68/6 27/67/6
f 28/75/21 16/76/21 29/77/21
f 16/76/21 28/75/21 18/78/21
f 28/74/6 22/79/6 25/68/6
f 29/80/6 22/79/6 28/74/6
f 29/81/22 14/82/23 30/83/22
f 14/82/23 29/81/22 16/84/23
f 29/80/6 20/85/6 22/79/6
f 30/86/6 20/85/6 29/80/6
f 14/87/24 10/88/25 30/89/25
f 30/86/6 12/31/6 20/85/6
f 10/22/6 12/31/6 30/86/6
f 10/88/25 14/87/24 7/90/24
f 31/91/6 32/92/6 33/93/6
f 32/92/6 31/91/6 34/94/6
f 35/95/9 32/96/9 34/97/9
f 32/98/1 36/99/1 33/100/1
f 36/99/1 32/98/1 37/101/1
f 38/102/9 32/96/9 39/103/9
f 32/96/9 38/102/9 37/104/9
f 32/96/9 35/95/9 39/103/9
f 38/105/6 36/106/6 37/107/6
f 40/108/6 35/95/6 41/109/6
f 39/103/9 35/95/9 40/108/9
f 35/110/3 42/111/3 41/112/3
f 42/111/3 35/110/3 43/113/3
f 31/91/2 44/114/2 43/115/2
f 43/115/2 44/114/2 42/116/26
f 33/93/2 45/117/2 44/114/2
f 33/93/2 44/114/2 31/91/2
f 40/118/27 46/119/27 44/120/27
f 46/121/2 42/116/26 44/114/2
f 46/122/3 47/123/3 48/124/3
f 42/116/26 46/121/2 48/125/2
f 47/123/3 46/122/3 49/126/3
f 46/119/27 40/118/27 49/127/27
f 40/108/9 47/128/9 49/129/9
f 47/130/1 42/131/1 48/132/1
f 42/131/1 47/130/1 41/133/1
f 40/108/9 41/109/9 47/128/9
f 45/117/2 36/134/2 50/135/2
f 36/134/2 45/117/2 33/93/2
f 45/136/27 38/137/27 39/138/27
f 38/137/27 45/136/27 50/139/27
f 36/106/6 38/105/6 50/140/6
f 31/141/1 51/142/1 34/143/1
f 51/142/1 31/141/1 52/144/1