# Blender v3.0.1 OBJ File: ''
# www.blender.org
mtllib 01.mtl
o model_normalized.003_model_normalized.025
v -0.726576 -0.324752 0.347491
v -0.726576 -0.304455 -0.420403
v -0.726576 -0.324751 -0.420403
v -0.726576 -0.304455 0.347491
v -0.724546 -0.300664 -0.420403
v -0.685982 -0.324751 -0.420403
v -0.685982 -0.304455 -0.420403
v -0.685982 -0.304455 0.347491
v -0.688039 -0.300664 -0.420403
v -0.688039 -0.300664 0.347491
v -0.685982 -0.324752 0.347491
v -0.721813 -0.297342 -0.420403
v -0.690772 -0.297342 -0.420403
v -0.690772 -0.297342 0.347491
v -0.694101 -0.294617 0.347491
v -0.721813 -0.297342 0.347491
v -0.724546 -0.300664 0.347491
v -0.718484 -0.294616 -0.420403
v -0.718484 -0.294617 0.347491
v -0.697890 -0.292592 0.347491
v -0.714695 -0.292592 0.347491
v -0.714695 -0.292591 -0.420403
v -0.694101 -0.294616 -0.420403
v -0.697890 -0.292591 -0.420403
v -0.702003 -0.291345 0.347491
v -0.702003 -0.291345 -0.420403
v -0.706279 -0.290924 0.347491
v -0.710582 -0.291345 0.347491
v -0.706279 -0.290924 -0.420403
v -0.710582 -0.291345 -0.420403
v -0.692748 0.439760 0.133109
v -0.719810 -0.304455 0.133109
v -0.692748 -0.304455 0.133109
v -0.719810 0.439760 0.133109
v -0.719810 0.439760 0.288717
v -0.692748 0.439760 0.288717
v -0.692748 0.460057 0.288717
v -0.692748 0.460057 0.133109
v -0.692748 -0.304455 0.051921
v -0.692748 0.460057 0.051922
v -0.692748 0.439760 0.051922
v -0.719810 0.439760 0.051922
v -0.719810 -0.304455 0.051921
v -0.719810 0.460057 0.051922
v -0.719810 0.460057 0.133109
v -0.719810 0.460057 0.288717
v -0.719810 0.460057 -0.381076
v -0.719810 0.439760 -0.381076
v -0.692748 0.439760 -0.381076
v -0.692748 0.460057 -0.381076
vt 0.000000 0.000000
vt -28.375000 0.750000
vt -28.375000 0.000000
vt 0.000000 0.750000
vt 0.000000 0.660762
vt -28.375000 0.819758
vt -28.375000 0.660762
vt -0.000000 0.750000
vt -1.500000 0.000000
vt -0.000000 0.000000
vt -1.500000 0.750000
vt -0.075219 0.890078
vt -0.000000 0.750000
vt 28.375000 0.000000
vt 28.375000 0.750000
vt -1.424780 0.890078
vt 0.000000 0.110127
vt 28.375000 -0.048869
vt 28.375000 0.110127
vt 0.000000 -0.048869
vt 1.500000 0.750000
vt 1.424780 0.890078
vt -0.000000 0.000000
vt 1.500000 0.000000
vt -1.500000 0.000000
vt -0.000000 28.375000
vt -1.500000 28.375000
vt -0.176278 1.012820
vt -1.323720 1.012820
vt 0.000000 -0.059450
vt 28.375000 -0.218446
vt 28.375000 -0.059450
vt 0.000000 -0.218446
vt 28.375000 -0.382702
vt 0.000000 -0.223706
vt 0.000000 -0.382702
vt 0.176278 1.012820
vt 1.323720 1.012820
vt 1.200690 1.113540
vt 0.075219 0.890078
vt -28.375000 0.893958
vt 0.000000 0.734962
vt 0.000000 0.893958
vt 0.000000 0.777974
vt -28.375000 0.936970
vt -28.375000 0.777974
vt 0.000000 0.936970
vt 0.299306 1.113540
vt 1.060410 1.188370
vt 0.439593 1.188370
vt -28.375000 0.947147
vt 0.000000 0.788151
vt 0.000000 0.947147
vt -28.375000 0.788151
vt 28.375000 -0.535347
vt 0.000000 -0.376351
vt 0.000000 -0.535347
vt 28.375000 -0.670536
vt 0.000000 -0.511540
vt 0.000000 -0.670536
vt 28.375000 -0.376351
vt 0.908233 1.234440
vt 28.375000 -0.223706
vt -0.299306 1.113540
vt -1.200690 1.113540
vt -0.439593 1.188370
vt -1.060410 1.188370
vt 28.375000 -0.783093
vt 0.000000 -0.624097
vt 0.000000 -0.783093
vt 28.375000 -0.511540
vt 0.591767 1.234440
vt 0.750000 1.250000
vt 0.000000 0.709710
vt -28.375000 0.868706
vt -28.375000 0.709710
vt -28.375000 0.924098
vt 0.000000 0.765102
vt 0.000000 0.924098
vt 0.000000 0.868706
vt -0.908233 1.234440
vt -0.591767 1.234440
vt -0.750000 1.250000
vt 28.375000 -0.624097
vt -28.375000 0.765102
vt -28.375000 0.734962
vt 0.000000 0.819758
vt 1.000000 27.500000
vt -0.000000 -0.000000
vt 1.000000 -0.000000
vt 0.000000 27.500000
vt -1.000000 0.000000
vt 0.000000 -5.750000
vt 0.000000 0.000000
vt -1.000000 -5.750000
vt 0.000000 27.500000
vt -5.750000 28.250000
vt -5.750000 27.500000
vt 0.000000 28.250000
vt 3.000000 0.000000
vt 0.000000 0.000000
vt 3.000000 28.250000
vt 3.000000 27.500000
vt -1.000000 0.000000
vt 0.000000 27.500000
vt -1.000000 27.500000
vt 0.000000 0.000000
vt -3.000000 0.000000
vt -3.000000 28.250000
vt -3.000000 27.500000
vt 0.000000 28.250000
vt 5.750000 27.500000
vt 5.750000 28.250000
vt 0.000000 27.500000
vt 1.000000 28.250000
vt 0.000000 28.250000
vt 1.000000 27.500000
vt 1.000000 -5.750000
vt 0.000000 0.000000
vt 0.000000 -5.750000
vt 1.000000 0.000000
vt -19.000000 28.250000
vt -19.000000 27.500000
vt 0.000000 28.250000
vt -1.000000 27.500000
vt -0.000000 27.500000
vt -1.000000 28.250000
vt 0.000000 19.000000
vt 1.000000 3.000000
vt 1.000000 19.000000
vt 0.000000 3.000000
vt 19.000000 27.500000
vt 19.000000 28.250000
vt -1.000000 3.000000
vt -0.000000 19.000000
vt -1.000000 19.000000
vt 0.000000 3.000000
vn -1.0000 0.0000 0.0000
vn -0.8816 0.4721 0.0000
vn -0.8816 0.4720 0.0000
vn 0.0000 0.0000 -1.0000
vn 1.0000 0.0000 0.0000
vn 0.8789 0.4769 0.0000
vn 0.8790 0.4769 0.0000
vn 0.0000 0.0000 1.0000
vn 0.0000 -1.0000 -0.0000
vn 0.7722 0.6353 0.0000
vn 0.7723 0.6353 0.0000
vn 0.6336 0.7737 0.0000
vn 0.6334 0.7738 0.0000
vn -0.7722 0.6353 0.0000
vn -0.7723 0.6353 0.0000
vn -0.6334 0.7738 0.0000
vn -0.6335 0.7737 0.0000
vn -0.4714 0.8819 0.0000
vn 0.4714 0.8819 0.0000
vn 0.2899 0.9570 0.0000
vn 0.2901 0.9570 0.0000
vn 0.0980 0.9952 0.0000
vn -0.0974 0.9952 0.0000
vn -0.2899 0.9570 0.0000
vn -0.2901 0.9570 0.0000
vn -1.0000 -0.0000 -0.0003
vn 0.0000 1.0000 0.0000
usemtl Color_006
s 1
f 1/1/1 2/2/1 3/3/1
f 2/2/1 1/1/1 4/4/1
f 4/5/2 5/6/3 2/7/3
f 2/8/4 6/9/4 3/10/4
f 6/9/4 2/8/4 7/11/4
f 7/11/4 2/8/4 5/12/4
f 8/13/5 6/14/5 7/15/5
f 7/11/4 5/12/4 9/16/4
f 10/17/6 7/18/7 9/19/7
f 7/18/7 10/17/6 8/20/6
f 1/1/8 8/21/8 4/4/8
f 4/4/8 8/21/8 10/22/8
f 6/14/5 8/13/5 11/23/5
f 8/21/8 1/1/8 11/24/8
f 11/25/9 3/26/9 6/27/9
f 3/26/9 11/25/9 1/1/9
f 9/16/4 5/12/4 12/28/4
f 9/16/4 12/28/4 13/29/4
f 14/30/10 9/31/11 13/32/11
f 9/31/11 14/30/10 10/33/10
f 13/34/12 15/35/13 14/36/13
f 16/37/8 14/38/8 15/39/8
f 17/40/8 10/22/8 14/38/8
f 17/40/8 14/38/8 16/37/8
f 12/41/14 17/42/15 16/43/15
f 16/44/16 18/45/17 12/46/17
f 18/45/17 16/44/16 19/47/16
f 16/37/8 15/39/8 19/48/8
f 19/48/8 15/39/8 20/49/8
f 19/48/8 20/49/8 21/50/8
f 22/51/18 19/52/18 21/53/18
f 19/52/18 22/51/18 18/54/18
f 23/55/19 20/56/19 15/57/19
f 24/58/20 25/59/21 20/60/21
f 20/56/19 23/55/19 24/61/19
f 21/50/8 20/49/8 25/62/8
f 15/35/13 13/34/12 23/63/12
f 13/29/4 18/64/4 23/65/4
f 23/65/4 22/66/4 24/67/4
f 23/65/4 18/64/4 22/66/4
f 26/68/22 27/69/22 25/70/22
f 25/59/21 24/58/20 26/71/20
f 28/72/8 25/62/8 27/73/8
f 21/50/8 25/62/8 28/72/8
f 28/74/23 29/75/23 30/76/23
f 30/77/24 21/78/25 28/79/25
f 29/75/23 28/74/23 27/80/23
f 26/81/4 30/82/4 29/83/4
f 27/69/22 26/68/22 29/84/22
f 24/67/4 30/82/4 26/81/4
f 24/67/4 22/66/4 30/82/4
f 21/78/25 30/77/24 22/85/24
f 13/29/4 12/28/4 18/64/4
f 17/42/15 12/41/14 5/86/14
f 5/6/3 4/5/2 17/87/2
f 4/4/8 10/22/8 17/40/8
f 31/88/8 32/89/8 33/90/8
f 32/89/8 31/88/8 34/91/8
f 31/92/9 35/93/9 34/94/9
f 35/93/9 31/92/9 36/95/9
f 31/96/5 37/97/5 36/98/5
f 37/97/5 31/96/5 38/99/5
f 31/96/5 39/100/5 38/99/5
f 39/100/5 31/96/5 33/101/5
f 38/99/5 39/100/5 40/102/5
f 40/102/8 39/100/8 41/103/8
f 39/104/4 42/105/4 41/106/4
f 42/105/4 39/104/4 43/107/4
f 43/108/1 44/109/1 42/110/26
f 32/89/1 44/109/1 43/108/1
f 34/91/1 44/109/1 32/89/1
f 34/91/1 45/111/1 44/109/1
f 35/112/1 45/111/1 34/91/1
f 45/111/1 35/112/1 46/113/1
f 35/114/8 37/115/8 46/116/8
f 37/115/8 35/114/8 36/117/8
f 37/118/27 45/119/27 46/120/27
f 45/119/27 37/118/27 38/121/27
f 47/122/1 42/110/26 44/109/1
f 42/110/26 47/122/1 48/123/1
f 47/124/4 49/125/4 48/126/4
f 49/125/4 47/124/4 50/127/4
f 47/128/27 40/129/27 50/130/27
f 40/129/27 47/128/27 44/131/27
f 40/102/5 49/132/5 50/133/5
f 40/102/5 41/103/5 49/132/5
f 41/134/9 48/135/9 49/136/9
f 48/135/9 41/134/9 42/137/9