# Blender v3.0.1 OBJ File: ''
# www.blender.org
mtllib 05.mtl
o model_normalized.007_model_normalized.029
v -0.692748 0.458164 0.264830
v 0.626542 0.458164 0.237768
v -0.692748 0.458164 0.237768
v -0.692748 0.439200 0.237768
v 0.626542 0.439200 0.264830
v 0.626542 0.439200 0.237768
v 0.626542 0.458164 0.264830
v -0.692748 0.439200 0.264830
vt 18.453199 3.000000
vt 17.453199 51.750000
vt 17.453199 3.000000
vt -51.750000 21.000000
vt -3.000000 13.000000
vt -3.000000 21.000000
vt -17.453199 21.000000
vt -18.453199 13.000000
vt -17.453199 13.000000
vt -51.750000 13.000000
vt -18.453199 21.000000
vt 18.453199 51.750000
vt 3.000000 21.000000
vt 51.750000 13.000000
vt 51.750000 21.000000
vt 18.453199 13.000000
vt 17.453199 21.000000
vt 17.453199 13.000000
vt -17.453199 51.750000
vt -18.453199 3.000000
vt -17.453199 3.000000
vt 18.453199 21.000000
vt -18.453199 51.750000
vt 3.000000 13.000000
vn 0.0000 1.0000 0.0000
vn 0.0000 0.0000 -1.0000
vn 1.0000 0.0000 0.0000
vn 0.0000 -0.0000 1.0000
vn -1.0000 0.0000 0.0000
vn 0.0000 -1.0000 0.0000
usemtl Color_006.003
s 1
f 1/1/1 2/2/1 3/3/1
f 2/4/2 4/5/2 3/6/2
f 2/7/3 5/8/3 6/9/3
f 4/5/2 2/4/2 6/10/2
f 5/8/3 2/7/3 7/11/3
f 2/2/1 1/1/1 7/12/1
f 1/13/4 5/14/4 7/15/4
f 8/16/5 3/17/5 4/18/5
f 6/19/6 8/20/6 4/21/6
f 3/17/5 8/16/5 1/22/5
f 8/20/6 6/19/6 5/23/6
f 5/14/4 1/13/4 8/24/4