# Blender v3.0.1 OBJ File: ''
# www.blender.org
mtllib 06.mtl
o model_normalized.001_model_normalized.030
v -0.692748 0.460057 0.051922
v -0.719810 0.460057 0.133109
v -0.719810 0.460057 0.051922
v -0.692748 0.460057 0.133109
v 0.707730 0.460057 -0.420403
v -0.773935 0.460057 -0.420403
v -0.773935 0.460057 0.347491
v 0.707730 0.460057 0.347491
v 0.626542 0.460057 0.133109
v 0.626542 0.460057 0.051922
v 0.653605 0.460057 0.051922
v 0.653605 0.460057 0.133109
v 0.707730 0.473588 0.347491
v 0.707730 0.473588 -0.420403
v -0.773935 0.473588 -0.420403
v -0.773935 0.473588 0.347491
vt -3.000000 10.921800
vt -2.000000 7.921800
vt -2.000000 10.921800
vt -3.000000 7.921800
vt -54.750000 28.375000
vt 0.000000 28.375000
vt 0.000000 0.000000
vt -54.750000 0.000000
vt -51.750000 7.921800
vt -51.750000 10.921800
vt -52.750000 10.921800
vt -52.750000 7.921800
vt 28.375000 0.000000
vt 0.000000 0.500000
vt 0.000000 0.000000
vt 28.375000 0.500000
vt -54.750000 0.000000
vt 0.000000 0.500000
vt -54.750000 0.500000
vt 0.000000 0.000000
vt -28.375000 0.500000
vt -28.375000 0.000000
vt 0.000000 0.500000
vt 54.750000 0.500000
vt 54.750000 0.000000
vt 54.750000 0.000000
vt 0.000000 28.375000
vt 0.000000 0.000000
vt 54.750000 28.375000
vn -0.0000 -1.0000 -0.0000
vn 1.0000 0.0000 0.0000
vn 0.0000 0.0000 -1.0000
vn -1.0000 0.0000 0.0000
vn 0.0000 0.0000 1.0000
vn 0.0000 1.0000 0.0000
usemtl Color_C23
s 1
f 1/1/1 2/2/1 3/3/1
f 2/2/1 1/1/1 4/4/1
f 1/1/1 5/5/1 4/4/1
f 3/3/1 5/5/1 1/1/1
f 3/3/1 6/6/1 5/5/1
f 6/6/1 3/3/1 7/7/1
f 2/2/1 7/7/1 3/3/1
f 7/7/1 2/2/1 8/8/1
f 8/8/1 2/2/1 4/4/1
f 8/8/1 4/4/1 9/9/1
f 9/9/1 4/4/1 10/10/1
f 4/4/1 5/5/1 10/10/1
f 10/10/1 5/5/1 11/11/1
f 11/11/1 5/5/1 12/12/1
f 12/12/1 5/5/1 8/8/1
f 5/13/2 13/14/2 8/15/2
f 13/14/2 5/13/2 14/16/2
f 5/17/3 15/18/3 14/19/3
f 15/18/3 5/17/3 6/20/3
f 7/7/4 15/21/4 6/22/4
f 15/21/4 7/7/4 16/23/4
f 7/7/5 13/24/5 16/23/5
f 13/24/5 7/7/5 8/25/5
f 13/26/6 15/27/6 16/28/6
f 15/27/6 13/26/6 14/29/6
f 8/8/1 9/9/1 12/12/1
f 9/9/1 11/11/1 12/12/1
f 11/11/1 9/9/1 10/10/1