# Blender v3.0.1 OBJ File: ''
# www.blender.org
mtllib 02.mtl
o SketchUp.003_ID92.289
v -0.703742 -0.066510 -0.333330
v 0.703741 -0.030334 -0.330209
v 0.036400 -0.030334 -0.330209
v 0.703741 -0.066510 -0.333330
v 0.630941 -0.030334 -0.330209
v 0.036400 -0.006067 -0.328116
v 0.630941 -0.006067 -0.328116
v -0.036401 -0.006067 -0.328116
v -0.630941 -0.006067 -0.328116
v 0.703741 0.006022 -0.327073
v 0.703741 -0.006067 -0.328116
v -0.630941 -0.030334 -0.330209
v -0.703742 -0.006067 -0.328116
v -0.036401 -0.030334 -0.330209
v -0.703742 -0.030334 -0.330209
v -0.703742 0.006022 -0.327073
v -0.703742 0.008108 -0.351250
v -0.703742 -0.006067 -0.328116
v -0.703742 -0.030334 -0.330209
v -0.703742 0.006022 -0.327073
v -0.703742 -0.066510 -0.333330
v -0.703742 -0.064424 -0.357507
v -0.703742 0.008108 -0.351250
v 0.703741 0.006022 -0.327073
v 0.703741 0.008108 -0.351250
v -0.703742 0.006022 -0.327073
v -0.703742 -0.066510 -0.333330
v 0.703741 -0.064424 -0.357507
v 0.703741 -0.066510 -0.333330
v -0.703742 -0.064424 -0.357507
v 0.703741 -0.064424 -0.357507
v -0.703742 0.008108 -0.351250
v 0.703741 0.008108 -0.351250
v -0.703742 -0.064424 -0.357507
v 0.703741 0.008108 -0.351250
v 0.703741 -0.006067 -0.328116
v 0.703741 0.006022 -0.327073
v 0.703741 -0.030334 -0.330209
v 0.703741 -0.066510 -0.333330
v 0.703741 -0.064424 -0.357507
v -0.703742 0.006022 -0.327073
v 0.703741 0.006022 -0.327073
v -0.703742 -0.006067 -0.328116
v 0.703741 0.008108 -0.351250
v 0.703741 0.006022 -0.327073
v -0.703742 0.008108 -0.351250
v -0.703742 0.006022 -0.327073
v -0.036400 -0.030334 -0.330209
v -0.630941 -0.030334 -0.330209
v -0.036400 -0.006067 -0.328116
v -0.703742 -0.030334 -0.330209
v -0.630941 -0.006067 -0.328116
v 0.703741 0.006022 -0.327073
v 0.630941 -0.006067 -0.328116
v -0.703742 -0.006067 -0.328116
v 0.036400 -0.006067 -0.328116
v 0.703741 -0.006067 -0.328116
v 0.630941 -0.030334 -0.330209
v 0.036400 -0.030334 -0.330209
v 0.703741 -0.030334 -0.330209
v -0.703742 -0.066510 -0.333330
v 0.703741 -0.066510 -0.333330
v 0.703741 -0.066510 -0.333330
v 0.703741 -0.064424 -0.357507
v -0.703742 -0.066510 -0.333330
v -0.703742 -0.064424 -0.357507
v 0.703741 0.008108 -0.351250
v -0.703742 0.008108 -0.351250
v 0.703741 -0.064424 -0.357507
v -0.703742 -0.064424 -0.357507
v -0.703742 -0.064424 -0.357507
v -0.703742 -0.066510 -0.333330
v -0.703742 0.008108 -0.351250
v -0.703742 -0.030334 -0.330209
v -0.703742 -0.006067 -0.328116
v -0.703742 0.006022 -0.327073
v 0.703741 -0.064424 -0.357507
v 0.703741 0.008108 -0.351250
v 0.703741 -0.066510 -0.333330
v 0.703741 -0.030334 -0.330209
v 0.703741 -0.006067 -0.328116
v 0.703741 0.006022 -0.327073
vt 0.060000 0.307313
vt 1.220000 0.337238
vt 0.670000 0.337238
vt 1.220000 0.307313
vt 1.160000 0.337238
vt 0.670000 0.357313
vt 1.160000 0.357313
vt 0.610000 0.357313
vt 0.120000 0.357313
vt 1.220000 0.367313
vt 1.220000 0.357313
vt 0.120000 0.337238
vt 0.060000 0.357313
vt 0.610000 0.337238
vt 0.060000 0.337238
vt 0.060000 0.367313
vt 0.614489 0.421682
vt 0.595422 0.410000
vt 0.597147 0.390000
vt 0.594563 0.419963
vt 0.599719 0.360185
vt 0.619645 0.361904
vt 0.060000 0.648455
vt 1.220000 0.628455
vt 1.220000 0.648455
vt 0.060000 0.628455
vt -0.060000 0.628455
vt -1.220000 0.648455
vt -1.220000 0.628455
vt -0.060000 0.648455
vt -1.220000 0.307313
vt -0.060000 0.367313
vt -1.220000 0.367313
vt -0.060000 0.307313
vt 0.000000 0.000000
vt 0.000000 0.000000
vt 0.000000 0.000000
vt 0.000000 0.000000
vt 0.000000 0.000000
vt 0.000000 0.000000
vt 0.000000 0.000000
vt 0.000000 0.000000
vt 0.000000 0.000000
vt 0.000000 0.000000
vt 0.000000 0.000000
vt 0.000000 0.000000
vt 0.000000 0.000000
vt 0.000000 0.000000
vt 0.000000 0.000000
vt 0.000000 0.000000
vt 0.000000 0.000000
vt 0.000000 0.000000
vt 0.000000 0.000000
vt 0.000000 0.000000
vt 0.000000 0.000000
vt 0.000000 0.000000
vt 0.000000 0.000000
vt 0.000000 0.000000
vt 0.000000 0.000000
vt 0.000000 0.000000
vt 0.000000 0.000000
vt 0.000000 0.000000
vt 0.000000 0.000000
vt 0.000000 0.000000
vt 0.000000 0.000000
vt 0.000000 0.000000
vt 0.000000 0.000000
vt 0.000000 0.000000
vt 0.000000 0.000000
vt 0.000000 0.000000
vt 0.000000 0.000000
vt 0.000000 0.000000
vt 0.000000 0.000000
vt 0.000000 0.000000
vt 0.000000 0.000000
vt 0.000000 0.000000
vt 0.000000 0.000000
vt 0.000000 0.000000
vt 0.000000 0.000000
vt 0.000000 0.000000
vt 0.000000 0.000000
vt 0.000000 0.000000
vn 0.0000 -0.0860 0.9963
vn -1.0000 -0.0001 -0.0000
vn 1.0000 0.0001 -0.0000
vn 1.0000 0.0000 -0.0000
vn 0.0000 -0.0859 0.9963
vn 0.0000 0.0000 1.0000
vn -0.3827 0.0000 -0.9239
vn -0.2706 -0.2706 -0.9239
vn 0.0000 0.9963 0.0860
vn 0.0000 -0.9963 -0.0860
vn 0.0000 0.0859 -0.9963
vn -1.0000 -0.0000 0.0000
vn 0.0000 0.0860 -0.9963
usemtl APPLARO_h_0.004
s 1
f 1/1/1 2/2/1 3/3/1
f 2/2/1 1/1/1 4/4/1
f 3/3/2 2/2/3 5/5/4
f 3/3/5 5/5/5 6/6/5
f 6/6/5 5/5/5 7/7/5
f 6/6/6 7/7/7 8/8/8
f 9/9/2 8/8/8 7/7/7
f 7/7/1 10/10/1 9/9/1
f 10/10/1 7/7/1 11/11/1
f 12/12/5 8/8/5 9/9/5
f 9/9/1 10/10/1 13/13/1
f 8/8/5 12/12/5 14/14/5
f 15/15/6 14/14/6 12/12/6
f 1/1/1 14/14/1 15/15/1
f 14/14/1 1/1/1 3/3/1
f 13/13/1 10/10/1 16/16/1
f 17/17/4 18/18/4 19/19/4
f 18/18/4 17/17/4 20/20/4
f 17/17/4 19/19/4 21/21/4
f 17/17/4 21/21/4 22/22/4
f 23/23/9 24/24/9 25/25/9
f 24/24/9 23/23/9 26/26/9
f 27/27/10 28/28/10 29/29/10
f 28/28/10 27/27/10 30/30/10
f 31/31/11 32/32/11 33/33/11
f 32/32/11 31/31/11 34/34/11
f 35/35/12 36/36/12 37/37/12
f 36/36/12 35/35/12 38/38/12
f 38/38/12 35/35/12 39/39/12
f 39/39/12 35/35/12 40/40/12
usemtl material.016
f 41/41/13 42/42/13 43/43/13
f 44/44/10 45/45/10 46/46/10
f 47/47/10 46/46/10 45/45/10
f 48/48/11 49/49/11 50/50/11
f 49/49/12 48/48/3 51/51/2
f 52/52/11 50/50/11 49/49/11
f 52/52/13 53/53/13 54/54/13
f 55/55/13 53/53/13 52/52/13
f 54/54/3 50/50/4 52/52/2
f 50/50/6 54/54/6 56/56/6
f 57/57/13 54/54/13 53/53/13
f 54/54/11 58/58/11 56/56/11
f 56/56/11 58/58/11 59/59/11
f 58/58/6 60/60/6 59/59/6
f 59/59/13 60/60/13 61/61/13
f 62/62/13 61/61/13 60/60/13
f 51/51/13 48/48/13 61/61/13
f 59/59/13 61/61/13 48/48/13
f 63/63/9 64/64/9 65/65/9
f 66/66/9 65/65/9 64/64/9
f 67/67/5 68/68/5 69/69/5
f 70/70/5 69/69/5 68/68/5
f 71/71/12 72/72/12 73/73/12
f 74/74/12 75/75/12 73/73/12
f 72/72/12 74/74/12 73/73/12
f 76/76/12 73/73/12 75/75/12
f 77/77/4 78/78/4 79/79/4
f 79/79/4 78/78/4 80/80/4
f 80/80/4 78/78/4 81/81/4
f 82/82/4 81/81/4 78/78/4