# Blender v3.0.1 OBJ File: ''
# www.blender.org
mtllib 04.mtl
o SketchUp.007_ID92.301
v 0.703741 0.188069 0.277116
v 0.703741 0.212336 -0.311460
v 0.703741 0.188069 0.252503
v 0.703741 0.212336 0.277116
v 0.703741 0.188069 -0.311370
v 0.776542 0.188069 0.252503
v 0.776542 0.212336 0.277116
v 0.776542 0.188069 0.277116
v 0.776542 0.212336 -0.335727
v 0.776542 0.188069 -0.311370
v 0.776542 0.188069 -0.335727
v 0.703741 -0.491406 -0.369981
v 0.776542 -0.491406 -0.394338
v 0.776542 -0.491406 -0.369981
v 0.703741 -0.491406 -0.394338
v 0.776542 0.212336 0.277116
v 0.703741 0.188069 0.277116
v 0.776542 0.188069 0.277116
v 0.703741 0.212336 0.277116
v 0.776542 0.188069 -0.335727
v 0.703741 0.188069 -0.311370
v 0.703741 0.188069 -0.335727
v 0.776542 0.188069 -0.311370
v 0.703741 0.188069 -0.335727
v 0.776542 0.212336 -0.335727
v 0.776542 0.188069 -0.335727
v 0.703741 0.212336 -0.335727
v 0.776542 -0.491406 0.369725
v 0.703741 -0.491406 0.394338
v 0.703741 -0.491406 0.369725
v 0.776542 -0.491406 0.394338
v 0.728008 -0.321537 -0.355328
v 0.728008 -0.249005 0.327906
v 0.728008 -0.249005 -0.349072
v 0.728008 -0.321537 0.340419
v 0.703741 0.188069 0.277116
v 0.703741 -0.006067 0.285995
v 0.703741 -0.001943 0.309897
v 0.703741 0.188069 0.252503
v 0.703741 -0.077808 0.298372
v 0.703741 -0.073684 0.322273
v 0.703741 -0.491406 0.369725
v 0.703741 -0.491406 0.394338
v 0.703741 0.212336 -0.335727
v 0.703741 0.204427 -0.311460
v 0.703741 0.212336 -0.311460
v 0.703741 0.188069 -0.335727
v 0.703741 0.188069 -0.311370
v 0.752275 -0.249005 0.327906
v 0.752275 -0.321537 -0.355328
v 0.752275 -0.249005 -0.349072
v 0.752275 -0.321537 0.340419
v 0.776542 0.188069 0.252503
v 0.703741 0.188069 0.277116
v 0.703741 0.188069 0.252503
v 0.776542 0.188069 0.277116
v 0.703741 0.188069 -0.335727
v 0.703741 0.033826 -0.324675
v 0.703741 0.188069 -0.311370
v 0.703741 0.035911 -0.348852
v 0.703741 0.188069 -0.311370
v 0.703741 0.212336 -0.311460
v 0.703741 0.188069 0.252503
v 0.703741 0.188069 0.277116
v 0.703741 0.212336 0.277116
v 0.776542 0.188069 0.252503
v 0.776542 0.188069 -0.311370
v 0.703741 0.188069 0.252503
v 0.703741 0.188069 -0.311370
v 0.703741 -0.030334 -0.330209
v 0.776542 0.188069 -0.311370
v 0.703741 -0.066510 -0.333330
v 0.776542 -0.491406 -0.369981
v 0.703741 -0.491406 -0.369981
v 0.703741 0.188069 0.252503
v 0.703741 -0.006067 0.285995
v 0.776542 0.188069 0.252503
v 0.703741 -0.077808 0.298372
v 0.703741 -0.491406 0.369725
v 0.776542 -0.491406 0.369725
v 0.776542 -0.491406 -0.394338
v 0.776542 -0.491406 -0.369981
v 0.776542 0.188069 -0.335727
v 0.776542 0.188069 -0.311370
v 0.776542 -0.491406 0.394338
v 0.776542 0.188069 0.277116
v 0.776542 -0.491406 0.369725
v 0.703741 -0.491406 -0.394338
v 0.776542 -0.491406 -0.394338
v 0.703741 -0.064424 -0.357507
v 0.703741 0.188069 0.277116
v 0.776542 0.188069 0.277116
v 0.703741 -0.001943 0.309897
v 0.703741 -0.073684 0.322273
v 0.703741 -0.491406 0.394338
v 0.776542 -0.491406 0.394338
v 0.776542 0.212336 0.277116
v 0.703741 0.212336 -0.311460
v 0.776542 0.212336 -0.335727
v 0.703741 0.212336 0.277116
v 0.703741 0.212336 -0.335727
v 0.752275 -0.321537 0.340419
v 0.752275 -0.321537 -0.355328
v 0.728008 -0.321537 0.340419
v 0.728008 -0.321537 -0.355328
v 0.752275 -0.249005 -0.349072
v 0.752275 -0.249005 0.327906
v 0.728008 -0.249005 -0.349072
v 0.728008 -0.249005 0.327906
v 0.703741 -0.491406 -0.394338
v 0.703741 -0.064424 -0.357507
v 0.703741 -0.491406 -0.369981
v 0.703741 -0.066510 -0.333330
v 0.703741 0.008108 -0.351250
v 0.703741 0.035911 -0.348852
v 0.703741 0.006022 -0.327073
v 0.703741 0.033826 -0.324675
v 0.703741 0.204427 -0.311460
v 0.703741 0.212336 -0.311460
v 0.703741 0.188069 -0.311370
v 0.776542 0.188069 0.277116
v 0.776542 0.188069 0.252503
v 0.703741 0.188069 0.277116
v 0.703741 0.188069 0.252503
v 0.776542 0.188069 0.252503
v 0.776542 -0.491406 0.369725
v 0.776542 0.188069 0.277116
v 0.776542 0.188069 -0.335727
v 0.776542 0.188069 -0.311370
v 0.776542 0.212336 -0.335727
v 0.776542 0.188069 0.252503
v 0.776542 0.212336 0.277116
v 0.776542 0.188069 0.277116
v 0.703741 0.212336 0.277116
v 0.776542 0.212336 0.277116
v 0.703741 0.188069 0.277116
v 0.776542 0.188069 0.277116
v 0.776542 0.188069 -0.311370
v 0.776542 0.188069 -0.335727
v 0.703741 0.188069 -0.311370
v 0.703741 0.188069 -0.335727
v 0.703741 0.212336 -0.335727
v 0.703741 0.188069 -0.335727
v 0.776542 0.212336 -0.335727
v 0.776542 0.188069 -0.335727
v 0.703741 0.188069 -0.311370
v 0.776542 0.188069 -0.311370
v 0.703741 0.033826 -0.324675
v 0.703741 0.006022 -0.327073
v 0.703741 -0.006067 -0.328116
v 0.703741 -0.030334 -0.330209
v 0.703741 0.188069 -0.335727
v 0.703741 0.035911 -0.348852
v 0.776542 0.188069 -0.335727
v 0.703741 0.008108 -0.351250
v 0.703741 -0.064424 -0.357507
v 0.776542 -0.491406 -0.394338
v 0.752275 -0.249005 -0.349072
v 0.752275 -0.321537 -0.355328
v 0.752275 -0.249005 0.327906
v 0.752275 -0.321537 0.340419
v 0.703741 0.188069 0.252503
v 0.703741 0.188069 0.277116
v 0.703741 -0.006067 0.285995
v 0.703741 -0.001943 0.309897
v 0.703741 -0.077808 0.298372
v 0.703741 -0.073684 0.322273
v 0.703741 -0.491406 0.369725
v 0.703741 -0.491406 0.394338
v 0.728008 -0.249005 -0.349072
v 0.728008 -0.249005 0.327906
v 0.728008 -0.321537 -0.355328
v 0.728008 -0.321537 0.340419
v 0.776542 -0.491406 0.394338
v 0.776542 -0.491406 0.369725
v 0.703741 -0.491406 0.394338
v 0.703741 -0.491406 0.369725
v 0.776542 -0.491406 -0.369981
v 0.776542 -0.491406 -0.394338
v 0.703741 -0.491406 -0.369981
v 0.703741 -0.491406 -0.394338
v 0.703741 0.212336 -0.335727
v 0.703741 0.204427 -0.311460
v 0.703741 0.188069 -0.335727
v 0.703741 0.212336 -0.311460
v 0.703741 0.188069 -0.311370
v 0.703741 0.188069 0.252503
v 0.776542 0.188069 -0.311370
v 0.776542 0.188069 0.252503
v 0.703741 0.188069 -0.311370
v 0.728008 -0.321537 0.340419
v 0.752275 -0.321537 -0.355328
v 0.752275 -0.321537 0.340419
v 0.728008 -0.321537 -0.355328
v 0.728008 -0.249005 -0.349072
v 0.752275 -0.249005 0.327906
v 0.752275 -0.249005 -0.349072
v 0.728008 -0.249005 0.327906
v 0.776542 -0.491406 -0.369981
v 0.703741 -0.066510 -0.333330
v 0.703741 -0.491406 -0.369981
v 0.776542 0.188069 -0.311370
v 0.703741 -0.030334 -0.330209
v 0.703741 -0.491406 0.369725
v 0.776542 0.188069 0.252503
v 0.776542 -0.491406 0.369725
v 0.703741 -0.077808 0.298372
v 0.703741 -0.006067 0.285995
v 0.703741 0.188069 0.252503
v 0.776542 -0.491406 0.369725
v 0.776542 0.188069 0.277116
v 0.776542 -0.491406 0.394338
v 0.776542 0.188069 0.252503
v 0.703741 -0.064424 -0.357507
v 0.776542 -0.491406 -0.394338
v 0.703741 -0.491406 -0.394338
v 0.703741 -0.001943 0.309897
v 0.776542 0.188069 0.277116
v 0.703741 0.188069 0.277116
v 0.703741 -0.491406 0.394338
v 0.776542 -0.491406 0.394338
v 0.703741 -0.073684 0.322273
v 0.776542 0.212336 0.277116
v 0.703741 0.212336 -0.311460
v 0.703741 0.212336 0.277116
v 0.776542 0.212336 -0.335727
v 0.703741 0.212336 -0.335727
v 0.703741 -0.064424 -0.357507
v 0.703741 -0.491406 -0.369981
v 0.703741 -0.066510 -0.333330
v 0.703741 -0.491406 -0.394338
v 0.776542 -0.491406 -0.369981
v 0.776542 0.188069 -0.335727
v 0.776542 0.188069 -0.311370
v 0.776542 -0.491406 -0.394338
v 0.703741 0.035911 -0.348852
v 0.703741 0.006022 -0.327073
v 0.703741 0.033826 -0.324675
v 0.703741 0.008108 -0.351250
vt -0.096610 0.570000
vt -0.581695 0.590000
vt -0.116895 0.570000
vt -0.096610 0.590000
vt -0.581621 0.570000
vt 0.116895 0.570000
vt 0.096610 0.590000
vt 0.096610 0.570000
vt 0.601695 0.590000
vt 0.581621 0.570000
vt 0.601695 0.570000
vt 0.000000 0.000000
vt 0.000000 0.000000
vt 0.000000 0.000000
vt 0.000000 0.000000
vt 1.280000 0.590000
vt 1.220000 0.570000
vt 1.280000 0.570000
vt 1.220000 0.590000
vt -1.280000 0.601695
vt -1.220000 0.581621
vt -1.220000 0.601695
vt -1.280000 0.581621
vt -1.220000 0.570000
vt -1.280000 0.590000
vt -1.280000 0.570000
vt -1.220000 0.590000
vt -1.280000 0.020285
vt -1.220000 -0.000000
vt -1.220000 0.020285
vt -1.280000 -0.000000
vt 0.000000 0.000000
vt 0.000000 0.000000
vt 0.000000 0.000000
vt 0.000000 0.000000
vt -0.096610 0.570000
vt -0.089293 0.410000
vt -0.069594 0.413398
vt -0.116895 0.570000
vt -0.079092 0.350873
vt -0.059393 0.354272
vt -0.020285 0.010000
vt 0.000000 0.010000
vt -0.601695 0.590000
vt -0.581695 0.583482
vt -0.581695 0.590000
vt -0.601695 0.570000
vt -0.581621 0.570000
vt 0.000000 0.000000
vt 0.000000 0.000000
vt 0.000000 0.000000
vt 0.000000 0.000000
vt -1.280000 0.116895
vt -1.220000 0.096610
vt -1.220000 0.116895
vt -1.280000 0.096610
vt 0.000000 0.000000
vt 0.000000 0.000000
vt 0.000000 0.000000
vt 0.000000 0.000000
vt 0.000000 0.000000
vt 0.000000 0.000000
vt 0.000000 0.000000
vt 0.000000 0.000000
vt 0.000000 0.000000
vt 0.000000 0.000000
vt 0.000000 0.000000
vt 0.000000 0.000000
vt 0.000000 0.000000
vt 0.000000 0.000000
vt 0.000000 0.000000
vt 0.000000 0.000000
vt 0.000000 0.000000
vt 0.000000 0.000000
vt 0.000000 0.000000
vt 0.000000 0.000000
vt 0.000000 0.000000
vt 0.000000 0.000000
vt 0.000000 0.000000
vt 0.000000 0.000000
vt 0.000000 0.000000
vt 0.000000 0.000000
vt 0.000000 0.000000
vt 0.000000 0.000000
vt 0.000000 0.000000
vt 0.000000 0.000000
vt 0.000000 0.000000
vt 0.000000 0.000000
vt 0.000000 0.000000
vt 0.000000 0.000000
vt 0.000000 0.000000
vt 0.000000 0.000000
vt 0.000000 0.000000
vt 0.000000 0.000000
vt 0.000000 0.000000
vt 0.000000 0.000000
vt 0.000000 0.000000
vt 0.000000 0.000000
vt 0.000000 0.000000
vt 0.000000 0.000000
vt 0.000000 0.000000
vt 0.000000 0.000000
vt 0.000000 0.000000
vt 0.000000 0.000000
vt 0.000000 0.000000
vt 0.000000 0.000000
vt 0.000000 0.000000
vt 0.000000 0.000000
vt 0.000000 0.000000
vt 0.000000 0.000000
vt 0.000000 0.000000
vt 0.000000 0.000000
vt 0.000000 0.000000
vt 0.000000 0.000000
vt 0.000000 0.000000
vt 0.000000 0.000000
vt 0.000000 0.000000
vt 0.000000 0.000000
vt 0.000000 0.000000
vt 0.000000 0.000000
vt 0.000000 0.000000
vt 0.000000 0.000000
vt 0.000000 0.000000
vt 0.000000 0.000000
vt 0.000000 0.000000
vt 0.000000 0.000000
vt 0.000000 0.000000
vt 0.000000 0.000000
vt 0.000000 0.000000
vt 0.000000 0.000000
vt 0.000000 0.000000
vt 0.000000 0.000000
vt 0.000000 0.000000
vt 0.000000 0.000000
vt 0.000000 0.000000
vt 0.000000 0.000000
vt 0.000000 0.000000
vt 0.000000 0.000000
vt 0.000000 0.000000
vt 0.000000 0.000000
vt 0.000000 0.000000
vt 0.000000 0.000000
vt 0.000000 0.000000
vt 0.000000 0.000000
vt 0.000000 0.000000
vt 0.000000 0.000000
vt 0.000000 0.000000
vt 0.000000 0.000000
vt 0.000000 0.000000
vt 0.000000 0.000000
vt 0.000000 0.000000
vt 0.000000 0.000000
vt 0.000000 0.000000
vt 0.000000 0.000000
vt 0.000000 0.000000
vt 0.000000 0.000000
vt 0.000000 0.000000
vt 0.000000 0.000000
vt 0.000000 0.000000
vt 0.000000 0.000000
vt 0.000000 0.000000
vt 0.000000 0.000000
vt 0.000000 0.000000
vt 0.000000 0.000000
vt 0.000000 0.000000
vt 0.000000 0.000000
vt 0.000000 0.000000
vt 0.000000 0.000000
vt 0.000000 0.000000
vt 0.000000 0.000000
vt 0.000000 0.000000
vt 0.000000 0.000000
vt 0.000000 0.000000
vt 0.000000 0.000000
vt 0.000000 0.000000
vt 0.000000 0.000000
vt 0.000000 0.000000
vt 0.000000 0.000000
vt 0.000000 0.000000
vt 0.000000 0.000000
vt 0.000000 0.000000
vt 0.000000 0.000000
vt 0.000000 0.000000
vt 0.000000 0.000000
vt 0.000000 0.000000
vt 0.000000 0.000000
vt 0.000000 0.000000
vt 0.000000 0.000000
vt 0.000000 0.000000
vt 0.000000 0.000000
vt 0.000000 0.000000
vt 0.000000 0.000000
vt 0.000000 0.000000
vt 0.000000 0.000000
vt 0.000000 0.000000
vt 0.000000 0.000000
vt 0.000000 0.000000
vt 0.000000 0.000000
vt 0.000000 0.000000
vt 0.000000 0.000000
vt 0.000000 0.000000
vt 0.000000 0.000000
vt 0.000000 0.000000
vt 0.000000 0.000000
vt 0.000000 0.000000
vt 0.000000 0.000000
vt 0.000000 0.000000
vt 0.000000 0.000000
vt 0.000000 0.000000
vt 0.000000 0.000000
vt 0.000000 0.000000
vt 0.000000 0.000000
vt 0.000000 0.000000
vt 0.000000 0.000000
vt 0.000000 0.000000
vt 0.000000 0.000000
vt 0.000000 0.000000
vt 0.000000 0.000000
vt 0.000000 0.000000
vt 0.000000 0.000000
vt 0.000000 0.000000
vt 0.000000 0.000000
vt 0.000000 0.000000
vt 0.000000 0.000000
vt 0.000000 0.000000
vt 0.000000 0.000000
vt 0.000000 0.000000
vt 0.000000 0.000000
vt 0.000000 0.000000
vt 0.000000 0.000000
vt 0.000000 0.000000
vt 0.000000 0.000000
vt 0.000000 0.000000
vt 0.000000 0.000000
vt 0.000000 0.000000
vt 0.000000 0.000000
vt 0.000000 0.000000
vt 0.000000 0.000000
vt 0.000000 0.000000
vn -1.0000 -0.0000 0.0000
vn -1.0000 -0.0001 0.0000
vn 1.0000 0.0000 0.0000
vn 0.0000 -1.0000 0.0000
vn 0.0000 0.0000 1.0000
vn 0.0000 0.0000 -1.0000
vn 1.0000 0.0001 0.0000
vn 0.0000 1.0000 0.0000
vn -0.0000 0.0860 -0.9963
vn -0.0000 0.0859 -0.9963
vn 0.0000 0.1700 0.9854
vn 0.0000 -0.0859 0.9963
vn 0.0000 -0.1700 -0.9854
vn 0.0000 -0.0860 0.9963
usemtl APPLARO_h_0
s 1
f 1/1/1 2/2/1 3/3/2
f 2/2/1 1/1/1 4/4/1
f 3/3/2 2/2/1 5/5/1
f 6/6/3 7/7/3 8/8/3
f 7/7/3 6/6/3 9/9/3
f 9/9/3 6/6/3 10/10/3
f 9/9/3 10/10/3 11/11/3
f 12/12/4 13/13/4 14/14/4
f 13/13/4 12/12/4 15/15/4
f 16/16/5 17/17/5 18/18/5
f 17/17/5 16/16/5 19/19/5
f 20/20/4 21/21/4 22/22/4
f 21/21/4 20/20/4 23/23/4
f 24/24/6 25/25/6 26/26/6
f 25/25/6 24/24/6 27/27/6
f 28/28/4 29/29/4 30/30/4
f 29/29/4 28/28/4 31/31/4
f 32/32/1 33/33/1 34/34/1
f 33/33/1 32/32/1 35/35/1
f 36/36/1 37/37/1 38/38/1
f 37/37/1 36/36/1 39/39/1
f 40/40/1 38/38/1 37/37/1
f 38/38/1 40/40/1 41/41/1
f 42/42/1 41/41/1 40/40/1
f 41/41/1 42/42/1 43/43/1
f 44/44/1 45/45/1 46/46/1
f 47/47/1 45/45/1 44/44/1
f 45/45/1 47/47/1 48/48/1
f 49/49/3 50/50/3 51/51/3
f 50/50/3 49/49/3 52/52/3
f 53/53/4 54/54/4 55/55/4
f 54/54/4 53/53/4 56/56/4
f 57/57/1 58/58/1 59/59/1
f 58/58/1 57/57/1 60/60/1
usemtl material
f 61/61/3 62/62/3 63/63/7
f 63/63/7 62/62/3 64/64/3
f 65/65/3 64/64/3 62/62/3
f 66/66/8 67/67/8 68/68/8
f 69/69/8 68/68/8 67/67/8
f 70/70/9 71/71/10 72/72/10
f 71/71/10 73/73/10 72/72/10
f 74/74/10 72/72/10 73/73/10
f 75/75/11 76/76/11 77/77/11
f 76/76/11 78/78/11 77/77/11
f 78/78/11 79/79/11 77/77/11
f 80/80/11 77/77/11 79/79/11
f 81/81/1 82/82/1 83/83/1
f 84/84/1 83/83/1 82/82/1
f 85/85/1 86/86/1 87/87/1
f 88/88/12 89/89/12 90/90/12
f 91/91/13 92/92/13 93/93/13
f 93/93/13 92/92/13 94/94/13
f 94/94/13 92/92/13 95/95/13
f 96/96/13 95/95/13 92/92/13
f 97/97/4 98/98/4 99/99/4
f 100/100/4 98/98/4 97/97/4
f 101/101/4 99/99/4 98/98/4
f 102/102/8 103/103/8 104/104/8
f 105/105/8 104/104/8 103/103/8
f 106/106/4 107/107/4 108/108/4
f 109/109/4 108/108/4 107/107/4
f 110/110/3 111/111/3 112/112/3
f 113/113/3 112/112/3 111/111/3
f 114/114/3 115/115/3 116/116/3
f 117/117/3 116/116/3 115/115/3
f 118/118/3 119/119/3 120/120/3
f 121/121/8 122/122/8 123/123/8
f 124/124/8 123/123/8 122/122/8
f 125/125/1 126/126/1 127/127/1
f 128/128/1 129/129/1 130/130/1
f 129/129/1 131/131/1 130/130/1
f 130/130/1 131/131/1 132/132/1
f 133/133/1 132/132/1 131/131/1
f 134/134/6 135/135/6 136/136/6
f 137/137/6 136/136/6 135/135/6
f 138/138/8 139/139/8 140/140/8
f 141/141/8 140/140/8 139/139/8
f 142/142/5 143/143/5 144/144/5
f 145/145/5 144/144/5 143/143/5
f 146/146/10 147/147/10 148/148/10
f 148/148/10 147/147/10 149/149/9
f 149/149/9 147/147/10 150/150/10
f 150/150/10 147/147/10 151/151/10
f 152/152/12 153/153/12 154/154/12
f 153/153/12 155/155/12 154/154/12
f 155/155/12 156/156/12 154/154/12
f 154/154/12 156/156/12 157/157/12
f 158/158/1 159/159/1 160/160/1
f 161/161/1 160/160/1 159/159/1
f 162/162/3 163/163/3 164/164/3
f 165/165/3 164/164/3 163/163/3
f 164/164/3 165/165/3 166/166/3
f 167/167/3 166/166/3 165/165/3
f 166/166/3 167/167/3 168/168/3
f 169/169/3 168/168/3 167/167/3
f 170/170/3 171/171/3 172/172/3
f 173/173/3 172/172/3 171/171/3
f 174/174/8 175/175/8 176/176/8
f 177/177/8 176/176/8 175/175/8
f 178/178/8 179/179/8 180/180/8
f 181/181/8 180/180/8 179/179/8
f 182/182/3 183/183/3 184/184/3
f 185/185/3 183/183/3 182/182/3
f 186/186/3 184/184/3 183/183/3
usemtl APPLARO_v
f 187/187/4 188/188/4 189/189/4
f 188/188/4 187/187/4 190/190/4
f 191/191/4 192/192/4 193/193/4
f 192/192/4 191/191/4 194/194/4
f 195/195/8 196/196/8 197/197/8
f 196/196/8 195/195/8 198/198/8
f 199/199/12 200/200/12 201/201/12
f 200/200/12 199/199/12 202/202/12
f 200/200/12 202/202/12 203/203/14
f 204/204/13 205/205/13 206/206/13
f 205/205/13 204/204/13 207/207/13
f 205/205/13 207/207/13 208/208/13
f 205/205/13 208/208/13 209/209/13
f 210/210/3 211/211/3 212/212/3
f 211/211/3 210/210/3 213/213/3
f 214/214/10 215/215/10 216/216/10
f 217/217/11 218/218/11 219/219/11
f 218/218/11 220/220/11 221/221/11
f 220/220/11 218/218/11 222/222/11
f 222/222/11 218/218/11 217/217/11
f 223/223/8 224/224/8 225/225/8
f 226/226/8 224/224/8 223/223/8
f 224/224/8 226/226/8 227/227/8
f 228/228/1 229/229/1 230/230/1
f 229/229/1 228/228/1 231/231/1
f 232/232/3 233/233/3 234/234/3
f 233/233/3 232/232/3 235/235/3
f 236/236/1 237/237/1 238/238/1
f 237/237/1 236/236/1 239/239/1