# Blender v3.0.1 OBJ File: ''
# www.blender.org
mtllib 01.mtl
o model.003_model.037
v 0.050703 -0.344394 0.234006
v 0.019154 -0.303242 0.234006
v 0.030393 -0.349345 0.234006
v 0.039465 -0.298291 0.234006
v 0.039465 -0.298291 0.234006
v 0.050703 -0.344394 0.234006
v 0.019154 -0.303242 0.234006
v 0.030393 -0.349345 0.234006
v 0.122714 -0.639793 0.234006
v 0.091165 -0.598641 0.234006
v 0.102403 -0.644744 0.234006
v 0.111475 -0.593690 0.234006
v 0.111475 -0.593690 0.234006
v 0.122714 -0.639793 0.234006
v 0.091165 -0.598641 0.234006
v 0.102403 -0.644744 0.234006
v -0.263862 0.924585 -0.227203
v -0.275890 0.921653 -0.227203
v -0.269876 0.923120 -0.226398
v -0.258258 0.925952 -0.229563
v -0.281494 0.920287 -0.229563
v -0.253445 0.927125 -0.233317
v -0.286306 0.919114 -0.233317
v -0.249753 0.928025 -0.238210
v -0.289999 0.918214 -0.238210
v -0.247431 0.928591 -0.243907
v -0.292320 0.917648 -0.243907
v -0.246640 0.928784 -0.250021
v -0.293112 0.917455 -0.250021
v -0.247431 0.928591 -0.256135
v -0.292320 0.917648 -0.256135
v -0.249753 0.928025 -0.261833
v -0.289999 0.918214 -0.261833
v -0.253445 0.927125 -0.266725
v -0.286306 0.919114 -0.266725
v -0.258258 0.925952 -0.270480
v -0.281494 0.920287 -0.270480
v -0.263862 0.924585 -0.272840
v -0.275890 0.921653 -0.272840
v -0.269876 0.923120 -0.273645
v -0.269876 0.923120 -0.273645
v -0.263862 0.924585 -0.272840
v -0.275890 0.921653 -0.272840
v -0.281494 0.920287 -0.270480
v -0.258258 0.925952 -0.270480
v -0.286306 0.919114 -0.266725
v -0.253445 0.927125 -0.266725
v -0.289999 0.918214 -0.261833
v -0.249753 0.928025 -0.261833
v -0.292320 0.917648 -0.256135
v -0.247431 0.928591 -0.256135
v -0.293112 0.917455 -0.250021
v -0.246640 0.928784 -0.250021
v -0.292320 0.917648 -0.243907
v -0.247431 0.928591 -0.243907
v -0.289999 0.918214 -0.238210
v -0.249753 0.928025 -0.238210
v -0.286306 0.919114 -0.233317
v -0.253445 0.927125 -0.233317
v -0.281494 0.920287 -0.229563
v -0.258258 0.925952 -0.229563
v -0.275890 0.921653 -0.227203
v -0.263862 0.924585 -0.227203
v -0.269876 0.923120 -0.226398
v -0.263862 0.924585 0.272837
v -0.275890 0.921653 0.272837
v -0.269876 0.923119 0.273642
v -0.258258 0.925952 0.270477
v -0.281494 0.920287 0.270477
v -0.253445 0.927125 0.266723
v -0.286306 0.919114 0.266723
v -0.249753 0.928025 0.261831
v -0.289999 0.918214 0.261831
v -0.247431 0.928591 0.256133
v -0.292320 0.917648 0.256133
v -0.246640 0.928784 0.250019
v -0.293112 0.917455 0.250019
v -0.247431 0.928591 0.243905
v -0.292320 0.917648 0.243905
v -0.249753 0.928025 0.238207
v -0.289999 0.918214 0.238207
v -0.253445 0.927125 0.233315
v -0.286306 0.919114 0.233315
v -0.258258 0.925952 0.229560
v -0.281494 0.920287 0.229560
v -0.263862 0.924585 0.227200
v -0.275890 0.921653 0.227200
v -0.269876 0.923119 0.226395
v 0.202633 -0.917647 0.256133
v -0.246640 0.928784 0.250019
v -0.247431 0.928591 0.256133
v 0.203425 -0.917454 0.250019
v -0.247431 0.928591 0.243905
v 0.202633 -0.917647 0.243905
v -0.249753 0.928025 0.238207
v 0.200311 -0.918213 0.238207
v -0.253445 0.927125 0.233315
v 0.196619 -0.919113 0.233315
v -0.258258 0.925952 0.229560
v 0.191806 -0.920286 0.229560
v -0.263862 0.924585 0.227200
v 0.186202 -0.921652 0.227200
v -0.269876 0.923119 0.226395
v 0.180188 -0.923118 0.226395
v -0.275890 0.921653 0.227200
v 0.174175 -0.924584 0.227200
v -0.281494 0.920287 0.229560
v 0.168570 -0.925950 0.229560
v -0.286306 0.919114 0.233315
v 0.163758 -0.927124 0.233315
v -0.289999 0.918214 0.238207
v 0.160066 -0.928024 0.238207
v -0.292320 0.917648 0.243905
v 0.157744 -0.928590 0.243905
v -0.293112 0.917455 0.250019
v 0.156953 -0.928783 0.250019
v -0.292320 0.917648 0.256133
v 0.157744 -0.928590 0.256133
v -0.289999 0.918214 0.261831
v 0.160066 -0.928024 0.261831
v -0.286306 0.919114 0.266723
v 0.163758 -0.927124 0.266723
v 0.168570 -0.925950 0.270477
v -0.281494 0.920287 0.270477
v 0.174175 -0.924584 0.272837
v -0.275890 0.921653 0.272837
v 0.180188 -0.923118 0.273642
v -0.269876 0.923119 0.273642
v 0.186202 -0.921652 0.272837
v -0.263862 0.924585 0.272837
v 0.191806 -0.920286 0.270477
v -0.258258 0.925952 0.270477
v 0.196619 -0.919113 0.266723
v -0.253445 0.927125 0.266723
v -0.249753 0.928025 0.261831
v 0.200311 -0.918213 0.261831
v 0.174175 -0.924584 0.272837
v 0.186202 -0.921652 0.272837
v 0.180188 -0.923118 0.273642
v 0.168570 -0.925950 0.270477
v 0.191806 -0.920286 0.270477
v 0.163758 -0.927124 0.266723
v 0.196619 -0.919113 0.266723
v 0.160066 -0.928024 0.261831
v 0.200311 -0.918213 0.261831
v 0.157744 -0.928590 0.256133
v 0.202633 -0.917647 0.256133
v 0.156953 -0.928783 0.250019
v 0.203425 -0.917454 0.250019
v 0.157744 -0.928590 0.243905
v 0.202633 -0.917647 0.243905
v 0.160066 -0.928024 0.238207
v 0.200311 -0.918213 0.238207
v 0.163758 -0.927124 0.233315
v 0.196619 -0.919113 0.233315
v 0.168570 -0.925950 0.229560
v 0.191806 -0.920286 0.229560
v 0.174175 -0.924584 0.227200
v 0.186202 -0.921652 0.227200
v 0.180188 -0.923118 0.226395
v -0.269876 0.923119 0.226395
v -0.263862 0.924585 0.227200
v -0.275890 0.921653 0.227200
v -0.281494 0.920287 0.229560
v -0.258258 0.925952 0.229560
v -0.286306 0.919114 0.233315
v -0.253445 0.927125 0.233315
v -0.289999 0.918214 0.238207
v -0.249753 0.928025 0.238207
v -0.292320 0.917648 0.243905
v -0.247431 0.928591 0.243905
v -0.293112 0.917455 0.250019
v -0.246640 0.928784 0.250019
v -0.292320 0.917648 0.256133
v -0.247431 0.928591 0.256133
v -0.289999 0.918214 0.261831
v -0.249753 0.928025 0.261831
v -0.286306 0.919114 0.266723
v -0.253445 0.927125 0.266723
v -0.281494 0.920287 0.270477
v -0.258258 0.925952 0.270477
v -0.275890 0.921653 0.272837
v -0.263862 0.924585 0.272837
v -0.269876 0.923119 0.273642
v 0.203425 -0.917454 0.250019
v 0.202633 -0.917647 0.256133
v -0.246640 0.928784 0.250019
v -0.247431 0.928591 0.256133
v 0.202633 -0.917647 0.243905
v -0.247431 0.928591 0.243905
v 0.200311 -0.918213 0.238207
v -0.249753 0.928025 0.238207
v 0.196619 -0.919113 0.233315
v -0.253445 0.927125 0.233315
v -0.258258 0.925952 0.229560
v 0.191806 -0.920286 0.229560
v -0.263862 0.924585 0.227200
v 0.186202 -0.921652 0.227200
v -0.269876 0.923119 0.226395
v 0.180188 -0.923118 0.226395
v -0.275890 0.921653 0.227200
v 0.174175 -0.924584 0.227200
v -0.281494 0.920287 0.229560
v 0.168570 -0.925950 0.229560
v -0.286306 0.919114 0.233315
v 0.163758 -0.927124 0.233315
v 0.160066 -0.928024 0.238207
v -0.289999 0.918214 0.238207
v 0.157744 -0.928590 0.243905
v -0.292320 0.917648 0.243905
v 0.156953 -0.928783 0.250019
v -0.293112 0.917455 0.250019
v 0.157744 -0.928590 0.256133
v -0.292320 0.917648 0.256133
v 0.160066 -0.928024 0.261831
v -0.289999 0.918214 0.261831
v 0.163758 -0.927124 0.266723
v -0.286306 0.919114 0.266723
v -0.281494 0.920287 0.270477
v 0.168570 -0.925950 0.270477
v -0.275890 0.921653 0.272837
v 0.174175 -0.924584 0.272837
v -0.269876 0.923119 0.273642
v 0.180188 -0.923118 0.273642
v -0.263862 0.924585 0.272837
v 0.186202 -0.921652 0.272837
v -0.258258 0.925952 0.270477
v 0.191806 -0.920286 0.270477
v -0.253445 0.927125 0.266723
v 0.196619 -0.919113 0.266723
v 0.200311 -0.918213 0.261831
v -0.249753 0.928025 0.261831
v 0.180188 -0.923118 0.226395
v 0.174175 -0.924584 0.227200
v 0.186202 -0.921652 0.227200
v 0.191806 -0.920286 0.229560
v 0.168570 -0.925950 0.229560
v 0.196619 -0.919113 0.233315
v 0.163758 -0.927124 0.233315
v 0.200311 -0.918213 0.238207
v 0.160066 -0.928024 0.238207
v 0.202633 -0.917647 0.243905
v 0.157744 -0.928590 0.243905
v 0.203425 -0.917454 0.250019
v 0.156953 -0.928783 0.250019
v 0.202633 -0.917647 0.256133
v 0.157744 -0.928590 0.256133
v 0.200311 -0.918213 0.261831
v 0.160066 -0.928024 0.261831
v 0.196619 -0.919113 0.266723
v 0.163758 -0.927124 0.266723
v 0.191806 -0.920286 0.270477
v 0.168570 -0.925950 0.270477
v 0.186202 -0.921652 0.272837
v 0.174175 -0.924584 0.272837
v 0.180188 -0.923118 0.273642
vt 0.780358 0.061993
vt 0.000000 0.000000
vt 0.780358 0.000000
vt 0.000000 0.061993
vt 0.000000 0.061993
vt 0.780358 0.061993
vt 0.000000 0.000000
vt 0.780358 0.000000
vt 0.780358 0.061993
vt 0.000000 0.000000
vt 0.780358 0.000000
vt 0.000000 0.061993
vt 0.000000 0.061993
vt 0.780358 0.061993
vt 0.000000 0.000000
vt 0.780358 0.000000
vt -2.438135 0.026105
vt -2.438135 0.015370
vt -2.434216 0.020738
vt -2.449623 0.031107
vt -2.449623 0.010369
vt -2.467899 0.035401
vt -2.467899 0.006074
vt -2.491716 0.038697
vt -2.491716 0.002778
vt -2.519452 0.040769
vt -2.519452 0.000707
vt -2.549216 0.041475
vt -2.549216 0.000000
vt -2.578980 0.040769
vt -2.578980 0.000707
vt -2.606716 0.038697
vt -2.606716 0.002778
vt -2.630533 0.035401
vt -2.630533 0.006074
vt -2.648809 0.031107
vt -2.648809 0.010369
vt -2.660298 0.026105
vt -2.660298 0.015370
vt -2.664216 0.020738
vt 0.000000 0.000000
vt 0.000000 0.000000
vt 0.000000 0.000000
vt 0.000000 0.000000
vt 0.000000 0.000000
vt 0.000000 0.000000
vt 0.000000 0.000000
vt 0.000000 0.000000
vt 0.000000 0.000000
vt 0.000000 0.000000
vt 0.000000 0.000000
vt 0.000000 0.000000
vt 0.000000 0.000000
vt 0.000000 0.000000
vt 0.000000 0.000000
vt 0.000000 0.000000
vt 0.000000 0.000000
vt 0.000000 0.000000
vt 0.000000 0.000000
vt 0.000000 0.000000
vt 0.000000 0.000000
vt 0.000000 0.000000
vt 0.000000 0.000000
vt 0.000000 0.000000
vt -0.003919 0.026105
vt -0.003919 0.015370
vt 0.000000 0.020738
vt -0.015407 0.031107
vt -0.015407 0.010369
vt -0.033683 0.035401
vt -0.033683 0.006074
vt -0.057500 0.038697
vt -0.057500 0.002778
vt -0.085236 0.040769
vt -0.085236 0.000707
vt -0.115000 0.041475
vt -0.115000 0.000000
vt -0.144764 0.040769
vt -0.144764 0.000707
vt -0.172500 0.038697
vt -0.172500 0.002778
vt -0.196317 0.035401
vt -0.196317 0.006074
vt -0.214593 0.031107
vt -0.214593 0.010369
vt -0.226082 0.026105
vt -0.226082 0.015370
vt -0.230000 0.020738
vt 8.647975 0.020560
vt 0.000000 0.025974
vt 0.000000 0.020560
vt 8.647975 0.025974
vt -8.647975 -0.015147
vt 0.000000 -0.020560
vt 0.000000 -0.015147
vt -8.647975 -0.020560
vt -8.647975 -0.008516
vt 0.000000 -0.013930
vt 0.000000 -0.008516
vt -8.647975 -0.013930
vt -8.647975 -0.001121
vt 0.000000 -0.006535
vt 0.000000 -0.001121
vt -8.647975 -0.006535
vt 0.000000 0.001121
vt -8.647975 0.006535
vt -8.647975 0.001121
vt 0.000000 0.006535
vt 0.000000 0.008516
vt -8.647975 0.013930
vt -8.647975 0.008516
vt 0.000000 0.013930
vt -0.000000 0.015147
vt -8.647975 0.020560
vt -8.647975 0.015147
vt -0.000000 0.020560
vt -0.000000 0.020560
vt -8.647975 0.025974
vt -8.647975 0.020560
vt -0.000000 0.025974
vt -0.000000 0.024388
vt -8.647975 0.029802
vt -8.647975 0.024388
vt -0.000000 0.029802
vt 0.000000 0.026370
vt -8.647975 0.031783
vt -8.647975 0.026370
vt 0.000000 0.031783
vt -8.647975 0.031783
vt 0.000000 0.026370
vt 0.000000 0.031783
vt -8.647975 0.026370
vt -8.647975 0.029802
vt -0.000000 0.024388
vt -0.000000 0.029802
vt -8.647975 0.024388
vt -8.647975 0.025974
vt -0.000000 0.020560
vt -0.000000 0.025974
vt -8.647975 0.020560
vt 8.647975 -0.020560
vt -0.000000 -0.015147
vt -0.000000 -0.020560
vt 8.647975 -0.015147
vt 8.647975 -0.013930
vt -0.000000 -0.008516
vt -0.000000 -0.013930
vt 8.647975 -0.008516
vt 8.647975 -0.006535
vt -0.000000 -0.001121
vt -0.000000 -0.006535
vt 8.647975 -0.001121
vt 8.647975 0.006535
vt -0.000000 0.001121
vt 8.647975 0.001121
vt -0.000000 0.006535
vt 8.647975 0.013930
vt 0.000000 0.008516
vt 8.647975 0.008516
vt 0.000000 0.013930
vt 8.647975 0.020560
vt 0.000000 0.015147
vt 8.647975 0.015147
vt 0.000000 0.020560
vt 8.647975 0.025974
vt 0.000000 0.025974
vt 8.647975 0.029802
vt 0.000000 0.024388
vt 8.647975 0.024388
vt 0.000000 0.029802
vt 8.647975 0.031783
vt 0.000000 0.026370
vt 8.647975 0.026370
vt 0.000000 0.031783
vt 8.647975 0.026370
vt 0.000000 0.031783
vt 0.000000 0.026370
vt 8.647975 0.031783
vt 8.647975 0.024388
vt 0.000000 0.029802
vt 0.000000 0.024388
vt 8.647975 0.029802
vt 0.003919 0.015370
vt 0.003919 0.026105
vt -0.000000 0.020738
vt 0.015407 0.010369
vt 0.015407 0.031107
vt 0.033683 0.006074
vt 0.033683 0.035401
vt 0.057500 0.002778
vt 0.057500 0.038697
vt 0.085236 0.000707
vt 0.085236 0.040769
vt 0.115000 -0.000000
vt 0.115000 0.041475
vt 0.144764 0.000707
vt 0.144764 0.040769
vt 0.172500 0.002778
vt 0.172500 0.038697
vt 0.196317 0.006074
vt 0.196317 0.035401
vt 0.214593 0.010369
vt 0.214593 0.031107
vt 0.226082 0.015370
vt 0.226082 0.026105
vt 0.230000 0.020738
vt 0.000000 0.000000
vt 0.000000 0.000000
vt 0.000000 0.000000
vt 0.000000 0.000000
vt 0.000000 0.000000
vt 0.000000 0.000000
vt 0.000000 0.000000
vt 0.000000 0.000000
vt 0.000000 0.000000
vt 0.000000 0.000000
vt 0.000000 0.000000
vt 0.000000 0.000000
vt 0.000000 0.000000
vt 0.000000 0.000000
vt 0.000000 0.000000
vt 0.000000 0.000000
vt 0.000000 0.000000
vt 0.000000 0.000000
vt 0.000000 0.000000
vt 0.000000 0.000000
vt 0.000000 0.000000
vt 0.000000 0.000000
vt 0.000000 0.000000
vt 0.000000 0.000000
vt 0.000000 0.000000
vt 0.000000 0.000000
vt 0.000000 0.000000
vt 0.000000 0.000000
vt 0.000000 0.000000
vt 0.000000 0.000000
vt 0.000000 0.000000
vt 0.000000 0.000000
vt 0.000000 0.000000
vt 0.000000 0.000000
vt 0.000000 0.000000
vt 0.000000 0.000000
vt 0.000000 0.000000
vt 0.000000 0.000000
vt 0.000000 0.000000
vt 0.000000 0.000000
vt 0.000000 0.000000
vt 0.000000 0.000000
vt 0.000000 0.000000
vt 0.000000 0.000000
vt 0.000000 0.000000
vt 0.000000 0.000000
vt 0.000000 0.000000
vt 0.000000 0.000000
vt 0.000000 0.000000
vt 0.000000 0.000000
vt 0.000000 0.000000
vt 0.000000 0.000000
vt 0.000000 0.000000
vt 0.000000 0.000000
vt 0.000000 0.000000
vt 0.000000 0.000000
vt 0.000000 0.000000
vt 0.000000 0.000000
vt 0.000000 0.000000
vt 0.000000 0.000000
vt 0.000000 0.000000
vt 0.000000 0.000000
vt 0.000000 0.000000
vt 0.000000 0.000000
vt 0.000000 0.000000
vt 0.000000 0.000000
vt 0.000000 0.000000
vt 0.000000 0.000000
vt 0.000000 0.000000
vt 0.000000 0.000000
vt 0.000000 0.000000
vt 0.000000 0.000000
vt 0.000000 0.000000
vt 0.000000 0.000000
vt 0.000000 0.000000
vt 0.000000 0.000000
vt 0.000000 0.000000
vt 0.000000 0.000000
vt 0.000000 0.000000
vt 0.000000 0.000000
vt 0.000000 0.000000
vt 0.000000 0.000000
vt 0.000000 0.000000
vt 0.000000 0.000000
vt 0.000000 0.000000
vt 0.000000 0.000000
vt 0.000000 0.000000
vt 0.000000 0.000000
vt 0.000000 0.000000
vt 0.000000 0.000000
vt 0.000000 0.000000
vt 0.000000 0.000000
vt 0.000000 0.000000
vt 0.000000 0.000000
vt 0.000000 0.000000
vt 0.000000 0.000000
vn 0.0000 -0.0000 1.0000
vn 0.0000 0.0000 -1.0000
vn -0.2368 0.9716 -0.0003
vn -0.2369 0.9715 0.0001
vn -0.2369 0.9715 -0.0002
vn -0.2369 0.9715 -0.0001
vn -0.2368 0.9715 0.0000
vn -0.2369 0.9715 -0.0000
vn -0.2367 0.9716 0.0004
vn -0.2369 0.9715 0.0002
vn 0.2369 -0.9715 -0.0002
vn 0.2369 -0.9715 0.0003
vn 0.2368 -0.9715 -0.0001
vn 0.2369 -0.9715 0.0000
vn 0.2368 -0.9715 -0.0000
vn 0.2369 -0.9715 0.0001
vn 0.2369 -0.9715 -0.0001
vn 0.2368 -0.9716 -0.0003
vn 0.2369 -0.9715 0.0006
vn -0.2368 0.9716 0.0003
vn -0.2368 0.9715 0.0001
vn -0.2369 0.9715 -0.0003
vn -0.2368 0.9716 -0.0000
vn -0.2368 0.9716 -0.0001
vn 0.9480 0.2311 0.2188
vn 0.9706 0.2366 0.0444
vn 0.9255 0.2256 0.3043
vn 0.9706 0.2366 -0.0444
vn 0.9480 0.2311 -0.2188
vn 0.9255 0.2256 -0.3043
vn 0.8596 0.2095 -0.4660
vn 0.8163 0.1990 -0.5422
vn 0.7124 0.1737 -0.6799
vn 0.6518 0.1589 -0.7416
vn 0.5176 0.1262 -0.8462
vn 0.4441 0.1083 -0.8894
vn 0.2891 0.0705 -0.9547
vn 0.2076 0.0506 -0.9769
vn 0.0421 0.0103 -0.9991
vn -0.0421 -0.0103 -0.9991
vn -0.2076 -0.0506 -0.9769
vn -0.2891 -0.0705 -0.9547
vn -0.4441 -0.1083 -0.8894
vn -0.5176 -0.1262 -0.8463
vn -0.6518 -0.1589 -0.7416
vn -0.7124 -0.1737 -0.6800
vn -0.8163 -0.1990 -0.5422
vn -0.8596 -0.2095 -0.4660
vn -0.9255 -0.2256 -0.3043
vn -0.9480 -0.2311 -0.2188
vn -0.9706 -0.2366 -0.0444
vn -0.9706 -0.2366 0.0444
vn -0.9480 -0.2311 0.2188
vn -0.9255 -0.2256 0.3043
vn -0.8596 -0.2096 0.4660
vn -0.8163 -0.1990 0.5422
vn -0.6829 -0.1665 0.7113
vn -0.5176 -0.1261 0.8463
vn -0.4441 -0.1083 0.8894
vn -0.2891 -0.0705 0.9547
vn -0.2076 -0.0506 0.9769
vn -0.0421 -0.0103 0.9991
vn 0.0421 0.0102 0.9991
vn 0.2076 0.0506 0.9769
vn 0.2891 0.0705 0.9547
vn 0.4441 0.1082 0.8894
vn 0.5176 0.1262 0.8463
vn 0.6829 0.1665 0.7113
vn 0.8163 0.1990 0.5422
vn 0.8596 0.2095 0.4660
vn 0.2368 -0.9715 -0.0002
vn 0.2368 -0.9716 -0.0000
vn 0.2368 -0.9715 0.0002
vn 0.2368 -0.9716 0.0002
vn 0.2368 -0.9715 0.0001
vn 0.2368 -0.9716 0.0001
vn -0.8164 -0.1990 0.5422
vn -0.6518 -0.1589 0.7416
vn -0.7124 -0.1737 0.6799
vn -0.5176 -0.1262 0.8463
vn -0.0420 -0.0102 0.9991
vn 0.0420 0.0102 0.9991
vn 0.4441 0.1083 0.8894
vn 0.6518 0.1589 0.7416
vn 0.7124 0.1737 0.6799
vn 0.8164 0.1990 0.5422
vn 0.6829 0.1665 -0.7113
vn 0.5176 0.1262 -0.8463
vn -0.4441 -0.1082 -0.8894
vn -0.6824 -0.1664 -0.7118
vn -0.6829 -0.1665 -0.7113
vn -0.2368 0.9715 0.0002
vn -0.2368 0.9715 -0.0001
vn -0.2368 0.9716 -0.0002
vn -0.2368 0.9715 -0.0002
usemtl material_0.042
s 1
f 1/1/1 2/2/1 3/3/1
f 2/2/1 1/1/1 4/4/1
f 5/5/2 6/6/2 7/7/2
f 8/8/2 7/7/2 6/6/2
f 9/9/1 10/10/1 11/11/1
f 10/10/1 9/9/1 12/12/1
f 13/13/2 14/14/2 15/15/2
f 16/16/2 15/15/2 14/14/2
f 17/17/3 18/18/4 19/19/5
f 18/18/4 17/17/3 20/20/6
f 18/18/4 20/20/6 21/21/7
f 21/21/7 20/20/6 22/22/7
f 21/21/7 22/22/7 23/23/7
f 23/23/7 22/22/7 24/24/7
f 23/23/7 24/24/7 25/25/7
f 25/25/7 24/24/7 26/26/7
f 25/25/7 26/26/7 27/27/7
f 27/27/7 26/26/7 28/28/7
f 27/27/7 28/28/7 29/29/7
f 29/29/7 28/28/7 30/30/7
f 29/29/7 30/30/7 31/31/7
f 31/31/7 30/30/7 32/32/7
f 31/31/7 32/32/7 33/33/7
f 33/33/7 32/32/7 34/34/7
f 33/33/7 34/34/7 35/35/8
f 35/35/8 34/34/7 36/36/8
f 35/35/8 36/36/8 37/37/8
f 37/37/8 36/36/8 38/38/5
f 37/37/8 38/38/5 39/39/9
f 39/39/9 38/38/5 40/40/10
f 41/41/11 42/42/12 43/43/13
f 43/43/13 42/42/12 44/44/14
f 42/42/12 45/45/14 44/44/14
f 44/44/14 45/45/14 46/46/14
f 45/45/14 47/47/15 46/46/14
f 46/46/14 47/47/15 48/48/15
f 47/47/15 49/49/15 48/48/15
f 48/48/15 49/49/15 50/50/15
f 49/49/15 51/51/15 50/50/15
f 50/50/15 51/51/15 52/52/15
f 51/51/15 53/53/15 52/52/15
f 52/52/15 53/53/15 54/54/15
f 53/53/15 55/55/15 54/54/15
f 54/54/15 55/55/15 56/56/15
f 55/55/15 57/57/15 56/56/15
f 56/56/15 57/57/15 58/58/15
f 57/57/15 59/59/15 58/58/15
f 58/58/15 59/59/15 60/60/15
f 59/59/15 61/61/16 60/60/15
f 60/60/15 61/61/16 62/62/17
f 61/61/16 63/63/18 62/62/17
f 64/64/19 62/62/17 63/63/18
usemtl material_1
f 65/65/20 66/66/4 67/67/21
f 66/66/4 65/65/20 68/68/6
f 66/66/4 68/68/6 69/69/8
f 69/69/8 68/68/6 70/70/7
f 69/69/8 70/70/7 71/71/7
f 71/71/7 70/70/7 72/72/7
f 71/71/7 72/72/7 73/73/7
f 73/73/7 72/72/7 74/74/7
f 73/73/7 74/74/7 75/75/7
f 75/75/7 74/74/7 76/76/7
f 75/75/7 76/76/7 77/77/7
f 77/77/7 76/76/7 78/78/7
f 77/77/7 78/78/7 79/79/7
f 79/79/7 78/78/7 80/80/7
f 79/79/7 80/80/7 81/81/7
f 81/81/7 80/80/7 82/82/7
f 81/81/7 82/82/7 83/83/6
f 83/83/6 82/82/7 84/84/8
f 83/83/6 84/84/8 85/85/8
f 85/85/8 84/84/8 86/86/22
f 85/85/8 86/86/22 87/87/23
f 87/87/23 86/86/22 88/88/24
f 89/89/25 90/90/26 91/91/27
f 90/90/26 89/89/25 92/92/28
f 92/93/28 93/94/29 90/95/26
f 93/94/29 92/93/28 94/96/30
f 94/97/30 95/98/31 93/99/29
f 95/98/31 94/97/30 96/100/32
f 96/101/32 97/102/33 95/103/31
f 97/102/33 96/101/32 98/104/34
f 99/105/35 98/106/34 100/107/36
f 98/106/34 99/105/35 97/108/33
f 101/109/37 100/110/36 102/111/38
f 100/110/36 101/109/37 99/112/35
f 103/113/39 102/114/38 104/115/40
f 102/114/38 103/113/39 101/116/37
f 105/117/41 104/118/40 106/119/42
f 104/118/40 105/117/41 103/120/39
f 107/121/43 106/122/42 108/123/44
f 106/122/42 107/121/43 105/124/41
f 109/125/45 108/126/44 110/127/46
f 108/126/44 109/125/45 107/128/43
f 110/129/46 111/130/47 109/131/45
f 111/130/47 110/129/46 112/132/48
f 112/133/48 113/134/49 111/135/47
f 113/134/49 112/133/48 114/136/50
f 114/137/50 115/138/51 113/139/49
f 115/138/51 114/137/50 116/140/52
f 116/141/52 117/142/53 115/143/51
f 117/142/53 116/141/52 118/144/54
f 118/145/54 119/146/55 117/147/53
f 119/146/55 118/145/54 120/148/56
f 120/149/56 121/150/57 119/151/55
f 121/150/57 120/149/56 122/152/57
f 123/153/58 121/154/57 122/155/57
f 121/154/57 123/153/58 124/156/59
f 125/157/60 124/158/59 123/159/58
f 124/158/59 125/157/60 126/160/61
f 127/161/62 126/162/61 125/163/60
f 126/162/61 127/161/62 128/164/63
f 129/165/64 128/164/63 127/161/62
f 128/164/63 129/165/64 130/166/65
f 131/167/66 130/168/65 129/169/64
f 130/168/65 131/167/66 132/170/67
f 133/171/68 132/172/67 131/173/66
f 132/172/67 133/171/68 134/174/68
f 133/175/68 135/176/69 134/177/68
f 135/176/69 133/175/68 136/178/70
f 136/179/70 91/180/27 135/181/69
f 91/180/27 136/179/70 89/182/25
f 137/183/71 138/184/72 139/185/73
f 138/184/72 137/183/71 140/186/74
f 138/184/72 140/186/74 141/187/75
f 141/187/75 140/186/74 142/188/15
f 141/187/75 142/188/15 143/189/15
f 143/189/15 142/188/15 144/190/15
f 143/189/15 144/190/15 145/191/15
f 145/191/15 144/190/15 146/192/15
f 145/191/15 146/192/15 147/193/15
f 147/193/15 146/192/15 148/194/15
f 147/193/15 148/194/15 149/195/15
f 149/195/15 148/194/15 150/196/15
f 149/195/15 150/196/15 151/197/15
f 151/197/15 150/196/15 152/198/15
f 151/197/15 152/198/15 153/199/15
f 153/199/15 152/198/15 154/200/13
f 153/199/15 154/200/13 155/201/15
f 155/201/15 154/200/13 156/202/71
f 155/201/15 156/202/71 157/203/72
f 157/203/72 156/202/71 158/204/76
f 157/203/72 158/204/76 159/205/15
f 159/205/15 158/204/76 160/206/11
f 161/207/72 162/208/12 163/209/72
f 163/209/72 162/208/12 164/210/16
f 162/208/12 165/211/14 164/210/16
f 164/210/16 165/211/14 166/212/14
f 165/211/14 167/213/15 166/212/14
f 166/212/14 167/213/15 168/214/15
f 167/213/15 169/215/15 168/214/15
f 168/214/15 169/215/15 170/216/15
f 169/215/15 171/217/15 170/216/15
f 170/216/15 171/217/15 172/218/15
f 171/217/15 173/219/15 172/218/15
f 172/218/15 173/219/15 174/220/15
f 173/219/15 175/221/15 174/220/15
f 174/220/15 175/221/15 176/222/15
f 175/221/15 177/223/15 176/222/15
f 176/222/15 177/223/15 178/224/15
f 177/223/15 179/225/15 178/224/15
f 178/224/15 179/225/15 180/226/14
f 179/225/15 181/227/16 180/226/14
f 180/226/14 181/227/16 182/228/17
f 181/227/16 183/229/18 182/228/17
f 184/230/15 182/228/17 183/229/18
f 185/231/52 186/232/50 187/233/51
f 188/234/49 187/233/51 186/232/50
f 189/235/54 185/231/52 190/236/53
f 187/233/51 190/236/53 185/231/52
f 191/237/77 189/235/54 192/238/55
f 190/236/53 192/238/55 189/235/54
f 193/239/78 191/237/77 194/240/79
f 192/238/55 194/240/79 191/237/77
f 194/240/79 195/241/80 193/239/78
f 196/242/59 193/239/78 195/241/80
f 195/241/80 197/243/60 196/242/59
f 198/244/61 196/242/59 197/243/60
f 197/243/60 199/245/81 198/244/61
f 200/246/82 198/244/61 199/245/81
f 199/245/81 201/247/64 200/246/82
f 202/248/65 200/246/82 201/247/64
f 201/247/64 203/249/83 202/248/65
f 204/250/67 202/248/65 203/249/83
f 203/249/83 205/251/84 204/250/67
f 206/252/85 204/250/67 205/251/84
f 207/253/70 206/252/85 208/254/86
f 205/251/84 208/254/86 206/252/85
f 209/255/25 207/253/70 210/256/27
f 208/254/86 210/256/27 207/253/70
f 211/257/28 209/255/25 212/258/26
f 210/256/27 212/258/26 209/255/25
f 213/259/30 211/257/28 214/260/29
f 212/258/26 214/260/29 211/257/28
f 215/261/32 213/259/30 216/262/31
f 214/260/29 216/262/31 213/259/30
f 217/263/87 215/261/32 218/264/87
f 216/262/31 218/264/87 215/261/32
f 219/265/36 220/266/88 218/264/87
f 217/263/87 218/264/87 220/266/88
f 221/267/38 222/268/37 219/265/36
f 220/266/88 219/265/36 222/268/37
f 223/269/40 224/270/39 221/267/38
f 222/268/37 221/267/38 224/270/39
f 225/271/42 226/272/41 223/269/40
f 224/270/39 223/269/40 226/272/41
f 227/273/44 228/274/89 225/271/42
f 226/272/41 225/271/42 228/274/89
f 229/275/90 230/276/91 227/273/44
f 228/274/89 227/273/44 230/276/91
f 231/277/48 230/276/91 232/278/47
f 229/275/90 232/278/47 230/276/91
f 186/232/50 231/277/48 188/234/49
f 232/278/47 188/234/49 231/277/48
f 233/279/10 234/280/24 235/281/7
f 235/281/7 234/280/24 236/282/23
f 234/280/24 237/283/92 236/282/23
f 236/282/23 237/283/92 238/284/7
f 237/283/92 239/285/21 238/284/7
f 238/284/7 239/285/21 240/286/7
f 239/285/21 241/287/7 240/286/7
f 240/286/7 241/287/7 242/288/7
f 241/287/7 243/289/7 242/288/7
f 242/288/7 243/289/7 244/290/7
f 243/289/7 245/291/7 244/290/7
f 244/290/7 245/291/7 246/292/7
f 245/291/7 247/293/7 246/292/7
f 246/292/7 247/293/7 248/294/7
f 247/293/7 249/295/7 248/294/7
f 248/294/7 249/295/7 250/296/7
f 249/295/7 251/297/7 250/296/7
f 250/296/7 251/297/7 252/298/93
f 251/297/7 253/299/94 252/298/93
f 252/298/93 253/299/94 254/300/23
f 253/299/94 255/301/92 254/300/23
f 256/302/95 254/300/23 255/301/92