# Blender v3.0.1 OBJ File: ''
# www.blender.org
mtllib 02.mtl
o model.001_model.052
v 0.111475 -0.593690 -0.243907
v 0.091165 -0.598641 0.234006
v 0.111475 -0.593690 0.234006
v 0.091165 -0.598641 -0.243907
v 0.091165 -0.598641 -0.243907
v 0.111475 -0.593690 -0.243907
v 0.091165 -0.598641 0.234006
v 0.111475 -0.593690 0.234006
v 0.122714 -0.639793 0.234006
v 0.111475 -0.593690 -0.243907
v 0.111475 -0.593690 0.234006
v 0.122714 -0.639793 -0.243907
v 0.122714 -0.639793 -0.243907
v 0.122714 -0.639793 0.234006
v 0.111475 -0.593690 -0.243907
v 0.111475 -0.593690 0.234006
v 0.102403 -0.644744 -0.243907
v 0.091165 -0.598641 0.234006
v 0.091165 -0.598641 -0.243907
v 0.102403 -0.644744 0.234006
v 0.102403 -0.644744 0.234006
v 0.102403 -0.644744 -0.243907
v 0.091165 -0.598641 0.234006
v 0.091165 -0.598641 -0.243907
v 0.102403 -0.644744 -0.243907
v 0.122714 -0.639793 0.234006
v 0.102403 -0.644744 0.234006
v 0.122714 -0.639793 -0.243907
v 0.122714 -0.639793 -0.243907
v 0.102403 -0.644744 -0.243907
v 0.122714 -0.639793 0.234006
v 0.102403 -0.644744 0.234006
vt -7.859160 0.061993
vt 0.000000 0.000000
vt 0.000000 0.061993
vt -7.859160 0.000000
vt -7.859160 0.000000
vt -7.859160 0.061993
vt 0.000000 0.000000
vt 0.000000 0.061993
vt 0.780358 0.000000
vt 0.000000 1.417225
vt 0.000000 0.000000
vt 0.780358 1.417225
vt 0.780358 1.417225
vt 0.780358 0.000000
vt 0.000000 1.417225
vt 0.000000 0.000000
vt -0.780358 1.417225
vt 0.000000 0.000000
vt 0.000000 1.417225
vt -0.780358 0.000000
vt -0.780358 0.000000
vt -0.780358 1.417225
vt 0.000000 0.000000
vt 0.000000 1.417225
vt 7.859160 0.000000
vt 0.000000 0.061993
vt 0.000000 0.000000
vt 7.859160 0.061993
vt 7.859160 0.061993
vt 7.859160 0.000000
vt 0.000000 0.061993
vt 0.000000 0.000000
vn -0.2368 0.9715 0.0000
vn 0.2368 -0.9715 -0.0000
vn 0.9715 0.2368 0.0000
vn -0.9715 -0.2368 -0.0000
vn -0.9716 -0.2368 -0.0000
vn 0.9716 0.2368 0.0000
vn 0.2368 -0.9716 -0.0000
vn -0.2368 0.9716 0.0000
usemtl material_0.043
s 1
f 1/1/1 2/2/1 3/3/1
f 2/2/1 1/1/1 4/4/1
f 5/5/2 6/6/2 7/7/2
f 8/8/2 7/7/2 6/6/2
f 9/9/3 10/10/3 11/11/3
f 10/10/3 9/9/3 12/12/3
f 13/13/4 14/14/4 15/15/4
f 16/16/4 15/15/4 14/14/4
f 17/17/5 18/18/5 19/19/5
f 18/18/5 17/17/5 20/20/5
f 21/21/6 22/22/6 23/23/6
f 24/24/6 23/23/6 22/22/6
f 25/25/7 26/26/7 27/27/7
f 26/26/7 25/25/7 28/28/7
f 29/29/8 30/30/8 31/31/8
f 32/32/8 31/31/8 30/30/8