# Blender v3.0.1 OBJ File: ''
# www.blender.org
mtllib 03.mtl
o LISABO_by_IKEA__corona.004_LISABO_by_IKEA__corona.006
v 0.150668 -0.036486 -0.253652
v 0.160047 -0.041517 -0.264189
v 0.160047 -0.036486 -0.264189
v 0.000080 -0.036486 -0.242477
v 0.139615 -0.041517 -0.242477
v 0.139615 -0.036486 -0.242477
v -0.152272 -0.036486 -0.253652
v -0.142690 -0.041517 -0.243201
v -0.142690 -0.036486 -0.243201
v -0.150938 -0.042501 -0.253652
v 0.000080 -0.042501 -0.263846
v 0.000080 -0.042501 -0.253652
v -0.141591 -0.042501 -0.243461
v 0.000080 -0.042501 -0.243461
v 0.159810 0.053731 -0.264830
v 0.000080 0.010403 -0.264830
v 0.000080 0.053731 -0.264830
v -0.141040 -0.036486 -0.242477
v 0.000080 -0.041517 -0.242477
v 0.141347 -0.036486 -0.243116
v 0.150668 -0.041517 -0.253652
v 0.159810 -0.036486 -0.264830
v 0.000080 -0.041517 -0.264830
v 0.000080 -0.036486 -0.264830
v -0.161537 -0.041517 -0.264830
v -0.161537 -0.036486 -0.264830
v 0.149154 -0.042501 -0.253652
v 0.158132 -0.042501 -0.263846
v 0.140236 -0.042501 -0.243461
v 0.000080 0.054717 -0.263846
v -0.150938 0.054717 -0.253652
v 0.000080 0.054717 -0.253652
v -0.141591 0.054717 -0.243461
v 0.000080 0.054717 -0.243461
v 0.141347 0.053731 -0.243116
v 0.150668 0.010403 -0.253652
v 0.150668 0.053731 -0.253652
v -0.152272 0.053731 -0.253652
v -0.142690 0.010403 -0.243201
v -0.142690 0.053731 -0.243201
v 0.140236 0.054717 -0.243461
v 0.149154 0.054717 -0.253652
v 0.000080 0.053731 -0.242477
v 0.139615 0.010403 -0.242477
v 0.139615 0.053731 -0.242477
v 0.158132 0.054717 -0.263846
v -0.141040 0.053731 -0.242477
v 0.000080 0.010403 -0.242477
v 0.160047 0.010403 -0.264189
v 0.160047 0.053731 -0.264189
v -0.161856 0.053731 -0.264105
v -0.152272 0.010403 -0.253652
v -0.161856 -0.036486 -0.264105
v -0.152272 -0.041517 -0.253652
v -0.161048 0.054429 -0.264489
v -0.161274 0.054429 -0.263975
v -0.160282 0.054717 -0.263846
v -0.161699 0.054300 -0.264470
v -0.162160 0.053731 -0.264672
v -0.161537 0.053731 -0.264830
v -0.161699 -0.042086 -0.264470
v -0.162160 -0.041517 -0.264672
v -0.161856 -0.041517 -0.264105
v -0.161274 -0.042212 -0.263975
v -0.161048 -0.042212 -0.264489
v -0.160282 -0.042501 -0.263846
v 0.159778 0.054300 -0.264454
v 0.160287 0.053731 -0.264643
v 0.159223 0.054429 -0.263862
v 0.158972 0.054429 -0.264542
v 0.158972 -0.042212 -0.264542
v 0.159223 -0.042212 -0.263862
v 0.159778 -0.042086 -0.264454
v 0.160287 -0.041517 -0.264643
v 0.159810 -0.041517 -0.264830
v -0.141866 0.054300 -0.242837
v -0.141956 0.053731 -0.242634
v -0.142345 0.054429 -0.243332
v -0.141178 0.054429 -0.242818
v -0.141866 -0.042086 -0.242837
v -0.142345 -0.042212 -0.243332
v -0.141956 -0.041517 -0.242634
v -0.141040 -0.041517 -0.242477
v -0.141178 -0.042212 -0.242818
v 0.140924 0.054429 -0.243133
v 0.140530 0.053731 -0.242664
v 0.139925 0.054429 -0.242765
v 0.140484 0.054300 -0.242786
v 0.140484 -0.042086 -0.242786
v 0.139925 -0.042212 -0.242765
v 0.140530 -0.041517 -0.242664
v 0.140924 -0.042212 -0.243133
v 0.141347 -0.041517 -0.243116
v 0.000080 0.054429 -0.264542
v -0.162149 -0.036486 -0.264667
v 0.000080 -0.042212 -0.264542
v 0.160287 0.010403 -0.264643
v 0.159810 0.010403 -0.264830
v 0.150042 0.054429 -0.253498
v 0.150042 -0.042212 -0.253498
v 0.140530 0.010403 -0.242664
v 0.141347 0.010403 -0.243116
v 0.000080 0.054429 -0.242765
v 0.000080 -0.042212 -0.242765
v -0.141932 0.010403 -0.242689
v -0.151756 0.054429 -0.253516
v -0.151756 -0.042212 -0.253516
v -0.162038 0.010403 -0.264618
v -0.161856 0.010403 -0.264105
v 0.160287 -0.036486 -0.264643
v 0.140530 -0.036486 -0.242664
v -0.141954 -0.036486 -0.242640
v -0.161537 0.010403 -0.264830
v -0.141040 0.010403 -0.242477
vt 0.596000 0.814700
vt 0.584500 0.818700
vt 0.584500 0.814200
vt 0.558300 0.240900
vt 0.564000 0.345500
vt 0.559600 0.345700
vt 0.406600 0.392500
vt 0.402600 0.381600
vt 0.406500 0.381500
vt 0.656900 0.382800
vt 0.663900 0.488800
vt 0.656700 0.488800
vt 0.648700 0.392600
vt 0.649600 0.488800
vt 0.405600 0.138100
vt 0.440900 0.256800
vt 0.407700 0.256500
vt 0.559600 0.135900
vt 0.562100 0.240900
vt 0.607000 0.814800
vt 0.595900 0.818700
vt 0.475000 0.135600
vt 0.480000 0.257000
vt 0.476200 0.257000
vt 0.480800 0.378700
vt 0.476200 0.378700
vt 0.656800 0.594200
vt 0.665400 0.603400
vt 0.648500 0.584700
vt 0.663900 0.252200
vt 0.656900 0.358200
vt 0.656700 0.252200
vt 0.648700 0.348400
vt 0.649600 0.252200
vt 0.606700 0.745900
vt 0.596100 0.779000
vt 0.595900 0.745900
vt 0.475900 0.392600
vt 0.442500 0.381600
vt 0.475900 0.381700
vt 0.648500 0.156300
vt 0.656800 0.146800
vt 0.489800 0.240200
vt 0.521800 0.344600
vt 0.484500 0.340700
vt 0.665400 0.137600
vt 0.485200 0.138000
vt 0.522800 0.240700
vt 0.585200 0.779200
vt 0.584600 0.746300
vt 0.475600 0.403700
vt 0.442500 0.392500
vt 0.406900 0.403900
vt 0.402600 0.392600
vt 0.666700 0.368700
vt 0.665800 0.369100
vt 0.665400 0.367500
vt 0.476200 0.403900
vt 0.475600 0.404300
vt 0.403400 0.375700
vt 0.402400 0.376000
vt 0.402000 0.374900
vt 0.481700 0.379100
vt 0.480800 0.379400
vt 0.402700 0.403800
vt 0.402100 0.404000
vt 0.402000 0.403500
vt 0.665800 0.371900
vt 0.666700 0.372300
vt 0.665400 0.373500
vt 0.404400 0.138000
vt 0.405600 0.137300
vt 0.584500 0.745700
vt 0.585300 0.745600
vt 0.665600 0.136000
vt 0.666700 0.136400
vt 0.666700 0.604600
vt 0.665600 0.605000
vt 0.584400 0.819200
vt 0.584000 0.818700
vt 0.479700 0.135600
vt 0.480700 0.135500
vt 0.481200 0.137000
vt 0.484400 0.137100
vt 0.485200 0.137100
vt 0.476400 0.381000
vt 0.476500 0.381600
vt 0.647700 0.348800
vt 0.647500 0.347800
vt 0.647700 0.392200
vt 0.648500 0.391700
vt 0.402100 0.380900
vt 0.402600 0.380900
vt 0.564000 0.136000
vt 0.564800 0.135100
vt 0.565100 0.135900
vt 0.606900 0.745300
vt 0.607400 0.745800
vt 0.484400 0.341700
vt 0.483500 0.341000
vt 0.647500 0.156000
vt 0.648000 0.155500
vt 0.647500 0.585000
vt 0.647400 0.584300
vt 0.565100 0.345900
vt 0.564100 0.346500
vt 0.607600 0.818700
vt 0.607100 0.819200
vt 0.606900 0.818700
vt 0.665900 0.252200
vt 0.405700 0.256500
vt 0.406900 0.404400
vt 0.476200 0.379300
vt 0.665900 0.488800
vt 0.482100 0.257000
vt 0.584600 0.779200
vt 0.441400 0.136700
vt 0.441400 0.136100
vt 0.656500 0.145900
vt 0.596300 0.745200
vt 0.648000 0.585500
vt 0.596400 0.819400
vt 0.521800 0.345400
vt 0.607000 0.778900
vt 0.607700 0.778900
vt 0.647400 0.156700
vt 0.488000 0.240200
vt 0.647500 0.393200
vt 0.564000 0.240900
vt 0.442500 0.380800
vt 0.522100 0.135200
vt 0.648500 0.349300
vt 0.476500 0.392300
vt 0.656600 0.382000
vt 0.402000 0.392200
vt 0.404000 0.139600
vt 0.442400 0.404100
vt 0.442400 0.403500
vt 0.440600 0.378300
vt 0.403400 0.376400
vt 0.482100 0.378000
vt 0.584000 0.814200
vt 0.475000 0.135100
vt 0.656500 0.595100
vt 0.585100 0.819300
vt 0.559600 0.346500
vt 0.607700 0.814800
vt 0.484200 0.137900
vt 0.559600 0.135100
vt 0.656600 0.359000
vt 0.476300 0.403400
vt 0.402000 0.381500
vt 0.440600 0.377700
vt 0.564000 0.135100
vt 0.406500 0.380800
vt 0.479700 0.135100
vt 0.522200 0.136000
vt 0.666700 0.369800
vt 0.402700 0.404400
vt 0.666700 0.371200
vt 0.584100 0.746300
vt 0.666600 0.135100
vt 0.666600 0.605900
vt 0.475900 0.381000
vt 0.607400 0.745400
vt 0.483700 0.341700
vt 0.564800 0.346500
vt 0.607600 0.819200
vt 0.648000 0.252200
vt 0.648000 0.488800
vn 0.7480 0.0000 0.6637
vn 0.7470 0.0000 0.6649
vn 0.0000 0.0000 1.0000
vn -0.7371 0.0000 0.6758
vn 0.0000 -1.0000 -0.0000
vn 0.0000 0.0000 -1.0000
vn 0.7490 0.0000 0.6626
vn 0.0000 1.0000 0.0000
vn -0.2378 0.9657 -0.1044
vn -0.7428 0.4939 0.4520
vn -0.1688 0.4939 -0.8530
vn -0.1688 0.4940 -0.8529
vn -0.1688 0.4941 -0.8529
vn -0.1689 -0.4940 -0.8529
vn -0.7428 -0.4940 0.4520
vn -0.2374 -0.9658 -0.1043
vn 0.2271 0.5456 -0.8067
vn 0.2271 0.5455 -0.8067
vn 0.6973 0.5456 0.4648
vn 0.6974 0.5456 0.4647
vn 0.2162 0.9731 -0.0801
vn 0.2159 -0.9732 -0.0797
vn 0.2158 -0.9732 -0.0797
vn 0.6974 -0.5457 0.4647
vn 0.6974 -0.5459 0.4643
vn 0.2265 -0.5458 -0.8067
vn -0.1322 0.3875 0.9123
vn -0.1322 0.3874 0.9124
vn -0.1323 0.3874 0.9124
vn -0.5830 0.3877 0.7140
vn -0.5830 0.3876 0.7140
vn -0.5830 0.3876 0.7141
vn -0.2107 0.8528 0.4779
vn -0.2103 0.8531 0.4774
vn -0.2106 0.8529 0.4777
vn -0.2100 -0.8533 0.4772
vn -0.2100 -0.8532 0.4774
vn -0.5829 -0.3877 0.7141
vn -0.1323 -0.3876 0.9123
vn 0.4960 0.2755 0.8235
vn 0.4960 0.2754 0.8235
vn 0.1593 0.2755 0.9480
vn 0.1594 0.2755 0.9480
vn 0.1741 0.8651 0.4705
vn 0.1741 0.8651 0.4704
vn 0.1740 -0.8651 0.4704
vn 0.1740 -0.8652 0.4704
vn 0.1593 -0.2755 0.9480
vn 0.1592 -0.2755 0.9480
vn 0.4958 -0.2753 0.8236
vn 0.4959 -0.2753 0.8236
vn 0.0000 0.9213 -0.3888
vn -0.0001 0.9185 -0.3954
vn -0.0000 0.9211 -0.3893
vn -0.0002 0.4123 -0.9110
vn -0.8840 0.0007 0.4675
vn -0.2525 0.0007 -0.9676
vn -0.0008 -0.9238 -0.3828
vn -0.0000 -0.9239 -0.3827
vn -0.0005 -0.9237 -0.3830
vn 0.0000 -0.3828 -0.9238
vn 0.8836 -0.0000 0.4683
vn 0.8835 -0.0000 0.4684
vn 0.3658 -0.0000 -0.9307
vn 0.3657 0.0000 -0.9307
vn 0.2577 0.9390 0.2277
vn 0.6558 0.4805 0.5823
vn 0.2692 -0.9337 0.2362
vn 0.6711 -0.4461 0.5921
vn 0.2010 -0.0000 0.9796
vn 0.2002 -0.0000 0.9797
vn 0.2009 -0.0000 0.9796
vn 0.4848 -0.0000 0.8746
vn 0.4844 -0.0000 0.8749
vn -0.0005 0.9239 0.3826
vn 0.0000 0.9240 0.3824
vn 0.0000 0.3824 0.9240
vn -0.0000 0.3826 0.9239
vn -0.0000 0.3825 0.9240
vn -0.0004 -0.9237 0.3831
vn -0.0001 -0.9183 0.3959
vn -0.0002 -0.4123 0.9111
vn -0.0002 -0.4122 0.9111
vn -0.5847 -0.0001 0.8113
vn -0.5860 -0.0007 0.8103
vn -0.5846 -0.0001 0.8113
vn -0.2037 0.0000 0.9790
vn -0.2015 -0.0007 0.9795
vn -0.2916 0.9185 0.2669
vn -0.2915 0.9182 0.2683
vn -0.6715 0.4134 0.6150
vn -0.6706 0.4114 0.6173
vn -0.2914 -0.9183 0.2679
vn -0.2922 -0.9183 0.2669
vn -0.2916 -0.9186 0.2667
vn -0.6708 -0.4120 0.6167
vn -0.6723 -0.4135 0.6141
vn -0.6723 -0.4127 0.6146
vn 0.0000 0.9240 -0.3824
vn 0.0000 0.3828 -0.9238
vn 0.0000 0.3827 -0.9239
vn -0.9119 -0.0019 0.4104
vn -0.9121 0.0001 0.4100
vn -0.9121 0.0001 0.4099
vn -0.3135 -0.0010 -0.9496
vn -0.3197 0.0002 -0.9475
vn -0.0001 -0.9183 -0.3959
vn -0.0001 -0.4123 -0.9110
vn -0.0003 -0.4123 -0.9110
vn 0.3660 -0.0000 -0.9306
vn 0.2691 0.9337 0.2361
vn 0.2690 0.9337 0.2361
vn 0.6711 0.4462 0.5921
vn 0.6711 0.4462 0.5920
vn 0.2576 -0.9391 0.2275
vn 0.6557 -0.4808 0.5822
vn 0.6557 -0.4807 0.5822
vn 0.2002 0.0000 0.9798
vn 0.4849 -0.0000 0.8746
vn -0.0001 0.9186 0.3952
vn -0.0002 0.4124 0.9110
vn -0.0000 -0.9239 0.3827
vn 0.0000 -0.9238 0.3828
vn -0.0000 -0.3825 0.9240
vn 0.0000 -0.3828 0.9238
vn -0.5833 0.0006 0.8122
vn -0.2040 0.0006 0.9790
vn -0.2039 0.0006 0.9790
vn -0.2917 0.9187 0.2664
vn -0.2916 0.9183 0.2678
vn -0.6723 0.4133 0.6141
vn -0.6706 0.4135 0.6159
vn -0.2915 -0.9181 0.2684
vn -0.6705 -0.4118 0.6171
vn -0.6705 -0.4119 0.6171
vn -0.1740 0.0005 0.9847
vn -0.6084 0.0006 0.7936
vn 0.4844 0.0000 0.8748
vn 0.4845 0.0000 0.8748
vn 0.2006 0.0000 0.9797
vn 0.3654 0.0000 -0.9309
vn -0.3198 0.0016 -0.9475
vn -0.3199 0.0009 -0.9475
vn -0.9145 0.0009 0.4046
vn -0.2379 0.9657 -0.1044
vn -0.7428 -0.4940 0.4519
vn -0.2375 -0.9658 -0.1044
vn -0.5829 0.3877 0.7141
vn -0.2105 0.8529 0.4778
vn -0.2100 -0.8533 0.4773
vn 0.4960 0.2755 0.8234
vn 0.1742 0.8651 0.4704
vn -0.8840 0.0007 0.4674
vn -0.0000 -0.3824 -0.9240
vn 0.4841 0.0000 0.8750
vn -0.0006 0.9239 0.3827
vn -0.0000 0.3828 0.9238
vn -0.0006 -0.9238 0.3828
vn -0.2039 -0.0000 0.9790
vn -0.9119 -0.0010 0.4103
vn -0.3196 0.0002 -0.9476
vn -0.0001 -0.9183 -0.3958
vn -0.0002 -0.4123 -0.9110
vn 0.2577 -0.9391 0.2275
vn 0.0000 0.4124 0.9110
vn -0.5834 0.0006 0.8122
vn -0.2917 0.9186 0.2664
vn -0.1741 0.0005 0.9847
vn -0.6085 0.0006 0.7936
usemtl wire_204204204.004
s 1
f 1/1/1 2/2/2 3/3/2
f 4/4/3 5/5/3 6/6/3
f 7/7/4 8/8/4 9/9/4
f 10/10/5 11/11/5 12/12/5
f 13/13/5 12/12/5 14/14/5
f 15/15/6 16/16/6 17/17/6
f 18/18/3 19/19/3 4/4/3
f 20/20/7 21/21/1 1/1/1
f 22/22/6 23/23/6 24/24/6
f 24/24/6 25/25/6 26/26/6
f 27/27/5 11/11/5 28/28/5
f 29/29/5 12/12/5 27/27/5
f 30/30/8 31/31/8 32/32/8
f 32/32/8 33/33/8 34/34/8
f 35/35/7 36/36/1 37/37/1
f 38/38/4 39/39/4 40/40/4
f 32/32/8 41/41/8 42/42/8
f 43/43/3 44/44/3 45/45/3
f 30/30/8 42/42/8 46/46/8
f 47/47/3 48/48/3 43/43/3
f 37/37/1 49/49/2 50/50/2
f 51/51/4 52/52/4 38/38/4
f 53/53/4 54/54/4 7/7/4
f 55/55/9 56/56/9 57/57/9
f 51/51/10 58/58/10 59/59/10
f 60/60/11 58/61/12 55/62/13
f 25/25/14 61/63/14 62/64/14
f 63/65/15 61/66/15 64/67/15
f 64/68/16 65/69/16 66/70/16
f 15/15/17 67/71/17 68/72/18
f 50/50/19 67/73/20 69/74/19
f 69/75/21 70/76/21 46/46/21
f 71/77/22 72/78/23 28/28/22
f 2/2/24 73/79/25 74/80/24
f 75/81/26 73/82/26 71/83/26
f 47/47/27 76/84/28 77/85/29
f 40/40/30 76/86/31 78/87/32
f 33/33/33 76/88/34 79/89/35
f 13/13/36 80/90/36 81/91/37
f 8/8/38 80/92/38 82/93/38
f 83/94/39 80/95/39 84/96/39
f 85/97/40 86/98/41 35/35/41
f 86/99/42 87/100/42 45/45/43
f 41/41/44 88/101/45 85/102/45
f 29/29/46 89/103/47 90/104/46
f 90/105/48 91/106/48 5/5/49
f 91/107/50 92/108/51 93/109/50
f 94/110/52 57/57/53 30/30/54
f 17/17/55 55/62/55 94/111/55
f 95/112/56 63/65/56 53/53/56
f 95/113/57 25/25/57 62/64/57
f 96/114/58 28/28/59 11/11/60
f 23/23/61 71/83/61 96/115/61
f 97/116/62 50/50/63 49/49/62
f 98/117/64 68/72/64 97/118/65
f 99/119/66 46/46/66 42/42/66
f 37/37/67 69/74/67 99/120/67
f 27/27/68 92/121/68 29/29/68
f 100/122/69 93/109/69 92/108/69
f 101/123/70 45/45/71 44/44/72
f 102/124/73 86/98/74 101/125/73
f 34/34/75 87/126/76 41/41/76
f 103/127/77 45/45/78 87/100/79
f 14/14/80 84/128/81 13/13/81
f 104/129/82 83/94/83 84/96/83
f 105/130/84 40/40/85 39/39/86
f 105/131/87 47/47/88 77/85/88
f 31/31/89 78/132/90 33/33/90
f 106/133/91 40/40/92 78/87/92
f 107/134/93 66/70/94 10/10/95
f 54/54/96 64/67/97 107/135/98
f 46/46/99 94/110/52 30/30/54
f 70/136/100 17/17/101 94/111/101
f 51/51/102 108/137/103 109/138/104
f 60/60/105 108/139/106 59/140/105
f 66/70/107 96/114/58 11/11/60
f 65/141/108 23/23/109 96/115/108
f 110/142/63 49/49/62 3/3/63
f 22/22/110 97/118/65 110/143/110
f 85/102/111 42/42/112 41/41/111
f 35/35/113 99/120/114 85/97/113
f 28/28/115 100/144/115 27/27/115
f 72/145/116 21/21/117 100/122/116
f 111/146/118 44/44/72 6/6/118
f 20/20/119 101/125/73 111/147/73
f 79/89/120 34/34/75 33/33/120
f 47/47/121 103/127/121 79/148/121
f 90/104/122 14/14/80 29/29/123
f 5/5/124 104/129/125 90/105/124
f 9/9/126 105/130/84 39/39/86
f 18/18/127 105/131/87 112/149/128
f 57/57/129 106/150/130 31/31/89
f 56/151/131 38/38/132 106/133/91
f 81/91/133 10/10/95 13/13/133
f 8/8/134 107/135/98 81/152/135
f 17/17/6 113/153/6 60/60/6
f 83/94/136 112/149/136 82/154/136
f 8/8/137 112/155/137 9/9/137
f 93/109/138 111/147/73 91/107/139
f 91/106/71 6/6/118 5/5/140
f 75/81/64 110/143/110 74/156/141
f 74/80/63 3/3/63 2/2/63
f 108/139/106 26/26/142 95/113/143
f 108/137/103 53/53/144 109/138/104
f 109/138/4 7/7/4 52/52/4
f 16/16/6 26/26/6 113/153/6
f 98/117/6 24/24/6 16/16/6
f 102/124/7 1/1/1 36/36/1
f 114/157/3 4/4/3 48/48/3
f 52/52/4 9/9/4 39/39/4
f 48/48/3 6/6/3 44/44/3
f 36/36/1 3/3/2 49/49/2
f 1/1/1 21/21/1 2/2/2
f 4/4/3 19/19/3 5/5/3
f 7/7/4 54/54/4 8/8/4
f 10/10/5 66/70/5 11/11/5
f 13/13/5 10/10/5 12/12/5
f 15/15/6 98/117/6 16/16/6
f 18/18/3 83/94/3 19/19/3
f 20/20/7 93/109/7 21/21/1
f 22/22/6 75/81/6 23/23/6
f 24/24/6 23/23/6 25/25/6
f 27/27/5 12/12/5 11/11/5
f 29/29/5 14/14/5 12/12/5
f 30/30/8 57/57/8 31/31/8
f 32/32/8 31/31/8 33/33/8
f 35/35/7 102/124/7 36/36/1
f 38/38/4 52/52/4 39/39/4
f 32/32/8 34/34/8 41/41/8
f 43/43/3 48/48/3 44/44/3
f 30/30/8 32/32/8 42/42/8
f 47/47/3 114/157/3 48/48/3
f 37/37/1 36/36/1 49/49/2
f 51/51/4 109/138/4 52/52/4
f 53/53/4 63/65/4 54/54/4
f 55/55/9 58/158/145 56/56/9
f 51/51/10 56/151/10 58/58/10
f 60/60/11 59/140/12 58/61/12
f 25/25/14 65/141/14 61/63/14
f 63/65/15 62/159/146 61/66/15
f 64/68/16 61/160/147 65/69/16
f 15/15/17 70/136/17 67/71/17
f 50/50/19 68/161/19 67/73/20
f 69/75/21 67/162/21 70/76/21
f 71/77/22 73/163/22 72/78/23
f 2/2/24 72/145/25 73/79/25
f 75/81/26 74/156/26 73/82/26
f 47/47/27 79/148/28 76/84/28
f 40/40/30 77/164/148 76/86/31
f 33/33/33 78/132/149 76/88/34
f 13/13/36 84/128/150 80/90/36
f 8/8/38 81/152/38 80/92/38
f 83/94/39 82/154/39 80/95/39
f 85/97/40 88/165/151 86/98/41
f 86/99/42 88/166/42 87/100/42
f 41/41/44 87/126/152 88/101/45
f 29/29/46 92/121/46 89/103/47
f 90/105/48 89/167/48 91/106/48
f 91/107/50 89/168/51 92/108/51
f 94/110/52 55/55/53 57/57/53
f 17/17/55 60/60/55 55/62/55
f 95/112/56 62/159/153 63/65/56
f 95/113/57 26/26/57 25/25/57
f 96/114/58 71/77/59 28/28/59
f 23/23/61 75/81/154 71/83/61
f 97/116/62 68/161/62 50/50/63
f 98/117/64 15/15/64 68/72/64
f 99/119/66 69/75/66 46/46/66
f 37/37/67 50/50/67 69/74/67
f 27/27/68 100/144/68 92/121/68
f 100/122/69 21/21/69 93/109/69
f 101/123/70 86/99/71 45/45/71
f 102/124/73 35/35/155 86/98/74
f 34/34/75 103/169/156 87/126/76
f 103/127/77 43/43/157 45/45/78
f 14/14/80 104/170/158 84/128/81
f 104/129/82 19/19/83 83/94/83
f 105/130/84 77/164/85 40/40/85
f 105/131/87 114/157/159 47/47/88
f 31/31/89 106/150/130 78/132/90
f 106/133/91 38/38/132 40/40/92
f 107/134/93 64/68/94 66/70/94
f 54/54/96 63/65/97 64/67/97
f 46/46/99 70/76/99 94/110/52
f 70/136/100 15/15/101 17/17/101
f 51/51/102 59/59/160 108/137/103
f 60/60/105 113/153/161 108/139/106
f 66/70/107 65/69/162 96/114/58
f 65/141/108 25/25/163 23/23/109
f 110/142/63 97/116/62 49/49/62
f 22/22/110 98/117/64 97/118/65
f 85/102/111 99/119/111 42/42/112
f 35/35/113 37/37/114 99/120/114
f 28/28/115 72/78/164 100/144/115
f 72/145/116 2/2/116 21/21/117
f 111/146/118 101/123/70 44/44/72
f 20/20/119 102/124/73 101/125/73
f 79/89/120 103/169/156 34/34/75
f 47/47/121 43/43/165 103/127/121
f 90/104/122 104/170/158 14/14/80
f 5/5/124 19/19/125 104/129/125
f 9/9/126 112/155/166 105/130/84
f 18/18/127 114/157/159 105/131/87
f 57/57/129 56/56/167 106/150/130
f 56/151/131 51/51/131 38/38/132
f 81/91/133 107/134/93 10/10/95
f 8/8/134 54/54/96 107/135/98
f 17/17/6 16/16/6 113/153/6
f 83/94/136 18/18/168 112/149/136
f 8/8/137 82/93/169 112/155/137
f 93/109/138 20/20/119 111/147/73
f 91/106/71 111/146/118 6/6/118
f 75/81/64 22/22/110 110/143/110
f 74/80/63 110/142/63 3/3/63
f 108/139/106 113/153/161 26/26/142
f 108/137/103 95/112/144 53/53/144
f 109/138/4 53/53/4 7/7/4
f 16/16/6 24/24/6 26/26/6
f 98/117/6 22/22/6 24/24/6
f 102/124/7 20/20/7 1/1/1
f 114/157/3 18/18/3 4/4/3
f 52/52/4 7/7/4 9/9/4
f 48/48/3 4/4/3 6/6/3
f 36/36/1 1/1/1 3/3/2