# Blender v3.0.1 OBJ File: 'anno.blend'
# www.blender.org
mtllib 01.mtl
o model.004_model.019
v 0.422117 0.675387 0.422116
v 0.422117 0.675387 -0.422117
v -0.422116 0.675387 0.422116
v -0.422116 0.675387 -0.422117
v 0.422117 0.675387 -0.422117
v -0.422116 0.675387 0.422116
v -0.422116 0.675387 -0.422117
v 0.422117 0.675387 0.422116
v -0.492469 0.717598 -0.492470
v -0.492469 0.675387 0.492469
v -0.492469 0.717598 0.492469
v -0.492469 0.675387 -0.492470
v -0.492469 0.675387 -0.492470
v -0.464328 0.675387 -0.464328
v -0.492469 0.675387 0.492469
v 0.492470 0.675387 -0.492470
v -0.422116 0.675387 -0.464328
v 0.422117 0.675387 -0.464328
v 0.464329 0.675387 -0.464328
v 0.464329 0.675387 -0.422117
v 0.464329 0.675387 0.422116
v 0.464329 0.675387 0.464328
v -0.464328 0.675387 0.464328
v 0.492470 0.675387 0.492469
v -0.464328 0.675387 -0.422117
v -0.464328 0.675387 0.422116
v -0.422116 0.675387 0.464328
v 0.422117 0.675387 0.464328
v 0.492470 0.675387 -0.492470
v 0.492470 0.717598 0.492469
v 0.492470 0.675387 0.492469
v 0.492470 0.717598 -0.492470
v -0.492469 0.675387 -0.492470
v -0.492469 0.717598 -0.492470
v -0.492469 0.675387 0.492469
v -0.492469 0.717598 0.492469
v 0.492470 0.675387 -0.492470
v 0.464329 0.675387 0.464328
v 0.492470 0.675387 0.492469
v 0.422117 0.675387 0.464328
v -0.422116 0.675387 0.464328
v -0.464328 0.675387 0.464328
v -0.464328 0.675387 0.422116
v -0.464328 0.675387 -0.422117
v -0.464328 0.675387 -0.464328
v -0.492469 0.675387 0.492469
v 0.464329 0.675387 0.422116
v 0.464329 0.675387 -0.422117
v 0.464329 0.675387 -0.464328
v 0.422117 0.675387 -0.464328
v -0.422116 0.675387 -0.464328
v -0.492469 0.675387 -0.492470
v 0.492470 0.717598 -0.492470
v 0.492470 0.675387 -0.492470
v 0.492470 0.717598 0.492469
v 0.492470 0.675387 0.492469
v 0.492470 0.717598 0.492469
v -0.492469 0.675387 0.492469
v 0.492470 0.675387 0.492469
v -0.492469 0.717598 0.492469
v 0.492470 0.717598 0.492469
v -0.492469 0.717598 -0.492470
v -0.492469 0.717598 0.492469
v 0.492470 0.717598 -0.492470
v -0.492469 0.717598 -0.492470
v 0.492470 0.675387 -0.492470
v -0.492469 0.675387 -0.492470
v 0.492470 0.717598 -0.492470
v -0.492469 0.717598 0.492469
v 0.492470 0.717598 0.492469
v -0.492469 0.675387 0.492469
v 0.492470 0.675387 0.492469
v 0.492470 0.717598 -0.492470
v 0.492470 0.717598 0.492469
v -0.492469 0.717598 -0.492470
v -0.492469 0.717598 0.492469
v 0.492470 0.717598 -0.492470
v -0.492469 0.717598 -0.492470
v 0.492470 0.675387 -0.492470
v -0.492469 0.675387 -0.492470
vt 0.000000 0.000000
vt 0.000000 0.000000
vt 0.000000 0.000000
vt 0.000000 0.000000
vt -0.213255 0.533136
vt -0.016404 0.041010
vt -0.016404 0.533136
vt -0.213255 0.041010
vt -0.229659 0.836614
vt -0.000000 0.812008
vt -0.000000 0.836614
vt -0.229659 0.812008
vt 0.000000 0.574147
vt -0.006562 0.557743
vt 0.000000 0.000000
vt -0.229659 0.574147
vt -0.016404 0.557743
vt -0.213255 0.557743
vt -0.223097 0.557743
vt -0.223097 0.533136
vt -0.223097 0.041010
vt -0.223097 0.016404
vt -0.006562 0.016404
vt -0.229659 0.000000
vt -0.006562 0.533136
vt -0.006562 0.041010
vt -0.016404 0.016404
vt -0.213255 0.016404
vt 0.229659 0.812008
vt 0.000000 0.836614
vt 0.000000 0.812008
vt 0.229659 0.836614
vt 0.000000 0.000000
vt 0.000000 0.000000
vt 0.000000 0.000000
vt 0.000000 0.000000
vt 0.000000 0.000000
vt 0.000000 0.000000
vt 0.000000 0.000000
vt 0.000000 0.000000
vt 0.000000 0.000000
vt 0.000000 0.000000
vt 0.000000 0.000000
vt 0.000000 0.000000
vt 0.000000 0.000000
vt 0.000000 0.000000
vt 0.000000 0.000000
vt 0.000000 0.000000
vt 0.000000 0.000000
vt 0.000000 0.000000
vt 0.000000 0.000000
vt 0.000000 0.000000
vt 0.000000 0.000000
vt 0.000000 0.000000
vt 0.000000 0.000000
vt 0.000000 0.000000
vt 0.229659 0.836614
vt -0.000000 0.812008
vt 0.229659 0.812008
vt -0.000000 0.836614
vt 0.229659 0.000000
vt 0.000000 0.574147
vt 0.000000 0.000000
vt 0.229659 0.574147
vt 0.000000 0.836614
vt -0.229659 0.812008
vt 0.000000 0.812008
vt -0.229659 0.836614
vt 0.000000 0.000000
vt 0.000000 0.000000
vt 0.000000 0.000000
vt 0.000000 0.000000
vt 0.000000 0.000000
vt 0.000000 0.000000
vt 0.000000 0.000000
vt 0.000000 0.000000
vt 0.000000 0.000000
vt 0.000000 0.000000
vt 0.000000 0.000000
vt 0.000000 0.000000
vn 0.0000 1.0000 0.0000
vn 0.0000 -1.0000 0.0000
vn -1.0000 0.0000 0.0000
vn 1.0000 0.0000 0.0000
vn 0.0000 1.0000 0.0001
vn 0.0000 0.0000 0.0000
vn 0.0000 0.0000 1.0000
vn 0.0000 0.0000 -1.0000
usemtl material_0.001
s 1
f 1/1/1 2/2/1 3/3/1
f 4/4/1 3/3/1 2/2/1
f 5/5/2 6/6/2 7/7/2
f 6/6/2 5/5/2 8/8/2
f 9/9/3 10/10/3 11/11/3
f 10/10/3 9/9/3 12/12/3
f 13/13/2 14/14/2 15/15/2
f 14/14/2 13/13/2 16/16/2
f 14/14/2 16/16/2 17/17/2
f 17/17/2 16/16/2 18/18/2
f 18/18/2 16/16/2 19/19/2
f 19/19/2 16/16/2 20/20/2
f 20/20/2 16/16/2 21/21/2
f 21/21/2 16/16/2 22/22/2
f 15/15/2 23/23/2 24/24/2
f 23/23/2 15/15/2 14/14/2
f 23/23/2 14/14/2 25/25/2
f 23/23/2 25/25/2 26/26/1
f 24/24/2 23/23/2 27/27/2
f 24/24/2 27/27/2 28/28/2
f 24/24/2 28/28/2 22/22/2
f 24/24/2 22/22/2 16/16/2
f 29/29/4 30/30/4 31/31/4
f 30/30/4 29/29/4 32/32/4
f 33/33/4 34/34/4 35/35/4
f 36/36/4 35/35/4 34/34/4
f 37/37/1 38/38/1 39/39/1
f 38/38/1 40/40/1 39/39/1
f 40/40/1 41/41/1 39/39/1
f 41/41/1 42/42/5 39/39/1
f 43/43/2 44/44/6 42/42/5
f 44/44/6 45/45/1 42/42/5
f 45/45/1 46/46/1 42/42/5
f 39/39/1 42/42/5 46/46/1
f 38/38/1 37/37/1 47/47/1
f 47/47/1 37/37/1 48/48/1
f 48/48/1 37/37/1 49/49/1
f 49/49/1 37/37/1 50/50/1
f 50/50/1 37/37/1 51/51/1
f 51/51/1 37/37/1 45/45/1
f 37/37/1 52/52/1 45/45/1
f 46/46/1 45/45/1 52/52/1
f 53/53/3 54/54/3 55/55/3
f 56/56/3 55/55/3 54/54/3
f 57/57/7 58/58/7 59/59/7
f 58/58/7 57/57/7 60/60/7
f 61/61/1 62/62/1 63/63/1
f 62/62/1 61/61/1 64/64/1
f 65/65/8 66/66/8 67/67/8
f 66/66/8 65/65/8 68/68/8
f 69/69/8 70/70/8 71/71/8
f 72/72/8 71/71/8 70/70/8
f 73/73/2 74/74/2 75/75/2
f 76/76/2 75/75/2 74/74/2
f 77/77/7 78/78/7 79/79/7
f 80/80/7 79/79/7 78/78/7