# Blender v3.0.1 OBJ File: 'anno.blend'
# www.blender.org
mtllib 02.mtl
o model.005_model.020
v -0.014070 -0.365834 -0.422117
v 0.028141 -0.365834 -0.422117
v -0.014070 -0.365834 0.422116
v 0.028141 -0.365834 0.422116
v -0.014070 -0.365834 -0.422117
v -0.014070 -0.464328 0.422116
v -0.014070 -0.365834 0.422116
v -0.014070 -0.464328 -0.422117
v 0.028141 -0.464328 -0.422117
v 0.028141 -0.365834 0.422116
v 0.028141 -0.464328 0.422116
v 0.028141 -0.365834 -0.422117
v 0.028141 -0.464328 -0.422117
v -0.014070 -0.464328 0.422116
v -0.014070 -0.464328 -0.422117
v 0.028141 -0.464328 0.422116
v 0.028141 -0.365834 -0.422117
v -0.014070 -0.365834 -0.422117
v 0.028141 -0.365834 0.422116
v -0.014070 -0.365834 0.422116
v -0.014070 -0.464328 -0.422117
v -0.014070 -0.365834 -0.422117
v -0.014070 -0.464328 0.422116
v -0.014070 -0.365834 0.422116
v 0.028141 -0.365834 -0.422117
v 0.028141 -0.464328 -0.422117
v 0.028141 -0.365834 0.422116
v 0.028141 -0.464328 0.422116
v 0.028141 -0.464328 0.422116
v 0.028141 -0.464328 -0.422117
v -0.014070 -0.464328 0.422116
v -0.014070 -0.464328 -0.422117
vt 0.111549 0.041010
vt 0.121391 0.533136
vt 0.111549 0.533136
vt 0.121391 0.041010
vt -0.213255 0.205052
vt -0.016404 0.147638
vt -0.016404 0.205052
vt -0.213255 0.147638
vt 0.213255 0.147638
vt 0.016404 0.205052
vt 0.016404 0.147638
vt 0.213255 0.205052
vt -0.121391 0.533136
vt -0.111549 0.041010
vt -0.111549 0.533136
vt -0.121391 0.041010
vt 0.000000 0.000000
vt 0.000000 0.000000
vt 0.000000 0.000000
vt 0.000000 0.000000
vt 0.000000 0.000000
vt 0.000000 0.000000
vt 0.000000 0.000000
vt 0.000000 0.000000
vt 0.000000 0.000000
vt 0.000000 0.000000
vt 0.000000 0.000000
vt 0.000000 0.000000
vt 0.000000 0.000000
vt 0.000000 0.000000
vt 0.000000 0.000000
vt 0.000000 0.000000
vn 0.0000 1.0000 0.0000
vn -1.0000 0.0000 0.0000
vn 1.0000 0.0000 0.0000
vn 0.0000 -1.0000 0.0000
usemtl material_0.001
s 1
f 3/1/1 2/2/1 1/3/1
f 2/2/1 3/1/1 4/4/1
f 5/5/2 6/6/2 7/7/2
f 6/6/2 5/5/2 8/8/2
f 9/9/3 10/10/3 11/11/3
f 10/10/3 9/9/3 12/12/3
f 13/13/4 14/14/4 15/15/4
f 14/14/4 13/13/4 16/16/4
f 19/17/4 20/18/4 17/19/4
f 18/20/4 17/19/4 20/18/4
f 21/21/3 22/22/3 23/23/3
f 24/24/3 23/23/3 22/22/3
f 25/25/2 26/26/2 27/27/2
f 28/28/2 27/27/2 26/26/2
f 29/29/1 30/30/1 31/31/1
f 32/32/1 31/31/1 30/30/1