# Blender v3.0.1 OBJ File: 'anno.blend'
# www.blender.org
mtllib 03.mtl
o model.007_model.022
v -0.014070 -0.365834 -0.422117
v -0.422116 -0.464328 -0.422117
v -0.014070 -0.464328 -0.422117
v -0.422116 -0.365834 -0.422117
v 0.422117 -0.365834 -0.422117
v 0.028141 -0.464328 -0.422117
v 0.422117 -0.464328 -0.422117
v 0.028141 -0.365834 -0.422117
v -0.422116 -0.365834 -0.422117
v -0.014070 -0.365834 -0.422117
v -0.422116 -0.464328 -0.422117
v -0.014070 -0.464328 -0.422117
v 0.028141 -0.365834 -0.422117
v 0.422117 -0.365834 -0.422117
v 0.028141 -0.464328 -0.422117
v 0.422117 -0.464328 -0.422117
v -0.014070 -0.365834 -0.422117
v -0.422116 -0.365834 -0.464328
v -0.422116 -0.365834 -0.422117
v 0.422117 -0.365834 -0.464328
v 0.028141 -0.365834 -0.422117
v 0.422117 -0.365834 -0.422117
v -0.422116 -0.365834 -0.464328
v 0.422117 -0.464328 -0.464328
v -0.422116 -0.464328 -0.464328
v 0.422117 -0.365834 -0.464328
v 0.028141 -0.464328 -0.422117
v -0.014070 -0.365834 -0.422117
v -0.014070 -0.464328 -0.422117
v 0.028141 -0.365834 -0.422117
v 0.422117 -0.464328 -0.464328
v -0.422116 -0.464328 -0.422117
v -0.422116 -0.464328 -0.464328
v -0.014070 -0.464328 -0.422117
v 0.028141 -0.464328 -0.422117
v 0.422117 -0.464328 -0.422117
v 0.422117 -0.365834 -0.422117
v 0.028141 -0.365834 -0.422117
v 0.422117 -0.365834 -0.464328
v -0.014070 -0.365834 -0.422117
v -0.422116 -0.365834 -0.464328
v -0.422116 -0.365834 -0.422117
v 0.422117 -0.365834 -0.464328
v -0.422116 -0.365834 -0.464328
v 0.422117 -0.464328 -0.464328
v -0.422116 -0.464328 -0.464328
v 0.028141 -0.365834 -0.422117
v 0.028141 -0.464328 -0.422117
v -0.014070 -0.365834 -0.422117
v -0.014070 -0.464328 -0.422117
v 0.422117 -0.464328 -0.422117
v 0.422117 -0.464328 -0.464328
v 0.028141 -0.464328 -0.422117
v -0.014070 -0.464328 -0.422117
v -0.422116 -0.464328 -0.422117
v -0.422116 -0.464328 -0.464328
vt 0.111549 0.205052
vt 0.016404 0.147638
vt 0.111549 0.147638
vt 0.016404 0.205052
vt 0.213255 0.205052
vt 0.121391 0.147638
vt 0.213255 0.147638
vt 0.121391 0.205052
vt 0.000000 0.000000
vt 0.000000 0.000000
vt 0.000000 0.000000
vt 0.000000 0.000000
vt 0.000000 0.000000
vt 0.000000 0.000000
vt 0.000000 0.000000
vt 0.000000 0.000000
vt 0.111549 0.533136
vt 0.016404 0.557743
vt 0.016404 0.533136
vt 0.213255 0.557743
vt 0.121391 0.533136
vt 0.213255 0.533136
vt -0.016404 0.205052
vt -0.213255 0.147638
vt -0.016404 0.147638
vt -0.213255 0.205052
vt 0.121391 0.147638
vt 0.111549 0.205052
vt 0.111549 0.147638
vt 0.121391 0.205052
vt -0.213255 0.557743
vt -0.016404 0.533136
vt -0.016404 0.557743
vt -0.111549 0.533136
vt -0.121391 0.533136
vt -0.213255 0.533136
vt 0.000000 0.000000
vt 0.000000 0.000000
vt 0.000000 0.000000
vt 0.000000 0.000000
vt 0.000000 0.000000
vt 0.000000 0.000000
vt 0.000000 0.000000
vt 0.000000 0.000000
vt 0.000000 0.000000
vt 0.000000 0.000000
vt 0.000000 0.000000
vt 0.000000 0.000000
vt 0.000000 0.000000
vt 0.000000 0.000000
vt 0.000000 0.000000
vt 0.000000 0.000000
vt 0.000000 0.000000
vt 0.000000 0.000000
vt 0.000000 0.000000
vt 0.000000 0.000000
vn 0.0000 0.0000 1.0000
vn 0.0000 0.0000 -1.0000
vn 0.0000 1.0000 0.0000
vn 0.0000 -1.0000 -0.0000
usemtl material_0.001
s 1
f 1/1/1 2/2/1 3/3/1
f 2/2/1 1/1/1 4/4/1
f 5/5/1 6/6/1 7/7/1
f 6/6/1 5/5/1 8/8/1
f 9/9/2 10/10/2 11/11/2
f 12/12/2 11/11/2 10/10/2
f 13/13/2 14/14/2 15/15/2
f 16/16/2 15/15/2 14/14/2
f 17/17/3 18/18/3 19/19/3
f 18/18/3 17/17/3 20/20/3
f 20/20/3 17/17/3 21/21/3
f 20/20/3 21/21/3 22/22/3
f 23/23/2 24/24/2 25/25/2
f 24/24/2 23/23/2 26/26/2
f 27/27/1 28/28/1 29/29/1
f 28/28/1 27/27/1 30/30/1
f 31/31/4 32/32/4 33/33/4
f 32/32/4 31/31/4 34/34/4
f 34/34/4 31/31/4 35/35/4
f 35/35/4 31/31/4 36/36/4
f 37/37/4 38/38/4 39/39/4
f 38/38/4 40/40/4 39/39/4
f 39/39/4 40/40/4 41/41/4
f 42/42/4 41/41/4 40/40/4
f 43/43/1 44/44/1 45/45/1
f 46/46/1 45/45/1 44/44/1
f 47/47/2 48/48/2 49/49/2
f 50/50/2 49/49/2 48/48/2
f 51/51/3 52/52/3 53/53/3
f 53/53/3 52/52/3 54/54/3
f 54/54/3 52/52/3 55/55/3
f 56/56/3 55/55/3 52/52/3