# Blender v3.0.1 OBJ File: 'anno.blend'
# www.blender.org
mtllib 06.mtl
o model.010_model.026
v -0.422116 -0.365834 -0.464328
v -0.422116 -0.464328 -0.422117
v -0.422116 -0.365834 -0.422117
v -0.422116 -0.464328 -0.464328
v -0.422116 -0.365834 -0.464328
v -0.422116 0.576893 -0.422117
v -0.422116 -0.365834 -0.422117
v -0.422116 0.576893 -0.464328
v -0.464328 0.675387 -0.464328
v -0.422116 -0.717598 -0.464328
v -0.464328 -0.717598 -0.464328
v -0.422116 -0.464328 -0.464328
v -0.422116 -0.365834 -0.464328
v -0.422116 0.576893 -0.464328
v -0.422116 0.675387 -0.464328
v -0.422116 -0.464328 -0.464328
v -0.422116 -0.365834 -0.422117
v -0.422116 -0.464328 -0.422117
v -0.422116 -0.365834 -0.464328
v -0.422116 -0.464328 -0.422117
v -0.464328 -0.717598 -0.422117
v -0.422116 -0.717598 -0.422117
v -0.464328 0.576893 -0.422117
v -0.422116 -0.365834 -0.422117
v -0.422116 0.576893 -0.422117
v -0.422116 -0.717598 -0.464328
v -0.422116 -0.464328 -0.422117
v -0.422116 -0.717598 -0.422117
v -0.422116 -0.464328 -0.464328
v -0.422116 -0.717598 -0.464328
v -0.464328 -0.717598 -0.422117
v -0.464328 -0.717598 -0.464328
v -0.422116 -0.717598 -0.422117
v -0.464328 0.675387 -0.464328
v -0.464328 0.576893 -0.422117
v -0.464328 0.675387 -0.422117
v -0.464328 -0.717598 -0.422117
v -0.464328 -0.717598 -0.464328
v -0.422116 -0.464328 -0.464328
v -0.422116 -0.365834 -0.464328
v -0.422116 -0.464328 -0.422117
v -0.422116 -0.365834 -0.422117
v -0.422116 0.576893 -0.464328
v -0.422116 -0.365834 -0.464328
v -0.422116 0.576893 -0.422117
v -0.422116 -0.365834 -0.422117
v -0.422116 0.675387 -0.464328
v -0.464328 0.675387 -0.464328
v -0.422116 0.576893 -0.464328
v -0.422116 -0.365834 -0.464328
v -0.422116 -0.464328 -0.464328
v -0.422116 -0.717598 -0.464328
v -0.464328 -0.717598 -0.464328
v -0.422116 -0.365834 -0.464328
v -0.422116 -0.464328 -0.464328
v -0.422116 -0.365834 -0.422117
v -0.422116 -0.464328 -0.422117
v -0.422116 0.576893 -0.422117
v -0.422116 -0.365834 -0.422117
v -0.464328 0.576893 -0.422117
v -0.422116 -0.464328 -0.422117
v -0.464328 -0.717598 -0.422117
v -0.422116 -0.717598 -0.422117
v -0.422116 -0.464328 -0.464328
v -0.422116 -0.717598 -0.464328
v -0.422116 -0.464328 -0.422117
v -0.422116 -0.717598 -0.422117
v -0.422116 -0.717598 -0.422117
v -0.422116 -0.717598 -0.464328
v -0.464328 -0.717598 -0.422117
v -0.464328 -0.717598 -0.464328
v -0.464328 -0.717598 -0.464328
v -0.464328 0.675387 -0.464328
v -0.464328 -0.717598 -0.422117
v -0.464328 0.576893 -0.422117
v -0.464328 0.675387 -0.422117
vt -0.223097 0.205052
vt -0.213255 0.147638
vt -0.213255 0.205052
vt -0.223097 0.147638
vt 0.223097 0.205052
vt 0.213255 0.754593
vt 0.213255 0.205052
vt 0.223097 0.754593
vt -0.006562 0.812008
vt -0.016404 -0.000000
vt -0.006562 -0.000000
vt -0.016404 0.147638
vt -0.016404 0.205052
vt -0.016404 0.754593
vt -0.016404 0.812008
vt 0.223097 0.147638
vt 0.213255 0.205052
vt 0.213255 0.147638
vt 0.223097 0.205052
vt 0.016404 0.147638
vt 0.006562 0.000000
vt 0.016404 0.000000
vt 0.006562 0.754593
vt 0.016404 0.205052
vt 0.016404 0.754593
vt 0.223097 0.000000
vt 0.213255 0.147638
vt 0.213255 0.000000
vt 0.223097 0.147638
vt -0.016404 0.557743
vt -0.006562 0.533136
vt -0.006562 0.557743
vt -0.016404 0.533136
vt -0.223097 0.812008
vt -0.213255 0.754593
vt -0.213255 0.812008
vt -0.213255 0.000000
vt -0.223097 0.000000
vt 0.000000 0.000000
vt 0.000000 0.000000
vt 0.000000 0.000000
vt 0.000000 0.000000
vt 0.000000 0.000000
vt 0.000000 0.000000
vt 0.000000 0.000000
vt 0.000000 0.000000
vt 0.000000 0.000000
vt 0.000000 0.000000
vt 0.000000 0.000000
vt 0.000000 0.000000
vt 0.000000 0.000000
vt 0.000000 0.000000
vt 0.000000 0.000000
vt 0.000000 0.000000
vt 0.000000 0.000000
vt 0.000000 0.000000
vt 0.000000 0.000000
vt 0.000000 0.000000
vt 0.000000 0.000000
vt 0.000000 0.000000
vt 0.000000 0.000000
vt 0.000000 0.000000
vt 0.000000 0.000000
vt 0.000000 0.000000
vt 0.000000 0.000000
vt 0.000000 0.000000
vt 0.000000 0.000000
vt 0.000000 0.000000
vt 0.000000 0.000000
vt 0.000000 0.000000
vt 0.000000 0.000000
vt 0.000000 0.000000
vt 0.000000 0.000000
vt 0.000000 0.000000
vt 0.000000 0.000000
vt 0.000000 0.000000
vn -1.0000 0.0000 0.0000
vn 1.0000 0.0000 0.0000
vn -0.0000 0.0000 -1.0000
vn -0.0000 0.0000 1.0000
vn 0.0000 -1.0000 0.0000
vn 0.0000 1.0000 0.0000
usemtl material_0.001
s 1
f 1/1/1 2/2/1 3/3/1
f 2/2/1 1/1/1 4/4/1
f 5/5/2 6/6/2 7/7/2
f 6/6/2 5/5/2 8/8/2
f 9/9/3 10/10/3 11/11/3
f 10/10/3 9/9/3 12/12/3
f 12/12/3 9/9/3 13/13/3
f 13/13/3 9/9/3 14/14/3
f 14/14/3 9/9/3 15/15/3
f 16/16/2 17/17/2 18/18/2
f 17/17/2 16/16/2 19/19/2
f 20/20/4 21/21/4 22/22/4
f 21/21/4 20/20/4 23/23/4
f 23/23/4 20/20/4 24/24/4
f 23/23/4 24/24/4 25/25/4
f 26/26/2 27/27/2 28/28/2
f 27/27/2 26/26/2 29/29/2
f 30/30/5 31/31/5 32/32/5
f 31/31/5 30/30/5 33/33/5
f 34/34/1 35/35/1 36/36/1
f 35/35/1 34/34/1 37/37/1
f 37/37/1 34/34/1 38/38/1
f 39/39/2 40/40/2 41/41/2
f 42/42/2 41/41/2 40/40/2
f 43/43/1 44/44/1 45/45/1
f 46/46/1 45/45/1 44/44/1
f 47/47/4 48/48/4 49/49/4
f 49/49/4 48/48/4 50/50/4
f 50/50/4 48/48/4 51/51/4
f 51/51/4 48/48/4 52/52/4
f 53/53/4 52/52/4 48/48/4
f 54/54/1 55/55/1 56/56/1
f 57/57/1 56/56/1 55/55/1
f 58/58/3 59/59/3 60/60/3
f 59/59/3 61/61/3 60/60/3
f 60/60/3 61/61/3 62/62/3
f 63/63/3 62/62/3 61/61/3
f 64/64/1 65/65/1 66/66/1
f 67/67/1 66/66/1 65/65/1
f 68/68/6 69/69/6 70/70/6
f 71/71/6 70/70/6 69/69/6
f 72/72/2 73/73/2 74/74/2
f 74/74/2 73/73/2 75/75/2
f 76/76/2 75/75/2 73/73/2