# Blender v3.0.1 OBJ File: ''
# www.blender.org
mtllib 02.mtl
o model.007_model.019
v 0.304020 -0.554738 0.365728
v -0.303955 -0.553451 0.404956
v -0.303955 -0.554738 0.365728
v 0.304020 -0.553451 0.404956
v 0.304020 -0.551505 0.406778
v -0.303955 -0.553451 0.404956
v 0.304020 -0.553451 0.404956
v -0.303955 -0.551505 0.406778
v 0.304020 -0.488216 0.404701
v -0.303955 -0.551505 0.406778
v 0.304020 -0.551505 0.406778
v -0.303955 -0.488216 0.404701
v 0.304020 -0.488216 0.404701
v -0.303955 -0.486394 0.402755
v -0.303955 -0.488216 0.404701
v 0.304020 -0.486394 0.402755
v 0.304020 -0.486394 0.402755
v -0.303955 -0.487681 0.363528
v -0.303955 -0.486394 0.402755
v 0.304020 -0.487681 0.363528
v -0.303955 -0.487681 0.363528
v 0.304020 -0.554738 0.365728
v -0.303955 -0.554738 0.365728
v 0.304020 -0.487681 0.363528
v 0.304020 -0.553451 0.404956
v 0.304020 -0.554738 0.365728
v -0.303955 -0.553451 0.404956
v -0.303955 -0.554738 0.365728
v -0.303955 -0.551505 0.406778
v 0.304020 -0.551505 0.406778
v -0.303955 -0.553451 0.404956
v 0.304020 -0.553451 0.404956
v -0.303955 -0.488216 0.404701
v 0.304020 -0.488216 0.404701
v -0.303955 -0.551505 0.406778
v 0.304020 -0.551505 0.406778
v 0.304020 -0.486394 0.402755
v 0.304020 -0.488216 0.404701
v -0.303955 -0.486394 0.402755
v -0.303955 -0.488216 0.404701
v 0.304020 -0.487681 0.363528
v 0.304020 -0.486394 0.402755
v -0.303955 -0.487681 0.363528
v -0.303955 -0.486394 0.402755
v 0.304020 -0.487681 0.363528
v -0.303955 -0.487681 0.363528
v 0.304020 -0.554738 0.365728
v -0.303955 -0.554738 0.365728
v -0.303950 -0.470173 0.361256
v 0.304015 -0.487064 0.361802
v -0.303950 -0.487064 0.361802
v 0.304015 -0.470173 0.361256
v 0.304015 -0.468726 0.406013
v -0.303950 -0.470173 0.361256
v -0.303950 -0.468726 0.406013
v 0.304015 -0.470173 0.361256
v 0.304015 -0.487064 0.361802
v -0.303950 -0.485617 0.406559
v -0.303950 -0.487064 0.361802
v 0.304015 -0.485617 0.406559
v 0.304015 -0.468726 0.406013
v -0.303950 -0.485617 0.406559
v 0.304015 -0.485617 0.406559
v -0.303950 -0.468726 0.406013
v 0.304015 -0.470173 0.361256
v -0.303950 -0.470173 0.361256
v 0.304015 -0.487064 0.361802
v -0.303950 -0.487064 0.361802
v 0.304015 -0.470173 0.361256
v 0.304015 -0.468726 0.406013
v -0.303950 -0.470173 0.361256
v -0.303950 -0.468726 0.406013
v 0.304015 -0.485617 0.406559
v 0.304015 -0.487064 0.361802
v -0.303950 -0.485617 0.406559
v -0.303950 -0.487064 0.361802
v -0.303950 -0.468726 0.406013
v 0.304015 -0.468726 0.406013
v -0.303950 -0.485617 0.406559
v 0.304015 -0.485617 0.406559
vt -44.685081 -13.275220
vt -45.346970 -13.856850
vt -45.306839 -13.896990
vt -44.725220 -13.235090
vt -44.727951 -13.232360
vt -45.346970 -13.856850
vt -44.725220 -13.235090
vt -45.349701 -13.854130
vt -44.792709 -13.167600
vt -45.349701 -13.854130
vt -44.727951 -13.232360
vt -45.414459 -13.789370
vt -44.792709 -13.167600
vt -45.417191 -13.786640
vt -45.414459 -13.789370
vt -44.795429 -13.164880
vt -44.822250 -13.235090
vt -43.942951 -13.291850
vt -43.942951 -13.235090
vt -44.822250 -13.291850
vt -45.238220 -13.965600
vt -44.685081 -13.275220
vt -45.306839 -13.896990
vt -44.616470 -13.343840
vt 0.000000 0.000000
vt 0.000000 0.000000
vt 0.000000 0.000000
vt 0.000000 0.000000
vt 0.000000 0.000000
vt 0.000000 0.000000
vt 0.000000 0.000000
vt 0.000000 0.000000
vt 0.000000 0.000000
vt 0.000000 0.000000
vt 0.000000 0.000000
vt 0.000000 0.000000
vt 0.000000 0.000000
vt 0.000000 0.000000
vt 0.000000 0.000000
vt 0.000000 0.000000
vt 0.000000 0.000000
vt 0.000000 0.000000
vt 0.000000 0.000000
vt 0.000000 0.000000
vt 0.000000 0.000000
vt 0.000000 0.000000
vt 0.000000 0.000000
vt 0.000000 0.000000
vt -43.942982 -12.030840
vt -44.822262 -12.055280
vt -43.942982 -12.055280
vt -44.822262 -12.030840
vt -42.998920 -12.030830
vt -43.878208 -11.966070
vt -43.878208 -12.030840
vt -42.998920 -11.966070
vt -42.998920 -12.120040
vt -43.878208 -12.055280
vt -43.878201 -12.120050
vt -42.998920 -12.055270
vt -42.998920 -12.030830
vt -43.878208 -12.055280
vt -42.998920 -12.055270
vt -43.878208 -12.030840
vt 0.000000 0.000000
vt 0.000000 0.000000
vt 0.000000 0.000000
vt 0.000000 0.000000
vt 0.000000 0.000000
vt 0.000000 0.000000
vt 0.000000 0.000000
vt 0.000000 0.000000
vt 0.000000 0.000000
vt 0.000000 0.000000
vt 0.000000 0.000000
vt 0.000000 0.000000
vt 0.000000 0.000000
vt 0.000000 0.000000
vt 0.000000 0.000000
vt 0.000000 0.000000
vn 0.0000 -0.9995 0.0328
vn 0.0000 -0.6835 0.7300
vn 0.0000 0.0328 0.9995
vn 0.0000 0.7300 0.6835
vn 0.0000 0.9995 -0.0328
vn 0.0000 -0.0328 -0.9995
vn 0.0000 0.6835 -0.7300
vn 0.0000 -0.7300 -0.6835
vn 0.0000 -0.0323 -0.9995
vn 0.0000 0.9995 -0.0323
vn 0.0000 -0.9995 0.0323
vn 0.0000 0.0323 0.9995
usemtl material_0.101
s 1
f 1/1/1 2/2/1 3/3/1
f 2/2/1 1/1/1 4/4/1
f 5/5/2 6/6/2 7/7/2
f 6/6/2 5/5/2 8/8/2
f 9/9/3 10/10/3 11/11/3
f 10/10/3 9/9/3 12/12/3
f 13/13/4 14/14/4 15/15/4
f 14/14/4 13/13/4 16/16/4
f 17/17/5 18/18/5 19/19/5
f 18/18/5 17/17/5 20/20/5
f 21/21/6 22/22/6 23/23/6
f 22/22/6 21/21/6 24/24/6
f 25/25/5 26/26/5 27/27/5
f 28/28/5 27/27/5 26/26/5
f 29/29/7 30/30/7 31/31/7
f 32/32/7 31/31/7 30/30/7
f 33/33/6 34/34/6 35/35/6
f 36/36/6 35/35/6 34/34/6
f 37/37/8 38/38/8 39/39/8
f 40/40/8 39/39/8 38/38/8
f 41/41/1 42/42/1 43/43/1
f 44/44/1 43/43/1 42/42/1
f 45/45/3 46/46/3 47/47/3
f 48/48/3 47/47/3 46/46/3
f 49/49/9 50/50/9 51/51/9
f 50/50/9 49/49/9 52/52/9
f 53/53/10 54/54/10 55/55/10
f 54/54/10 53/53/10 56/56/10
f 57/57/11 58/58/11 59/59/11
f 58/58/11 57/57/11 60/60/11
f 61/61/12 62/62/12 63/63/12
f 62/62/12 61/61/12 64/64/12
f 65/65/12 66/66/12 67/67/12
f 68/68/12 67/67/12 66/66/12
f 69/69/11 70/70/11 71/71/11
f 72/72/11 71/71/11 70/70/11
f 73/73/10 74/74/10 75/75/10
f 76/76/10 75/75/10 74/74/10
f 77/77/9 78/78/9 79/79/9
f 80/80/9 79/79/9 78/78/9