# Blender v3.0.1 OBJ File: ''
# www.blender.org
mtllib 04.mtl
o model.003_model.023
v -0.303955 0.328377 0.379818
v 0.304020 0.328377 0.379818
v -0.303955 0.205871 0.384344
v 0.304020 0.205871 0.384344
v 0.304020 0.326996 0.342421
v -0.303955 0.326996 0.342421
v 0.304020 0.204490 0.346947
v -0.303955 0.204490 0.346947
v 0.304020 0.328377 0.379818
v -0.303955 0.326996 0.342421
v -0.303955 0.328377 0.379818
v 0.304020 0.326996 0.342421
v -0.303955 0.326996 0.342421
v 0.304020 0.204490 0.346947
v -0.303955 0.204490 0.346947
v 0.304020 0.326996 0.342421
v 0.304020 0.204490 0.346947
v -0.303955 0.205871 0.384344
v -0.303955 0.204490 0.346947
v 0.304020 0.205871 0.384344
v 0.304020 0.328377 0.379818
v -0.303955 0.205871 0.384344
v 0.304020 0.205871 0.384344
v -0.303955 0.328377 0.379818
v 0.304020 0.326996 0.342421
v 0.304020 0.328377 0.379818
v -0.303955 0.326996 0.342421
v -0.303955 0.328377 0.379818
v 0.304020 0.205871 0.384344
v 0.304020 0.204490 0.346947
v -0.303955 0.205871 0.384344
v -0.303955 0.204490 0.346947
vt 0.000000 0.000000
vt 0.000000 0.000000
vt 0.000000 0.000000
vt 0.000000 0.000000
vt 0.000000 0.000000
vt 0.000000 0.000000
vt 0.000000 0.000000
vt 0.000000 0.000000
vt -46.001099 -13.229600
vt -46.051590 -14.109120
vt -45.997471 -14.108900
vt -46.055222 -13.229830
vt -43.942970 -10.874350
vt -44.822269 -11.051650
vt -43.942970 -11.051650
vt -44.822269 -10.874350
vt -44.822269 -11.051650
vt -43.942970 -11.105770
vt -43.942970 -11.051650
vt -44.822269 -11.105770
vt -46.001099 -13.229600
vt -45.820171 -14.108160
vt -45.823799 -13.228870
vt -45.997471 -14.108900
vt 0.000000 0.000000
vt 0.000000 0.000000
vt 0.000000 0.000000
vt 0.000000 0.000000
vt 0.000000 0.000000
vt 0.000000 0.000000
vt 0.000000 0.000000
vt 0.000000 0.000000
vn 0.0000 -0.0369 -0.9993
vn 0.0000 0.0369 0.9993
vn 0.0000 0.9993 -0.0369
vn 0.0000 -0.9993 0.0369
usemtl material_0.097
s 1
f 1/1/1 2/2/1 3/3/1
f 4/4/1 3/3/1 2/2/1
f 5/5/2 6/6/2 7/7/2
f 8/8/2 7/7/2 6/6/2
f 9/9/3 10/10/3 11/11/3
f 10/10/3 9/9/3 12/12/3
f 13/13/1 14/14/1 15/15/1
f 14/14/1 13/13/1 16/16/1
f 17/17/4 18/18/4 19/19/4
f 18/18/4 17/17/4 20/20/4
f 21/21/2 22/22/2 23/23/2
f 22/22/2 21/21/2 24/24/2
f 25/25/4 26/26/4 27/27/4
f 28/28/4 27/27/4 26/26/4
f 29/29/3 30/30/3 31/31/3
f 32/32/3 31/31/3 30/30/3