# Blender v3.0.1 OBJ File: ''
# www.blender.org
mtllib 02.mtl
o model_normalized.001_model_normalized.041
v 0.282038 -0.186313 -0.479338
v -0.000015 -0.186313 -0.459886
v -0.000015 -0.186313 -0.479338
v 0.282038 -0.186313 -0.459886
v -0.000015 -0.108505 -0.479338
v 0.282038 -0.108505 -0.479338
v -0.000015 -0.108505 -0.459886
v 0.282038 -0.108505 -0.459886
vt 0.000000 0.750000
vt 7.250000 0.250000
vt 7.250000 0.750000
vt 0.000000 0.250000
vt 7.250000 18.058300
vt 0.000000 16.058300
vt 7.250000 16.058300
vt 0.000000 18.058300
vt -7.250000 0.250000
vt -0.000000 0.750000
vt -7.250000 0.750000
vt -0.000000 0.250000
vt 0.000000 18.058300
vt -7.250000 16.058300
vt 0.000000 16.058300
vt -7.250000 18.058300
vn 0.0000 -1.0000 0.0000
vn 0.0000 0.0000 -1.0000
vn 0.0000 1.0000 0.0000
vn 0.0000 0.0000 1.0000
usemtl FrontColor.006
s 1
f 1/1/1 2/2/1 3/3/1
f 2/2/1 1/1/1 4/4/1
f 5/5/2 1/6/2 3/7/2
f 1/6/2 5/5/2 6/8/2
f 7/9/3 6/10/3 5/11/3
f 6/10/3 7/9/3 8/12/3
f 8/13/4 2/14/4 4/15/4
f 2/14/4 8/13/4 7/16/4
o model_normalized.002_model_normalized.042
v -0.282068 -0.186313 -0.459886
v -0.282068 -0.186313 -0.479338
v -0.000015 -0.186313 -0.459886
v -0.282068 -0.108505 -0.459886
v -0.000015 -0.186313 -0.479338
v -0.000015 -0.108505 -0.459886
v -0.282068 -0.108505 -0.479338
v -0.000015 -0.108505 -0.479338
vt 0.000000 0.250000
vt 0.000000 0.750000
vt 7.250000 0.250000
vt 0.000000 16.058300
vt -7.250000 16.058300
vt 0.000000 18.058300
vt 7.250000 0.750000
vt -7.250000 18.058300
vt -0.000000 0.250000
vt -7.250000 0.250000
vt -0.000000 0.750000
vt -7.250000 0.750000
vt 0.000000 18.058300
vt 7.250000 18.058300
vt 0.000000 16.058300
vt 7.250000 16.058300
vn 0.0000 -1.0000 0.0000
vn 0.0000 0.0000 1.0000
vn 0.0000 1.0000 0.0000
vn 0.0000 0.0000 -1.0000
usemtl FrontColor.006
s 1
f 9/17/5 10/18/5 11/19/5
f 9/20/6 11/21/6 12/22/6
f 13/23/5 11/19/5 10/18/5
f 14/24/6 12/22/6 11/21/6
f 12/25/7 14/26/7 15/27/7
f 16/28/7 15/27/7 14/26/7
f 15/29/8 16/30/8 10/31/8
f 13/32/8 10/31/8 16/30/8