# Blender v3.0.1 OBJ File: ''
# www.blender.org
mtllib 04.mtl
o model_normalized.004_model_normalized.028
v 0.282038 -0.191063 0.112082
v 0.243134 -0.108505 0.112082
v 0.282038 -0.108505 0.112082
v 0.243134 -0.191063 0.112082
v 0.243134 -0.186313 0.134304
v 0.243134 0.574565 0.211469
v 0.243134 -0.108505 0.153756
v 0.243134 -0.108505 0.134304
v 0.243134 -0.186313 0.153756
v 0.243134 -0.188581 0.170438
v 0.243134 -0.815984 0.211520
v 0.243134 -0.811045 0.250109
v 0.282038 -0.188581 0.170438
v 0.282038 -0.110773 0.170438
v 0.243134 -0.110773 0.170438
v 0.243134 0.570044 0.250109
v 0.282038 0.570044 0.250109
v 0.282038 0.574565 0.211469
v 0.282038 -0.811045 0.250109
v 0.282038 -0.815984 0.211520
vt 0.000000 16.063200
vt 1.000000 18.185301
vt 0.000000 18.185301
vt 1.000000 16.063200
vt -3.547910 16.063200
vt -2.976690 16.185301
vt -3.547910 18.185301
vt 1.000000 35.227699
vt 0.000000 17.484900
vt 1.000000 17.484900
vt -2.476690 18.185301
vt -0.993222 35.743198
vt -2.976690 18.185301
vt -2.476690 16.185301
vt -2.047910 16.127001
vt -0.991908 0.000000
vt 0.000000 0.126959
vt -1.000000 0.125931
vt 0.000000 16.256500
vt -1.000000 16.256500
vt 0.000000 18.127001
vt -1.000000 16.127001
vt 0.000000 16.127001
vt -1.000000 18.127001
vt -2.047910 18.127001
vt 0.000000 35.626999
vt -1.000000 17.766100
vt 0.000000 35.385502
vt -1.000000 35.385502
vt 0.000000 17.766100
vt 0.000000 4.140930
vt -1.000000 5.140930
vt -1.000000 4.140930
vt 0.000000 5.140930
vt 2.047910 18.127001
vt 0.993222 35.743198
vt 0.000000 35.626999
vt 3.547910 18.185301
vt 0.000000 35.227699
vt 3.547910 16.063200
vt 2.047910 16.127001
vt 0.000000 0.125931
vt 0.991908 0.000000
vt 0.000000 0.126959
vt -1.000000 0.016119
vt 0.000000 -0.983882
vt 0.000000 0.016119
vt 1.000000 16.421200
vt 0.000000 0.155873
vt 1.000000 0.155873
vt -1.000000 -0.983882
vt 0.000000 16.421200
vn 0.0000 0.0000 -1.0000
vn -1.0000 -0.0000 0.0000
vn -1.0000 0.0001 0.0000
vn 0.0000 0.1440 -0.9896
vn -0.9813 -0.1925 0.0000
vn 0.0000 0.1270 0.9919
vn 0.0000 -0.0000 1.0000
vn 0.0000 -0.1162 0.9932
vn 0.0000 0.9932 0.1162
vn 1.0000 -0.0000 0.0000
vn 0.0000 -0.9919 0.1270
vn 0.0000 -0.1571 -0.9876
usemtl FrontColor.001
s 1
f 1/1/1 2/2/1 3/3/1
f 2/2/1 1/1/1 4/4/1
f 4/5/2 5/6/2 2/7/3
f 6/8/4 3/9/4 2/10/4
f 7/11/2 6/12/2 2/7/3
f 7/11/2 2/7/3 8/13/5
f 8/13/5 2/7/3 5/6/2
f 4/5/2 9/14/2 5/6/2
f 9/14/2 10/15/2 7/11/2
f 4/5/2 10/15/2 9/14/2
f 10/15/2 11/16/2 12/17/2
f 11/16/2 10/15/2 4/5/2
f 12/18/6 13/19/6 10/20/6
f 14/21/7 10/22/7 13/23/7
f 10/22/7 14/21/7 15/24/7
f 15/25/2 7/11/2 10/15/2
f 15/25/2 6/12/2 7/11/2
f 6/12/2 15/25/2 16/26/2
f 15/27/8 17/28/8 16/29/8
f 17/28/8 15/27/8 14/30/8
f 17/31/9 6/32/9 16/33/9
f 6/32/9 17/31/9 18/34/9
f 14/35/10 18/36/10 17/37/10
f 18/36/10 14/35/10 3/38/10
f 3/9/4 6/8/4 18/39/4
f 3/38/10 14/35/10 1/40/10
f 13/41/10 1/40/10 14/35/10
f 13/19/6 12/18/6 19/42/6
f 13/41/10 20/43/10 1/40/10
f 20/43/10 13/41/10 19/44/10
f 12/45/11 20/46/11 19/47/11
f 4/48/12 20/49/12 11/50/12
f 20/46/11 12/45/11 11/51/11
f 20/49/12 4/48/12 1/52/12
o model_normalized.016_model_normalized.040
v 0.252860 -0.186313 0.112082
v 0.272312 -0.108505 0.112082
v 0.252860 -0.108505 0.112082
v 0.291764 -0.108505 -0.450160
v 0.311216 -0.108505 -0.450160
v 0.311216 -0.186313 -0.450160
v 0.272312 -0.186313 0.112082
v 0.291764 -0.186313 -0.450160
v 0.282038 -0.108505 -0.450160
v 0.291764 -0.655429 -0.450160
v 0.311216 -0.655429 -0.450160
v 0.320942 -0.108505 -0.450160
v 0.272312 -0.655429 0.185972
v 0.252860 -0.655429 0.185972
v 0.291764 -0.694333 -0.450160
v 0.282038 -0.811044 -0.450160
v 0.311216 -0.694333 -0.450160
v 0.272312 -0.694333 0.192162
v 0.252860 -0.694333 0.192162
v 0.320942 -0.811044 -0.450160
v 0.320942 -0.811044 -0.489064
v 0.282038 -0.811044 -0.489064
v 0.282038 -0.108505 -0.489064
v 0.320942 -0.108505 -0.489064
v 0.282038 -0.186313 -0.459886
v 0.282038 -0.186313 -0.479338
v 0.282038 -0.108505 -0.479338
v 0.282038 -0.108505 -0.459886
vt -0.750000 16.058300
vt -0.250000 18.058300
vt -0.750000 18.058300
vt -0.250000 -14.452100
vt 0.250000 -0.000000
vt -0.750000 -14.452100
vt 0.750000 -0.000000
vt -14.434900 18.058300
vt 0.051772 16.058300
vt 0.051772 18.058300
vt -14.434900 16.058300
vt -0.250000 16.058300
vt 14.469400 18.058300
vt -0.017257 16.058300
vt 14.469400 16.058300
vt -0.250000 -0.000000
vt 0.250000 -14.452100
vt 0.750000 -14.452100
vt -0.750000 -0.000000
vt 0.000000 18.058300
vt 0.250000 16.058300
vt 0.250000 18.058300
vt -0.017257 18.058300
vt 0.250000 4.000000
vt 0.750000 16.058300
vt 0.750000 4.000000
vt 1.000000 18.058300
vt 0.250000 -0.000000
vt -0.250000 -16.351400
vt 0.750000 0.000000
vt -0.750000 -16.351400
vt -0.015261 3.000000
vt 16.366699 4.000000
vt -0.015261 4.000000
vt 0.250000 3.000000
vt 0.000000 0.000000
vt 0.750000 3.000000
vt 0.250000 -16.510500
vt -0.250000 -0.000000
vt -0.750000 0.000000
vt -0.015114 2.997460
vt 16.525700 2.997460
vt 16.366800 3.997510
vt 0.750000 -16.510500
vt -0.250000 1.380770
vt -0.750000 0.368191
vt -0.250000 0.368191
vt 0.045343 2.992660
vt -16.336599 3.992710
vt -16.495399 2.992660
vt -0.750000 1.380770
vt 1.000000 0.000000
vt 0.045782 4.000000
vt -16.336201 4.000000
vt 0.045782 3.000000
vt -1.000000 1.000000
vt -1.000000 0.000000
vt 1.000000 0.000000
vt 0.000000 18.058300
vt 0.000000 0.000000
vt 0.000000 1.000000
vt -1.000000 0.000000
vt 0.000000 18.058300
vt -1.000000 18.058300
vt 1.000000 18.058300
vt 0.000000 0.000000
vt -0.250000 16.058300
vt -1.000000 0.000000
vt -0.750000 16.058300
vt -1.000000 18.058300
vt -0.750000 18.058300
vt -0.000000 0.750000
vt -0.000000 1.000000
vt -0.000000 0.250000
vt -0.000000 -0.000000
vt -0.250000 18.058300
vt 1.000000 1.000000
vt 1.000000 -0.000000
vt 0.750000 18.058300
vn 0.0000 -0.0000 1.0000
vn 0.0000 1.0000 0.0000
vn 0.9976 -0.0000 0.0690
vn -0.9976 0.0000 -0.0690
vn 0.0000 -1.0000 -0.0000
vn -0.0001 -0.0000 1.0000
vn 0.0001 -0.0000 1.0000
vn -0.9981 -0.0069 -0.0606
vn -0.9981 -0.0027 -0.0609
vn -0.9981 0.0000 -0.0610
vn -0.9981 -0.0096 -0.0605
vn 0.0000 0.1571 0.9876
vn 0.9981 0.0069 0.0606
vn 0.9981 0.0027 0.0609
vn 0.9981 0.0096 0.0605
vn 0.9981 0.0000 0.0610
vn 1.0000 -0.0000 0.0000
vn 0.0000 0.0000 -1.0000
vn -1.0000 -0.0000 0.0000
usemtl FrontColor.001
s 1
f 21/53/13 22/54/13 23/55/13
f 22/56/14 24/57/14 23/58/14
f 24/57/14 22/56/14 25/59/14
f 22/60/15 26/61/15 25/62/15
f 26/61/15 22/60/15 27/63/15
f 22/54/13 21/53/13 27/64/13
f 23/65/16 28/66/16 21/67/16
f 28/68/17 27/69/17 21/70/17
f 27/69/17 28/68/17 26/71/17
f 29/72/13 28/73/13 24/74/13
f 28/66/16 23/65/16 24/75/16
f 28/73/13 30/76/18 26/77/13
f 29/72/13 30/76/18 28/73/13
f 31/78/19 32/79/13 30/76/18
f 30/76/18 32/79/13 26/77/13
f 30/80/14 33/81/14 31/82/14
f 33/81/14 30/80/14 34/83/14
f 35/84/20 34/85/21 30/86/22
f 29/72/13 35/87/13 30/76/18
f 35/87/13 36/88/13 37/89/13
f 36/88/13 35/87/13 29/72/13
f 38/90/17 35/91/17 37/92/17
f 35/93/20 39/94/23 34/95/21
f 35/91/17 38/90/17 39/96/17
f 33/97/24 39/98/24 38/99/24
f 37/100/25 33/101/26 38/102/27
f 39/98/24 33/97/24 34/103/24
f 40/104/13 37/89/13 36/88/13
f 37/89/13 40/104/13 32/79/13
f 31/105/28 33/106/26 37/107/25
f 37/89/13 32/79/13 31/78/19
f 36/88/17 41/108/17 40/109/17
f 41/110/29 32/111/29 40/112/29
f 41/108/17 36/88/17 42/113/17
f 41/114/30 43/115/30 44/116/30
f 32/111/29 41/110/29 44/117/29
f 43/115/30 41/114/30 42/118/30
f 36/88/31 45/119/31 42/120/31
f 42/120/31 46/121/31 43/122/31
f 42/120/31 45/119/31 46/121/31
f 43/122/31 46/121/31 47/123/31
f 47/124/14 24/57/14 43/125/14
f 48/126/14 24/57/14 47/124/14
f 24/57/14 48/126/14 29/127/14
f 48/128/31 36/88/31 29/72/31
f 36/88/31 48/128/31 45/119/31
f 43/125/14 24/57/14 44/129/14
f 44/129/14 24/57/14 25/59/14
f 44/129/14 25/59/14 32/130/14
f 26/77/13 32/79/13 25/131/13