# Blender v3.0.1 OBJ File: ''
# www.blender.org
mtllib 03.mtl
o model.001_model.005_model.001_model.010
v -0.306711 -0.494555 0.008959
v 0.127532 -0.494555 0.010887
v -0.315768 -0.494555 0.010887
v 0.117813 -0.494555 0.010230
v 0.108756 -0.494555 0.008301
v -0.298933 -0.494555 0.005891
v 0.100978 -0.494555 0.005233
v -0.292965 -0.494555 0.001893
v 0.095010 -0.494555 0.001235
v -0.289213 -0.494555 -0.002763
v 0.091258 -0.494555 -0.003421
v -0.287934 -0.494555 -0.007760
v 0.089979 -0.494555 -0.008418
v -0.289213 -0.494555 -0.012756
v 0.091258 -0.494555 -0.013414
v -0.292965 -0.494555 -0.017412
v 0.095010 -0.494555 -0.018070
v -0.298933 -0.494555 -0.021410
v 0.100978 -0.494555 -0.022068
v -0.306711 -0.494555 -0.024478
v 0.108756 -0.494555 -0.025136
v -0.315768 -0.494555 -0.026407
v 0.117813 -0.494555 -0.027065
v -0.325488 -0.494555 -0.027065
v -0.325488 -0.494555 -0.027065
v -0.315768 -0.494555 -0.026407
v 0.117813 -0.494555 -0.027065
v 0.108756 -0.494555 -0.025136
v -0.306711 -0.494555 -0.024478
v 0.100978 -0.494555 -0.022068
v -0.298933 -0.494555 -0.021410
v 0.095010 -0.494555 -0.018070
v -0.292965 -0.494555 -0.017412
v 0.091258 -0.494555 -0.013414
v -0.289213 -0.494555 -0.012756
v 0.089979 -0.494555 -0.008418
v -0.287934 -0.494555 -0.007760
v 0.091258 -0.494555 -0.003421
v -0.289213 -0.494555 -0.002763
v 0.095010 -0.494555 0.001235
v -0.292965 -0.494555 0.001893
v 0.100978 -0.494555 0.005233
v -0.298933 -0.494555 0.005891
v 0.108756 -0.494555 0.008301
v -0.306711 -0.494555 0.008959
v 0.117813 -0.494555 0.010230
v 0.127532 -0.494555 0.010887
v -0.315768 -0.494555 0.010887
v 0.117813 -0.430042 0.010230
v -0.315768 -0.430042 0.010887
v 0.127532 -0.430042 0.010887
v -0.306711 -0.430042 0.008959
v 0.108756 -0.430042 0.008301
v -0.298933 -0.430042 0.005891
v 0.100978 -0.430042 0.005233
v -0.292965 -0.430042 0.001893
v 0.095010 -0.430042 0.001235
v -0.289213 -0.430042 -0.002763
v 0.091258 -0.430042 -0.003421
v -0.287934 -0.430042 -0.007760
v 0.089979 -0.430042 -0.008418
v -0.289213 -0.430042 -0.012756
v 0.091258 -0.430042 -0.013414
v -0.292965 -0.430042 -0.017412
v 0.095010 -0.430042 -0.018070
v -0.298933 -0.430042 -0.021410
v 0.100978 -0.430042 -0.022068
v -0.306711 -0.430042 -0.024478
v 0.108756 -0.430042 -0.025136
v -0.315768 -0.430042 -0.026407
v 0.117813 -0.430042 -0.027065
v -0.325488 -0.430042 -0.027065
v -0.325488 -0.430042 -0.027065
v 0.117813 -0.430042 -0.027065
v -0.315768 -0.430042 -0.026407
v 0.108756 -0.430042 -0.025136
v -0.306711 -0.430042 -0.024478
v 0.100978 -0.430042 -0.022068
v -0.298933 -0.430042 -0.021410
v 0.095010 -0.430042 -0.018070
v -0.292965 -0.430042 -0.017412
v 0.091258 -0.430042 -0.013414
v -0.289213 -0.430042 -0.012756
v 0.089979 -0.430042 -0.008418
v -0.287934 -0.430042 -0.007760
v 0.091258 -0.430042 -0.003421
v -0.289213 -0.430042 -0.002763
v 0.095010 -0.430042 0.001235
v -0.292965 -0.430042 0.001893
v 0.100978 -0.430042 0.005233
v -0.298933 -0.430042 0.005891
v 0.108756 -0.430042 0.008301
v -0.306711 -0.430042 0.008959
v 0.117813 -0.430042 0.010230
v -0.315768 -0.430042 0.010887
v 0.127532 -0.430042 0.010887
v -0.315768 -0.430042 0.010887
v 0.127532 -0.494555 0.010887
v 0.127532 -0.430042 0.010887
v -0.315768 -0.494555 0.010887
v -0.315768 -0.494555 0.010887
v -0.315768 -0.430042 0.010887
v 0.127532 -0.494555 0.010887
v 0.127532 -0.430042 0.010887
v -0.325488 -0.494555 -0.027065
v 0.117813 -0.430042 -0.027065
v 0.117813 -0.494555 -0.027065
v -0.325488 -0.430042 -0.027065
v -0.325488 -0.430042 -0.027065
v -0.325488 -0.494555 -0.027065
v 0.117813 -0.430042 -0.027065
v 0.117813 -0.494555 -0.027065
vt -0.033355 0.695243
vt 0.000000 -0.023159
vt 0.000000 0.710227
vt -0.011377 -0.007079
vt -0.044732 0.007906
vt -0.086415 0.682376
vt -0.097792 0.020773
vt -0.155565 0.672503
vt -0.166942 0.030646
vt -0.236091 0.666296
vt -0.247468 0.036853
vt -0.322507 0.664179
vt -0.333884 0.038970
vt -0.408922 0.666296
vt -0.420299 0.036853
vt -0.489449 0.672503
vt -0.500825 0.030646
vt -0.558598 0.682376
vt -0.569975 0.020773
vt -0.611659 0.695243
vt -0.623035 0.007906
vt -0.645014 0.710227
vt -0.656390 -0.007079
vt -0.656390 0.726307
vt -0.656390 0.726307
vt -0.645014 0.710227
vt -0.656390 -0.007079
vt -0.623035 0.007906
vt -0.611659 0.695243
vt -0.569975 0.020773
vt -0.558598 0.682376
vt -0.500825 0.030646
vt -0.489449 0.672503
vt -0.420299 0.036853
vt -0.408922 0.666296
vt -0.333884 0.038970
vt -0.322507 0.664179
vt -0.247468 0.036853
vt -0.236091 0.666296
vt -0.166942 0.030646
vt -0.155565 0.672503
vt -0.097792 0.020773
vt -0.086415 0.682376
vt -0.044732 0.007906
vt -0.033355 0.695243
vt -0.011377 -0.007079
vt 0.000000 -0.023159
vt 0.000000 0.710227
vt 0.011377 -0.007079
vt 0.000000 0.710227
vt 0.000000 -0.023159
vt 0.033355 0.695243
vt 0.044732 0.007906
vt 0.086415 0.682376
vt 0.097792 0.020773
vt 0.155565 0.672503
vt 0.166942 0.030646
vt 0.236091 0.666296
vt 0.247468 0.036853
vt 0.322507 0.664179
vt 0.333884 0.038970
vt 0.408922 0.666296
vt 0.420299 0.036853
vt 0.489449 0.672503
vt 0.500825 0.030646
vt 0.558598 0.682376
vt 0.569975 0.020773
vt 0.611659 0.695243
vt 0.623035 0.007906
vt 0.645014 0.710227
vt 0.656390 -0.007079
vt 0.656390 0.726307
vt 0.656390 0.726307
vt 0.656390 -0.007079
vt 0.645014 0.710227
vt 0.623035 0.007906
vt 0.611659 0.695243
vt 0.569975 0.020773
vt 0.558598 0.682376
vt 0.500825 0.030646
vt 0.489449 0.672503
vt 0.420299 0.036853
vt 0.408922 0.666296
vt 0.333884 0.038970
vt 0.322507 0.664179
vt 0.247468 0.036853
vt 0.236091 0.666296
vt 0.166942 0.030646
vt 0.155565 0.672503
vt 0.097792 0.020773
vt 0.086415 0.682376
vt 0.044732 0.007906
vt 0.033355 0.695243
vt 0.011377 -0.007079
vt 0.000000 0.710227
vt 0.000000 -0.023159
vt -3.938534 0.041025
vt 0.128425 0.000000
vt 0.128425 0.041025
vt -3.938534 0.000000
vt -3.938534 0.000000
vt -3.938534 0.041025
vt 0.128425 0.000000
vt 0.128425 0.041025
vt 4.027705 0.000000
vt -0.039254 0.041025
vt -0.039254 0.000000
vt 4.027705 0.041025
vt 4.027705 0.041025
vt 4.027705 0.000000
vt -0.039254 0.041025
vt -0.039254 0.000000
vn 0.0000 -1.0000 -0.0000
vn 0.0000 1.0000 0.0000
vn 0.0000 -0.0000 1.0000
vn 0.0000 0.0000 -1.0000
usemtl material_0.008
s 1
f 1/1/1 2/2/1 3/3/1
f 2/2/1 1/1/1 4/4/1
f 4/4/1 1/1/1 5/5/1
f 5/5/1 1/1/1 6/6/1
f 5/5/1 6/6/1 7/7/1
f 7/7/1 6/6/1 8/8/1
f 7/7/1 8/8/1 9/9/1
f 9/9/1 8/8/1 10/10/1
f 9/9/1 10/10/1 11/11/1
f 11/11/1 10/10/1 12/12/1
f 11/11/1 12/12/1 13/13/1
f 13/13/1 12/12/1 14/14/1
f 13/13/1 14/14/1 15/15/1
f 15/15/1 14/14/1 16/16/1
f 15/15/1 16/16/1 17/17/1
f 17/17/1 16/16/1 18/18/1
f 17/17/1 18/18/1 19/19/1
f 19/19/1 18/18/1 20/20/1
f 19/19/1 20/20/1 21/21/1
f 21/21/1 20/20/1 22/22/1
f 21/21/1 22/22/1 23/23/1
f 23/23/1 22/22/1 24/24/1
f 25/25/2 26/26/2 27/27/2
f 27/27/2 26/26/2 28/28/2
f 26/26/2 29/29/2 28/28/2
f 28/28/2 29/29/2 30/30/2
f 29/29/2 31/31/2 30/30/2
f 30/30/2 31/31/2 32/32/2
f 31/31/2 33/33/2 32/32/2
f 32/32/2 33/33/2 34/34/2
f 33/33/2 35/35/2 34/34/2
f 34/34/2 35/35/2 36/36/2
f 35/35/2 37/37/2 36/36/2
f 36/36/2 37/37/2 38/38/2
f 37/37/2 39/39/2 38/38/2
f 38/38/2 39/39/2 40/40/2
f 39/39/2 41/41/2 40/40/2
f 40/40/2 41/41/2 42/42/2
f 41/41/2 43/43/2 42/42/2
f 42/42/2 43/43/2 44/44/2
f 43/43/2 45/45/2 44/44/2
f 44/44/2 45/45/2 46/46/2
f 46/46/2 45/45/2 47/47/2
f 48/48/2 47/47/2 45/45/2
f 49/49/2 50/50/2 51/51/2
f 50/50/2 49/49/2 52/52/2
f 52/52/2 49/49/2 53/53/2
f 52/52/2 53/53/2 54/54/2
f 54/54/2 53/53/2 55/55/2
f 54/54/2 55/55/2 56/56/2
f 56/56/2 55/55/2 57/57/2
f 56/56/2 57/57/2 58/58/2
f 58/58/2 57/57/2 59/59/2
f 58/58/2 59/59/2 60/60/2
f 60/60/2 59/59/2 61/61/2
f 60/60/2 61/61/2 62/62/2
f 62/62/2 61/61/2 63/63/2
f 62/62/2 63/63/2 64/64/2
f 64/64/2 63/63/2 65/65/2
f 64/64/2 65/65/2 66/66/2
f 66/66/2 65/65/2 67/67/2
f 66/66/2 67/67/2 68/68/2
f 68/68/2 67/67/2 69/69/2
f 68/68/2 69/69/2 70/70/2
f 70/70/2 69/69/2 71/71/2
f 70/70/2 71/71/2 72/72/2
f 73/73/1 74/74/1 75/75/1
f 74/74/1 76/76/1 75/75/1
f 75/75/1 76/76/1 77/77/1
f 76/76/1 78/78/1 77/77/1
f 77/77/1 78/78/1 79/79/1
f 78/78/1 80/80/1 79/79/1
f 79/79/1 80/80/1 81/81/1
f 80/80/1 82/82/1 81/81/1
f 81/81/1 82/82/1 83/83/1
f 82/82/1 84/84/1 83/83/1
f 83/83/1 84/84/1 85/85/1
f 84/84/1 86/86/1 85/85/1
f 85/85/1 86/86/1 87/87/1
f 86/86/1 88/88/1 87/87/1
f 87/87/1 88/88/1 89/89/1
f 88/88/1 90/90/1 89/89/1
f 89/89/1 90/90/1 91/91/1
f 90/90/1 92/92/1 91/91/1
f 91/91/1 92/92/1 93/93/1
f 92/92/1 94/94/1 93/93/1
f 93/93/1 94/94/1 95/95/1
f 96/96/1 95/95/1 94/94/1
f 97/97/3 98/98/3 99/99/3
f 98/98/3 97/97/3 100/100/3
f 101/101/4 102/102/4 103/103/4
f 104/104/4 103/103/4 102/102/4
f 105/105/4 106/106/4 107/107/4
f 106/106/4 105/105/4 108/108/4
f 109/109/3 110/110/3 111/111/3
f 112/112/3 111/111/3 110/110/3