# Blender v3.0.1 OBJ File: ''
# www.blender.org
mtllib 04.mtl
o model.001_model.006_model.001_model.011
v 0.153875 -0.498168 -0.149980
v 0.103047 -0.560802 -0.001524
v 0.103047 -0.498168 -0.001524
v 0.153875 -0.560802 -0.149980
v 0.153875 -0.560802 -0.149980
v 0.153875 -0.498168 -0.149980
v 0.103047 -0.560802 -0.001524
v 0.103047 -0.498168 -0.001524
v 0.241663 -0.560802 -0.406386
v 0.103047 -0.560802 -0.001524
v 0.153875 -0.560802 -0.149980
v 0.240602 -0.560802 -0.397508
v 0.106691 -0.560802 -0.010194
v 0.111294 -0.560802 -0.017859
v 0.240988 -0.560802 -0.389440
v 0.116544 -0.560802 -0.023998
v 0.242794 -0.560802 -0.382732
v 0.122083 -0.560802 -0.028191
v 0.245898 -0.560802 -0.377841
v 0.127532 -0.560802 -0.030153
v 0.250087 -0.560802 -0.375101
v 0.132522 -0.560802 -0.029750
v 0.255076 -0.560802 -0.374698
v 0.136711 -0.560802 -0.027010
v 0.260526 -0.560802 -0.376661
v 0.139815 -0.560802 -0.022120
v 0.266065 -0.560802 -0.380854
v 0.141621 -0.560802 -0.015412
v 0.271315 -0.560802 -0.386992
v 0.142007 -0.560802 -0.007344
v 0.275918 -0.560802 -0.394658
v 0.140946 -0.560802 0.001535
v 0.279562 -0.560802 -0.403328
v 0.279562 -0.560802 -0.403328
v 0.275918 -0.560802 -0.394658
v 0.140946 -0.560802 0.001535
v 0.142007 -0.560802 -0.007344
v 0.271315 -0.560802 -0.386992
v 0.141621 -0.560802 -0.015412
v 0.266065 -0.560802 -0.380854
v 0.139815 -0.560802 -0.022120
v 0.260526 -0.560802 -0.376661
v 0.136711 -0.560802 -0.027010
v 0.255076 -0.560802 -0.374698
v 0.132522 -0.560802 -0.029750
v 0.250087 -0.560802 -0.375101
v 0.127532 -0.560802 -0.030153
v 0.245898 -0.560802 -0.377841
v 0.122083 -0.560802 -0.028191
v 0.242794 -0.560802 -0.382732
v 0.116544 -0.560802 -0.023998
v 0.240988 -0.560802 -0.389440
v 0.111294 -0.560802 -0.017859
v 0.240602 -0.560802 -0.397508
v 0.106691 -0.560802 -0.010194
v 0.103047 -0.560802 -0.001524
v 0.241663 -0.560802 -0.406386
v 0.153875 -0.560802 -0.149980
v 0.103047 -0.498168 -0.001524
v 0.241663 -0.498168 -0.406386
v 0.153875 -0.498168 -0.149980
v 0.106691 -0.498168 -0.010194
v 0.240602 -0.498168 -0.397508
v 0.111294 -0.498168 -0.017859
v 0.240988 -0.498168 -0.389440
v 0.116544 -0.498168 -0.023998
v 0.242794 -0.498168 -0.382732
v 0.122083 -0.498168 -0.028191
v 0.245898 -0.498168 -0.377841
v 0.127532 -0.498168 -0.030153
v 0.250087 -0.498168 -0.375101
v 0.132522 -0.498168 -0.029750
v 0.255076 -0.498168 -0.374698
v 0.136711 -0.498168 -0.027010
v 0.260526 -0.498168 -0.376661
v 0.139815 -0.498168 -0.022120
v 0.266065 -0.498168 -0.380854
v 0.141621 -0.498168 -0.015412
v 0.271315 -0.498168 -0.386992
v 0.142007 -0.498168 -0.007344
v 0.275918 -0.498168 -0.394658
v 0.140946 -0.498168 0.001535
v 0.279562 -0.498168 -0.403328
v 0.279562 -0.498168 -0.403328
v 0.140946 -0.498168 0.001535
v 0.275918 -0.498168 -0.394658
v 0.142007 -0.498168 -0.007344
v 0.271315 -0.498168 -0.386992
v 0.141621 -0.498168 -0.015412
v 0.266065 -0.498168 -0.380854
v 0.139815 -0.498168 -0.022120
v 0.260526 -0.498168 -0.376661
v 0.136711 -0.498168 -0.027010
v 0.255076 -0.498168 -0.374698
v 0.132522 -0.498168 -0.029750
v 0.250087 -0.498168 -0.375101
v 0.127532 -0.498168 -0.030153
v 0.245898 -0.498168 -0.377841
v 0.122083 -0.498168 -0.028191
v 0.242794 -0.498168 -0.382732
v 0.116544 -0.498168 -0.023998
v 0.240988 -0.498168 -0.389440
v 0.111294 -0.498168 -0.017859
v 0.240602 -0.498168 -0.397508
v 0.106691 -0.498168 -0.010194
v 0.241663 -0.498168 -0.406386
v 0.103047 -0.498168 -0.001524
v 0.153875 -0.498168 -0.149980
v 0.241663 -0.498168 -0.406386
v 0.241663 -0.560802 -0.406386
v 0.241663 -0.560802 -0.406386
v 0.241663 -0.498168 -0.406386
v 0.279562 -0.560802 -0.403328
v 0.140946 -0.498168 0.001535
v 0.140946 -0.560802 0.001535
v 0.279562 -0.498168 -0.403328
v 0.279562 -0.498168 -0.403328
v 0.279562 -0.560802 -0.403328
v 0.140946 -0.498168 0.001535
v 0.140946 -0.560802 0.001535
vt -1.445205 0.041025
vt 0.000000 0.000000
vt 0.000000 0.041025
vt -1.445205 0.000000
vt -1.445205 0.000000
vt -1.445205 0.041025
vt 0.000000 0.000000
vt 0.000000 0.041025
vt 0.000000 0.710724
vt 0.000000 0.000000
vt 0.000000 0.260611
vt -0.033355 0.696203
vt -0.011377 0.015583
vt -0.044732 0.030104
vt -0.086415 0.683734
vt -0.097792 0.042574
vt -0.155565 0.674165
vt -0.166942 0.052142
vt -0.236091 0.668150
vt -0.247468 0.058157
vt -0.322507 0.666099
vt -0.333884 0.060209
vt -0.408922 0.668150
vt -0.420299 0.058157
vt -0.489449 0.674165
vt -0.500825 0.052142
vt -0.558598 0.683734
vt -0.569975 0.042574
vt -0.611659 0.696203
vt -0.623035 0.030104
vt -0.645014 0.710724
vt -0.656390 0.015583
vt -0.656390 0.726307
vt -0.656390 0.726307
vt -0.645014 0.710724
vt -0.656390 0.015583
vt -0.623035 0.030104
vt -0.611659 0.696203
vt -0.569975 0.042574
vt -0.558598 0.683734
vt -0.500825 0.052142
vt -0.489449 0.674165
vt -0.420299 0.058157
vt -0.408922 0.668150
vt -0.333884 0.060209
vt -0.322507 0.666099
vt -0.247468 0.058157
vt -0.236091 0.668150
vt -0.166942 0.052142
vt -0.155565 0.674165
vt -0.097792 0.042574
vt -0.086415 0.683734
vt -0.044732 0.030104
vt -0.033355 0.696203
vt -0.011377 0.015583
vt 0.000000 0.000000
vt 0.000000 0.710724
vt 0.000000 0.260611
vt 0.000000 0.000000
vt 0.000000 0.710724
vt -0.000000 0.260611
vt 0.011377 0.015583
vt 0.033355 0.696203
vt 0.044732 0.030104
vt 0.086415 0.683734
vt 0.097792 0.042574
vt 0.155565 0.674165
vt 0.166942 0.052142
vt 0.236091 0.668150
vt 0.247468 0.058157
vt 0.322507 0.666099
vt 0.333884 0.060209
vt 0.408922 0.668150
vt 0.420299 0.058157
vt 0.489449 0.674165
vt 0.500825 0.052142
vt 0.558598 0.683734
vt 0.569975 0.042574
vt 0.611659 0.696203
vt 0.623035 0.030104
vt 0.645014 0.710724
vt 0.656390 0.015583
vt 0.656390 0.726307
vt 0.656390 0.726307
vt 0.656390 0.015583
vt 0.645014 0.710724
vt 0.623035 0.030104
vt 0.611659 0.696203
vt 0.569975 0.042574
vt 0.558598 0.683734
vt 0.500825 0.052142
vt 0.489449 0.674165
vt 0.420299 0.058157
vt 0.408922 0.668150
vt 0.333884 0.060209
vt 0.322507 0.666099
vt 0.247468 0.058157
vt 0.236091 0.668150
vt 0.166942 0.052142
vt 0.155565 0.674165
vt 0.097792 0.042574
vt 0.086415 0.683734
vt 0.044732 0.030104
vt 0.033355 0.696203
vt 0.011377 0.015583
vt 0.000000 0.710724
vt 0.000000 0.000000
vt -0.000000 0.260611
vt -3.941289 0.041025
vt -3.941289 0.000000
vt -3.941289 0.000000
vt -3.941289 0.041025
vt 4.027705 0.000000
vt 0.086415 0.041025
vt 0.086415 0.000000
vt 4.027705 0.041025
vt 4.027705 0.041025
vt 4.027705 0.000000
vt 0.086415 0.041025
vt 0.086415 0.000000
vn -0.9461 -0.0000 -0.3239
vn 0.9461 0.0000 0.3239
vn 0.0000 -1.0000 -0.0000
vn -0.0000 -1.0000 0.0015
vn 0.7664 -0.6026 0.2226
vn 0.0000 1.0000 -0.0001
vn -0.0000 1.0000 0.0000
vn -0.3810 0.9246 0.0011
vn 0.0014 1.0000 0.0000
vn 0.9852 0.1504 0.0829
vn -0.0014 -1.0000 -0.0000
vn -0.9020 0.0824 -0.4238
usemtl material_0.002
s 1
f 1/1/1 2/2/1 3/3/1
f 2/2/1 1/1/1 4/4/1
f 5/5/2 6/6/2 7/7/2
f 8/8/2 7/7/2 6/6/2
f 9/9/3 10/10/4 11/11/5
f 10/10/4 9/9/3 12/12/3
f 10/10/4 12/12/3 13/13/3
f 13/13/3 12/12/3 14/14/3
f 14/14/3 12/12/3 15/15/3
f 14/14/3 15/15/3 16/16/3
f 16/16/3 15/15/3 17/17/3
f 16/16/3 17/17/3 18/18/3
f 18/18/3 17/17/3 19/19/3
f 18/18/3 19/19/3 20/20/3
f 20/20/3 19/19/3 21/21/3
f 20/20/3 21/21/3 22/22/3
f 22/22/3 21/21/3 23/23/3
f 22/22/3 23/23/3 24/24/3
f 24/24/3 23/23/3 25/25/3
f 24/24/3 25/25/3 26/26/3
f 26/26/3 25/25/3 27/27/3
f 26/26/3 27/27/3 28/28/3
f 28/28/3 27/27/3 29/29/3
f 28/28/3 29/29/3 30/30/3
f 30/30/3 29/29/3 31/31/3
f 30/30/3 31/31/3 32/32/3
f 32/32/3 31/31/3 33/33/3
f 34/34/6 35/35/6 36/36/7
f 36/36/7 35/35/6 37/37/7
f 35/35/6 38/38/7 37/37/7
f 37/37/7 38/38/7 39/39/7
f 38/38/7 40/40/7 39/39/7
f 39/39/7 40/40/7 41/41/7
f 40/40/7 42/42/7 41/41/7
f 41/41/7 42/42/7 43/43/7
f 42/42/7 44/44/7 43/43/7
f 43/43/7 44/44/7 45/45/7
f 44/44/7 46/46/7 45/45/7
f 45/45/7 46/46/7 47/47/7
f 46/46/7 48/48/7 47/47/7
f 47/47/7 48/48/7 49/49/7
f 48/48/7 50/50/7 49/49/7
f 49/49/7 50/50/7 51/51/7
f 50/50/7 52/52/7 51/51/7
f 51/51/7 52/52/7 53/53/7
f 52/52/7 54/54/7 53/53/7
f 53/53/7 54/54/7 55/55/7
f 55/55/7 54/54/7 56/56/7
f 54/54/7 57/57/7 56/56/7
f 58/58/8 56/56/7 57/57/7
f 59/59/9 60/60/7 61/61/10
f 60/60/7 59/59/9 62/62/7
f 60/60/7 62/62/7 63/63/7
f 63/63/7 62/62/7 64/64/7
f 63/63/7 64/64/7 65/65/7
f 65/65/7 64/64/7 66/66/7
f 65/65/7 66/66/7 67/67/7
f 67/67/7 66/66/7 68/68/7
f 67/67/7 68/68/7 69/69/7
f 69/69/7 68/68/7 70/70/7
f 69/69/7 70/70/7 71/71/7
f 71/71/7 70/70/7 72/72/7
f 71/71/7 72/72/7 73/73/7
f 73/73/7 72/72/7 74/74/7
f 73/73/7 74/74/7 75/75/7
f 75/75/7 74/74/7 76/76/7
f 75/75/7 76/76/7 77/77/7
f 77/77/7 76/76/7 78/78/7
f 77/77/7 78/78/7 79/79/7
f 79/79/7 78/78/7 80/80/7
f 79/79/7 80/80/7 81/81/7
f 81/81/7 80/80/7 82/82/7
f 81/81/7 82/82/7 83/83/7
f 84/84/3 85/85/3 86/86/3
f 85/85/3 87/87/3 86/86/3
f 86/86/3 87/87/3 88/88/3
f 87/87/3 89/89/3 88/88/3
f 88/88/3 89/89/3 90/90/3
f 89/89/3 91/91/3 90/90/3
f 90/90/3 91/91/3 92/92/3
f 91/91/3 93/93/3 92/92/3
f 92/92/3 93/93/3 94/94/3
f 93/93/3 95/95/3 94/94/3
f 94/94/3 95/95/3 96/96/3
f 95/95/3 97/97/3 96/96/3
f 96/96/3 97/97/3 98/98/3
f 97/97/3 99/99/3 98/98/3
f 98/98/3 99/99/3 100/100/3
f 99/99/3 101/101/3 100/100/3
f 100/100/3 101/101/3 102/102/3
f 101/101/3 103/103/3 102/102/3
f 102/102/3 103/103/3 104/104/3
f 103/103/3 105/105/3 104/104/3
f 104/104/3 105/105/3 106/106/3
f 105/105/3 107/107/11 106/106/3
f 108/108/12 106/106/3 107/107/11
f 109/109/1 4/4/1 1/1/1
f 4/4/1 109/109/1 110/110/1
f 111/111/2 112/112/2 5/5/2
f 6/6/2 5/5/2 112/112/2
f 113/113/2 114/114/2 115/115/2
f 114/114/2 113/113/2 116/116/2
f 117/117/1 118/118/1 119/119/1
f 120/120/1 119/119/1 118/118/1