# Blender v3.0.1 OBJ File: ''
# www.blender.org
mtllib 05.mtl
o model.001_model.007_model.001_model.012
v 0.170314 -0.570544 0.140917
v 0.120835 -0.633177 -0.003798
v 0.120835 -0.570544 -0.003798
v 0.170314 -0.633177 0.140917
v 0.170314 -0.633177 0.140917
v 0.170314 -0.570544 0.140917
v 0.120835 -0.633177 -0.003798
v 0.120835 -0.570544 -0.003798
v 0.251242 -0.633177 0.383404
v 0.170314 -0.633177 0.140917
v 0.255771 -0.633177 0.390861
v 0.123189 -0.633177 0.005062
v 0.124174 -0.633177 0.013731
v 0.246056 -0.633177 0.377443
v 0.123723 -0.633177 0.021619
v 0.240567 -0.633177 0.373385
v 0.121867 -0.633177 0.028188
v 0.235148 -0.633177 0.371508
v 0.118732 -0.633177 0.032990
v 0.230168 -0.633177 0.371938
v 0.114531 -0.633177 0.035699
v 0.225967 -0.633177 0.374647
v 0.109552 -0.633177 0.036129
v 0.222832 -0.633177 0.379449
v 0.104132 -0.633177 0.034251
v 0.220976 -0.633177 0.386018
v 0.098643 -0.633177 0.030194
v 0.220525 -0.633177 0.393906
v 0.093457 -0.633177 0.024233
v 0.221510 -0.633177 0.402575
v 0.088928 -0.633177 0.016776
v 0.223864 -0.633177 0.411435
v 0.120835 -0.633177 -0.003798
v 0.170314 -0.633177 0.140917
v 0.120835 -0.633177 -0.003798
v 0.123189 -0.633177 0.005062
v 0.223864 -0.633177 0.411435
v 0.221510 -0.633177 0.402575
v 0.088928 -0.633177 0.016776
v 0.093457 -0.633177 0.024233
v 0.220525 -0.633177 0.393906
v 0.098643 -0.633177 0.030194
v 0.220976 -0.633177 0.386018
v 0.104132 -0.633177 0.034251
v 0.222832 -0.633177 0.379449
v 0.109552 -0.633177 0.036129
v 0.225967 -0.633177 0.374647
v 0.114531 -0.633177 0.035699
v 0.230168 -0.633177 0.371938
v 0.118732 -0.633177 0.032990
v 0.235148 -0.633177 0.371508
v 0.121867 -0.633177 0.028188
v 0.240567 -0.633177 0.373385
v 0.123723 -0.633177 0.021619
v 0.246056 -0.633177 0.377443
v 0.124174 -0.633177 0.013731
v 0.251242 -0.633177 0.383404
v 0.255771 -0.633177 0.390861
v 0.123189 -0.570544 0.005062
v 0.170314 -0.570544 0.140917
v 0.120835 -0.570544 -0.003798
v 0.251242 -0.570544 0.383404
v 0.255771 -0.570544 0.390861
v 0.124174 -0.570544 0.013731
v 0.246056 -0.570544 0.377443
v 0.123723 -0.570544 0.021619
v 0.240567 -0.570544 0.373386
v 0.121867 -0.570544 0.028188
v 0.235148 -0.570544 0.371508
v 0.118732 -0.570544 0.032990
v 0.230168 -0.570544 0.371938
v 0.114531 -0.570544 0.035699
v 0.225967 -0.570544 0.374647
v 0.109552 -0.570544 0.036129
v 0.222832 -0.570544 0.379449
v 0.104132 -0.570544 0.034251
v 0.220976 -0.570544 0.386018
v 0.098643 -0.570544 0.030194
v 0.220525 -0.570544 0.393906
v 0.093457 -0.570544 0.024233
v 0.221510 -0.570544 0.402575
v 0.088928 -0.570544 0.016776
v 0.223864 -0.570544 0.411435
v 0.223864 -0.570544 0.411435
v 0.088928 -0.570544 0.016776
v 0.221510 -0.570544 0.402575
v 0.093457 -0.570544 0.024233
v 0.220525 -0.570544 0.393906
v 0.098643 -0.570544 0.030194
v 0.220976 -0.570544 0.386018
v 0.104132 -0.570544 0.034251
v 0.222832 -0.570544 0.379449
v 0.109552 -0.570544 0.036129
v 0.225967 -0.570544 0.374647
v 0.114531 -0.570544 0.035699
v 0.230168 -0.570544 0.371938
v 0.118732 -0.570544 0.032990
v 0.235148 -0.570544 0.371508
v 0.121867 -0.570544 0.028188
v 0.240567 -0.570544 0.373386
v 0.123723 -0.570544 0.021619
v 0.246056 -0.570544 0.377443
v 0.124174 -0.570544 0.013731
v 0.251242 -0.570544 0.383404
v 0.123189 -0.570544 0.005062
v 0.170314 -0.570544 0.140917
v 0.255771 -0.570544 0.390861
v 0.120835 -0.570544 -0.003798
v 0.255771 -0.570544 0.390861
v 0.255771 -0.633177 0.390861
v 0.255771 -0.633177 0.390861
v 0.255771 -0.570544 0.390861
v 0.223864 -0.633177 0.411435
v 0.088928 -0.570544 0.016776
v 0.088928 -0.633177 0.016776
v 0.223864 -0.570544 0.411435
v 0.223864 -0.570544 0.411435
v 0.223864 -0.633177 0.411435
v 0.088928 -0.570544 0.016776
v 0.088928 -0.633177 0.016776
vt -1.445205 0.035090
vt 0.000000 0.000000
vt 0.000000 0.035090
vt -1.445205 0.000000
vt -1.445205 0.000000
vt -1.445205 0.035090
vt 0.000000 0.000000
vt 0.000000 0.035090
vt -0.033355 0.696203
vt -0.000000 0.260611
vt 0.000000 0.710724
vt -0.011377 0.015583
vt -0.044732 0.030104
vt -0.086415 0.683734
vt -0.097792 0.042574
vt -0.155565 0.674165
vt -0.166942 0.052142
vt -0.236091 0.668150
vt -0.247468 0.058157
vt -0.322507 0.666099
vt -0.333884 0.060209
vt -0.408922 0.668150
vt -0.420299 0.058157
vt -0.489449 0.674165
vt -0.500825 0.052142
vt -0.558598 0.683734
vt -0.569975 0.042574
vt -0.611659 0.696203
vt -0.623035 0.030104
vt -0.645014 0.710724
vt -0.656390 0.015583
vt -0.656390 0.726307
vt 0.000000 0.000000
vt -0.000000 0.260611
vt 0.000000 0.000000
vt -0.011377 0.015583
vt -0.656390 0.726307
vt -0.645014 0.710724
vt -0.656390 0.015583
vt -0.623035 0.030104
vt -0.611659 0.696203
vt -0.569975 0.042574
vt -0.558598 0.683734
vt -0.500825 0.052142
vt -0.489449 0.674165
vt -0.420299 0.058157
vt -0.408922 0.668150
vt -0.333884 0.060209
vt -0.322507 0.666099
vt -0.247468 0.058157
vt -0.236091 0.668150
vt -0.166942 0.052142
vt -0.155565 0.674165
vt -0.097792 0.042574
vt -0.086415 0.683734
vt -0.044732 0.030104
vt -0.033355 0.696203
vt 0.000000 0.710724
vt 0.011377 0.015583
vt 0.000000 0.260611
vt 0.000000 0.000000
vt 0.033355 0.696203
vt -0.000000 0.710724
vt 0.044732 0.030104
vt 0.086415 0.683734
vt 0.097792 0.042574
vt 0.155565 0.674165
vt 0.166942 0.052142
vt 0.236091 0.668150
vt 0.247468 0.058157
vt 0.322507 0.666099
vt 0.333884 0.060209
vt 0.408922 0.668150
vt 0.420299 0.058157
vt 0.489449 0.674165
vt 0.500825 0.052142
vt 0.558598 0.683734
vt 0.569975 0.042574
vt 0.611659 0.696203
vt 0.623035 0.030104
vt 0.645014 0.710724
vt 0.656390 0.015583
vt 0.656390 0.726307
vt 0.656390 0.726307
vt 0.656390 0.015583
vt 0.645014 0.710724
vt 0.623035 0.030104
vt 0.611659 0.696203
vt 0.569975 0.042574
vt 0.558598 0.683734
vt 0.500825 0.052142
vt 0.489449 0.674165
vt 0.420299 0.058157
vt 0.408922 0.668150
vt 0.333884 0.060209
vt 0.322507 0.666099
vt 0.247468 0.058157
vt 0.236091 0.668150
vt 0.166942 0.052142
vt 0.155565 0.674165
vt 0.097792 0.042574
vt 0.086415 0.683734
vt 0.044732 0.030104
vt 0.033355 0.696203
vt 0.011377 0.015583
vt 0.000000 0.260611
vt -0.000000 0.710724
vt 0.000000 0.000000
vt -3.941289 0.035090
vt -3.941289 0.000000
vt -3.941289 0.000000
vt -3.941289 0.035090
vt 4.027705 0.000000
vt 0.086415 0.035090
vt 0.086415 0.000000
vt 4.027705 0.035090
vt 4.027705 0.035090
vt 4.027705 0.000000
vt 0.086415 0.035090
vt 0.086415 0.000000
vn 0.9462 -0.0000 -0.3235
vn -0.9462 0.0000 0.3235
vn 0.0000 -1.0000 -0.0000
vn -0.0000 1.0000 0.0000
vn 0.0000 1.0000 0.0001
vn -0.0000 -1.0000 -0.0001
usemtl material_0.003
s 1
f 1/1/1 2/2/1 3/3/1
f 2/2/1 1/1/1 4/4/1
f 5/5/2 6/6/2 7/7/2
f 8/8/2 7/7/2 6/6/2
f 9/9/3 10/10/3 11/11/3
f 10/10/3 9/9/3 12/12/3
f 12/12/3 9/9/3 13/13/3
f 13/13/3 9/9/3 14/14/3
f 13/13/3 14/14/3 15/15/3
f 15/15/3 14/14/3 16/16/3
f 15/15/3 16/16/3 17/17/3
f 17/17/3 16/16/3 18/18/3
f 17/17/3 18/18/3 19/19/3
f 19/19/3 18/18/3 20/20/3
f 19/19/3 20/20/3 21/21/3
f 21/21/3 20/20/3 22/22/3
f 21/21/3 22/22/3 23/23/3
f 23/23/3 22/22/3 24/24/3
f 23/23/3 24/24/3 25/25/3
f 25/25/3 24/24/3 26/26/3
f 25/25/3 26/26/3 27/27/3
f 27/27/3 26/26/3 28/28/3
f 27/27/3 28/28/3 29/29/3
f 29/29/3 28/28/3 30/30/3
f 29/29/3 30/30/3 31/31/3
f 31/31/3 30/30/3 32/32/3
f 12/12/3 33/33/3 10/10/3
f 34/34/4 35/35/4 36/36/4
f 37/37/4 38/38/4 39/39/4
f 39/39/4 38/38/4 40/40/4
f 38/38/4 41/41/4 40/40/4
f 40/40/4 41/41/4 42/42/4
f 41/41/4 43/43/4 42/42/4
f 42/42/4 43/43/4 44/44/4
f 43/43/4 45/45/4 44/44/4
f 44/44/4 45/45/4 46/46/4
f 45/45/4 47/47/4 46/46/4
f 46/46/4 47/47/4 48/48/4
f 47/47/4 49/49/4 48/48/4
f 48/48/4 49/49/4 50/50/4
f 49/49/4 51/51/4 50/50/4
f 50/50/4 51/51/4 52/52/4
f 51/51/4 53/53/4 52/52/4
f 52/52/4 53/53/4 54/54/4
f 53/53/4 55/55/4 54/54/4
f 54/54/4 55/55/4 56/56/4
f 55/55/4 57/57/4 56/56/4
f 56/56/4 57/57/4 36/36/4
f 36/36/4 57/57/4 34/34/4
f 58/58/4 34/34/4 57/57/4
f 59/59/4 60/60/4 61/61/4
f 60/60/4 62/62/4 63/63/4
f 62/62/4 60/60/4 59/59/4
f 62/62/4 59/59/4 64/64/4
f 62/62/4 64/64/4 65/65/4
f 65/65/4 64/64/4 66/66/4
f 65/65/4 66/66/4 67/67/4
f 67/67/4 66/66/4 68/68/4
f 67/67/4 68/68/4 69/69/4
f 69/69/4 68/68/4 70/70/4
f 69/69/4 70/70/4 71/71/4
f 71/71/4 70/70/4 72/72/4
f 71/71/4 72/72/4 73/73/4
f 73/73/4 72/72/4 74/74/4
f 73/73/4 74/74/4 75/75/4
f 75/75/4 74/74/4 76/76/4
f 75/75/4 76/76/4 77/77/4
f 77/77/4 76/76/4 78/78/4
f 77/77/4 78/78/4 79/79/4
f 79/79/4 78/78/4 80/80/4
f 79/79/4 80/80/4 81/81/5
f 81/81/5 80/80/4 82/82/4
f 81/81/5 82/82/4 83/83/5
f 84/84/6 85/85/3 86/86/6
f 85/85/3 87/87/3 86/86/6
f 86/86/6 87/87/3 88/88/3
f 87/87/3 89/89/3 88/88/3
f 88/88/3 89/89/3 90/90/3
f 89/89/3 91/91/3 90/90/3
f 90/90/3 91/91/3 92/92/3
f 91/91/3 93/93/3 92/92/3
f 92/92/3 93/93/3 94/94/3
f 93/93/3 95/95/3 94/94/3
f 94/94/3 95/95/3 96/96/3
f 95/95/3 97/97/3 96/96/3
f 96/96/3 97/97/3 98/98/3
f 97/97/3 99/99/3 98/98/3
f 98/98/3 99/99/3 100/100/3
f 99/99/3 101/101/3 100/100/3
f 100/100/3 101/101/3 102/102/3
f 101/101/3 103/103/3 102/102/3
f 102/102/3 103/103/3 104/104/3
f 103/103/3 105/105/3 104/104/3
f 105/105/3 106/106/3 104/104/3
f 107/107/3 104/104/3 106/106/3
f 108/108/3 106/106/3 105/105/3
f 109/109/1 4/4/1 1/1/1
f 4/4/1 109/109/1 110/110/1
f 111/111/2 112/112/2 5/5/2
f 6/6/2 5/5/2 112/112/2
f 113/113/2 114/114/2 115/115/2
f 114/114/2 113/113/2 116/116/2
f 117/117/1 118/118/1 119/119/1
f 120/120/1 119/119/1 118/118/1