# Blender v3.0.1 OBJ File: ''
# www.blender.org
mtllib 04.mtl
o model.006_model.001
v -0.469411 0.095908 0.390770
v -0.471971 0.010996 -0.390770
v -0.471971 0.010996 0.390770
v -0.469411 0.095908 -0.390770
v 0.255217 -0.010933 0.254850
v 0.255217 -0.010933 0.324698
v 0.262454 0.073837 0.254850
v 0.262454 0.073837 0.324698
v 0.262454 0.073837 -0.324698
v 0.255217 -0.010933 -0.324698
v 0.262454 0.073837 -0.254850
v 0.255217 -0.010933 -0.254850
v 0.323252 -0.012985 0.254850
v 0.329586 0.071812 -0.254850
v 0.329586 0.071812 0.254850
v 0.323252 -0.012985 -0.254850
v 0.323252 -0.012985 -0.254850
v 0.323252 -0.012985 0.254850
v 0.329586 0.071812 -0.254850
v 0.329586 0.071812 0.254850
v 0.255217 -0.010934 0.324697
v -0.107097 0.042487 0.357734
v 0.262454 0.073837 0.324697
v -0.471971 0.010996 0.390770
v -0.469411 0.095908 -0.390770
v -0.469411 0.095908 0.390770
v -0.471971 0.010996 -0.390770
v -0.471971 0.010996 0.390770
v -0.471971 0.010996 -0.390770
v 0.255217 -0.010934 -0.324698
v -0.107097 0.042487 -0.357734
v 0.262454 0.073837 -0.324698
v 0.255217 -0.010934 -0.254850
v 0.323252 -0.012985 0.254850
v 0.255217 -0.010934 0.254850
v 0.323252 -0.012985 -0.254850
v 0.255217 -0.010934 -0.324698
v -0.471971 0.010996 0.390770
v -0.471971 0.010996 -0.390770
v 0.255217 -0.010934 0.324697
v 0.255217 -0.010934 0.254850
v -0.471971 0.010996 0.390770
v 0.255217 -0.010934 0.324697
v 0.255217 -0.010934 -0.254850
v 0.255217 -0.010934 -0.324698
v -0.471971 0.010996 -0.390770
v 0.323252 -0.012985 -0.254850
v 0.323252 -0.012985 0.254850
v 0.262454 0.073837 0.324697
v -0.469411 0.095907 -0.390770
v -0.469411 0.095907 0.390770
v 0.262454 0.073837 0.254850
v 0.262454 0.073837 -0.254850
v 0.329586 0.071812 -0.254850
v 0.329586 0.071812 0.254850
v 0.262454 0.073837 -0.324698
v 0.262454 0.073837 -0.254850
v -0.469411 0.095907 -0.390770
v 0.262454 0.073837 -0.324698
v 0.329586 0.071812 0.254850
v 0.262454 0.073837 0.254850
v 0.329586 0.071812 -0.254850
v 0.262454 0.073837 0.324697
v -0.469411 0.095907 0.390770
v 0.262454 0.073837 0.324697
v -0.107097 0.042487 0.357734
v 0.255217 -0.010934 0.324697
v -0.471971 0.010996 0.390770
v -0.107097 0.042487 -0.357734
v 0.255217 -0.010934 -0.324698
v -0.471971 0.010996 -0.390770
v 0.262454 0.073837 -0.324698
v -0.469411 0.095907 -0.390770
v -0.469411 0.095907 -0.390770
v -0.107097 0.042487 -0.357734
v 0.262454 0.073837 -0.324698
v 0.262454 0.073837 0.324697
v -0.469411 0.095907 0.390770
v -0.107097 0.042487 0.357734
v -0.469411 0.095907 0.390770
v 0.262454 0.073837 0.324697
v -0.471971 0.010996 0.390770
v -0.471971 0.010996 0.390770
v -0.471971 0.010996 -0.390770
v -0.471971 0.010996 -0.390770
v 0.262454 0.073837 -0.324698
vn -0.9995 0.0301 0.0000
vn -0.9964 0.0851 0.0000
vn 0.9972 -0.0745 -0.0000
vn -0.9972 0.0745 0.0000
vn -0.0901 0.0051 -0.9959
vn -0.0900 0.0051 -0.9959
vn -0.0897 0.0077 -0.9959
vn -0.0904 0.0027 -0.9959
vn 0.9995 -0.0301 -0.0000
vn -0.0904 0.0027 0.9959
vn -0.0900 0.0054 0.9959
vn -0.0900 0.0050 0.9959
vn -0.0897 0.0077 0.9959
vn -0.0301 -0.9995 -0.0000
vn 0.0301 0.9995 0.0000
vn 0.0302 0.9995 0.0000
vn -0.0302 -0.9995 -0.0000
vn 0.0897 -0.0077 0.9959
vn 0.0900 -0.0050 0.9959
vn 0.0901 -0.0051 0.9959
vn 0.0904 -0.0027 0.9959
vn 0.0900 -0.0053 -0.9959
vn 0.0900 -0.0054 -0.9959
vn 0.0904 -0.0027 -0.9959
vn 0.0897 -0.0077 -0.9959
vn 0.0900 -0.0052 -0.9959
vn 0.0900 -0.0050 -0.9959
vn -0.0900 0.0052 0.9959
vn 0.0897 -0.0076 0.9959
vn -0.0900 0.0052 -0.9959
vn -0.0900 0.0050 -0.9959
vn -0.0897 0.0076 -0.9959
usemtl Default_OBJ.122
s 1
f 1//1 2//1 3//1
f 2//1 1//1 4//1
f 5//2 6//2 7//2
f 8//2 7//2 6//2
f 9//2 10//2 11//2
f 12//2 11//2 10//2
f 13//3 14//3 15//3
f 14//3 13//3 16//3
f 17//4 18//4 19//4
f 20//4 19//4 18//4
f 21//5 22//6 23//7
f 21//5 24//8 22//6
f 25//9 26//9 27//9
f 28//9 27//9 26//9
f 29//10 30//11 31//12
f 31//12 30//11 32//13
f 33//14 34//14 35//14
f 34//14 33//14 36//14
f 37//14 38//14 39//14
f 38//14 37//14 33//14
f 38//14 33//14 35//14
f 40//14 38//14 35//14
f 41//15 42//15 43//15
f 41//15 44//15 42//15
f 44//15 45//15 42//15
f 46//15 42//15 45//15
f 47//15 44//15 48//15
f 41//15 48//15 44//15
f 49//15 50//15 51//15
f 50//15 49//15 52//15
f 50//15 52//15 53//15
f 52//15 54//16 53//15
f 54//16 52//15 55//16
f 56//15 50//15 53//15
f 57//14 58//14 59//14
f 60//17 61//14 62//17
f 57//14 62//17 61//14
f 57//14 61//14 58//14
f 61//14 63//14 58//14
f 64//14 58//14 63//14
f 65//18 66//19 67//20
f 66//19 68//21 67//20
f 69//22 70//23 71//24
f 72//25 69//26 73//27
f 74//12 75//28 76//13
f 77//29 78//19 66//19
f 79//30 80//31 81//32
f 78//19 82//21 66//19
f 79//30 83//8 80//31
f 73//27 69//26 84//24
f 85//10 75//28 74//12
f 86//25 70//23 69//22