# Blender v3.0.1 OBJ File: ''
# www.blender.org
mtllib 05.mtl
o model.004_model.009
v 0.309568 -0.106046 -0.254850
v 0.309568 -0.011657 0.254850
v 0.309568 -0.106046 0.254850
v 0.309568 -0.011657 -0.254850
v 0.309568 -0.011657 -0.254850
v 0.309568 -0.106046 -0.254850
v 0.309568 -0.011657 0.254850
v 0.309568 -0.106046 0.254850
v 0.309568 -0.011657 0.254850
v 0.271813 -0.011154 -0.254850
v 0.271813 -0.011154 0.254850
v 0.309568 -0.011657 -0.254850
v 0.309568 -0.011657 -0.254850
v 0.309568 -0.011657 0.254850
v 0.271813 -0.011154 -0.254850
v 0.271813 -0.011154 0.254850
v 0.309568 -0.106046 -0.254850
v 0.271813 -0.106046 0.254850
v 0.271813 -0.106046 -0.254850
v 0.309568 -0.106046 0.254850
v 0.309568 -0.106046 0.254850
v 0.309568 -0.106046 -0.254850
v 0.271813 -0.106046 0.254850
v 0.271813 -0.106046 -0.254850
v 0.271813 -0.011154 -0.254850
v 0.271813 -0.106046 0.254850
v 0.271813 -0.011154 0.254850
v 0.271813 -0.106046 -0.254850
v 0.271813 -0.106046 -0.254850
v 0.271813 -0.011154 -0.254850
v 0.271813 -0.106046 0.254850
v 0.271813 -0.011154 0.254850
vn 1.0000 0.0000 0.0000
vn -1.0000 0.0000 0.0000
vn 0.0133 0.9999 0.0000
vn -0.0133 -0.9999 -0.0000
vn 0.0000 -1.0000 -0.0000
vn 0.0000 1.0000 0.0000
usemtl Default_OBJ.123
s 1
f 1//1 2//1 3//1
f 2//1 1//1 4//1
f 5//2 6//2 7//2
f 8//2 7//2 6//2
f 9//3 10//3 11//3
f 10//3 9//3 12//3
f 13//4 14//4 15//4
f 16//4 15//4 14//4
f 17//5 18//5 19//5
f 18//5 17//5 20//5
f 21//6 22//6 23//6
f 24//6 23//6 22//6
f 25//2 26//2 27//2
f 26//2 25//2 28//2
f 29//1 30//1 31//1
f 32//1 31//1 30//1