# Blender v3.0.1 OBJ File: ''
# www.blender.org
mtllib 01.mtl
o model.001_model.080
v 0.274236 -0.248098 -0.273807
v 0.274236 -0.223245 0.273807
v 0.274236 -0.248098 0.273807
v 0.274236 -0.223245 -0.273807
v 0.274236 -0.223245 -0.273807
v 0.274221 -0.223134 0.273807
v 0.274236 -0.223245 0.273807
v 0.274221 -0.223134 -0.273807
v 0.274221 -0.248208 -0.273807
v 0.274236 -0.248098 0.273807
v 0.274221 -0.248208 0.273807
v 0.274236 -0.248098 -0.273807
v 0.274178 -0.223031 0.273807
v 0.274178 -0.223031 -0.273807
v 0.274178 -0.248312 -0.273807
v 0.274178 -0.248312 0.273807
v 0.274110 -0.222942 0.273807
v 0.274110 -0.222942 -0.273807
v 0.274110 -0.248401 -0.273807
v 0.274110 -0.248401 0.273807
v 0.274021 -0.222874 -0.273807
v 0.274021 -0.222874 0.273807
v 0.274021 -0.248469 0.273807
v 0.274021 -0.248469 -0.273807
v 0.273918 -0.222831 -0.273807
v 0.273918 -0.222831 0.273807
v 0.273918 -0.248511 0.273807
v 0.273918 -0.248511 -0.273807
v 0.273807 -0.222816 -0.273807
v 0.273807 -0.222816 0.273807
v 0.273807 -0.248526 0.273807
v 0.273807 -0.248526 -0.273807
v 0.273807 -0.222816 0.273807
v -0.273807 -0.222816 -0.273807
v -0.273807 -0.222816 0.273807
v 0.273807 -0.222816 -0.273807
v 0.273807 -0.248526 -0.273807
v -0.273807 -0.248526 0.273807
v -0.273807 -0.248526 -0.273807
v 0.273807 -0.248526 0.273807
v -0.273807 -0.222816 0.273807
v -0.273918 -0.222831 -0.273807
v -0.273918 -0.222831 0.273807
v -0.273807 -0.222816 -0.273807
v -0.273807 -0.248526 -0.273807
v -0.273918 -0.248511 0.273807
v -0.273918 -0.248511 -0.273807
v -0.273807 -0.248526 0.273807
v -0.274021 -0.222874 -0.273807
v -0.274021 -0.222874 0.273807
v -0.274021 -0.248469 0.273807
v -0.274021 -0.248469 -0.273807
v -0.274110 -0.222942 -0.273807
v -0.274110 -0.222942 0.273807
v -0.274110 -0.248401 0.273807
v -0.274110 -0.248401 -0.273807
v -0.274178 -0.223031 0.273807
v -0.274178 -0.223031 -0.273807
v -0.274178 -0.248312 -0.273807
v -0.274178 -0.248312 0.273807
v -0.274221 -0.223134 0.273807
v -0.274221 -0.223134 -0.273807
v -0.274221 -0.248208 -0.273807
v -0.274221 -0.248208 0.273807
v -0.274236 -0.223245 0.273807
v -0.274236 -0.223245 -0.273807
v -0.274236 -0.248098 -0.273807
v -0.274236 -0.248098 0.273807
v -0.274236 -0.223245 -0.273807
v -0.274236 -0.248098 0.273807
v -0.274236 -0.223245 0.273807
v -0.274236 -0.248098 -0.273807
v 0.274236 -0.223245 -0.273807
v 0.274236 -0.248098 -0.273807
v 0.274236 -0.223245 0.273807
v 0.274236 -0.248098 0.273807
v 0.274221 -0.223134 -0.273807
v 0.274236 -0.223245 -0.273807
v 0.274221 -0.223134 0.273807
v 0.274236 -0.223245 0.273807
v 0.274236 -0.248098 -0.273807
v 0.274221 -0.248208 -0.273807
v 0.274236 -0.248098 0.273807
v 0.274221 -0.248208 0.273807
v 0.274178 -0.223031 -0.273807
v 0.274178 -0.223031 0.273807
v 0.274178 -0.248312 -0.273807
v 0.274178 -0.248312 0.273807
v 0.274110 -0.222942 -0.273807
v 0.274110 -0.222942 0.273807
v 0.274110 -0.248401 -0.273807
v 0.274110 -0.248401 0.273807
v 0.274021 -0.222874 -0.273807
v 0.274021 -0.222874 0.273807
v 0.274021 -0.248469 0.273807
v 0.274021 -0.248469 -0.273807
v 0.273918 -0.222831 -0.273807
v 0.273918 -0.222831 0.273807
v 0.273918 -0.248511 0.273807
v 0.273918 -0.248511 -0.273807
v 0.273807 -0.222816 -0.273807
v 0.273807 -0.222816 0.273807
v 0.273807 -0.248526 0.273807
v 0.273807 -0.248526 -0.273807
v 0.273807 -0.222816 -0.273807
v 0.273807 -0.222816 0.273807
v -0.273807 -0.222816 -0.273807
v -0.273807 -0.222816 0.273807
v 0.273807 -0.248526 0.273807
v 0.273807 -0.248526 -0.273807
v -0.273807 -0.248526 0.273807
v -0.273807 -0.248526 -0.273807
v -0.273807 -0.222816 -0.273807
v -0.273807 -0.222816 0.273807
v -0.273918 -0.222831 -0.273807
v -0.273918 -0.222831 0.273807
v -0.273807 -0.248526 0.273807
v -0.273807 -0.248526 -0.273807
v -0.273918 -0.248511 0.273807
v -0.273918 -0.248511 -0.273807
v -0.274021 -0.222874 -0.273807
v -0.274021 -0.222874 0.273807
v -0.274021 -0.248469 0.273807
v -0.274021 -0.248469 -0.273807
v -0.274110 -0.222942 -0.273807
v -0.274110 -0.222942 0.273807
v -0.274110 -0.248401 0.273807
v -0.274110 -0.248401 -0.273807
v -0.274178 -0.223031 -0.273807
v -0.274178 -0.223031 0.273807
v -0.274178 -0.248312 -0.273807
v -0.274178 -0.248312 0.273807
v -0.274221 -0.223134 -0.273807
v -0.274221 -0.223134 0.273807
v -0.274221 -0.248208 -0.273807
v -0.274221 -0.248208 0.273807
v -0.274236 -0.223245 -0.273807
v -0.274236 -0.223245 0.273807
v -0.274236 -0.248098 -0.273807
v -0.274236 -0.248098 0.273807
v -0.274236 -0.248098 -0.273807
v -0.274236 -0.223245 -0.273807
v -0.274236 -0.248098 0.273807
v -0.274236 -0.223245 0.273807
v 0.273807 -0.223245 0.274236
v -0.273807 -0.248098 0.274236
v 0.273807 -0.248098 0.274236
v -0.273807 -0.223245 0.274236
v -0.273807 -0.223245 -0.274236
v 0.273807 -0.248098 -0.274236
v -0.273807 -0.248098 -0.274236
v 0.273807 -0.223245 -0.274236
v 0.273807 -0.222816 -0.273807
v -0.273807 -0.222831 -0.273918
v -0.273807 -0.222816 -0.273807
v 0.273807 -0.222831 -0.273918
v 0.273807 -0.222831 0.273918
v -0.273807 -0.222816 0.273807
v -0.273807 -0.222831 0.273918
v 0.273807 -0.222816 0.273807
v 0.273807 -0.248098 0.274236
v -0.273807 -0.248208 0.274221
v 0.273807 -0.248208 0.274221
v -0.273807 -0.248098 0.274236
v 0.273807 -0.223134 0.274221
v -0.273807 -0.223245 0.274236
v 0.273807 -0.223245 0.274236
v -0.273807 -0.223134 0.274221
v 0.273807 -0.248511 -0.273918
v -0.273807 -0.248526 -0.273807
v -0.273807 -0.248511 -0.273918
v 0.273807 -0.248526 -0.273807
v 0.273807 -0.248526 0.273807
v -0.273807 -0.248511 0.273918
v -0.273807 -0.248526 0.273807
v 0.273807 -0.248511 0.273918
v -0.273807 -0.248098 -0.274236
v 0.273807 -0.248208 -0.274221
v -0.273807 -0.248208 -0.274221
v 0.273807 -0.248098 -0.274236
v -0.273807 -0.223134 -0.274221
v 0.273807 -0.223245 -0.274236
v -0.273807 -0.223245 -0.274236
v 0.273807 -0.223134 -0.274221
v -0.273807 -0.222874 -0.274021
v 0.273807 -0.222874 -0.274021
v 0.273807 -0.222874 0.274021
v -0.273807 -0.222874 0.274021
v -0.273807 -0.248312 0.274178
v 0.273807 -0.248312 0.274178
v 0.273807 -0.223031 0.274178
v -0.273807 -0.223031 0.274178
v 0.273807 -0.248469 -0.274021
v -0.273807 -0.248469 -0.274021
v -0.273807 -0.248469 0.274021
v 0.273807 -0.248469 0.274021
v 0.273807 -0.248312 -0.274178
v -0.273807 -0.248312 -0.274178
v -0.273807 -0.223031 -0.274178
v 0.273807 -0.223031 -0.274178
v -0.273807 -0.222942 -0.274110
v 0.273807 -0.222942 -0.274110
v 0.273807 -0.222942 0.274110
v -0.273807 -0.222942 0.274110
v -0.273807 -0.248401 0.274110
v 0.273807 -0.248401 0.274110
v 0.273807 -0.248401 -0.274110
v -0.273807 -0.248401 -0.274110
v -0.273807 -0.223245 0.274236
v 0.273807 -0.223245 0.274236
v -0.273807 -0.248098 0.274236
v 0.273807 -0.248098 0.274236
v 0.273807 -0.223245 -0.274236
v -0.273807 -0.223245 -0.274236
v 0.273807 -0.248098 -0.274236
v -0.273807 -0.248098 -0.274236
v 0.273807 -0.222831 -0.273918
v 0.273807 -0.222816 -0.273807
v -0.273807 -0.222831 -0.273918
v -0.273807 -0.222816 -0.273807
v 0.273807 -0.222816 0.273807
v 0.273807 -0.222831 0.273918
v -0.273807 -0.222816 0.273807
v -0.273807 -0.222831 0.273918
v -0.273807 -0.248098 0.274236
v 0.273807 -0.248098 0.274236
v -0.273807 -0.248208 0.274221
v 0.273807 -0.248208 0.274221
v -0.273807 -0.223134 0.274221
v 0.273807 -0.223134 0.274221
v -0.273807 -0.223245 0.274236
v 0.273807 -0.223245 0.274236
v 0.273807 -0.248526 -0.273807
v 0.273807 -0.248511 -0.273918
v -0.273807 -0.248526 -0.273807
v -0.273807 -0.248511 -0.273918
v 0.273807 -0.248511 0.273918
v 0.273807 -0.248526 0.273807
v -0.273807 -0.248511 0.273918
v -0.273807 -0.248526 0.273807
v 0.273807 -0.248098 -0.274236
v -0.273807 -0.248098 -0.274236
v 0.273807 -0.248208 -0.274221
v -0.273807 -0.248208 -0.274221
v 0.273807 -0.223134 -0.274221
v -0.273807 -0.223134 -0.274221
v 0.273807 -0.223245 -0.274236
v -0.273807 -0.223245 -0.274236
v 0.273807 -0.222874 -0.274021
v -0.273807 -0.222874 -0.274021
v 0.273807 -0.222874 0.274021
v -0.273807 -0.222874 0.274021
v -0.273807 -0.248312 0.274178
v 0.273807 -0.248312 0.274178
v -0.273807 -0.223031 0.274178
v 0.273807 -0.223031 0.274178
v 0.273807 -0.248469 -0.274021
v -0.273807 -0.248469 -0.274021
v 0.273807 -0.248469 0.274021
v -0.273807 -0.248469 0.274021
v 0.273807 -0.248312 -0.274178
v -0.273807 -0.248312 -0.274178
v 0.273807 -0.223031 -0.274178
v -0.273807 -0.223031 -0.274178
v 0.273807 -0.222942 -0.274110
v -0.273807 -0.222942 -0.274110
v 0.273807 -0.222942 0.274110
v -0.273807 -0.222942 0.274110
v -0.273807 -0.248401 0.274110
v 0.273807 -0.248401 0.274110
v 0.273807 -0.248401 -0.274110
v -0.273807 -0.248401 -0.274110
vn 1.0000 0.0000 0.0000
vn 0.9913 0.1318 0.0000
vn 0.9658 0.2591 0.0000
vn 0.9912 0.1324 -0.0000
vn 0.9659 0.2591 0.0000
vn 0.9659 -0.2590 -0.0000
vn 0.9913 -0.1319 -0.0000
vn 0.9912 -0.1323 0.0000
vn 0.8658 0.5004 0.0000
vn 0.8659 -0.5002 -0.0000
vn 0.8659 -0.5003 -0.0000
vn 0.7063 0.7079 -0.0000
vn 0.7065 0.7078 0.0000
vn 0.7067 -0.7075 -0.0000
vn 0.7065 -0.7078 -0.0000
vn 0.5003 0.8658 0.0000
vn 0.5004 0.8658 0.0000
vn 0.4994 -0.8664 -0.0000
vn 0.4998 -0.8661 -0.0000
vn 0.2591 0.9658 0.0000
vn 0.2593 0.9658 -0.0000
vn 0.2588 -0.9659 0.0000
vn 0.1309 0.9914 0.0000
vn 0.1296 0.9916 -0.0000
vn 0.1311 -0.9914 -0.0000
vn 0.1305 -0.9914 0.0000
vn 0.0000 1.0000 0.0000
vn 0.0000 -1.0000 -0.0000
vn -0.1313 0.9913 0.0000
vn -0.2590 0.9659 0.0000
vn -0.1297 0.9916 0.0000
vn -0.1311 -0.9914 0.0000
vn -0.2588 -0.9659 -0.0000
vn -0.1306 -0.9914 -0.0000
vn -0.5004 0.8658 0.0000
vn -0.5003 0.8658 0.0000
vn -0.4998 -0.8662 -0.0000
vn -0.4997 -0.8662 -0.0000
vn -0.7072 0.7070 0.0000
vn -0.7071 0.7071 0.0000
vn -0.7072 -0.7070 -0.0000
vn -0.7071 -0.7071 -0.0000
vn -0.8658 0.5004 0.0000
vn -0.8661 -0.4998 -0.0000
vn -0.8664 -0.4994 -0.0000
vn -0.9659 0.2590 0.0000
vn -0.9660 0.2586 0.0000
vn -0.9659 -0.2590 0.0000
vn -0.9660 -0.2587 -0.0000
vn -0.9914 0.1309 -0.0000
vn -0.9914 0.1307 0.0000
vn -0.9914 -0.1309 0.0000
vn -0.9914 -0.1308 -0.0000
vn -1.0000 0.0000 0.0000
vn -0.9658 -0.2592 -0.0000
vn -0.9913 -0.1318 -0.0000
vn -0.9658 -0.2591 -0.0000
vn -0.9912 -0.1324 -0.0000
vn -0.9912 0.1323 0.0000
vn -0.9913 0.1319 0.0000
vn -0.8658 -0.5004 -0.0000
vn -0.8659 0.5002 0.0000
vn -0.8659 0.5003 0.0000
vn -0.7066 -0.7076 -0.0000
vn -0.7063 -0.7079 -0.0000
vn -0.7068 0.7074 0.0000
vn -0.7066 0.7076 0.0000
vn -0.5003 -0.8658 -0.0000
vn -0.5004 -0.8658 -0.0000
vn -0.4996 0.8663 0.0000
vn -0.5000 0.8660 0.0000
vn -0.2590 -0.9659 -0.0000
vn -0.2593 -0.9658 -0.0000
vn -0.2588 0.9659 -0.0000
vn -0.2587 0.9660 0.0000
vn -0.1309 -0.9914 -0.0000
vn -0.1296 -0.9916 -0.0000
vn -0.1311 0.9914 0.0000
vn -0.1305 0.9914 0.0000
vn 0.1297 -0.9916 -0.0000
vn 0.1313 -0.9913 -0.0000
vn 0.2589 -0.9659 0.0000
vn 0.2590 -0.9659 -0.0000
vn 0.1306 0.9914 0.0000
vn 0.1311 0.9914 0.0000
vn 0.2588 0.9659 0.0000
vn 0.2585 0.9660 0.0000
vn 0.5004 -0.8658 -0.0000
vn 0.5003 -0.8658 -0.0000
vn 0.4998 0.8661 0.0000
vn 0.4997 0.8662 0.0000
vn 0.7072 -0.7070 -0.0000
vn 0.7071 -0.7071 -0.0000
vn 0.7072 0.7070 0.0000
vn 0.7071 0.7071 0.0000
vn 0.8660 -0.5001 -0.0000
vn 0.8658 -0.5004 -0.0000
vn 0.8661 0.4998 0.0000
vn 0.8663 0.4996 0.0000
vn 0.9660 -0.2586 -0.0000
vn 0.9659 -0.2589 0.0000
vn 0.9659 0.2590 0.0000
vn 0.9660 0.2587 0.0000
vn 0.9914 -0.1307 -0.0000
vn 0.9914 -0.1309 -0.0000
vn 0.9914 0.1309 0.0000
vn 0.9914 0.1308 0.0000
vn 0.0000 0.0000 1.0000
vn 0.0000 0.0000 -1.0000
vn -0.0000 0.9914 -0.1305
vn 0.0000 0.9658 -0.2592
vn 0.0000 0.9915 -0.1298
vn 0.0000 0.9659 -0.2590
vn 0.0000 0.9659 0.2589
vn 0.0000 0.9914 0.1308
vn 0.0000 0.9659 0.2590
vn -0.0000 0.9915 0.1304
vn -0.0000 -0.1303 0.9915
vn -0.0000 -0.2589 0.9659
vn 0.0000 -0.2588 0.9659
vn -0.0000 0.2589 0.9659
vn 0.0000 0.1302 0.9915
vn 0.0000 0.2590 0.9659
vn -0.0000 -0.9661 -0.2583
vn 0.0000 -0.9913 -0.1313
vn 0.0000 -0.9658 -0.2593
vn -0.0000 -0.9916 -0.1294
vn -0.0000 -0.9913 0.1314
vn 0.0000 -0.9661 0.2583
vn 0.0000 -0.9915 0.1304
vn 0.0000 -0.9660 0.2584
vn 0.0000 -0.1321 -0.9912
vn 0.0000 -0.2592 -0.9658
vn 0.0000 -0.2593 -0.9658
vn -0.0000 -0.1325 -0.9912
vn 0.0000 0.2593 -0.9658
vn -0.0000 0.1321 -0.9912
vn 0.0000 0.1324 -0.9912
vn 0.0000 0.2590 -0.9659
vn 0.0000 0.8657 -0.5005
vn 0.0000 0.8659 -0.5002
vn 0.0000 0.8658 0.5003
vn 0.0000 -0.4994 0.8664
vn 0.0000 -0.5002 0.8659
vn 0.0000 0.5004 0.8658
vn 0.0000 0.5003 0.8659
vn 0.0000 -0.8662 -0.4997
vn 0.0000 -0.8661 -0.4999
vn 0.0000 -0.8660 0.5000
vn 0.0000 -0.8664 0.4993
vn 0.0000 -0.4998 -0.8661
vn -0.0000 -0.5000 -0.8660
vn 0.0000 0.5004 -0.8658
vn 0.0000 0.5003 -0.8658
vn 0.0000 0.7074 -0.7068
vn 0.0000 0.7078 -0.7064
vn 0.0000 0.7071 0.7071
vn 0.0000 -0.7070 0.7072
vn 0.0000 -0.7072 0.7070
vn 0.0000 -0.7078 -0.7064
vn -0.0000 -0.7079 -0.7063
vn 0.0000 -0.9659 0.2589
vn 0.0000 -0.9914 0.1305
vn 0.0000 -0.9658 0.2591
vn 0.0000 -0.9915 0.1298
vn 0.0000 -0.9915 -0.1304
vn 0.0000 -0.9659 -0.2588
vn -0.0000 -0.9914 -0.1308
vn -0.0000 0.1303 -0.9915
vn 0.0000 0.2589 -0.9659
vn 0.0000 -0.2590 -0.9659
vn -0.0000 -0.2589 -0.9659
vn 0.0000 -0.1302 -0.9915
vn 0.0000 0.9916 0.1294
vn -0.0000 0.9660 0.2584
vn -0.0000 0.9913 0.1313
vn 0.0000 0.9658 0.2592
vn 0.0000 0.9661 -0.2581
vn 0.0000 0.9913 -0.1314
vn 0.0000 0.9661 -0.2583
vn 0.0000 0.9915 -0.1304
vn 0.0000 0.1325 0.9912
vn 0.0000 0.1321 0.9912
vn 0.0000 0.2592 0.9658
vn 0.0000 0.2593 0.9658
vn 0.0000 -0.2591 0.9659
vn 0.0000 -0.2594 0.9658
vn 0.0000 -0.1321 0.9912
vn -0.0000 -0.1324 0.9912
vn 0.0000 -0.8659 0.5002
vn 0.0000 -0.8657 0.5005
vn 0.0000 -0.8658 -0.5003
vn 0.0000 0.4992 -0.8665
vn 0.0000 0.5001 -0.8659
vn 0.0000 -0.5003 -0.8659
vn 0.0000 -0.5004 -0.8658
vn 0.0000 0.8662 0.4997
vn 0.0000 0.8662 0.4998
vn 0.0000 0.8664 -0.4994
vn 0.0000 0.8661 -0.4999
vn 0.0000 0.4998 0.8662
vn -0.0000 0.5000 0.8660
vn 0.0000 -0.5003 0.8658
vn 0.0000 -0.5004 0.8658
vn 0.0000 -0.7074 0.7068
vn 0.0000 -0.7075 0.7068
vn 0.0000 -0.7071 -0.7071
vn 0.0000 0.7070 -0.7072
vn 0.0000 0.7072 -0.7070
vn 0.0000 0.7078 0.7064
usemtl Default_OBJ.016
s 1
f 1//1 2//1 3//1
f 2//1 1//1 4//1
f 5//2 6//3 7//4
f 6//3 5//2 8//5
f 9//6 10//7 11//6
f 10//7 9//6 12//8
f 8//5 13//9 6//3
f 13//9 8//5 14//9
f 15//10 11//6 16//11
f 11//6 15//10 9//6
f 14//9 17//12 13//9
f 17//12 14//9 18//13
f 19//14 16//11 20//15
f 16//11 19//14 15//10
f 17//12 21//16 22//17
f 21//16 17//12 18//13
f 19//14 23//18 24//19
f 23//18 19//14 20//15
f 22//17 25//20 26//21
f 25//20 22//17 21//16
f 24//19 27//22 28//22
f 27//22 24//19 23//18
f 26//21 29//23 30//24
f 29//23 26//21 25//20
f 28//22 31//25 32//26
f 31//25 28//22 27//22
f 33//27 34//27 35//27
f 34//27 33//27 36//27
f 37//28 38//28 39//28
f 38//28 37//28 40//28
f 41//29 42//30 43//30
f 42//30 41//29 44//31
f 45//32 46//33 47//33
f 46//33 45//32 48//34
f 43//30 49//35 50//36
f 49//35 43//30 42//30
f 47//33 51//37 52//38
f 51//37 47//33 46//33
f 50//36 53//39 54//40
f 53//39 50//36 49//35
f 52//38 55//41 56//42
f 55//41 52//38 51//37
f 53//39 57//43 54//40
f 57//43 53//39 58//43
f 59//44 55//41 60//45
f 55//41 59//44 56//42
f 58//43 61//46 57//43
f 61//46 58//43 62//47
f 63//48 60//45 64//49
f 60//45 63//48 59//44
f 62//47 65//50 61//46
f 65//50 62//47 66//51
f 67//52 64//49 68//53
f 64//49 67//52 63//48
f 69//54 70//54 71//54
f 70//54 69//54 72//54
f 73//54 74//54 75//54
f 76//54 75//54 74//54
f 77//55 78//56 79//57
f 80//58 79//57 78//56
f 81//59 82//46 83//60
f 84//46 83//60 82//46
f 85//61 77//55 86//61
f 79//57 86//61 77//55
f 82//46 87//62 84//46
f 88//63 84//46 87//62
f 89//64 85//61 90//65
f 86//61 90//65 85//61
f 87//62 91//66 88//63
f 92//67 88//63 91//66
f 89//64 90//65 93//68
f 94//69 93//68 90//65
f 92//67 91//66 95//70
f 96//71 95//70 91//66
f 93//68 94//69 97//72
f 98//73 97//72 94//69
f 95//70 96//71 99//74
f 100//75 99//74 96//71
f 97//72 98//73 101//76
f 102//77 101//76 98//73
f 99//74 100//75 103//78
f 104//79 103//78 100//75
f 105//28 106//28 107//28
f 108//28 107//28 106//28
f 109//27 110//27 111//27
f 112//27 111//27 110//27
f 113//80 114//81 115//82
f 116//83 115//82 114//81
f 117//84 118//85 119//86
f 120//87 119//86 118//85
f 115//82 116//83 121//88
f 122//89 121//88 116//83
f 119//86 120//87 123//90
f 124//91 123//90 120//87
f 121//88 122//89 125//92
f 126//93 125//92 122//89
f 123//90 124//91 127//94
f 128//95 127//94 124//91
f 129//96 125//92 130//97
f 126//93 130//97 125//92
f 128//95 131//98 127//94
f 132//99 127//94 131//98
f 133//100 129//96 134//101
f 130//97 134//101 129//96
f 131//98 135//102 132//99
f 136//103 132//99 135//102
f 137//104 133//100 138//105
f 134//101 138//105 133//100
f 135//102 139//106 136//103
f 140//107 136//103 139//106
f 141//1 142//1 143//1
f 144//1 143//1 142//1
f 145//108 146//108 147//108
f 146//108 145//108 148//108
f 149//109 150//109 151//109
f 150//109 149//109 152//109
f 153//110 154//111 155//112
f 154//111 153//110 156//113
f 157//114 158//115 159//116
f 158//115 157//114 160//117
f 161//118 162//119 163//120
f 162//119 161//118 164//118
f 165//121 166//122 167//122
f 166//122 165//121 168//123
f 169//124 170//125 171//126
f 170//125 169//124 172//127
f 173//128 174//129 175//130
f 174//129 173//128 176//131
f 177//132 178//133 179//134
f 178//133 177//132 180//135
f 181//136 182//137 183//138
f 182//137 181//136 184//139
f 156//113 185//140 154//111
f 185//140 156//113 186//141
f 187//142 159//116 188//142
f 159//116 187//142 157//114
f 163//120 189//143 190//144
f 189//143 163//120 162//119
f 191//145 168//123 165//121
f 168//123 191//145 192//146
f 193//147 171//126 194//148
f 171//126 193//147 169//124
f 176//131 195//149 174//129
f 195//149 176//131 196//150
f 179//134 197//151 198//152
f 197//151 179//134 178//133
f 199//153 184//139 181//136
f 184//139 199//153 200//154
f 186//141 201//155 185//140
f 201//155 186//141 202//156
f 203//157 188//142 204//157
f 188//142 203//157 187//142
f 190//144 205//158 206//159
f 205//158 190//144 189//143
f 203//157 192//146 191//145
f 192//146 203//157 204//157
f 207//160 194//148 208//161
f 194//148 207//160 193//147
f 196//150 205//158 195//149
f 205//158 196//150 206//159
f 198//152 207//160 208//161
f 207//160 198//152 197//151
f 201//155 200//154 199//153
f 200//154 201//155 202//156
f 209//109 210//109 211//109
f 212//109 211//109 210//109
f 213//108 214//108 215//108
f 216//108 215//108 214//108
f 217//162 218//163 219//164
f 220//165 219//164 218//163
f 221//166 222//167 223//168
f 224//167 223//168 222//167
f 225//169 226//169 227//139
f 228//170 227//139 226//169
f 229//171 230//172 231//173
f 232//173 231//173 230//172
f 233//174 234//175 235//176
f 236//177 235//176 234//175
f 237//178 238//179 239//180
f 240//181 239//180 238//179
f 241//182 242//183 243//184
f 244//185 243//184 242//183
f 245//186 246//187 247//188
f 248//189 247//188 246//187
f 249//190 217//162 250//191
f 219//164 250//191 217//162
f 222//167 251//192 224//167
f 252//192 224//167 251//192
f 227//139 228//170 253//193
f 254//194 253//193 228//170
f 255//195 256//196 229//171
f 230//172 229//171 256//196
f 234//175 257//197 236//177
f 258//198 236//177 257//197
f 259//199 237//178 260//200
f 239//180 260//200 237//178
f 243//184 244//185 261//201
f 262//202 261//201 244//185
f 263//203 264//204 245//186
f 246//187 245//186 264//204
f 265//205 249//190 266//206
f 250//191 266//206 249//190
f 251//192 267//207 252//192
f 268//207 252//192 267//207
f 253//193 254//194 269//208
f 270//209 269//208 254//194
f 268//207 267//207 255//195
f 256//196 255//195 267//207
f 257//197 271//210 258//198
f 272//210 258//198 271//210
f 270//209 259//199 269//208
f 260//200 269//208 259//199
f 261//201 262//202 271//210
f 272//210 271//210 262//202
f 265//205 266//206 263//203
f 264//204 263//203 266//206