# Blender v3.0.1 OBJ File: ''
# www.blender.org
mtllib 01.mtl
o Crossbar_Legs_Front_Cylinder.038
v -0.257178 -0.212388 0.375632
v 0.253987 -0.214243 0.382550
v 0.253544 -0.212388 0.375630
v -0.257729 -0.214243 0.382550
v 0.255199 -0.219308 0.387616
v -0.259237 -0.219308 0.387618
v 0.256856 -0.226229 0.389470
v -0.261296 -0.226229 0.389470
v 0.258512 -0.233149 0.387616
v -0.263356 -0.233149 0.387618
v 0.259724 -0.238214 0.382550
v -0.264864 -0.238214 0.382552
v 0.260169 -0.240069 0.375630
v -0.264864 -0.238214 0.368712
v 0.259724 -0.238214 0.368710
v -0.263356 -0.233149 0.363644
v 0.258512 -0.233149 0.363644
v -0.261296 -0.226229 0.361791
v 0.256856 -0.226229 0.361790
v -0.259237 -0.219308 0.363644
v 0.255199 -0.219308 0.363644
v -0.257729 -0.214243 0.368710
v 0.253987 -0.214243 0.368710
v -0.265415 -0.240069 0.375632
vt 0.751658 0.328088
vt 0.984159 0.324021
vt 0.983969 0.328079
vt 0.751345 0.324029
vt 0.984697 0.319948
vt 0.750487 0.319953
vt 0.985438 0.315846
vt 0.749307 0.315848
vt 0.986179 0.311712
vt 0.748117 0.311709
vt 0.986718 0.307547
vt 0.747240 0.307541
vt 0.986907 0.303364
vt 0.747184 0.299172
vt 0.986663 0.299178
vt 0.747887 0.295004
vt 0.985974 0.295008
vt 0.748840 0.290865
vt 0.985032 0.290865
vt 0.985817 0.340324
vt 0.750696 0.336222
vt 0.984883 0.336217
vt 0.751394 0.332147
vt 0.984207 0.332139
vt 0.746918 0.303357
vt 0.749744 0.340326
vn 0.0000 1.0000 0.0001
vn 0.0000 0.8564 0.5163
vn 0.0000 1.0000 -0.0000
vn 0.0000 0.8542 0.5199
vn 0.0000 0.4711 0.8821
vn 0.0000 0.4644 0.8856
vn 0.0000 -0.0387 0.9992
vn 0.0000 -0.0477 0.9989
vn 0.0000 -0.5294 0.8483
vn 0.0000 -0.5363 0.8440
vn 0.0000 -0.8760 0.4824
vn 0.0000 -0.8784 0.4779
vn 0.0000 -1.0000 -0.0000
vn -0.0000 -0.8784 -0.4779
vn -0.0000 -0.8760 -0.4824
vn -0.0000 -0.5365 -0.8439
vn -0.0000 -0.5294 -0.8483
vn -0.0000 -0.0477 -0.9989
vn -0.0000 -0.0387 -0.9992
vn -0.0000 0.4644 -0.8856
vn 0.0000 0.4711 -0.8821
vn 0.0000 0.8542 -0.5200
vn -0.0000 0.8564 -0.5163
usemtl Black_Chair.001
s 1
f 1/1/1 2/2/2 3/3/3
f 4/4/4 5/5/5 2/2/2
f 6/6/6 7/7/7 5/5/5
f 8/8/8 9/9/9 7/7/7
f 10/10/10 11/11/11 9/9/9
f 12/12/12 13/13/13 11/11/11
f 13/13/13 14/14/14 15/15/15
f 15/15/15 16/16/16 17/17/17
f 17/17/17 18/18/18 19/19/19
f 19/20/19 20/21/20 21/22/21
f 21/22/21 22/23/22 23/24/23
f 23/24/23 1/1/1 3/3/3
f 1/1/1 4/4/4 2/2/2
f 4/4/4 6/6/6 5/5/5
f 6/6/6 8/8/8 7/7/7
f 8/8/8 10/10/10 9/9/9
f 10/10/10 12/12/12 11/11/11
f 12/12/12 24/25/13 13/13/13
f 13/13/13 24/25/13 14/14/14
f 15/15/15 14/14/14 16/16/16
f 17/17/17 16/16/16 18/18/18
f 19/20/19 18/26/18 20/21/20
f 21/22/21 20/21/20 22/23/22
f 23/24/23 22/23/22 1/1/1