# Blender v3.0.1 OBJ File: ''
# www.blender.org
mtllib 00.mtl
o model_normalized.009
v -0.017910 0.191321 0.644678
v 0.001340 -0.647978 0.645990
v -0.017910 -0.647978 0.644678
v 0.020589 -0.647978 0.647302
v 0.020589 0.191321 0.647303
v 0.017965 0.191321 0.685802
v -0.020534 0.191321 0.683176
v -0.020534 -0.647978 0.683176
v -0.019222 -0.647978 0.663926
v -0.018226 -0.647978 0.658989
v -0.015987 -0.647978 0.654478
v -0.012656 -0.647978 0.650700
v -0.008461 -0.647978 0.647912
v -0.003687 -0.647978 0.646307
v 0.001340 -0.657626 0.645990
v -0.003687 -0.657626 0.646307
v -0.001285 -0.657626 0.684488
v -0.006222 -0.657626 0.683492
v -0.008461 -0.657626 0.647912
v -0.010734 -0.657626 0.681254
v -0.012656 -0.657626 0.650700
v -0.014512 -0.657626 0.677922
v -0.015987 -0.657626 0.654478
v -0.017299 -0.657626 0.673728
v -0.018906 -0.657626 0.668954
v -0.018226 -0.657626 0.658989
v -0.019222 -0.657626 0.663926
v -0.018906 -0.647978 0.668954
v -0.017299 -0.647978 0.673728
v -0.014512 -0.647978 0.677922
v -0.010734 -0.647978 0.681254
v -0.006222 -0.647978 0.683492
v -0.001285 -0.647978 0.684488
v 0.003742 -0.647978 0.684172
v 0.003742 -0.657626 0.684172
v 0.006277 -0.657626 0.646986
v 0.006277 -0.647978 0.646986
v 0.010789 -0.647978 0.649224
v 0.014567 -0.647978 0.652556
v 0.017354 -0.647978 0.656751
v 0.018961 -0.647978 0.661524
v 0.019277 -0.647978 0.666552
v 0.017965 -0.647978 0.685802
v 0.008516 -0.647978 0.682566
v 0.008516 -0.657626 0.682566
v 0.010789 -0.657626 0.649224
v 0.014567 -0.657626 0.652556
v 0.017354 -0.657626 0.656751
v 0.018961 -0.657626 0.661524
v 0.019277 -0.657626 0.666552
v 0.018281 -0.647978 0.671490
v 0.018281 -0.657626 0.671490
v 0.016042 -0.647978 0.676001
v 0.016042 -0.657626 0.676001
v 0.012711 -0.647978 0.679778
v 0.012711 -0.657626 0.679778
v 0.000027 -0.647978 -0.753345
v -0.019222 0.191321 -0.754657
v 0.019277 -0.647978 -0.752031
v -0.019222 -0.647978 -0.754657
v -0.020534 -0.647978 -0.735407
v 0.019277 0.191321 -0.752031
v 0.016652 0.191321 -0.713533
v -0.021847 0.191321 -0.716157
v -0.021847 -0.647978 -0.716157
v -0.019539 -0.647978 -0.740345
v -0.020534 -0.657625 -0.735407
v -0.020218 -0.657625 -0.730379
v -0.020218 -0.647978 -0.730379
v -0.019539 -0.657625 -0.740345
v -0.017299 -0.657625 -0.744856
v -0.017299 -0.647978 -0.744856
v -0.013968 -0.647978 -0.748634
v -0.013968 -0.657625 -0.748634
v -0.015824 -0.657625 -0.721411
v -0.018612 -0.657625 -0.725606
v -0.018612 -0.647978 -0.725606
v -0.015824 -0.647978 -0.721411
v -0.012046 -0.657625 -0.718081
v -0.012046 -0.647978 -0.718081
v -0.007535 -0.647978 -0.715841
v -0.007535 -0.657625 -0.715841
v -0.002597 -0.647978 -0.714845
v -0.002597 -0.657625 -0.714845
v 0.002430 -0.647978 -0.715162
v 0.016652 -0.647978 -0.713533
v 0.002430 -0.657625 -0.715162
v 0.007203 -0.647978 -0.716767
v 0.011399 -0.647978 -0.719555
v 0.007203 -0.657625 -0.716767
v 0.014730 -0.647978 -0.723333
v 0.014730 -0.657625 -0.723333
v 0.011399 -0.657625 -0.719555
v 0.009476 -0.657625 -0.750109
v 0.013255 -0.657625 -0.746777
v 0.009476 -0.647978 -0.750109
v 0.013255 -0.647978 -0.746777
v 0.016042 -0.647978 -0.742583
v 0.016042 -0.657625 -0.742583
v 0.017648 -0.647978 -0.737809
v 0.017965 -0.647978 -0.732783
v 0.017648 -0.657625 -0.737809
v 0.016969 -0.657625 -0.727846
v 0.017965 -0.657625 -0.732783
v 0.016969 -0.647978 -0.727846
v 0.004965 -0.647978 -0.752350
v 0.004965 -0.657625 -0.752350
v 0.000027 -0.657625 -0.753345
v -0.004999 -0.647978 -0.753029
v -0.004999 -0.657625 -0.753029
v -0.009773 -0.647978 -0.751422
v -0.009773 -0.657625 -0.751422
v 0.020415 -0.319976 -0.713510
v -0.017587 -0.319976 0.644962
v 0.020893 -0.319976 0.647856
v -0.018085 -0.319976 -0.716136
v -0.018085 -0.358565 -0.716136
v 0.020893 -0.358565 0.647856
v -0.017587 -0.358565 0.644962
v 0.020415 -0.358565 -0.713510
vt 0.000000 17.322800
vt -0.393701 0.196850
vt 0.000000 0.196850
vt -0.787402 0.196850
vt -0.787402 17.322800
vt 0.000000 0.787402
vt 0.787402 0.000000
vt 0.787402 0.787402
vt 0.000000 0.000000
vt -0.787402 17.322800
vt 0.000000 0.196850
vt 0.000000 17.322800
vt -0.393701 0.196850
vt -0.787402 0.196850
vt 0.000000 0.787402
vt -0.013415 0.495598
vt -0.000000 0.393701
vt -0.052746 0.590551
vt -0.115312 0.672089
vt -0.196850 0.734656
vt -0.291804 0.773987
vt -0.393701 0.787402
vt -0.493109 0.000000
vt -0.390333 0.196850
vt -0.493109 0.196850
vt -0.390333 0.000000
vt -0.393701 -0.000000
vt -0.291804 0.773987
vt -0.393701 0.787402
vt -0.291804 0.013415
vt -0.196850 0.734656
vt -0.196850 0.052746
vt -0.115312 0.672089
vt -0.115312 0.115312
vt -0.052746 0.590551
vt -0.052746 0.196850
vt -0.013415 0.291804
vt -0.013415 0.495598
vt -0.000000 0.393701
vt -0.287556 -0.000000
vt -0.390333 0.196850
vt -0.390333 -0.000000
vt -0.287556 0.196850
vt -0.161681 -0.000000
vt -0.264458 0.196850
vt -0.264458 -0.000000
vt -0.161681 0.196850
vt -0.021286 -0.000000
vt -0.124062 0.196850
vt -0.124062 -0.000000
vt -0.021286 0.196850
vt 0.124062 0.000000
vt 0.021286 0.196850
vt 0.021286 -0.000000
vt 0.124062 0.196850
vt 0.161681 0.000000
vt 0.264458 0.196850
vt 0.161681 0.196850
vt 0.264458 0.000000
vt 0.287556 0.000000
vt 0.390333 0.196850
vt 0.287556 0.196850
vt 0.390333 0.000000
vt 0.493109 0.196850
vt 0.493109 0.000000
vt -0.495598 0.013415
vt -0.495598 0.773987
vt -0.287556 0.196850
vt -0.390333 0.000000
vt -0.287556 0.000000
vt -0.390333 0.196850
vt -0.787402 0.787402
vt -0.495598 0.773987
vt -0.590551 0.734656
vt -0.672089 0.672089
vt -0.734656 0.590551
vt -0.773987 0.495598
vt -0.787402 0.393701
vt 0.787402 17.322800
vt 0.393701 0.196850
vt 0.787402 0.196850
vt 0.000000 17.322800
vt 0.000000 0.196850
vt 0.787402 17.322800
vt 0.393701 0.196850
vt 0.787402 0.196850
vt 0.000000 0.000000
vt -0.291804 0.013415
vt -0.393701 -0.000000
vt -0.196850 0.052746
vt -0.115312 0.115312
vt -0.052746 0.196850
vt -0.013415 0.291804
vt -0.495598 0.013415
vt -0.787402 0.000000
vt -0.590551 0.052746
vt 0.463007 0.000000
vt 0.565783 0.196850
vt 0.463007 0.196850
vt 0.565783 0.000000
vt -0.590551 0.052746
vt -0.590551 0.734656
vt -0.161681 0.196850
vt -0.264458 0.000000
vt -0.161681 0.000000
vt -0.264458 0.196850
vt -0.021286 0.196850
vt -0.124062 0.000000
vt -0.021286 0.000000
vt -0.124062 0.196850
vt 0.021286 0.196850
vt 0.124062 0.000000
vt 0.124062 0.196850
vt 0.021286 0.000000
vt 0.161681 0.196850
vt 0.264458 0.000000
vt 0.264458 0.196850
vt 0.161681 0.000000
vt 0.287556 0.196850
vt 0.390333 0.000000
vt 0.390333 0.196850
vt 0.287556 0.000000
vt 0.390333 0.196850
vt 0.493109 0.000000
vt 0.493109 0.196850
vt 0.390333 0.000000
vt 0.463007 0.196850
vt 0.565783 0.000000
vt 0.565783 0.196850
vt 0.463007 0.000000
vt 0.500625 0.196850
vt 0.603402 0.000000
vt 0.603402 0.196850
vt 0.500625 0.000000
vt 0.603402 0.196850
vt 0.500625 0.000000
vt 0.603402 0.000000
vt 0.500625 0.196850
vt -0.672089 0.115312
vt -0.734656 0.196850
vt -0.773987 0.291804
vt -0.672089 0.115312
vt -0.672089 0.672089
vt -0.734656 0.196850
vt -0.734656 0.590551
vt -0.773987 0.291804
vt -0.773987 0.495598
vt -0.787402 0.393701
vt -0.493109 0.196850
vt -0.493109 -0.000000
vt -0.565783 0.196850
vt -0.463007 -0.000000
vt -0.463007 0.196850
vt -0.565783 -0.000000
vt -0.603402 0.196850
vt -0.500625 -0.000000
vt -0.500625 0.196850
vt -0.603402 -0.000000
vt -0.500625 0.196850
vt -0.603402 0.000000
vt -0.500625 0.000000
vt -0.603402 0.196850
vt -0.463007 0.196850
vt -0.565783 0.000000
vt -0.463007 0.000000
vt -0.565783 0.196850
vt -0.393701 0.196850
vt 0.000000 17.322800
vt -0.787402 0.196850
vt 0.000000 0.196850
vt -0.393701 0.196850
vt -0.787402 17.322800
vt -0.787402 0.196850
vt -0.787402 17.322800
vt 0.000000 0.787402
vt 0.787402 0.000000
vt 0.787402 0.787402
vt 0.000000 0.000000
vt 0.000000 0.196850
vt 0.000000 17.322800
vt -0.493109 0.196850
vt -0.390333 -0.000000
vt -0.390333 0.196850
vt 0.000000 0.787402
vt -0.013415 0.495598
vt -0.000000 0.393701
vt -0.287556 -0.000000
vt -0.287556 0.196850
vt -0.013415 0.291804
vt 0.000000 0.000000
vt -0.013415 0.495598
vt -0.013415 0.291804
vt -0.000000 0.393701
vt -0.493109 -0.000000
vt -0.052746 0.590551
vt -0.565783 0.196850
vt -0.463007 -0.000000
vt -0.463007 0.196850
vt -0.565783 -0.000000
vt -0.603402 0.196850
vt -0.500625 -0.000000
vt -0.500625 0.196850
vt -0.603402 -0.000000
vt -0.115312 0.115312
vt -0.115312 0.672089
vt -0.052746 0.196850
vt -0.021286 -0.000000
vt -0.124062 0.196850
vt -0.124062 -0.000000
vt -0.161681 -0.000000
vt -0.264458 0.196850
vt -0.264458 -0.000000
vt -0.161681 0.196850
vt -0.052746 0.196850
vt -0.115312 0.115312
vt -0.021286 0.196850
vt 0.021286 0.196850
vt 0.124062 0.000000
vt 0.124062 0.196850
vt 0.021286 -0.000000
vt -0.196850 0.052746
vt 0.161681 0.000000
vt 0.264458 0.196850
vt 0.161681 0.196850
vt -0.291804 0.013415
vt 0.287556 0.000000
vt 0.390333 0.196850
vt 0.287556 0.196850
vt 0.264458 0.000000
vt -0.393701 -0.000000
vt 0.390333 0.000000
vt 0.493109 0.196850
vt -0.495598 0.013415
vt -0.787402 0.000000
vt 0.787402 17.322800
vt 0.393701 0.196850
vt 0.787402 0.196850
vt 0.493109 0.000000
vt 0.463007 0.000000
vt 0.565783 0.196850
vt 0.463007 0.196850
vt -0.590551 0.052746
vt -0.672089 0.115312
vt 0.565783 0.000000
vt 0.500625 0.000000
vt 0.603402 0.196850
vt 0.500625 0.196850
vt -0.734656 0.196850
vt 0.500625 0.196850
vt 0.603402 0.000000
vt 0.603402 0.196850
vt 0.603402 0.000000
vt 0.500625 0.000000
vt -0.590551 0.052746
vt -0.590551 0.734656
vt -0.672089 0.115312
vt -0.672089 0.672089
vt -0.734656 0.196850
vt -0.124062 0.000000
vt -0.021286 0.196850
vt -0.124062 0.196850
vt -0.021286 0.000000
vt 0.021286 0.196850
vt 0.124062 0.000000
vt 0.124062 0.196850
vt -0.734656 0.590551
vt 0.021286 0.000000
vt -0.734656 0.590551
vt -0.787402 0.787402
vt -0.773987 0.495598
vt -0.672089 0.672089
vt 0.161681 0.196850
vt 0.264458 0.000000
vt 0.264458 0.196850
vt 0.287556 0.196850
vt 0.390333 0.000000
vt 0.390333 0.196850
vt -0.787402 0.393701
vt 0.161681 0.000000
vt -0.773987 0.291804
vt -0.773987 0.495598
vt -0.787402 0.393701
vt 0.287556 0.000000
vt 0.493109 0.000000
vt 0.390333 0.196850
vt 0.390333 0.000000
vt 0.463007 0.196850
vt 0.565783 0.000000
vt 0.565783 0.196850
vt 0.463007 0.000000
vt -0.773987 0.291804
vt 0.493109 0.196850
vt 0.393701 0.196850
vt 0.000000 17.322800
vt 0.000000 0.196850
vt 0.787402 17.322800
vt 0.787402 0.196850
vt -0.590551 0.734656
vt -0.495598 0.773987
vt -0.264458 0.000000
vt -0.161681 0.196850
vt -0.264458 0.196850
vt -0.393701 0.787402
vt -0.390333 0.000000
vt -0.287556 0.196850
vt -0.390333 0.196850
vt -0.161681 0.000000
vt -0.287556 0.000000
vt -0.495598 0.013415
vt -0.495598 0.773987
vt -0.393701 0.787402
vt -0.493109 0.000000
vt -0.390333 0.196850
vt -0.493109 0.196850
vt -0.390333 0.000000
vt -0.393701 -0.000000
vt -0.291804 0.773987
vt -0.565783 0.000000
vt -0.463007 0.196850
vt -0.565783 0.196850
vt -0.463007 0.000000
vt -0.291804 0.013415
vt -0.196850 0.734656
vt -0.196850 0.052746
vt -0.500625 0.196850
vt -0.603402 0.000000
vt -0.500625 0.000000
vt -0.603402 0.196850
vt -0.196850 0.734656
vt -0.291804 0.773987
vt -0.115312 0.672089
vt -0.052746 0.590551
vt 0.049441 0.785848
vt 27.772900 0.155578
vt 27.827801 0.941062
vt -0.000000 -0.000000
vt -0.000000 5.905510
vt 27.773300 6.692910
vt -0.000000 6.692910
vt 2.092540 6.692910
vt 2.879940 5.905510
vt 2.879940 6.692910
vt 2.092540 5.905510
vt 27.773300 5.905510
vt -0.787402 5.905510
vt -0.049441 0.785848
vt -27.772900 0.155578
vt 0.000000 -0.000000
vt -27.832701 6.692910
vt -0.053831 5.905510
vt -0.053831 6.692910
vt -0.787402 6.692910
vt -27.832701 5.905510
vt -27.827801 0.941062
vn 0.0680 0.0000 -0.9977
vn 0.0000 1.0000 0.0000
vn -0.9977 0.0000 -0.0680
vn 0.0000 -1.0000 0.0000
vn 0.0000 -1.0000 -0.0001
vn -0.0629 0.0000 -0.9980
vn -0.9980 0.0000 0.0627
vn -0.9477 0.0000 0.3190
vn -0.8329 0.0000 0.5535
vn -0.6614 0.0000 0.7500
vn -0.6615 0.0000 0.7500
vn -0.4443 0.0000 0.8959
vn -0.4444 0.0000 0.8959
vn -0.4444 0.0000 0.8958
vn -0.1978 0.0000 0.9803
vn 0.0627 0.0000 0.9980
vn 0.1978 0.0000 -0.9803
vn 0.9977 -0.0000 0.0680
vn -0.0681 -0.0000 0.9977
vn -0.0680 -0.0000 0.9977
vn 0.0000 -1.0000 0.0001
vn 0.3189 0.0000 0.9478
vn 0.3188 0.0000 0.9478
vn 0.4443 0.0000 -0.8959
vn 0.4444 0.0000 -0.8958
vn 0.6615 0.0000 -0.7500
vn 0.6614 0.0000 -0.7500
vn 0.8329 0.0000 -0.5534
vn 0.9477 0.0000 -0.3191
vn 0.9980 0.0000 -0.0627
vn 0.9803 0.0000 0.1977
vn 0.8957 0.0000 0.4446
vn 0.7500 0.0000 0.6614
vn 0.7500 0.0000 0.6615
vn 0.5535 0.0000 0.8328
vn 0.5535 0.0000 0.8329
vn -0.9803 0.0000 -0.1978
vn -0.8957 0.0000 -0.4446
vn -0.7501 0.0000 -0.6613
vn -0.5535 0.0000 -0.8328
vn -0.5535 0.0000 -0.8329
vn -0.3187 0.0000 -0.9479
vn 0.0681 0.0000 -0.9977
vn -0.9803 0.0000 -0.1975
vn -0.8957 0.0000 -0.4448
vn -0.8957 0.0000 -0.4447
vn -0.8328 0.0000 0.5535
vn -0.9478 0.0000 0.3189
vn -0.6612 0.0000 0.7502
vn -0.4448 0.0000 0.8957
vn -0.4447 0.0000 0.8957
vn 0.0000 -1.0000 0.0002
vn -0.1977 0.0000 0.9803
vn -0.4448 0.0000 0.8956
vn 0.0629 0.0000 0.9980
vn 0.3187 0.0000 0.9478
vn 0.5534 0.0000 0.8329
vn 0.7501 0.0000 0.6613
vn 0.6614 0.0000 -0.7501
vn 0.8329 0.0000 -0.5535
vn 0.9478 0.0000 -0.3189
vn 0.9980 0.0000 -0.0629
vn 0.9478 0.0000 -0.3188
vn 0.9803 0.0000 0.1978
vn 0.8958 0.0000 0.4444
vn 0.9977 -0.0000 0.0681
vn 0.0000 -1.0000 -0.0002
vn 0.4449 0.0000 -0.8956
vn 0.1975 0.0000 -0.9803
vn -0.0628 0.0000 -0.9980
vn -0.0627 0.0000 -0.9980
vn -0.3190 0.0000 -0.9477
vn -0.3190 0.0000 -0.9478
vn -1.0000 0.0000 0.0004
vn -0.0750 0.0000 0.9972
vn 1.0000 0.0000 -0.0004
usemtl Color_009.006
s 1
f 1/1/1 2/2/1 3/3/1
f 2/2/1 1/1/1 4/4/1
f 4/4/1 1/1/1 5/5/1
f 1/6/2 6/7/2 5/8/2
f 6/7/2 1/6/2 7/9/2
f 1/10/3 8/11/3 7/12/3
f 8/11/3 1/10/3 9/13/3
f 9/13/3 1/10/3 3/14/3
f 3/15/4 10/16/4 9/17/4
f 10/16/4 3/15/4 11/18/4
f 11/18/4 3/15/4 12/19/4
f 12/19/4 3/15/4 13/20/4
f 13/20/4 3/15/4 14/21/5
f 14/21/5 3/15/4 2/22/5
f 15/23/6 14/24/6 2/25/6
f 14/24/6 15/23/6 16/26/6
f 17/27/4 16/28/4 15/29/4
f 18/30/4 16/28/4 17/27/4
f 18/30/4 19/31/4 16/28/4
f 20/32/4 19/31/4 18/30/4
f 20/32/4 21/33/4 19/31/4
f 22/34/4 21/33/4 20/32/4
f 22/34/4 23/35/4 21/33/4
f 24/36/4 23/35/4 22/34/4
f 25/37/4 23/35/4 24/36/4
f 25/37/4 26/38/4 23/35/4
f 26/38/4 25/37/4 27/39/4
f 25/40/7 9/41/7 27/42/7
f 9/41/7 25/40/7 28/43/7
f 24/44/8 28/45/8 25/46/8
f 28/45/8 24/44/8 29/47/8
f 22/48/9 29/49/9 24/50/9
f 29/49/9 22/48/9 30/51/9
f 20/52/10 30/53/11 22/54/10
f 30/53/11 20/52/10 31/55/11
f 20/56/12 32/57/13 31/58/14
f 32/57/13 20/56/12 18/59/12
f 18/60/15 33/61/15 32/62/15
f 33/61/15 18/60/15 17/63/15
f 17/63/16 34/64/16 33/61/16
f 34/64/16 17/63/16 35/65/16
f 17/27/4 15/29/4 35/66/4
f 35/66/4 15/29/4 36/67/4
f 2/68/17 36/69/17 15/70/17
f 36/69/17 2/68/17 37/71/17
f 4/72/4 37/73/4 2/22/4
f 37/73/4 4/72/4 38/74/4
f 38/74/4 4/72/4 39/75/4
f 39/75/4 4/72/4 40/76/4
f 40/76/4 4/72/4 41/77/4
f 41/77/4 4/72/4 42/78/4
f 5/79/18 42/80/18 4/81/18
f 6/82/18 42/80/18 5/79/18
f 42/80/18 6/82/18 43/83/18
f 6/84/19 33/85/19 43/86/19
f 33/85/19 6/84/19 8/11/20
f 8/11/20 6/84/19 7/12/19
f 8/87/4 32/88/4 33/89/4
f 32/88/4 8/87/4 31/90/4
f 31/90/4 8/87/4 30/91/4
f 30/91/4 8/87/4 29/92/4
f 29/92/4 8/87/4 28/93/4
f 28/93/4 8/87/4 9/17/4
f 34/94/21 43/95/4 33/89/21
f 43/95/4 34/94/21 44/96/4
f 35/97/22 44/98/23 34/99/23
f 44/98/23 35/97/22 45/100/22
f 35/66/4 36/67/4 45/101/4
f 45/101/4 36/67/4 46/102/4
f 37/103/24 46/104/25 36/105/25
f 46/104/25 37/103/24 38/106/24
f 38/107/26 47/108/27 46/109/27
f 47/108/27 38/107/26 39/110/26
f 40/111/28 47/112/28 39/113/28
f 47/112/28 40/111/28 48/114/28
f 41/115/29 48/116/29 40/117/29
f 48/116/29 41/115/29 49/118/29
f 42/119/30 49/120/30 41/121/30
f 49/120/30 42/119/30 50/122/30
f 51/123/31 50/124/31 42/125/31
f 50/124/31 51/123/31 52/126/31
f 53/127/32 52/128/32 51/129/32
f 52/128/32 53/127/32 54/130/32
f 55/131/33 54/132/33 53/133/34
f 54/132/33 55/131/33 56/134/33
f 55/135/35 45/136/35 56/137/35
f 45/136/35 55/135/35 44/138/36
f 43/95/4 44/96/4 55/139/4
f 43/95/4 55/139/4 53/140/4
f 43/95/4 53/140/4 51/141/4
f 43/95/4 51/141/4 42/78/4
f 45/101/4 46/102/4 56/142/4
f 56/142/4 46/102/4 47/143/4
f 56/142/4 47/143/4 54/144/4
f 54/144/4 47/143/4 48/145/4
f 54/144/4 48/145/4 52/146/4
f 52/146/4 48/145/4 49/147/4
f 52/146/4 49/147/4 50/148/4
f 10/149/37 27/42/37 9/41/37
f 27/42/37 10/149/37 26/150/37
f 11/151/38 26/152/38 10/153/38
f 26/152/38 11/151/38 23/154/38
f 12/155/39 23/156/39 11/157/39
f 23/156/39 12/155/39 21/158/39
f 12/159/40 19/160/40 21/161/41
f 19/160/40 12/159/40 13/162/40
f 13/163/42 16/164/42 19/165/42
f 16/164/42 13/163/42 14/166/42
f 57/167/43 58/168/1 59/169/43
f 58/168/1 57/167/43 60/170/1
f 61/171/3 58/172/3 60/173/3
f 59/169/43 58/168/1 62/174/1
f 58/175/2 63/176/2 62/177/2
f 63/176/2 58/175/2 64/178/2
f 58/172/3 65/179/3 64/180/3
f 65/179/3 58/172/3 61/171/3
f 66/181/44 67/182/44 61/183/44
f 60/184/4 66/185/4 61/186/4
f 61/183/7 68/187/7 69/188/7
f 68/187/7 61/183/7 67/182/7
f 69/189/4 65/190/4 61/186/4
f 70/191/4 68/192/4 67/193/4
f 67/182/44 66/181/44 70/194/44
f 68/192/4 70/191/4 71/195/4
f 72/196/45 70/197/45 66/198/46
f 70/197/45 72/196/45 71/199/45
f 73/200/39 71/201/39 72/202/39
f 71/201/39 73/200/39 74/203/39
f 75/204/4 71/195/4 74/205/4
f 76/206/4 71/195/4 75/204/4
f 68/192/4 71/195/4 76/206/4
f 75/207/47 77/208/47 76/209/47
f 76/210/48 69/211/48 68/212/48
f 69/211/48 76/210/48 77/213/48
f 77/214/4 65/190/4 69/189/4
f 78/215/4 65/190/4 77/214/4
f 77/208/47 75/207/47 78/216/47
f 78/217/49 79/218/49 80/219/49
f 79/218/49 78/217/49 75/220/49
f 80/221/4 65/190/4 78/215/4
f 79/222/50 81/223/51 80/224/51
f 81/225/52 65/190/4 80/221/4
f 82/226/53 83/227/53 81/228/53
f 81/223/51 79/222/50 82/229/54
f 65/190/4 81/225/52 83/230/52
f 84/231/55 85/232/55 83/227/55
f 83/227/53 82/226/53 84/231/53
f 85/233/4 86/234/4 83/230/4
f 63/235/20 83/236/20 86/237/20
f 83/236/20 63/235/20 65/179/20
f 85/232/55 84/231/55 87/238/55
f 87/239/56 88/240/56 85/241/56
f 86/234/4 85/233/4 88/242/4
f 86/234/4 88/242/4 89/243/4
f 88/240/56 87/239/56 90/244/56
f 90/245/57 89/246/57 88/247/57
f 86/234/4 89/243/4 91/248/4
f 89/249/58 92/250/58 91/251/58
f 89/246/57 90/245/57 93/252/57
f 92/250/58 89/249/58 93/253/58
f 90/254/4 94/255/4 93/256/4
f 93/256/4 95/257/4 92/258/4
f 93/256/4 94/255/4 95/257/4
f 95/259/59 96/260/59 97/261/59
f 96/260/59 95/259/59 94/262/59
f 98/263/60 95/264/60 97/265/60
f 92/258/4 95/257/4 99/266/4
f 95/264/60 98/263/60 99/267/60
f 98/268/4 59/269/4 100/270/4
f 97/271/4 59/269/4 98/268/4
f 100/272/61 99/273/61 98/274/61
f 101/275/62 102/276/62 100/277/62
f 100/270/4 59/269/4 101/278/4
f 99/273/61 100/272/61 102/279/63
f 103/280/4 102/281/4 104/282/4
f 102/276/62 101/275/62 104/283/62
f 103/280/4 99/266/4 102/281/4
f 104/284/64 105/285/64 103/286/64
f 91/287/65 103/288/65 105/289/65
f 103/288/65 91/287/65 92/290/65
f 92/258/4 99/266/4 103/280/4
f 86/234/4 105/291/4 101/278/4
f 105/285/64 104/284/64 101/292/64
f 86/234/4 91/248/4 105/291/4
f 101/293/18 63/294/18 86/295/66
f 62/296/18 101/293/18 59/297/18
f 63/294/18 101/293/18 62/296/18
f 96/298/4 59/269/4 97/271/4
f 106/299/67 59/269/4 96/298/4
f 94/300/68 106/301/68 96/302/68
f 59/269/4 106/299/67 57/303/67
f 107/304/69 57/305/69 106/306/69
f 106/301/68 94/300/68 107/307/68
f 57/305/69 107/304/69 108/308/69
f 87/309/4 107/310/4 90/254/4
f 87/309/4 108/311/4 107/310/4
f 90/254/4 107/310/4 94/255/4
f 108/312/70 109/313/70 57/314/71
f 109/313/70 108/312/70 110/315/70
f 84/316/4 110/317/4 108/311/4
f 84/316/4 108/311/4 87/309/4
f 110/318/72 111/319/72 109/320/73
f 111/319/72 110/318/72 112/321/72
f 82/322/4 110/317/4 84/316/4
f 82/322/4 112/323/4 110/317/4
f 79/324/4 112/323/4 82/322/4
f 79/324/4 74/205/4 112/323/4
f 73/325/40 112/326/40 74/327/40
f 112/326/40 73/325/40 111/328/40
f 111/329/4 60/184/4 109/330/67
f 73/331/4 60/184/4 111/329/4
f 109/330/67 60/184/4 57/303/21
f 75/204/4 74/205/4 79/324/4
f 72/332/4 60/184/4 73/331/4
f 66/185/4 60/184/4 72/332/4
f 65/179/20 63/235/20 64/180/20
f 113/333/2 114/334/2 115/335/2
f 114/334/2 113/333/2 116/336/2
f 117/337/74 114/338/74 116/339/74
f 114/340/75 118/341/75 115/342/75
f 118/341/75 114/340/75 119/343/75
f 114/338/74 117/337/74 119/344/74
f 116/339/43 120/345/43 117/337/43
f 120/346/4 119/347/4 117/348/4
f 115/349/76 120/350/76 113/351/76
f 120/345/43 116/339/43 113/352/1
f 120/350/76 115/349/76 118/353/76
f 119/347/4 120/346/4 118/354/4