# Blender v3.0.1 OBJ File: ''
# www.blender.org
mtllib 04.mtl
o model_normalized.002_model_normalized.011
v 0.719307 -0.647978 -0.036906
v 0.720652 0.191321 -0.056153
v 0.717960 -0.647978 -0.017659
v 0.720652 -0.647978 -0.056153
v 0.701406 -0.647978 -0.057499
v 0.717960 0.191321 -0.017659
v 0.679466 0.191321 -0.020351
v 0.682158 0.191321 -0.058845
v 0.682158 -0.647978 -0.058845
v 0.706341 -0.647978 -0.056495
v 0.701406 -0.657625 -0.057499
v 0.696378 -0.657625 -0.057192
v 0.696378 -0.647978 -0.057192
v 0.706341 -0.657625 -0.056495
v 0.710848 -0.657625 -0.054248
v 0.710848 -0.647978 -0.054248
v 0.714620 -0.647978 -0.050910
v 0.714620 -0.657625 -0.050910
v 0.687402 -0.657625 -0.052814
v 0.691602 -0.657625 -0.055594
v 0.691602 -0.647978 -0.055593
v 0.687402 -0.647978 -0.052814
v 0.684064 -0.657625 -0.049041
v 0.684064 -0.647978 -0.049041
v 0.681816 -0.647978 -0.044534
v 0.681816 -0.657625 -0.044534
v 0.680813 -0.647978 -0.039598
v 0.680813 -0.657625 -0.039598
v 0.681120 -0.647978 -0.034570
v 0.679466 -0.647978 -0.020351
v 0.681120 -0.657625 -0.034570
v 0.682717 -0.647978 -0.029794
v 0.682717 -0.657625 -0.029794
v 0.685498 -0.647978 -0.025594
v 0.689270 -0.647978 -0.022256
v 0.685498 -0.657625 -0.025594
v 0.689270 -0.657625 -0.022256
v 0.716056 -0.657625 -0.027463
v 0.712718 -0.657625 -0.023690
v 0.716056 -0.647978 -0.027463
v 0.712718 -0.647978 -0.023690
v 0.708517 -0.647978 -0.020910
v 0.708517 -0.657625 -0.020910
v 0.703740 -0.647978 -0.019312
v 0.698714 -0.647978 -0.019005
v 0.703740 -0.657625 -0.019312
v 0.693779 -0.657625 -0.020009
v 0.698714 -0.657625 -0.019005
v 0.693779 -0.647978 -0.020009
v 0.718302 -0.647978 -0.031970
v 0.718302 -0.657625 -0.031970
v 0.719307 -0.657625 -0.036906
v 0.719000 -0.647978 -0.041934
v 0.719000 -0.657625 -0.041934
v 0.717401 -0.647978 -0.046710
v 0.717401 -0.657625 -0.046710
v -0.680399 -0.647978 -0.031982
v -0.679187 0.191321 -0.051238
v -0.681611 -0.647978 -0.012726
v -0.679187 -0.647978 -0.051239
v -0.698443 -0.647978 -0.052450
v -0.681611 0.191321 -0.012726
v -0.720122 0.191321 -0.015149
v -0.717701 0.191321 -0.053661
v -0.717701 -0.647978 -0.053662
v -0.693502 -0.647978 -0.051480
v -0.698443 -0.657625 -0.052450
v -0.703469 -0.657625 -0.052107
v -0.703469 -0.647978 -0.052107
v -0.708235 -0.657625 -0.050476
v -0.708235 -0.647978 -0.050476
v -0.712414 -0.657625 -0.047667
v -0.688977 -0.657625 -0.049264
v -0.685182 -0.647978 -0.045953
v -0.688977 -0.647978 -0.049264
v -0.693502 -0.657625 -0.051480
v -0.685182 -0.657625 -0.045953
v -0.682373 -0.657625 -0.041773
v -0.715725 -0.657625 -0.043871
v -0.717942 -0.647978 -0.039348
v -0.717942 -0.657625 -0.039348
v -0.712414 -0.647978 -0.047667
v -0.715725 -0.647978 -0.043871
v -0.718912 -0.647978 -0.034405
v -0.718912 -0.657625 -0.034405
v -0.718569 -0.647978 -0.029380
v -0.720122 -0.647978 -0.015149
v -0.718569 -0.657625 -0.029380
v -0.716937 -0.647978 -0.024615
v -0.716937 -0.657625 -0.024615
v -0.714127 -0.647978 -0.020434
v -0.710332 -0.647978 -0.017123
v -0.710332 -0.657625 -0.017123
v -0.714127 -0.657625 -0.020434
v -0.683585 -0.657625 -0.022517
v -0.686895 -0.657625 -0.018721
v -0.683585 -0.647978 -0.022517
v -0.686895 -0.647978 -0.018721
v -0.691077 -0.647978 -0.015912
v -0.691077 -0.657625 -0.015912
v -0.695842 -0.647978 -0.014280
v -0.700866 -0.647978 -0.013938
v -0.695842 -0.657625 -0.014280
v -0.705810 -0.657625 -0.014907
v -0.700866 -0.657625 -0.013938
v -0.705810 -0.647978 -0.014907
v -0.681370 -0.647978 -0.027040
v -0.681370 -0.657625 -0.027040
v -0.680399 -0.657625 -0.031982
v -0.680742 -0.647978 -0.037008
v -0.680742 -0.657625 -0.037008
v -0.682373 -0.647978 -0.041773
v -0.679187 -0.319976 -0.051238
v 0.679466 -0.319976 -0.020351
v 0.682158 -0.319976 -0.058845
v -0.681611 -0.319976 -0.012726
v -0.681611 -0.358565 -0.012726
v 0.682158 -0.358565 -0.058845
v 0.679466 -0.358565 -0.020351
v -0.679187 -0.358565 -0.051238
vt -0.393701 0.196850
vt 0.000000 17.322800
vt -0.787402 0.196850
vt 0.000000 0.196850
vt -0.393701 0.196850
vt -0.787402 17.322800
vt -0.787402 0.196850
vt -0.787402 17.322800
vt 0.000000 0.787402
vt 0.787402 0.000000
vt 0.787402 0.787402
vt 0.000000 0.000000
vt 0.000000 0.196850
vt 0.000000 17.322800
vt -0.493109 0.196850
vt -0.390333 -0.000000
vt -0.390333 0.196850
vt 0.000000 0.787402
vt -0.013415 0.495598
vt -0.000000 0.393701
vt -0.287556 -0.000000
vt -0.287556 0.196850
vt -0.013415 0.291804
vt 0.000000 0.000000
vt -0.013415 0.495598
vt -0.013415 0.291804
vt -0.000000 0.393701
vt -0.493109 -0.000000
vt -0.052746 0.590551
vt -0.565783 0.196850
vt -0.463007 -0.000000
vt -0.463007 0.196850
vt -0.565783 -0.000000
vt -0.603402 0.196850
vt -0.500625 -0.000000
vt -0.500625 0.196850
vt -0.603402 -0.000000
vt -0.115312 0.115312
vt -0.115312 0.672089
vt -0.052746 0.196850
vt -0.021286 -0.000000
vt -0.124062 0.196850
vt -0.124062 -0.000000
vt -0.161681 -0.000000
vt -0.264458 0.196850
vt -0.264458 -0.000000
vt -0.161681 0.196850
vt -0.052746 0.196850
vt -0.115312 0.115312
vt -0.021286 0.196850
vt 0.021286 0.196850
vt 0.124062 0.000000
vt 0.124062 0.196850
vt 0.021286 -0.000000
vt -0.196850 0.052746
vt 0.161681 0.000000
vt 0.264458 0.196850
vt 0.161681 0.196850
vt -0.291804 0.013415
vt 0.287556 0.000000
vt 0.390333 0.196850
vt 0.287556 0.196850
vt 0.264458 0.000000
vt -0.393701 -0.000000
vt 0.390333 0.000000
vt 0.493109 0.196850
vt -0.495598 0.013415
vt -0.787402 0.000000
vt 0.787402 17.322800
vt 0.393701 0.196850
vt 0.787402 0.196850
vt 0.493109 0.000000
vt -0.590551 0.052746
vt 0.463007 0.000000
vt 0.565783 0.196850
vt 0.463007 0.196850
vt 0.565783 0.000000
vt -0.672089 0.115312
vt 0.500625 0.000000
vt 0.603402 0.196850
vt 0.500625 0.196850
vt -0.734656 0.196850
vt 0.603402 0.000000
vt 0.500625 0.196850
vt 0.603402 0.000000
vt 0.603402 0.196850
vt 0.500625 0.000000
vt -0.590551 0.052746
vt -0.590551 0.734656
vt -0.672089 0.115312
vt -0.672089 0.672089
vt -0.734656 0.196850
vt -0.021286 0.196850
vt -0.124062 0.000000
vt -0.021286 0.000000
vt -0.124062 0.196850
vt 0.021286 0.196850
vt 0.124062 0.000000
vt 0.124062 0.196850
vt -0.734656 0.590551
vt 0.021286 0.000000
vt -0.734656 0.590551
vt -0.787402 0.787402
vt -0.773987 0.495598
vt -0.672089 0.672089
vt 0.161681 0.196850
vt 0.264458 0.000000
vt 0.264458 0.196850
vt 0.287556 0.196850
vt 0.390333 0.000000
vt 0.390333 0.196850
vt -0.787402 0.393701
vt 0.161681 0.000000
vt -0.773987 0.291804
vt -0.773987 0.495598
vt -0.787402 0.393701
vt 0.287556 0.000000
vt 0.493109 0.000000
vt 0.390333 0.196850
vt 0.390333 0.000000
vt 0.463007 0.196850
vt 0.565783 0.000000
vt 0.565783 0.196850
vt 0.463007 0.000000
vt 0.493109 0.196850
vt -0.773987 0.291804
vt 0.393701 0.196850
vt 0.000000 17.322800
vt 0.000000 0.196850
vt 0.787402 17.322800
vt 0.787402 0.196850
vt -0.590551 0.734656
vt -0.495598 0.773987
vt -0.264458 0.000000
vt -0.161681 0.196850
vt -0.264458 0.196850
vt -0.393701 0.787402
vt -0.390333 0.000000
vt -0.287556 0.196850
vt -0.390333 0.196850
vt -0.161681 0.000000
vt -0.287556 0.000000
vt -0.495598 0.013415
vt -0.495598 0.773987
vt -0.393701 0.787402
vt -0.493109 0.000000
vt -0.390333 0.196850
vt -0.493109 0.196850
vt -0.390333 0.000000
vt -0.393701 -0.000000
vt -0.291804 0.773987
vt -0.565783 0.000000
vt -0.463007 0.196850
vt -0.565783 0.196850
vt -0.463007 0.000000
vt -0.291804 0.013415
vt -0.196850 0.734656
vt -0.196850 0.052746
vt -0.500625 0.196850
vt -0.603402 0.000000
vt -0.500625 0.000000
vt -0.603402 0.196850
vt -0.196850 0.734656
vt -0.291804 0.773987
vt -0.115312 0.672089
vt -0.052746 0.590551
vt -0.393701 0.196850
vt 0.000000 17.322800
vt -0.787402 0.196850
vt 0.000000 0.196850
vt -0.393701 0.196850
vt -0.787402 17.322800
vt -0.787402 0.196850
vt -0.787402 17.322800
vt 0.000000 0.787402
vt 0.787402 0.000000
vt 0.787402 0.787402
vt 0.000000 0.000000
vt 0.000000 0.196850
vt 0.000000 17.322800
vt -0.493109 0.196850
vt -0.390333 -0.000000
vt -0.390333 0.196850
vt 0.000000 0.787402
vt -0.013415 0.495598
vt -0.000000 0.393701
vt -0.287556 -0.000000
vt -0.287556 0.196850
vt -0.013415 0.291804
vt 0.000000 0.000000
vt -0.161681 -0.000000
vt -0.264458 0.196850
vt -0.264458 -0.000000
vt -0.052746 0.196850
vt -0.161681 0.196850
vt -0.021286 -0.000000
vt -0.124062 0.196850
vt -0.124062 -0.000000
vt -0.052746 0.196850
vt -0.052746 0.590551
vt -0.115312 0.115312
vt -0.013415 0.291804
vt -0.603402 0.196850
vt -0.500625 -0.000000
vt -0.500625 0.196850
vt -0.463007 -0.000000
vt -0.565783 0.196850
vt -0.565783 -0.000000
vt -0.603402 -0.000000
vt -0.115312 0.672089
vt -0.013415 0.495598
vt -0.000000 0.393701
vt -0.463007 0.196850
vt -0.493109 -0.000000
vt -0.500625 0.196850
vt -0.603402 0.000000
vt -0.500625 0.000000
vt -0.196850 0.052746
vt -0.196850 0.734656
vt 0.264458 0.196850
vt 0.161681 0.000000
vt 0.264458 0.000000
vt -0.291804 0.013415
vt 0.124062 0.000000
vt 0.021286 0.196850
vt 0.021286 -0.000000
vt 0.124062 0.196850
vt 0.161681 0.196850
vt 0.287556 0.000000
vt 0.390333 0.196850
vt 0.287556 0.196850
vt -0.291804 0.013415
vt -0.196850 0.052746
vt -0.393701 -0.000000
vt 0.390333 0.000000
vt 0.493109 0.196850
vt -0.495598 0.013415
vt -0.787402 0.000000
vt 0.787402 17.322800
vt 0.393701 0.196850
vt 0.787402 0.196850
vt 0.493109 0.000000
vt 0.463007 0.000000
vt 0.565783 0.196850
vt 0.463007 0.196850
vt -0.590551 0.052746
vt 0.565783 0.000000
vt -0.672089 0.115312
vt 0.500625 0.000000
vt 0.603402 0.196850
vt 0.500625 0.196850
vt -0.734656 0.196850
vt 0.500625 0.196850
vt 0.603402 0.000000
vt 0.603402 0.196850
vt 0.603402 0.000000
vt 0.500625 0.000000
vt -0.590551 0.052746
vt -0.590551 0.734656
vt -0.672089 0.115312
vt -0.672089 0.672089
vt -0.734656 0.196850
vt -0.124062 0.000000
vt -0.021286 0.196850
vt -0.124062 0.196850
vt -0.021286 0.000000
vt 0.021286 0.196850
vt 0.124062 0.000000
vt 0.124062 0.196850
vt -0.734656 0.590551
vt 0.021286 0.000000
vt -0.734656 0.590551
vt -0.787402 0.787402
vt -0.773987 0.495598
vt -0.672089 0.672089
vt 0.161681 0.196850
vt 0.264458 0.000000
vt 0.264458 0.196850
vt 0.287556 0.196850
vt 0.390333 0.000000
vt 0.390333 0.196850
vt -0.787402 0.393701
vt 0.161681 0.000000
vt -0.773987 0.291804
vt -0.773987 0.495598
vt -0.787402 0.393701
vt 0.287556 0.000000
vt 0.493109 0.000000
vt 0.390333 0.196850
vt 0.390333 0.000000
vt 0.463007 0.196850
vt 0.565783 0.000000
vt 0.565783 0.196850
vt 0.463007 0.000000
vt 0.493109 0.196850
vt -0.773987 0.291804
vt 0.393701 0.196850
vt 0.000000 17.322800
vt 0.000000 0.196850
vt 0.787402 17.322800
vt 0.787402 0.196850
vt -0.590551 0.734656
vt -0.495598 0.773987
vt -0.264458 0.000000
vt -0.161681 0.196850
vt -0.264458 0.196850
vt -0.393701 0.787402
vt -0.390333 0.000000
vt -0.287556 0.196850
vt -0.390333 0.196850
vt -0.161681 0.000000
vt -0.287556 0.000000
vt -0.495598 0.013415
vt -0.495598 0.773987
vt -0.393701 0.787402
vt -0.493109 0.000000
vt -0.390333 0.196850
vt -0.493109 0.196850
vt -0.390333 0.000000
vt -0.393701 -0.000000
vt -0.291804 0.773987
vt -0.565783 0.000000
vt -0.463007 0.196850
vt -0.565783 0.196850
vt -0.463007 0.000000
vt -0.196850 0.734656
vt -0.291804 0.773987
vt -0.115312 0.672089
vt -0.603402 0.196850
vt -0.115312 0.115312
vt -0.021286 0.196850
vt -0.052746 0.590551
vt 0.049441 0.785848
vt 27.772900 0.155578
vt 27.827801 0.941062
vt -0.000000 0.000000
vt 0.000000 5.905510
vt 27.773300 6.692910
vt 0.000000 6.692910
vt 2.092540 6.692910
vt 2.879940 5.905510
vt 2.879940 6.692910
vt 2.092540 5.905510
vt 27.773300 5.905510
vt -0.787402 6.692910
vt -0.787402 5.905510
vt -0.049441 0.785848
vt -27.772900 0.155578
vt 0.000000 0.000000
vt -27.832701 6.692910
vt -0.053831 5.905510
vt -0.053831 6.692910
vt -27.832701 5.905510
vt -27.827801 0.941062
vn 0.9976 0.0000 0.0698
vn 0.9976 0.0000 0.0697
vn 0.0698 0.0000 -0.9976
vn -0.0000 1.0000 0.0000
vn 0.1994 0.0000 -0.9799
vn 0.0000 -1.0000 -0.0000
vn -0.0609 0.0000 -0.9981
vn 0.0000 -1.0000 0.0001
vn 0.4462 0.0000 -0.8949
vn 0.6627 -0.0000 -0.7489
vn -0.5519 0.0001 -0.8339
vn -0.5519 0.0000 -0.8339
vn -0.5520 0.0001 -0.8339
vn -0.3174 0.0000 -0.9483
vn -0.3174 0.0001 -0.9483
vn -0.3173 0.0000 -0.9483
vn -0.3175 0.0001 -0.9483
vn -0.5518 0.0000 -0.8340
vn -0.7490 0.0000 -0.6626
vn -0.8949 0.0000 -0.4463
vn -0.9800 0.0000 -0.1991
vn -0.9981 0.0000 0.0609
vn -0.9976 -0.0000 -0.0698
vn -0.9976 -0.0000 -0.0697
vn -0.9484 0.0000 0.3171
vn -0.8338 0.0000 0.5521
vn -0.6627 0.0000 0.7489
vn 0.7490 0.0000 0.6626
vn 0.5519 0.0000 0.8339
vn 0.3172 -0.0000 0.9483
vn 0.0610 -0.0000 0.9981
vn 0.0000 -1.0000 -0.0001
vn -0.1994 -0.0000 0.9799
vn -0.4460 -0.0000 0.8950
vn -0.0698 -0.0000 0.9976
vn 0.8950 0.0000 0.4460
vn 0.9799 -0.0000 0.1995
vn 0.9981 0.0000 -0.0609
vn 0.9483 0.0000 -0.3175
vn 0.8338 0.0000 -0.5521
vn 0.9980 -0.0000 0.0628
vn 0.0628 0.0000 -0.9980
vn 0.1926 -0.0000 -0.9813
vn -0.0000 -1.0000 -0.0002
vn -0.0681 0.0000 -0.9977
vn -0.3238 -0.0000 -0.9461
vn -0.5579 0.0000 -0.8299
vn 0.6574 0.0000 -0.7535
vn 0.4398 0.0000 -0.8981
vn 0.8300 0.0000 -0.5578
vn -0.8979 0.0000 -0.4401
vn -0.7536 0.0000 -0.6573
vn -0.9813 0.0000 -0.1926
vn -0.9977 0.0000 0.0681
vn -0.9980 0.0000 -0.0627
vn -0.9980 0.0000 -0.0628
vn -0.9461 0.0000 0.3240
vn -0.8300 0.0000 0.5578
vn -0.6574 0.0000 0.7535
vn 0.7537 0.0000 0.6572
vn 0.5576 -0.0000 0.8301
vn 0.3240 -0.0000 0.9461
vn 0.0679 -0.0000 0.9977
vn -0.1923 -0.0000 0.9813
vn -0.4401 0.0000 0.8980
vn -0.0000 -1.0000 0.0002
vn -0.0628 -0.0000 0.9980
vn 0.8981 0.0000 0.4398
vn 0.9812 0.0000 0.1928
vn 0.9813 0.0000 0.1923
vn 0.9977 0.0000 -0.0684
vn 0.9461 0.0000 -0.3238
vn 0.0056 -0.0000 1.0000
vn -0.0056 0.0000 -1.0000
usemtl Color_009.004
s 1
f 1/1/1 2/2/1 3/3/1
f 2/2/1 1/1/1 4/4/2
f 5/5/3 2/6/3 4/7/3
f 3/3/1 2/2/1 6/8/1
f 2/9/4 7/10/4 6/11/4
f 7/10/4 2/9/4 8/12/4
f 2/6/3 9/13/3 8/14/3
f 9/13/3 2/6/3 5/5/3
f 10/15/5 11/16/5 5/17/5
f 4/18/6 10/19/6 5/20/6
f 5/17/7 12/21/7 13/22/7
f 12/21/7 5/17/7 11/16/7
f 13/23/6 9/24/6 5/20/6
f 14/25/6 12/26/6 11/27/8
f 11/16/5 10/15/5 14/28/5
f 12/26/6 14/25/6 15/29/6
f 16/30/9 14/31/9 10/32/9
f 14/31/9 16/30/9 15/33/9
f 17/34/10 15/35/10 16/36/10
f 15/35/10 17/34/10 18/37/10
f 19/38/6 15/29/6 18/39/6
f 20/40/6 15/29/6 19/38/6
f 12/26/6 15/29/6 20/40/6
f 19/41/11 21/42/12 20/43/13
f 20/44/14 13/45/15 12/46/16
f 13/45/15 20/44/14 21/47/17
f 21/48/6 9/24/6 13/23/6
f 22/49/6 9/24/6 21/48/6
f 21/42/12 19/41/11 22/50/18
f 22/51/19 23/52/19 24/53/19
f 23/52/19 22/51/19 19/54/19
f 24/55/6 9/24/6 22/49/6
f 23/56/20 25/57/20 24/58/20
f 25/59/6 9/24/6 24/55/6
f 26/60/21 27/61/21 25/62/21
f 25/57/20 23/56/20 26/63/20
f 9/24/6 25/59/6 27/64/6
f 28/65/22 29/66/22 27/61/22
f 27/61/21 26/60/21 28/65/21
f 29/67/6 30/68/6 27/64/6
f 7/69/23 27/70/23 30/71/23
f 27/70/23 7/69/23 9/13/24
f 29/66/22 28/65/22 31/72/22
f 30/68/6 29/67/6 32/73/6
f 31/74/25 32/75/25 29/76/25
f 32/75/25 31/74/25 33/77/25
f 30/68/6 32/73/6 34/78/6
f 33/79/26 34/80/26 32/81/26
f 30/68/6 34/78/6 35/82/6
f 34/80/26 33/79/26 36/83/26
f 34/84/27 37/85/27 35/86/27
f 37/85/27 34/84/27 36/87/27
f 33/88/6 38/89/6 36/90/6
f 36/90/6 38/89/6 39/91/6
f 36/90/6 39/91/6 37/92/6
f 40/93/28 39/94/28 38/95/28
f 39/94/28 40/93/28 41/96/28
f 42/97/29 39/98/29 41/99/29
f 37/92/6 39/91/6 43/100/6
f 39/98/29 42/97/29 43/101/29
f 42/102/6 3/103/6 44/104/6
f 41/105/6 3/103/6 42/102/6
f 44/106/30 43/107/30 42/108/30
f 45/109/31 46/110/31 44/111/31
f 44/104/6 3/103/6 45/112/6
f 43/107/30 44/106/30 46/113/30
f 47/114/6 46/115/6 48/116/32
f 46/110/31 45/109/31 48/117/31
f 47/114/6 43/100/6 46/115/6
f 48/118/33 49/119/33 47/120/33
f 35/121/34 47/122/34 49/123/34
f 47/122/34 35/121/34 37/124/34
f 37/92/6 43/100/6 47/114/6
f 49/119/33 48/118/33 45/125/33
f 30/68/6 49/126/6 45/112/6
f 30/68/6 35/82/6 49/126/6
f 45/127/35 7/128/35 30/129/35
f 6/130/35 45/127/35 3/131/35
f 7/128/35 45/127/35 6/130/35
f 40/132/6 3/103/6 41/105/6
f 50/133/6 3/103/6 40/132/6
f 38/134/36 50/135/36 40/136/36
f 3/103/6 50/133/6 1/137/6
f 51/138/37 1/139/37 50/140/37
f 50/135/36 38/134/36 51/141/36
f 1/139/37 51/138/37 52/142/37
f 31/143/6 51/144/6 33/88/6
f 31/143/6 52/145/6 51/144/6
f 33/88/6 51/144/6 38/89/6
f 52/146/38 53/147/38 1/148/38
f 53/147/38 52/146/38 54/149/38
f 28/150/6 54/151/6 52/145/6
f 28/150/6 52/145/6 31/143/6
f 54/152/39 55/153/39 53/154/39
f 55/153/39 54/152/39 56/155/39
f 26/156/6 54/151/6 28/150/6
f 26/156/6 56/157/6 54/151/6
f 23/158/6 56/157/6 26/156/6
f 23/158/6 18/39/6 56/157/6
f 17/159/40 56/160/40 18/161/40
f 56/160/40 17/159/40 55/162/40
f 55/163/6 4/18/6 53/164/6
f 17/165/6 4/18/6 55/163/6
f 53/164/6 4/18/6 1/137/6
f 19/38/6 18/39/6 23/158/6
f 16/166/6 4/18/6 17/165/6
f 10/19/6 4/18/6 16/166/6
f 9/13/24 7/69/23 8/14/23
f 57/167/41 58/168/41 59/169/41
f 58/168/41 57/167/41 60/170/41
f 61/171/42 58/172/42 60/173/42
f 59/169/41 58/168/41 62/174/41
f 58/175/4 63/176/4 62/177/4
f 63/176/4 58/175/4 64/178/4
f 58/172/42 65/179/42 64/180/42
f 65/179/42 58/172/42 61/171/42
f 66/181/43 67/182/43 61/183/43
f 60/184/6 66/185/8 61/186/44
f 61/183/45 68/187/45 69/188/45
f 68/187/45 61/183/45 67/182/45
f 69/189/8 65/190/6 61/186/8
f 70/191/46 69/192/46 68/193/46
f 71/194/6 65/190/6 69/189/8
f 69/192/46 70/191/46 71/195/46
f 72/196/47 71/197/47 70/198/47
f 70/199/6 73/200/6 72/201/6
f 68/202/6 73/200/6 70/199/6
f 74/203/48 73/204/48 75/205/48
f 76/206/49 75/207/49 73/208/49
f 73/204/48 74/203/48 77/209/48
f 72/201/6 73/200/6 77/210/6
f 68/202/6 76/211/6 73/200/6
f 76/211/6 68/202/6 67/212/6
f 75/207/49 76/206/49 66/213/49
f 67/182/43 66/181/43 76/214/43
f 74/215/50 78/216/50 77/217/50
f 79/218/6 77/210/6 78/219/6
f 72/201/6 77/210/6 79/218/6
f 80/220/51 79/221/51 81/222/51
f 79/218/6 78/219/6 81/223/6
f 79/224/52 82/225/52 72/226/52
f 82/225/52 79/224/52 83/227/52
f 79/221/51 80/220/51 83/228/51
f 81/229/53 84/230/53 80/231/53
f 80/232/6 65/190/6 83/233/6
f 65/190/6 80/232/6 84/234/6
f 85/235/54 86/236/54 84/230/54
f 84/230/53 81/229/53 85/235/53
f 86/237/6 87/238/6 84/234/6
f 63/239/55 84/240/55 87/241/55
f 84/240/55 63/239/55 65/179/56
f 86/236/54 85/235/54 88/242/54
f 88/243/57 89/244/57 86/245/57
f 87/238/6 86/237/6 89/246/6
f 89/244/57 88/243/57 90/247/57
f 87/238/6 89/246/6 91/248/6
f 90/249/58 91/250/58 89/251/58
f 87/238/6 91/248/6 92/252/6
f 91/253/59 93/254/59 92/255/59
f 91/250/58 90/249/58 94/256/58
f 93/254/59 91/253/59 94/257/59
f 90/258/6 95/259/6 94/260/6
f 94/260/6 95/259/6 96/261/6
f 94/260/6 96/261/6 93/262/6
f 96/263/60 97/264/60 98/265/60
f 97/264/60 96/263/60 95/266/60
f 99/267/61 96/268/61 98/269/61
f 93/262/6 96/261/6 100/270/6
f 96/268/61 99/267/61 100/271/61
f 99/272/6 59/273/6 101/274/32
f 98/275/6 59/273/6 99/272/6
f 101/276/62 100/277/62 99/278/62
f 102/279/63 103/280/63 101/281/63
f 101/274/32 59/273/6 102/282/32
f 100/277/62 101/276/62 103/283/62
f 104/284/6 103/285/6 105/286/6
f 103/280/63 102/279/63 105/287/63
f 104/284/6 100/270/6 103/285/6
f 105/288/64 106/289/64 104/290/64
f 92/291/65 104/292/65 106/293/65
f 104/292/65 92/291/65 93/294/65
f 93/262/6 100/270/6 104/284/6
f 106/289/64 105/288/64 102/295/64
f 87/238/6 106/296/32 102/282/66
f 87/238/6 92/252/6 106/296/32
f 102/297/67 63/298/67 87/299/67
f 62/300/67 102/297/67 59/301/67
f 63/298/67 102/297/67 62/300/67
f 97/302/6 59/273/6 98/275/6
f 107/303/6 59/273/6 97/302/6
f 95/304/68 107/305/68 97/306/68
f 59/273/6 107/303/6 57/307/6
f 108/308/69 57/309/69 107/310/69
f 107/305/68 95/304/68 108/311/68
f 57/309/69 108/308/69 109/312/70
f 88/313/6 108/314/6 90/258/6
f 88/313/6 109/315/6 108/314/6
f 90/258/6 108/314/6 95/259/6
f 109/316/71 110/317/71 57/318/71
f 110/317/71 109/316/71 111/319/71
f 85/320/6 111/321/6 109/315/6
f 85/320/6 109/315/6 88/313/6
f 111/322/72 112/323/72 110/324/72
f 112/323/72 111/322/72 78/325/72
f 81/223/6 111/321/6 85/320/6
f 81/223/6 78/219/6 111/321/6
f 112/326/6 60/184/6 110/327/6
f 74/328/6 60/184/6 112/326/6
f 78/216/50 74/215/50 112/329/50
f 110/327/6 60/184/6 57/307/6
f 83/233/6 65/190/6 82/330/6
f 82/330/6 65/190/6 71/194/6
f 71/197/47 72/196/47 82/331/47
f 75/332/6 60/184/6 74/328/6
f 66/185/8 60/184/6 75/332/6
f 65/179/56 63/239/55 64/180/55
f 113/333/4 114/334/4 115/335/4
f 114/334/4 113/333/4 116/336/4
f 117/337/73 114/338/73 116/339/73
f 114/340/1 118/341/1 115/342/1
f 118/341/1 114/340/1 119/343/1
f 114/338/73 117/337/73 119/344/73
f 117/337/56 113/345/56 120/346/56
f 113/345/56 117/337/56 116/339/56
f 120/347/6 119/348/6 117/349/6
f 115/350/74 120/351/74 113/352/74
f 120/351/74 115/350/74 118/353/74
f 119/348/6 120/347/6 118/354/6