# Blender v3.0.1 OBJ File: 'anno.blend'
# www.blender.org
mtllib 06.mtl
o model.010
v 0.345305 -0.224983 -0.278387
v 0.345529 -0.226678 0.278385
v 0.345305 -0.224983 0.278385
v 0.345529 -0.226678 -0.278387
v 0.345529 -0.226678 -0.278387
v 0.345305 -0.224983 -0.278387
v 0.345529 -0.226678 0.278385
v 0.345305 -0.224983 0.278385
v 0.346183 -0.228258 0.278385
v 0.346183 -0.228258 -0.278387
v 0.346183 -0.228258 -0.278387
v 0.346183 -0.228258 0.278385
v 0.347224 -0.229615 0.278385
v 0.347224 -0.229615 -0.278387
v 0.347224 -0.229615 -0.278387
v 0.347224 -0.229615 0.278385
v 0.348581 -0.230656 -0.278387
v 0.348581 -0.230656 0.278385
v 0.348581 -0.230656 0.278385
v 0.348581 -0.230656 -0.278387
v 0.350160 -0.231310 -0.278387
v 0.350160 -0.231310 0.278385
v 0.350160 -0.231310 0.278385
v 0.350160 -0.231310 -0.278387
v 0.351856 -0.231533 -0.278387
v 0.351856 -0.231533 0.278385
v 0.351856 -0.231533 0.278385
v 0.351856 -0.231533 -0.278387
v 0.371506 -0.231533 -0.278387
v 0.351856 -0.231533 0.278385
v 0.351856 -0.231533 -0.278387
v 0.371506 -0.231533 0.278385
v 0.371506 -0.231533 0.278385
v 0.371506 -0.231533 -0.278387
v 0.351856 -0.231533 0.278385
v 0.351856 -0.231533 -0.278387
v 0.373202 -0.231310 -0.278387
v 0.371506 -0.231533 0.278385
v 0.371506 -0.231533 -0.278387
v 0.373202 -0.231310 0.278385
v 0.373202 -0.231310 0.278385
v 0.373202 -0.231310 -0.278387
v 0.371506 -0.231533 0.278385
v 0.371506 -0.231533 -0.278387
v 0.374782 -0.230656 -0.278387
v 0.374782 -0.230656 0.278385
v 0.374782 -0.230656 0.278385
v 0.374782 -0.230656 -0.278387
v 0.376138 -0.229615 -0.278387
v 0.376138 -0.229615 0.278385
v 0.376138 -0.229615 0.278385
v 0.376138 -0.229615 -0.278387
v 0.377179 -0.228258 0.278385
v 0.377179 -0.228258 -0.278387
v 0.377179 -0.228258 -0.278387
v 0.377179 -0.228258 0.278385
v 0.377833 -0.226678 0.278385
v 0.377833 -0.226678 -0.278387
v 0.377833 -0.226678 -0.278387
v 0.377833 -0.226678 0.278385
v 0.378057 -0.224983 0.278385
v 0.378057 -0.224983 -0.278387
v 0.378057 -0.224983 -0.278387
v 0.378057 -0.224983 0.278385
v 0.378057 -0.224983 -0.278387
v 0.378057 -0.139830 0.278385
v 0.378057 -0.224983 0.278385
v 0.378057 -0.139830 -0.278387
v 0.378057 -0.139830 -0.278387
v 0.378057 -0.224983 -0.278387
v 0.378057 -0.139830 0.278385
v 0.378057 -0.224983 0.278385
v 0.345305 -0.139830 -0.278387
v 0.345305 -0.224983 0.278385
v 0.345305 -0.139830 0.278385
v 0.345305 -0.224983 -0.278387
v 0.345305 -0.224983 -0.278387
v 0.345305 -0.139830 -0.278387
v 0.345305 -0.224983 0.278385
v 0.345305 -0.139830 0.278385
vt -0.418307 0.009758
vt 0.000000 0.007189
vt 0.000000 0.009758
vt -0.418307 0.007189
vt -0.418307 0.007189
vt -0.418307 0.009758
vt 0.000000 0.007189
vt 0.000000 0.009758
vt -0.418307 0.006611
vt 0.000000 0.004042
vt 0.000000 0.006611
vt -0.418307 0.004042
vt -0.418307 0.004042
vt -0.418307 0.006611
vt 0.000000 0.004042
vt 0.000000 0.006611
vt -0.418307 0.003102
vt 0.000000 0.000532
vt 0.000000 0.003102
vt -0.418307 0.000532
vt -0.418307 0.000532
vt -0.418307 0.003102
vt 0.000000 0.000532
vt 0.000000 0.003102
vt -0.418307 -0.003102
vt 0.000000 -0.000532
vt -0.418307 -0.000532
vt 0.000000 -0.003102
vt 0.000000 -0.003102
vt -0.418307 -0.003102
vt 0.000000 -0.000532
vt -0.418307 -0.000532
vt -0.418307 -0.006611
vt 0.000000 -0.004042
vt -0.418307 -0.004042
vt 0.000000 -0.006611
vt 0.000000 -0.006611
vt -0.418307 -0.006611
vt 0.000000 -0.004042
vt -0.418307 -0.004042
vt -0.418307 -0.009758
vt 0.000000 -0.007189
vt -0.418307 -0.007189
vt 0.000000 -0.009758
vt 0.000000 -0.009758
vt -0.418307 -0.009758
vt 0.000000 -0.007189
vt -0.418307 -0.007189
vt -0.019685 0.836614
vt -0.004921 0.000000
vt -0.004921 0.836614
vt -0.019685 0.000000
vt -0.019685 0.000000
vt -0.019685 0.836614
vt -0.004921 0.000000
vt -0.004921 0.836614
vt 0.418307 0.041603
vt 0.000000 0.039033
vt 0.418307 0.039033
vt 0.000000 0.041603
vt 0.000000 0.041603
vt 0.418307 0.041603
vt 0.000000 0.039033
vt 0.418307 0.039033
vt 0.418307 0.041424
vt 0.000000 0.038855
vt 0.418307 0.038855
vt 0.000000 0.041424
vt 0.000000 0.041424
vt 0.418307 0.041424
vt 0.000000 0.038855
vt 0.418307 0.038855
vt 0.418307 0.038511
vt 0.000000 0.035941
vt 0.418307 0.035941
vt 0.000000 0.038511
vt 0.000000 0.038511
vt 0.418307 0.038511
vt 0.000000 0.035941
vt 0.418307 0.035941
vt 0.418307 0.030491
vt 0.000000 0.033060
vt 0.000000 0.030491
vt 0.418307 0.033060
vt 0.418307 0.033060
vt 0.418307 0.030491
vt 0.000000 0.033060
vt 0.000000 0.030491
vt 0.418307 0.022875
vt 0.000000 0.025444
vt 0.000000 0.022875
vt 0.418307 0.025444
vt 0.418307 0.025444
vt 0.418307 0.022875
vt 0.000000 0.025444
vt 0.000000 0.022875
vt 0.418307 0.013612
vt 0.000000 0.016182
vt 0.000000 0.013612
vt 0.418307 0.016182
vt 0.418307 0.016182
vt 0.418307 0.013612
vt 0.000000 0.016182
vt 0.000000 0.013612
vt 0.418307 0.009843
vt 0.000000 0.137795
vt 0.000000 0.009843
vt 0.418307 0.137795
vt 0.418307 0.137795
vt 0.418307 0.009843
vt 0.000000 0.137795
vt 0.000000 0.009843
vt -0.418307 0.137795
vt 0.000000 0.009843
vt 0.000000 0.137795
vt -0.418307 0.009843
vt -0.418307 0.009843
vt -0.418307 0.137795
vt 0.000000 0.009843
vt 0.000000 0.137795
vn -0.9914 -0.1305 0.0000
vn -0.9763 -0.2162 0.0000
vn -0.9537 -0.3009 0.0000
vn 0.9536 0.3009 0.0000
vn 0.9914 0.1305 0.0000
vn 0.9763 0.2162 0.0000
vn -0.8871 -0.4616 0.0000
vn -0.8433 -0.5375 0.0000
vn 0.8433 0.5375 0.0000
vn 0.8871 0.4615 0.0000
vn -0.7071 -0.7071 0.0000
vn 0.7071 0.7071 0.0000
vn -0.5375 -0.8433 -0.0000
vn -0.4615 -0.8871 -0.0000
vn 0.4616 0.8871 -0.0000
vn 0.5375 0.8433 -0.0000
vn -0.3009 -0.9537 -0.0000
vn -0.2162 -0.9763 -0.0000
vn 0.2162 0.9763 -0.0000
vn 0.3009 0.9537 -0.0000
vn -0.1305 -0.9914 0.0000
vn 0.1305 0.9914 0.0000
vn 0.0000 -1.0000 0.0000
vn 0.0000 1.0000 0.0000
vn 0.2162 -0.9763 0.0000
vn 0.1305 -0.9914 0.0000
vn 0.3009 -0.9537 0.0000
vn -0.3009 0.9537 0.0000
vn -0.2162 0.9763 0.0000
vn -0.1305 0.9914 0.0000
vn 0.4615 -0.8871 0.0000
vn 0.5375 -0.8433 -0.0000
vn -0.5375 0.8433 -0.0000
vn -0.4616 0.8871 0.0000
vn 0.7071 -0.7071 0.0000
vn -0.7071 0.7071 0.0000
vn 0.8433 -0.5375 0.0000
vn 0.8871 -0.4616 0.0000
vn -0.8871 0.4615 0.0000
vn -0.8433 0.5375 0.0000
vn 0.9537 -0.3009 0.0000
vn 0.9763 -0.2162 0.0000
vn -0.9763 0.2162 0.0000
vn -0.9536 0.3009 0.0000
vn 0.9914 -0.1305 0.0000
vn 0.9914 -0.1306 0.0000
vn -0.9914 0.1306 0.0000
vn -0.9914 0.1305 0.0000
vn 1.0000 0.0000 0.0000
vn -1.0000 0.0000 0.0000
usemtl material_0
s 1
f 1/1/1 2/2/2 3/3/1
f 2/2/2 1/1/1 4/4/3
f 5/5/4 6/6/5 7/7/6
f 8/8/5 7/7/6 6/6/5
f 4/9/3 9/10/7 2/11/2
f 9/10/7 4/9/3 10/12/8
f 11/13/9 5/14/4 12/15/10
f 7/16/6 12/15/10 5/14/4
f 10/17/8 13/18/11 9/19/7
f 13/18/11 10/17/8 14/20/11
f 15/21/12 11/22/9 16/23/12
f 12/24/10 16/23/12 11/22/9
f 17/25/13 13/26/11 14/27/11
f 13/26/11 17/25/13 18/28/14
f 19/29/15 20/30/16 16/31/12
f 15/32/12 16/31/12 20/30/16
f 21/33/17 18/34/14 17/35/13
f 18/34/14 21/33/17 22/36/18
f 23/37/19 24/38/20 19/39/15
f 20/40/16 19/39/15 24/38/20
f 25/41/21 22/42/18 21/43/17
f 22/42/18 25/41/21 26/44/21
f 27/45/22 28/46/22 23/47/19
f 24/48/20 23/47/19 28/46/22
f 29/49/23 30/50/23 31/51/23
f 30/50/23 29/49/23 32/52/23
f 33/53/24 34/54/24 35/55/24
f 36/56/24 35/55/24 34/54/24
f 37/57/25 38/58/26 39/59/26
f 38/58/26 37/57/25 40/60/27
f 41/61/28 42/62/29 43/63/30
f 44/64/30 43/63/30 42/62/29
f 45/65/31 40/66/27 37/67/25
f 40/66/27 45/65/31 46/68/32
f 47/69/33 48/70/34 41/71/28
f 42/72/29 41/71/28 48/70/34
f 49/73/35 46/74/32 45/75/31
f 46/74/32 49/73/35 50/76/35
f 51/77/36 52/78/36 47/79/33
f 48/80/34 47/79/33 52/78/36
f 49/81/35 53/82/37 50/83/35
f 53/82/37 49/81/35 54/84/38
f 55/85/39 52/86/36 56/87/40
f 51/88/36 56/87/40 52/86/36
f 54/89/38 57/90/41 53/91/37
f 57/90/41 54/89/38 58/92/42
f 59/93/43 55/94/39 60/95/44
f 56/96/40 60/95/44 55/94/39
f 58/97/42 61/98/45 57/99/41
f 61/98/45 58/97/42 62/100/46
f 63/101/47 59/102/43 64/103/48
f 60/104/44 64/103/48 59/102/43
f 65/105/49 66/106/49 67/107/49
f 66/106/49 65/105/49 68/108/49
f 69/109/50 70/110/50 71/111/50
f 72/112/50 71/111/50 70/110/50
f 73/113/50 74/114/50 75/115/50
f 74/114/50 73/113/50 76/116/50
f 77/117/49 78/118/49 79/119/49
f 80/120/49 79/119/49 78/118/49