# Blender v3.0.1 OBJ File: ''
# www.blender.org
mtllib 02.mtl
o group_1.004_ID273
v 0.172492 0.194979 -0.189275
v 0.174681 0.278171 -0.189275
v 0.172492 0.194980 0.189001
v 0.174681 0.278171 0.189001
v 0.202744 0.194183 0.189001
v 0.204933 0.277375 -0.189275
v 0.204933 0.277375 0.189001
v 0.202744 0.194183 -0.189275
v 0.202744 0.194183 -0.189275
v 0.202744 0.194183 0.189001
v 0.204933 0.277375 -0.189275
v 0.204933 0.277375 0.189001
v 0.172492 0.194980 0.189001
v 0.202744 0.194183 -0.189275
v 0.202744 0.194183 0.189001
v 0.172492 0.194979 -0.189275
v 0.172492 0.194979 -0.189275
v 0.172492 0.194980 0.189001
v 0.202744 0.194183 -0.189275
v 0.202744 0.194183 0.189001
v 0.174681 0.278171 -0.189275
v 0.172492 0.194980 0.189001
v 0.174681 0.278171 0.189001
v 0.172492 0.194979 -0.189275
vt 1.785714 0.412088
vt 1.785714 0.109890
vt 0.412088 0.412088
vt 0.412088 0.109890
vt -0.412088 0.412088
vt -1.785714 0.109890
vt -0.412088 0.109890
vt -1.785714 0.412088
vt -1.785714 0.412088
vt -0.412088 0.412088
vt -1.785714 0.109890
vt -0.412088 0.109890
vt 0.217033 0.412088
vt 0.107143 1.785714
vt 0.107143 0.412088
vt 0.217033 1.785714
vt 0.217033 1.785714
vt 0.217033 0.412088
vt 0.107143 1.785714
vt 0.107143 0.412088
vt 1.675824 0.000000
vt 0.302198 0.302198
vt 0.302198 0.000000
vt 1.675824 0.302198
vn 0.9997 -0.0263 0.0000
vn -0.9997 0.0263 0.0000
vn -0.0263 -0.9997 -0.0000
vn 0.0263 0.9997 -0.0000
usemtl Wood_Cherry_Original.004
s 1
f 1/1/1 2/2/1 3/3/1
f 4/4/1 3/3/1 2/2/1
f 5/5/1 6/6/1 7/7/1
f 6/6/1 5/5/1 8/8/1
f 9/9/2 10/10/2 11/11/2
f 12/12/2 11/11/2 10/10/2
f 13/13/3 14/14/3 15/15/3
f 14/14/3 13/13/3 16/16/3
f 17/17/4 18/18/4 19/19/4
f 20/20/4 19/19/4 18/18/4
usemtl Material2.004
f 21/21/2 22/22/2 23/23/2
f 22/22/2 21/21/2 24/24/2