# Blender v3.0.1 OBJ File: ''
# www.blender.org
mtllib 01.mtl
o model.001
v 0.808322 0.446261 -0.269441
v 0.808322 0.446261 0.269441
v -0.808323 0.446261 -0.269441
v -0.808323 0.446261 0.269441
v 0.808322 0.441209 0.269441
v 0.808322 0.441209 -0.269441
v -0.808323 0.441209 0.269441
v -0.808323 0.441209 -0.269441
v 0.808323 0.446261 0.269441
v -0.808322 0.446261 -0.269441
v -0.808322 0.446261 0.269441
v 0.808323 0.446261 -0.269441
v 0.808323 0.441209 -0.269441
v -0.808322 0.441209 0.269441
v -0.808322 0.441209 -0.269441
v 0.808323 0.441209 0.269441
vt 0.000000 0.000000
vt 0.000000 0.000000
vt 0.000000 0.000000
vt 0.000000 0.000000
vt 0.000000 0.000000
vt 0.000000 0.000000
vt 0.000000 0.000000
vt 0.000000 0.000000
vt 0.000000 0.000000
vt 0.000000 0.000000
vt 0.000000 0.000000
vt 0.000000 0.000000
vt 0.000000 0.000000
vt 0.000000 0.000000
vt 0.000000 0.000000
vt 0.000000 0.000000
vn 0.0000 -1.0000 -0.0000
vn 0.0000 1.0000 0.0000
usemtl material_0.015
s 1
f 1/1/1 2/2/1 3/3/1
f 4/4/1 3/3/1 2/2/1
f 5/5/2 6/6/2 7/7/2
f 8/8/2 7/7/2 6/6/2
f 9/9/2 10/10/2 11/11/2
f 10/10/2 9/9/2 12/12/2
f 13/13/1 14/14/1 15/15/1
f 14/14/1 13/13/1 16/16/1