# Blender v3.0.1 OBJ File: ''
# www.blender.org
mtllib 00.mtl
o model_normalized.066_model_normalized.070
v -0.342628 -0.600173 0.397345
v -0.392191 0.402551 0.348289
v -0.392191 -0.600173 0.348289
v -0.342628 0.402551 0.397346
v -0.394256 0.491029 0.350375
v -0.376801 0.402791 0.332740
v -0.378885 0.492071 0.334845
v -0.401136 0.579096 0.357326
v -0.344694 0.491029 0.399432
v -0.385852 0.581260 0.341884
v -0.412805 0.666492 0.369116
v -0.351574 0.579096 0.406383
v -0.329322 0.492071 0.383902
v -0.336289 0.581260 0.390941
v -0.363242 0.666492 0.418172
v -0.327238 0.402791 0.381796
v -0.376801 -0.600840 0.332740
v -0.327238 -0.600840 0.381796
v -0.378936 -0.633699 0.334896
v -0.329373 -0.633699 0.383953
v -0.344633 -0.631035 0.399371
v -0.394196 -0.631035 0.350314
v -0.350570 -0.661036 0.405369
v -0.400133 -0.661036 0.356312
v -0.360315 -0.689676 0.415215
v -0.335825 -0.666305 0.390471
v -0.373652 -0.716311 0.428690
v -0.346417 -0.697432 0.401173
v -0.409878 -0.689676 0.366159
v -0.423215 -0.716311 0.379633
v -0.390281 -0.740346 0.445490
v -0.360912 -0.726380 0.415818
v -0.395979 -0.697432 0.352116
v -0.410475 -0.726380 0.366761
v -0.439844 -0.740346 0.396434
v -0.428547 -0.752501 0.385020
v -0.460886 -0.762837 0.417693
v -0.438217 -0.762837 0.394789
v -0.388654 -0.762837 0.443846
v -0.438245 -0.762837 0.389400
v -0.383265 -0.762837 0.443818
v -0.411323 -0.762837 0.466750
v -0.378984 -0.752501 0.434076
v -0.466276 -0.762837 0.417721
v -0.411296 -0.762837 0.472139
v -0.411296 -0.772654 0.472139
v -0.383265 -0.772654 0.443818
v -0.438245 -0.772654 0.389400
v -0.466276 -0.772654 0.417721
v -0.385387 -0.666305 0.341415
v -0.348106 0.669757 0.402880
v -0.430266 0.758381 0.386757
v -0.380703 0.758381 0.435813
v -0.366162 0.764782 0.421122
v -0.388366 0.760063 0.443555
v -0.437271 0.756602 0.393833
v -0.387708 0.756602 0.442890
v -0.388366 0.764782 0.443555
v -0.381194 0.764782 0.436309
v -0.437929 0.764782 0.394499
v -0.430757 0.764782 0.387253
v -0.430757 0.760965 0.387253
v -0.437929 0.760063 0.394499
v -0.415725 0.764782 0.372066
v -0.397669 0.669757 0.353823
vt -4.180680 224.684006
vt -80.680702 1577.349976
vt -80.680702 224.684006
vt -4.180680 1577.349976
vt -4.180680 1573.780029
vt -80.680702 1693.180054
vt -80.680702 1573.780029
vt -135.306000 1577.680054
vt -111.306000 224.684006
vt -111.306000 1577.349976
vt -108.084999 1696.709961
vt -132.056000 1698.109985
vt -97.356300 1815.510010
vt -4.180680 1680.109985
vt -80.680702 1799.400024
vt -80.680702 1680.109985
vt -4.180680 1693.180054
vt -121.191002 1818.430054
vt -79.159599 1933.410034
vt -4.180680 1799.400024
vt -4.180680 1779.420044
vt -80.680702 1898.699951
vt -80.680702 1779.420044
vt 108.084999 1696.709961
vt 132.056000 1698.109985
vt 97.356300 1815.510010
vt 121.191002 1818.430054
vt 79.159599 1933.410034
vt -4.180680 1898.699951
vt 135.306000 1577.680054
vt 80.680702 1573.449951
vt 4.180680 1693.930054
vt 4.180680 1573.449951
vt 80.680702 1679.359985
vt 4.180680 1800.160034
vt 4.180680 1679.359985
vt 80.680702 1693.930054
vt 4.180680 1577.680054
vt 80.680702 223.783997
vt 80.680702 1577.680054
vt 4.180680 223.783997
vt 111.306000 224.684006
vt 135.306000 223.783997
vt 111.306000 1577.349976
vt 4.180680 233.287994
vt 80.680702 188.835999
vt 80.680702 233.287994
vt 4.180680 188.835999
vt 108.179001 183.050995
vt 131.977005 179.457001
vt -4.180680 190.639008
vt -80.680702 232.388000
vt -80.680702 190.639008
vt -80.680702 202.563995
vt -4.180680 161.048004
vt -4.180680 202.563995
vt 98.921700 142.580002
vt -4.180680 232.388000
vt -80.680702 161.048004
vt -80.680702 168.895004
vt -4.180680 127.378998
vt -4.180680 168.895004
vt 83.723602 103.945000
vt 121.916000 135.470993
vt 62.925598 68.013496
vt 105.398003 93.482101
vt -80.680702 127.378998
vt -80.680702 131.903000
vt -4.180680 90.386703
vt -4.180680 131.903000
vt -80.680702 92.418098
vt -4.180680 50.901402
vt -4.180680 92.418098
vt 36.994499 35.591202
vt 82.794098 54.430698
vt -80.680702 90.386703
vt -105.398003 93.482101
vt -62.925598 68.013496
vt -83.723602 103.945000
vt -82.794098 54.430698
vt -36.994499 35.591202
vt -80.680702 50.901402
vt -54.611401 19.193300
vt -80.680702 6.633810
vt -4.180680 51.325298
vt -80.680702 51.325298
vt -39.531898 5.250000
vt -4.180680 5.250000
vt 80.680702 53.127701
vt 4.180680 32.589699
vt 80.680702 32.589699
vt 43.712502 84.861397
vt 4.180680 80.680702
vt 39.531898 80.680702
vt 43.712502 0.000000
vt 39.531898 4.180680
vt 4.180680 4.180680
vt 4.180680 53.127701
vt 54.611401 19.193300
vt 4.180680 5.250000
vt 39.531898 5.250000
vt -4.180680 6.633810
vt 0.000000 84.861397
vt 0.000000 0.000000
vt 0.000000 -7.993110
vt 43.712502 5.250000
vt 0.000000 5.250000
vt -84.861397 5.250000
vt 43.712502 -7.993110
vt 0.000000 0.000000
vt -43.712502 84.861397
vt -43.712502 0.000000
vt 0.000000 84.861397
vt -84.861397 -7.993110
vt 0.000000 5.250000
vt -43.712502 -7.993110
vt 0.000000 -7.993110
vt 84.861397 -7.993110
vt 0.000000 5.250000
vt 0.000000 -7.993110
vt 84.861397 5.250000
vt -43.712502 5.250000
vt 80.680702 49.099098
vt 4.180680 94.220497
vt 4.180680 49.099098
vt 80.680702 94.220497
vt 4.180680 133.705994
vt 80.680702 88.584396
vt 80.680702 133.705994
vt 4.180680 88.584396
vt 4.180680 170.697998
vt 80.680702 125.575996
vt 80.680702 170.697998
vt -121.916000 135.470993
vt 4.180680 125.575996
vt 4.180680 204.367004
vt 80.680702 159.244995
vt 80.680702 204.367004
vt -98.921700 142.580002
vt -131.977005 179.457001
vt 4.180680 159.244995
vt -108.179001 183.050995
vt -135.306000 223.783997
vt 102.763000 1937.819946
vt -4.180680 1871.400024
vt -80.680702 1998.319946
vt -80.680702 1871.400024
vt 51.931099 2057.370117
vt -4.180680 1998.319946
vt 74.606598 2066.000000
vt 39.981499 2059.639893
vt 80.680702 480.929993
vt 4.180680 492.114014
vt 4.180680 480.929993
vt 80.680702 492.114014
vt 41.007599 2054.969971
vt 39.981499 2066.000000
vt 51.165401 4.180680
vt 39.981499 80.680702
vt 39.981499 4.180680
vt 51.165401 2066.000000
vt 51.165401 80.680702
vt -51.165401 2060.850098
vt -39.981499 2066.000000
vt -51.165401 2066.000000
vt -39.981499 2059.639893
vt -51.931099 2057.370117
vt -41.007599 2054.969971
vt -74.606598 2066.000000
vt 74.606598 4.180680
vt 74.606598 80.680702
vt 4.180680 2001.890015
vt 80.680702 1870.650024
vt 80.680702 2001.890015
vt -102.763000 1937.819946
vt 4.180680 1899.459961
vt 80.680702 1778.660034
vt 80.680702 1899.459961
vt 4.180680 1870.650024
vt 4.180680 1778.660034
vt 80.680702 1800.160034
vn -0.7035 -0.0000 0.7107
vn -0.7031 -0.0332 0.7103
vn -0.7107 -0.0000 -0.7035
vn -0.6992 -0.1104 0.7064
vn -0.7107 -0.0000 -0.7034
vn -0.6911 -0.1865 0.6983
vn 0.7107 -0.0000 0.7035
vn 0.7107 0.0000 0.7034
vn 0.7031 0.0332 -0.7103
vn 0.6992 0.1104 -0.7064
vn 0.7035 0.0000 -0.7107
vn 0.7108 0.0000 0.7034
vn 0.7005 -0.0920 -0.7077
vn -0.7005 0.0920 0.7077
vn -0.7005 0.0919 0.7077
vn -0.6772 0.2708 0.6842
vn -0.6333 0.4354 0.6398
vn -0.6333 0.4355 0.6398
vn -0.5731 0.5799 0.5790
vn -0.5015 0.7012 0.5067
vn -0.4228 0.7993 0.4271
vn 0.4228 -0.7993 -0.4271
vn 0.0000 1.0000 -0.0000
vn 0.0000 -1.0000 0.0000
vn 0.5015 -0.7012 -0.5067
vn 0.5731 -0.5799 -0.5790
vn 0.6333 -0.4355 -0.6398
vn 0.6333 -0.4354 -0.6398
vn 0.6772 -0.2708 -0.6842
vn -0.6791 -0.2608 0.6861
vn 0.1237 -0.9844 -0.1250
vn 0.7107 -0.0001 0.7035
vn 0.3564 -0.0943 0.9296
vn 0.1951 -0.8386 0.5087
vn 0.2640 -0.6757 0.6882
vn -0.7107 0.0001 -0.7035
vn -0.7107 0.0003 -0.7035
vn 0.6791 0.2608 -0.6861
vn 0.6911 0.1865 -0.6983
usemtl Color_008.003
s 1
f 1/1/1 2/2/1 3/3/1
f 2/2/1 1/1/1 4/4/1
f 4/5/2 5/6/2 2/7/2
f 6/8/3 3/9/3 2/10/3
f 6/8/3 2/10/3 5/11/3
f 7/12/3 5/11/3 8/13/3
f 6/8/3 5/11/3 7/12/3
f 9/14/4 8/15/4 5/16/4
f 5/6/2 4/5/2 9/17/2
f 7/12/3 8/13/3 10/18/3
f 10/18/3 8/13/3 11/19/5
f 8/15/4 9/14/4 12/20/4
f 12/21/6 11/22/6 8/23/6
f 9/24/7 13/25/7 12/26/7
f 12/26/7 14/27/7 15/28/7
f 12/26/7 13/25/7 14/27/7
f 11/22/6 12/21/6 15/29/6
f 9/24/7 16/30/8 13/25/7
f 6/31/9 13/32/9 16/33/9
f 7/34/10 14/35/10 13/36/10
f 13/32/9 6/31/9 7/37/9
f 16/38/11 17/39/11 6/40/11
f 17/39/11 16/38/11 18/41/11
f 1/42/7 18/43/7 16/30/8
f 1/42/7 16/30/8 4/44/12
f 4/44/12 16/30/8 9/24/7
f 18/45/13 19/46/13 17/47/13
f 19/46/13 18/45/13 20/48/13
f 21/49/7 20/50/7 18/43/7
f 21/49/7 18/43/7 1/42/7
f 21/51/14 3/52/14 22/53/15
f 22/54/16 23/55/16 21/56/16
f 23/57/7 20/50/7 21/49/7
f 3/52/14 21/51/14 1/58/14
f 23/55/16 22/54/16 24/59/16
f 24/60/17 25/61/17 23/62/17
f 25/63/7 26/64/7 23/57/7
f 23/57/7 26/64/7 20/50/7
f 27/65/7 28/66/7 25/63/7
f 25/63/7 28/66/7 26/64/7
f 25/61/17 24/60/17 29/67/18
f 29/68/19 27/69/19 25/70/19
f 30/71/20 31/72/20 27/73/20
f 31/74/7 32/75/7 27/65/7
f 27/65/7 32/75/7 28/66/7
f 27/69/19 29/68/19 30/76/19
f 33/77/3 30/78/3 29/79/3
f 34/80/3 30/78/3 33/77/3
f 34/80/3 35/81/3 30/78/3
f 31/72/20 30/71/20 35/82/20
f 36/83/3 35/81/3 34/80/3
f 37/84/21 31/85/21 35/86/21
f 35/81/3 38/87/3 37/88/3
f 38/87/3 35/81/3 36/83/3
f 36/89/22 39/90/22 38/91/22
f 40/92/23 37/93/23 38/94/23
f 40/92/23 38/94/23 41/95/23
f 39/96/23 41/95/23 38/94/23
f 42/97/23 41/95/23 39/96/23
f 39/90/22 36/89/22 43/98/22
f 43/99/7 42/100/7 39/101/12
f 31/85/21 37/84/21 42/102/21
f 37/93/23 44/103/23 42/97/23
f 45/104/23 42/97/23 44/103/23
f 42/100/7 43/99/7 31/74/7
f 42/97/23 45/104/23 41/95/23
f 46/105/7 41/106/7 45/107/7
f 44/108/1 46/105/1 45/107/1
f 41/106/7 46/105/7 47/109/7
f 46/110/24 48/111/24 47/112/24
f 48/111/24 46/110/24 49/113/24
f 46/105/1 44/108/1 49/114/1
f 44/115/3 48/116/3 49/117/3
f 48/118/11 41/119/11 47/120/11
f 41/119/11 48/118/11 40/121/11
f 48/116/3 44/115/3 40/122/3
f 44/103/23 37/93/23 40/92/23
f 36/123/25 32/124/25 43/125/25
f 31/74/7 43/99/7 32/75/7
f 32/124/25 36/123/25 34/126/25
f 28/127/26 34/128/26 33/129/26
f 34/128/26 28/127/26 32/130/26
f 26/131/27 33/132/27 50/133/28
f 33/77/3 29/79/3 50/134/3
f 33/132/27 26/131/27 28/135/27
f 20/136/29 50/137/29 19/138/29
f 50/134/3 24/139/3 19/140/3
f 50/134/3 29/79/3 24/139/3
f 50/137/29 20/136/29 26/141/29
f 19/140/3 24/139/3 22/142/3
f 19/140/3 22/142/3 17/143/3
f 17/143/3 22/142/3 3/9/3
f 17/143/3 3/9/3 6/8/3
f 15/28/7 14/27/7 51/144/7
f 15/145/30 52/146/30 11/147/30
f 15/28/7 51/144/7 53/148/7
f 52/146/30 15/145/30 53/149/30
f 53/148/7 54/150/7 55/151/7
f 53/148/7 51/144/7 54/150/7
f 56/152/31 53/153/31 57/154/31
f 53/153/31 56/152/31 52/155/31
f 55/151/7 57/156/32 53/148/7
f 55/151/7 54/150/7 58/157/7
f 59/158/23 60/159/23 58/160/23
f 58/157/33 54/150/34 59/161/35
f 60/159/23 59/158/23 61/162/23
f 62/163/3 60/164/3 61/165/3
f 62/163/3 63/166/36 60/164/3
f 52/167/3 63/166/36 62/163/3
f 63/166/36 52/167/3 56/168/37
f 64/169/3 62/163/3 61/165/3
f 64/169/3 52/167/3 62/163/3
f 61/162/23 54/170/23 64/171/23
f 54/172/38 65/173/38 64/174/38
f 65/175/3 52/167/3 64/169/3
f 10/18/3 11/19/5 65/175/3
f 51/176/39 10/177/39 65/178/39
f 65/175/3 11/19/5 52/167/3
f 65/173/38 54/172/38 51/179/38
f 54/170/23 61/162/23 59/158/23
f 10/177/39 51/176/39 14/180/39
f 14/35/10 7/34/10 10/181/10