# Blender v3.0.1 OBJ File: ''
# www.blender.org
mtllib 01.mtl
o group_2_ID6
v -0.522821 -0.009873 0.340346
v -0.522821 -0.433661 0.326416
v -0.522821 -0.433661 0.377367
v -0.522821 -0.009873 0.289396
v -0.522821 -0.009873 0.289396
v -0.522821 -0.009873 0.340346
v -0.522821 -0.433661 0.326416
v -0.522821 -0.433661 0.377367
v -0.522821 -0.433661 0.326416
v 0.522822 -0.433661 0.377367
v -0.522821 -0.433661 0.377367
v 0.522822 -0.433661 0.326416
v 0.522822 -0.433661 0.326416
v -0.522821 -0.433661 0.326416
v 0.522822 -0.433661 0.377367
v -0.522821 -0.433661 0.377367
v 0.522822 -0.433661 0.377367
v -0.522821 -0.009873 0.340346
v -0.522821 -0.433661 0.377367
v 0.522822 -0.009873 0.340346
v 0.522822 -0.009873 0.340346
v 0.522822 -0.433661 0.377367
v -0.522821 -0.009873 0.340346
v -0.522821 -0.433661 0.377367
v 0.522822 -0.009873 0.340346
v -0.522821 -0.009873 0.289396
v -0.522821 -0.009873 0.340346
v 0.522822 -0.009873 0.289396
v 0.522822 -0.009873 0.289396
v 0.522822 -0.009873 0.340346
v -0.522821 -0.009873 0.289396
v -0.522821 -0.009873 0.340346
v -0.522821 -0.009873 0.289396
v 0.522822 -0.433661 0.326416
v -0.522821 -0.433661 0.326416
v 0.522822 -0.009873 0.289396
v 0.522822 -0.009873 0.289396
v -0.522821 -0.009873 0.289396
v 0.522822 -0.433661 0.326416
v -0.522821 -0.433661 0.326416
v 0.522822 -0.433661 0.326416
v 0.522822 -0.009873 0.340346
v 0.522822 -0.433661 0.377367
v 0.522822 -0.009873 0.289396
v 0.522822 -0.009873 0.289396
v 0.522822 -0.433661 0.326416
v 0.522822 -0.009873 0.340346
v 0.522822 -0.433661 0.377367
vt -0.043548 1.236295
vt -0.059934 -0.000000
vt -0.000000 -0.000000
vt -0.103482 1.236295
vt -0.103482 1.236295
vt -0.043548 1.236295
vt -0.059934 -0.000000
vt -0.000000 -0.000000
vt -0.000000 0.148636
vt -1.230000 -0.000000
vt -0.000000 -0.000000
vt -1.230000 0.148636
vt -1.230000 0.148636
vt -0.000000 0.148636
vt -1.230000 -0.000000
vt -0.000000 -0.000000
vt 1.230000 0.000000
vt -0.000000 1.241003
vt 0.000000 0.000000
vt 1.230000 1.241003
vt 1.230000 1.241003
vt 1.230000 0.000000
vt -0.000000 1.241003
vt 0.000000 0.000000
vt 1.230000 0.107998
vt 0.000000 0.256634
vt 0.000000 0.107998
vt 1.230000 0.256634
vt 1.230000 0.256634
vt 1.230000 0.107998
vt 0.000000 0.256634
vt 0.000000 0.107998
vt 0.000000 1.253938
vt -1.230000 0.012935
vt -0.000000 0.012935
vt -1.230000 1.253938
vt -1.230000 1.253938
vt 0.000000 1.253938
vt -1.230000 0.012935
vt -0.000000 0.012935
vt 0.059934 0.000000
vt 0.043548 1.236295
vt 0.000000 0.000000
vt 0.103482 1.236295
vt 0.103482 1.236295
vt 0.059934 0.000000
vt 0.043548 1.236295
vt 0.000000 0.000000
vn -1.0000 0.0000 0.0000
vn 1.0000 -0.0000 0.0000
vn 0.0000 -1.0000 0.0000
vn 0.0000 1.0000 0.0000
vn 0.0000 0.0870 0.9962
vn 0.0000 -0.0870 -0.9962
usemtl Color_D04.003
s 1
f 1/1/1 2/2/1 3/3/1
f 2/2/1 1/1/1 4/4/1
f 5/5/2 6/6/2 7/7/2
f 8/8/2 7/7/2 6/6/2
f 9/9/3 10/10/3 11/11/3
f 10/10/3 9/9/3 12/12/3
f 13/13/4 14/14/4 15/15/4
f 16/16/4 15/15/4 14/14/4
f 17/17/5 18/18/5 19/19/5
f 18/18/5 17/17/5 20/20/5
f 21/21/6 22/22/6 23/23/6
f 24/24/6 23/23/6 22/22/6
f 25/25/4 26/26/4 27/27/4
f 26/26/4 25/25/4 28/28/4
f 29/29/3 30/30/3 31/31/3
f 32/32/3 31/31/3 30/30/3
f 33/33/6 34/34/6 35/35/6
f 34/34/6 33/33/6 36/36/6
f 37/37/5 38/38/5 39/39/5
f 40/40/5 39/39/5 38/38/5
f 41/41/2 42/42/2 43/43/2
f 42/42/2 41/41/2 44/44/2
f 45/45/1 46/46/1 47/47/1
f 48/48/1 47/47/1 46/46/1