# Blender v3.0.1 OBJ File: ''
# www.blender.org
mtllib 02.mtl
o IKEA_Glenn_OBJ.012
v 0.347324 -0.486973 0.376982
v -0.347595 -0.482188 0.372197
v -0.347595 -0.486973 0.376982
v 0.347324 -0.482188 0.372197
v -0.347595 -0.480437 0.365660
v -0.347595 -0.493510 0.378733
v 0.347324 -0.493510 0.378734
v 0.347324 -0.500046 0.376982
v -0.347595 -0.500046 0.376982
v 0.347324 -0.504832 0.372197
v -0.347595 -0.504832 0.372197
v 0.347324 -0.506583 0.365660
v -0.347595 -0.506583 0.365660
v 0.347324 -0.504832 0.359124
v -0.347595 -0.504832 0.359124
v 0.347324 -0.500046 0.354339
v -0.347595 -0.500046 0.354338
v -0.347595 -0.493510 0.352587
v 0.347324 -0.493510 0.352587
v 0.347324 -0.486973 0.354339
v -0.347595 -0.486973 0.354338
v -0.347595 -0.482188 0.359124
v 0.347324 -0.480437 0.365660
v 0.347324 -0.482188 0.359124
vt 178.524506 3.500000
vt -183.872604 6.062200
vt -183.872604 3.500000
vt 178.524506 6.062200
vt -183.872604 7.000000
vt -183.872604 -0.000000
vt 178.524506 -0.000000
vt 178.524506 -3.500000
vt -183.872604 -3.500000
vt 178.524506 -6.062200
vt -183.872604 -6.062200
vt 178.524506 -7.000000
vt -183.872604 -7.000000
vt 178.524506 -6.062200
vt -183.872604 -6.062200
vt 178.524506 -3.500000
vt -183.872604 -3.500000
vt -183.872604 0.000000
vt 178.524506 0.000000
vt 178.524506 3.500000
vt -183.872604 3.500000
vt -183.872604 6.062200
vt 178.524506 7.000000
vt 178.524506 6.062200
vn 0.0000 0.5000 0.8660
vn 0.0000 0.8660 0.5000
vn 0.0000 1.0000 -0.0000
vn -1.0000 0.0000 0.0000
vn -0.0000 -0.0000 1.0000
vn -0.0000 -0.5000 0.8660
vn 0.0000 -0.4999 0.8661
vn 0.0000 -0.8660 0.5000
vn 0.0000 -1.0000 -0.0000
vn 0.0000 -0.8660 -0.5000
vn 0.0000 -0.5000 -0.8660
vn 0.0000 -0.0000 -1.0000
vn 0.0000 0.5000 -0.8660
vn 0.0000 0.8661 -0.4999
vn 1.0000 0.0000 0.0000
vn 0.0000 0.8660 -0.5000
usemtl wire_007007007.002
s 1
f 1/1/1 2/2/2 3/3/1
f 4/4/2 5/5/3 2/2/2
f 3/3/4 5/5/4 6/6/4
f 7/7/5 3/3/1 6/6/5
f 8/8/6 6/6/5 9/9/7
f 5/5/4 9/9/4 6/6/4
f 10/10/8 9/9/7 11/11/8
f 12/12/9 11/11/8 13/13/9
f 5/5/4 13/13/4 11/11/4
f 14/14/10 13/13/9 15/15/10
f 16/16/11 15/15/10 17/17/11
f 18/18/4 15/15/4 5/5/4
f 19/19/12 17/17/11 18/18/12
f 20/20/13 18/18/12 21/21/13
f 22/22/4 18/18/4 5/5/4
f 22/22/14 20/20/13 21/21/13
f 23/23/3 22/22/14 5/5/3
f 20/20/15 23/23/15 19/19/15
f 1/1/15 23/23/15 4/4/15
f 16/16/15 23/23/15 14/14/15
f 8/8/15 23/23/15 7/7/15
f 12/12/15 23/23/15 10/10/15
f 1/1/1 4/4/2 2/2/2
f 4/4/2 23/23/3 5/5/3
f 3/3/4 2/2/4 5/5/4
f 7/7/5 1/1/1 3/3/1
f 8/8/6 7/7/5 6/6/5
f 5/5/4 11/11/4 9/9/4
f 10/10/8 8/8/6 9/9/7
f 12/12/9 10/10/8 11/11/8
f 5/5/4 15/15/4 13/13/4
f 14/14/10 12/12/9 13/13/9
f 16/16/11 14/14/10 15/15/10
f 18/18/4 17/17/4 15/15/4
f 19/19/12 16/16/11 17/17/11
f 20/20/13 19/19/12 18/18/12
f 22/22/4 21/21/4 18/18/4
f 22/22/14 24/24/16 20/20/13
f 23/23/3 24/24/16 22/22/14
f 20/20/15 24/24/15 23/23/15
f 1/1/15 7/7/15 23/23/15
f 16/16/15 19/19/15 23/23/15
f 8/8/15 10/10/15 23/23/15
f 12/12/15 14/14/15 23/23/15