# Blender v3.0.1 OBJ File: ''
# www.blender.org
mtllib 01.mtl
o model.048_model.2017
v -0.713577 0.561023 -0.361496
v -0.713577 0.561023 -0.349995
v -0.711357 0.561023 -0.344636
v -0.714334 0.561023 -0.355745
v -0.711357 0.561023 -0.366855
v -0.707826 0.561023 -0.340034
v -0.707826 0.561023 -0.371456
v -0.703224 0.561023 -0.336503
v -0.703224 0.561023 -0.374987
v -0.697866 0.561023 -0.334283
v -0.697866 0.561023 -0.377207
v -0.692115 0.561023 -0.333526
v -0.692115 0.561023 -0.377964
v -0.686364 0.561023 -0.334283
v -0.686364 0.561023 -0.377207
v -0.681006 0.561023 -0.336503
v -0.681006 0.561023 -0.374987
v -0.676404 0.561023 -0.340034
v -0.676404 0.561023 -0.371456
v -0.672873 0.561023 -0.344636
v -0.672873 0.561023 -0.366855
v -0.670653 0.561023 -0.349995
v -0.670653 0.561023 -0.361496
v -0.669896 0.561023 -0.355745
v -0.676404 -0.583244 -0.371456
v -0.681006 0.561023 -0.374987
v -0.676404 0.561023 -0.371456
v -0.681006 -0.583244 -0.374987
v -0.686365 0.561023 -0.377207
v -0.686365 -0.583244 -0.377207
v -0.692115 0.561023 -0.377964
v -0.692115 -0.583244 -0.377964
v -0.697866 0.561023 -0.377207
v -0.697866 -0.583244 -0.377207
v -0.703225 0.561023 -0.374987
v -0.703225 -0.583244 -0.374987
v -0.707826 0.561023 -0.371456
v -0.707826 -0.583244 -0.371456
v -0.711357 -0.583244 -0.366855
v -0.711357 0.561023 -0.366855
v -0.713577 -0.583244 -0.361496
v -0.713577 0.561023 -0.361496
v -0.714334 -0.583244 -0.355745
v -0.713577 -0.583244 -0.349995
v -0.714334 0.561023 -0.355745
v -0.713577 0.561023 -0.349995
v -0.711357 -0.583244 -0.344636
v -0.711357 0.561023 -0.344636
v -0.707826 -0.583244 -0.340034
v -0.707826 0.561023 -0.340034
v -0.703225 0.561023 -0.336503
v -0.703225 -0.583244 -0.336503
v -0.697866 0.561023 -0.334283
v -0.697866 -0.583244 -0.334283
v -0.692115 0.561023 -0.333526
v -0.692115 -0.583244 -0.333526
v -0.686365 0.561023 -0.334283
v -0.686365 -0.583244 -0.334283
v -0.681006 0.561023 -0.336503
v -0.681006 -0.583244 -0.336503
v -0.676404 0.561023 -0.340034
v -0.676404 -0.583244 -0.340034
v -0.672873 -0.583244 -0.344636
v -0.672873 0.561023 -0.344636
v -0.670653 -0.583244 -0.349995
v -0.670653 0.561023 -0.349995
v -0.669896 -0.583244 -0.355745
v -0.670653 -0.583244 -0.361496
v -0.669896 0.561023 -0.355745
v -0.670653 0.561023 -0.361496
v -0.672873 -0.583244 -0.366855
v -0.672873 0.561023 -0.366855
v -0.676404 0.561023 -0.371456
v -0.681006 0.561023 -0.374987
v -0.676404 -0.583244 -0.371456
v -0.672873 0.561023 -0.366855
v -0.672873 -0.583244 -0.366855
v -0.670654 0.561023 -0.361496
v -0.670654 -0.583244 -0.361496
v -0.669896 0.561023 -0.355745
v -0.669896 -0.583244 -0.355745
v -0.670654 0.561023 -0.349995
v -0.670654 -0.583244 -0.349995
v -0.672873 0.561023 -0.344636
v -0.672873 -0.583244 -0.344636
v -0.676404 0.561023 -0.340034
v -0.676404 -0.583244 -0.340034
v -0.681006 -0.583244 -0.336503
v -0.681006 0.561023 -0.336503
v -0.686365 -0.583244 -0.334283
v -0.692115 -0.583244 -0.333526
v -0.686365 0.561023 -0.334283
v -0.692115 0.561023 -0.333526
v -0.697866 -0.583244 -0.334283
v -0.703225 -0.583244 -0.336503
v -0.697866 0.561023 -0.334283
v -0.703225 0.561023 -0.336503
v -0.707826 -0.583244 -0.340034
v -0.707826 0.561023 -0.340034
v -0.711357 0.561023 -0.344636
v -0.711357 -0.583244 -0.344636
v -0.713577 0.561023 -0.349995
v -0.713577 -0.583244 -0.349995
v -0.714334 0.561023 -0.355745
v -0.714334 -0.583244 -0.355745
v -0.713577 0.561023 -0.361496
v -0.713577 -0.583244 -0.361496
v -0.711357 0.561023 -0.366855
v -0.711357 -0.583244 -0.366855
v -0.707826 0.561023 -0.371456
v -0.707826 -0.583244 -0.371456
v -0.703225 -0.583244 -0.374987
v -0.703225 0.561023 -0.374987
v -0.697866 -0.583244 -0.377207
v -0.692115 -0.583244 -0.377964
v -0.697866 0.561023 -0.377207
v -0.692115 0.561023 -0.377964
v -0.686365 -0.583244 -0.377207
v -0.686365 0.561023 -0.377207
v -0.681006 -0.583244 -0.374987
v -0.713577 -0.583244 -0.349995
v -0.713577 -0.583244 -0.361496
v -0.711357 -0.583244 -0.366855
v -0.714334 -0.583244 -0.355745
v -0.711357 -0.583244 -0.344636
v -0.707826 -0.583244 -0.371456
v -0.707826 -0.583244 -0.340034
v -0.703225 -0.583244 -0.374987
v -0.703225 -0.583244 -0.336503
v -0.697866 -0.583244 -0.377207
v -0.697866 -0.583244 -0.334283
v -0.692115 -0.583244 -0.377964
v -0.692115 -0.583244 -0.333526
v -0.686365 -0.583244 -0.377207
v -0.686365 -0.583244 -0.334283
v -0.681006 -0.583244 -0.374987
v -0.681006 -0.583244 -0.336503
v -0.676404 -0.583244 -0.371456
v -0.676404 -0.583244 -0.340034
v -0.672873 -0.583244 -0.366855
v -0.672873 -0.583244 -0.344636
v -0.670654 -0.583244 -0.361496
v -0.670654 -0.583244 -0.349995
v -0.669896 -0.583244 -0.355745
v -0.669896 -0.583244 -0.355745
v -0.670654 -0.583244 -0.361496
v -0.670654 -0.583244 -0.349995
v -0.672873 -0.583244 -0.344636
v -0.672873 -0.583244 -0.366855
v -0.676404 -0.583244 -0.340034
v -0.676404 -0.583244 -0.371456
v -0.681006 -0.583244 -0.336503
v -0.681006 -0.583244 -0.374987
v -0.686365 -0.583244 -0.334283
v -0.686365 -0.583244 -0.377207
v -0.692115 -0.583244 -0.333526
v -0.692115 -0.583244 -0.377964
v -0.697866 -0.583244 -0.334283
v -0.697866 -0.583244 -0.377207
v -0.703225 -0.583244 -0.336503
v -0.703225 -0.583244 -0.374987
v -0.707826 -0.583244 -0.340034
v -0.707826 -0.583244 -0.371456
v -0.711357 -0.583244 -0.344636
v -0.711357 -0.583244 -0.366855
v -0.713577 -0.583244 -0.349995
v -0.713577 -0.583244 -0.361496
v -0.714334 -0.583244 -0.355745
v -0.707911 -0.322419 -0.340996
v -0.707911 -0.313923 -0.340996
v -0.706272 -0.309965 -0.340996
v -0.708471 -0.318171 -0.340996
v -0.706272 -0.326378 -0.340996
v -0.703663 -0.329777 -0.340996
v -0.703663 -0.306565 -0.340996
v -0.700264 -0.332385 -0.340996
v -0.700264 -0.303957 -0.340996
v -0.696306 -0.302317 -0.340996
v -0.696306 -0.334025 -0.340996
v -0.692058 -0.301758 -0.340996
v -0.692058 -0.334584 -0.340996
v -0.687810 -0.334025 -0.340996
v -0.687810 -0.302317 -0.340996
v -0.683851 -0.303957 -0.340996
v -0.683851 -0.332385 -0.340996
v -0.680452 -0.306565 -0.340996
v -0.680452 -0.329777 -0.340996
v -0.677844 -0.309965 -0.340996
v -0.677844 -0.326378 -0.340996
v -0.676204 -0.322419 -0.340996
v -0.676204 -0.313923 -0.340996
v -0.675645 -0.318171 -0.340996
v -0.675645 -0.318171 -0.340996
v -0.676204 -0.313923 -0.340996
v -0.676204 -0.322419 -0.340996
v -0.677844 -0.309965 -0.340996
v -0.677844 -0.326378 -0.340996
v -0.680452 -0.329777 -0.340996
v -0.680452 -0.306565 -0.340996
v -0.683851 -0.332385 -0.340996
v -0.683851 -0.303957 -0.340996
v -0.687810 -0.334025 -0.340996
v -0.687810 -0.302317 -0.340996
v -0.692058 -0.301758 -0.340996
v -0.692058 -0.334584 -0.340996
v -0.696306 -0.334025 -0.340996
v -0.696306 -0.302317 -0.340996
v -0.700264 -0.332385 -0.340996
v -0.700264 -0.303957 -0.340996
v -0.703663 -0.306565 -0.340996
v -0.703663 -0.329777 -0.340996
v -0.706272 -0.309965 -0.340996
v -0.706272 -0.326378 -0.340996
v -0.707911 -0.322419 -0.340996
v -0.707911 -0.313923 -0.340996
v -0.708471 -0.318171 -0.340996
v -0.669896 0.561023 -0.355745
v -0.670653 0.561023 -0.349995
v -0.670653 0.561023 -0.361496
v -0.672873 0.561023 -0.366855
v -0.672873 0.561023 -0.344636
v -0.676404 0.561023 -0.371456
v -0.676404 0.561023 -0.340034
v -0.681006 0.561023 -0.374987
v -0.681006 0.561023 -0.336503
v -0.686365 0.561023 -0.377207
v -0.686365 0.561023 -0.334283
v -0.692115 0.561023 -0.377964
v -0.692115 0.561023 -0.333526
v -0.697866 0.561023 -0.377207
v -0.697866 0.561023 -0.334283
v -0.703225 0.561023 -0.374987
v -0.703225 0.561023 -0.336503
v -0.707826 0.561023 -0.371456
v -0.707826 0.561023 -0.340034
v -0.711357 0.561023 -0.366855
v -0.711357 0.561023 -0.344636
v -0.713577 0.561023 -0.361496
v -0.713577 0.561023 -0.349995
v -0.714334 0.561023 -0.355745
vn 0.0000 1.0000 0.0000
vn 0.7071 0.0000 -0.7071
vn 0.5375 0.0000 -0.8433
vn 0.4616 0.0000 -0.8871
vn 0.3009 0.0000 -0.9537
vn 0.2162 0.0000 -0.9763
vn 0.0438 0.0000 -0.9990
vn -0.0438 0.0000 -0.9990
vn -0.2162 0.0000 -0.9764
vn -0.3009 0.0000 -0.9537
vn -0.4616 0.0000 -0.8871
vn -0.5375 0.0000 -0.8433
vn -0.7071 0.0000 -0.7071
vn -0.8433 0.0000 -0.5375
vn -0.8871 0.0000 -0.4616
vn -0.9537 0.0000 -0.3009
vn -0.9764 0.0000 -0.2162
vn -0.9990 0.0000 -0.0438
vn -0.9763 0.0000 0.2162
vn -0.9990 -0.0000 0.0438
vn -0.9537 -0.0000 0.3009
vn -0.8871 -0.0000 0.4616
vn -0.8433 -0.0000 0.5375
vn -0.7071 -0.0000 0.7071
vn -0.5375 -0.0000 0.8433
vn -0.4616 -0.0000 0.8871
vn -0.3009 -0.0000 0.9537
vn -0.2162 -0.0000 0.9764
vn -0.0438 -0.0000 0.9990
vn 0.0438 -0.0000 0.9990
vn 0.2162 -0.0000 0.9763
vn 0.3009 -0.0000 0.9537
vn 0.4616 -0.0000 0.8871
vn 0.5375 -0.0000 0.8433
vn 0.7071 -0.0000 0.7071
vn 0.8433 -0.0000 0.5375
vn 0.8871 -0.0000 0.4616
vn 0.9537 -0.0000 0.3009
vn 0.9763 -0.0000 0.2162
vn 0.9990 -0.0000 0.0438
vn 0.9764 0.0000 -0.2162
vn 0.9990 0.0000 -0.0438
vn 0.9537 0.0000 -0.3009
vn 0.8871 0.0000 -0.4616
vn 0.8433 0.0000 -0.5375
vn -0.8871 -0.0000 0.4615
vn -0.9990 0.0000 0.0439
vn -0.9990 -0.0000 -0.0439
vn -0.8871 0.0000 -0.4615
vn -0.4615 0.0000 -0.8871
vn -0.0439 0.0000 -0.9990
vn -0.2162 0.0000 -0.9763
vn 0.0439 0.0000 -0.9990
vn 0.4615 0.0000 -0.8871
vn 0.3009 0.0000 -0.9536
vn 0.8871 -0.0000 -0.4615
vn 0.9763 -0.0000 -0.2162
vn 0.9990 0.0000 -0.0439
vn 0.9990 -0.0000 0.0439
vn 0.9536 -0.0000 0.3009
vn 0.8871 -0.0000 0.4615
vn 0.4615 -0.0000 0.8871
vn 0.3009 -0.0000 0.9536
vn 0.0439 -0.0000 0.9990
vn -0.0439 -0.0000 0.9990
vn -0.2162 -0.0000 0.9763
vn -0.4615 -0.0000 0.8871
vn 0.0000 -1.0000 0.0000
vn -0.0000 0.0000 -1.0000
vn 0.0000 0.0000 1.0000
usemtl Default_OBJ.221
s 1
f 1//1 2//1 3//1
f 2//1 1//1 4//1
f 1//1 3//1 5//1
f 5//1 3//1 6//1
f 5//1 6//1 7//1
f 7//1 6//1 8//1
f 7//1 8//1 9//1
f 9//1 8//1 10//1
f 9//1 10//1 11//1
f 11//1 10//1 12//1
f 11//1 12//1 13//1
f 13//1 12//1 14//1
f 13//1 14//1 15//1
f 15//1 14//1 16//1
f 15//1 16//1 17//1
f 17//1 16//1 18//1
f 17//1 18//1 19//1
f 19//1 18//1 20//1
f 19//1 20//1 21//1
f 21//1 20//1 22//1
f 21//1 22//1 23//1
f 23//1 22//1 24//1
f 25//2 26//3 27//2
f 26//3 25//2 28//4
f 28//4 29//5 26//3
f 30//6 31//7 29//5
f 29//5 28//4 30//6
f 32//8 33//9 31//7
f 31//7 30//6 32//8
f 33//9 32//8 34//10
f 34//10 35//11 33//9
f 35//11 34//10 36//12
f 36//12 37//13 35//11
f 37//13 36//12 38//13
f 39//14 37//13 38//13
f 37//13 39//14 40//15
f 41//16 40//15 39//14
f 40//15 41//16 42//17
f 43//18 42//17 41//16
f 44//19 45//20 43//18
f 42//17 43//18 45//20
f 45//20 44//19 46//21
f 47//22 46//21 44//19
f 46//21 47//22 48//23
f 49//24 48//23 47//22
f 48//23 49//24 50//24
f 49//24 51//25 50//24
f 51//25 49//24 52//26
f 52//26 53//27 51//25
f 53//27 52//26 54//28
f 54//28 55//29 53//27
f 56//30 57//31 55//29
f 55//29 54//28 56//30
f 57//31 56//30 58//32
f 58//32 59//33 57//31
f 59//33 58//32 60//34
f 60//34 61//35 59//33
f 61//35 60//34 62//35
f 63//36 61//35 62//35
f 61//35 63//36 64//37
f 65//38 64//37 63//36
f 64//37 65//38 66//39
f 67//40 66//39 65//38
f 68//41 69//42 67//40
f 66//39 67//40 69//42
f 69//42 68//41 70//43
f 71//44 70//43 68//41
f 70//43 71//44 72//45
f 25//2 72//45 71//44
f 72//45 25//2 27//2
f 73//24 74//25 75//24
f 73//24 75//24 76//23
f 76//23 77//46 78//21
f 77//46 76//23 75//24
f 78//21 79//19 80//47
f 79//19 78//21 77//46
f 81//48 80//47 79//19
f 80//47 81//48 82//17
f 82//17 83//16 84//49
f 83//16 82//17 81//48
f 85//14 84//49 83//16
f 84//49 85//14 86//13
f 87//13 88//12 86//13
f 87//13 86//13 85//14
f 89//50 86//13 88//12
f 88//12 90//10 89//50
f 90//10 91//51 92//52
f 92//52 89//50 90//10
f 93//53 92//52 91//51
f 91//51 94//6 93//53
f 94//6 95//54 96//55
f 96//55 93//53 94//6
f 97//3 96//55 95//54
f 95//54 98//2 97//3
f 99//2 98//2 100//45
f 99//2 97//3 98//2
f 101//56 100//45 98//2
f 100//45 101//56 102//43
f 102//43 103//57 104//58
f 103//57 102//43 101//56
f 105//59 104//58 103//57
f 104//58 105//59 106//39
f 106//39 107//60 108//61
f 107//60 106//39 105//59
f 109//36 108//61 107//60
f 108//61 109//36 110//35
f 111//35 112//34 110//35
f 111//35 110//35 109//36
f 113//62 110//35 112//34
f 112//34 114//63 113//62
f 114//63 115//64 116//31
f 116//31 113//62 114//63
f 117//65 116//31 115//64
f 115//64 118//66 117//65
f 119//27 117//65 118//66
f 118//66 120//67 119//27
f 74//25 119//27 120//67
f 120//67 75//24 74//25
f 121//68 122//68 123//68
f 122//68 121//68 124//68
f 121//68 123//68 125//68
f 125//68 123//68 126//68
f 125//68 126//68 127//68
f 127//68 126//68 128//68
f 127//68 128//68 129//68
f 129//68 128//68 130//68
f 129//68 130//68 131//68
f 131//68 130//68 132//68
f 131//68 132//68 133//68
f 133//68 132//68 134//68
f 133//68 134//68 135//68
f 135//68 134//68 136//68
f 135//68 136//68 137//68
f 137//68 136//68 138//68
f 137//68 138//68 139//68
f 139//68 138//68 140//68
f 139//68 140//68 141//68
f 141//68 140//68 142//68
f 141//68 142//68 143//68
f 143//68 142//68 144//68
f 145//1 146//1 147//1
f 147//1 146//1 148//1
f 146//1 149//1 148//1
f 148//1 149//1 150//1
f 149//1 151//1 150//1
f 150//1 151//1 152//1
f 151//1 153//1 152//1
f 152//1 153//1 154//1
f 153//1 155//1 154//1
f 154//1 155//1 156//1
f 155//1 157//1 156//1
f 156//1 157//1 158//1
f 157//1 159//1 158//1
f 158//1 159//1 160//1
f 159//1 161//1 160//1
f 160//1 161//1 162//1
f 161//1 163//1 162//1
f 162//1 163//1 164//1
f 163//1 165//1 164//1
f 164//1 165//1 166//1
f 165//1 167//1 166//1
f 168//1 166//1 167//1
f 169//69 170//69 171//69
f 170//69 169//69 172//69
f 169//69 171//69 173//69
f 173//69 171//69 174//69
f 174//69 171//69 175//69
f 174//69 175//69 176//69
f 176//69 175//69 177//69
f 176//69 177//69 178//69
f 179//69 178//69 180//69
f 176//69 178//69 179//69
f 179//69 180//69 181//69
f 181//69 180//69 182//69
f 182//69 180//69 183//69
f 182//69 183//69 184//69
f 182//69 184//69 185//69
f 185//69 184//69 186//69
f 185//69 186//69 187//69
f 187//69 186//69 188//69
f 187//69 188//69 189//69
f 189//69 188//69 190//69
f 190//69 188//69 191//69
f 190//69 191//69 192//69
f 193//70 194//70 195//70
f 194//70 196//70 195//70
f 195//70 196//70 197//70
f 197//70 196//70 198//70
f 196//70 199//70 198//70
f 198//70 199//70 200//70
f 199//70 201//70 200//70
f 200//70 201//70 202//70
f 201//70 203//70 202//70
f 203//70 204//70 202//70
f 202//70 204//70 205//70
f 205//70 204//70 206//70
f 204//70 207//70 206//70
f 206//70 207//70 208//70
f 207//70 209//70 208//70
f 209//70 210//70 208//70
f 208//70 210//70 211//70
f 210//70 212//70 211//70
f 211//70 212//70 213//70
f 213//70 212//70 214//70
f 212//70 215//70 214//70
f 216//70 214//70 215//70
f 217//68 218//68 219//68
f 219//68 218//68 220//68
f 218//68 221//68 220//68
f 220//68 221//68 222//68
f 221//68 223//68 222//68
f 222//68 223//68 224//68
f 223//68 225//68 224//68
f 224//68 225//68 226//68
f 225//68 227//68 226//68
f 226//68 227//68 228//68
f 227//68 229//68 228//68
f 228//68 229//68 230//68
f 229//68 231//68 230//68
f 230//68 231//68 232//68
f 231//68 233//68 232//68
f 232//68 233//68 234//68
f 233//68 235//68 234//68
f 234//68 235//68 236//68
f 235//68 237//68 236//68
f 236//68 237//68 238//68
f 237//68 239//68 238//68
f 240//68 238//68 239//68