# Blender v3.0.1 OBJ File: ''
# www.blender.org
mtllib 03.mtl
o model.060_model.2029
v 0.668654 0.561023 -0.361496
v 0.668654 0.561023 -0.349995
v 0.670874 0.561023 -0.344636
v 0.667897 0.561023 -0.355745
v 0.670874 0.561023 -0.366855
v 0.674405 0.561023 -0.340034
v 0.674405 0.561023 -0.371456
v 0.679007 0.561023 -0.336503
v 0.679007 0.561023 -0.374987
v 0.684365 0.561023 -0.334283
v 0.684365 0.561023 -0.377207
v 0.690116 0.561023 -0.333526
v 0.690116 0.561023 -0.377964
v 0.695867 0.561023 -0.334283
v 0.695867 0.561023 -0.377207
v 0.701225 0.561023 -0.336503
v 0.701225 0.561023 -0.374987
v 0.705827 0.561023 -0.340034
v 0.705827 0.561023 -0.371456
v 0.709358 0.561023 -0.344636
v 0.709358 0.561023 -0.366855
v 0.711578 0.561023 -0.349995
v 0.711578 0.561023 -0.361496
v 0.712335 0.561023 -0.355745
v 0.705827 -0.583244 -0.371456
v 0.701225 0.561023 -0.374987
v 0.705827 0.561023 -0.371456
v 0.701225 -0.583244 -0.374987
v 0.695866 0.561023 -0.377207
v 0.695866 -0.583244 -0.377207
v 0.690116 0.561023 -0.377964
v 0.690116 -0.583244 -0.377964
v 0.684365 0.561023 -0.377207
v 0.684365 -0.583244 -0.377207
v 0.679006 0.561023 -0.374987
v 0.679006 -0.583244 -0.374987
v 0.674405 0.561023 -0.371456
v 0.674405 -0.583244 -0.371456
v 0.670874 -0.583244 -0.366855
v 0.670874 0.561023 -0.366855
v 0.668654 -0.583244 -0.361496
v 0.668654 0.561023 -0.361496
v 0.667897 -0.583244 -0.355745
v 0.668654 -0.583244 -0.349995
v 0.667897 0.561023 -0.355745
v 0.668654 0.561023 -0.349995
v 0.670874 -0.583244 -0.344636
v 0.670874 0.561023 -0.344636
v 0.674405 -0.583244 -0.340034
v 0.674405 0.561023 -0.340034
v 0.679006 0.561023 -0.336503
v 0.679006 -0.583244 -0.336503
v 0.684365 0.561023 -0.334283
v 0.684365 -0.583244 -0.334283
v 0.690116 0.561023 -0.333526
v 0.690116 -0.583244 -0.333526
v 0.695866 0.561023 -0.334283
v 0.695866 -0.583244 -0.334283
v 0.701225 0.561023 -0.336503
v 0.701225 -0.583244 -0.336503
v 0.705827 0.561023 -0.340034
v 0.705827 -0.583244 -0.340034
v 0.709358 -0.583244 -0.344636
v 0.709358 0.561023 -0.344636
v 0.711578 -0.583244 -0.349995
v 0.711578 0.561023 -0.349995
v 0.712335 -0.583244 -0.355745
v 0.711578 -0.583244 -0.361496
v 0.712335 0.561023 -0.355745
v 0.711578 0.561023 -0.361496
v 0.709358 -0.583244 -0.366855
v 0.709358 0.561023 -0.366855
v 0.705827 0.561023 -0.371456
v 0.701225 0.561023 -0.374987
v 0.705827 -0.583244 -0.371456
v 0.709358 0.561023 -0.366855
v 0.709358 -0.583244 -0.366855
v 0.711577 0.561023 -0.361496
v 0.711577 -0.583244 -0.361496
v 0.712335 0.561023 -0.355745
v 0.712335 -0.583244 -0.355745
v 0.711577 0.561023 -0.349995
v 0.711577 -0.583244 -0.349995
v 0.709358 0.561023 -0.344636
v 0.709358 -0.583244 -0.344636
v 0.705827 0.561023 -0.340034
v 0.705827 -0.583244 -0.340034
v 0.701225 -0.583244 -0.336503
v 0.701225 0.561023 -0.336503
v 0.695866 -0.583244 -0.334283
v 0.690116 -0.583244 -0.333526
v 0.695866 0.561023 -0.334283
v 0.690116 0.561023 -0.333526
v 0.684365 -0.583244 -0.334283
v 0.679006 -0.583244 -0.336503
v 0.684365 0.561023 -0.334283
v 0.679006 0.561023 -0.336503
v 0.674405 -0.583244 -0.340034
v 0.674405 0.561023 -0.340034
v 0.670874 0.561023 -0.344636
v 0.670874 -0.583244 -0.344636
v 0.668654 0.561023 -0.349995
v 0.668654 -0.583244 -0.349995
v 0.667897 0.561023 -0.355745
v 0.667897 -0.583244 -0.355745
v 0.668654 0.561023 -0.361496
v 0.668654 -0.583244 -0.361496
v 0.670874 0.561023 -0.366855
v 0.670874 -0.583244 -0.366855
v 0.674405 0.561023 -0.371456
v 0.674405 -0.583244 -0.371456
v 0.679006 -0.583244 -0.374987
v 0.679006 0.561023 -0.374987
v 0.684365 -0.583244 -0.377207
v 0.690116 -0.583244 -0.377964
v 0.684365 0.561023 -0.377207
v 0.690116 0.561023 -0.377964
v 0.695866 -0.583244 -0.377207
v 0.695866 0.561023 -0.377207
v 0.701225 -0.583244 -0.374987
v 0.668654 -0.583244 -0.349995
v 0.668654 -0.583244 -0.361496
v 0.670874 -0.583244 -0.366855
v 0.667897 -0.583244 -0.355745
v 0.670874 -0.583244 -0.344636
v 0.674405 -0.583244 -0.371456
v 0.674405 -0.583244 -0.340034
v 0.679006 -0.583244 -0.374987
v 0.679006 -0.583244 -0.336503
v 0.684365 -0.583244 -0.377207
v 0.684365 -0.583244 -0.334283
v 0.690116 -0.583244 -0.377964
v 0.690116 -0.583244 -0.333526
v 0.695866 -0.583244 -0.377207
v 0.695866 -0.583244 -0.334283
v 0.701225 -0.583244 -0.374987
v 0.701225 -0.583244 -0.336503
v 0.705827 -0.583244 -0.371456
v 0.705827 -0.583244 -0.340034
v 0.709358 -0.583244 -0.366855
v 0.709358 -0.583244 -0.344636
v 0.711577 -0.583244 -0.361496
v 0.711577 -0.583244 -0.349995
v 0.712335 -0.583244 -0.355745
v 0.712335 -0.583244 -0.355745
v 0.711577 -0.583244 -0.361496
v 0.711577 -0.583244 -0.349995
v 0.709358 -0.583244 -0.344636
v 0.709358 -0.583244 -0.366855
v 0.705827 -0.583244 -0.340034
v 0.705827 -0.583244 -0.371456
v 0.701225 -0.583244 -0.336503
v 0.701225 -0.583244 -0.374987
v 0.695866 -0.583244 -0.334283
v 0.695866 -0.583244 -0.377207
v 0.690116 -0.583244 -0.333526
v 0.690116 -0.583244 -0.377964
v 0.684365 -0.583244 -0.334283
v 0.684365 -0.583244 -0.377207
v 0.679006 -0.583244 -0.336503
v 0.679006 -0.583244 -0.374987
v 0.674405 -0.583244 -0.340034
v 0.674405 -0.583244 -0.371456
v 0.670874 -0.583244 -0.344636
v 0.670874 -0.583244 -0.366855
v 0.668654 -0.583244 -0.349995
v 0.668654 -0.583244 -0.361496
v 0.667897 -0.583244 -0.355745
v 0.673431 -0.322419 -0.340996
v 0.673431 -0.313923 -0.340996
v 0.675071 -0.309965 -0.340996
v 0.672872 -0.318171 -0.340996
v 0.675071 -0.326378 -0.340996
v 0.677679 -0.329777 -0.340996
v 0.677679 -0.306565 -0.340996
v 0.681078 -0.332385 -0.340996
v 0.681078 -0.303957 -0.340996
v 0.685037 -0.302317 -0.340996
v 0.685037 -0.334025 -0.340996
v 0.689285 -0.301758 -0.340996
v 0.689285 -0.334584 -0.340996
v 0.693533 -0.334025 -0.340996
v 0.693533 -0.302317 -0.340996
v 0.697491 -0.303957 -0.340996
v 0.697491 -0.332385 -0.340996
v 0.700891 -0.306565 -0.340996
v 0.700891 -0.329777 -0.340996
v 0.703499 -0.309965 -0.340996
v 0.703499 -0.326378 -0.340996
v 0.705139 -0.322419 -0.340996
v 0.705139 -0.313923 -0.340996
v 0.705698 -0.318171 -0.340996
v 0.705698 -0.318171 -0.340996
v 0.705139 -0.313923 -0.340996
v 0.705139 -0.322419 -0.340996
v 0.703499 -0.309965 -0.340996
v 0.703499 -0.326378 -0.340996
v 0.700891 -0.329777 -0.340996
v 0.700891 -0.306565 -0.340996
v 0.697491 -0.332385 -0.340996
v 0.697491 -0.303957 -0.340996
v 0.693533 -0.334025 -0.340996
v 0.693533 -0.302317 -0.340996
v 0.689285 -0.301758 -0.340996
v 0.689285 -0.334584 -0.340996
v 0.685037 -0.334025 -0.340996
v 0.685037 -0.302317 -0.340996
v 0.681078 -0.332385 -0.340996
v 0.681078 -0.303957 -0.340996
v 0.677679 -0.306565 -0.340996
v 0.677679 -0.329777 -0.340996
v 0.675071 -0.309965 -0.340996
v 0.675071 -0.326378 -0.340996
v 0.673431 -0.322419 -0.340996
v 0.673431 -0.313923 -0.340996
v 0.672872 -0.318171 -0.340996
v 0.712335 0.561023 -0.355745
v 0.711578 0.561023 -0.349995
v 0.711578 0.561023 -0.361496
v 0.709358 0.561023 -0.366855
v 0.709358 0.561023 -0.344636
v 0.705827 0.561023 -0.371456
v 0.705827 0.561023 -0.340034
v 0.701225 0.561023 -0.374987
v 0.701225 0.561023 -0.336503
v 0.695866 0.561023 -0.377207
v 0.695866 0.561023 -0.334283
v 0.690116 0.561023 -0.377964
v 0.690116 0.561023 -0.333526
v 0.684365 0.561023 -0.377207
v 0.684365 0.561023 -0.334283
v 0.679006 0.561023 -0.374987
v 0.679006 0.561023 -0.336503
v 0.674405 0.561023 -0.371456
v 0.674405 0.561023 -0.340034
v 0.670874 0.561023 -0.366855
v 0.670874 0.561023 -0.344636
v 0.668654 0.561023 -0.361496
v 0.668654 0.561023 -0.349995
v 0.667897 0.561023 -0.355745
vn 0.0000 1.0000 0.0000
vn 0.7071 0.0000 -0.7071
vn 0.5375 0.0000 -0.8433
vn 0.4616 0.0000 -0.8871
vn 0.3009 0.0000 -0.9537
vn 0.2162 0.0000 -0.9763
vn 0.0438 0.0000 -0.9990
vn -0.0438 0.0000 -0.9990
vn -0.2162 0.0000 -0.9764
vn -0.3009 0.0000 -0.9537
vn -0.4616 0.0000 -0.8871
vn -0.5375 0.0000 -0.8433
vn -0.7071 0.0000 -0.7071
vn -0.8433 0.0000 -0.5375
vn -0.8871 0.0000 -0.4616
vn -0.9537 0.0000 -0.3009
vn -0.9764 0.0000 -0.2162
vn -0.9990 0.0000 -0.0439
vn -0.9763 -0.0000 0.2162
vn -0.9990 -0.0000 0.0439
vn -0.9537 -0.0000 0.3009
vn -0.8871 -0.0000 0.4616
vn -0.8433 -0.0000 0.5375
vn -0.7071 -0.0000 0.7071
vn -0.5375 -0.0000 0.8433
vn -0.4616 -0.0000 0.8871
vn -0.3009 -0.0000 0.9537
vn -0.2162 -0.0000 0.9764
vn -0.0438 -0.0000 0.9990
vn 0.0438 -0.0000 0.9990
vn 0.2162 -0.0000 0.9763
vn 0.3009 -0.0000 0.9537
vn 0.4615 -0.0000 0.8871
vn 0.5375 -0.0000 0.8433
vn 0.7071 -0.0000 0.7071
vn 0.8433 -0.0000 0.5375
vn 0.8871 -0.0000 0.4615
vn 0.9537 0.0000 0.3009
vn 0.9763 -0.0000 0.2162
vn 0.9990 -0.0000 0.0438
vn 0.9764 0.0000 -0.2162
vn 0.9990 0.0000 -0.0438
vn 0.9537 0.0000 -0.3009
vn 0.8871 0.0000 -0.4615
vn 0.8433 0.0000 -0.5375
vn -0.8871 -0.0000 0.4615
vn -0.8871 0.0000 -0.4615
vn -0.4615 0.0000 -0.8871
vn -0.0439 0.0000 -0.9990
vn -0.2162 0.0000 -0.9763
vn 0.0439 0.0000 -0.9990
vn 0.4615 0.0000 -0.8871
vn 0.3009 0.0000 -0.9536
vn 0.9763 -0.0000 -0.2162
vn 0.9990 0.0000 -0.0439
vn 0.9990 -0.0000 0.0439
vn 0.9536 -0.0000 0.3009
vn 0.3009 -0.0000 0.9536
vn -0.0439 -0.0000 0.9990
vn -0.2162 -0.0000 0.9763
vn -0.4615 -0.0000 0.8871
vn 0.0000 -1.0000 0.0000
vn -0.0000 0.0000 -1.0000
vn 0.0000 0.0000 1.0000
usemtl Default_OBJ.224
s 1
f 1//1 2//1 3//1
f 2//1 1//1 4//1
f 1//1 3//1 5//1
f 5//1 3//1 6//1
f 5//1 6//1 7//1
f 7//1 6//1 8//1
f 7//1 8//1 9//1
f 9//1 8//1 10//1
f 9//1 10//1 11//1
f 11//1 10//1 12//1
f 11//1 12//1 13//1
f 13//1 12//1 14//1
f 13//1 14//1 15//1
f 15//1 14//1 16//1
f 15//1 16//1 17//1
f 17//1 16//1 18//1
f 17//1 18//1 19//1
f 19//1 18//1 20//1
f 19//1 20//1 21//1
f 21//1 20//1 22//1
f 21//1 22//1 23//1
f 23//1 22//1 24//1
f 25//2 26//3 27//2
f 26//3 25//2 28//4
f 28//4 29//5 26//3
f 30//6 31//7 29//5
f 29//5 28//4 30//6
f 31//7 30//6 32//8
f 32//8 33//9 31//7
f 33//9 32//8 34//10
f 34//10 35//11 33//9
f 35//11 34//10 36//12
f 36//12 37//13 35//11
f 37//13 36//12 38//13
f 39//14 37//13 38//13
f 37//13 39//14 40//15
f 41//16 40//15 39//14
f 40//15 41//16 42//17
f 43//18 42//17 41//16
f 44//19 45//20 43//18
f 42//17 43//18 45//20
f 45//20 44//19 46//21
f 47//22 46//21 44//19
f 46//21 47//22 48//23
f 49//24 48//23 47//22
f 48//23 49//24 50//24
f 49//24 51//25 50//24
f 51//25 49//24 52//26
f 52//26 53//27 51//25
f 53//27 52//26 54//28
f 54//28 55//29 53//27
f 56//30 57//31 55//29
f 55//29 54//28 56//30
f 57//31 56//30 58//32
f 58//32 59//33 57//31
f 59//33 58//32 60//34
f 60//34 61//35 59//33
f 61//35 60//34 62//35
f 63//36 61//35 62//35
f 61//35 63//36 64//37
f 65//38 64//37 63//36
f 64//37 65//38 66//39
f 67//40 66//39 65//38
f 68//41 69//42 67//40
f 66//39 67//40 69//42
f 69//42 68//41 70//43
f 71//44 70//43 68//41
f 70//43 71//44 72//45
f 25//2 72//45 71//44
f 72//45 25//2 27//2
f 73//24 74//25 75//24
f 73//24 75//24 76//23
f 76//23 77//46 78//21
f 77//46 76//23 75//24
f 78//21 79//19 80//20
f 79//19 78//21 77//46
f 81//18 80//20 79//19
f 80//20 81//18 82//17
f 82//17 83//16 84//47
f 83//16 82//17 81//18
f 85//14 84//47 83//16
f 84//47 85//14 86//13
f 87//13 88//12 86//13
f 87//13 86//13 85//14
f 89//48 86//13 88//12
f 88//12 90//10 89//48
f 90//10 91//49 92//50
f 92//50 89//48 90//10
f 93//51 92//50 91//49
f 91//49 94//6 93//51
f 94//6 95//52 96//53
f 96//53 93//51 94//6
f 97//3 96//53 95//52
f 95//52 98//2 97//3
f 99//2 98//2 100//45
f 99//2 97//3 98//2
f 101//44 100//45 98//2
f 100//45 101//44 102//43
f 102//43 103//54 104//55
f 103//54 102//43 101//44
f 105//56 104//55 103//54
f 104//55 105//56 106//39
f 106//39 107//57 108//37
f 107//57 106//39 105//56
f 109//36 108//37 107//57
f 108//37 109//36 110//35
f 111//35 112//34 110//35
f 111//35 110//35 109//36
f 113//33 110//35 112//34
f 112//34 114//58 113//33
f 114//58 115//30 116//31
f 116//31 113//33 114//58
f 117//59 116//31 115//30
f 115//30 118//60 117//59
f 119//27 117//59 118//60
f 118//60 120//61 119//27
f 74//25 119//27 120//61
f 120//61 75//24 74//25
f 121//62 122//62 123//62
f 122//62 121//62 124//62
f 121//62 123//62 125//62
f 125//62 123//62 126//62
f 125//62 126//62 127//62
f 127//62 126//62 128//62
f 127//62 128//62 129//62
f 129//62 128//62 130//62
f 129//62 130//62 131//62
f 131//62 130//62 132//62
f 131//62 132//62 133//62
f 133//62 132//62 134//62
f 133//62 134//62 135//62
f 135//62 134//62 136//62
f 135//62 136//62 137//62
f 137//62 136//62 138//62
f 137//62 138//62 139//62
f 139//62 138//62 140//62
f 139//62 140//62 141//62
f 141//62 140//62 142//62
f 141//62 142//62 143//62
f 143//62 142//62 144//62
f 145//1 146//1 147//1
f 147//1 146//1 148//1
f 146//1 149//1 148//1
f 148//1 149//1 150//1
f 149//1 151//1 150//1
f 150//1 151//1 152//1
f 151//1 153//1 152//1
f 152//1 153//1 154//1
f 153//1 155//1 154//1
f 154//1 155//1 156//1
f 155//1 157//1 156//1
f 156//1 157//1 158//1
f 157//1 159//1 158//1
f 158//1 159//1 160//1
f 159//1 161//1 160//1
f 160//1 161//1 162//1
f 161//1 163//1 162//1
f 162//1 163//1 164//1
f 163//1 165//1 164//1
f 164//1 165//1 166//1
f 165//1 167//1 166//1
f 168//1 166//1 167//1
f 169//63 170//63 171//63
f 170//63 169//63 172//63
f 169//63 171//63 173//63
f 173//63 171//63 174//63
f 174//63 171//63 175//63
f 174//63 175//63 176//63
f 176//63 175//63 177//63
f 176//63 177//63 178//63
f 179//63 178//63 180//63
f 176//63 178//63 179//63
f 179//63 180//63 181//63
f 181//63 180//63 182//63
f 182//63 180//63 183//63
f 182//63 183//63 184//63
f 182//63 184//63 185//63
f 185//63 184//63 186//63
f 185//63 186//63 187//63
f 187//63 186//63 188//63
f 187//63 188//63 189//63
f 189//63 188//63 190//63
f 190//63 188//63 191//63
f 190//63 191//63 192//63
f 193//64 194//64 195//64
f 194//64 196//64 195//64
f 195//64 196//64 197//64
f 197//64 196//64 198//64
f 196//64 199//64 198//64
f 198//64 199//64 200//64
f 199//64 201//64 200//64
f 200//64 201//64 202//64
f 201//64 203//64 202//64
f 203//64 204//64 202//64
f 202//64 204//64 205//64
f 205//64 204//64 206//64
f 204//64 207//64 206//64
f 206//64 207//64 208//64
f 207//64 209//64 208//64
f 209//64 210//64 208//64
f 208//64 210//64 211//64
f 210//64 212//64 211//64
f 211//64 212//64 213//64
f 213//64 212//64 214//64
f 212//64 215//64 214//64
f 216//64 214//64 215//64
f 217//62 218//62 219//62
f 219//62 218//62 220//62
f 218//62 221//62 220//62
f 220//62 221//62 222//62
f 221//62 223//62 222//62
f 222//62 223//62 224//62
f 223//62 225//62 224//62
f 224//62 225//62 226//62
f 225//62 227//62 226//62
f 226//62 227//62 228//62
f 227//62 229//62 228//62
f 228//62 229//62 230//62
f 229//62 231//62 230//62
f 230//62 231//62 232//62
f 231//62 233//62 232//62
f 232//62 233//62 234//62
f 233//62 235//62 234//62
f 234//62 235//62 236//62
f 235//62 237//62 236//62
f 236//62 237//62 238//62
f 237//62 239//62 238//62
f 240//62 238//62 239//62