# Blender v3.0.1 OBJ File: ''
# www.blender.org
mtllib 05.mtl
o model.070_model.2039
v -0.691308 -0.318171 0.020573
v 0.687494 -0.322419 0.020014
v 0.687494 -0.318171 0.020573
v -0.691308 -0.322419 0.020014
v 0.687494 -0.326378 0.018374
v -0.691308 -0.326378 0.018374
v 0.687494 -0.329777 0.015766
v -0.691308 -0.329777 0.015766
v 0.687494 -0.332385 0.012366
v -0.691308 -0.332385 0.012366
v 0.687494 -0.334025 0.008408
v -0.691308 -0.334025 0.008408
v 0.687494 -0.334584 0.004160
v -0.691308 -0.334025 -0.000088
v -0.691308 -0.334584 0.004160
v 0.687494 -0.334025 -0.000088
v -0.691308 -0.332385 -0.004047
v 0.687494 -0.332385 -0.004047
v 0.687494 -0.329777 -0.007446
v -0.691308 -0.329777 -0.007446
v -0.691308 -0.326378 -0.010054
v 0.687494 -0.326378 -0.010054
v -0.691308 -0.322419 -0.011694
v 0.687494 -0.322419 -0.011694
v -0.691308 -0.318171 -0.012253
v 0.687494 -0.318171 -0.012253
v -0.691308 -0.313923 -0.011694
v 0.687494 -0.313923 -0.011694
v -0.691308 -0.309965 -0.010054
v 0.687494 -0.309965 -0.010054
v -0.691308 -0.306565 -0.007446
v 0.687494 -0.306565 -0.007446
v 0.687494 -0.303957 -0.004047
v -0.691308 -0.303957 -0.004047
v 0.687494 -0.302317 -0.000088
v -0.691308 -0.302317 -0.000088
v 0.687494 -0.301758 0.004160
v -0.691308 -0.302317 0.008408
v -0.691308 -0.301758 0.004160
v 0.687494 -0.302317 0.008408
v 0.687494 -0.303957 0.012366
v -0.691308 -0.303957 0.012366
v 0.687494 -0.306565 0.015766
v -0.691308 -0.306565 0.015766
v 0.687494 -0.309965 0.018374
v -0.691308 -0.309965 0.018374
v 0.687494 -0.313923 0.020014
v -0.691308 -0.313923 0.020014
v 0.687494 -0.318171 0.020573
v 0.687494 -0.322419 0.020014
v -0.691308 -0.318171 0.020573
v -0.691308 -0.313923 0.020014
v 0.687494 -0.313923 0.020014
v -0.691308 -0.309965 0.018374
v 0.687494 -0.309965 0.018374
v -0.691308 -0.306565 0.015766
v -0.691308 -0.303957 0.012366
v 0.687494 -0.306565 0.015766
v 0.687494 -0.303957 0.012366
v -0.691308 -0.302317 0.008408
v 0.687494 -0.302317 0.008408
v 0.687494 -0.301758 0.004160
v -0.691308 -0.301758 0.004160
v -0.691308 -0.302317 -0.000088
v 0.687494 -0.302317 -0.000088
v 0.687494 -0.303957 -0.004047
v -0.691308 -0.303957 -0.004047
v -0.691308 -0.306565 -0.007446
v 0.687494 -0.306565 -0.007446
v -0.691308 -0.309965 -0.010054
v 0.687494 -0.309965 -0.010054
v 0.687494 -0.313923 -0.011694
v -0.691308 -0.313923 -0.011694
v -0.691308 -0.318171 -0.012253
v 0.687494 -0.318171 -0.012253
v 0.687494 -0.322419 -0.011694
v -0.691308 -0.322419 -0.011694
v -0.691308 -0.326378 -0.010054
v 0.687494 -0.326378 -0.010054
v 0.687494 -0.329777 -0.007446
v -0.691308 -0.329777 -0.007446
v 0.687494 -0.332385 -0.004047
v -0.691308 -0.332385 -0.004047
v 0.687494 -0.334025 -0.000088
v -0.691308 -0.334025 -0.000088
v 0.687494 -0.334584 0.004160
v -0.691308 -0.334584 0.004160
v -0.691308 -0.334025 0.008408
v -0.691308 -0.332385 0.012366
v 0.687494 -0.334025 0.008408
v 0.687494 -0.332385 0.012366
v -0.691308 -0.329777 0.015766
v 0.687494 -0.329777 0.015766
v -0.691308 -0.326378 0.018374
v 0.687494 -0.326378 0.018374
v -0.691308 -0.322419 0.020014
vn 0.0000 -0.0438 0.9990
vn 0.0000 -0.2162 0.9763
vn 0.0000 0.0438 0.9990
vn 0.0000 -0.3009 0.9537
vn 0.0000 -0.4616 0.8871
vn 0.0000 -0.5375 0.8433
vn 0.0000 -0.6754 0.7374
vn 0.0000 -0.7374 0.6754
vn 0.0000 -0.8433 0.5375
vn 0.0000 -0.8871 0.4616
vn 0.0000 -0.9537 0.3009
vn 0.0000 -0.9763 0.2162
vn 0.0000 -1.0000 -0.0000
vn 0.0000 -0.9763 -0.2162
vn -0.0000 -0.9537 -0.3009
vn 0.0000 -0.8660 -0.5000
vn 0.0000 -0.7071 -0.7071
vn 0.0000 -0.5375 -0.8433
vn 0.0000 -0.4616 -0.8871
vn 0.0000 -0.3009 -0.9537
vn -0.0000 -0.2162 -0.9763
vn -0.0000 -0.0438 -0.9990
vn 0.0000 0.0438 -0.9990
vn -0.0000 0.2162 -0.9763
vn -0.0000 0.3009 -0.9537
vn -0.0000 0.4616 -0.8871
vn -0.0000 0.5375 -0.8433
vn 0.0000 0.7071 -0.7072
vn 0.0000 0.8433 -0.5375
vn 0.0000 0.8871 -0.4616
vn 0.0000 0.9537 -0.3009
vn 0.0000 0.9763 -0.2162
vn 0.0000 1.0000 0.0000
vn 0.0000 0.9659 0.2588
vn 0.0000 0.9659 0.2589
vn 0.0000 0.8871 0.4616
vn 0.0000 0.8433 0.5375
vn 0.0000 0.7374 0.6754
vn 0.0000 0.6754 0.7374
vn 0.0000 0.5375 0.8433
vn 0.0000 0.4616 0.8871
vn 0.0000 0.3009 0.9537
vn 0.0000 0.2162 0.9763
vn 0.0000 0.2162 -0.9764
vn 0.0000 -0.2162 -0.9764
vn 0.0000 -0.4615 -0.8871
vn 0.0000 -0.6754 -0.7374
vn 0.0000 -0.8433 -0.5375
vn 0.0000 -0.7374 -0.6754
vn 0.0000 -0.8871 -0.4615
vn 0.0000 -0.9659 -0.2588
vn 0.0000 -0.9659 -0.2589
vn 0.0000 -0.9764 0.2162
vn 0.0000 -0.9536 0.3009
vn 0.0000 -0.8871 0.4615
vn 0.0000 -0.7071 0.7072
vn 0.0000 -0.4615 0.8871
vn -0.0000 -0.2162 0.9764
vn -0.0000 0.0439 0.9990
vn 0.0000 -0.0439 0.9990
vn 0.0000 0.2162 0.9764
vn -0.0000 0.4615 0.8871
vn 0.0000 0.7071 0.7071
vn 0.0000 0.8660 0.5000
vn -0.0000 0.9537 0.3009
vn 0.0000 0.9764 0.2162
vn 0.0000 0.9764 -0.2162
vn 0.0000 0.8871 -0.4615
vn 0.0000 0.7374 -0.6754
vn 0.0000 0.6754 -0.7374
vn 0.0000 0.4615 -0.8871
usemtl Default_OBJ.219
s 1
f 1//1 2//2 3//3
f 2//2 1//1 4//4
f 4//4 5//5 2//2
f 6//6 7//7 5//5
f 5//5 4//4 6//6
f 7//7 6//6 8//8
f 8//8 9//9 7//7
f 10//10 11//11 9//9
f 9//9 8//8 10//10
f 11//11 10//10 12//12
f 12//12 13//13 11//11
f 14//14 13//13 15//13
f 13//13 12//12 15//13
f 13//13 14//14 16//15
f 17//16 16//15 14//14
f 16//15 17//16 18//16
f 17//16 19//17 18//16
f 19//17 17//16 20//17
f 21//18 19//17 20//17
f 19//17 21//18 22//19
f 23//20 22//19 21//18
f 22//19 23//20 24//21
f 25//22 24//21 23//20
f 24//21 25//22 26//23
f 27//24 26//23 25//22
f 26//23 27//24 28//25
f 29//26 28//25 27//24
f 28//25 29//26 30//27
f 31//28 30//27 29//26
f 30//27 31//28 32//28
f 31//28 33//29 32//28
f 34//30 35//31 33//29
f 33//29 31//28 34//30
f 35//31 34//30 36//32
f 36//32 37//33 35//31
f 38//34 37//33 39//33
f 37//33 36//32 39//33
f 37//33 38//34 40//35
f 38//34 41//36 40//35
f 42//37 43//38 41//36
f 41//36 38//34 42//37
f 43//38 42//37 44//39
f 44//39 45//40 43//38
f 46//41 47//42 45//40
f 45//40 44//39 46//41
f 47//42 46//41 48//43
f 48//43 3//3 47//42
f 3//3 48//43 1//1
f 49//22 50//44 51//23
f 51//23 52//45 49//22
f 53//20 49//22 52//45
f 52//45 54//46 53//20
f 55//18 53//20 54//46
f 54//46 56//47 55//18
f 56//47 57//48 58//49
f 58//49 55//18 56//47
f 59//50 58//49 57//48
f 57//48 60//51 59//50
f 61//52 59//50 60//51
f 61//52 60//51 62//13
f 63//13 62//13 60//51
f 63//13 64//53 62//13
f 65//54 62//13 64//53
f 66//9 65//54 67//55
f 64//53 67//55 65//54
f 67//55 68//56 66//9
f 69//56 66//9 68//56
f 70//57 71//6 68//56
f 69//56 68//56 71//6
f 71//6 70//57 72//4
f 73//58 72//4 70//57
f 74//59 75//60 73//58
f 72//4 73//58 75//60
f 75//60 74//59 76//61
f 77//42 76//61 74//59
f 78//40 79//62 77//42
f 76//61 77//42 79//62
f 79//62 78//40 80//63
f 81//63 80//63 78//40
f 82//64 80//63 83//64
f 81//63 83//64 80//63
f 82//64 83//64 84//65
f 84//65 85//66 86//33
f 85//66 84//65 83//64
f 87//33 86//33 85//66
f 87//33 88//67 86//33
f 88//67 89//68 90//31
f 90//31 86//33 88//67
f 91//29 90//31 89//68
f 89//68 92//69 91//29
f 93//70 91//29 92//69
f 92//69 94//27 93//70
f 95//71 93//70 94//27
f 94//27 96//25 95//71
f 50//44 95//71 96//25
f 96//25 51//23 50//44