# Blender v3.0.1 OBJ File: ''
# www.blender.org
mtllib 06.mtl
o model.076_model.2045
v 0.705698 -0.318171 0.349316
v 0.705139 -0.322419 -0.340996
v 0.705698 -0.318171 -0.340996
v 0.705139 -0.322419 0.349316
v 0.703499 -0.326378 -0.340996
v 0.703499 -0.326378 0.349316
v 0.700891 -0.329777 -0.340996
v 0.700891 -0.329777 0.349316
v 0.697491 -0.332385 -0.340996
v 0.697491 -0.332385 0.349316
v 0.693533 -0.334025 -0.340996
v 0.693533 -0.334025 0.349316
v 0.689285 -0.334584 -0.340996
v 0.689285 -0.334584 0.349316
v 0.685037 -0.334025 -0.340996
v 0.685037 -0.334025 0.349316
v 0.681079 -0.332385 0.349316
v 0.681079 -0.332385 -0.340996
v 0.677679 -0.329777 -0.340996
v 0.677679 -0.329777 0.349316
v 0.675071 -0.326378 0.349316
v 0.675071 -0.326378 -0.340996
v 0.673431 -0.322419 0.349316
v 0.673431 -0.322419 -0.340996
v 0.672872 -0.318171 0.349316
v 0.672872 -0.318171 -0.340996
v 0.673431 -0.313923 0.349316
v 0.673431 -0.313923 -0.340996
v 0.675071 -0.309965 0.349316
v 0.675071 -0.309965 -0.340996
v 0.677679 -0.306565 0.349316
v 0.677679 -0.306565 -0.340996
v 0.681079 -0.303957 -0.340996
v 0.681079 -0.303957 0.349316
v 0.685037 -0.302317 -0.340996
v 0.685037 -0.302317 0.349316
v 0.689285 -0.301758 -0.340996
v 0.693533 -0.302317 0.349316
v 0.689285 -0.301758 0.349316
v 0.693533 -0.302317 -0.340996
v 0.697491 -0.303957 -0.340996
v 0.697491 -0.303957 0.349316
v 0.700891 -0.306565 -0.340996
v 0.700891 -0.306565 0.349316
v 0.703499 -0.309965 -0.340996
v 0.703499 -0.309965 0.349316
v 0.705139 -0.313923 -0.340996
v 0.705139 -0.313923 0.349316
v 0.687494 -0.322419 -0.011694
v 0.687494 -0.313923 -0.011694
v 0.687494 -0.309965 -0.010054
v 0.687494 -0.318171 -0.012253
v 0.687494 -0.326378 -0.010054
v 0.687494 -0.329777 -0.007446
v 0.687494 -0.306565 -0.007446
v 0.687494 -0.332385 -0.004047
v 0.687494 -0.303957 -0.004047
v 0.687494 -0.302317 -0.000088
v 0.687494 -0.334025 -0.000088
v 0.687494 -0.301758 0.004160
v 0.687494 -0.334584 0.004160
v 0.687494 -0.334025 0.008408
v 0.687494 -0.302317 0.008408
v 0.687494 -0.303957 0.012366
v 0.687494 -0.332385 0.012366
v 0.687494 -0.306565 0.015766
v 0.687494 -0.329777 0.015766
v 0.687494 -0.309965 0.018374
v 0.687494 -0.326378 0.018374
v 0.687494 -0.322419 0.020014
v 0.687494 -0.313923 0.020014
v 0.687494 -0.318171 0.020573
v 0.687494 -0.318171 0.020573
v 0.687494 -0.313923 0.020014
v 0.687494 -0.322419 0.020014
v 0.687494 -0.309965 0.018374
v 0.687494 -0.326378 0.018374
v 0.687494 -0.329777 0.015766
v 0.687494 -0.306565 0.015766
v 0.687494 -0.332385 0.012366
v 0.687494 -0.303957 0.012366
v 0.687494 -0.334025 0.008408
v 0.687494 -0.302317 0.008408
v 0.687494 -0.301758 0.004160
v 0.687494 -0.334584 0.004160
v 0.687494 -0.334025 -0.000088
v 0.687494 -0.302317 -0.000088
v 0.687494 -0.332385 -0.004047
v 0.687494 -0.303957 -0.004047
v 0.687494 -0.306565 -0.007446
v 0.687494 -0.329777 -0.007446
v 0.687494 -0.309965 -0.010054
v 0.687494 -0.326378 -0.010054
v 0.687494 -0.322419 -0.011694
v 0.687494 -0.313923 -0.011694
v 0.687494 -0.318171 -0.012253
v 0.705698 -0.318171 -0.340996
v 0.705139 -0.322419 -0.340996
v 0.705698 -0.318171 0.349316
v 0.705139 -0.313923 0.349316
v 0.705139 -0.313923 -0.340996
v 0.703499 -0.309965 0.349316
v 0.703499 -0.309965 -0.340996
v 0.700891 -0.306565 0.349316
v 0.697491 -0.303957 0.349316
v 0.700891 -0.306565 -0.340996
v 0.697491 -0.303957 -0.340996
v 0.693533 -0.302317 0.349316
v 0.693533 -0.302317 -0.340996
v 0.689285 -0.301758 -0.340996
v 0.689285 -0.301758 0.349316
v 0.685037 -0.302317 0.349316
v 0.685037 -0.302317 -0.340996
v 0.681078 -0.303957 -0.340996
v 0.681078 -0.303957 0.349316
v 0.677679 -0.306565 0.349316
v 0.677679 -0.306565 -0.340996
v 0.675071 -0.309965 0.349316
v 0.675071 -0.309965 -0.340996
v 0.673431 -0.313923 -0.340996
v 0.673431 -0.313923 0.349316
v 0.672872 -0.318171 0.349316
v 0.672872 -0.318171 -0.340996
v 0.673431 -0.322419 -0.340996
v 0.673431 -0.322419 0.349316
v 0.675071 -0.326378 0.349316
v 0.675071 -0.326378 -0.340996
v 0.677679 -0.329777 -0.340996
v 0.677679 -0.329777 0.349316
v 0.681078 -0.332385 -0.340996
v 0.681078 -0.332385 0.349316
v 0.685037 -0.334025 -0.340996
v 0.689285 -0.334584 -0.340996
v 0.689285 -0.334584 0.349316
v 0.685037 -0.334025 0.349316
v 0.693533 -0.334025 0.349316
v 0.693533 -0.334025 -0.340996
v 0.697491 -0.332385 -0.340996
v 0.697491 -0.332385 0.349316
v 0.700891 -0.329777 0.349316
v 0.700891 -0.329777 -0.340996
v 0.703499 -0.326378 0.349316
v 0.703499 -0.326378 -0.340996
v 0.705139 -0.322419 0.349316
vn 0.9990 -0.0438 0.0000
vn 0.9763 -0.2162 -0.0000
vn 0.9990 0.0438 0.0000
vn 0.9537 -0.3009 -0.0000
vn 0.8871 -0.4616 -0.0000
vn 0.8433 -0.5375 -0.0000
vn 0.7374 -0.6754 -0.0000
vn 0.6754 -0.7374 -0.0000
vn 0.5375 -0.8433 -0.0000
vn 0.4616 -0.8871 -0.0000
vn 0.3009 -0.9537 -0.0000
vn 0.2162 -0.9763 -0.0000
vn 0.0438 -0.9990 -0.0000
vn -0.0438 -0.9990 -0.0000
vn -0.2588 -0.9659 -0.0000
vn -0.5000 -0.8660 -0.0000
vn -0.7071 -0.7072 -0.0000
vn -0.7071 -0.7071 -0.0000
vn -0.8433 -0.5375 0.0000
vn -0.8871 -0.4615 -0.0000
vn -0.9537 -0.3009 -0.0000
vn -0.9763 -0.2162 -0.0000
vn -0.9990 -0.0438 0.0000
vn -0.9990 0.0438 -0.0000
vn -0.9763 0.2162 0.0000
vn -0.9537 0.3009 -0.0000
vn -0.8871 0.4615 0.0000
vn -0.8433 0.5375 0.0000
vn -0.7071 0.7071 0.0000
vn -0.5375 0.8433 0.0000
vn -0.4616 0.8871 0.0000
vn -0.3009 0.9537 0.0000
vn -0.2162 0.9763 0.0000
vn -0.0000 1.0000 0.0000
vn 0.2588 0.9659 0.0000
vn 0.4616 0.8871 0.0000
vn 0.5375 0.8433 0.0000
vn 0.6754 0.7374 0.0000
vn 0.7374 0.6754 0.0000
vn 0.8433 0.5375 0.0000
vn 0.8871 0.4616 0.0000
vn 0.9537 0.3009 0.0000
vn 0.9763 0.2162 0.0000
vn 1.0000 -0.0000 0.0000
vn -1.0000 -0.0000 0.0000
vn -0.8871 -0.4616 -0.0000
vn -0.7374 -0.6754 -0.0000
vn -0.5375 -0.8433 -0.0000
vn -0.6754 -0.7374 -0.0000
vn -0.4615 -0.8871 -0.0000
vn 0.0000 -1.0000 -0.0000
vn 0.4615 -0.8871 -0.0000
vn 0.7071 -0.7071 -0.0000
vn 0.7072 -0.7070 -0.0000
vn 0.8871 -0.4615 0.0000
vn 0.9990 0.0439 0.0000
vn 0.9990 -0.0439 -0.0000
vn 0.8871 0.4615 -0.0000
vn 0.7071 0.7071 0.0000
vn 0.5000 0.8660 0.0000
vn -0.0439 0.9990 0.0000
vn 0.0439 0.9990 0.0000
vn -0.2162 0.9764 0.0000
vn -0.4615 0.8871 0.0000
vn -0.6754 0.7374 0.0000
vn -0.7374 0.6754 0.0000
vn -0.8871 0.4616 0.0000
usemtl Default_OBJ.216
s 1
f 1//1 2//2 3//3
f 2//2 1//1 4//4
f 4//4 5//5 2//2
f 6//6 7//7 5//5
f 5//5 4//4 6//6
f 7//7 6//6 8//8
f 8//8 9//9 7//7
f 10//10 11//11 9//9
f 9//9 8//8 10//10
f 11//11 10//10 12//12
f 12//12 13//13 11//11
f 14//14 15//15 13//13
f 13//13 12//12 14//14
f 15//15 14//14 16//15
f 17//16 15//15 16//15
f 15//15 17//16 18//16
f 17//16 19//17 18//16
f 19//17 17//16 20//18
f 21//19 19//17 20//18
f 19//17 21//19 22//20
f 23//21 22//20 21//19
f 22//20 23//21 24//22
f 25//23 24//22 23//21
f 24//22 25//23 26//24
f 27//25 26//24 25//23
f 26//24 27//25 28//26
f 29//27 28//26 27//25
f 28//26 29//27 30//28
f 31//29 30//28 29//27
f 30//28 31//29 32//29
f 31//29 33//30 32//29
f 34//31 35//32 33//30
f 33//30 31//29 34//31
f 35//32 34//31 36//33
f 36//33 37//34 35//32
f 38//35 37//34 39//34
f 37//34 36//33 39//34
f 37//34 38//35 40//35
f 38//35 41//36 40//35
f 42//37 43//38 41//36
f 41//36 38//35 42//37
f 43//38 42//37 44//39
f 44//39 45//40 43//38
f 46//41 47//42 45//40
f 45//40 44//39 46//41
f 47//42 46//41 48//43
f 48//43 3//3 47//42
f 3//3 48//43 1//1
f 49//44 50//44 51//44
f 50//44 49//44 52//44
f 49//44 51//44 53//44
f 53//44 51//44 54//44
f 54//44 51//44 55//44
f 54//44 55//44 56//44
f 56//44 55//44 57//44
f 56//44 57//44 58//44
f 59//44 58//44 60//44
f 56//44 58//44 59//44
f 59//44 60//44 61//44
f 61//44 60//44 62//44
f 62//44 60//44 63//44
f 62//44 63//44 64//44
f 62//44 64//44 65//44
f 65//44 64//44 66//44
f 65//44 66//44 67//44
f 67//44 66//44 68//44
f 67//44 68//44 69//44
f 69//44 68//44 70//44
f 70//44 68//44 71//44
f 70//44 71//44 72//44
f 73//45 74//45 75//45
f 74//45 76//45 75//45
f 75//45 76//45 77//45
f 77//45 76//45 78//45
f 76//45 79//45 78//45
f 78//45 79//45 80//45
f 79//45 81//45 80//45
f 80//45 81//45 82//45
f 81//45 83//45 82//45
f 83//45 84//45 82//45
f 82//45 84//45 85//45
f 85//45 84//45 86//45
f 84//45 87//45 86//45
f 86//45 87//45 88//45
f 87//45 89//45 88//45
f 89//45 90//45 88//45
f 88//45 90//45 91//45
f 90//45 92//45 91//45
f 91//45 92//45 93//45
f 93//45 92//45 94//45
f 92//45 95//45 94//45
f 96//45 94//45 95//45
f 97//23 98//25 99//24
f 99//24 100//22 97//23
f 101//21 97//23 100//22
f 100//22 102//46 101//21
f 103//19 101//21 102//46
f 102//46 104//47 103//19
f 104//47 105//48 106//49
f 106//49 103//19 104//47
f 107//50 106//49 105//48
f 105//48 108//15 107//50
f 109//15 107//50 108//15
f 109//15 108//15 110//51
f 111//51 110//51 108//15
f 111//51 112//12 110//51
f 113//11 110//51 112//12
f 114//9 113//11 115//52
f 112//12 115//52 113//11
f 115//52 116//53 114//9
f 117//54 114//9 116//53
f 118//55 119//6 116//53
f 117//54 116//53 119//6
f 119//6 118//55 120//4
f 121//2 120//4 118//55
f 122//56 123//57 121//2
f 120//4 121//2 123//57
f 123//57 122//56 124//43
f 125//42 124//43 122//56
f 126//40 127//58 125//42
f 124//43 125//42 127//58
f 127//58 126//40 128//59
f 129//59 128//59 126//40
f 130//60 128//59 131//60
f 129//59 131//60 128//59
f 130//60 131//60 132//35
f 133//61 132//35 134//62
f 135//35 134//62 132//35
f 135//35 132//35 131//60
f 134//62 136//63 133//61
f 137//32 133//61 136//63
f 138//30 137//32 139//64
f 136//63 139//64 137//32
f 139//64 140//65 138//30
f 141//66 138//30 140//65
f 140//65 142//28 141//66
f 143//67 141//66 142//28
f 142//28 144//26 143//67
f 98//25 143//67 144//26
f 144//26 99//24 98//25