# Blender v3.0.1 OBJ File: ''
# www.blender.org
mtllib 08.mtl
o model.013_model.2145
v -0.685077 0.494367 -0.339175
v -0.706955 0.494367 -0.349913
v -0.706955 0.494367 0.350915
v -0.706311 0.494367 0.350916
v -0.686329 0.494367 0.350935
v -0.686239 0.561024 0.300812
v -0.706261 0.561024 -0.349913
v -0.685058 0.561024 -0.349913
v -0.706955 0.561024 0.350915
v -0.706955 0.561024 -0.349913
v -0.684736 0.561024 0.349637
v -0.684736 0.494367 -0.349913
v -0.684736 0.494367 0.349637
v -0.706955 0.494367 -0.349913
v -0.706955 0.496242 0.350915
v -0.706955 0.494367 0.350915
v -0.706955 0.561024 0.350915
v -0.706955 0.559003 -0.349913
v -0.706955 0.561024 -0.349913
v -0.685058 0.494367 -0.349913
v -0.686330 0.561024 0.350935
v -0.684736 0.561024 -0.349913
vn -0.0000 1.0000 0.0000
vn -0.0000 -1.0000 0.0000
vn -1.0000 0.0000 0.0000
vn 1.0000 0.0000 0.0000
usemtl Default_OBJ.225
s 1
f 1//1 2//1 3//1
f 1//1 4//1 5//1
f 6//2 7//2 8//2
f 6//2 9//2 10//2
f 11//3 12//3 13//3
f 14//4 15//4 16//4
f 17//4 18//4 19//4
f 3//1 4//1 1//1
f 1//1 20//1 2//1
f 10//2 7//2 6//2
f 6//2 21//2 9//2
f 11//3 22//3 12//3
f 14//4 18//4 15//4
f 17//4 15//4 18//4