# Blender v3.0.1 OBJ File: 'anno.blend'
# www.blender.org
mtllib 02.mtl
o model.003_model.004
v -0.241710 -0.092969 -0.701114
v -0.231338 -0.092969 -0.701445
v 0.231332 -0.092969 -0.701114
v 0.221667 -0.092969 -0.702084
v -0.221673 -0.092969 -0.702415
v 0.213368 -0.092969 -0.703627
v -0.213374 -0.092969 -0.703957
v 0.207000 -0.092969 -0.705637
v -0.207006 -0.092969 -0.705968
v 0.202996 -0.092969 -0.707978
v -0.203002 -0.092969 -0.708309
v 0.201631 -0.092969 -0.710490
v -0.201637 -0.092969 -0.710821
v 0.202996 -0.092969 -0.713002
v -0.203002 -0.092969 -0.713333
v 0.207000 -0.092969 -0.715344
v -0.207006 -0.092969 -0.715674
v 0.213368 -0.092969 -0.717354
v -0.213374 -0.092969 -0.717685
v 0.221667 -0.092969 -0.718897
v -0.221673 -0.092969 -0.719227
v 0.231332 -0.092969 -0.719866
v 0.241704 -0.092969 -0.720197
v -0.231338 -0.092969 -0.720197
v -0.221673 -0.092969 -0.719227
v 0.241704 -0.092969 -0.720197
v -0.231338 -0.092969 -0.720197
v 0.231332 -0.092969 -0.719866
v 0.221667 -0.092969 -0.718897
v -0.213374 -0.092969 -0.717685
v 0.213368 -0.092969 -0.717354
v -0.207006 -0.092969 -0.715674
v 0.207000 -0.092969 -0.715344
v -0.203002 -0.092969 -0.713333
v 0.202996 -0.092969 -0.713002
v -0.201637 -0.092969 -0.710821
v 0.201631 -0.092969 -0.710490
v -0.203002 -0.092969 -0.708309
v 0.202996 -0.092969 -0.707978
v -0.207006 -0.092969 -0.705968
v 0.207000 -0.092969 -0.705637
v -0.213374 -0.092969 -0.703957
v 0.213368 -0.092969 -0.703627
v -0.221673 -0.092969 -0.702415
v 0.221667 -0.092969 -0.702084
v -0.231338 -0.092969 -0.701445
v 0.231332 -0.092969 -0.701114
v -0.241710 -0.092969 -0.701114
v -0.241710 -0.047242 -0.701114
v 0.231332 -0.047242 -0.701114
v -0.231338 -0.047242 -0.701445
v 0.221667 -0.047242 -0.702084
v -0.221673 -0.047242 -0.702415
v 0.213368 -0.047242 -0.703627
v -0.213374 -0.047242 -0.703957
v 0.207000 -0.047242 -0.705637
v -0.207006 -0.047242 -0.705968
v 0.202996 -0.047242 -0.707978
v -0.203002 -0.047242 -0.708309
v 0.201631 -0.047242 -0.710490
v -0.201637 -0.047242 -0.710821
v 0.202996 -0.047242 -0.713002
v -0.203002 -0.047242 -0.713333
v 0.207000 -0.047242 -0.715344
v -0.207006 -0.047242 -0.715674
v 0.213368 -0.047242 -0.717354
v -0.213374 -0.047242 -0.717685
v 0.221667 -0.047242 -0.718897
v -0.221673 -0.047242 -0.719227
v 0.231332 -0.047242 -0.719866
v -0.231338 -0.047242 -0.720197
v 0.241704 -0.047242 -0.720197
v 0.231332 -0.047242 -0.719866
v -0.231338 -0.047242 -0.720197
v 0.241704 -0.047242 -0.720197
v -0.221673 -0.047242 -0.719227
v 0.221667 -0.047242 -0.718897
v -0.213374 -0.047242 -0.717685
v 0.213368 -0.047242 -0.717354
v -0.207006 -0.047242 -0.715674
v 0.207000 -0.047242 -0.715344
v -0.203002 -0.047242 -0.713333
v 0.202996 -0.047242 -0.713002
v -0.201637 -0.047242 -0.710821
v 0.201631 -0.047242 -0.710490
v -0.203002 -0.047242 -0.708309
v 0.202996 -0.047242 -0.707978
v -0.207006 -0.047242 -0.705968
v 0.207000 -0.047242 -0.705637
v -0.213374 -0.047242 -0.703957
v 0.213368 -0.047242 -0.703627
v -0.221673 -0.047242 -0.702415
v 0.221667 -0.047242 -0.702084
v -0.231338 -0.047242 -0.701445
v 0.231332 -0.047242 -0.701114
v -0.241710 -0.047242 -0.701114
v -0.231338 -0.092969 -0.720197
v -0.231338 -0.047242 -0.720197
v 0.241704 -0.092969 -0.720197
v 0.241704 -0.047242 -0.720197
v -0.231338 -0.047242 -0.720197
v 0.241704 -0.092969 -0.720197
v 0.241704 -0.047242 -0.720197
v -0.231338 -0.092969 -0.720197
v -0.241710 -0.047242 -0.701114
v -0.241710 -0.092969 -0.701114
v 0.231332 -0.047242 -0.701114
v 0.231332 -0.092969 -0.701114
v -0.241710 -0.092969 -0.701114
v 0.231332 -0.047242 -0.701114
v 0.231332 -0.092969 -0.701114
v -0.241710 -0.047242 -0.701114
vt -0.554304 1.088947
vt -0.546234 1.064414
vt -0.554304 -0.029939
vt -0.530643 -0.007078
vt -0.522573 1.041554
vt -0.493004 0.012552
vt -0.484934 1.021923
vt -0.443953 0.027615
vt -0.435882 1.006860
vt -0.386831 0.037085
vt -0.378760 0.997391
vt -0.325531 0.040314
vt -0.317461 0.994161
vt -0.264232 0.037085
vt -0.256162 0.997391
vt -0.207110 0.027615
vt -0.199040 1.006860
vt -0.158058 0.012552
vt -0.149988 1.021923
vt -0.120420 -0.007078
vt -0.112349 1.041554
vt -0.096759 -0.029939
vt -0.088689 -0.054471
vt -0.088689 1.064414
vt -0.112349 1.041554
vt -0.088689 -0.054471
vt -0.088689 1.064414
vt -0.096759 -0.029939
vt -0.120420 -0.007078
vt -0.149988 1.021923
vt -0.158058 0.012552
vt -0.199040 1.006860
vt -0.207110 0.027615
vt -0.256162 0.997391
vt -0.264232 0.037085
vt -0.317461 0.994161
vt -0.325531 0.040314
vt -0.378760 0.997391
vt -0.386831 0.037085
vt -0.435882 1.006860
vt -0.443953 0.027615
vt -0.484934 1.021923
vt -0.493004 0.012552
vt -0.522573 1.041554
vt -0.530643 -0.007078
vt -0.546234 1.064414
vt -0.554304 -0.029939
vt -0.554304 1.088947
vt 0.554304 1.088947
vt 0.554304 -0.029939
vt 0.546234 1.064414
vt 0.530643 -0.007078
vt 0.522573 1.041554
vt 0.493004 0.012552
vt 0.484934 1.021923
vt 0.443953 0.027615
vt 0.435882 1.006860
vt 0.386831 0.037085
vt 0.378760 0.997391
vt 0.325531 0.040314
vt 0.317461 0.994161
vt 0.264232 0.037085
vt 0.256162 0.997391
vt 0.207110 0.027615
vt 0.199040 1.006860
vt 0.158058 0.012552
vt 0.149988 1.021923
vt 0.120420 -0.007078
vt 0.112349 1.041554
vt 0.096759 -0.029939
vt 0.088689 1.064414
vt 0.088689 -0.054471
vt 0.096759 -0.029939
vt 0.088689 1.064414
vt 0.088689 -0.054471
vt 0.112349 1.041554
vt 0.120420 -0.007078
vt 0.149988 1.021923
vt 0.158058 0.012552
vt 0.199040 1.006860
vt 0.207110 0.027615
vt 0.256162 0.997391
vt 0.264232 0.037085
vt 0.317461 0.994161
vt 0.325531 0.040314
vt 0.378760 0.997391
vt 0.386831 0.037085
vt 0.435882 1.006860
vt 0.443953 0.027615
vt 0.484934 1.021923
vt 0.493004 0.012552
vt 0.522573 1.041554
vt 0.530643 -0.007078
vt 0.546234 1.064414
vt 0.554304 -0.029939
vt 0.554304 1.088947
vt -5.902662 -0.000000
vt -5.902662 0.041025
vt 0.302068 -0.000000
vt 0.302068 0.041025
vt -5.902662 0.041025
vt 0.302068 -0.000000
vt 0.302068 0.041025
vt -5.902662 -0.000000
vt 6.038704 0.041025
vt 6.038704 -0.000000
vt -0.166025 0.041025
vt -0.166025 -0.000000
vt 6.038704 -0.000000
vt -0.166025 0.041025
vt -0.166025 -0.000000
vt 6.038704 0.041025
vn 0.0000 -1.0000 -0.0000
vn 0.0000 -1.0000 0.0004
vn 0.0000 1.0000 -0.0000
vn 0.0000 0.0000 -1.0000
vn 0.0000 0.0000 1.0000
usemtl material_0.191
s 1
f 1/1/1 2/2/1 3/3/1
f 3/3/1 2/2/1 4/4/1
f 2/2/1 5/5/1 4/4/1
f 4/4/1 5/5/1 6/6/1
f 5/5/1 7/7/1 6/6/1
f 6/6/1 7/7/1 8/8/1
f 7/7/1 9/9/1 8/8/1
f 8/8/1 9/9/1 10/10/1
f 9/9/1 11/11/1 10/10/1
f 10/10/1 11/11/1 12/12/1
f 11/11/1 13/13/1 12/12/1
f 12/12/1 13/13/1 14/14/1
f 13/13/1 15/15/1 14/14/1
f 14/14/1 15/15/1 16/16/1
f 15/15/1 17/17/1 16/16/1
f 16/16/1 17/17/1 18/18/1
f 17/17/1 19/19/1 18/18/1
f 18/18/1 19/19/1 20/20/1
f 19/19/1 21/21/2 20/20/1
f 20/20/1 21/21/2 22/22/1
f 22/22/1 21/21/2 23/23/1
f 24/24/1 23/23/1 21/21/2
f 25/25/3 26/26/3 27/27/3
f 26/26/3 25/25/3 28/28/3
f 28/28/3 25/25/3 29/29/3
f 29/29/3 25/25/3 30/30/3
f 29/29/3 30/30/3 31/31/3
f 31/31/3 30/30/3 32/32/3
f 31/31/3 32/32/3 33/33/3
f 33/33/3 32/32/3 34/34/3
f 33/33/3 34/34/3 35/35/3
f 35/35/3 34/34/3 36/36/3
f 35/35/3 36/36/3 37/37/3
f 37/37/3 36/36/3 38/38/3
f 37/37/3 38/38/3 39/39/3
f 39/39/3 38/38/3 40/40/3
f 39/39/3 40/40/3 41/41/3
f 41/41/3 40/40/3 42/42/3
f 41/41/3 42/42/3 43/43/3
f 43/43/3 42/42/3 44/44/3
f 43/43/3 44/44/3 45/45/3
f 45/45/3 44/44/3 46/46/3
f 45/45/3 46/46/3 47/47/3
f 47/47/3 46/46/3 48/48/3
f 49/49/3 50/50/3 51/51/3
f 50/50/3 52/52/3 51/51/3
f 51/51/3 52/52/3 53/53/3
f 52/52/3 54/54/3 53/53/3
f 53/53/3 54/54/3 55/55/3
f 54/54/3 56/56/3 55/55/3
f 55/55/3 56/56/3 57/57/3
f 56/56/3 58/58/3 57/57/3
f 57/57/3 58/58/3 59/59/3
f 58/58/3 60/60/3 59/59/3
f 59/59/3 60/60/3 61/61/3
f 60/60/3 62/62/3 61/61/3
f 61/61/3 62/62/3 63/63/3
f 62/62/3 64/64/3 63/63/3
f 63/63/3 64/64/3 65/65/3
f 64/64/3 66/66/3 65/65/3
f 65/65/3 66/66/3 67/67/3
f 66/66/3 68/68/3 67/67/3
f 67/67/3 68/68/3 69/69/3
f 68/68/3 70/70/3 69/69/3
f 69/69/3 70/70/3 71/71/3
f 72/72/3 71/71/3 70/70/3
f 73/73/1 74/74/1 75/75/1
f 74/74/1 73/73/1 76/76/1
f 76/76/1 73/73/1 77/77/1
f 76/76/1 77/77/1 78/78/1
f 78/78/1 77/77/1 79/79/1
f 78/78/1 79/79/1 80/80/1
f 80/80/1 79/79/1 81/81/1
f 80/80/1 81/81/1 82/82/1
f 82/82/1 81/81/1 83/83/1
f 82/82/1 83/83/1 84/84/1
f 84/84/1 83/83/1 85/85/1
f 84/84/1 85/85/1 86/86/1
f 86/86/1 85/85/1 87/87/1
f 86/86/1 87/87/1 88/88/1
f 88/88/1 87/87/1 89/89/1
f 88/88/1 89/89/1 90/90/1
f 90/90/1 89/89/1 91/91/1
f 90/90/1 91/91/1 92/92/1
f 92/92/1 91/91/1 93/93/1
f 92/92/1 93/93/1 94/94/1
f 94/94/1 93/93/1 95/95/1
f 94/94/1 95/95/1 96/96/1
f 97/97/4 98/98/4 99/99/4
f 100/100/4 99/99/4 98/98/4
f 101/101/5 102/102/5 103/103/5
f 102/102/5 101/101/5 104/104/5
f 105/105/5 106/106/5 107/107/5
f 108/108/5 107/107/5 106/106/5
f 109/109/4 110/110/4 111/111/4
f 110/110/4 109/109/4 112/112/4
