# Blender v3.0.1 OBJ File: ''
# www.blender.org
mtllib 01.mtl
o group_18_ID273
v 0.592870 -0.086641 -0.006935
v 0.563715 -0.086641 0.294331
v 0.563715 -0.086641 -0.006935
v 0.592870 -0.086641 0.294331
v -0.563600 -0.086641 -0.006935
v -0.592755 -0.086641 0.294331
v -0.592755 -0.086641 -0.006935
v -0.563600 -0.086641 0.294331
v -0.563600 -0.086641 0.339835
v 0.563715 -0.086641 0.339835
v -0.592755 -0.065290 -0.006935
v -0.592755 -0.086641 0.294331
v -0.592755 -0.065290 0.294331
v -0.592755 -0.086641 -0.006935
v -0.592755 -0.065290 -0.006935
v -0.563600 -0.086641 -0.006935
v -0.592755 -0.086641 -0.006935
v -0.563600 -0.065290 -0.006935
v -0.563600 -0.065290 -0.006935
v 0.563715 -0.086641 -0.006935
v -0.563600 -0.086641 -0.006935
v 0.563715 -0.065290 -0.006935
v 0.563715 -0.065290 -0.006935
v 0.592870 -0.086641 -0.006935
v 0.563715 -0.086641 -0.006935
v 0.592870 -0.065290 -0.006935
v 0.592870 -0.086641 -0.006935
v 0.592870 -0.065290 0.294331
v 0.592870 -0.086641 0.294331
v 0.592870 -0.065290 -0.006935
v 0.592870 -0.065290 0.294331
v 0.563715 -0.086641 0.294331
v 0.592870 -0.086641 0.294331
v 0.563715 -0.065290 0.294331
v 0.563715 -0.086641 0.294331
v 0.563715 -0.065290 0.339835
v 0.563715 -0.086641 0.339835
v 0.563715 -0.065290 0.294331
v 0.563715 -0.065290 0.339835
v -0.563600 -0.086641 0.339835
v 0.563715 -0.086641 0.339835
v -0.563600 -0.065290 0.339835
v -0.563600 -0.065290 0.294331
v -0.563600 -0.086641 0.339835
v -0.563600 -0.065290 0.339835
v -0.563600 -0.086641 0.294331
v -0.563600 -0.065290 0.294331
v -0.592755 -0.086641 0.294331
v -0.563600 -0.086641 0.294331
v -0.592755 -0.065290 0.294331
v 0.563715 -0.065290 0.339835
v -0.563600 -0.065290 0.294331
v -0.563600 -0.065290 0.339835
v -0.563600 -0.065290 -0.006935
v 0.563715 -0.065290 -0.006935
v 0.563715 -0.065290 0.294331
v 0.592870 -0.065290 0.294331
v 0.592870 -0.065290 -0.006935
v -0.592755 -0.065290 -0.006935
v -0.592755 -0.065290 0.294331
v 0.563715 -0.086641 0.294331
v 0.563715 -0.086641 -0.006935
v 0.563715 -0.086641 0.339835
v -0.563600 -0.086641 0.339835
v -0.563600 -0.086641 0.294331
v -0.563600 -0.086641 -0.006935
v -0.592755 -0.086641 0.294331
v -0.592755 -0.086641 -0.006935
v 0.592870 -0.086641 0.294331
v 0.592870 -0.086641 -0.006935
v -0.592755 -0.086641 -0.006935
v -0.592755 -0.065290 -0.006935
v -0.592755 -0.086641 0.294331
v -0.592755 -0.065290 0.294331
v -0.563600 -0.065290 -0.006935
v -0.592755 -0.065290 -0.006935
v -0.563600 -0.086641 -0.006935
v -0.592755 -0.086641 -0.006935
v 0.563715 -0.065290 -0.006935
v -0.563600 -0.065290 -0.006935
v 0.563715 -0.086641 -0.006935
v -0.563600 -0.086641 -0.006935
v 0.592870 -0.065290 -0.006935
v 0.563715 -0.065290 -0.006935
v 0.592870 -0.086641 -0.006935
v 0.563715 -0.086641 -0.006935
v 0.592870 -0.065290 -0.006935
v 0.592870 -0.086641 -0.006935
v 0.592870 -0.065290 0.294331
v 0.592870 -0.086641 0.294331
v 0.563715 -0.065290 0.294331
v 0.592870 -0.065290 0.294331
v 0.563715 -0.086641 0.294331
v 0.592870 -0.086641 0.294331
v 0.563715 -0.065290 0.294331
v 0.563715 -0.086641 0.294331
v 0.563715 -0.065290 0.339835
v 0.563715 -0.086641 0.339835
v -0.563600 -0.065290 0.339835
v 0.563715 -0.065290 0.339835
v -0.563600 -0.086641 0.339835
v 0.563715 -0.086641 0.339835
v -0.563600 -0.086641 0.294331
v -0.563600 -0.065290 0.294331
v -0.563600 -0.086641 0.339835
v -0.563600 -0.065290 0.339835
v -0.592755 -0.065290 0.294331
v -0.563600 -0.065290 0.294331
v -0.592755 -0.086641 0.294331
v -0.563600 -0.086641 0.294331
v -0.563600 -0.065290 -0.006935
v -0.563600 -0.065290 0.294331
v -0.592755 -0.065290 -0.006935
v -0.592755 -0.065290 0.294331
v 0.592870 -0.065290 -0.006935
v 0.592870 -0.065290 0.294331
v 0.563715 -0.065290 -0.006935
v 0.563715 -0.065290 0.294331
v 0.563715 -0.065290 0.339835
v -0.563600 -0.065290 0.339835
vt -0.609395 -0.348686
vt -0.635050 -0.936753
vt -0.635050 -0.348686
vt -0.609395 -0.936753
vt -1.627049 -0.348686
vt -1.652704 -0.936753
vt -1.652704 -0.348686
vt -1.627049 -0.936753
vt -1.627049 -1.025576
vt -0.635050 -1.025576
vt -1.652704 -0.348686
vt -1.652704 -0.936753
vt -1.652704 -0.936753
vt -1.652704 -0.348686
vt -1.652704 -0.045168
vt -1.627049 -0.045168
vt -1.652704 -0.045168
vt -1.627049 -0.045168
vt -1.627049 -0.045168
vt -0.635050 -0.045168
vt -1.627049 -0.045168
vt -0.635050 -0.045168
vt -1.079739 -0.045168
vt -1.054084 -0.045168
vt -1.079739 -0.045168
vt -1.054084 -0.045168
vt -1.054084 -0.348686
vt -1.054084 -0.936753
vt -1.054084 -0.936753
vt -1.054084 -0.348686
vt -1.054084 -0.936753
vt -1.079739 -0.936753
vt -1.054084 -0.936753
vt -1.079739 -0.936753
vt -1.079739 -0.936753
vt -1.079739 -1.025576
vt -1.079739 -1.025576
vt -1.079739 -0.936753
vt -0.635050 -1.019961
vt -1.627049 -1.019961
vt -0.635050 -1.019961
vt -1.627049 -1.019961
vt -1.627049 -0.936753
vt -1.627049 -1.025576
vt -1.627049 -1.025576
vt -1.627049 -0.936753
vt -1.627049 -0.936753
vt -1.652704 -0.936753
vt -1.627049 -0.936753
vt -1.652704 -0.936753
vt -0.635050 -1.025576
vt -1.627049 -0.936753
vt -1.627049 -1.025576
vt -1.627049 -0.348686
vt -0.635050 -0.348686
vt -0.635050 -0.936753
vt -0.609395 -0.936753
vt -0.609395 -0.348686
vt -1.652704 -0.348686
vt -1.652704 -0.936753
vt 0.000000 0.000000
vt 0.000000 0.000000
vt 0.000000 0.000000
vt 0.000000 0.000000
vt 0.000000 0.000000
vt 0.000000 0.000000
vt 0.000000 0.000000
vt 0.000000 0.000000
vt 0.000000 0.000000
vt 0.000000 0.000000
vt 0.000000 0.000000
vt 0.000000 0.000000
vt 0.000000 0.000000
vt 0.000000 0.000000
vt 0.000000 0.000000
vt 0.000000 0.000000
vt 0.000000 0.000000
vt 0.000000 0.000000
vt 0.000000 0.000000
vt 0.000000 0.000000
vt 0.000000 0.000000
vt 0.000000 0.000000
vt 0.000000 0.000000
vt 0.000000 0.000000
vt 0.000000 0.000000
vt 0.000000 0.000000
vt 0.000000 0.000000
vt 0.000000 0.000000
vt 0.000000 0.000000
vt 0.000000 0.000000
vt 0.000000 0.000000
vt 0.000000 0.000000
vt 0.000000 0.000000
vt 0.000000 0.000000
vt 0.000000 0.000000
vt 0.000000 0.000000
vt 0.000000 0.000000
vt 0.000000 0.000000
vt 0.000000 0.000000
vt 0.000000 0.000000
vt 0.000000 0.000000
vt 0.000000 0.000000
vt 0.000000 0.000000
vt 0.000000 0.000000
vt 0.000000 0.000000
vt 0.000000 0.000000
vt 0.000000 0.000000
vt 0.000000 0.000000
vt 0.000000 0.000000
vt 0.000000 0.000000
vt 0.000000 0.000000
vt 0.000000 0.000000
vt 0.000000 0.000000
vt 0.000000 0.000000
vt 0.000000 0.000000
vt 0.000000 0.000000
vt 0.000000 0.000000
vt 0.000000 0.000000
vt 0.000000 0.000000
vt 0.000000 0.000000
vn 0.0000 -1.0000 -0.0000
vn -0.0000 0.0000 -1.0000
vn -0.0000 -0.0000 1.0000
vn -1.0000 -0.0000 0.0000
vn 1.0000 -0.0000 0.0000
vn 0.0000 1.0000 0.0000
usemtl Captusdgsre.001
s 1
f 1/1/1 2/2/1 3/3/1
f 2/2/1 1/1/1 4/4/1
f 5/5/1 6/6/1 7/7/1
f 6/6/1 5/5/1 8/8/1
f 8/8/1 5/5/1 3/3/1
f 8/8/1 3/3/1 9/9/1
f 9/9/1 3/3/1 10/10/1
f 10/10/2 3/3/3 2/2/2
f 11/11/4 12/12/4 13/13/4
f 12/12/4 11/11/4 14/14/4
f 15/15/2 16/16/2 17/17/2
f 16/16/2 15/15/2 18/18/2
f 19/19/2 20/20/2 21/21/2
f 20/20/2 19/19/2 22/22/2
f 23/23/2 24/24/2 25/25/2
f 24/24/2 23/23/2 26/26/2
f 27/27/5 28/28/5 29/29/5
f 28/28/5 27/27/5 30/30/5
f 31/31/3 32/32/3 33/33/3
f 32/32/3 31/31/3 34/34/3
f 35/35/5 36/36/5 37/37/5
f 36/36/5 35/35/5 38/38/5
f 39/39/3 40/40/3 41/41/3
f 40/40/3 39/39/3 42/42/3
f 43/43/4 44/44/4 45/45/4
f 44/44/4 43/43/4 46/46/4
f 47/47/3 48/48/3 49/49/3
f 48/48/3 47/47/3 50/50/3
f 51/51/6 52/52/6 53/53/6
f 52/52/6 51/51/6 54/54/6
f 54/54/6 51/51/6 55/55/6
f 55/55/3 51/51/2 56/56/3
f 55/55/6 56/56/6 57/57/6
f 55/55/6 57/57/6 58/58/6
f 52/52/6 59/59/6 60/60/6
f 59/59/6 52/52/6 54/54/6
usemtl Color_002.001
f 61/61/3 62/62/3 63/63/2
f 63/63/6 62/62/6 64/64/6
f 64/64/6 62/62/6 65/65/6
f 62/62/6 66/66/6 65/65/6
f 65/65/6 66/66/6 67/67/6
f 68/68/6 67/67/6 66/66/6
f 69/69/6 70/70/6 61/61/6
f 62/62/6 61/61/6 70/70/6
f 71/71/5 72/72/5 73/73/5
f 74/74/5 73/73/5 72/72/5
f 75/75/3 76/76/3 77/77/3
f 78/78/3 77/77/3 76/76/3
f 79/79/3 80/80/3 81/81/3
f 82/82/3 81/81/3 80/80/3
f 83/83/3 84/84/3 85/85/3
f 86/86/3 85/85/3 84/84/3
f 87/87/4 88/88/4 89/89/4
f 90/90/4 89/89/4 88/88/4
f 91/91/2 92/92/2 93/93/2
f 94/94/2 93/93/2 92/92/2
f 95/95/4 96/96/4 97/97/4
f 98/98/4 97/97/4 96/96/4
f 99/99/2 100/100/2 101/101/2
f 102/102/2 101/101/2 100/100/2
f 103/103/5 104/104/5 105/105/5
f 106/106/5 105/105/5 104/104/5
f 107/107/2 108/108/2 109/109/2
f 110/110/2 109/109/2 108/108/2
f 111/111/1 112/112/1 113/113/1
f 114/114/1 113/113/1 112/112/1
f 115/115/1 116/116/1 117/117/1
f 116/116/1 118/118/1 117/117/1
f 118/118/2 119/119/2 117/117/3
f 117/117/1 119/119/1 111/111/1
f 111/111/1 119/119/1 112/112/1
f 120/120/1 112/112/1 119/119/1