# Blender v3.0.1 OBJ File: ''
# www.blender.org
mtllib 00.mtl
o model.2270
v -0.844668 0.228128 0.277157
v -0.818272 0.228128 0.250761
v -0.844668 0.228128 -0.277156
v 0.844668 0.228128 0.277157
v 0.818272 0.228128 0.250761
v 0.818272 0.228128 -0.250761
v -0.818272 0.228128 -0.250761
v 0.844668 0.228128 -0.277156
v 0.844668 0.228128 0.277157
v -0.844668 0.175337 0.277157
v 0.844668 0.175337 0.277157
v -0.844668 0.228128 0.277157
v -0.844668 0.228128 -0.277156
v 0.844668 0.175337 -0.277156
v -0.844668 0.175337 -0.277156
v 0.844668 0.228128 -0.277156
v -0.844668 0.175337 -0.277156
v -0.818272 0.175337 -0.250761
v -0.844668 0.175337 0.277157
v 0.844668 0.175337 -0.277156
v 0.818272 0.175337 -0.250761
v 0.818272 0.175337 0.250761
v 0.844668 0.175337 0.277157
v -0.818272 0.175337 0.250761
v 0.844668 0.228128 0.277157
v 0.818272 0.228128 -0.250761
v 0.844668 0.228128 -0.277156
v 0.818272 0.228128 0.250761
v -0.818272 0.228128 0.250761
v -0.844668 0.228128 0.277157
v -0.844668 0.228128 -0.277156
v -0.818272 0.228128 -0.250761
v -0.844668 0.228128 0.277157
v 0.844668 0.228128 0.277157
v -0.844668 0.175337 0.277157
v 0.844668 0.175337 0.277157
v 0.844668 0.228128 -0.277156
v -0.844668 0.228128 -0.277156
v 0.844668 0.175337 -0.277156
v -0.844668 0.175337 -0.277156
v 0.844668 0.175337 -0.277156
v 0.818272 0.175337 0.250761
v 0.844668 0.175337 0.277157
v 0.818272 0.175337 -0.250761
v -0.818272 0.175337 -0.250761
v -0.844668 0.175337 -0.277156
v -0.844668 0.175337 0.277157
v -0.818272 0.175337 0.250761
v 0.818272 0.228128 -0.250761
v -0.818272 0.175337 -0.250761
v 0.818272 0.175337 -0.250761
v -0.818272 0.228128 -0.250761
v -0.818272 0.228128 0.250761
v 0.818272 0.175337 0.250761
v -0.818272 0.175337 0.250761
v 0.818272 0.228128 0.250761
v -0.818272 0.228128 -0.250761
v 0.818272 0.228128 -0.250761
v -0.818272 0.175337 -0.250761
v 0.818272 0.175337 -0.250761
v 0.818272 0.228128 0.250761
v -0.818272 0.228128 0.250761
v 0.818272 0.175337 0.250761
v -0.818272 0.175337 0.250761
v -0.811674 0.228128 -0.074218
v 0.824871 0.228128 -0.001629
v -0.811674 0.228128 -0.001629
v 0.824871 0.228128 -0.074218
v 0.824871 0.228128 -0.074218
v -0.811674 0.228128 -0.074218
v 0.824871 0.228128 -0.001629
v -0.811674 0.228128 -0.001629
v -0.811674 0.228128 -0.242646
v 0.824871 0.228128 -0.170057
v -0.811674 0.228128 -0.170057
v 0.824871 0.228128 -0.242646
v 0.824871 0.228128 -0.242646
v -0.811674 0.228128 -0.242646
v 0.824871 0.228128 -0.170057
v -0.811674 0.228128 -0.170057
v -0.811674 0.228128 0.009997
v 0.824871 0.228128 0.082585
v -0.811674 0.228128 0.082585
v 0.824871 0.228128 0.009997
v 0.824871 0.228128 0.009997
v -0.811674 0.228128 0.009997
v 0.824871 0.228128 0.082585
v -0.811674 0.228128 0.082585
v -0.811674 0.228128 -0.158432
v 0.824871 0.228128 -0.085843
v -0.811674 0.228128 -0.085843
v 0.824871 0.228128 -0.158432
v 0.824871 0.228128 -0.158432
v -0.811674 0.228128 -0.158432
v 0.824871 0.228128 -0.085843
v -0.811674 0.228128 -0.085843
v -0.811674 0.228128 0.170506
v 0.824871 0.228128 0.243095
v -0.811674 0.228128 0.243095
v 0.824871 0.228128 0.170506
v 0.824871 0.228128 0.170506
v -0.811674 0.228128 0.170506
v 0.824871 0.228128 0.243095
v -0.811674 0.228128 0.243095
v 0.844668 0.175337 -0.277156
v 0.844668 0.228128 0.277157
v 0.844668 0.175337 0.277157
v 0.844668 0.228128 -0.277156
v 0.844668 0.228128 -0.277156
v 0.844668 0.175337 -0.277156
v 0.844668 0.228128 0.277157
v 0.844668 0.175337 0.277157
v 0.818272 0.228128 -0.250761
v 0.818272 0.175337 0.250761
v 0.818272 0.228128 0.250761
v 0.818272 0.175337 -0.250761
v 0.818272 0.175337 -0.250761
v 0.818272 0.228128 -0.250761
v 0.818272 0.175337 0.250761
v 0.818272 0.228128 0.250761
v -0.844668 0.228128 -0.277156
v -0.844668 0.175337 0.277157
v -0.844668 0.228128 0.277157
v -0.844668 0.175337 -0.277156
v -0.844668 0.175337 -0.277156
v -0.844668 0.228128 -0.277156
v -0.844668 0.175337 0.277157
v -0.844668 0.228128 0.277157
v -0.818272 0.175337 -0.250761
v -0.818272 0.228128 0.250761
v -0.818272 0.175337 0.250761
v -0.818272 0.228128 -0.250761
v -0.818272 0.228128 -0.250761
v -0.818272 0.175337 -0.250761
v -0.818272 0.228128 0.250761
v -0.818272 0.175337 0.250761
v -0.811674 0.228128 0.090251
v 0.824871 0.228128 0.162840
v -0.811674 0.228128 0.162840
v 0.824871 0.228128 0.090251
v 0.824871 0.228128 0.090251
v -0.811674 0.228128 0.090251
v 0.824871 0.228128 0.162840
v -0.811674 0.228128 0.162840
vt -85.568779 0.000000
vt -85.555656 0.013123
vt -85.568779 0.275591
vt -84.728882 0.000000
vt -84.742012 0.013123
vt -84.742012 0.262467
vt -85.555656 0.262467
vt -84.728882 0.275591
vt -84.728882 0.000000
vt -85.568779 -0.026247
vt -84.728882 -0.026247
vt -85.568779 0.000000
vt -60.259998 0.000000
vt -61.099892 -0.026247
vt -60.259998 -0.026247
vt -61.099892 0.000000
vt -85.568779 -0.301837
vt -85.555656 -0.288714
vt -85.568779 -0.026247
vt -84.728882 -0.301837
vt -84.742012 -0.288714
vt -84.742012 -0.039370
vt -84.728882 -0.026247
vt -85.555656 -0.039370
vt 0.000000 0.000000
vt 0.000000 0.000000
vt 0.000000 0.000000
vt 0.000000 0.000000
vt 0.000000 0.000000
vt 0.000000 0.000000
vt 0.000000 0.000000
vt 0.000000 0.000000
vt 0.000000 0.000000
vt 0.000000 0.000000
vt 0.000000 0.000000
vt 0.000000 0.000000
vt 0.000000 0.000000
vt 0.000000 0.000000
vt 0.000000 0.000000
vt 0.000000 0.000000
vt 0.000000 0.000000
vt 0.000000 0.000000
vt 0.000000 0.000000
vt 0.000000 0.000000
vt 0.000000 0.000000
vt 0.000000 0.000000
vt 0.000000 0.000000
vt 0.000000 0.000000
vt -84.742012 0.000000
vt -85.555656 -0.026247
vt -84.742012 -0.026247
vt -85.555656 0.000000
vt -93.844551 0.000000
vt -94.658203 -0.026247
vt -93.844551 -0.026247
vt -94.658203 0.000000
vt 0.000000 0.000000
vt 0.000000 0.000000
vt 0.000000 0.000000
vt 0.000000 0.000000
vt 0.000000 0.000000
vt 0.000000 0.000000
vt 0.000000 0.000000
vt 0.000000 0.000000
vt 0.000000 0.000000
vt 0.000000 0.000000
vt 0.000000 0.000000
vt 0.000000 0.000000
vt -4.068241 0.180446
vt -0.000000 0.180446
vt -4.068241 0.000000
vt 0.000000 0.000000
vt 0.000000 0.000000
vt 0.000000 0.000000
vt 0.000000 0.000000
vt 0.000000 0.000000
vt -4.068241 0.180446
vt -0.000000 0.180446
vt -4.068241 0.000000
vt 0.000000 0.000000
vt 0.000000 0.000000
vt 0.000000 0.000000
vt 0.000000 0.000000
vt 0.000000 0.000000
vt -4.068241 0.180446
vt -0.000000 0.180446
vt -4.068241 0.000000
vt 0.000000 0.000000
vt 0.000000 0.000000
vt 0.000000 0.000000
vt 0.000000 0.000000
vt 0.000000 0.000000
vt -4.068241 0.180446
vt -0.000000 0.180446
vt -4.068241 0.000000
vt 0.000000 0.000000
vt 0.000000 0.000000
vt 0.000000 0.000000
vt 0.000000 0.000000
vt 0.000000 0.000000
vt -4.068241 0.180446
vt -0.000000 0.180446
vt -4.068241 0.000000
vt 0.000000 0.000000
vt -84.453293 -0.026247
vt -84.728882 0.000000
vt -84.728882 -0.026247
vt -84.453293 0.000000
vt 0.000000 0.000000
vt 0.000000 0.000000
vt 0.000000 0.000000
vt 0.000000 0.000000
vt -84.742012 -0.000000
vt -84.492661 -0.026247
vt -84.492661 -0.000000
vt -84.742012 -0.026247
vt 0.000000 0.000000
vt 0.000000 0.000000
vt 0.000000 0.000000
vt 0.000000 0.000000
vt -85.844368 -0.000000
vt -85.568779 -0.026247
vt -85.568779 -0.000000
vt -85.844368 -0.026247
vt 0.000000 0.000000
vt 0.000000 0.000000
vt 0.000000 0.000000
vt 0.000000 0.000000
vt -93.595207 -0.026247
vt -93.844551 0.000000
vt -93.844551 -0.026247
vt -93.595207 0.000000
vt 0.000000 0.000000
vt 0.000000 0.000000
vt 0.000000 0.000000
vt 0.000000 0.000000
vt 0.000000 0.000000
vt 0.000000 0.000000
vt 0.000000 0.000000
vt 0.000000 0.000000
vt -4.068241 0.180446
vt -0.000000 0.180446
vt -4.068241 0.000000
vt 0.000000 0.000000
vn 0.0000 1.0000 0.0000
vn 0.0000 0.0000 1.0000
vn 0.0000 0.0000 -1.0000
vn 0.0000 -1.0000 -0.0000
vn 1.0000 0.0000 0.0000
vn -1.0000 0.0000 0.0000
usemtl material_0.055
s 1
f 1/1/1 2/2/1 3/3/1
f 2/2/1 1/1/1 4/4/1
f 2/2/1 4/4/1 5/5/1
f 5/5/1 4/4/1 6/6/1
f 3/3/1 7/7/1 8/8/1
f 7/7/1 3/3/1 2/2/1
f 8/8/1 7/7/1 6/6/1
f 8/8/1 6/6/1 4/4/1
f 9/9/2 10/10/2 11/11/2
f 10/10/2 9/9/2 12/12/2
f 13/13/3 14/14/3 15/15/3
f 14/14/3 13/13/3 16/16/3
f 17/17/4 18/18/4 19/19/4
f 18/18/4 17/17/4 20/20/4
f 18/18/4 20/20/4 21/21/4
f 21/21/4 20/20/4 22/22/4
f 23/23/4 22/22/4 20/20/4
f 19/19/4 24/24/4 23/23/4
f 23/23/4 24/24/4 22/22/4
f 24/24/4 19/19/4 18/18/4
f 25/25/4 26/26/4 27/27/4
f 26/26/4 25/25/4 28/28/4
f 28/28/4 25/25/4 29/29/4
f 25/25/4 30/30/4 29/29/4
f 31/31/4 29/29/4 30/30/4
f 27/27/4 32/32/4 31/31/4
f 29/29/4 31/31/4 32/32/4
f 26/26/4 32/32/4 27/27/4
f 33/33/3 34/34/3 35/35/3
f 36/36/3 35/35/3 34/34/3
f 37/37/2 38/38/2 39/39/2
f 40/40/2 39/39/2 38/38/2
f 41/41/1 42/42/1 43/43/1
f 42/42/1 41/41/1 44/44/1
f 44/44/1 41/41/1 45/45/1
f 41/41/1 46/46/1 45/45/1
f 47/47/1 45/45/1 46/46/1
f 43/43/1 48/48/1 47/47/1
f 45/45/1 47/47/1 48/48/1
f 42/42/1 48/48/1 43/43/1
f 49/49/2 50/50/2 51/51/2
f 50/50/2 49/49/2 52/52/2
f 53/53/3 54/54/3 55/55/3
f 54/54/3 53/53/3 56/56/3
f 57/57/3 58/58/3 59/59/3
f 60/60/3 59/59/3 58/58/3
f 61/61/2 62/62/2 63/63/2
f 64/64/2 63/63/2 62/62/2
f 65/65/4 66/66/4 67/67/4
f 66/66/4 65/65/4 68/68/4
f 69/69/1 70/70/1 71/71/1
f 72/72/1 71/71/1 70/70/1
f 73/73/4 74/74/4 75/75/4
f 74/74/4 73/73/4 76/76/4
f 77/77/1 78/78/1 79/79/1
f 80/80/1 79/79/1 78/78/1
f 81/81/4 82/82/4 83/83/4
f 82/82/4 81/81/4 84/84/4
f 85/85/1 86/86/1 87/87/1
f 88/88/1 87/87/1 86/86/1
f 89/89/4 90/90/4 91/91/4
f 90/90/4 89/89/4 92/92/4
f 93/93/1 94/94/1 95/95/1
f 96/96/1 95/95/1 94/94/1
f 97/97/4 98/98/4 99/99/4
f 98/98/4 97/97/4 100/100/4
f 101/101/1 102/102/1 103/103/1
f 104/104/1 103/103/1 102/102/1
f 105/105/5 106/106/5 107/107/5
f 106/106/5 105/105/5 108/108/5
f 109/109/6 110/110/6 111/111/6
f 112/112/6 111/111/6 110/110/6
f 113/113/6 114/114/6 115/115/6
f 114/114/6 113/113/6 116/116/6
f 117/117/5 118/118/5 119/119/5
f 120/120/5 119/119/5 118/118/5
f 121/121/6 122/122/6 123/123/6
f 122/122/6 121/121/6 124/124/6
f 125/125/5 126/126/5 127/127/5
f 128/128/5 127/127/5 126/126/5
f 129/129/5 130/130/5 131/131/5
f 130/130/5 129/129/5 132/132/5
f 133/133/6 134/134/6 135/135/6
f 136/136/6 135/135/6 134/134/6
usemtl material_1.007
f 137/137/4 138/138/4 139/139/4
f 138/138/4 137/137/4 140/140/4
f 141/141/1 142/142/1 143/143/1
f 144/144/1 143/143/1 142/142/1