# Blender v3.0.1 OBJ File: ''
# www.blender.org
mtllib 01.mtl
o model.001_model.9624
v -0.274694 0.371645 -0.872558
v -0.258536 0.371645 -0.856399
v -0.274694 0.371645 0.872558
v 0.274694 0.371645 -0.872558
v -0.209329 0.371645 -0.856399
v -0.209329 0.371645 -0.854783
v 0.209329 0.371645 -0.856399
v 0.258536 0.371645 -0.856399
v 0.258536 0.371645 -0.808013
v 0.258536 0.371645 0.808596
v -0.258536 0.371645 0.856400
v 0.274694 0.371645 0.872558
v -0.258536 0.371645 -0.808013
v -0.258536 0.371645 0.808596
v -0.209329 0.371645 0.856400
v 0.209329 0.371645 0.856400
v 0.209329 0.371645 0.854784
v 0.258536 0.371645 0.856400
v 0.209329 0.371645 -0.854783
v -0.209329 0.371645 -0.808013
v -0.209329 0.371645 0.808596
v -0.027302 0.371645 -0.808013
v -0.027302 0.371645 0.808596
v -0.209329 0.371645 0.854784
v 0.274694 0.403962 0.872558
v -0.274694 0.403962 -0.872558
v -0.274694 0.403962 0.872558
v 0.274694 0.403962 -0.872558
v -0.209329 0.371645 0.854784
v -0.209329 0.371645 0.856400
v 0.209329 0.371645 0.854784
v -0.027302 0.371645 0.808596
v -0.027302 0.371645 -0.808013
v -0.209329 0.371645 0.808596
v -0.209329 0.371645 -0.808013
v -0.258536 0.371645 0.808596
v -0.258536 0.371645 -0.808013
v 0.209329 0.371645 -0.856399
v -0.209329 0.371645 -0.854783
v 0.209329 0.371645 -0.854783
v 0.274694 0.371645 -0.872558
v 0.258536 0.371645 0.808596
v 0.274694 0.371645 0.872558
v 0.258536 0.371645 0.856400
v 0.209329 0.371645 0.856400
v -0.258536 0.371645 0.856400
v -0.258536 0.371645 -0.856399
v -0.274694 0.371645 0.872558
v 0.258536 0.371645 -0.808013
v 0.258536 0.371645 -0.856399
v -0.209329 0.371645 -0.856399
v -0.274694 0.371645 -0.872558
v 0.274694 0.403962 -0.872558
v 0.274694 0.403962 0.872558
v -0.274694 0.403962 -0.872558
v -0.274694 0.403962 0.872558
v 0.274694 0.403962 0.872558
v -0.274694 0.371645 0.872558
v 0.274694 0.371645 0.872558
v -0.274694 0.403962 0.872558
v 0.274694 0.371645 -0.872558
v 0.274694 0.403962 0.872558
v 0.274694 0.371645 0.872558
v 0.274694 0.403962 -0.872558
v -0.274694 0.403962 -0.872558
v -0.274694 0.371645 0.872558
v -0.274694 0.403962 0.872558
v -0.274694 0.371645 -0.872558
v -0.274694 0.403962 -0.872558
v 0.274694 0.371645 -0.872558
v -0.274694 0.371645 -0.872558
v 0.274694 0.403962 -0.872558
v 0.274694 0.403962 -0.872558
v 0.274694 0.371645 -0.872558
v 0.274694 0.403962 0.872558
v 0.274694 0.371645 0.872558
v -0.274694 0.403962 0.872558
v 0.274694 0.403962 0.872558
v -0.274694 0.371645 0.872558
v 0.274694 0.371645 0.872558
v -0.274694 0.371645 -0.872558
v -0.274694 0.403962 -0.872558
v -0.274694 0.371645 0.872558
v -0.274694 0.403962 0.872558
v 0.274694 0.403962 -0.872558
v -0.274694 0.403962 -0.872558
v 0.274694 0.371645 -0.872558
v -0.274694 0.371645 -0.872558
vn 0.0000 -1.0000 -0.0000
vn -0.8657 0.5006 -0.0000
vn 0.5906 -0.8069 0.0000
vn 0.0000 1.0000 0.0000
vn -0.0410 -0.3807 0.9238
vn 0.7852 -0.0893 0.6127
vn 0.0000 0.0000 1.0000
vn 1.0000 0.0000 0.0000
vn -1.0000 0.0000 0.0000
vn 0.0000 0.0000 -1.0000
usemtl Default_OBJ.051
s 1
f 1//1 2//1 3//1
f 2//1 1//1 4//1
f 2//1 4//1 5//1
f 5//1 4//1 6//1
f 6//1 4//1 7//1
f 7//1 4//1 8//1
f 8//1 4//1 9//1
f 9//1 4//1 10//1
f 3//1 11//1 12//1
f 11//1 3//1 2//1
f 11//1 2//1 13//2
f 11//1 13//2 14//3
f 12//1 11//1 15//1
f 12//1 15//1 16//1
f 16//1 15//1 17//1
f 12//1 16//1 18//1
f 12//1 18//1 10//1
f 12//1 10//1 4//1
f 19//1 6//1 7//1
f 20//1 14//3 13//2
f 14//3 20//1 21//1
f 21//1 20//1 22//1
f 21//1 22//1 23//1
f 17//1 15//1 24//1
f 25//4 26//4 27//4
f 26//4 25//4 28//4
f 29//4 30//4 31//4
f 32//4 33//4 34//4
f 33//4 35//4 34//4
f 34//4 35//4 36//5
f 37//6 36//5 35//4
f 38//4 39//4 40//4
f 41//4 42//4 43//4
f 42//4 44//4 43//4
f 44//4 45//4 43//4
f 31//4 30//4 45//4
f 45//4 30//4 43//4
f 30//4 46//4 43//4
f 36//5 37//6 46//4
f 37//6 47//4 46//4
f 47//4 48//4 46//4
f 43//4 46//4 48//4
f 42//4 41//4 49//4
f 49//4 41//4 50//4
f 50//4 41//4 38//4
f 38//4 41//4 39//4
f 39//4 41//4 51//4
f 51//4 41//4 47//4
f 41//4 52//4 47//4
f 48//4 47//4 52//4
f 53//1 54//1 55//1
f 56//1 55//1 54//1
f 57//7 58//7 59//7
f 58//7 57//7 60//7
f 61//8 62//8 63//8
f 62//8 61//8 64//8
f 65//9 66//9 67//9
f 66//9 65//9 68//9
f 69//10 70//10 71//10
f 70//10 69//10 72//10
f 73//9 74//9 75//9
f 76//9 75//9 74//9
f 77//10 78//10 79//10
f 80//10 79//10 78//10
f 81//8 82//8 83//8
f 84//8 83//8 82//8
f 85//7 86//7 87//7
f 88//7 87//7 86//7