# Blender v3.0.1 OBJ File: ''
# www.blender.org
mtllib 07.mtl
o model.011_model.9636
v 0.209329 -0.242377 0.808596
v 0.256920 -0.193902 0.808596
v 0.256920 -0.242377 0.808596
v 0.209329 -0.193902 0.808596
v 0.209329 -0.193902 0.808596
v 0.209329 -0.242377 0.808596
v 0.256920 -0.193902 0.808596
v 0.256920 -0.242377 0.808596
v 0.256920 -0.193902 0.808596
v 0.209329 -0.193902 -0.808013
v 0.209329 -0.193902 0.808596
v 0.256920 -0.193902 -0.808013
v 0.256920 -0.242377 -0.808013
v 0.256920 -0.193902 0.808596
v 0.256920 -0.242377 0.808596
v 0.256920 -0.193902 -0.808013
v 0.209329 -0.242377 -0.808013
v 0.256920 -0.242377 0.808596
v 0.209329 -0.242377 0.808596
v 0.256920 -0.242377 -0.808013
v 0.209329 -0.193902 0.808596
v 0.209329 -0.242377 -0.808013
v 0.209329 -0.242377 0.808596
v 0.209329 -0.193902 -0.808013
v 0.256920 -0.193902 -0.808013
v 0.256920 -0.193902 0.808596
v 0.209329 -0.193902 -0.808013
v 0.209329 -0.193902 0.808596
v 0.256920 -0.193902 -0.808013
v 0.256920 -0.242377 -0.808013
v 0.256920 -0.193902 0.808596
v 0.256920 -0.242377 0.808596
v 0.256920 -0.242377 -0.808013
v 0.209329 -0.242377 -0.808013
v 0.256920 -0.242377 0.808596
v 0.209329 -0.242377 0.808596
v 0.209329 -0.193902 -0.808013
v 0.209329 -0.193902 0.808596
v 0.209329 -0.242377 -0.808013
v 0.209329 -0.242377 0.808596
vn 0.0000 0.0000 -1.0000
vn 0.0000 0.0000 1.0000
vn 0.0000 1.0000 0.0000
vn 1.0000 0.0000 0.0000
vn 0.0000 -1.0000 -0.0000
vn -1.0000 0.0000 0.0000
usemtl Default_OBJ.043
s 1
f 1//1 2//1 3//1
f 2//1 1//1 4//1
f 5//2 6//2 7//2
f 8//2 7//2 6//2
f 9//3 10//3 11//3
f 10//3 9//3 12//3
f 13//4 14//4 15//4
f 14//4 13//4 16//4
f 17//5 18//5 19//5
f 18//5 17//5 20//5
f 21//6 22//6 23//6
f 22//6 21//6 24//6
f 25//5 26//5 27//5
f 28//5 27//5 26//5
f 29//6 30//6 31//6
f 32//6 31//6 30//6
f 33//3 34//3 35//3
f 36//3 35//3 34//3
f 37//4 38//4 39//4
f 40//4 39//4 38//4