# Blender v3.0.1 OBJ File: 'anno.blend'
# www.blender.org
mtllib 03.mtl
o model.004_model.21923
v 0.608701 0.398033 0.305530
v -0.604725 0.398033 0.354580
v -0.604725 0.398033 0.305530
v 0.608701 0.398033 0.354580
v -0.604802 0.397526 0.305530
v 0.615573 0.340122 0.305530
v -0.613540 0.340122 0.305530
v -0.613540 0.340122 0.305530
v 0.615573 0.340122 0.305530
v -0.604802 0.397526 0.305530
v -0.605016 0.396113 0.354580
v 0.615714 0.340122 0.354580
v -0.613540 0.340122 0.354580
v -0.613540 0.340122 0.354580
v 0.615714 0.340122 0.353328
v 0.615714 0.340122 0.354580
v 0.615538 0.341572 0.354580
v -0.605016 0.396113 0.354580
v -0.604725 0.398033 0.305530
v 0.608701 0.398033 0.305530
v -0.613540 0.340122 0.305530
v -0.613540 0.340122 0.305609
v 0.615714 0.340122 0.353328
v -0.613540 0.340122 0.354580
v 0.615714 0.340122 0.354580
v 0.615538 0.341572 0.354580
v -0.604725 0.398033 0.354580
v -0.613540 0.340122 0.305609
v -0.613540 0.340122 0.305530
v 0.615573 0.340122 0.305530
v 0.615714 0.340122 0.354580
v 0.608701 0.398033 0.354580
v 0.615573 0.341284 0.305530
v 0.615573 0.341284 0.305530
v 0.615714 0.340122 0.305742
v 0.615573 0.340122 0.305530
v 0.615714 0.340122 0.305742
v -0.613540 0.340122 0.354580
vt 0.000000 0.000000
vt 0.000000 0.000000
vt 0.000000 0.000000
vt 0.000000 0.000000
vt -1.276587 0.256535
vt -8.100414 0.000000
vt -1.227723 0.000000
vt -0.480446 1.344682
vt -3.169941 1.344682
vt -0.499568 1.445306
vt 0.499097 1.442829
vt 3.170249 1.344682
vt 0.480446 1.344682
vt -1.227724 0.744590
vt -8.101199 0.750186
vt -8.101199 0.744590
vt 8.100218 0.006477
vt 1.277019 0.258799
vt 1.275385 0.250221
vt -0.499737 1.446194
vt -1.277018 0.258799
vt -8.061989 0.258799
vt -0.480446 0.378041
vt -0.480446 0.377903
vt -3.170249 0.294255
vt -0.480446 0.292060
vt -3.170249 0.292060
vt 3.169865 1.347223
vt 0.499736 1.446194
vt 3.154904 1.446194
vt -1.227723 0.963440
vt -1.227723 0.963793
vt -8.100414 0.963793
vt 8.101199 0.000000
vt 8.061987 0.258799
vt -3.169941 1.346719
vt -3.154904 1.446194
vt -8.100414 0.005193
vt -3.170249 0.377668
vt -3.169941 0.378041
vt -8.101201 0.962841
vt 1.227724 0.000000
vn 0.0000 -1.0000 0.0000
vn 0.0000 0.0000 -1.0000
vn 0.0000 0.0000 1.0000
vn 0.0000 1.0000 0.0000
usemtl material_0.179
s off
f 1/1/1 2/2/1 3/3/1
f 1/1/1 4/4/1 2/2/1
s 1
f 5/5/2 6/6/2 7/7/2
f 8/8/3 9/9/3 10/10/3
f 11/11/2 12/12/2 13/13/2
f 14/14/1 15/15/1 16/16/1
f 17/17/3 2/18/3 18/19/3
f 19/20/3 10/10/3 9/9/3
f 5/5/2 3/21/2 20/22/2
f 21/23/4 22/24/4 23/25/4
f 23/25/4 24/26/4 25/27/4
f 26/28/2 27/29/2 4/30/2
f 28/31/1 29/32/1 30/33/1
f 18/19/3 31/34/3 17/17/3
f 11/11/2 26/28/2 12/12/2
f 14/14/1 28/31/1 15/15/1
f 17/17/3 32/35/3 2/18/3
f 33/36/3 1/37/3 9/9/3
f 1/37/3 19/20/3 9/9/3
f 34/38/2 6/6/2 20/22/2
f 6/6/2 5/5/2 20/22/2
f 35/39/4 36/40/4 23/25/4
f 36/40/4 21/23/4 23/25/4
f 23/25/4 22/24/4 24/26/4
f 26/28/2 11/11/2 27/29/2
f 37/41/1 15/15/1 30/33/1
f 15/15/1 28/31/1 30/33/1
f 18/19/3 38/42/3 31/34/3