# Blender v3.0.1 OBJ File: 'anno.blend'
# www.blender.org
mtllib 04.mtl
o model.005_model.21924
v 0.608701 0.398033 -0.297086
v -0.604725 0.398033 -0.346136
v 0.608701 0.398033 -0.346136
v -0.604725 0.398033 -0.297086
v -0.613540 0.340122 -0.297086
v -0.604802 0.397526 -0.297086
v 0.615573 0.340122 -0.297086
v 0.615573 0.340122 -0.297086
v 0.608701 0.398033 -0.297086
v 0.615714 0.340122 -0.346136
v -0.605016 0.396113 -0.346136
v -0.613540 0.340122 -0.346136
v -0.605016 0.396113 -0.346136
v 0.615714 0.340122 -0.346136
v -0.613540 0.340122 -0.346136
v 0.615714 0.340122 -0.344884
v 0.615714 0.340122 -0.297299
v 0.615573 0.340122 -0.297086
v -0.613540 0.340122 -0.346136
v -0.613540 0.340122 -0.297164
v 0.615538 0.341572 -0.346136
v 0.608701 0.398033 -0.346136
v -0.604725 0.398033 -0.297086
v -0.604802 0.397526 -0.297086
v -0.613540 0.340122 -0.297086
v -0.604725 0.398033 -0.346136
v 0.615538 0.341572 -0.346136
v -0.613540 0.340122 -0.346136
v 0.615714 0.340122 -0.344884
v 0.615714 0.340122 -0.346136
v -0.613540 0.340122 -0.297164
v 0.615573 0.340122 -0.297086
v 0.615573 0.341284 -0.297086
v -0.613540 0.340122 -0.297086
v 0.615714 0.340122 -0.346136
v 0.615573 0.341284 -0.297086
v -0.613540 0.340122 -0.297086
v 0.615714 0.340122 -0.297299
vt 0.000000 0.000000
vt 0.000000 0.000000
vt 0.000000 0.000000
vt 0.000000 0.000000
vt 0.480446 1.344682
vt 0.499568 1.445306
vt 3.169941 1.344682
vt 8.100414 0.000000
vt 8.061989 0.258799
vt 1.277018 0.258799
vt -3.170249 1.344682
vt -0.499097 1.442829
vt -0.480446 1.344682
vt -1.275385 0.250221
vt -8.101199 0.000000
vt -1.227724 0.000000
vt -8.101199 3.870464
vt -8.101201 3.657809
vt -8.100414 3.656857
vt -1.227724 3.876060
vt -1.227723 3.657210
vt -8.100218 0.006477
vt -1.277019 0.258799
vt -8.061987 0.258799
vt 0.499737 1.446194
vt 3.154904 1.446194
vt 1.276587 0.256535
vt 1.227723 0.000000
vt -0.499736 1.446194
vt -3.169865 1.347223
vt -3.154904 1.446194
vt -0.480446 1.520357
vt -3.170249 1.518162
vt -3.170249 1.520357
vt -0.480446 1.434515
vt -3.169941 1.434377
vt 8.100414 0.005193
vt -1.227723 3.656857
vt -8.101199 3.876060
vt 3.169941 1.346719
vt -0.480446 1.434377
vt -3.170249 1.434750
vn 0.0000 -1.0000 0.0000
vn 0.0000 0.0000 -1.0000
vn -0.0000 0.0000 1.0000
vn 0.0000 1.0000 0.0000
vn -0.0005 0.0000 1.0000
vn 0.0004 0.0000 -1.0000
usemtl material_0.176
s off
f 1/1/1 2/2/1 3/3/1
f 1/1/1 4/4/1 2/2/1
s 1
f 5/5/2 6/6/2 7/7/2
f 8/8/3 9/9/3 4/10/3
f 10/11/3 11/12/3 12/13/3
f 13/14/2 14/15/2 15/16/2
f 16/17/1 17/18/1 18/19/1
f 19/20/1 16/17/1 20/21/1
f 21/22/2 2/23/2 22/24/2
f 7/7/2 23/25/2 1/26/2
f 8/8/3 24/27/3 25/28/3
f 26/29/3 27/30/3 3/31/3
f 28/32/4 29/33/4 30/34/4
f 31/35/4 32/36/4 29/33/4
f 4/10/3 24/27/3 8/8/3
f 8/8/3 33/37/5 9/9/3
f 10/11/3 27/30/3 11/12/3
f 13/14/2 21/22/2 14/15/2
f 34/38/1 20/21/1 18/19/1
f 20/21/1 16/17/1 18/19/1
f 19/20/1 35/39/1 16/17/1
f 21/22/2 13/14/2 2/23/2
f 1/26/2 36/40/6 7/7/2
f 7/7/2 6/6/2 23/25/2
f 26/29/3 11/12/3 27/30/3
f 28/32/4 31/35/4 29/33/4
f 37/41/4 32/36/4 31/35/4
f 32/36/4 38/42/4 29/33/4