# Blender v3.0.1 OBJ File: ''
# www.blender.org
mtllib 04.mtl
o model.005_model.110
v 0.520422 -0.706347 -0.229809
v 0.522353 -0.706347 -0.234471
v 0.525424 -0.706347 -0.238474
v 0.519763 -0.706347 -0.224807
v 0.529427 -0.706347 -0.241546
v 0.520422 -0.706347 -0.219804
v 0.534089 -0.706347 -0.243477
v 0.522353 -0.706347 -0.215143
v 0.539092 -0.706347 -0.244135
v 0.525424 -0.706347 -0.211140
v 0.544094 -0.706347 -0.243477
v 0.529427 -0.706347 -0.208068
v 0.548756 -0.706347 -0.241546
v 0.534089 -0.706347 -0.206137
v 0.552759 -0.706347 -0.238474
v 0.539092 -0.706347 -0.205478
v 0.555831 -0.706347 -0.234471
v 0.544094 -0.706347 -0.206137
v 0.557762 -0.706347 -0.229809
v 0.548756 -0.706347 -0.208068
v 0.558420 -0.706347 -0.224807
v 0.552759 -0.706347 -0.211140
v 0.557762 -0.706347 -0.219804
v 0.555831 -0.706347 -0.215143
v 0.555831 -0.706347 -0.215143
v 0.557762 -0.706347 -0.219804
v 0.552759 -0.706347 -0.211140
v 0.558420 -0.706347 -0.224807
v 0.548756 -0.706347 -0.208068
v 0.557762 -0.706347 -0.229809
v 0.544094 -0.706347 -0.206137
v 0.555831 -0.706347 -0.234471
v 0.539092 -0.706347 -0.205478
v 0.552759 -0.706347 -0.238474
v 0.534089 -0.706347 -0.206137
v 0.548756 -0.706347 -0.241546
v 0.529427 -0.706347 -0.208068
v 0.544094 -0.706347 -0.243477
v 0.525424 -0.706347 -0.211140
v 0.539092 -0.706347 -0.244135
v 0.522353 -0.706347 -0.215143
v 0.534089 -0.706347 -0.243477
v 0.520422 -0.706347 -0.219804
v 0.529427 -0.706347 -0.241546
v 0.519763 -0.706347 -0.224807
v 0.525424 -0.706347 -0.238474
v 0.520422 -0.706347 -0.229809
v 0.522353 -0.706347 -0.234471
v 0.520217 -0.608941 -0.228252
v 0.520422 -0.608943 -0.229809
v 0.520422 -0.706347 -0.229809
v 0.520422 -0.608943 -0.229809
v 0.520217 -0.608941 -0.228252
v 0.520422 -0.706347 -0.229809
v 0.519968 -0.608940 -0.223249
v 0.519763 -0.608939 -0.224807
v 0.519763 -0.706347 -0.224807
v 0.519763 -0.608939 -0.224807
v 0.519968 -0.608940 -0.223249
v 0.519763 -0.706347 -0.224807
v 0.521751 -0.608950 -0.216594
v 0.520422 -0.706347 -0.219804
v 0.522353 -0.706347 -0.215143
v 0.522353 -0.608954 -0.215143
v 0.522353 -0.706347 -0.215143
v 0.521751 -0.608950 -0.216594
v 0.524468 -0.608966 -0.212386
v 0.525424 -0.706347 -0.211140
v 0.525424 -0.608972 -0.211140
v 0.525424 -0.706347 -0.211140
v 0.524468 -0.608966 -0.212386
v 0.528182 -0.608988 -0.209024
v 0.529427 -0.706347 -0.208068
v 0.529427 -0.608995 -0.208068
v 0.529427 -0.706347 -0.208068
v 0.528182 -0.608988 -0.209024
v 0.530878 -0.609003 -0.207467
v 0.529427 -0.608995 -0.208068
v 0.530878 -0.609003 -0.207467
v 0.535645 -0.609031 -0.205932
v 0.534089 -0.609022 -0.206137
v 0.534089 -0.706347 -0.206137
v 0.534089 -0.609022 -0.206137
v 0.535645 -0.609031 -0.205932
v 0.534089 -0.706347 -0.206137
v 0.540647 -0.609060 -0.205683
v 0.539092 -0.609051 -0.205478
v 0.539092 -0.706347 -0.205478
v 0.539092 -0.609051 -0.205478
v 0.540647 -0.609060 -0.205683
v 0.539092 -0.706347 -0.205478
v 0.547307 -0.609099 -0.207468
v 0.544094 -0.706347 -0.206137
v 0.548756 -0.706347 -0.208068
v 0.548756 -0.609108 -0.208068
v 0.548756 -0.706347 -0.208068
v 0.547307 -0.609099 -0.207468
v 0.551515 -0.609124 -0.210185
v 0.552759 -0.706347 -0.211140
v 0.552759 -0.609131 -0.211140
v 0.552759 -0.706347 -0.211140
v 0.551515 -0.609124 -0.210185
v 0.554876 -0.609143 -0.213899
v 0.555831 -0.706347 -0.215143
v 0.555831 -0.609149 -0.215143
v 0.555831 -0.706347 -0.215143
v 0.554876 -0.609143 -0.213899
v 0.557162 -0.609157 -0.218356
v 0.557762 -0.706347 -0.219804
v 0.557762 -0.609160 -0.219804
v 0.557762 -0.706347 -0.219804
v 0.557162 -0.609157 -0.218356
v 0.558216 -0.609163 -0.223253
v 0.558420 -0.706347 -0.224807
v 0.558420 -0.609164 -0.224807
v 0.558420 -0.706347 -0.224807
v 0.558216 -0.609163 -0.223253
v 0.557966 -0.609161 -0.228255
v 0.557762 -0.706347 -0.229809
v 0.557762 -0.609160 -0.229809
v 0.557762 -0.706347 -0.229809
v 0.557966 -0.609161 -0.228255
v 0.557162 -0.609157 -0.231258
v 0.557762 -0.609160 -0.229809
v 0.557162 -0.609157 -0.231258
v 0.554876 -0.609143 -0.235715
v 0.555831 -0.609149 -0.234471
v 0.555831 -0.706347 -0.234471
v 0.555831 -0.609149 -0.234471
v 0.554876 -0.609143 -0.235715
v 0.555831 -0.706347 -0.234471
v 0.551515 -0.609124 -0.239429
v 0.552759 -0.609131 -0.238474
v 0.552759 -0.706347 -0.238474
v 0.552759 -0.609131 -0.238474
v 0.551515 -0.609124 -0.239429
v 0.552759 -0.706347 -0.238474
v 0.545544 -0.609089 -0.242877
v 0.548756 -0.706347 -0.241546
v 0.544094 -0.706347 -0.243477
v 0.544094 -0.609080 -0.243477
v 0.544094 -0.706347 -0.243477
v 0.545544 -0.609089 -0.242877
v 0.540647 -0.609060 -0.243931
v 0.539092 -0.706347 -0.244135
v 0.539092 -0.609051 -0.244135
v 0.539092 -0.706347 -0.244135
v 0.540647 -0.609060 -0.243931
v 0.535645 -0.609031 -0.243682
v 0.534089 -0.706347 -0.243477
v 0.534089 -0.609022 -0.243477
v 0.534089 -0.706347 -0.243477
v 0.535645 -0.609031 -0.243682
v 0.532639 -0.609014 -0.242876
v 0.534089 -0.609022 -0.243477
v 0.532639 -0.609014 -0.242876
v 0.528182 -0.608988 -0.240590
v 0.529427 -0.608995 -0.241546
v 0.529427 -0.706347 -0.241546
v 0.529427 -0.608995 -0.241546
v 0.528182 -0.608988 -0.240590
v 0.529427 -0.706347 -0.241546
v 0.524468 -0.608966 -0.237228
v 0.525424 -0.608972 -0.238474
v 0.525424 -0.706347 -0.238474
v 0.525424 -0.608972 -0.238474
v 0.524468 -0.608966 -0.237228
v 0.525424 -0.706347 -0.238474
v 0.521751 -0.608950 -0.233020
v 0.522353 -0.608954 -0.234471
v 0.522353 -0.706347 -0.234471
v 0.522353 -0.608954 -0.234471
v 0.521751 -0.608950 -0.233020
v 0.522353 -0.706347 -0.234471
v 0.520422 -0.706347 -0.219804
v 0.520422 -0.608943 -0.219804
v 0.548756 -0.706347 -0.241546
v 0.548756 -0.609108 -0.241546
v 0.557762 -0.609160 -0.219804
v 0.552759 -0.609131 -0.211140
v 0.525424 -0.608972 -0.211140
v 0.544094 -0.609080 -0.243477
v 0.544094 -0.706347 -0.206137
v 0.544094 -0.609080 -0.206137
v 0.539092 -0.609051 -0.244135
v 0.558420 -0.609164 -0.224807
v 0.555831 -0.609149 -0.215143
v 0.548756 -0.609108 -0.208068
v 0.522353 -0.608954 -0.215143
v 0.520422 -0.608943 -0.219804
v 0.544094 -0.609080 -0.206137
v 0.548756 -0.609108 -0.241546
vn 0.0000 -1.0000 -0.0000
vn 0.0000 -1.0000 0.0001
vn 0.0000 -1.0000 -0.0001
vn 0.0000 1.0000 0.0000
vn -0.9961 0.0000 -0.0887
vn -0.9765 0.0000 -0.2155
vn -0.9536 -0.0000 -0.3009
vn 0.9651 0.0432 0.2584
vn 0.9904 0.0458 0.1304
vn 0.9537 0.0000 0.3009
vn -0.9880 -0.0223 0.1526
vn -0.9990 0.0000 0.0444
vn -0.9990 -0.0000 -0.0438
vn 0.9991 -0.0000 -0.0432
vn 0.9877 -0.0242 -0.1545
vn 0.9990 -0.0000 0.0438
vn -0.9355 0.0001 0.3534
vn -0.9659 -0.0000 0.2589
vn -0.8433 -0.0000 0.5375
vn 0.8869 -0.0002 -0.4619
vn 0.8433 0.0000 -0.5375
vn 0.9365 -0.0001 -0.3508
vn -0.8183 0.0001 0.5748
vn -0.6754 0.0000 0.7374
vn 0.7372 -0.0002 -0.6756
vn 0.6754 -0.0000 -0.7374
vn 0.8204 -0.0002 -0.5718
vn -0.6171 0.0000 0.7869
vn -0.5000 0.0000 0.8660
vn 0.5005 0.0000 -0.8657
vn 0.5000 -0.0000 -0.8660
vn 0.6178 -0.0001 -0.7864
vn -0.3895 0.0075 0.9210
vn -0.5005 -0.0000 0.8657
vn 0.3902 0.0080 -0.9207
vn -0.0887 -0.0002 0.9961
vn -0.2593 -0.0444 0.9648
vn -0.3009 -0.0001 0.9537
vn 0.2588 -0.0432 -0.9650
vn 0.0850 0.0003 -0.9964
vn 0.3009 -0.0000 -0.9537
vn 0.1524 -0.0224 0.9881
vn 0.0439 -0.0003 0.9990
vn -0.0438 0.0000 0.9990
vn -0.0427 0.0003 -0.9991
vn -0.1546 -0.0241 -0.9877
vn 0.0438 0.0000 -0.9990
vn 0.3534 0.0002 0.9355
vn 0.2589 0.0000 0.9659
vn 0.5374 -0.0000 0.8433
vn -0.4617 -0.0002 -0.8870
vn -0.5375 0.0000 -0.8433
vn -0.3508 -0.0002 -0.9365
vn 0.5748 0.0002 0.8183
vn 0.7374 -0.0000 0.6754
vn -0.6757 -0.0002 -0.7372
vn -0.7374 0.0000 -0.6754
vn -0.5718 -0.0002 -0.8204
vn 0.7670 0.0001 0.6416
vn 0.8871 0.0000 0.4616
vn -0.8435 -0.0001 -0.5372
vn -0.8871 -0.0000 -0.4616
vn -0.7647 -0.0002 -0.6444
vn 0.9070 0.0001 0.4212
vn 0.9763 -0.0000 0.2162
vn -0.9538 -0.0000 -0.3004
vn -0.9763 0.0000 -0.2162
vn -0.9054 -0.0001 -0.4246
vn 0.9851 0.0000 0.1721
vn 0.9990 0.0000 -0.0438
vn -0.9991 0.0000 -0.0432
vn -0.9990 -0.0000 0.0438
vn -0.9844 -0.0000 -0.1758
vn 0.9928 -0.0000 -0.1201
vn 0.9659 0.0000 -0.2588
vn -0.9660 0.0000 0.2587
vn -0.9659 -0.0000 0.2588
vn -0.9929 0.0000 0.1193
vn 0.9267 -0.0074 -0.3758
vn 0.9660 -0.0000 -0.2587
vn -0.9269 -0.0080 0.3752
vn 0.7927 0.0421 -0.6081
vn 0.8651 0.0444 -0.4996
vn 0.8871 0.0000 -0.4616
vn -0.8651 0.0432 0.4998
vn -0.7924 0.0458 0.6083
vn -0.8871 0.0000 0.4616
vn 0.5907 -0.0222 -0.8066
vn 0.6748 0.0002 -0.7380
vn 0.7374 -0.0000 -0.6754
vn -0.6757 -0.0001 0.7372
vn -0.5893 -0.0244 0.8076
vn -0.7374 0.0000 0.6754
vn 0.4116 -0.0002 -0.9114
vn 0.2162 -0.0000 -0.9763
vn -0.2999 0.0003 0.9540
vn -0.2162 0.0000 0.9763
vn -0.4142 0.0002 0.9102
vn 0.1721 -0.0002 -0.9851
vn -0.0438 -0.0000 -0.9990
vn -0.0428 0.0003 0.9991
vn 0.0438 0.0000 0.9990
vn -0.1758 0.0003 0.9844
vn -0.1201 -0.0001 -0.9928
vn -0.2588 0.0000 -0.9659
vn 0.2594 -0.0000 0.9658
vn 0.2588 -0.0000 0.9659
vn 0.1192 0.0001 0.9929
vn -0.3758 -0.0075 -0.9267
vn -0.2594 0.0000 -0.9658
vn 0.3752 -0.0080 0.9269
vn -0.6416 0.0002 -0.7670
vn -0.5383 0.0002 -0.8427
vn -0.4616 0.0000 -0.8871
vn 0.5373 -0.0002 0.8434
vn 0.6444 -0.0002 0.7647
vn 0.4616 -0.0000 0.8871
vn -0.8183 0.0001 -0.5748
vn -0.7381 0.0001 -0.6747
vn -0.6754 -0.0000 -0.7374
vn 0.7372 -0.0002 0.6756
vn 0.8204 -0.0002 0.5718
vn 0.6754 -0.0000 0.7374
vn -0.9391 0.0001 -0.3435
vn -0.8875 0.0001 -0.4608
vn -0.8433 0.0000 -0.5375
vn 0.8869 -0.0002 0.4619
vn 0.9404 -0.0001 0.3400
vn 0.8433 0.0000 0.5375
vn 0.9659 0.0000 -0.2589
vn -0.4997 0.0000 0.8662
vn 0.9534 0.0001 0.3016
vn 0.6748 0.0002 0.7380
vn -0.7380 0.0002 0.6748
vn 0.3010 -0.0003 -0.9536
vn -0.2589 -0.0000 -0.9659
vn -0.2584 0.0000 -0.9660
vn 0.0439 -0.0003 -0.9990
vn 0.9990 0.0000 0.0444
vn 0.8428 0.0002 0.5382
vn 0.4606 0.0003 0.8876
vn -0.8875 0.0001 0.4608
vn 0.2584 -0.0000 0.9660
vn 0.4997 0.0000 -0.8662
usemtl Default_OBJ.026
s 1
f 1//1 2//2 3//1
f 3//1 4//1 1//1
f 3//1 5//1 4//1
f 5//1 6//1 4//1
f 5//1 7//1 6//1
f 7//1 8//1 6//1
f 7//1 9//1 8//1
f 9//1 10//1 8//1
f 9//1 11//1 10//1
f 11//1 12//1 10//1
f 11//1 13//1 12//1
f 13//1 14//1 12//1
f 13//1 15//1 14//1
f 15//1 16//1 14//1
f 15//1 17//1 16//1
f 17//1 18//1 16//1
f 17//1 19//1 18//1
f 19//1 20//1 18//1
f 19//1 21//1 20//1
f 21//1 22//1 20//1
f 21//1 23//1 22//1
f 23//1 24//3 22//1
f 25//4 26//4 27//4
f 26//4 28//4 27//4
f 27//4 28//4 29//4
f 28//4 30//4 29//4
f 29//4 30//4 31//4
f 30//4 32//4 31//4
f 31//4 32//4 33//4
f 32//4 34//4 33//4
f 33//4 34//4 35//4
f 34//4 36//4 35//4
f 35//4 36//4 37//4
f 36//4 38//4 37//4
f 37//4 38//4 39//4
f 38//4 40//4 39//4
f 39//4 40//4 41//4
f 40//4 42//4 41//4
f 41//4 42//4 43//4
f 42//4 44//4 43//4
f 43//4 44//4 45//4
f 44//4 46//4 45//4
f 45//4 46//4 47//4
f 48//4 47//4 46//4
f 49//5 50//6 51//7
f 52//8 53//9 54//10
f 55//11 56//12 57//13
f 58//14 59//15 60//16
f 61//17 62//18 63//19
f 64//20 65//21 66//22
f 67//23 63//19 68//24
f 69//25 70//26 71//27
f 72//28 68//24 73//29
f 74//30 75//31 76//32
f 77//33 78//34 73//29
f 74//30 79//35 75//31
f 80//36 81//37 82//38
f 83//39 84//40 85//41
f 86//42 87//43 88//44
f 89//45 90//46 91//47
f 92//48 93//49 94//50
f 95//51 96//52 97//53
f 98//54 94//50 99//55
f 100//56 101//57 102//58
f 103//59 99//55 104//60
f 105//61 106//62 107//63
f 108//64 104//60 109//65
f 110//66 111//67 112//68
f 113//69 109//65 114//70
f 115//71 116//72 117//73
f 118//74 114//70 119//75
f 120//76 121//77 122//78
f 123//79 124//80 119//75
f 120//76 125//81 121//77
f 126//82 127//83 128//84
f 129//85 130//86 131//87
f 132//88 133//89 134//90
f 135//91 136//92 137//93
f 138//94 139//31 140//95
f 141//96 142//97 143//98
f 144//99 140//95 145//100
f 146//101 147//102 148//103
f 149//104 145//100 150//105
f 151//106 152//107 153//108
f 154//109 155//110 150//105
f 151//106 156//111 152//107
f 157//112 158//113 159//114
f 160//115 161//116 162//117
f 163//118 164//119 165//120
f 166//121 167//122 168//123
f 169//124 170//125 171//126
f 172//127 173//128 174//129
f 162//117 156//111 160//115
f 174//129 167//122 172//127
f 168//123 161//116 166//121
f 175//130 59//15 176//80
f 54//10 173//128 52//8
f 116//72 122//78 121//77
f 106//62 112//68 111//67
f 96//52 102//58 101//57
f 147//102 153//108 152//107
f 177//29 143//98 142//97
f 177//29 136//92 178//131
f 131//87 125//81 129//85
f 91//47 84//40 89//45
f 65//21 71//27 70//26
f 150//105 155//110 149//104
f 119//75 124//80 118//74
f 109//65 179//132 108//64
f 99//55 180//133 98//54
f 68//24 181//134 67//23
f 60//16 53//9 58//14
f 171//126 163//118 165//120
f 159//114 154//109 150//105
f 140//95 182//135 138//94
f 139//31 132//88 134//90
f 128//84 123//79 119//75
f 88//44 80//36 82//38
f 111//67 117//73 116//72
f 101//57 107//63 106//62
f 175//130 66//22 65//21
f 51//7 169//124 171//126
f 142//97 148//103 147//102
f 137//93 130//86 135//91
f 183//136 90//46 184//137
f 183//136 97//53 96//52
f 85//41 79//35 83//39
f 70//26 76//32 75//31
f 145//100 185//138 144//99
f 114//70 186//139 113//69
f 104//60 187//140 103//59
f 73//29 78//34 72//28
f 165//120 157//112 159//114
f 134//90 126//82 128//84
f 94//50 188//141 92//48
f 93//49 86//42 88//44
f 82//38 77//33 73//29
f 63//19 189//142 61//17
f 62//18 55//11 57//13
f 57//13 49//5 51//7
f 61//17 190//76 62//18
f 67//23 189//142 63//19
f 72//28 181//134 68//24
f 92//48 191//143 93//49
f 98//54 188//141 94//50
f 103//59 180//133 99//55
f 108//64 187//140 104//60
f 113//69 179//132 109//65
f 118//74 186//139 114//70
f 138//94 192//144 139//31
f 144//99 182//135 140//95
f 149//104 185//138 145//100
f 162//117 152//107 156//111
f 174//129 168//123 167//122
f 168//123 162//117 161//116
f 175//130 60//16 59//15
f 54//10 174//129 173//128
f 116//72 115//71 122//78
f 106//62 105//61 112//68
f 96//52 95//51 102//58
f 147//102 146//101 153//108
f 177//29 178//131 143//98
f 177//29 137//93 136//92
f 131//87 121//77 125//81
f 91//47 85//41 84//40
f 65//21 64//20 71//27
f 60//16 54//10 53//9
f 171//126 170//125 163//118
f 159//114 158//113 154//109
f 139//31 192//144 132//88
f 128//84 127//83 123//79
f 88//44 87//43 80//36
f 111//67 110//66 117//73
f 101//57 100//56 107//63
f 175//130 176//80 66//22
f 51//7 50//6 169//124
f 142//97 141//96 148//103
f 137//93 131//87 130//86
f 183//136 91//47 90//46
f 183//136 184//137 97//53
f 85//41 75//31 79//35
f 70//26 69//25 76//32
f 165//120 164//119 157//112
f 134//90 133//89 126//82
f 93//49 191//143 86//42
f 82//38 81//37 77//33
f 62//18 190//76 55//11
f 57//13 56//12 49//5