# Blender v3.0.1 OBJ File: ''
# www.blender.org
mtllib 11.mtl
o model.012_model.123
v -0.485862 -0.706347 -0.464172
v -0.490864 -0.706347 -0.463513
v -0.495867 -0.706347 -0.464172
v -0.481200 -0.706347 -0.466103
v -0.500528 -0.706347 -0.466103
v -0.477197 -0.706347 -0.469175
v -0.504532 -0.706347 -0.469175
v -0.474125 -0.706347 -0.473178
v -0.507603 -0.706347 -0.473178
v -0.472194 -0.706347 -0.477839
v -0.509534 -0.706347 -0.477839
v -0.471536 -0.706347 -0.482842
v -0.510193 -0.706347 -0.482842
v -0.472194 -0.706347 -0.487844
v -0.509534 -0.706347 -0.487844
v -0.474125 -0.706347 -0.492506
v -0.507603 -0.706347 -0.492506
v -0.477197 -0.706347 -0.496509
v -0.504532 -0.706347 -0.496509
v -0.481200 -0.706347 -0.499581
v -0.500528 -0.706347 -0.499581
v -0.485862 -0.706347 -0.501512
v -0.495867 -0.706347 -0.501512
v -0.490864 -0.706347 -0.502170
v -0.490864 -0.706347 -0.502170
v -0.495867 -0.706347 -0.501512
v -0.485862 -0.706347 -0.501512
v -0.500528 -0.706347 -0.499581
v -0.481200 -0.706347 -0.499581
v -0.504532 -0.706347 -0.496509
v -0.477197 -0.706347 -0.496509
v -0.507603 -0.706347 -0.492506
v -0.474125 -0.706347 -0.492506
v -0.509534 -0.706347 -0.487844
v -0.472194 -0.706347 -0.487844
v -0.510193 -0.706347 -0.482842
v -0.471536 -0.706347 -0.482842
v -0.509534 -0.706347 -0.477839
v -0.472194 -0.706347 -0.477839
v -0.507603 -0.706347 -0.473178
v -0.474125 -0.706347 -0.473178
v -0.504532 -0.706347 -0.469175
v -0.477197 -0.706347 -0.469175
v -0.500528 -0.706347 -0.466103
v -0.481200 -0.706347 -0.466103
v -0.495867 -0.706347 -0.464172
v -0.485862 -0.706347 -0.464172
v -0.490864 -0.706347 -0.463513
v -0.485007 -0.603745 -0.464526
v -0.485862 -0.603745 -0.464172
v -0.485862 -0.706347 -0.464172
v -0.485862 -0.603745 -0.464172
v -0.485007 -0.603745 -0.464526
v -0.485862 -0.706347 -0.464172
v -0.480467 -0.603745 -0.466666
v -0.481200 -0.603745 -0.466103
v -0.481200 -0.706347 -0.466103
v -0.481200 -0.603745 -0.466103
v -0.480467 -0.603745 -0.466666
v -0.481200 -0.706347 -0.466103
v -0.474688 -0.603745 -0.472444
v -0.477197 -0.706347 -0.469175
v -0.474125 -0.706347 -0.473178
v -0.474125 -0.603745 -0.473178
v -0.474125 -0.706347 -0.473178
v -0.474688 -0.603745 -0.472444
v -0.472548 -0.603745 -0.476985
v -0.472194 -0.706347 -0.477839
v -0.472194 -0.603745 -0.477839
v -0.472194 -0.706347 -0.477839
v -0.472548 -0.603745 -0.476985
v -0.471656 -0.603745 -0.481925
v -0.471536 -0.706347 -0.482842
v -0.471536 -0.603745 -0.482842
v -0.471536 -0.706347 -0.482842
v -0.471656 -0.603745 -0.481925
v -0.471656 -0.603745 -0.483758
v -0.471536 -0.603745 -0.482842
v -0.471656 -0.603745 -0.483758
v -0.472548 -0.603745 -0.488698
v -0.472194 -0.603745 -0.487844
v -0.472194 -0.706347 -0.487844
v -0.472194 -0.603745 -0.487844
v -0.472548 -0.603745 -0.488698
v -0.472194 -0.706347 -0.487844
v -0.474688 -0.603745 -0.493240
v -0.474125 -0.603745 -0.492506
v -0.474125 -0.706347 -0.492506
v -0.474125 -0.603745 -0.492506
v -0.474688 -0.603745 -0.493240
v -0.474125 -0.706347 -0.492506
v -0.480467 -0.603745 -0.499018
v -0.477197 -0.706347 -0.496509
v -0.481200 -0.706347 -0.499581
v -0.481200 -0.603745 -0.499581
v -0.481200 -0.706347 -0.499581
v -0.480467 -0.603745 -0.499018
v -0.485007 -0.603745 -0.501158
v -0.485862 -0.706347 -0.501512
v -0.485862 -0.603745 -0.501512
v -0.485862 -0.706347 -0.501512
v -0.485007 -0.603745 -0.501158
v -0.489948 -0.603745 -0.502050
v -0.490864 -0.706347 -0.502170
v -0.490864 -0.603745 -0.502170
v -0.490864 -0.706347 -0.502170
v -0.489948 -0.603745 -0.502050
v -0.494950 -0.603745 -0.501632
v -0.495867 -0.706347 -0.501512
v -0.495867 -0.603745 -0.501512
v -0.495867 -0.706347 -0.501512
v -0.494950 -0.603745 -0.501632
v -0.499674 -0.603745 -0.499935
v -0.500528 -0.706347 -0.499581
v -0.500528 -0.603745 -0.499581
v -0.500528 -0.706347 -0.499581
v -0.499674 -0.603745 -0.499935
v -0.503798 -0.603745 -0.497072
v -0.504532 -0.706347 -0.496509
v -0.504532 -0.603745 -0.496509
v -0.504532 -0.706347 -0.496509
v -0.503798 -0.603745 -0.497072
v -0.505094 -0.603745 -0.495776
v -0.504532 -0.603745 -0.496509
v -0.505094 -0.603745 -0.495776
v -0.507957 -0.603745 -0.491652
v -0.507603 -0.603745 -0.492506
v -0.507603 -0.706347 -0.492506
v -0.507603 -0.603745 -0.492506
v -0.507957 -0.603745 -0.491652
v -0.507603 -0.706347 -0.492506
v -0.509655 -0.603745 -0.486928
v -0.509534 -0.603745 -0.487844
v -0.509534 -0.706347 -0.487844
v -0.509534 -0.603745 -0.487844
v -0.509655 -0.603745 -0.486928
v -0.509534 -0.706347 -0.487844
v -0.509655 -0.603745 -0.478756
v -0.510193 -0.706347 -0.482842
v -0.509534 -0.706347 -0.477839
v -0.509534 -0.603745 -0.477839
v -0.509534 -0.706347 -0.477839
v -0.509655 -0.603745 -0.478756
v -0.507957 -0.603745 -0.474032
v -0.507603 -0.706347 -0.473178
v -0.507603 -0.603745 -0.473178
v -0.507603 -0.706347 -0.473178
v -0.507957 -0.603745 -0.474032
v -0.505094 -0.603745 -0.469908
v -0.504532 -0.706347 -0.469175
v -0.504532 -0.603745 -0.469175
v -0.504532 -0.706347 -0.469175
v -0.505094 -0.603745 -0.469908
v -0.503798 -0.603745 -0.468612
v -0.504532 -0.603745 -0.469175
v -0.503798 -0.603745 -0.468612
v -0.499674 -0.603745 -0.465749
v -0.500528 -0.603745 -0.466103
v -0.500528 -0.706347 -0.466103
v -0.500528 -0.603745 -0.466103
v -0.499674 -0.603745 -0.465749
v -0.500528 -0.706347 -0.466103
v -0.494950 -0.603745 -0.464051
v -0.495867 -0.603745 -0.464172
v -0.495867 -0.706347 -0.464172
v -0.495867 -0.603745 -0.464172
v -0.494950 -0.603745 -0.464051
v -0.495867 -0.706347 -0.464172
v -0.489948 -0.603745 -0.463634
v -0.490864 -0.603745 -0.463513
v -0.490864 -0.706347 -0.463513
v -0.490864 -0.603745 -0.463513
v -0.489948 -0.603745 -0.463634
v -0.490864 -0.706347 -0.463513
v -0.510193 -0.706347 -0.482842
v -0.510193 -0.603745 -0.482842
v -0.477197 -0.706347 -0.496509
v -0.477197 -0.603745 -0.496509
v -0.477197 -0.706347 -0.469175
v -0.477197 -0.603745 -0.469175
v -0.507603 -0.603745 -0.473178
v -0.500528 -0.603745 -0.499581
v -0.490864 -0.603745 -0.502170
v -0.509534 -0.603745 -0.477839
v -0.495867 -0.603745 -0.501512
v -0.485862 -0.603745 -0.501512
v -0.481200 -0.603745 -0.499581
v -0.472194 -0.603745 -0.477839
v -0.474125 -0.603745 -0.473178
v -0.477197 -0.603745 -0.469175
v -0.477197 -0.603745 -0.496509
v -0.510193 -0.603745 -0.482842
vn 0.0000 -1.0000 -0.0000
vn 0.0000 1.0000 0.0000
vn 0.4212 -0.0000 0.9070
vn 0.3014 -0.0000 0.9535
vn 0.2162 -0.0000 0.9764
vn -0.2168 0.0000 -0.9762
vn -0.3400 0.0000 -0.9404
vn -0.2162 -0.0000 -0.9764
vn 0.6087 -0.0210 0.7931
vn 0.5381 -0.0000 0.8429
vn 0.4616 -0.0000 0.8871
vn -0.5370 -0.0001 -0.8436
vn -0.6086 -0.0229 -0.7931
vn -0.4615 -0.0000 -0.8871
vn 0.7803 -0.0000 0.6254
vn 0.7071 0.0000 0.7071
vn 0.8871 -0.0000 0.4616
vn -0.8436 0.0000 -0.5370
vn -0.8871 0.0000 -0.4615
vn -0.7792 0.0000 -0.6268
vn 0.9070 -0.0000 0.4212
vn 0.9763 -0.0000 0.2162
vn -0.9538 0.0000 -0.3003
vn -0.9763 0.0000 -0.2162
vn -0.9054 -0.0000 -0.4246
vn 0.9885 -0.0000 0.1514
vn 1.0000 -0.0000 -0.0000
vn -1.0000 0.0000 0.0001
vn -1.0000 0.0000 0.0000
vn -0.9882 0.0000 -0.1532
vn 0.9912 -0.0210 -0.1305
vn 1.0000 0.0000 -0.0001
vn -0.9912 -0.0229 0.1305
vn 0.9070 0.0000 -0.4212
vn 0.9535 0.0000 -0.3015
vn 0.9763 -0.0000 -0.2162
vn -0.9538 -0.0000 0.3003
vn -0.9054 -0.0000 0.4246
vn -0.9763 0.0000 0.2162
vn 0.7932 -0.0210 -0.6086
vn 0.8430 0.0000 -0.5379
vn 0.8871 -0.0000 -0.4616
vn -0.8436 -0.0000 0.5370
vn -0.7932 -0.0229 0.6086
vn -0.8871 -0.0000 0.4615
vn 0.6253 0.0000 -0.7804
vn 0.7071 0.0000 -0.7071
vn 0.4616 0.0000 -0.8871
vn -0.5370 -0.0000 0.8436
vn -0.4615 -0.0000 0.8871
vn -0.6268 -0.0000 0.7792
vn 0.4213 0.0000 -0.9069
vn 0.2162 -0.0000 -0.9763
vn -0.3004 0.0000 0.9538
vn -0.2162 0.0000 0.9764
vn -0.4246 -0.0000 0.9054
vn 0.1721 -0.0000 -0.9851
vn -0.0438 0.0000 -0.9990
vn -0.0432 0.0000 0.9991
vn 0.0439 -0.0000 0.9990
vn -0.1757 0.0000 0.9844
vn -0.0887 0.0000 -0.9961
vn -0.3009 0.0000 -0.9537
vn 0.2168 0.0000 0.9762
vn 0.3009 -0.0000 0.9537
vn 0.0850 -0.0000 0.9964
vn -0.3435 0.0000 -0.9392
vn -0.5375 -0.0000 -0.8433
vn 0.4621 -0.0000 0.8868
vn 0.5375 0.0000 0.8433
vn 0.3400 -0.0000 0.9404
vn -0.5919 0.0000 -0.8060
vn -0.7071 0.0000 -0.7071
vn 0.7072 0.0000 0.7070
vn 0.5905 -0.0000 0.8071
vn -0.7932 -0.0210 -0.6086
vn -0.7072 0.0000 -0.7070
vn 0.7931 -0.0229 0.6086
vn -0.9070 0.0000 -0.4212
vn -0.8874 0.0000 -0.4610
vn -0.8433 0.0000 -0.5375
vn 0.8868 -0.0000 0.4621
vn 0.9054 0.0000 0.4246
vn 0.8433 -0.0000 0.5375
vn -0.9912 -0.0210 -0.1305
vn -0.9535 0.0000 -0.3015
vn -0.9536 -0.0000 -0.3010
vn 0.9538 0.0000 0.3003
vn 0.9912 -0.0229 0.1305
vn 0.9537 0.0000 0.3009
vn -0.9940 -0.0000 0.1096
vn -0.9536 -0.0000 0.3010
vn 0.9762 -0.0000 -0.2168
vn 0.9536 0.0000 -0.3009
vn 0.9942 0.0000 -0.1078
vn -0.9392 0.0000 0.3435
vn -0.8433 0.0000 0.5375
vn 0.8868 0.0000 -0.4622
vn 0.8433 -0.0000 -0.5375
vn 0.9404 -0.0000 -0.3400
vn -0.8060 0.0000 0.5920
vn -0.7071 0.0000 0.7071
vn 0.7072 0.0000 -0.7070
vn 0.8071 -0.0000 -0.5905
vn -0.6086 0.0210 0.7932
vn -0.7072 -0.0000 0.7070
vn 0.6086 -0.0229 -0.7931
vn -0.4211 -0.0000 0.9070
vn -0.5379 -0.0000 0.8430
vn -0.5375 -0.0000 0.8433
vn 0.4621 -0.0000 -0.8868
vn 0.4245 0.0000 -0.9054
vn 0.5375 0.0000 -0.8433
vn -0.0887 -0.0000 0.9961
vn -0.2156 -0.0000 0.9765
vn -0.3009 -0.0000 0.9537
vn 0.2168 0.0000 -0.9762
vn 0.0850 0.0000 -0.9964
vn 0.3009 0.0000 -0.9536
vn 0.0887 -0.0000 0.9961
vn 0.0444 0.0000 0.9990
vn -0.0438 -0.0000 0.9990
vn -0.0432 -0.0000 -0.9991
vn -0.0850 0.0000 -0.9964
vn 0.0439 0.0000 -0.9990
vn -0.7071 0.0000 0.7072
vn -0.7071 0.0000 -0.7072
vn -0.8874 0.0000 0.4610
vn -0.4611 0.0000 -0.8873
vn 0.0444 0.0000 -0.9990
vn -0.9765 0.0000 0.2156
vn -0.2156 0.0000 -0.9765
vn 0.3015 0.0000 -0.9535
vn 0.5380 0.0000 -0.8429
vn 0.9535 0.0000 0.3014
vn 0.8429 -0.0000 0.5380
vn 0.7071 -0.0000 0.7072
vn 0.7071 -0.0000 -0.7072
usemtl Default_OBJ.028
s 1
f 1//1 2//1 3//1
f 3//1 4//1 1//1
f 3//1 5//1 4//1
f 5//1 6//1 4//1
f 5//1 7//1 6//1
f 7//1 8//1 6//1
f 7//1 9//1 8//1
f 9//1 10//1 8//1
f 9//1 11//1 10//1
f 11//1 12//1 10//1
f 11//1 13//1 12//1
f 13//1 14//1 12//1
f 13//1 15//1 14//1
f 15//1 16//1 14//1
f 15//1 17//1 16//1
f 17//1 18//1 16//1
f 17//1 19//1 18//1
f 19//1 20//1 18//1
f 19//1 21//1 20//1
f 21//1 22//1 20//1
f 21//1 23//1 22//1
f 23//1 24//1 22//1
f 25//2 26//2 27//2
f 26//2 28//2 27//2
f 27//2 28//2 29//2
f 28//2 30//2 29//2
f 29//2 30//2 31//2
f 30//2 32//2 31//2
f 31//2 32//2 33//2
f 32//2 34//2 33//2
f 33//2 34//2 35//2
f 34//2 36//2 35//2
f 35//2 36//2 37//2
f 36//2 38//2 37//2
f 37//2 38//2 39//2
f 38//2 40//2 39//2
f 39//2 40//2 41//2
f 40//2 42//2 41//2
f 41//2 42//2 43//2
f 42//2 44//2 43//2
f 43//2 44//2 45//2
f 44//2 46//2 45//2
f 45//2 46//2 47//2
f 48//2 47//2 46//2
f 49//3 50//4 51//5
f 52//6 53//7 54//8
f 55//9 56//10 57//11
f 58//12 59//13 60//14
f 61//15 62//16 63//17
f 64//18 65//19 66//20
f 67//21 63//17 68//22
f 69//23 70//24 71//25
f 72//26 68//22 73//27
f 74//28 75//29 76//30
f 77//31 78//32 73//27
f 74//28 79//33 75//29
f 80//34 81//35 82//36
f 83//37 84//38 85//39
f 86//40 87//41 88//42
f 89//43 90//44 91//45
f 92//46 93//47 94//48
f 95//49 96//50 97//51
f 98//52 94//48 99//53
f 100//54 101//55 102//56
f 103//57 99//53 104//58
f 105//59 106//60 107//61
f 108//62 104//58 109//63
f 110//64 111//65 112//66
f 113//67 109//63 114//68
f 115//69 116//70 117//71
f 118//72 114//68 119//73
f 120//74 121//16 122//75
f 123//76 124//77 119//73
f 120//74 125//78 121//16
f 126//79 127//80 128//81
f 129//82 130//83 131//84
f 132//85 133//86 134//87
f 135//88 136//89 137//90
f 138//91 139//29 140//92
f 141//93 142//94 143//95
f 144//96 140//92 145//97
f 146//98 147//99 148//100
f 149//101 145//97 150//102
f 151//103 152//47 153//104
f 154//105 155//106 150//102
f 151//103 156//107 152//47
f 157//108 158//109 159//110
f 160//111 161//112 162//113
f 163//114 164//115 165//116
f 166//117 167//118 168//119
f 169//120 170//121 171//122
f 172//123 173//124 174//125
f 116//70 122//75 121//16
f 106//60 112//66 111//65
f 96//50 102//56 101//55
f 65//19 71//25 70//24
f 54//8 173//124 52//6
f 147//99 153//104 152//47
f 175//27 143//95 142//94
f 60//14 53//7 58//12
f 162//113 156//107 160//111
f 175//27 136//89 176//27
f 91//45 84//38 89//43
f 174//125 167//118 172//123
f 168//119 161//112 166//117
f 142//94 148//100 147//99
f 137//90 130//83 135//88
f 131//84 125//78 129//82
f 111//65 117//71 116//70
f 101//55 107//61 106//60
f 177//102 90//44 178//126
f 177//102 97//51 96//50
f 85//39 79//33 83//37
f 70//24 76//30 75//29
f 179//73 59//13 180//127
f 179//73 66//20 65//19
f 171//122 163//114 165//116
f 145//97 181//128 144//96
f 139//29 132//85 134//87
f 114//68 182//129 113//67
f 104//58 183//130 103//57
f 88//42 80//34 82//36
f 73//27 78//32 72//26
f 51//5 169//120 171//122
f 165//116 157//108 159//110
f 159//110 154//105 150//102
f 150//102 155//106 149//101
f 140//92 184//131 138//91
f 134//87 126//79 128//81
f 128//81 123//76 119//73
f 119//73 124//77 118//72
f 109//63 185//132 108//62
f 99//53 186//133 98//52
f 94//48 187//134 92//46
f 82//36 77//31 73//27
f 68//22 188//135 67//21
f 63//17 189//136 61//15
f 62//16 55//9 57//11
f 57//11 49//3 51//5
f 93//47 86//40 88//42
f 61//15 190//137 62//16
f 67//21 189//136 63//17
f 72//26 188//135 68//22
f 92//46 191//138 93//47
f 98//52 187//134 94//48
f 103//57 186//133 99//53
f 108//62 183//130 104//58
f 113//67 185//132 109//63
f 118//72 182//129 114//68
f 138//91 192//29 139//29
f 144//96 184//131 140//92
f 149//101 181//128 145//97
f 116//70 115//69 122//75
f 106//60 105//59 112//66
f 96//50 95//49 102//56
f 65//19 64//18 71//25
f 54//8 174//125 173//124
f 147//99 146//98 153//104
f 175//27 176//27 143//95
f 60//14 54//8 53//7
f 162//113 152//47 156//107
f 175//27 137//90 136//89
f 91//45 85//39 84//38
f 174//125 168//119 167//118
f 168//119 162//113 161//112
f 142//94 141//93 148//100
f 137//90 131//84 130//83
f 131//84 121//16 125//78
f 111//65 110//64 117//71
f 101//55 100//54 107//61
f 177//102 91//45 90//44
f 177//102 178//126 97//51
f 85//39 75//29 79//33
f 70//24 69//23 76//30
f 179//73 60//14 59//13
f 179//73 180//127 66//20
f 171//122 170//121 163//114
f 139//29 192//29 132//85
f 88//42 87//41 80//34
f 51//5 50//4 169//120
f 165//116 164//115 157//108
f 159//110 158//109 154//105
f 134//87 133//86 126//79
f 128//81 127//80 123//76
f 82//36 81//35 77//31
f 62//16 190//137 55//9
f 57//11 56//10 49//3
f 93//47 191//138 86//40