# Blender v3.0.1 OBJ File: ''
# www.blender.org
mtllib 12.mtl
o model.013_model.124
v -0.045372 0.706347 -0.075171
v -0.050375 0.706347 -0.075830
v -0.055377 0.706347 -0.075171
v -0.040710 0.706347 -0.073241
v -0.060039 0.706347 -0.073241
v -0.036707 0.706347 -0.070169
v -0.064042 0.706347 -0.070169
v -0.033636 0.706347 -0.066166
v -0.067114 0.706347 -0.066166
v -0.031705 0.706347 -0.061504
v -0.069045 0.706347 -0.061504
v -0.031046 0.706347 -0.056502
v -0.069703 0.706347 -0.056502
v -0.031705 0.706347 -0.051499
v -0.069045 0.706347 -0.051499
v -0.033636 0.706347 -0.046837
v -0.067114 0.706347 -0.046837
v -0.036707 0.706347 -0.042834
v -0.064042 0.706347 -0.042834
v -0.040710 0.706347 -0.039762
v -0.060039 0.706347 -0.039762
v -0.045372 0.706347 -0.037832
v -0.055377 0.706347 -0.037832
v -0.050375 0.706347 -0.037173
v -0.050375 0.706347 -0.037173
v -0.055377 0.706347 -0.037832
v -0.045372 0.706347 -0.037832
v -0.060039 0.706347 -0.039762
v -0.040710 0.706347 -0.039762
v -0.064042 0.706347 -0.042834
v -0.036707 0.706347 -0.042834
v -0.067114 0.706347 -0.046837
v -0.033636 0.706347 -0.046837
v -0.069045 0.706347 -0.051499
v -0.031705 0.706347 -0.051499
v -0.069703 0.706347 -0.056502
v -0.031046 0.706347 -0.056502
v -0.069045 0.706347 -0.061504
v -0.031705 0.706347 -0.061504
v -0.067114 0.706347 -0.066166
v -0.033636 0.706347 -0.066166
v -0.064042 0.706347 -0.070169
v -0.036707 0.706347 -0.070169
v -0.060039 0.706347 -0.073241
v -0.040710 0.706347 -0.073241
v -0.055377 0.706347 -0.075171
v -0.045372 0.706347 -0.075171
v -0.050375 0.706347 -0.075830
v -0.058923 0.397500 -0.073703
v -0.060039 0.397500 -0.073240
v -0.060039 0.706347 -0.073240
v -0.060039 0.397500 -0.073240
v -0.058923 0.397500 -0.073703
v -0.060039 0.706347 -0.073240
v -0.063084 0.397500 -0.070904
v -0.064042 0.397500 -0.070169
v -0.064042 0.706347 -0.070169
v -0.064042 0.397500 -0.070169
v -0.063084 0.397500 -0.070904
v -0.064042 0.706347 -0.070169
v -0.064777 0.397500 -0.069210
v -0.067114 0.706347 -0.066166
v -0.064777 0.397500 -0.069210
v -0.067576 0.397500 -0.065050
v -0.069045 0.706347 -0.061504
v -0.067114 0.397500 -0.066166
v -0.067114 0.706347 -0.066166
v -0.067576 0.397500 -0.065050
v -0.069202 0.397500 -0.060306
v -0.069703 0.706347 -0.056501
v -0.069045 0.397500 -0.061504
v -0.069045 0.706347 -0.061504
v -0.069202 0.397500 -0.060306
v -0.069202 0.397500 -0.052697
v -0.069045 0.397500 -0.051499
v -0.069045 0.706347 -0.051499
v -0.069045 0.397500 -0.051499
v -0.069202 0.397500 -0.052697
v -0.069045 0.706347 -0.051499
v -0.067576 0.397500 -0.047953
v -0.067114 0.397500 -0.046837
v -0.067114 0.706347 -0.046837
v -0.067114 0.397500 -0.046837
v -0.067576 0.397500 -0.047953
v -0.067114 0.706347 -0.046837
v -0.064777 0.397500 -0.043793
v -0.064042 0.397500 -0.042834
v -0.064042 0.706347 -0.042834
v -0.064042 0.397500 -0.042834
v -0.064777 0.397500 -0.043793
v -0.064042 0.706347 -0.042834
v -0.063084 0.397500 -0.042099
v -0.060039 0.706347 -0.039762
v -0.063084 0.397500 -0.042099
v -0.058923 0.397500 -0.039300
v -0.055377 0.706347 -0.037832
v -0.060039 0.397500 -0.039762
v -0.060039 0.706347 -0.039762
v -0.058923 0.397500 -0.039300
v -0.054180 0.397500 -0.037674
v -0.050375 0.706347 -0.037173
v -0.055377 0.397500 -0.037832
v -0.055377 0.706347 -0.037832
v -0.054180 0.397500 -0.037674
v -0.049177 0.397500 -0.037331
v -0.045372 0.706347 -0.037832
v -0.050375 0.397500 -0.037173
v -0.050375 0.706347 -0.037173
v -0.049177 0.397500 -0.037331
v -0.044256 0.397500 -0.038294
v -0.040710 0.706347 -0.039762
v -0.045372 0.397500 -0.037832
v -0.045372 0.706347 -0.037832
v -0.044256 0.397500 -0.038294
v -0.039752 0.397500 -0.040498
v -0.036707 0.706347 -0.042834
v -0.040710 0.397500 -0.039762
v -0.040710 0.706347 -0.039762
v -0.039752 0.397500 -0.040498
v -0.034371 0.397500 -0.045879
v -0.033636 0.397500 -0.046837
v -0.033636 0.706347 -0.046837
v -0.033636 0.397500 -0.046837
v -0.034371 0.397500 -0.045879
v -0.033636 0.706347 -0.046837
v -0.032167 0.397500 -0.050383
v -0.031705 0.397500 -0.051499
v -0.031705 0.706347 -0.051499
v -0.031705 0.397500 -0.051499
v -0.032167 0.397500 -0.050383
v -0.031705 0.706347 -0.051499
v -0.031204 0.397500 -0.055304
v -0.031046 0.397500 -0.056501
v -0.031046 0.706347 -0.056501
v -0.031046 0.397500 -0.056501
v -0.031204 0.397500 -0.055304
v -0.031046 0.706347 -0.056501
v -0.031204 0.397500 -0.057699
v -0.031705 0.706347 -0.061504
v -0.031204 0.397500 -0.057699
v -0.032167 0.397500 -0.062620
v -0.033636 0.706347 -0.066166
v -0.031705 0.397500 -0.061504
v -0.031705 0.706347 -0.061504
v -0.032167 0.397500 -0.062620
v -0.034371 0.397500 -0.067124
v -0.036707 0.706347 -0.070169
v -0.033636 0.397500 -0.066166
v -0.033636 0.706347 -0.066166
v -0.034371 0.397500 -0.067124
v -0.039752 0.397500 -0.072505
v -0.040710 0.397500 -0.073240
v -0.040710 0.706347 -0.073240
v -0.040710 0.397500 -0.073240
v -0.039752 0.397500 -0.072505
v -0.040710 0.706347 -0.073240
v -0.044256 0.397500 -0.074709
v -0.045372 0.397500 -0.075171
v -0.045372 0.706347 -0.075171
v -0.045372 0.397500 -0.075171
v -0.044256 0.397500 -0.074709
v -0.045372 0.706347 -0.075171
v -0.049177 0.397500 -0.075672
v -0.050375 0.397500 -0.075830
v -0.050375 0.706347 -0.075830
v -0.050375 0.397500 -0.075830
v -0.049177 0.397500 -0.075672
v -0.050375 0.706347 -0.075830
v -0.054180 0.397500 -0.075329
v -0.055377 0.397500 -0.075171
v -0.055377 0.706347 -0.075171
v -0.055377 0.397500 -0.075171
v -0.054180 0.397500 -0.075329
v -0.055377 0.706347 -0.075171
v -0.036707 0.706347 -0.070169
v -0.069703 0.706347 -0.056501
v -0.069703 0.397500 -0.056501
v -0.033636 0.397500 -0.066166
v -0.040710 0.397500 -0.039762
v -0.050375 0.397500 -0.037173
v -0.060039 0.397500 -0.039762
v -0.067114 0.397500 -0.066166
v -0.036707 0.397500 -0.070169
v -0.036707 0.706347 -0.042834
v -0.036707 0.397500 -0.042834
v -0.031705 0.397500 -0.061504
v -0.045372 0.397500 -0.037832
v -0.055377 0.397500 -0.037832
v -0.069045 0.397500 -0.061504
v -0.069703 0.397500 -0.056501
v -0.036707 0.397500 -0.042834
v -0.036707 0.397500 -0.070169
vn 0.0000 1.0000 0.0000
vn 0.0000 1.0000 0.0001
vn 0.0000 1.0000 -0.0001
vn 0.0000 -1.0000 0.0000
vn -0.3435 0.0000 -0.9391
vn -0.4610 0.0000 -0.8874
vn -0.5375 -0.0001 -0.8433
vn 0.4621 0.0000 0.8868
vn 0.3401 -0.0000 0.9404
vn 0.5375 0.0000 0.8433
vn -0.6146 0.0074 -0.7888
vn -0.7073 0.0000 -0.7069
vn -0.7071 -0.0000 -0.7072
vn 0.7073 -0.0000 0.7069
vn 0.6151 0.0081 0.7884
vn 0.7071 0.0000 0.7072
vn -0.7997 0.0000 -0.6004
vn -0.8433 -0.0000 -0.5375
vn 0.8002 -0.0000 0.5997
vn -0.9392 0.0000 -0.3435
vn -0.9537 -0.0000 -0.3009
vn 0.8868 -0.0000 0.4621
vn 0.8433 0.0000 0.5375
vn 0.9404 -0.0000 0.3400
vn -0.9951 0.0000 -0.0992
vn -1.0000 -0.0000 0.0000
vn 0.9762 -0.0000 0.2168
vn 0.9537 0.0000 0.3009
vn 0.9953 -0.0000 0.0964
vn -0.9939 0.0223 0.1084
vn -0.9765 -0.0000 0.2157
vn -0.9537 -0.0000 0.3009
vn 0.9650 -0.0432 -0.2586
vn 0.9940 -0.0243 -0.1064
vn 0.9536 0.0000 -0.3009
vn -0.9392 -0.0000 0.3435
vn -0.8874 -0.0000 0.4610
vn -0.8433 -0.0000 0.5375
vn 0.8868 -0.0000 -0.4621
vn 0.9404 0.0000 -0.3400
vn 0.8433 0.0000 -0.5375
vn -0.7888 0.0074 0.6146
vn -0.7073 -0.0000 0.7069
vn -0.7071 -0.0000 0.7071
vn 0.7073 0.0000 -0.7069
vn 0.7884 0.0081 -0.6151
vn 0.7071 0.0000 -0.7071
vn -0.6004 -0.0000 0.7997
vn -0.5375 -0.0000 0.8433
vn 0.5996 0.0000 -0.8003
vn -0.3435 -0.0000 0.9392
vn -0.3009 0.0000 0.9537
vn 0.4621 0.0000 -0.8868
vn 0.5375 0.0000 -0.8433
vn 0.3400 0.0000 -0.9404
vn -0.0887 -0.0000 0.9961
vn -0.0438 -0.0000 0.9990
vn 0.2168 0.0000 -0.9762
vn 0.3009 -0.0000 -0.9536
vn 0.0851 0.0000 -0.9964
vn 0.1721 -0.0000 0.9851
vn 0.2162 -0.0000 0.9763
vn -0.0432 0.0000 -0.9991
vn 0.0438 0.0000 -0.9990
vn -0.1757 0.0000 -0.9844
vn 0.4212 -0.0000 0.9070
vn 0.4616 -0.0000 0.8871
vn -0.3003 0.0000 -0.9538
vn -0.2162 0.0000 -0.9764
vn -0.4245 0.0000 -0.9054
vn 0.6335 -0.0000 0.7738
vn 0.7072 -0.0000 0.7071
vn -0.5370 0.0000 -0.8436
vn -0.4615 0.0000 -0.8871
vn -0.6356 0.0000 -0.7720
vn 0.7794 0.0223 0.6261
vn 0.8429 -0.0001 0.5380
vn 0.8871 0.0000 0.4616
vn -0.8436 -0.0000 -0.5369
vn -0.7781 0.0242 -0.6276
vn -0.8871 0.0000 -0.4616
vn 0.9070 -0.0000 0.4212
vn 0.9650 0.0444 0.2585
vn 0.9763 -0.0000 0.2162
vn -0.9650 0.0432 -0.2586
vn -0.9054 0.0000 -0.4245
vn -0.9763 -0.0000 -0.2162
vn 0.9924 -0.0074 0.1232
vn 1.0000 0.0000 0.0001
vn 1.0000 -0.0000 0.0000
vn -1.0000 0.0000 -0.0001
vn -0.9924 -0.0081 -0.1225
vn 0.9900 0.0000 -0.1409
vn 0.9763 0.0000 -0.2162
vn -0.9899 -0.0000 0.1418
vn 0.9070 0.0000 -0.4212
vn 0.8871 0.0000 -0.4616
vn -0.9538 -0.0000 0.3003
vn -0.9763 -0.0000 0.2163
vn -0.9054 -0.0000 0.4245
vn 0.7737 0.0000 -0.6335
vn -0.8436 -0.0000 0.5370
vn -0.8871 -0.0000 0.4616
vn -0.7720 -0.0000 0.6356
vn 0.6261 0.0223 -0.7794
vn 0.5379 0.0000 -0.8430
vn 0.4616 0.0000 -0.8871
vn -0.5369 0.0000 0.8436
vn -0.6276 0.0243 0.7781
vn -0.4616 0.0000 0.8871
vn 0.4212 0.0000 -0.9070
vn 0.3014 0.0000 -0.9535
vn 0.2162 0.0000 -0.9763
vn -0.3003 -0.0000 0.9538
vn -0.4246 -0.0000 0.9054
vn -0.2162 -0.0000 0.9764
vn 0.1304 -0.0421 -0.9906
vn 0.0444 0.0000 -0.9990
vn -0.0438 -0.0000 -0.9990
vn -0.0432 -0.0000 0.9991
vn -0.1304 -0.0458 0.9904
vn 0.0439 0.0000 0.9990
vn -0.1304 0.0421 -0.9906
vn -0.2157 0.0000 -0.9765
vn -0.3009 0.0000 -0.9537
vn 0.2168 -0.0000 0.9762
vn 0.1304 0.0458 0.9904
vn 0.3009 0.0000 0.9536
vn 0.8429 0.0000 -0.5380
vn 0.5380 -0.0000 0.8430
vn 0.0444 -0.0000 0.9990
vn -0.4610 -0.0000 0.8874
vn -0.8874 0.0000 -0.4610
vn -0.7072 0.0000 -0.7071
vn -0.7071 0.0000 -0.7071
vn 0.9535 0.0000 -0.3015
vn 0.3014 -0.0000 0.9535
vn -0.2157 -0.0000 0.9765
vn -0.9765 0.0000 -0.2157
vn 0.7071 -0.0000 0.7071
usemtl Default_OBJ.023
s 1
f 1//1 2//2 3//1
f 3//1 4//1 1//1
f 3//1 5//1 4//1
f 5//1 6//1 4//1
f 5//1 7//1 6//1
f 7//1 8//1 6//1
f 7//1 9//1 8//1
f 9//1 10//1 8//1
f 9//1 11//1 10//1
f 11//1 12//1 10//1
f 11//1 13//1 12//1
f 13//1 14//1 12//1
f 13//1 15//1 14//1
f 15//1 16//1 14//1
f 15//1 17//1 16//1
f 17//1 18//1 16//1
f 17//1 19//1 18//1
f 19//1 20//1 18//1
f 19//1 21//1 20//1
f 21//1 22//1 20//1
f 21//1 23//1 22//1
f 23//1 24//3 22//1
f 25//4 26//4 27//4
f 26//4 28//4 27//4
f 27//4 28//4 29//4
f 28//4 30//4 29//4
f 29//4 30//4 31//4
f 30//4 32//4 31//4
f 31//4 32//4 33//4
f 32//4 34//4 33//4
f 33//4 34//4 35//4
f 34//4 36//4 35//4
f 35//4 36//4 37//4
f 36//4 38//4 37//4
f 37//4 38//4 39//4
f 38//4 40//4 39//4
f 39//4 40//4 41//4
f 40//4 42//4 41//4
f 41//4 42//4 43//4
f 42//4 44//4 43//4
f 43//4 44//4 45//4
f 44//4 46//4 45//4
f 45//4 46//4 47//4
f 48//4 47//4 46//4
f 49//5 50//6 51//7
f 52//8 53//9 54//10
f 55//11 56//12 57//13
f 58//14 59//15 60//16
f 61//17 62//18 57//13
f 58//14 60//16 63//19
f 64//20 65//21 62//18
f 66//22 67//23 68//24
f 69//25 70//26 65//21
f 71//27 72//28 73//29
f 74//30 75//31 76//32
f 77//33 78//34 79//35
f 80//36 81//37 82//38
f 83//39 84//40 85//41
f 86//42 87//43 88//44
f 89//45 90//46 91//47
f 92//48 93//49 88//44
f 89//45 91//47 94//50
f 95//51 96//52 93//49
f 97//53 98//54 99//55
f 100//56 101//57 96//52
f 102//58 103//59 104//60
f 105//61 106//62 101//57
f 107//63 108//64 109//65
f 110//66 111//67 106//62
f 112//68 113//69 114//70
f 115//71 116//72 111//67
f 117//73 118//74 119//75
f 120//76 121//77 122//78
f 123//79 124//80 125//81
f 126//82 127//83 128//84
f 129//85 130//86 131//87
f 132//88 133//89 134//90
f 135//91 136//92 137//26
f 138//93 139//94 134//90
f 135//91 137//26 140//95
f 141//96 142//97 139//94
f 143//98 144//99 145//100
f 146//101 147//47 142//97
f 148//102 149//103 150//104
f 151//105 152//106 153//107
f 154//108 155//109 156//110
f 157//111 158//112 159//113
f 160//114 161//115 162//116
f 163//117 164//118 165//119
f 166//120 167//121 168//122
f 169//123 170//124 171//125
f 172//126 173//127 174//128
f 134//90 133//89 138//93
f 67//23 63//19 60//16
f 165//119 169//123 171//125
f 175//44 150//104 149//103
f 149//103 145//100 144//99
f 144//99 140//95 137//26
f 176//90 73//29 72//28
f 72//28 68//24 67//23
f 88//44 87//43 92//48
f 57//13 56//12 61//17
f 125//81 130//86 123//79
f 85//41 90//46 83//39
f 176//90 78//34 177//90
f 168//122 173//127 166//120
f 156//110 161//115 154//108
f 118//74 114//70 113//69
f 108//64 104//60 103//59
f 98//54 94//50 91//47
f 174//128 53//9 172//126
f 153//107 157//111 159//113
f 122//78 126//82 128//84
f 82//38 86//42 88//44
f 142//97 178//129 146//101
f 111//67 179//130 115//71
f 101//57 180//131 105//61
f 93//49 181//132 95//51
f 70//26 74//30 76//32
f 62//18 182//133 64//20
f 54//10 59//15 52//8
f 175//44 155//109 183//44
f 131//87 136//92 129//85
f 79//35 84//40 77//33
f 51//7 55//11 57//13
f 162//116 167//121 160//114
f 184//134 119//75 118//74
f 184//134 124//80 185//135
f 113//69 109//65 108//64
f 103//59 99//55 98//54
f 159//113 163//117 165//119
f 128//84 132//88 134//90
f 76//32 80//36 82//38
f 171//125 49//5 51//7
f 147//47 151//105 153//107
f 139//94 186//136 141//96
f 116//72 120//76 122//78
f 106//62 187//137 110//66
f 96//52 188//138 100//56
f 65//21 189//139 69//25
f 61//17 182//133 62//18
f 64//20 189//139 65//21
f 69//25 190//26 70//26
f 92//48 181//132 93//49
f 95//51 188//138 96//52
f 100//56 180//131 101//57
f 105//61 187//137 106//62
f 110//66 179//130 111//67
f 115//71 191//140 116//72
f 138//93 186//136 139//94
f 141//96 178//129 142//97
f 146//101 192//47 147//47
f 67//23 66//22 63//19
f 165//119 164//118 169//123
f 175//44 183//44 150//104
f 149//103 148//102 145//100
f 144//99 143//98 140//95
f 176//90 177//90 73//29
f 72//28 71//27 68//24
f 125//81 131//87 130//86
f 85//41 91//47 90//46
f 176//90 79//35 78//34
f 168//122 174//128 173//127
f 156//110 162//116 161//115
f 118//74 117//73 114//70
f 108//64 107//63 104//60
f 98//54 97//53 94//50
f 174//128 54//10 53//9
f 153//107 152//106 157//111
f 122//78 121//77 126//82
f 82//38 81//37 86//42
f 70//26 190//26 74//30
f 54//10 60//16 59//15
f 175//44 156//110 155//109
f 131//87 137//26 136//92
f 79//35 85//41 84//40
f 51//7 50//6 55//11
f 162//116 168//122 167//121
f 184//134 185//135 119//75
f 184//134 125//81 124//80
f 113//69 112//68 109//65
f 103//59 102//58 99//55
f 159//113 158//112 163//117
f 128//84 127//83 132//88
f 76//32 75//31 80//36
f 171//125 170//124 49//5
f 147//47 192//47 151//105
f 116//72 191//140 120//76