# Blender v3.0.1 OBJ File: ''
# www.blender.org
mtllib 00.mtl
o SketchUp.004_ID59.001
v -0.414524 -0.004145 0.390826
v 0.414524 -0.102183 0.407739
v -0.414524 -0.102183 0.407739
v 0.414524 -0.004145 0.390826
v -0.315038 -0.004145 0.390826
v 0.315038 -0.004145 0.390826
v 0.414524 0.001490 0.423488
v -0.414524 -0.004145 0.390826
v -0.414524 0.001490 0.423488
v -0.315038 -0.004145 0.390826
v 0.315038 -0.004145 0.390826
v 0.414524 -0.004145 0.390826
v 0.414524 -0.102183 0.407739
v -0.414524 -0.096548 0.440402
v -0.414524 -0.102183 0.407739
v 0.414524 -0.096548 0.440402
v 0.414524 0.001490 0.423488
v -0.414524 -0.096548 0.440402
v 0.414524 -0.096548 0.440402
v -0.414524 0.001490 0.423488
v 0.315038 -0.004145 0.390826
v -0.315038 -0.004145 0.390826
v 0.414524 -0.004145 0.390826
v -0.414524 -0.004145 0.390826
v 0.414524 -0.102183 0.407739
v -0.414524 -0.102183 0.407739
v 0.414524 -0.004145 0.390826
v 0.414524 0.001490 0.423488
v 0.315038 -0.004145 0.390826
v -0.315038 -0.004145 0.390826
v -0.414524 -0.004145 0.390826
v -0.414524 0.001490 0.423488
v 0.414524 -0.096548 0.440402
v 0.414524 -0.102183 0.407739
v -0.414524 -0.096548 0.440402
v -0.414524 -0.102183 0.407739
v -0.414524 0.001490 0.423488
v 0.414524 0.001490 0.423488
v -0.414524 -0.096548 0.440402
v 0.414524 -0.096548 0.440402
vt -0.060000 0.419212
vt -0.560000 0.359212
vt -0.060000 0.359212
vt -0.560000 0.419212
vt -0.120000 0.419212
vt -0.500000 0.419212
vt -0.560000 0.001700
vt -0.060000 -0.018290
vt -0.060000 0.001700
vt -0.120000 -0.018290
vt -0.500000 -0.018290
vt -0.560000 -0.018290
vt 0.560000 -0.018290
vt 0.060000 0.001700
vt 0.060000 -0.018290
vt 0.560000 0.001700
vt 0.560000 0.419212
vt 0.060000 0.359212
vt 0.560000 0.359212
vt 0.060000 0.419212
vt 0.000000 0.000000
vt 0.000000 0.000000
vt 0.000000 0.000000
vt 0.000000 0.000000
vt 0.000000 0.000000
vt 0.000000 0.000000
vt 0.000000 0.000000
vt 0.000000 0.000000
vt 0.000000 0.000000
vt 0.000000 0.000000
vt 0.000000 0.000000
vt 0.000000 0.000000
vt 0.000000 0.000000
vt 0.000000 0.000000
vt 0.000000 0.000000
vt 0.000000 0.000000
vt 0.000000 0.000000
vt 0.000000 0.000000
vt 0.000000 0.000000
vt 0.000000 0.000000
vn 0.0000 -0.1700 -0.9854
vn 0.0000 0.0000 -1.0000
vn 0.0000 0.0000 1.0000
vn 0.0000 0.9854 -0.1700
vn 0.0000 -0.9854 0.1700
vn 0.0000 0.1700 0.9854
vn 1.0000 -0.0000 0.0000
vn -0.3827 -0.1571 -0.9104
usemtl APPLARO_h.004
s 1
f 1/1/1 2/2/1 3/3/1
f 2/2/1 1/1/1 4/4/1
f 4/4/2 1/1/2 5/5/2
f 4/4/3 5/5/3 6/6/3
f 7/7/4 8/8/4 9/9/4
f 8/8/4 7/7/4 10/10/4
f 10/10/4 7/7/4 11/11/4
f 11/11/4 7/7/4 12/12/4
f 13/13/5 14/14/5 15/15/5
f 14/14/5 13/13/5 16/16/5
f 17/17/6 18/18/6 19/19/6
f 18/18/6 17/17/6 20/20/6
usemtl material.010
f 21/21/7 22/22/3 23/23/8
f 22/22/3 24/24/3 23/23/8
f 23/23/6 24/24/6 25/25/6
f 26/26/6 25/25/6 24/24/6
f 27/27/5 28/28/5 29/29/5
f 29/29/5 28/28/5 30/30/5
f 30/30/5 28/28/5 31/31/5
f 32/32/5 31/31/5 28/28/5
f 33/33/4 34/34/4 35/35/4
f 36/36/4 35/35/4 34/34/4
f 37/37/1 38/38/1 39/39/1
f 40/40/1 39/39/1 38/38/1