# Blender v3.0.1 OBJ File: ''
# www.blender.org
mtllib 04.mtl
o SketchUp.045_ID423.003
v 0.414524 0.015225 -0.480000
v -0.414524 0.015225 -0.480000
v 0.414524 -0.083893 -0.488550
v -0.414524 -0.083893 -0.488550
v 0.414524 0.015225 -0.480000
v 0.414524 0.012375 -0.446961
v -0.414524 0.015225 -0.480000
v -0.414524 0.012375 -0.446961
v 0.414524 -0.086743 -0.455511
v 0.414524 -0.083893 -0.488550
v -0.414524 -0.086743 -0.455511
v -0.414524 -0.083893 -0.488550
v -0.414524 -0.037307 -0.451247
v 0.414524 -0.037307 -0.451247
v -0.414524 -0.086743 -0.455511
v 0.414524 -0.086743 -0.455511
v -0.315038 -0.004145 -0.448386
v 0.315038 -0.004145 -0.448386
v -0.315038 -0.037307 -0.451247
v 0.315038 -0.037307 -0.451247
v -0.414524 0.012375 -0.446961
v 0.414524 0.012375 -0.446961
v -0.414524 -0.004145 -0.448386
v -0.414524 0.015225 -0.480000
v 0.414524 -0.083893 -0.488550
v -0.414524 -0.083893 -0.488550
v 0.414524 0.015225 -0.480000
v 0.414524 0.012375 -0.446961
v -0.414524 0.015225 -0.480000
v -0.414524 0.012375 -0.446961
v 0.414524 0.015225 -0.480000
v 0.414524 -0.083893 -0.488550
v -0.414524 -0.086743 -0.455511
v -0.414524 -0.083893 -0.488550
v 0.414524 -0.086743 -0.455511
v -0.315038 -0.004145 -0.448386
v 0.414524 0.012375 -0.446961
v -0.414524 -0.004145 -0.448386
v 0.414524 0.012375 -0.446961
v 0.315038 -0.004145 -0.448386
v 0.414524 -0.004145 -0.448386
v -0.315038 -0.004145 -0.448386
v -0.414524 -0.004145 -0.448386
v -0.414524 0.012375 -0.446961
v -0.315038 -0.037307 -0.451247
v 0.315038 -0.037307 -0.451247
v 0.414524 -0.037307 -0.451247
v -0.414524 -0.086743 -0.455511
v 0.414524 -0.086743 -0.455511
v -0.414524 -0.037307 -0.451247
vt 0.000000 0.000000
vt 0.000000 0.000000
vt 0.000000 0.000000
vt 0.000000 0.000000
vt 0.000000 0.000000
vt 0.000000 0.000000
vt 0.000000 0.000000
vt 0.000000 0.000000
vt 0.000000 0.000000
vt 0.000000 0.000000
vt 0.000000 0.000000
vt 0.000000 0.000000
vt 0.000000 0.000000
vt 0.000000 0.000000
vt 0.000000 0.000000
vt 0.000000 0.000000
vt 0.000000 0.000000
vt 0.000000 0.000000
vt 0.000000 0.000000
vt 0.000000 0.000000
vt 0.000000 0.000000
vt 0.000000 0.000000
vt 0.000000 0.000000
vt 0.000000 0.000000
vt 0.000000 0.000000
vt 0.000000 0.000000
vt 0.000000 0.000000
vt 0.000000 0.000000
vt 0.000000 0.000000
vt 0.000000 0.000000
vt 0.000000 0.000000
vt 0.000000 0.000000
vt 0.000000 0.000000
vt 0.000000 0.000000
vt 0.000000 0.000000
vt 0.000000 0.000000
vt 0.000000 0.000000
vt 0.000000 0.000000
vt 0.000000 0.000000
vt 0.000000 0.000000
vt 0.000000 0.000000
vt 0.000000 0.000000
vt 0.000000 0.000000
vt 0.000000 0.000000
vt 0.000000 0.000000
vt 0.000000 0.000000
vt 0.000000 0.000000
vt 0.000000 0.000000
vt 0.000000 0.000000
vt 0.000000 0.000000
vn 0.0000 -0.0859 0.9963
vn 0.0000 -0.9963 -0.0859
vn 0.0000 0.9963 0.0859
vn 0.0000 0.0859 -0.9963
vn 0.0000 0.0860 -0.9963
vn 0.0000 -0.0860 0.9963
usemtl material.007
s 1
f 1/1/1 2/2/1 3/3/1
f 4/4/1 3/3/1 2/2/1
f 5/5/2 6/6/2 7/7/2
f 8/8/2 7/7/2 6/6/2
f 9/9/3 10/10/3 11/11/3
f 12/12/3 11/11/3 10/10/3
f 13/13/4 14/14/4 15/15/4
f 16/16/4 15/15/4 14/14/4
f 17/17/5 18/18/4 19/19/5
f 20/20/5 19/19/5 18/18/4
f 21/21/4 22/22/4 23/23/4
f 17/17/5 22/22/4 18/18/4
usemtl APPLARO_h.001
f 24/24/4 25/25/4 26/26/4
f 25/25/4 24/24/4 27/27/4
f 28/28/3 29/29/3 30/30/3
f 29/29/3 28/28/3 31/31/3
f 32/32/2 33/33/2 34/34/2
f 33/33/2 32/32/2 35/35/2
f 36/36/1 37/37/1 38/38/1
f 39/39/1 40/40/1 41/41/1
f 40/40/1 39/39/1 42/42/6
f 43/43/1 39/39/1 44/44/1
f 40/40/1 45/45/6 46/46/6
f 45/45/6 40/40/1 42/42/6
f 47/47/1 48/48/1 49/49/1
f 48/48/1 47/47/1 50/50/1