# Blender v3.0.1 OBJ File: 'anno.blend'
# www.blender.org
mtllib 04.mtl
o instance_0.005_ID62
v -0.291521 -0.574000 -0.335791
v -0.325981 -0.621961 -0.335791
v -0.291521 -0.621961 -0.335791
v -0.325981 -0.574000 -0.335791
v -0.325981 -0.574000 -0.335791
v -0.291521 -0.574000 -0.335791
v -0.325981 -0.621961 -0.335791
v -0.291521 -0.621961 -0.335791
v -0.325981 -0.621961 -0.335791
v -0.325981 -0.574000 -0.335791
v -0.291521 -0.621961 -0.335791
v -0.291521 -0.574000 -0.335791
v -0.325981 -0.621961 -0.335791
v -0.352959 -0.574000 0.359648
v -0.352959 -0.621961 0.359648
v -0.325981 -0.574000 -0.335791
v -0.325981 -0.574000 -0.335791
v -0.325981 -0.621961 -0.335791
v -0.352959 -0.574000 0.359648
v -0.352959 -0.621961 0.359648
v -0.352959 -0.574000 0.359648
v -0.352959 -0.621961 0.359648
v -0.318500 -0.621961 0.359648
v -0.325981 -0.621961 -0.335791
v -0.352959 -0.621961 0.359648
v -0.291521 -0.621961 -0.335791
v -0.291521 -0.621961 -0.335791
v -0.318500 -0.621961 0.359648
v -0.325981 -0.621961 -0.335791
v -0.352959 -0.621961 0.359648
v -0.318500 -0.621961 0.359648
v -0.318500 -0.574000 0.359648
v -0.305494 -0.576997 0.024400
v -0.318500 -0.621961 0.359648
v -0.291521 -0.574000 -0.335791
v -0.304527 -0.576997 -0.000543
v -0.304527 -0.618963 -0.000543
v -0.305494 -0.618963 0.024400
v -0.291521 -0.621961 -0.335791
v -0.291521 -0.574000 -0.335791
v -0.304527 -0.618963 -0.000543
v -0.291521 -0.621961 -0.335791
v -0.305494 -0.618963 0.024400
v -0.305494 -0.576997 0.024400
v -0.318500 -0.621961 0.359648
v -0.304527 -0.576997 -0.000543
v -0.318500 -0.574000 0.359648
v -0.318500 -0.574000 0.359648
v -0.305494 -0.618963 0.024400
v -0.305494 -0.576997 0.024400
v -0.304527 -0.618963 -0.000543
v -0.304527 -0.576997 -0.000543
v -0.325981 -0.574000 -0.335791
v -0.318500 -0.574000 0.359648
v -0.352959 -0.574000 0.359648
v -0.291521 -0.574000 -0.335791
v -0.291521 -0.574000 -0.335791
v -0.325981 -0.574000 -0.335791
v -0.318500 -0.574000 0.359648
v -0.352959 -0.574000 0.359648
v -0.352959 -0.574000 0.359648
v -0.318500 -0.621961 0.359648
v -0.352959 -0.621961 0.359648
v -0.318500 -0.574000 0.359648
v -0.318500 -0.574000 0.359648
v -0.352959 -0.574000 0.359648
v -0.318500 -0.621961 0.359648
v -0.352959 -0.621961 0.359648
v -0.325274 -0.023264 -0.335791
v -0.352712 -0.093809 0.359648
v -0.352712 -0.023264 0.359648
v -0.325274 -0.093809 -0.335791
v -0.325274 -0.093809 -0.335791
v -0.325274 -0.023264 -0.335791
v -0.352712 -0.093809 0.359648
v -0.352712 -0.023264 0.359648
v -0.359710 -0.839323 0.359648
v -0.352959 -0.621961 0.359648
v -0.311749 -0.839323 0.359648
v -0.359710 -0.023264 0.359648
v -0.352959 -0.574000 0.359648
v -0.318500 -0.574000 0.359648
v -0.352712 -0.093809 0.359648
v -0.352712 -0.023264 0.359648
v -0.318500 -0.621961 0.359648
v -0.311749 -0.023264 0.359648
v -0.318746 -0.093809 0.359648
v -0.318746 -0.023264 0.359648
v -0.318746 -0.023264 0.359648
v -0.318746 -0.093809 0.359648
v -0.311749 -0.023264 0.359648
v -0.352712 -0.093809 0.359648
v -0.318500 -0.574000 0.359648
v -0.318500 -0.621961 0.359648
v -0.352959 -0.621961 0.359648
v -0.311749 -0.839323 0.359648
v -0.352712 -0.023264 0.359648
v -0.359710 -0.023264 0.359648
v -0.352959 -0.574000 0.359648
v -0.359710 -0.839323 0.359648
v -0.359710 -0.023264 0.359648
v -0.359710 -0.839323 0.407609
v -0.359710 -0.023264 0.407609
v -0.359710 -0.839323 0.359648
v -0.359710 -0.839323 0.359648
v -0.359710 -0.023264 0.359648
v -0.359710 -0.839323 0.407609
v -0.359710 -0.023264 0.407609
v -0.311749 -0.023264 0.407609
v -0.359710 -0.839323 0.407609
v -0.311749 -0.839323 0.407609
v -0.359710 -0.023264 0.407609
v -0.359710 -0.023264 0.407609
v -0.311749 -0.023264 0.407609
v -0.359710 -0.839323 0.407609
v -0.311749 -0.839323 0.407609
v -0.311749 -0.839323 0.359648
v -0.311749 -0.023264 0.407609
v -0.311749 -0.839323 0.407609
v -0.311749 -0.093809 0.401441
v -0.311749 -0.093809 0.365817
v -0.311749 -0.023264 0.365817
v -0.311749 -0.023264 0.359648
v -0.311749 -0.023264 0.401441
v -0.311749 -0.093809 0.401441
v -0.311749 -0.023264 0.407609
v -0.311749 -0.023264 0.401441
v -0.311749 -0.023264 0.359648
v -0.311749 -0.839323 0.359648
v -0.311749 -0.023264 0.365817
v -0.311749 -0.093809 0.365817
v -0.311749 -0.839323 0.407609
v -0.292228 -0.093809 -0.335791
v -0.318746 -0.023264 0.359648
v -0.318746 -0.093809 0.359648
v -0.292228 -0.023264 -0.335791
v -0.292228 -0.023264 -0.335791
v -0.292228 -0.093809 -0.335791
v -0.318746 -0.023264 0.359648
v -0.318746 -0.093809 0.359648
v -0.284770 0.010226 -0.383752
v -0.284770 -0.023264 -0.383752
v -0.284770 0.010226 -0.383752
v -0.284770 -0.023264 -0.383752
v -0.332732 0.837186 -0.431590
v -0.332732 0.010226 -0.383752
v -0.332732 0.839323 -0.383752
v -0.332732 -0.023264 -0.335791
v -0.332732 0.010226 -0.335791
v -0.332732 -0.839323 -0.335791
v -0.332732 -0.839323 -0.383752
v -0.332732 0.010226 -0.383752
v -0.332732 0.839323 -0.383752
v -0.332732 -0.839323 -0.383752
v -0.332732 -0.839323 -0.335791
v -0.332732 -0.023264 -0.335791
v -0.332732 0.010226 -0.335791
v -0.332732 0.837186 -0.431590
v -0.325274 -0.093809 -0.335791
v -0.318746 -0.093809 0.359648
v -0.352712 -0.093809 0.359648
v -0.292228 -0.093809 -0.335791
v -0.292228 -0.093809 -0.335791
v -0.325274 -0.093809 -0.335791
v -0.318746 -0.093809 0.359648
v -0.352712 -0.093809 0.359648
v -0.311749 -0.839323 0.359648
v -0.359710 -0.839323 0.407609
v -0.359710 -0.839323 0.359648
v -0.311749 -0.839323 0.407609
v -0.311749 -0.839323 0.407609
v -0.311749 -0.839323 0.359648
v -0.359710 -0.839323 0.407609
v -0.359710 -0.839323 0.359648
v -0.311749 -0.023264 0.365817
v -0.311749 -0.093809 0.401441
v -0.311749 -0.023264 0.401441
v -0.311749 -0.093809 0.365817
v -0.311749 -0.093809 0.365817
v -0.311749 -0.023264 0.365817
v -0.311749 -0.093809 0.401441
v -0.311749 -0.023264 0.401441
v -0.332732 0.010226 -0.383752
v -0.284770 -0.839323 -0.383752
v -0.332732 -0.839323 -0.383752
v -0.332732 0.010226 -0.383752
v -0.284770 -0.839323 -0.383752
v -0.332732 -0.839323 -0.383752
v -0.284770 0.010226 -0.383752
v -0.284770 0.317471 -0.359570
v -0.284770 0.010226 -0.335791
v -0.284770 0.315398 -0.395401
v -0.284770 0.837186 -0.431590
v -0.284770 0.383752 -0.399355
v -0.284770 0.520460 -0.407263
v -0.284770 0.589920 -0.411281
v -0.284770 0.731054 -0.419445
v -0.284770 0.801621 -0.423528
v -0.284770 0.839323 -0.383752
v -0.284770 0.385825 -0.363524
v -0.284770 0.522532 -0.371432
v -0.284770 0.591993 -0.375450
v -0.284770 0.733127 -0.383614
v -0.284770 0.803694 -0.387696
v -0.284770 0.520460 -0.407263
v -0.284770 0.383752 -0.399355
v -0.284770 0.522532 -0.371432
v -0.284770 0.385825 -0.363524
v -0.284770 0.731054 -0.419445
v -0.284770 0.589920 -0.411281
v -0.284770 0.733127 -0.383614
v -0.284770 0.591993 -0.375450
v -0.284770 0.801621 -0.423528
v -0.284770 0.803694 -0.387696
v -0.284770 0.837186 -0.431590
v -0.284770 0.839323 -0.383752
v -0.284770 0.317471 -0.359570
v -0.284770 0.010226 -0.335791
v -0.284770 0.315398 -0.395401
v -0.284770 0.010226 -0.383752
v -0.284770 0.839323 -0.383752
v -0.332732 0.010226 -0.335791
v -0.284770 0.010226 -0.335791
v -0.332732 0.839323 -0.383752
v -0.332732 0.839323 -0.383752
v -0.284770 0.839323 -0.383752
v -0.332732 0.010226 -0.335791
v -0.284770 0.010226 -0.335791
v -0.284770 0.839323 -0.383752
v -0.332732 0.837186 -0.431590
v -0.332732 0.839323 -0.383752
v -0.284770 0.837186 -0.431590
v -0.284770 0.837186 -0.431590
v -0.284770 0.839323 -0.383752
v -0.332732 0.837186 -0.431590
v -0.332732 0.839323 -0.383752
v -0.332732 0.837186 -0.431590
v -0.284770 0.010226 -0.383752
v -0.332732 0.010226 -0.383752
v -0.284770 0.837186 -0.431590
v -0.284770 0.837186 -0.431590
v -0.332732 0.837186 -0.431590
v -0.284770 0.010226 -0.383752
v -0.332732 0.010226 -0.383752
v -0.284770 -0.839323 -0.335791
v -0.291521 -0.621961 -0.335791
v -0.332732 -0.839323 -0.335791
v -0.284770 -0.023264 -0.335791
v -0.291521 -0.574000 -0.335791
v -0.325981 -0.574000 -0.335791
v -0.292228 -0.093809 -0.335791
v -0.292228 -0.023264 -0.335791
v -0.325981 -0.621961 -0.335791
v -0.332732 -0.023264 -0.335791
v -0.325274 -0.093809 -0.335791
v -0.325274 -0.023264 -0.335791
v -0.325274 -0.023264 -0.335791
v -0.325274 -0.093809 -0.335791
v -0.332732 -0.023264 -0.335791
v -0.292228 -0.093809 -0.335791
v -0.325981 -0.574000 -0.335791
v -0.325981 -0.621961 -0.335791
v -0.291521 -0.621961 -0.335791
v -0.332732 -0.839323 -0.335791
v -0.292228 -0.023264 -0.335791
v -0.284770 -0.023264 -0.335791
v -0.291521 -0.574000 -0.335791
v -0.284770 -0.839323 -0.335791
v -0.291521 -0.574000 -0.335791
v -0.291521 -0.621961 -0.335791
v -0.325981 -0.621961 -0.335791
v -0.325981 -0.574000 -0.335791
v -0.284770 -0.839323 -0.383752
v -0.284770 -0.023264 -0.335791
v -0.284770 -0.839323 -0.335791
v -0.284770 -0.093809 -0.342883
v -0.284770 -0.093809 -0.376661
v -0.284770 -0.023264 -0.376661
v -0.284770 -0.023264 -0.383752
v -0.284770 -0.023264 -0.342883
v -0.284770 -0.093809 -0.342883
v -0.284770 -0.023264 -0.335791
v -0.284770 -0.023264 -0.342883
v -0.284770 -0.023264 -0.383752
v -0.284770 -0.839323 -0.383752
v -0.284770 -0.023264 -0.376661
v -0.284770 -0.093809 -0.376661
v -0.284770 -0.839323 -0.335791
v -0.284770 -0.839323 -0.383752
v -0.332732 -0.839323 -0.335791
v -0.332732 -0.839323 -0.383752
v -0.284770 -0.839323 -0.335791
v -0.284770 -0.839323 -0.335791
v -0.284770 -0.839323 -0.383752
v -0.332732 -0.839323 -0.335791
v -0.332732 -0.839323 -0.383752
vt 0.097624 0.281027
vt 0.061126 0.230227
vt 0.097624 0.230227
vt 0.061126 0.281027
vt 0.061126 0.281027
vt 0.097624 0.281027
vt 0.061126 0.230227
vt 0.097624 0.230227
vt 0.814559 0.230227
vt 0.077405 0.281027
vt 0.077405 0.230227
vt 0.814559 0.281027
vt 0.814559 0.281027
vt 0.814559 0.230227
vt 0.077405 0.281027
vt 0.077405 0.230227
vt 0.069049 0.076200
vt 0.061126 0.812800
vt 0.032551 0.076200
vt 0.097624 0.812800
vt 0.097624 0.812800
vt 0.069049 0.076200
vt 0.061126 0.812800
vt 0.032551 0.076200
vt -0.078819 0.281027
vt -0.434177 0.277852
vt -0.078819 0.230227
vt -0.815973 0.281027
vt -0.460616 0.277852
vt -0.460616 0.233402
vt -0.434177 0.233402
vt -0.815973 0.230227
vt -0.815973 0.281027
vt -0.460616 0.233402
vt -0.815973 0.230227
vt -0.434177 0.233402
vt -0.434177 0.277852
vt -0.078819 0.230227
vt -0.460616 0.277852
vt -0.078819 0.281027
vt -0.061126 0.812800
vt -0.069049 0.076200
vt -0.032551 0.076200
vt -0.097624 0.812800
vt -0.097624 0.812800
vt -0.061126 0.812800
vt -0.069049 0.076200
vt -0.032551 0.076200
vt -0.032551 0.281027
vt -0.069049 0.230227
vt -0.032551 0.230227
vt -0.069049 0.281027
vt -0.069049 0.281027
vt -0.032551 0.281027
vt -0.069049 0.230227
vt -0.032551 0.230227
vt 0.000000 0.000000
vt 0.000000 0.000000
vt 0.000000 0.000000
vt 0.000000 0.000000
vt 0.000000 0.000000
vt 0.000000 0.000000
vt 0.000000 0.000000
vt 0.000000 0.000000
vt 0.000000 0.000000
vt 0.000000 0.000000
vt 0.000000 0.000000
vt 0.000000 0.000000
vt 0.000000 0.000000
vt 0.000000 0.000000
vt 0.000000 0.000000
vt 0.000000 0.000000
vt 0.000000 0.000000
vt 0.000000 0.000000
vt 0.000000 0.000000
vt 0.000000 0.000000
vt 0.000000 0.000000
vt 0.000000 0.000000
vt 0.000000 0.000000
vt 0.000000 0.000000
vt 0.000000 0.000000
vt 0.000000 0.000000
vt 0.000000 0.000000
vt 0.000000 0.000000
vt 0.000000 0.000000
vt 0.000000 0.000000
vt 0.000000 0.000000
vt 0.000000 0.000000
vt 0.000000 0.000000
vt 0.000000 0.000000
vt 0.000000 0.000000
vt 0.000000 0.000000
vt 0.000000 0.000000
vt 0.000000 0.000000
vt 0.000000 0.000000
vt 0.000000 0.000000
vt 0.000000 0.000000
vt 0.000000 0.000000
vt 0.000000 0.000000
vt 0.000000 0.000000
vt 0.000000 0.000000
vt 0.000000 0.000000
vt 0.000000 0.000000
vt 0.000000 0.000000
vt 0.000000 0.000000
vt 0.000000 0.000000
vt 0.000000 0.000000
vt 0.000000 0.000000
vt 0.000000 0.000000
vt 0.000000 0.000000
vt 0.000000 0.000000
vt 0.000000 0.000000
vt 0.000000 0.000000
vt 0.000000 0.000000
vt 0.000000 0.000000
vt 0.000000 0.000000
vt 0.000000 0.000000
vt 0.000000 0.000000
vt 0.000000 0.000000
vt 0.000000 0.000000
vt 0.000000 0.000000
vt 0.000000 0.000000
vt 0.000000 0.000000
vt 0.000000 0.000000
vt 0.000000 0.000000
vt 0.000000 0.000000
vt 0.000000 0.000000
vt 0.000000 0.000000
vt 0.000000 0.000000
vt 0.000000 0.000000
vt 0.000000 0.000000
vt 0.000000 0.000000
vt 0.000000 0.000000
vt 0.000000 0.000000
vt 0.000000 0.000000
vt 0.000000 0.000000
vt 0.000000 0.000000
vt 0.000000 0.000000
vt 0.000000 0.000000
vt 0.000000 0.000000
vt 0.000000 0.000000
vt 0.000000 0.000000
vt 0.000000 0.000000
vt 0.000000 0.000000
vt 0.000000 0.000000
vt 0.000000 0.000000
vt 0.000000 0.000000
vt 0.000000 0.000000
vt 0.000000 0.000000
vt 0.000000 0.000000
vt 0.000000 0.000000
vt 0.000000 0.000000
vt 0.000000 0.000000
vt 0.000000 0.000000
vt 0.000000 0.000000
vt 0.000000 0.000000
vt 0.000000 0.000000
vt 0.000000 0.000000
vt 0.000000 0.000000
vt 0.000000 0.000000
vt 0.000000 0.000000
vt 0.000000 0.000000
vt 0.000000 0.000000
vt 0.000000 0.000000
vt 0.000000 0.000000
vt 0.000000 0.000000
vt 0.000000 0.000000
vt 0.000000 0.000000
vt 0.000000 0.000000
vt 0.000000 0.000000
vt 0.000000 0.000000
vt 0.000000 0.000000
vt 0.000000 0.000000
vt 0.000000 0.000000
vt 0.000000 0.000000
vt 0.000000 0.000000
vt 0.000000 0.000000
vt 0.000000 0.000000
vt 0.000000 0.000000
vt 0.000000 0.000000
vt 0.000000 0.000000
vt 0.000000 0.000000
vt 0.000000 0.000000
vt 0.000000 0.000000
vt 0.000000 0.000000
vt 0.000000 0.000000
vt 0.000000 0.000000
vt 0.000000 0.000000
vt 0.000000 0.000000
vt 0.000000 0.000000
vt 0.000000 0.000000
vt 0.000000 0.000000
vt 0.000000 0.000000
vt 0.000000 0.000000
vt 0.000000 0.000000
vt 0.000000 0.000000
vt 0.000000 0.000000
vt 0.000000 0.000000
vt 0.000000 0.000000
vt 0.000000 0.000000
vt 0.000000 0.000000
vt 0.000000 0.000000
vt 0.000000 0.000000
vt 0.000000 0.000000
vt 0.000000 0.000000
vt 0.000000 0.000000
vt 0.000000 0.000000
vt 0.000000 0.000000
vt 0.000000 0.000000
vt 0.000000 0.000000
vt 0.000000 0.000000
vt 0.000000 0.000000
vt 0.000000 0.000000
vt 0.000000 0.000000
vt 0.000000 0.000000
vt 0.000000 0.000000
vt 0.000000 0.000000
vt 0.000000 0.000000
vt 0.000000 0.000000
vt 0.000000 0.000000
vt 0.000000 0.000000
vt 0.000000 0.000000
vt 0.000000 0.000000
vt 0.000000 0.000000
vt 0.000000 0.000000
vt 0.000000 0.000000
vt 0.000000 0.000000
vt 0.000000 0.000000
vt 0.000000 0.000000
vt 0.000000 0.000000
vt 0.000000 0.000000
vt 0.000000 0.000000
vt 0.000000 0.000000
vt 0.000000 0.000000
vt 0.000000 0.000000
vt 0.000000 0.000000
vt 0.000000 0.000000
vt 0.000000 0.000000
vt 0.000000 0.000000
vt 0.000000 0.000000
vt 0.000000 0.000000
vt 0.000000 0.000000
vt 0.000000 0.000000
vt 0.000000 0.000000
vt 0.000000 0.000000
vt 0.000000 0.000000
vt 0.000000 0.000000
vt 0.000000 0.000000
vt 0.000000 0.000000
vt 0.000000 0.000000
vt 0.000000 0.000000
vt 0.000000 0.000000
vt 0.000000 0.000000
vt 0.000000 0.000000
vt 0.000000 0.000000
vt 0.000000 0.000000
vt 0.000000 0.000000
vt 0.000000 0.000000
vt 0.000000 0.000000
vt 0.000000 0.000000
vt 0.000000 0.000000
vt 0.000000 0.000000
vt 0.000000 0.000000
vt 0.000000 0.000000
vt 0.000000 0.000000
vt 0.000000 0.000000
vt 0.000000 0.000000
vt 0.000000 0.000000
vt 0.000000 0.000000
vt 0.000000 0.000000
vt 0.000000 0.000000
vt 0.000000 0.000000
vt 0.000000 0.000000
vt 0.000000 0.000000
vt 0.000000 0.000000
vt 0.000000 0.000000
vt 0.000000 0.000000
vt 0.000000 0.000000
vt 0.000000 0.000000
vt 0.000000 0.000000
vn 0.0000 0.0000 1.0000
vn 0.0000 0.0000 -1.0000
vn 0.9992 0.0000 0.0388
vn -0.9992 0.0000 -0.0388
vn 0.0000 1.0000 0.0000
vn 0.0000 -1.0000 0.0000
vn -0.9992 0.0000 -0.0394
vn 0.9992 0.0000 0.0394
vn -1.0000 0.0000 0.0000
vn 1.0000 0.0000 0.0000
vn 0.9993 0.0000 0.0381
vn -0.9993 0.0000 -0.0381
vn 0.0000 0.0578 0.9983
vn 0.0000 -0.0578 -0.9983
vn 0.0000 0.9990 -0.0446
vn 0.0000 -0.9990 0.0446
usemtl wood-maple
s off
f 1/1/1 2/2/1 3/3/1
f 2/2/1 1/1/1 4/4/1
f 5/5/2 6/6/2 7/7/2
f 8/8/2 7/7/2 6/6/2
f 13/9/3 14/10/3 15/11/3
f 14/10/3 13/9/3 16/12/3
f 17/13/4 18/14/4 19/15/4
f 20/16/4 19/15/4 18/14/4
f 23/17/5 24/18/5 25/19/5
f 24/18/5 23/17/5 26/20/5
f 27/21/6 28/22/6 29/23/6
f 30/24/6 29/23/6 28/22/6
f 32/25/4 33/26/4 34/27/4
f 33/26/4 32/25/4 35/28/4
f 33/26/4 35/28/4 36/29/4
f 36/29/4 35/28/4 37/30/4
f 34/27/4 38/31/4 39/32/4
f 38/31/4 34/27/4 33/26/4
f 39/32/4 38/31/4 37/30/4
f 39/32/4 37/30/4 35/28/4
f 40/33/3 41/34/3 42/35/3
f 41/34/3 43/36/3 42/35/3
f 44/37/3 45/38/3 43/36/3
f 42/35/3 43/36/3 45/38/3
f 41/34/3 40/33/3 46/39/3
f 46/39/3 40/33/3 44/37/3
f 40/33/3 47/40/3 44/37/3
f 45/38/3 44/37/3 47/40/3
f 53/41/6 54/42/6 55/43/6
f 54/42/6 53/41/6 56/44/6
f 57/45/5 58/46/5 59/47/5
f 60/48/5 59/47/5 58/46/5
f 61/49/2 62/50/2 63/51/2
f 62/50/2 61/49/2 64/52/2
f 65/53/1 66/54/1 67/55/1
f 68/56/1 67/55/1 66/54/1
usemtl (null)
f 69/57/7 70/58/7 71/59/7
f 70/58/7 69/57/7 72/60/7
f 73/61/8 74/62/8 75/63/8
f 76/64/8 75/63/8 74/62/8
f 77/65/2 78/66/2 79/67/2
f 78/66/2 77/65/2 80/68/2
f 78/66/2 80/68/2 81/69/2
f 81/69/2 80/68/2 82/70/2
f 82/70/2 80/68/2 83/71/2
f 83/71/2 80/68/2 84/72/2
f 79/67/2 85/73/2 86/74/2
f 85/73/2 79/67/2 78/66/2
f 86/74/2 85/73/2 82/70/2
f 86/74/2 82/70/2 87/75/2
f 87/75/2 82/70/2 83/71/2
f 86/74/2 87/75/2 88/76/2
f 89/77/1 90/78/1 91/79/1
f 92/80/1 93/81/1 90/78/1
f 90/78/1 93/81/1 91/79/1
f 93/81/1 94/82/1 91/79/1
f 95/83/1 96/84/1 94/82/1
f 91/79/1 94/82/1 96/84/1
f 97/85/1 98/86/1 92/80/1
f 92/80/1 98/86/1 93/81/1
f 93/81/1 98/86/1 99/87/1
f 99/87/1 98/86/1 95/83/1
f 98/86/1 100/88/1 95/83/1
f 96/84/1 95/83/1 100/88/1
f 101/89/9 102/90/9 103/91/9
f 102/90/9 101/89/9 104/92/9
f 105/93/10 106/94/10 107/95/10
f 108/96/10 107/95/10 106/94/10
f 109/97/1 110/98/1 111/99/1
f 110/98/1 109/97/1 112/100/1
f 113/101/2 114/102/2 115/103/2
f 116/104/2 115/103/2 114/102/2
f 117/105/10 118/106/10 119/107/10
f 118/106/10 117/105/10 120/108/10
f 120/108/10 117/105/10 121/109/10
f 121/109/10 117/105/10 122/110/10
f 122/110/10 117/105/10 123/111/10
f 124/112/10 118/106/10 120/108/10
f 125/113/9 126/114/9 127/115/9
f 128/116/9 129/117/9 130/118/9
f 130/118/9 129/117/9 131/119/9
f 131/119/9 129/117/9 125/113/9
f 125/113/9 129/117/9 126/114/9
f 132/120/9 126/114/9 129/117/9
f 133/121/11 134/122/11 135/123/11
f 134/122/11 133/121/11 136/124/11
f 137/125/12 138/126/12 139/127/12
f 140/128/12 139/127/12 138/126/12
f 145/129/9 146/130/9 147/131/9
f 147/131/9 148/132/9 149/133/9
f 148/132/9 147/131/9 150/134/9
f 150/134/9 147/131/9 151/135/9
f 151/135/10 147/131/10 146/130/10
f 152/136/9 153/137/9 154/138/9
f 154/138/10 153/137/10 155/139/10
f 155/139/10 153/137/10 156/140/10
f 157/141/10 156/140/10 153/137/10
f 153/137/10 152/136/10 158/142/10
f 159/143/6 160/144/6 161/145/6
f 160/144/6 159/143/6 162/146/6
f 163/147/5 164/148/5 165/149/5
f 166/150/5 165/149/5 164/148/5
f 84/72/2 87/75/2 83/71/2
f 87/75/2 84/72/2 88/76/2
f 89/77/1 97/85/1 90/78/1
f 92/80/1 90/78/1 97/85/1
f 167/151/6 168/152/6 169/153/6
f 168/152/6 167/151/6 170/154/6
f 171/155/5 172/156/5 173/157/5
f 174/158/5 173/157/5 172/156/5
f 175/159/9 176/160/9 177/161/9
f 176/160/9 175/159/9 178/162/9
f 179/163/10 180/164/10 181/165/10
f 182/166/10 181/165/10 180/164/10
f 183/167/2 184/168/2 185/169/2
f 184/168/2 183/167/2 142/170/2
f 142/170/2 183/167/2 141/171/2
f 143/172/1 186/173/1 144/174/1
f 144/174/1 186/173/1 187/175/1
f 188/176/1 187/175/1 186/173/1
f 189/177/10 190/178/10 191/179/10
f 190/178/10 189/177/10 192/180/10
f 192/180/10 189/177/10 193/181/10
f 192/180/10 193/181/10 194/182/10
f 194/182/10 193/181/10 195/183/10
f 195/183/10 193/181/10 196/184/10
f 196/184/10 193/181/10 197/185/10
f 197/185/10 193/181/10 198/186/10
f 190/178/10 199/187/10 191/179/10
f 199/187/10 190/178/10 200/188/10
f 199/187/10 200/188/10 201/189/10
f 199/187/10 201/189/10 202/190/10
f 199/187/10 202/190/10 203/191/10
f 199/187/10 203/191/10 204/192/10
f 199/187/10 204/192/10 193/181/10
f 193/181/10 204/192/10 198/186/10
f 196/184/10 203/191/10 202/190/10
f 203/191/10 196/184/10 197/185/10
f 194/182/10 201/189/10 200/188/10
f 201/189/10 194/182/10 195/183/10
f 205/193/9 206/194/9 207/195/9
f 208/196/9 207/195/9 206/194/9
f 209/197/9 210/198/9 211/199/9
f 212/200/9 211/199/9 210/198/9
f 213/201/9 214/202/9 215/203/9
f 215/203/9 214/202/9 216/204/9
f 214/202/9 211/199/9 216/204/9
f 211/199/9 212/200/9 216/204/9
f 212/200/9 207/195/9 216/204/9
f 207/195/9 208/196/9 216/204/9
f 208/196/9 217/205/9 216/204/9
f 218/206/9 216/204/9 217/205/9
f 213/201/9 215/203/9 209/197/9
f 209/197/9 215/203/9 210/198/9
f 210/198/9 215/203/9 205/193/9
f 205/193/9 215/203/9 206/194/9
f 206/194/9 215/203/9 219/207/9
f 215/203/9 220/208/9 219/207/9
f 219/207/9 220/208/9 217/205/9
f 218/206/9 217/205/9 220/208/9
f 221/209/13 222/210/13 223/211/13
f 222/210/13 221/209/13 224/212/13
f 225/213/14 226/214/14 227/215/14
f 228/216/14 227/215/14 226/214/14
f 229/217/15 230/218/15 231/219/15
f 230/218/15 229/217/15 232/220/15
f 233/221/16 234/222/16 235/223/16
f 236/224/16 235/223/16 234/222/16
f 237/225/14 238/226/14 239/227/14
f 238/226/14 237/225/14 240/228/14
f 241/229/13 242/230/13 243/231/13
f 244/232/13 243/231/13 242/230/13
f 245/233/1 246/234/1 247/235/1
f 246/234/1 245/233/1 248/236/1
f 246/234/1 248/236/1 249/237/1
f 249/237/1 248/236/1 250/238/1
f 250/238/1 248/236/1 251/239/1
f 251/239/1 248/236/1 252/240/1
f 247/235/1 253/241/1 254/242/1
f 253/241/1 247/235/1 246/234/1
f 254/242/1 253/241/1 250/238/1
f 254/242/1 250/238/1 255/243/1
f 255/243/1 250/238/1 251/239/1
f 254/242/1 255/243/1 256/244/1
f 257/245/2 258/246/2 259/247/2
f 260/248/2 261/249/2 258/246/2
f 258/246/2 261/249/2 259/247/2
f 261/249/2 262/250/2 259/247/2
f 263/251/2 264/252/2 262/250/2
f 259/247/2 262/250/2 264/252/2
f 265/253/2 266/254/2 260/248/2
f 260/248/2 266/254/2 261/249/2
f 261/249/2 266/254/2 267/255/2
f 267/255/2 266/254/2 263/251/2
f 266/254/2 268/256/2 263/251/2
f 264/252/2 263/251/2 268/256/2
f 273/257/10 274/258/10 275/259/10
f 274/258/10 273/257/10 276/260/10
f 276/260/10 273/257/10 277/261/10
f 277/261/10 273/257/10 278/262/10
f 278/262/10 273/257/10 279/263/10
f 280/264/10 274/258/10 276/260/10
f 281/265/9 282/266/9 283/267/9
f 284/268/9 285/269/9 286/270/9
f 286/270/9 285/269/9 287/271/9
f 287/271/9 285/269/9 281/265/9
f 281/265/9 285/269/9 282/266/9
f 288/272/9 282/266/9 285/269/9
f 252/240/1 255/243/1 251/239/1
f 255/243/1 252/240/1 256/244/1
f 257/245/2 265/253/2 258/246/2
f 260/248/2 258/246/2 265/253/2
f 289/273/6 290/274/6 291/275/6
f 290/274/6 289/273/6 292/276/6
f 293/277/5 294/278/5 295/279/5
f 296/280/5 295/279/5 294/278/5