# Blender v3.0.1 OBJ File: 'anno.blend'
# www.blender.org
mtllib 06.mtl
o instance_0.013_ID22.008
v 0.311749 -0.023264 0.401441
v -0.311749 -0.093809 0.401441
v 0.311749 -0.093809 0.401441
v -0.311749 -0.023264 0.401441
v -0.311749 -0.023264 0.401441
v 0.311749 -0.023264 0.401441
v -0.311749 -0.093809 0.401441
v 0.311749 -0.093809 0.401441
v -0.311749 -0.023264 0.365817
v 0.311749 -0.093809 0.365817
v -0.311749 -0.093809 0.365817
v 0.311749 -0.023264 0.365817
v 0.311749 -0.023264 0.365817
v -0.311749 -0.023264 0.365817
v 0.311749 -0.093809 0.365817
v -0.311749 -0.093809 0.365817
v 0.311749 -0.093809 0.365817
v -0.311749 -0.093809 0.401441
v -0.311749 -0.093809 0.365817
v 0.311749 -0.093809 0.401441
v 0.311749 -0.093809 0.401441
v 0.311749 -0.093809 0.365817
v -0.311749 -0.093809 0.401441
v -0.311749 -0.093809 0.365817
vt 0.736600 0.864359
vt 0.076200 0.789638
vt 0.736600 0.789638
vt 0.076200 0.864359
vt 0.076200 0.864359
vt 0.736600 0.864359
vt 0.076200 0.789638
vt 0.736600 0.789638
vt -0.076200 0.864359
vt -0.736600 0.789638
vt -0.076200 0.789638
vt -0.736600 0.864359
vt -0.736600 0.864359
vt -0.076200 0.864359
vt -0.736600 0.789638
vt -0.076200 0.789638
vt -0.736600 0.069666
vt -0.076200 0.031934
vt -0.076200 0.069666
vt -0.736600 0.031934
vt -0.736600 0.031934
vt -0.736600 0.069666
vt -0.076200 0.031934
vt -0.076200 0.069666
vn 0.0000 0.0000 1.0000
vn 0.0000 0.0000 -1.0000
vn 0.0000 -1.0000 0.0000
vn 0.0000 1.0000 0.0000
usemtl (null)
s off
f 1/1/1 2/2/1 3/3/1
f 2/2/1 1/1/1 4/4/1
f 5/5/2 6/6/2 7/7/2
f 8/8/2 7/7/2 6/6/2
f 9/9/2 10/10/2 11/11/2
f 10/10/2 9/9/2 12/12/2
f 13/13/1 14/14/1 15/15/1
f 16/16/1 15/15/1 14/14/1
f 17/17/3 18/18/3 19/19/3
f 18/18/3 17/17/3 20/20/3
f 21/21/4 22/22/4 23/23/4
f 24/24/4 23/23/4 22/22/4