# Blender v3.0.1 OBJ File: 'anno.blend'
# www.blender.org
mtllib 07.mtl
o instance_0.004_ID22.012
v 0.284770 -0.023264 -0.383752
v 0.284770 0.010226 -0.383752
v 0.284770 -0.023264 -0.383752
v -0.284770 0.010226 -0.383752
v -0.284770 -0.023264 -0.383752
v -0.284770 0.010226 -0.383752
v -0.284770 -0.023264 -0.383752
v 0.327727 -0.023264 -0.335791
v 0.317155 -0.023264 0.359648
v 0.289775 -0.023264 -0.335791
v 0.354303 -0.023264 0.359648
v 0.354303 -0.023264 0.359648
v 0.327727 -0.023264 -0.335791
v 0.317155 -0.023264 0.359648
v 0.289775 -0.023264 -0.335791
v -0.332732 -0.023264 -0.335791
v -0.359710 -0.023264 0.359648
v -0.383691 -0.023264 0.431590
v -0.352712 -0.023264 0.359648
v -0.325274 -0.023264 -0.335791
v 0.311749 -0.023264 0.401441
v -0.311749 -0.023264 0.407609
v -0.311749 -0.023264 0.401441
v 0.332732 -0.023264 -0.335791
v 0.359710 -0.023264 0.359648
v 0.383691 -0.023264 0.431590
v 0.359710 -0.023264 0.407609
v -0.359710 -0.023264 0.407609
v 0.311749 -0.023264 0.407609
v 0.359710 -0.023264 0.407609
v 0.311749 -0.023264 0.407609
v 0.383691 -0.023264 0.431590
v 0.311749 -0.023264 0.401441
v -0.311749 -0.023264 0.407609
v -0.359710 -0.023264 0.407609
v -0.359710 -0.023264 0.359648
v -0.383691 -0.023264 0.431590
v 0.359710 -0.023264 0.359648
v 0.332732 -0.023264 -0.335791
v -0.311749 -0.023264 0.401441
v -0.325274 -0.023264 -0.335791
v -0.332732 -0.023264 -0.335791
v -0.352712 -0.023264 0.359648
v 0.284770 -0.023264 -0.342883
v -0.284770 -0.023264 -0.335791
v -0.284770 -0.023264 -0.342883
v 0.311749 -0.023264 0.359648
v -0.292228 -0.023264 -0.335791
v -0.311749 -0.023264 0.359648
v -0.318746 -0.023264 0.359648
v -0.311749 -0.023264 0.365817
v 0.311749 -0.023264 0.365817
v 0.284770 -0.023264 -0.335791
v 0.311749 -0.023264 0.359648
v 0.311749 -0.023264 0.365817
v 0.284770 -0.023264 -0.335791
v 0.284770 -0.023264 -0.342883
v -0.284770 -0.023264 -0.335791
v -0.292228 -0.023264 -0.335791
v -0.311749 -0.023264 0.365817
v -0.311749 -0.023264 0.359648
v -0.318746 -0.023264 0.359648
v -0.284770 -0.023264 -0.342883
v 0.383691 0.010226 0.431590
v -0.332732 0.010226 -0.335791
v -0.383691 0.010226 0.431590
v -0.284770 0.010226 -0.335791
v -0.284770 0.010226 -0.383752
v 0.284770 0.010226 -0.335791
v 0.332732 0.010226 -0.335791
v 0.284770 0.010226 -0.383752
v 0.284770 0.010226 -0.335791
v -0.284770 0.010226 -0.383752
v 0.284770 0.010226 -0.383752
v 0.332732 0.010226 -0.335791
v 0.383691 0.010226 0.431590
v -0.284770 0.010226 -0.335791
v -0.332732 0.010226 -0.335791
v -0.383691 0.010226 0.431590
v 0.284770 0.010226 -0.383752
v 0.284770 -0.023264 -0.383752
v 0.284770 -0.023264 -0.376661
v 0.284770 -0.023264 -0.383752
v -0.284770 -0.023264 -0.376661
v -0.284770 0.010226 -0.383752
v 0.383691 0.010226 0.431590
v -0.383691 -0.023264 0.431590
v 0.383691 -0.023264 0.431590
v -0.383691 0.010226 0.431590
v -0.383691 0.010226 0.431590
v 0.383691 0.010226 0.431590
v -0.383691 -0.023264 0.431590
v 0.383691 -0.023264 0.431590
v 0.332732 -0.023264 -0.335791
v 0.383691 0.010226 0.431590
v 0.383691 -0.023264 0.431590
v 0.332732 0.010226 -0.335791
v 0.332732 0.010226 -0.335791
v 0.332732 -0.023264 -0.335791
v 0.383691 0.010226 0.431590
v 0.383691 -0.023264 0.431590
v -0.332732 0.010226 -0.335791
v -0.383691 -0.023264 0.431590
v -0.383691 0.010226 0.431590
v -0.332732 -0.023264 -0.335791
v -0.332732 -0.023264 -0.335791
v -0.332732 0.010226 -0.335791
v -0.383691 -0.023264 0.431590
v -0.383691 0.010226 0.431590
vt -0.104775 0.899831
vt -0.708025 0.864359
vt -0.104775 0.864359
vt -0.708025 0.899831
vt -0.104775 0.864359
vt -0.708025 0.864359
vt -0.104775 0.899831
vt -0.753524 0.812800
vt -0.742327 0.076200
vt -0.713326 0.812800
vt -0.781673 0.076200
vt -0.781673 0.076200
vt -0.753524 0.812800
vt -0.742327 0.076200
vt -0.713326 0.812800
vt -0.053975 0.812800
vt -0.025400 0.076200
vt 0.000000 0.000000
vt -0.032812 0.076200
vt -0.061874 0.812800
vt -0.736600 0.031934
vt -0.076200 0.025400
vt -0.076200 0.031934
vt -0.758825 0.812800
vt -0.787400 0.076200
vt -0.812800 0.000000
vt -0.787400 0.025400
vt -0.025400 0.025400
vt -0.736600 0.025400
vt -0.787400 0.025400
vt -0.736600 0.025400
vt -0.812800 0.000000
vt -0.736600 0.031934
vt -0.076200 0.025400
vt -0.025400 0.025400
vt -0.025400 0.076200
vt 0.000000 0.000000
vt -0.787400 0.076200
vt -0.758825 0.812800
vt -0.076200 0.031934
vt -0.061874 0.812800
vt -0.053975 0.812800
vt -0.032812 0.076200
vt -0.708025 0.820311
vt -0.104775 0.812800
vt -0.104775 0.820311
vt -0.736600 0.076200
vt -0.096876 0.812800
vt -0.076200 0.076200
vt -0.068788 0.076200
vt -0.076200 0.069666
vt -0.736600 0.069666
vt -0.708025 0.812800
vt -0.736600 0.076200
vt -0.736600 0.069666
vt -0.708025 0.812800
vt -0.708025 0.820311
vt -0.104775 0.812800
vt -0.096876 0.812800
vt -0.076200 0.069666
vt -0.076200 0.076200
vt -0.068788 0.076200
vt -0.104775 0.820311
vt 0.812800 0.000000
vt 0.053975 0.812800
vt 0.000000 0.000000
vt 0.104775 0.812800
vt 0.104775 0.863600
vt 0.708025 0.812800
vt 0.758825 0.812800
vt 0.708025 0.863600
vt 0.708025 0.812800
vt 0.104775 0.863600
vt 0.708025 0.863600
vt 0.758825 0.812800
vt 0.812800 0.000000
vt 0.104775 0.812800
vt 0.053975 0.812800
vt 0.000000 0.000000
vt -0.708025 0.856089
vt -0.708025 0.863600
vt -0.104775 0.856089
vt -0.708025 0.899831
vt -0.104775 0.899831
vt -0.708025 0.864359
vt 0.812800 0.899831
vt 0.000000 0.864359
vt 0.812800 0.864359
vt 0.000000 0.899831
vt 0.000000 0.899831
vt 0.812800 0.899831
vt 0.000000 0.864359
vt 0.812800 0.864359
vt 0.760734 0.864359
vt -0.053856 0.899831
vt -0.053856 0.864359
vt 0.760734 0.899831
vt 0.760734 0.899831
vt 0.760734 0.864359
vt -0.053856 0.899831
vt -0.053856 0.864359
vt -0.814590 0.899831
vt 0.000000 0.864359
vt 0.000000 0.899831
vt -0.814590 0.864359
vt -0.814590 0.864359
vt -0.814590 0.899831
vt 0.000000 0.864359
vt 0.000000 0.899831
vn 0.0000 0.0000 -1.0000
vn 0.0000 0.0000 1.0000
vn 0.0000 -1.0000 0.0000
vn 0.0000 1.0000 0.0000
vn 0.9978 0.0000 -0.0663
vn -0.9978 0.0000 0.0663
vn -0.9978 0.0000 -0.0663
vn 0.9978 0.0000 0.0663
usemtl (null)
s off
f 4/1/1 1/2/1 5/3/1
f 1/2/1 4/1/1 2/4/1
f 7/5/2 3/6/2 6/7/2
f 8/8/3 9/9/3 10/10/3
f 9/9/3 8/8/3 11/11/3
f 12/12/4 13/13/4 14/14/4
f 15/15/4 14/14/4 13/13/4
f 16/16/3 17/17/3 18/18/3
f 17/17/3 16/16/3 19/19/3
f 19/19/3 16/16/3 20/20/3
f 21/21/3 22/22/3 23/23/3
f 24/24/3 11/11/3 8/8/3
f 11/11/3 24/24/3 25/25/3
f 25/25/3 24/24/3 26/26/3
f 25/25/3 26/26/3 27/27/3
f 18/18/3 28/28/3 26/26/3
f 28/28/3 18/18/3 17/17/3
f 26/26/3 28/28/3 22/22/3
f 26/26/3 22/22/3 29/29/3
f 29/29/3 22/22/3 21/21/3
f 26/26/3 29/29/3 27/27/3
f 30/30/4 31/31/4 32/32/4
f 33/33/4 34/34/4 31/31/4
f 31/31/4 34/34/4 32/32/4
f 34/34/4 35/35/4 32/32/4
f 36/36/4 37/37/4 35/35/4
f 32/32/4 35/35/4 37/37/4
f 30/30/4 32/32/4 38/38/4
f 32/32/4 39/39/4 38/38/4
f 38/38/4 39/39/4 12/12/4
f 13/13/4 12/12/4 39/39/4
f 40/40/4 34/34/4 33/33/4
f 41/41/4 42/42/4 43/43/4
f 43/43/4 42/42/4 36/36/4
f 37/37/4 36/36/4 42/42/4
f 44/44/3 45/45/3 46/46/3
f 9/9/3 47/47/3 10/10/3
f 48/48/3 49/49/3 50/50/3
f 49/49/3 48/48/3 51/51/3
f 51/51/3 48/48/3 52/52/3
f 52/52/3 48/48/3 45/45/3
f 52/52/3 45/45/3 53/53/3
f 53/53/3 45/45/3 44/44/3
f 52/52/3 53/53/3 10/10/3
f 52/52/3 10/10/3 47/47/3
f 54/54/4 15/15/4 55/55/4
f 15/15/4 56/56/4 55/55/4
f 57/57/4 58/58/4 56/56/4
f 56/56/4 58/58/4 55/55/4
f 58/58/4 59/59/4 55/55/4
f 55/55/4 59/59/4 60/60/4
f 60/60/4 59/59/4 61/61/4
f 62/62/4 61/61/4 59/59/4
f 15/15/4 54/54/4 14/14/4
f 63/63/4 58/58/4 57/57/4
f 20/20/3 50/50/3 19/19/3
f 50/50/3 20/20/3 48/48/3
f 59/59/4 41/41/4 62/62/4
f 43/43/4 62/62/4 41/41/4
f 64/64/4 65/65/4 66/66/4
f 65/65/4 64/64/4 67/67/4
f 67/67/4 64/64/4 68/68/4
f 68/68/4 64/64/4 69/69/4
f 69/69/4 64/64/4 70/70/4
f 71/71/4 68/68/4 69/69/4
f 72/72/3 73/73/3 74/74/3
f 75/75/3 76/76/3 72/72/3
f 72/72/3 76/76/3 73/73/3
f 73/73/3 76/76/3 77/77/3
f 77/77/3 76/76/3 78/78/3
f 79/79/3 78/78/3 76/76/3
f 82/80/4 83/81/4 84/82/4
f 80/83/2 85/84/2 81/85/2
f 86/86/2 87/87/2 88/88/2
f 87/87/2 86/86/2 89/89/2
f 90/90/1 91/91/1 92/92/1
f 93/93/1 92/92/1 91/91/1
f 94/94/5 95/95/5 96/96/5
f 95/95/5 94/94/5 97/97/5
f 98/98/6 99/99/6 100/100/6
f 101/101/6 100/100/6 99/99/6
f 102/102/7 103/103/7 104/104/7
f 103/103/7 102/102/7 105/105/7
f 106/106/8 107/107/8 108/108/8
f 109/109/8 108/108/8 107/107/8