# Blender v3.0.1 OBJ File: ''
# www.blender.org
mtllib 02.mtl
o model.006
v 0.335449 0.673767 0.595151
v 0.340453 -0.654714 0.595151
v 0.335449 -0.654714 0.595151
v 0.378732 0.673767 0.551867
v 0.373728 -0.654714 0.551867
v 0.378732 -0.654714 0.551867
v 0.378732 -0.654714 0.556871
v 0.378732 0.673767 0.551867
v 0.378732 0.673767 0.590417
v 0.335449 0.673767 0.595151
v 0.335449 -0.654715 0.590147
v 0.335449 0.673767 0.556602
v 0.378732 0.673767 0.551867
v 0.378732 -0.654715 0.556871
v 0.378732 0.673767 0.590417
v 0.335449 -0.654715 0.590147
v 0.335449 0.673767 0.595151
v 0.335449 0.673767 0.556602
v 0.373998 0.673767 0.595151
v 0.378732 -0.654715 0.595151
v 0.378732 0.673767 0.595151
v 0.340183 0.673767 0.551867
v 0.335449 -0.654715 0.551867
v 0.335449 0.673767 0.551867
v 0.378732 -0.654714 0.595151
v 0.373998 0.673767 0.595151
v 0.378732 0.673767 0.595151
v 0.335449 -0.654714 0.551867
v 0.340183 0.673767 0.551867
v 0.335449 0.673767 0.551867
v 0.335449 -0.654715 0.551867
v 0.378732 -0.654715 0.595151
v 0.378732 -0.654714 0.595151
v 0.335449 -0.654715 0.551867
v 0.340453 -0.654715 0.595151
v 0.335449 0.673767 0.595151
v 0.335449 -0.654715 0.595151
v 0.373728 -0.654715 0.551867
v 0.378732 0.673767 0.551867
v 0.378732 -0.654715 0.551867
v 0.378732 -0.654714 0.551867
v 0.335449 -0.654715 0.595151
v 0.378732 -0.654715 0.551867
v 0.335449 -0.654715 0.595151
v 0.335449 0.673767 0.551867
v 0.378732 0.673767 0.595151
v 0.378732 0.673767 0.595151
v 0.335449 0.673767 0.551867
vt 0.000000 0.000000
vt 0.000000 0.000000
vt 0.000000 0.000000
vt 0.000000 0.000000
vt 0.000000 0.000000
vt 0.000000 0.000000
vt 0.000000 0.000000
vt 0.000000 0.000000
vt 0.000000 0.000000
vt 0.000000 0.000000
vt 0.000000 0.000000
vt 0.000000 0.000000
vt 0.000000 0.000000
vt 0.000000 0.000000
vt 0.000000 0.000000
vt 0.000000 0.000000
vt 0.000000 0.000000
vt 0.000000 0.000000
vt 0.000000 0.000000
vt 0.000000 0.000000
vt 0.000000 0.000000
vt 0.000000 0.000000
vt 0.000000 0.000000
vt 0.000000 0.000000
vt 0.000000 0.000000
vt 0.000000 0.000000
vt 0.000000 0.000000
vt 0.000000 0.000000
vt 0.000000 0.000000
vt 0.000000 0.000000
vt 0.000000 0.000000
vt 0.000000 0.000000
vt 0.000000 0.000000
vt 0.000000 0.000000
vt 0.000000 0.000000
vt 0.000000 0.000000
vt 0.000000 0.000000
vt 0.000000 0.000000
vt 0.000000 0.000000
vt 0.000000 0.000000
vt 0.000000 0.000000
vt 0.000000 0.000000
vt 0.000000 0.000000
vt 0.000000 0.000000
vt 0.000000 0.000000
vt 0.000000 0.000000
vt 0.000000 0.000000
vt 0.000000 0.000000
vn 0.0000 0.0000 -1.0000
vn 0.0000 -0.0000 1.0000
vn 1.0000 0.0000 0.0000
vn -1.0000 0.0000 0.0000
usemtl material_0.037
s 1
f 1/1/1 2/2/1 3/3/1
f 4/4/2 5/5/2 6/6/2
f 7/7/3 8/8/3 9/9/3
f 10/10/3 11/11/3 12/12/3
f 13/13/4 14/14/4 15/15/4
f 16/16/4 17/17/4 18/18/4
f 19/19/2 20/20/2 21/21/2
f 22/22/1 23/23/1 24/24/1
f 25/25/1 26/26/1 27/27/1
f 28/28/2 29/29/2 30/30/2
f 18/18/4 31/31/4 16/16/4
f 32/32/4 15/15/4 14/14/4
f 9/9/3 33/33/3 7/7/3
f 34/34/3 12/12/3 11/11/3
f 35/35/2 36/36/2 37/37/2
f 38/38/1 39/39/1 40/40/1
f 1/1/1 26/26/1 2/2/1
f 4/4/2 29/29/2 5/5/2
f 7/7/3 41/41/3 8/8/3
f 10/10/3 42/42/3 11/11/3
f 13/13/4 43/43/4 14/14/4
f 16/16/4 44/44/4 17/17/4
f 19/19/2 35/35/2 20/20/2
f 22/22/1 38/38/1 23/23/1
f 25/25/1 2/2/1 26/26/1
f 28/28/2 5/5/2 29/29/2
f 18/18/4 45/45/4 31/31/4
f 32/32/4 46/46/4 15/15/4
f 9/9/3 47/47/3 33/33/3
f 34/34/3 48/48/3 12/12/3
f 35/35/2 19/19/2 36/36/2
f 38/38/1 22/22/1 39/39/1