# Blender v3.0.1 OBJ File: ''
# www.blender.org
mtllib 03.mtl
o model.007
v 0.335447 0.708770 -0.551867
v 0.335447 0.708770 0.551867
v -0.335450 0.708770 -0.551867
v -0.335450 0.708770 0.551867
v 0.335447 0.708769 0.551867
v -0.335450 0.708769 -0.551867
v -0.335450 0.708769 0.551867
v 0.335447 0.708769 -0.551867
v 0.335447 0.696866 -0.551867
v -0.335450 0.696866 0.551867
v -0.335450 0.696866 -0.551867
v 0.335447 0.696866 0.551867
v 0.335447 0.696866 0.551867
v 0.335447 0.696866 -0.551867
v -0.335450 0.696866 0.551867
v -0.335450 0.696866 -0.551867
vt 0.000000 0.000000
vt 0.000000 0.000000
vt 0.000000 0.000000
vt 0.000000 0.000000
vt 0.000000 0.000000
vt 0.000000 0.000000
vt 0.000000 0.000000
vt 0.000000 0.000000
vt 0.000000 0.000000
vt 0.000000 0.000000
vt 0.000000 0.000000
vt 0.000000 0.000000
vt 0.000000 0.000000
vt 0.000000 0.000000
vt 0.000000 0.000000
vt 0.000000 0.000000
vn 0.0000 -1.0000 -0.0000
vn 0.0000 1.0000 0.0000
usemtl material_0.038
s 1
f 1/1/1 2/2/1 3/3/1
f 4/4/1 3/3/1 2/2/1
f 5/5/2 6/6/2 7/7/2
f 6/6/2 5/5/2 8/8/2
f 9/9/1 10/10/1 11/11/1
f 10/10/1 9/9/1 12/12/1
f 13/13/2 14/14/2 15/15/2
f 16/16/2 15/15/2 14/14/2