# Blender v3.0.1 OBJ File: ''
# www.blender.org
mtllib 06.mtl
o model.006_model.008
v -0.378733 0.673767 0.378733
v -0.373730 -0.654715 0.378733
v -0.378733 -0.654715 0.378733
v -0.335450 0.673767 0.335449
v -0.340454 -0.654715 0.335449
v -0.335450 -0.654715 0.335449
v -0.340184 0.673767 0.378733
v -0.335450 -0.654715 0.378733
v -0.335450 0.673767 0.378733
v -0.335450 0.673767 0.335449
v -0.335450 -0.654715 0.340453
v -0.335450 0.673767 0.373998
v -0.335450 -0.654715 0.340453
v -0.335450 0.673767 0.335449
v -0.335450 0.673767 0.373998
v -0.378733 0.673767 0.378733
v -0.378733 -0.654716 0.373728
v -0.378733 0.673767 0.340183
v -0.378733 -0.654716 0.373728
v -0.378733 0.673767 0.378733
v -0.378733 0.673767 0.340183
v -0.373999 0.673767 0.335449
v -0.378733 -0.654716 0.335449
v -0.378733 0.673767 0.335449
v -0.335450 -0.654715 0.378733
v -0.340184 0.673767 0.378733
v -0.335450 0.673767 0.378733
v -0.378733 -0.654715 0.335449
v -0.373999 0.673767 0.335449
v -0.378733 0.673767 0.335449
v -0.378733 -0.654716 0.335449
v -0.335450 -0.654715 0.378733
v -0.335450 -0.654715 0.378733
v -0.378733 -0.654716 0.335449
v -0.340454 -0.654716 0.335449
v -0.335450 0.673767 0.335449
v -0.335450 -0.654716 0.335449
v -0.373730 -0.654715 0.378733
v -0.378733 0.673767 0.378733
v -0.378733 -0.654715 0.378733
v -0.335450 -0.654715 0.335449
v -0.335450 -0.654715 0.335449
v -0.378733 -0.654716 0.378733
v -0.378733 -0.654716 0.378733
v -0.378733 0.673767 0.335449
v -0.335450 0.673767 0.378733
v -0.335450 0.673767 0.378733
v -0.378733 0.673767 0.335449
vt 0.000000 0.000000
vt 0.000000 0.000000
vt 0.000000 0.000000
vt 0.000000 0.000000
vt 0.000000 0.000000
vt 0.000000 0.000000
vt 0.000000 0.000000
vt 0.000000 0.000000
vt 0.000000 0.000000
vt 0.000000 0.000000
vt 0.000000 0.000000
vt 0.000000 0.000000
vt 0.000000 0.000000
vt 0.000000 0.000000
vt 0.000000 0.000000
vt 0.000000 0.000000
vt 0.000000 0.000000
vt 0.000000 0.000000
vt 0.000000 0.000000
vt 0.000000 0.000000
vt 0.000000 0.000000
vt 0.000000 0.000000
vt 0.000000 0.000000
vt 0.000000 0.000000
vt 0.000000 0.000000
vt 0.000000 0.000000
vt 0.000000 0.000000
vt 0.000000 0.000000
vt 0.000000 0.000000
vt 0.000000 0.000000
vt 0.000000 0.000000
vt 0.000000 0.000000
vt 0.000000 0.000000
vt 0.000000 0.000000
vt 0.000000 0.000000
vt 0.000000 0.000000
vt 0.000000 0.000000
vt 0.000000 0.000000
vt 0.000000 0.000000
vt 0.000000 0.000000
vt 0.000000 0.000000
vt 0.000000 0.000000
vt 0.000000 0.000000
vt 0.000000 0.000000
vt 0.000000 0.000000
vt 0.000000 0.000000
vt 0.000000 0.000000
vt 0.000000 0.000000
vn 0.0000 0.0000 -1.0000
vn 0.0000 -0.0000 1.0000
vn -1.0000 0.0000 0.0000
vn 1.0000 0.0000 0.0000
usemtl material_0
s 1
f 1/1/1 2/2/1 3/3/1
f 4/4/2 5/5/2 6/6/2
f 7/7/2 8/8/2 9/9/2
f 10/10/3 11/11/3 12/12/3
f 13/13/4 14/14/4 15/15/4
f 16/16/4 17/17/4 18/18/4
f 19/19/3 20/20/3 21/21/3
f 22/22/1 23/23/1 24/24/1
f 25/25/1 26/26/1 27/27/1
f 28/28/2 29/29/2 30/30/2
f 21/21/3 31/31/3 19/19/3
f 32/32/3 12/12/3 11/11/3
f 15/15/4 33/33/4 13/13/4
f 34/34/4 18/18/4 17/17/4
f 35/35/1 36/36/1 37/37/1
f 38/38/2 39/39/2 40/40/2
f 1/1/1 26/26/1 2/2/1
f 4/4/2 29/29/2 5/5/2
f 7/7/2 38/38/2 8/8/2
f 10/10/3 41/41/3 11/11/3
f 13/13/4 42/42/4 14/14/4
f 16/16/4 43/43/4 17/17/4
f 19/19/3 44/44/3 20/20/3
f 22/22/1 35/35/1 23/23/1
f 25/25/1 2/2/1 26/26/1
f 28/28/2 5/5/2 29/29/2
f 21/21/3 45/45/3 31/31/3
f 32/32/3 46/46/3 12/12/3
f 15/15/4 47/47/4 33/33/4
f 34/34/4 48/48/4 18/18/4
f 35/35/1 22/22/1 36/36/1
f 38/38/2 7/7/2 39/39/2