# Blender v3.0.1 OBJ File: ''
# www.blender.org
mtllib 01.mtl
o IKE160018.002
v 0.650076 0.549083 -0.436410
v 0.649998 -0.443286 -0.437589
v 0.649998 0.549083 -0.437589
v -0.649814 -0.443286 -0.436410
v -0.649733 0.549080 -0.437589
v -0.649733 -0.443286 -0.437589
v 0.649764 -0.443286 -0.438614
v 0.649761 0.549083 -0.438614
v 0.649368 -0.443286 -0.439478
v 0.649368 0.549083 -0.439478
v 0.648819 -0.443286 -0.440189
v 0.648817 0.549083 -0.440188
v 0.648109 -0.443286 -0.440738
v 0.648109 0.549083 -0.440738
v 0.647245 -0.443286 -0.441133
v 0.647242 0.549083 -0.441133
v 0.646220 -0.443286 -0.441367
v 0.646220 0.549083 -0.441367
v 0.645041 -0.443286 -0.441448
v 0.645038 0.549083 -0.441448
v -0.649499 0.549080 -0.438614
v -0.649499 -0.443286 -0.438614
v -0.649104 0.549080 -0.439478
v -0.649104 -0.443286 -0.439478
v -0.648554 0.549080 -0.440188
v -0.648554 -0.443286 -0.440189
v -0.647844 0.549080 -0.440738
v -0.647844 -0.443286 -0.440738
v -0.646980 0.549080 -0.441133
v -0.646980 -0.443286 -0.441133
v -0.645955 0.549080 -0.441367
v -0.645955 -0.443286 -0.441367
v -0.644776 0.549080 -0.441448
v -0.644776 -0.443286 -0.441448
v 0.650079 -0.443286 -0.436410
v -0.649814 0.549080 -0.436410
v 0.650038 0.549080 -0.406135
v 0.650038 -0.443286 -0.406135
v -0.649814 -0.443286 -0.406135
v -0.649814 0.549080 -0.406135
vt 0.000000 0.131000
vt 1.000000 0.122000
vt 0.000000 0.122000
vt 1.000000 0.869000
vt 0.000000 0.878000
vt 1.000000 0.878000
vt 1.000000 0.113000
vt 0.000000 0.113000
vt 1.000000 0.105000
vt 0.000000 0.105000
vt 1.000000 0.096000
vt 0.000000 0.096000
vt 1.000000 0.087000
vt 0.000000 0.087000
vt 1.000000 0.078000
vt 0.000000 0.078000
vt 1.000000 0.069000
vt 0.000000 0.069000
vt 1.000000 0.060000
vt 0.000000 0.060000
vt 0.000000 0.887000
vt 1.000000 0.887000
vt 0.000000 0.895000
vt 1.000000 0.895000
vt 0.000000 0.904000
vt 1.000000 0.904000
vt 0.000000 0.913000
vt 1.000000 0.913000
vt 0.000000 0.922000
vt 1.000000 0.922000
vt 0.000000 0.931000
vt 1.000000 0.931000
vt 0.000000 0.940000
vt 1.000000 0.940000
vt 1.000000 0.131000
vt 0.000000 0.869000
vt 0.857000 0.000000
vt 0.143000 1.000000
vt 0.143000 0.000000
vt 0.857000 0.000000
vt 0.143000 1.000000
vt 0.143000 0.000000
vt 0.949000 0.021000
vt 0.000000 0.940000
vt 0.143000 0.000000
vt 0.143000 1.000000
vt 0.080000 0.996000
vt 0.949000 0.979000
vt 0.036000 0.985000
vt 0.009000 0.966000
vt 0.080000 0.004000
vt 0.109000 0.001000
vt 0.036000 0.015000
vt 0.056000 0.008000
vt 0.009000 0.034000
vt 0.020000 0.023000
vt 0.000000 0.060000
vt 0.002000 0.046000
vt 1.000000 0.096000
vt -0.000000 0.904000
vt 0.000000 0.096000
vt 0.857000 0.000000
vt 0.920000 0.004000
vt 0.051000 0.021000
vt 0.964000 0.015000
vt 0.991000 0.034000
vt 1.000000 0.060000
vt 1.000000 0.940000
vt 0.991000 0.966000
vt 0.964000 0.985000
vt 0.920000 0.996000
vt 0.857000 1.000000
vt 0.051000 0.979000
vt 0.857000 1.000000
vt 0.857000 1.000000
vt 0.109000 0.999000
vt 0.056000 0.992000
vt 0.020000 0.977000
vt 0.002000 0.954000
vt 1.000000 0.904000
vt 0.891000 0.001000
vt 0.944000 0.008000
vt 0.980000 0.023000
vt 0.998000 0.046000
vt 0.998000 0.954000
vt 0.980000 0.977000
vt 0.944000 0.992000
vt 0.891000 0.999000
vn 0.9978 0.0000 -0.0666
vn 0.9978 -0.0000 -0.0667
vn -0.9977 0.0000 -0.0672
vn 0.9743 0.0000 -0.2252
vn 0.9102 -0.0000 -0.4141
vn 0.7891 0.0000 -0.6143
vn 0.7891 0.0000 -0.6142
vn 0.6139 0.0000 -0.7894
vn 0.4145 0.0000 -0.9100
vn 0.4141 0.0000 -0.9102
vn 0.2251 0.0000 -0.9743
vn 0.0669 0.0000 -0.9978
vn -0.9743 0.0000 -0.2250
vn -0.9102 -0.0000 -0.4143
vn -0.7891 0.0000 -0.6143
vn -0.7891 0.0000 -0.6142
vn -0.6141 -0.0000 -0.7893
vn -0.4140 0.0000 -0.9103
vn -0.2250 0.0000 -0.9744
vn -0.0670 0.0000 -0.9978
vn 0.9744 0.0000 -0.2250
vn 0.7892 0.0000 -0.6142
vn 0.6141 0.0000 -0.7893
vn 0.4144 0.0000 -0.9101
vn 0.0674 0.0000 -0.9977
vn -0.9743 -0.0000 -0.2251
vn -0.7892 -0.0000 -0.6142
vn -0.6143 -0.0000 -0.7891
vn -0.6142 0.0000 -0.7891
vn -0.4142 0.0000 -0.9102
vn -0.0672 0.0000 -0.9977
vn 1.0000 0.0000 0.0014
vn 1.0000 0.0000 0.0013
vn -1.0000 0.0000 0.0000
vn 0.0000 -1.0000 -0.0000
vn 0.0000 -1.0000 0.0001
vn 0.0000 -1.0000 0.0003
vn 0.0000 -0.0000 1.0000
vn -0.0002 1.0000 -0.0000
vn -0.0002 1.0000 0.0001
vn -0.0000 1.0000 0.0001
vn -0.0001 1.0000 0.0001
vn 0.0000 1.0000 -0.0003
vn -0.0000 1.0000 -0.0000
vn 0.0000 0.0000 -1.0000
vn -0.0000 -1.0000 0.0006
vn -0.0003 1.0000 0.0002
vn -0.0003 1.0000 0.0005
vn -0.0000 1.0000 -0.0006
vn 0.0000 1.0000 0.0006
vn -0.0000 1.0000 0.0003
usemtl 01___Default.005
s off
f 1/1/1 2/2/1 3/3/2
f 4/4/3 5/5/3 6/6/3
f 3/3/4 7/7/4 8/8/4
f 8/8/5 9/9/5 10/10/5
f 10/10/6 11/11/6 12/12/7
f 12/12/8 13/13/8 14/14/8
f 14/14/9 15/15/9 16/16/10
f 16/16/11 17/17/11 18/18/11
f 18/18/12 19/19/12 20/20/12
f 6/6/13 21/21/13 22/22/13
f 22/22/14 23/23/14 24/24/14
f 24/24/15 25/25/15 26/26/16
f 26/26/17 27/27/17 28/28/17
f 28/28/18 29/29/18 30/30/18
f 30/30/19 31/31/19 32/32/19
f 32/32/20 33/33/20 34/34/20
f 1/1/2 35/35/2 2/2/2
f 4/4/3 36/36/3 5/5/3
f 3/3/21 2/2/21 7/7/21
f 8/8/5 7/7/5 9/9/5
f 10/10/22 9/9/22 11/11/22
f 12/12/23 11/11/23 13/13/23
f 14/14/9 13/13/24 15/15/9
f 16/16/11 15/15/11 17/17/11
f 18/18/25 17/17/25 19/19/25
f 6/6/26 5/5/26 21/21/26
f 22/22/14 21/21/14 23/23/14
f 24/24/27 23/23/27 25/25/27
f 26/26/28 25/25/29 27/27/28
f 28/28/30 27/27/30 29/29/30
f 30/30/19 29/29/19 31/31/19
f 32/32/31 31/31/31 33/33/31
s 1
f 35/37/32 37/38/33 38/39/32
f 39/40/34 36/41/34 4/42/34
f 38/43/35 34/44/35 35/45/35
f 4/46/35 22/47/35 39/48/35
f 22/47/35 26/49/35 39/48/35
f 26/49/35 30/50/35 39/48/35
f 30/50/35 34/44/35 39/48/35
f 35/45/35 7/51/35 2/52/35
f 7/51/35 11/53/36 9/54/35
f 11/53/36 15/55/35 13/56/37
f 15/55/35 19/57/35 17/58/37
f 37/59/38 39/60/38 38/61/38
f 1/62/39 8/63/40 37/64/41
f 8/63/40 12/65/42 37/64/41
f 12/65/42 16/66/41 37/64/41
f 16/66/41 20/67/41 37/64/41
f 33/68/43 29/69/44 20/67/41
f 29/69/44 25/70/44 20/67/41
f 25/70/44 21/71/44 20/67/41
f 21/71/44 36/72/44 20/67/41
f 20/67/41 40/73/44 37/64/41
f 20/20/45 34/34/45 33/33/45
f 35/37/32 1/74/33 37/38/33
f 39/40/34 40/75/34 36/41/34
f 38/43/35 39/48/35 34/44/35
f 4/46/35 6/76/35 22/47/35
f 22/47/35 24/77/35 26/49/35
f 26/49/35 28/78/46 30/50/35
f 30/50/35 32/79/35 34/44/35
f 35/45/35 34/44/35 7/51/35
f 7/51/35 34/44/35 11/53/36
f 11/53/36 34/44/35 15/55/35
f 15/55/35 34/44/35 19/57/35
f 37/59/38 40/80/38 39/60/38
f 1/62/39 3/81/47 8/63/40
f 8/63/40 10/82/48 12/65/42
f 12/65/42 14/83/49 16/66/41
f 16/66/41 18/84/50 20/67/41
f 33/68/43 31/85/49 29/69/44
f 29/69/44 27/86/51 25/70/44
f 25/70/44 23/87/41 21/71/44
f 21/71/41 5/88/41 36/72/41
f 20/67/41 36/72/44 40/73/44
f 20/20/45 19/19/45 34/34/45