# Blender v3.0.1 OBJ File: ''
# www.blender.org
mtllib 05.mtl
o IKE160018.006
v -0.649814 -0.438248 0.434236
v 0.650038 -0.408338 0.434236
v -0.649814 -0.408338 0.434236
v -0.649814 -0.408338 -0.406135
v 0.650038 -0.443286 -0.406135
v -0.649814 -0.443286 -0.406135
v -0.649814 -0.443286 0.429198
v 0.650038 -0.443205 0.430380
v -0.649814 -0.443205 0.430380
v 0.650038 -0.442971 0.431402
v -0.649814 -0.442971 0.431402
v 0.650038 -0.442576 0.432269
v -0.649814 -0.442576 0.432269
v 0.650038 -0.442026 0.432977
v -0.649814 -0.442026 0.432977
v 0.650038 -0.441316 0.433528
v -0.649814 -0.441316 0.433528
v 0.650038 -0.440452 0.433921
v -0.649814 -0.440452 0.433921
v 0.650038 -0.439427 0.434158
v -0.649814 -0.439427 0.434158
v 0.650038 -0.438248 0.434236
v 0.650038 -0.408338 -0.406135
v 0.650038 -0.443286 0.429198
vt 0.665000 0.144000
vt 0.335000 1.000000
vt 0.335000 1.000000
vt 0.335000 1.000000
vt 0.665000 0.000000
vt 0.335000 1.000000
vt 0.663000 0.000000
vt 0.657000 0.018000
vt 0.663000 0.002000
vt 0.651000 0.036000
vt 0.664000 0.009000
vt 0.646000 0.054000
vt 0.664000 0.020000
vt 0.640000 0.072000
vt 0.664000 0.036000
vt 0.634000 0.090000
vt 0.664000 0.056000
vt 0.629000 0.108000
vt 0.665000 0.081000
vt 0.623000 0.126000
vt 0.665000 0.110000
vt 0.617000 0.144000
vt 0.665000 0.000000
vt 0.663000 0.000000
vt 0.335000 0.144000
vt 0.335000 0.081000
vt 0.336000 0.036000
vt 0.336000 0.009000
vt 0.337000 0.000000
vt 0.665000 1.000000
vt 0.335000 0.000000
vt 0.663000 1.000000
vt 0.335000 0.000000
vt 0.665000 1.000000
vt 0.335000 0.000000
vt 0.335000 0.110000
vt 0.336000 0.056000
vt 0.336000 0.020000
vt 0.337000 0.002000
vt 0.665000 1.000000
vn 0.0000 0.0000 1.0000
vn 0.0000 0.0000 -1.0000
vn -0.0000 -0.9978 0.0669
vn 0.0000 -0.9744 0.2250
vn 0.0000 -0.9100 0.4146
vn -0.0000 -0.7893 0.6140
vn -0.0000 -0.6142 0.7891
vn 0.0000 -0.4141 0.9102
vn 0.0000 -0.2253 0.9743
vn -0.0000 -0.0667 0.9978
vn -0.0000 -0.9743 0.2251
vn -0.0000 -0.7892 0.6142
vn -0.0000 -0.6144 0.7890
vn 0.0000 -0.4140 0.9103
vn -0.0000 -0.0669 0.9978
vn 1.0000 0.0000 0.0000
vn -1.0000 0.0000 0.0000
vn -1.0000 0.0001 0.0000
vn -1.0000 -0.0001 0.0000
vn 0.0000 -1.0000 -0.0000
vn 0.0000 1.0000 0.0000
vn 1.0000 0.0006 0.0000
vn 1.0000 0.0001 0.0000
vn -1.0000 0.0006 0.0000
vn -1.0000 -0.0003 0.0000
vn -1.0000 0.0003 0.0000
usemtl 01___Default.004
s off
f 1/1/1 2/2/1 3/3/1
f 4/4/2 5/5/2 6/6/2
f 7/7/3 8/8/3 9/9/3
f 9/9/4 10/10/4 11/11/4
f 11/11/5 12/12/5 13/13/5
f 13/13/6 14/14/6 15/15/6
f 15/15/7 16/16/7 17/17/7
f 17/17/8 18/18/8 19/19/8
f 19/19/9 20/20/9 21/21/9
f 21/21/10 22/22/10 1/1/10
f 1/1/1 22/22/1 2/2/1
f 4/4/2 23/23/2 5/5/2
f 7/7/3 24/24/3 8/8/3
f 9/9/11 8/8/11 10/10/11
f 11/11/5 10/10/5 12/12/5
f 13/13/12 12/12/12 14/14/12
f 15/15/13 14/14/13 16/16/13
f 17/17/14 16/16/14 18/18/14
f 19/19/9 18/18/9 20/20/9
f 21/21/15 20/20/15 22/22/15
s 1
f 22/25/16 18/26/16 2/2/16
f 18/26/16 14/27/16 2/2/16
f 14/27/16 10/28/16 2/2/16
f 10/28/16 24/29/16 2/2/16
f 24/29/16 23/30/16 2/2/16
f 7/7/17 11/11/17 6/31/17
f 11/11/17 15/15/18 6/31/17
f 15/15/18 19/19/17 6/31/17
f 19/19/17 1/1/19 6/31/17
f 1/1/17 4/4/17 6/31/17
f 7/32/20 5/33/20 24/24/20
f 4/34/21 2/35/21 23/23/21
f 22/25/16 20/36/16 18/26/16
f 18/26/16 16/37/16 14/27/16
f 14/27/16 12/38/22 10/28/16
f 10/28/23 8/39/22 24/29/23
f 24/29/16 5/5/16 23/30/16
f 7/7/17 9/9/24 11/11/17
f 11/11/17 13/13/25 15/15/18
f 15/15/18 17/17/26 19/19/17
f 19/19/17 21/21/19 1/1/19
f 1/1/17 3/40/17 4/4/17
f 7/32/20 6/6/20 5/33/20
f 4/34/21 3/3/21 2/35/21