# Blender v3.0.1 OBJ File: ''
# www.blender.org
mtllib 06.mtl
o IKE160018.007
v -0.681270 0.549083 -0.357303
v -0.680089 -0.443286 -0.357384
v -0.681270 -0.443286 -0.357306
v -0.680089 -0.443286 0.357520
v -0.681270 0.549080 0.357442
v -0.681270 -0.443286 0.357441
v -0.682293 -0.443286 -0.357069
v -0.682293 0.549083 -0.357069
v -0.683160 -0.443286 -0.356676
v -0.683160 0.549083 -0.356673
v -0.683867 -0.443286 -0.356124
v -0.683867 0.549083 -0.356124
v -0.684419 -0.443286 -0.355416
v -0.684419 0.549083 -0.355414
v -0.684812 -0.443286 -0.354550
v -0.684812 0.549083 -0.354550
v -0.685049 0.549083 -0.353525
v -0.685049 -0.443286 -0.353527
v -0.685127 -0.443286 -0.352346
v -0.685127 0.549083 -0.352346
v -0.682293 0.549080 0.357205
v -0.682293 -0.443286 0.357205
v -0.683160 0.549080 0.356812
v -0.683160 -0.443286 0.356812
v -0.683867 0.549080 0.356260
v -0.683867 -0.443286 0.356260
v -0.684419 0.549080 0.355552
v -0.684419 -0.443286 0.355552
v -0.684812 0.549080 0.354686
v -0.684812 -0.443286 0.354686
v -0.685049 0.549080 0.353663
v -0.685049 -0.443286 0.353663
v -0.685127 0.549080 0.352482
v -0.685127 -0.443286 0.352482
v -0.680089 0.549083 -0.357384
v -0.680089 0.549080 0.357520
v -0.649814 0.549080 -0.357384
v -0.649814 -0.443286 -0.357384
v -0.649814 -0.443286 0.357520
v -0.649814 0.549080 0.357520
vt 1.838000 0.596000
vt 1.836000 0.427000
vt 1.838000 0.427000
vt -0.836000 0.427000
vt -0.838000 0.596000
vt -0.838000 0.427000
vt 1.840000 0.427000
vt 1.840000 0.596000
vt 1.842000 0.427000
vt 1.842000 0.596000
vt 1.843000 0.427000
vt 1.843000 0.596000
vt 0.404000 -0.095000
vt 0.573000 -0.093000
vt 0.404000 -0.093000
vt 0.573000 -0.092000
vt 0.404000 -0.092000
vt 0.404000 -0.090000
vt 0.573000 -0.090000
vt 0.573000 -0.088000
vt 0.404000 -0.088000
vt -0.840000 0.596000
vt -0.840000 0.427000
vt -0.842000 0.596000
vt -0.842000 0.427000
vt -0.843000 0.596000
vt -0.843000 0.427000
vt 0.573000 1.095000
vt 0.404000 1.093000
vt 0.573000 1.093000
vt 0.404000 1.092000
vt 0.573000 1.092000
vt 0.404000 1.090000
vt 0.573000 1.090000
vt 0.404000 1.088000
vt 0.573000 1.088000
vt 1.836000 0.596000
vt -0.836000 0.596000
vt 0.573000 -0.095000
vt 0.404000 1.095000
vt 1.776000 0.596000
vt 1.776000 0.427000
vt -0.776000 0.427000
vt -0.776000 0.596000
vt -0.840000 -0.096000
vt -0.836000 -0.097000
vt -0.776000 -0.097000
vt -0.843000 -0.095000
vt -0.845000 -0.092000
vt -0.846000 -0.088000
vt -0.845000 1.092000
vt -0.846000 1.088000
vt -0.843000 1.095000
vt -0.840000 1.096000
vt -0.836000 1.097000
vt -0.776000 1.097000
vt 1.846000 1.088000
vt 1.776000 -0.097000
vt 1.836000 -0.097000
vt 1.840000 1.096000
vt 1.836000 1.097000
vt 1.776000 1.097000
vt 1.843000 1.095000
vt 1.845000 1.092000
vt 1.840000 -0.096000
vt 1.838000 -0.097000
vt 1.843000 -0.095000
vt 1.842000 -0.095000
vt 1.845000 -0.092000
vt 1.844000 -0.093000
vt 1.846000 -0.088000
vt 1.846000 -0.090000
vt 0.427000 1.097000
vt 0.596000 -0.097000
vt 0.596000 1.097000
vt -0.838000 -0.097000
vt -0.842000 -0.095000
vt -0.844000 -0.093000
vt -0.846000 -0.090000
vt -0.846000 1.090000
vt -0.844000 1.093000
vt -0.842000 1.095000
vt -0.838000 1.096000
vt 1.838000 1.096000
vt 1.842000 1.095000
vt 1.844000 1.093000
vt 1.846000 1.090000
vt 0.427000 -0.097000
vn -0.0674 -0.0000 -0.9977
vn -0.0667 -0.0000 0.9978
vn -0.2250 0.0000 -0.9744
vn -0.2248 0.0000 -0.9744
vn -0.4141 0.0000 -0.9102
vn -0.6137 0.0000 -0.7895
vn -0.6144 0.0000 -0.7890
vn -0.7890 -0.0000 -0.6144
vn -0.9102 0.0000 -0.4141
vn -0.9742 0.0000 -0.2257
vn -0.9978 0.0000 -0.0670
vn -0.2247 -0.0000 0.9744
vn -0.4139 -0.0000 0.9103
vn -0.6142 -0.0000 0.7891
vn -0.7892 -0.0000 0.6141
vn -0.9102 -0.0000 0.4141
vn -0.9742 -0.0000 0.2257
vn -0.9978 -0.0000 0.0669
vn -0.0672 0.0000 -0.9977
vn -0.0669 -0.0000 0.9978
vn -0.2258 0.0000 -0.9742
vn -0.4140 0.0000 -0.9103
vn -0.6140 0.0000 -0.7893
vn -0.9104 0.0000 -0.4138
vn -0.9743 0.0000 -0.2253
vn -0.9978 -0.0000 -0.0668
vn -0.2257 -0.0000 0.9742
vn -0.6142 -0.0000 0.7892
vn -0.0000 0.0000 -1.0000
vn 0.0000 -0.0000 1.0000
vn 0.0000 -1.0000 -0.0000
vn 0.0000 -1.0000 0.0002
vn -1.0000 0.0000 0.0000
vn 0.0000 1.0000 0.0000
vn 0.0001 1.0000 0.0000
vn 0.0000 1.0000 -0.0004
vn 0.0000 1.0000 0.0006
vn -0.0000 1.0000 -0.0006
vn -0.0000 1.0000 -0.0003
vn 1.0000 -0.0000 0.0000
vn -0.0000 -1.0000 0.0006
vn 0.0000 -1.0000 0.0008
vn -0.0000 -1.0000 -0.0006
vn 0.0000 -1.0000 0.0003
vn -0.0000 1.0000 0.0008
vn 0.0000 1.0000 0.0003
usemtl 01___Default.001
s off
f 1/1/1 2/2/1 3/3/1
f 4/4/2 5/5/2 6/6/2
f 1/1/3 7/7/3 8/8/4
f 8/8/5 9/9/5 10/10/5
f 10/10/6 11/11/6 12/12/7
f 12/13/8 13/14/8 14/15/8
f 14/15/9 15/16/9 16/17/9
f 17/18/10 15/16/10 18/19/10
f 17/18/11 19/20/11 20/21/11
f 6/6/12 21/22/12 22/23/12
f 22/23/13 23/24/13 24/25/13
f 24/25/14 25/26/14 26/27/14
f 26/28/15 27/29/15 28/30/15
f 28/30/16 29/31/16 30/32/16
f 30/32/17 31/33/17 32/34/17
f 32/34/18 33/35/18 34/36/18
f 1/1/19 35/37/19 2/2/19
f 4/4/20 36/38/20 5/5/20
f 1/1/21 3/3/21 7/7/21
f 8/8/22 7/7/22 9/9/22
f 10/10/23 9/9/7 11/11/23
f 12/13/8 11/39/8 13/14/8
f 14/15/24 13/14/24 15/16/24
f 17/18/25 16/17/25 15/16/25
f 17/18/26 18/19/26 19/20/26
f 6/6/27 5/5/27 21/22/27
f 22/23/13 21/22/13 23/24/13
f 24/25/28 23/24/28 25/26/28
f 26/28/15 25/40/15 27/29/15
f 28/30/16 27/29/16 29/31/16
f 30/32/17 29/31/17 31/33/17
f 32/34/18 31/33/18 33/35/18
s 1
f 2/2/29 37/41/29 38/42/29
f 36/38/30 39/43/30 40/44/30
f 7/45/31 2/46/32 38/47/31
f 11/48/31 7/45/31 38/47/31
f 15/49/31 11/48/31 38/47/31
f 19/50/31 15/49/31 38/47/31
f 30/51/31 34/52/31 19/50/31
f 26/53/31 30/51/31 19/50/31
f 22/54/31 26/53/31 19/50/31
f 4/55/31 22/54/31 19/50/31
f 39/56/31 19/50/31 38/47/31
f 33/35/33 19/20/33 34/36/33
f 33/57/34 37/58/35 35/59/35
f 21/60/34 36/61/36 40/62/34
f 25/63/34 21/60/34 40/62/34
f 29/64/34 25/63/34 40/62/34
f 33/57/34 29/64/34 40/62/34
f 8/65/34 35/59/35 1/66/34
f 12/67/34 8/65/34 10/68/37
f 16/69/34 12/67/34 14/70/38
f 20/71/39 16/69/39 17/72/39
f 39/73/40 37/74/40 40/75/40
f 2/2/29 35/37/29 37/41/29
f 36/38/30 4/4/30 39/43/30
f 7/45/41 3/76/41 2/46/42
f 11/48/31 9/77/31 7/45/31
f 15/49/31 13/78/43 11/48/31
f 19/50/31 18/79/31 15/49/31
f 30/51/31 32/80/31 34/52/31
f 26/53/31 28/81/31 30/51/31
f 22/54/31 24/82/44 26/53/31
f 4/55/31 6/83/44 22/54/31
f 39/56/31 4/55/31 19/50/31
f 33/35/33 20/21/33 19/20/33
f 33/57/34 40/62/34 37/58/35
f 21/60/34 5/84/34 36/61/34
f 25/63/34 23/85/45 21/60/34
f 29/64/34 27/86/46 25/63/34
f 33/57/34 31/87/34 29/64/34
f 8/65/34 33/57/34 35/59/35
f 12/67/34 33/57/34 8/65/34
f 16/69/34 33/57/34 12/67/34
f 20/71/34 33/57/34 16/69/34
f 39/73/40 38/88/40 37/74/40