# Blender v3.0.1 OBJ File: ''
# www.blender.org
mtllib 08.mtl
o IKE160018.009
v 0.680313 -0.581240 0.357527
v 0.681495 0.549735 0.357605
v 0.681495 -0.581240 0.357605
v 0.680313 0.549733 0.441526
v 0.681495 -0.581240 0.441445
v 0.681495 0.549733 0.441445
v 0.682517 0.549735 0.357842
v 0.682517 -0.581240 0.357842
v 0.683384 0.549735 0.358235
v 0.683384 -0.581240 0.358235
v 0.684092 0.549735 0.358787
v 0.684092 -0.581240 0.358787
v 0.684643 0.549735 0.359495
v 0.684643 -0.581240 0.359494
v 0.685036 0.549735 0.360361
v 0.685036 -0.581240 0.360361
v 0.685273 0.549735 0.361384
v 0.685273 -0.581240 0.361384
v 0.685351 0.549735 0.362565
v 0.685351 -0.581240 0.362565
v 0.682517 -0.581240 0.441211
v 0.682517 0.549733 0.441211
v 0.683384 -0.581240 0.440816
v 0.683384 0.549733 0.440816
v 0.684092 -0.581240 0.440266
v 0.684092 0.549733 0.440267
v 0.684643 -0.581240 0.439556
v 0.684643 0.549733 0.439556
v 0.685036 -0.581240 0.438692
v 0.685036 0.549733 0.438692
v 0.685273 -0.581240 0.437667
v 0.685273 0.549733 0.437667
v 0.685351 -0.581240 0.436488
v 0.685351 0.549733 0.436488
v 0.655076 0.549735 0.357527
v 0.653897 -0.581240 0.357605
v 0.653897 0.549735 0.357605
v 0.652872 -0.581240 0.357842
v 0.652872 0.549735 0.357842
v 0.652008 -0.581240 0.358235
v 0.652008 0.549735 0.358235
v 0.651298 -0.581240 0.358787
v 0.651298 0.549735 0.358787
v 0.650749 -0.581240 0.359494
v 0.650749 0.549735 0.359495
v 0.650353 -0.581240 0.360361
v 0.650353 0.549735 0.360361
v 0.650119 -0.581240 0.361384
v 0.650119 0.549735 0.361384
v 0.650038 -0.581240 0.362565
v 0.650038 0.549735 0.362565
v 0.655076 -0.581240 0.441526
v 0.653897 0.549733 0.441445
v 0.653897 -0.581240 0.441445
v 0.652872 0.549733 0.441211
v 0.652872 -0.581240 0.441211
v 0.652008 0.549733 0.440816
v 0.652008 -0.581240 0.440816
v 0.651298 -0.581240 0.440266
v 0.651298 0.549733 0.440267
v 0.650749 0.549733 0.439556
v 0.650749 -0.581240 0.439556
v 0.650353 0.549733 0.438692
v 0.650353 -0.581240 0.438692
v 0.650119 0.549733 0.437667
v 0.650119 -0.581240 0.437667
v 0.650038 0.549733 0.436488
v 0.650038 -0.581240 0.436488
v 0.680313 0.549735 0.357527
v 0.680313 -0.581240 0.441526
v 0.655076 -0.581240 0.357527
v 0.655076 0.549733 0.441526
vt -0.836000 0.404000
vt -0.838000 0.596000
vt -0.838000 0.404000
vt 1.836000 0.596000
vt 1.838000 0.404000
vt 1.838000 0.596000
vt -0.840000 0.596000
vt -0.840000 0.404000
vt -0.842000 0.596000
vt -0.842000 0.404000
vt -0.843000 0.596000
vt -0.843000 0.404000
vt 0.404000 1.099000
vt 0.596000 1.100000
vt 0.404000 1.100000
vt 0.596000 1.101000
vt 0.404000 1.101000
vt 0.596000 1.103000
vt 0.404000 1.103000
vt 0.596000 1.105000
vt 0.404000 1.105000
vt 1.840000 0.404000
vt 1.840000 0.596000
vt 1.842000 0.404000
vt 1.842000 0.596000
vt 1.843000 0.404000
vt 1.843000 0.596000
vt 0.596000 1.235000
vt 0.404000 1.234000
vt 0.596000 1.234000
vt 0.404000 1.232000
vt 0.596000 1.232000
vt 0.404000 1.230000
vt 0.596000 1.230000
vt 0.404000 1.228000
vt 0.596000 1.228000
vt -0.786000 0.596000
vt -0.784000 0.404000
vt -0.784000 0.596000
vt -0.782000 0.404000
vt -0.782000 0.596000
vt -0.780000 0.404000
vt -0.780000 0.596000
vt -0.779000 0.404000
vt -0.779000 0.596000
vt 0.404000 1.099000
vt 0.596000 1.100000
vt 0.404000 1.100000
vt 0.596000 1.101000
vt 0.404000 1.101000
vt 0.596000 1.103000
vt 0.404000 1.103000
vt 0.596000 1.105000
vt 0.404000 1.105000
vt 1.786000 0.404000
vt 1.784000 0.596000
vt 1.784000 0.404000
vt 1.782000 0.596000
vt 1.782000 0.404000
vt 1.780000 0.596000
vt 1.780000 0.404000
vt 1.779000 0.404000
vt 1.779000 0.596000
vt 0.596000 1.235000
vt 0.404000 1.234000
vt 0.596000 1.234000
vt 0.404000 1.232000
vt 0.596000 1.232000
vt 0.404000 1.230000
vt 0.596000 1.230000
vt 0.404000 1.228000
vt 0.596000 1.228000
vt -0.836000 0.596000
vt 1.836000 0.404000
vt 0.596000 1.099000
vt 0.404000 1.235000
vt -0.786000 0.404000
vt 0.596000 1.099000
vt 1.786000 0.596000
vt 0.404000 1.235000
vt 1.836000 1.097000
vt 1.840000 1.097000
vt 1.786000 1.097000
vt 1.843000 1.099000
vt 1.845000 1.101000
vt 1.846000 1.105000
vt 1.846000 1.228000
vt 1.845000 1.232000
vt 1.843000 1.235000
vt 1.840000 1.236000
vt 1.836000 1.237000
vt 1.776000 1.228000
vt 1.786000 1.237000
vt 1.782000 1.236000
vt 1.779000 1.235000
vt 1.777000 1.232000
vt 1.782000 1.097000
vt 1.784000 1.097000
vt 1.779000 1.099000
vt 1.780000 1.098000
vt 1.777000 1.101000
vt 1.778000 1.100000
vt 1.776000 1.105000
vt 1.777000 1.103000
vt -0.786000 1.097000
vt -0.782000 1.097000
vt -0.836000 1.097000
vt -0.779000 1.099000
vt -0.777000 1.101000
vt -0.776000 1.105000
vt -0.776000 1.228000
vt -0.777000 1.232000
vt -0.779000 1.235000
vt -0.782000 1.236000
vt -0.786000 1.237000
vt -0.846000 1.228000
vt -0.836000 1.237000
vt -0.840000 1.236000
vt -0.843000 1.235000
vt -0.845000 1.232000
vt -0.840000 1.097000
vt -0.838000 1.097000
vt -0.843000 1.099000
vt -0.842000 1.098000
vt -0.845000 1.101000
vt -0.844000 1.100000
vt -0.846000 1.105000
vt -0.846000 1.103000
vt 1.838000 1.097000
vt 1.842000 1.098000
vt 1.844000 1.100000
vt 1.846000 1.103000
vt 1.846000 1.230000
vt 1.844000 1.234000
vt 1.842000 1.236000
vt 1.838000 1.237000
vt 1.784000 1.237000
vt 1.780000 1.236000
vt 1.778000 1.234000
vt 1.777000 1.230000
vt -0.784000 1.097000
vt -0.780000 1.098000
vt -0.778000 1.100000
vt -0.777000 1.103000
vt -0.777000 1.230000
vt -0.778000 1.234000
vt -0.780000 1.236000
vt -0.784000 1.237000
vt -0.838000 1.237000
vt -0.842000 1.236000
vt -0.844000 1.234000
vt -0.846000 1.230000
vn 0.0668 0.0000 -0.9978
vn 0.0669 -0.0000 0.9978
vn 0.2254 0.0000 -0.9743
vn 0.4139 0.0000 -0.9103
vn 0.6140 0.0000 -0.7893
vn 0.7890 0.0000 -0.6144
vn 0.9103 0.0000 -0.4140
vn 0.9742 0.0000 -0.2257
vn 0.9978 0.0000 -0.0668
vn 0.2249 -0.0000 0.9744
vn 0.4146 -0.0000 0.9100
vn 0.6143 -0.0000 0.7891
vn 0.7892 -0.0000 0.6142
vn 0.9102 -0.0000 0.4141
vn 0.9743 -0.0000 0.2253
vn 0.9978 -0.0000 0.0669
vn -0.0669 0.0000 -0.9978
vn -0.2253 0.0000 -0.9743
vn -0.4140 0.0000 -0.9103
vn -0.6145 0.0000 -0.7889
vn -0.7892 0.0000 -0.6142
vn -0.9101 0.0000 -0.4144
vn -0.9744 0.0000 -0.2250
vn -0.9978 0.0000 -0.0669
vn -0.0672 -0.0000 0.9977
vn -0.2250 -0.0000 0.9744
vn -0.4141 -0.0000 0.9102
vn -0.6139 -0.0000 0.7894
vn -0.7893 -0.0000 0.6140
vn -0.9102 -0.0000 0.4142
vn -0.9743 -0.0000 0.2251
vn -0.9977 -0.0000 0.0672
vn 0.0667 0.0000 -0.9978
vn 0.2255 0.0000 -0.9742
vn 0.7892 0.0000 -0.6142
vn 0.9102 0.0000 -0.4141
vn 0.2250 -0.0000 0.9744
vn 0.6144 -0.0000 0.7890
vn 0.7890 0.0000 0.6144
vn -0.2252 0.0000 -0.9743
vn -0.7895 0.0000 -0.6138
vn -0.9101 0.0000 -0.4143
vn -0.6140 -0.0000 0.7893
vn -0.7892 -0.0000 0.6141
vn -0.9743 -0.0000 0.2250
vn 0.0000 0.0000 -1.0000
vn 0.0000 -0.0000 1.0000
vn 0.0000 -1.0000 0.0000
vn 0.0000 -1.0000 0.0001
vn 0.0000 -1.0000 -0.0003
vn 1.0000 -0.0000 0.0000
vn 0.0000 1.0000 0.0000
vn -0.0002 1.0000 0.0000
vn 0.0000 1.0000 0.0001
vn 0.0000 1.0000 0.0006
vn -1.0000 0.0000 0.0000
vn 0.0000 -1.0000 0.0011
vn -0.0000 -1.0000 0.0003
vn 0.0000 -1.0000 -0.0002
vn -0.0000 1.0000 -0.0006
vn 0.0000 1.0000 0.0008
vn 0.0000 1.0000 0.0011
usemtl 01___Default.009
s off
f 1/1/1 2/2/1 3/3/1
f 4/4/2 5/5/2 6/6/2
f 3/3/3 7/7/3 8/8/3
f 8/8/4 9/9/4 10/10/4
f 10/10/5 11/11/5 12/12/5
f 12/13/6 13/14/6 14/15/6
f 14/15/7 15/16/7 16/17/7
f 16/17/8 17/18/8 18/19/8
f 18/19/9 19/20/9 20/21/9
f 6/6/10 21/22/10 22/23/10
f 22/23/11 23/24/11 24/25/11
f 24/25/12 25/26/12 26/27/12
f 26/28/13 27/29/13 28/30/13
f 28/30/14 29/31/14 30/32/14
f 30/32/15 31/33/15 32/34/15
f 32/34/16 33/35/16 34/36/16
f 35/37/17 36/38/17 37/39/17
f 37/39/18 38/40/18 39/41/18
f 39/41/19 40/42/19 41/43/19
f 41/43/20 42/44/20 43/45/20
f 43/46/21 44/47/21 45/48/21
f 45/48/22 46/49/22 47/50/22
f 47/50/23 48/51/23 49/52/23
f 49/52/24 50/53/24 51/54/24
f 52/55/25 53/56/25 54/57/25
f 54/57/26 55/58/26 56/59/26
f 56/59/27 57/60/27 58/61/27
f 59/62/28 57/60/28 60/63/28
f 59/64/29 61/65/29 62/66/29
f 62/66/30 63/67/30 64/68/30
f 64/68/31 65/69/31 66/70/31
f 66/70/32 67/71/32 68/72/32
f 1/1/33 69/73/33 2/2/33
f 4/4/2 70/74/2 5/5/2
f 3/3/34 2/2/34 7/7/34
f 8/8/4 7/7/4 9/9/4
f 10/10/5 9/9/5 11/11/5
f 12/13/35 11/75/35 13/14/35
f 14/15/36 13/14/36 15/16/36
f 16/17/8 15/16/8 17/18/8
f 18/19/9 17/18/9 19/20/9
f 6/6/37 5/5/37 21/22/37
f 22/23/11 21/22/11 23/24/11
f 24/25/38 23/24/38 25/26/38
f 26/28/39 25/76/39 27/29/39
f 28/30/14 27/29/14 29/31/14
f 30/32/15 29/31/15 31/33/15
f 32/34/16 31/33/16 33/35/16
f 35/37/17 71/77/17 36/38/17
f 37/39/40 36/38/40 38/40/40
f 39/41/19 38/40/19 40/42/19
f 41/43/20 40/42/20 42/44/20
f 43/46/41 42/78/41 44/47/41
f 45/48/22 44/47/42 46/49/22
f 47/50/23 46/49/23 48/51/23
f 49/52/24 48/51/24 50/53/24
f 52/55/25 72/79/25 53/56/25
f 54/57/26 53/56/26 55/58/26
f 56/59/27 55/58/27 57/60/27
f 59/62/43 58/61/43 57/60/43
f 59/64/44 60/80/44 61/65/44
f 62/66/30 61/65/30 63/67/30
f 64/68/45 63/67/45 65/69/45
f 66/70/32 65/69/32 67/71/32
s 1
f 35/37/46 1/1/46 71/77/46
f 70/74/47 72/79/47 52/55/47
f 1/81/48 8/82/48 71/83/48
f 8/82/48 12/84/48 71/83/48
f 12/84/48 16/85/48 71/83/48
f 16/85/48 20/86/48 71/83/48
f 33/87/48 29/88/48 20/86/48
f 29/88/48 25/89/48 20/86/48
f 25/89/48 21/90/48 20/86/48
f 21/90/48 70/91/48 20/86/48
f 20/86/48 68/92/48 71/83/48
f 52/93/48 56/94/49 70/91/48
f 56/94/49 59/95/48 70/91/48
f 59/95/48 64/96/48 70/91/48
f 64/96/48 68/92/48 70/91/48
f 71/83/48 38/97/48 36/98/48
f 38/97/48 42/99/48 40/100/50
f 42/99/48 46/101/48 44/102/49
f 46/101/48 50/103/48 48/104/48
f 20/21/51 34/36/51 33/35/51
f 35/105/52 39/106/52 69/107/52
f 39/106/52 43/108/52 69/107/52
f 43/108/52 47/109/52 69/107/52
f 47/109/52 51/110/52 69/107/52
f 67/111/53 63/112/52 51/110/52
f 63/112/52 60/113/52 51/110/52
f 60/113/52 55/114/52 51/110/52
f 55/114/52 72/115/52 51/110/52
f 51/110/52 34/116/52 69/107/52
f 4/117/52 22/118/52 72/115/52
f 22/118/52 26/119/52 72/115/52
f 26/119/52 30/120/52 72/115/52
f 30/120/52 34/116/52 72/115/52
f 69/107/54 7/121/54 2/122/55
f 7/121/52 11/123/52 9/124/55
f 11/123/52 15/125/52 13/126/52
f 15/125/52 19/127/53 17/128/52
f 50/53/56 67/71/56 51/54/56
f 35/37/46 69/73/46 1/1/46
f 70/74/47 4/4/47 72/79/47
f 1/81/48 3/129/48 8/82/48
f 8/82/48 10/130/50 12/84/48
f 12/84/48 14/131/49 16/85/48
f 16/85/48 18/132/48 20/86/48
f 33/87/48 31/133/48 29/88/48
f 29/88/48 27/134/50 25/89/48
f 25/89/48 23/135/57 21/90/48
f 21/90/48 5/136/48 70/91/48
f 20/86/48 70/91/48 68/92/48
f 52/93/48 54/137/48 56/94/49
f 56/94/49 58/138/58 59/95/48
f 59/95/48 62/139/59 64/96/48
f 64/96/48 66/140/48 68/92/48
f 71/83/48 68/92/48 38/97/48
f 38/97/48 68/92/48 42/99/48
f 42/99/48 68/92/48 46/101/48
f 46/101/48 68/92/48 50/103/48
f 20/21/51 19/20/51 34/36/51
f 35/105/52 37/141/60 39/106/52
f 39/106/52 41/142/61 43/108/52
f 43/108/52 45/143/52 47/109/52
f 47/109/54 49/144/54 51/110/54
f 67/111/53 65/145/52 63/112/52
f 63/112/52 61/146/52 60/113/52
f 60/113/52 57/147/52 55/114/52
f 55/114/55 53/148/62 72/115/55
f 51/110/52 72/115/52 34/116/52
f 4/117/52 6/149/52 22/118/52
f 22/118/52 24/150/52 26/119/52
f 26/119/52 28/151/52 30/120/52
f 30/120/52 32/152/52 34/116/52
f 69/107/52 34/116/52 7/121/52
f 7/121/52 34/116/52 11/123/52
f 11/123/52 34/116/52 15/125/52
f 15/125/52 34/116/52 19/127/53
f 50/53/56 68/72/56 67/71/56