# Blender v3.0.1 OBJ File: ''
# www.blender.org
mtllib 09.mtl
o IKE160018.010
v -0.680089 0.549735 0.357527
v -0.681270 -0.581240 0.357605
v -0.681270 0.549735 0.357605
v -0.680089 -0.581240 0.441526
v -0.681270 0.549733 0.441448
v -0.681270 -0.581240 0.441445
v -0.682293 -0.581240 0.357842
v -0.682293 0.549735 0.357842
v -0.683160 -0.581240 0.358235
v -0.683160 0.549735 0.358235
v -0.683867 -0.581240 0.358787
v -0.683867 0.549735 0.358787
v -0.684419 -0.581240 0.359494
v -0.684419 0.549735 0.359495
v -0.684812 0.549735 0.360361
v -0.684812 -0.581240 0.360361
v -0.685049 -0.581240 0.361384
v -0.685049 0.549735 0.361384
v -0.685127 -0.581240 0.362565
v -0.685127 0.549735 0.362565
v -0.682293 0.549733 0.441211
v -0.682293 -0.581240 0.441211
v -0.683160 0.549733 0.440818
v -0.683160 -0.581240 0.440816
v -0.683867 0.549733 0.440267
v -0.683867 -0.581240 0.440266
v -0.684419 0.549733 0.439559
v -0.684419 -0.581240 0.439556
v -0.684812 0.549733 0.438692
v -0.684812 -0.581240 0.438692
v -0.685049 0.549733 0.437670
v -0.685049 -0.581240 0.437667
v -0.685127 0.549733 0.436488
v -0.685127 -0.581240 0.436488
v -0.654852 -0.581240 0.357527
v -0.653670 0.549735 0.357605
v -0.653670 -0.581240 0.357605
v -0.652648 0.549735 0.357842
v -0.652648 -0.581240 0.357842
v -0.651781 0.549735 0.358235
v -0.651781 -0.581240 0.358235
v -0.651073 0.549735 0.358787
v -0.651073 -0.581240 0.358787
v -0.650522 0.549735 0.359495
v -0.650522 -0.581240 0.359494
v -0.650129 0.549735 0.360361
v -0.650129 -0.581240 0.360361
v -0.649892 0.549735 0.361384
v -0.649892 -0.581240 0.361384
v -0.649814 0.549735 0.362565
v -0.649814 -0.581240 0.362565
v -0.654852 0.549733 0.441526
v -0.653670 -0.581240 0.441445
v -0.653670 0.549733 0.441445
v -0.652648 -0.581240 0.441211
v -0.652648 0.549733 0.441211
v -0.651781 -0.581240 0.440816
v -0.651781 0.549733 0.440816
v -0.651073 -0.581240 0.440266
v -0.651073 0.549733 0.440267
v -0.650522 -0.581240 0.439556
v -0.650522 0.549733 0.439556
v -0.650129 -0.581240 0.438692
v -0.650129 0.549733 0.438692
v -0.649892 -0.581240 0.437667
v -0.649892 0.549733 0.437667
v -0.649814 -0.581240 0.436488
v -0.649814 0.549733 0.436488
v -0.680089 -0.581240 0.357527
v -0.680089 0.549733 0.441526
v -0.654852 0.549735 0.357527
v -0.654852 -0.581240 0.441526
vt 1.836000 0.596000
vt 1.838000 0.404000
vt 1.838000 0.596000
vt -0.836000 0.404000
vt -0.838000 0.596000
vt -0.838000 0.404000
vt 1.840000 0.404000
vt 1.840000 0.596000
vt 1.842000 0.404000
vt 1.842000 0.596000
vt 1.843000 0.404000
vt 1.843000 0.596000
vt 0.404000 1.099000
vt 0.596000 1.100000
vt 0.404000 1.100000
vt 0.404000 1.101000
vt 0.596000 1.101000
vt 0.596000 1.103000
vt 0.404000 1.103000
vt 0.596000 1.105000
vt 0.404000 1.105000
vt -0.840000 0.596000
vt -0.840000 0.404000
vt -0.842000 0.596000
vt -0.842000 0.404000
vt -0.843000 0.596000
vt -0.843000 0.404000
vt 0.596000 1.235000
vt 0.404000 1.234000
vt 0.596000 1.234000
vt 0.404000 1.232000
vt 0.596000 1.232000
vt 0.404000 1.230000
vt 0.596000 1.230000
vt 0.404000 1.228000
vt 0.596000 1.228000
vt 1.786000 0.404000
vt 1.784000 0.596000
vt 1.784000 0.404000
vt 1.782000 0.596000
vt 1.782000 0.404000
vt 1.780000 0.596000
vt 1.780000 0.404000
vt 1.779000 0.596000
vt 1.779000 0.404000
vt 0.404000 1.099000
vt 0.596000 1.100000
vt 0.404000 1.100000
vt 0.596000 1.101000
vt 0.404000 1.101000
vt 0.596000 1.103000
vt 0.404000 1.103000
vt 0.596000 1.105000
vt 0.404000 1.105000
vt -0.786000 0.596000
vt -0.784000 0.404000
vt -0.784000 0.596000
vt -0.782000 0.404000
vt -0.782000 0.596000
vt -0.780000 0.404000
vt -0.780000 0.596000
vt -0.779000 0.404000
vt -0.779000 0.596000
vt 0.596000 1.235000
vt 0.404000 1.234000
vt 0.596000 1.234000
vt 0.404000 1.232000
vt 0.596000 1.232000
vt 0.404000 1.230000
vt 0.596000 1.230000
vt 0.404000 1.228000
vt 0.596000 1.228000
vt 1.836000 0.404000
vt -0.836000 0.596000
vt 0.596000 1.099000
vt 0.404000 1.235000
vt 1.786000 0.596000
vt 0.596000 1.099000
vt -0.786000 0.404000
vt 0.404000 1.235000
vt -0.840000 1.097000
vt -0.836000 1.097000
vt -0.786000 1.097000
vt -0.843000 1.099000
vt -0.845000 1.101000
vt -0.846000 1.105000
vt -0.845000 1.232000
vt -0.846000 1.228000
vt -0.843000 1.235000
vt -0.840000 1.236000
vt -0.836000 1.237000
vt -0.776000 1.228000
vt -0.782000 1.236000
vt -0.786000 1.237000
vt -0.779000 1.235000
vt -0.777000 1.232000
vt -0.782000 1.097000
vt -0.784000 1.097000
vt -0.779000 1.099000
vt -0.780000 1.098000
vt -0.777000 1.101000
vt -0.778000 1.100000
vt -0.776000 1.105000
vt -0.777000 1.103000
vt 1.782000 1.097000
vt 1.786000 1.097000
vt 1.836000 1.097000
vt 1.779000 1.099000
vt 1.777000 1.101000
vt 1.776000 1.105000
vt 1.777000 1.232000
vt 1.776000 1.228000
vt 1.779000 1.235000
vt 1.782000 1.236000
vt 1.786000 1.237000
vt 1.846000 1.228000
vt 1.840000 1.236000
vt 1.836000 1.237000
vt 1.843000 1.235000
vt 1.845000 1.232000
vt 1.840000 1.097000
vt 1.838000 1.097000
vt 1.843000 1.099000
vt 1.842000 1.098000
vt 1.845000 1.101000
vt 1.844000 1.100000
vt 1.846000 1.105000
vt 1.846000 1.103000
vt -0.838000 1.097000
vt -0.842000 1.098000
vt -0.844000 1.100000
vt -0.846000 1.103000
vt -0.846000 1.230000
vt -0.844000 1.234000
vt -0.842000 1.236000
vt -0.838000 1.237000
vt -0.784000 1.237000
vt -0.780000 1.236000
vt -0.778000 1.234000
vt -0.777000 1.230000
vt 1.784000 1.097000
vt 1.780000 1.098000
vt 1.778000 1.100000
vt 1.777000 1.103000
vt 1.777000 1.230000
vt 1.778000 1.234000
vt 1.780000 1.236000
vt 1.784000 1.237000
vt 1.838000 1.237000
vt 1.842000 1.236000
vt 1.844000 1.234000
vt 1.846000 1.230000
vn -0.0668 0.0000 -0.9978
vn -0.0674 -0.0000 0.9977
vn -0.2257 0.0000 -0.9742
vn -0.4139 0.0000 -0.9103
vn -0.6140 0.0000 -0.7893
vn -0.7888 0.0000 -0.6146
vn -0.9103 0.0000 -0.4140
vn -0.9742 0.0000 -0.2257
vn -0.9978 0.0000 -0.0668
vn -0.2242 -0.0000 0.9745
vn -0.4146 -0.0000 0.9100
vn -0.6144 -0.0000 0.7890
vn -0.6140 -0.0000 0.7893
vn -0.7890 -0.0000 0.6144
vn -0.9104 -0.0000 0.4138
vn -0.9743 -0.0000 0.2253
vn -0.9978 -0.0000 0.0669
vn 0.0668 0.0000 -0.9978
vn 0.2256 0.0000 -0.9742
vn 0.4139 0.0000 -0.9103
vn 0.6145 0.0000 -0.7889
vn 0.7890 0.0000 -0.6144
vn 0.9102 0.0000 -0.4141
vn 0.9103 -0.0000 -0.4139
vn 0.9742 0.0000 -0.2257
vn 0.9977 0.0000 -0.0672
vn 0.0669 -0.0000 0.9978
vn 0.2250 -0.0000 0.9744
vn 0.4146 -0.0000 0.9100
vn 0.6143 -0.0000 0.7891
vn 0.6143 -0.0000 0.7890
vn 0.7892 -0.0000 0.6142
vn 0.9103 -0.0000 0.4140
vn 0.9743 -0.0000 0.2253
vn 0.9977 -0.0000 0.0671
vn -0.0672 -0.0000 0.9977
vn -0.2256 0.0000 -0.9742
vn -0.7891 0.0000 -0.6142
vn -0.9102 0.0000 -0.4141
vn -0.2243 -0.0000 0.9745
vn -0.4139 -0.0000 0.9103
vn -0.6147 -0.0000 0.7887
vn -0.7892 -0.0000 0.6142
vn -0.9106 -0.0000 0.4132
vn -0.9743 -0.0000 0.2250
vn -0.9978 -0.0000 0.0668
vn 0.0666 0.0000 -0.9978
vn 0.2258 0.0000 -0.9742
vn 0.6142 0.0000 -0.7891
vn 0.7892 0.0000 -0.6142
vn 0.9103 0.0000 -0.4140
vn 0.9104 0.0000 -0.4138
vn 0.6144 -0.0000 0.7890
vn 0.7890 0.0000 0.6144
vn 0.0000 0.0000 -1.0000
vn 0.0000 -0.0000 1.0000
vn 0.0000 -1.0000 -0.0000
vn -1.0000 0.0000 0.0000
vn 0.0000 1.0000 0.0000
vn 0.0001 1.0000 0.0000
vn 0.0002 1.0000 0.0000
vn 0.0000 1.0000 -0.0001
vn 0.0000 1.0000 0.0014
vn -0.0000 1.0000 0.0009
vn 0.0000 1.0000 -0.0003
vn 1.0000 0.0000 0.0000
vn -0.0000 -1.0000 -0.0011
vn 0.0000 -1.0000 0.0001
vn 0.0000 -1.0000 0.0003
vn 0.0000 1.0000 0.0001
vn 0.0000 1.0000 0.0006
vn -0.0000 1.0000 0.0005
vn 0.0000 1.0000 0.0003
vn 0.0000 1.0000 0.0007
vn -0.0000 1.0000 0.0010
vn 0.0000 1.0000 -0.0012
usemtl 01___Default.010
s off
f 1/1/1 2/2/1 3/3/1
f 4/4/2 5/5/2 6/6/2
f 3/3/3 7/7/3 8/8/3
f 8/8/4 9/9/4 10/10/4
f 10/10/5 11/11/5 12/12/5
f 12/13/6 13/14/6 14/15/6
f 15/16/7 13/14/7 16/17/7
f 15/16/8 17/18/8 18/19/8
f 18/19/9 19/20/9 20/21/9
f 6/6/10 21/22/10 22/23/10
f 22/23/11 23/24/11 24/25/11
f 24/25/12 25/26/12 26/27/13
f 26/28/14 27/29/14 28/30/14
f 28/30/15 29/31/15 30/32/15
f 30/32/16 31/33/16 32/34/16
f 32/34/17 33/35/17 34/36/17
f 35/37/18 36/38/18 37/39/18
f 37/39/19 38/40/19 39/41/19
f 39/41/20 40/42/20 41/43/20
f 41/43/21 42/44/21 43/45/21
f 43/46/22 44/47/22 45/48/22
f 45/48/23 46/49/23 47/50/24
f 47/50/25 48/51/25 49/52/25
f 49/52/26 50/53/26 51/54/26
f 52/55/27 53/56/27 54/57/27
f 54/57/28 55/58/28 56/59/28
f 56/59/29 57/60/29 58/61/29
f 58/61/30 59/62/30 60/63/31
f 60/64/32 61/65/32 62/66/32
f 62/66/33 63/67/33 64/68/33
f 64/68/34 65/69/34 66/70/34
f 66/70/35 67/71/35 68/72/35
f 1/1/1 69/73/1 2/2/1
f 4/4/36 70/74/36 5/5/36
f 3/3/37 2/2/37 7/7/37
f 8/8/4 7/7/4 9/9/4
f 10/10/5 9/9/5 11/11/5
f 12/13/38 11/75/38 13/14/38
f 15/16/39 14/15/39 13/14/39
f 15/16/8 16/17/8 17/18/8
f 18/19/9 17/18/9 19/20/9
f 6/6/40 5/5/40 21/22/40
f 22/23/41 21/22/41 23/24/41
f 24/25/42 23/24/13 25/26/42
f 26/28/43 25/76/43 27/29/43
f 28/30/44 27/29/44 29/31/44
f 30/32/45 29/31/45 31/33/45
f 32/34/46 31/33/46 33/35/46
f 35/37/47 71/77/47 36/38/47
f 37/39/48 36/38/48 38/40/48
f 39/41/20 38/40/20 40/42/20
f 41/43/49 40/42/49 42/44/49
f 43/46/50 42/78/50 44/47/50
f 45/48/51 44/47/52 46/49/51
f 47/50/25 46/49/25 48/51/25
f 49/52/26 48/51/26 50/53/26
f 52/55/27 72/79/27 53/56/27
f 54/57/28 53/56/28 55/58/28
f 56/59/29 55/58/29 57/60/29
f 58/61/30 57/60/53 59/62/30
f 60/64/54 59/80/54 61/65/54
f 62/66/33 61/65/33 63/67/33
f 64/68/34 63/67/34 65/69/34
f 66/70/35 65/69/35 67/71/35
s 1
f 1/1/55 35/37/55 69/73/55
f 70/74/56 72/79/56 52/55/56
f 7/81/57 69/82/57 35/83/57
f 11/84/57 7/81/57 35/83/57
f 16/85/57 11/84/57 35/83/57
f 19/86/57 16/85/57 35/83/57
f 30/87/57 34/88/57 19/86/57
f 26/89/57 30/87/57 19/86/57
f 22/90/57 26/89/57 19/86/57
f 4/91/57 22/90/57 19/86/57
f 67/92/57 19/86/57 35/83/57
f 55/93/57 72/94/57 4/91/57
f 59/95/57 55/93/57 4/91/57
f 63/96/57 59/95/57 4/91/57
f 67/92/57 63/96/57 4/91/57
f 39/97/57 35/83/57 37/98/57
f 43/99/57 39/97/57 41/100/57
f 47/101/57 43/99/57 45/102/57
f 51/103/57 47/101/57 49/104/57
f 33/35/58 19/20/58 34/36/58
f 38/105/59 71/106/59 1/107/59
f 42/108/59 38/105/59 1/107/59
f 46/109/59 42/108/59 1/107/59
f 50/110/59 46/109/59 1/107/59
f 64/111/60 68/112/61 50/110/59
f 60/113/59 64/111/60 50/110/59
f 56/114/59 60/113/59 50/110/59
f 52/115/59 56/114/59 50/110/59
f 33/116/59 50/110/59 1/107/59
f 21/117/62 70/118/63 52/115/59
f 25/119/59 21/117/62 52/115/59
f 29/120/59 25/119/59 52/115/59
f 33/116/59 29/120/59 52/115/59
f 8/121/59 1/107/59 3/122/59
f 12/123/59 8/121/59 10/124/64
f 15/125/59 12/123/59 14/126/65
f 20/127/59 15/125/59 18/128/59
f 68/72/66 51/54/66 50/53/66
f 1/1/55 71/77/55 35/37/55
f 70/74/56 4/4/56 72/79/56
f 7/81/57 2/129/57 69/82/57
f 11/84/57 9/130/67 7/81/57
f 16/85/57 13/131/57 11/84/57
f 19/86/57 17/132/57 16/85/57
f 30/87/57 32/133/57 34/88/57
f 26/89/57 28/134/68 30/87/57
f 22/90/57 24/135/69 26/89/57
f 4/91/57 6/136/57 22/90/57
f 67/92/57 4/91/57 19/86/57
f 55/93/57 53/137/57 72/94/57
f 59/95/57 57/138/57 55/93/57
f 63/96/57 61/139/57 59/95/57
f 67/92/57 65/140/57 63/96/57
f 39/97/57 67/92/57 35/83/57
f 43/99/57 67/92/57 39/97/57
f 47/101/57 67/92/57 43/99/57
f 51/103/57 67/92/57 47/101/57
f 33/35/58 20/21/58 19/20/58
f 38/105/70 36/141/71 71/106/70
f 42/108/59 40/142/72 38/105/59
f 46/109/59 44/143/59 42/108/59
f 50/110/59 48/144/59 46/109/59
f 64/111/62 66/145/62 68/112/62
f 60/113/59 62/146/73 64/111/60
f 56/114/59 58/147/59 60/113/59
f 52/115/59 54/148/59 56/114/59
f 33/116/59 52/115/59 50/110/59
f 21/117/59 5/149/74 70/118/75
f 25/119/59 23/150/76 21/117/62
f 29/120/59 27/151/59 25/119/59
f 33/116/59 31/152/59 29/120/59
f 8/121/59 33/116/59 1/107/59
f 12/123/59 33/116/59 8/121/59
f 15/125/59 33/116/59 12/123/59
f 20/127/61 33/116/59 15/125/59
f 68/72/66 67/71/66 51/54/66