# Blender v3.0.1 OBJ File: ''
# www.blender.org
mtllib 10.mtl
o IKE160018.011
v -0.680089 0.549735 -0.441380
v -0.681270 -0.581240 -0.441302
v -0.681270 0.549735 -0.441302
v -0.680089 -0.581240 -0.357384
v -0.681270 0.549733 -0.357462
v -0.681270 -0.581240 -0.357462
v -0.682293 0.549735 -0.441065
v -0.682293 -0.581240 -0.441068
v -0.683160 -0.581240 -0.440672
v -0.683160 0.549735 -0.440672
v -0.683867 -0.581240 -0.440123
v -0.683867 0.549735 -0.440120
v -0.684419 -0.581240 -0.439413
v -0.684419 0.549735 -0.439413
v -0.684812 -0.581240 -0.438549
v -0.684812 0.549735 -0.438546
v -0.685049 -0.581240 -0.437524
v -0.685049 0.549735 -0.437523
v -0.685127 -0.581240 -0.436345
v -0.685127 0.549735 -0.436342
v -0.682293 0.549733 -0.357698
v -0.682293 -0.581240 -0.357699
v -0.683160 0.549733 -0.358091
v -0.683160 -0.581240 -0.358092
v -0.683867 0.549733 -0.358643
v -0.683867 -0.581240 -0.358643
v -0.684419 0.549733 -0.359351
v -0.684419 -0.581240 -0.359351
v -0.684812 0.549733 -0.360217
v -0.684812 -0.581240 -0.360218
v -0.685049 0.549733 -0.361240
v -0.685049 -0.581240 -0.361240
v -0.685127 0.549733 -0.362421
v -0.685127 -0.581240 -0.362422
v -0.654852 -0.581240 -0.441383
v -0.653670 0.549735 -0.441302
v -0.653670 -0.581240 -0.441302
v -0.652648 0.549735 -0.441065
v -0.652648 -0.581240 -0.441068
v -0.651781 0.549735 -0.440672
v -0.651781 -0.581240 -0.440672
v -0.651073 0.549735 -0.440120
v -0.651073 -0.581240 -0.440123
v -0.650522 -0.581240 -0.439413
v -0.650522 0.549735 -0.439413
v -0.650129 0.549735 -0.438546
v -0.650129 -0.581240 -0.438549
v -0.649892 0.549735 -0.437523
v -0.649892 -0.581240 -0.437524
v -0.649814 0.549735 -0.436342
v -0.649814 -0.581240 -0.436345
v -0.654852 0.549733 -0.357384
v -0.653670 -0.581240 -0.357462
v -0.653670 0.549733 -0.357462
v -0.652648 -0.581240 -0.357699
v -0.652648 0.549733 -0.357698
v -0.651781 -0.581240 -0.358092
v -0.651781 0.549733 -0.358091
v -0.651073 -0.581240 -0.358643
v -0.651073 0.549733 -0.358643
v -0.650522 -0.581240 -0.359351
v -0.650522 0.549733 -0.359351
v -0.650129 -0.581240 -0.360218
v -0.650129 0.549733 -0.360217
v -0.649892 -0.581240 -0.361240
v -0.649892 0.549733 -0.361240
v -0.649814 -0.581240 -0.362422
v -0.649814 0.549735 -0.362421
v -0.680089 -0.581240 -0.441383
v -0.680089 0.549733 -0.357384
v -0.654852 0.549735 -0.441380
v -0.654852 -0.581240 -0.357384
vt 1.836000 0.596000
vt 1.838000 0.404000
vt 1.838000 0.596000
vt -0.836000 0.404000
vt -0.838000 0.596000
vt -0.838000 0.404000
vt 1.840000 0.596000
vt 1.840000 0.404000
vt 1.842000 0.404000
vt 1.842000 0.596000
vt 1.843000 0.404000
vt 1.843000 0.596000
vt 0.404000 -0.235000
vt 0.596000 -0.234000
vt 0.404000 -0.234000
vt 0.596000 -0.232000
vt 0.404000 -0.232000
vt 0.596000 -0.230000
vt 0.404000 -0.230000
vt 0.596000 -0.228000
vt 0.404000 -0.228000
vt -0.840000 0.596000
vt -0.840000 0.404000
vt -0.842000 0.596000
vt -0.842000 0.404000
vt -0.843000 0.596000
vt -0.843000 0.404000
vt 0.596000 -0.099000
vt 0.404000 -0.100000
vt 0.596000 -0.100000
vt 0.404000 -0.101000
vt 0.596000 -0.101000
vt 0.404000 -0.103000
vt 0.596000 -0.103000
vt 0.404000 -0.105000
vt 0.596000 -0.105000
vt 1.786000 0.404000
vt 1.784000 0.596000
vt 1.784000 0.404000
vt 1.782000 0.596000
vt 1.782000 0.404000
vt 1.780000 0.596000
vt 1.780000 0.404000
vt 1.779000 0.596000
vt 1.779000 0.404000
vt 0.404000 -0.234000
vt 0.596000 -0.235000
vt 0.596000 -0.234000
vt 0.596000 -0.232000
vt 0.404000 -0.232000
vt 0.596000 -0.230000
vt 0.404000 -0.230000
vt 0.596000 -0.228000
vt 0.404000 -0.228000
vt -0.786000 0.596000
vt -0.784000 0.404000
vt -0.784000 0.596000
vt -0.782000 0.404000
vt -0.782000 0.596000
vt -0.780000 0.404000
vt -0.780000 0.596000
vt -0.779000 0.404000
vt -0.779000 0.596000
vt 0.596000 -0.099000
vt 0.404000 -0.100000
vt 0.596000 -0.100000
vt 0.404000 -0.101000
vt 0.596000 -0.101000
vt 0.404000 -0.103000
vt 0.596000 -0.103000
vt 0.404000 -0.105000
vt 0.596000 -0.105000
vt 1.836000 0.404000
vt -0.836000 0.596000
vt 0.596000 -0.235000
vt 0.404000 -0.099000
vt 1.786000 0.596000
vt 0.404000 -0.235000
vt -0.786000 0.404000
vt 0.404000 -0.099000
vt -0.840000 -0.236000
vt -0.836000 -0.237000
vt -0.786000 -0.237000
vt -0.843000 -0.235000
vt -0.845000 -0.232000
vt -0.846000 -0.228000
vt -0.845000 -0.101000
vt -0.846000 -0.105000
vt -0.843000 -0.099000
vt -0.840000 -0.097000
vt -0.836000 -0.097000
vt -0.776000 -0.105000
vt -0.782000 -0.097000
vt -0.786000 -0.097000
vt -0.779000 -0.099000
vt -0.777000 -0.101000
vt -0.782000 -0.236000
vt -0.784000 -0.237000
vt -0.779000 -0.235000
vt -0.780000 -0.236000
vt -0.777000 -0.232000
vt -0.778000 -0.234000
vt -0.776000 -0.228000
vt -0.777000 -0.230000
vt 1.782000 -0.236000
vt 1.786000 -0.237000
vt 1.836000 -0.237000
vt 1.779000 -0.235000
vt 1.777000 -0.232000
vt 1.776000 -0.228000
vt 1.777000 -0.101000
vt 1.776000 -0.105000
vt 1.779000 -0.099000
vt 1.782000 -0.097000
vt 1.786000 -0.097000
vt 1.846000 -0.105000
vt 1.840000 -0.097000
vt 1.836000 -0.097000
vt 1.843000 -0.099000
vt 1.845000 -0.101000
vt 1.840000 -0.236000
vt 1.838000 -0.237000
vt 1.843000 -0.235000
vt 1.842000 -0.236000
vt 1.845000 -0.232000
vt 1.844000 -0.234000
vt 1.846000 -0.228000
vt 1.846000 -0.230000
vt -0.838000 -0.237000
vt -0.842000 -0.236000
vt -0.844000 -0.234000
vt -0.846000 -0.230000
vt -0.846000 -0.103000
vt -0.844000 -0.100000
vt -0.842000 -0.098000
vt -0.838000 -0.097000
vt -0.784000 -0.097000
vt -0.780000 -0.098000
vt -0.778000 -0.100000
vt -0.777000 -0.103000
vt 1.784000 -0.237000
vt 1.780000 -0.236000
vt 1.778000 -0.234000
vt 1.777000 -0.230000
vt 1.777000 -0.103000
vt 1.778000 -0.100000
vt 1.780000 -0.098000
vt 1.784000 -0.097000
vt 1.838000 -0.097000
vt 1.842000 -0.098000
vt 1.844000 -0.100000
vt 1.846000 -0.103000
vn -0.0670 0.0000 -0.9978
vn -0.0669 -0.0000 0.9978
vn -0.2248 0.0000 -0.9744
vn -0.2244 0.0000 -0.9745
vn -0.4142 0.0000 -0.9102
vn -0.6140 0.0000 -0.7893
vn -0.7892 0.0000 -0.6141
vn -0.9103 0.0000 -0.4138
vn -0.9103 0.0000 -0.4140
vn -0.9742 0.0000 -0.2257
vn -0.9743 0.0000 -0.2251
vn -0.9978 0.0000 -0.0668
vn -0.9978 0.0000 -0.0667
vn -0.2257 -0.0000 0.9742
vn -0.4141 -0.0000 0.9102
vn -0.6140 -0.0000 0.7893
vn -0.6142 -0.0000 0.7892
vn -0.7891 -0.0000 0.6142
vn -0.9103 -0.0000 0.4139
vn -0.9742 -0.0000 0.2259
vn -0.9978 -0.0000 0.0668
vn 0.0672 0.0000 -0.9977
vn 0.2248 0.0000 -0.9744
vn 0.2244 0.0000 -0.9745
vn 0.4143 0.0000 -0.9101
vn 0.6141 0.0000 -0.7892
vn 0.7892 0.0000 -0.6142
vn 0.7893 0.0000 -0.6140
vn 0.9103 0.0000 -0.4140
vn 0.9742 0.0000 -0.2256
vn 0.9978 0.0000 -0.0668
vn 0.9977 0.0000 -0.0671
vn 0.0668 -0.0000 0.9978
vn 0.2250 -0.0000 0.9744
vn 0.4138 -0.0000 0.9104
vn 0.6141 -0.0000 0.7892
vn 0.7892 -0.0000 0.6141
vn 0.9105 -0.0000 0.4135
vn 0.9104 -0.0000 0.4138
vn 0.9742 -0.0000 0.2257
vn 0.9977 0.0000 0.0671
vn -0.0673 0.0000 -0.9977
vn -0.2257 0.0000 -0.9742
vn -0.2249 0.0000 -0.9744
vn -0.4144 0.0000 -0.9101
vn -0.6141 0.0000 -0.7893
vn -0.7892 -0.0000 -0.6142
vn -0.7895 0.0000 -0.6138
vn -0.9103 0.0000 -0.4141
vn -0.9743 0.0000 -0.2253
vn -0.9978 0.0000 -0.0666
vn -0.2248 -0.0000 0.9744
vn -0.4142 -0.0000 0.9102
vn -0.6143 -0.0000 0.7891
vn -0.7890 -0.0000 0.6144
vn -0.9103 -0.0000 0.4140
vn -0.9742 -0.0000 0.2257
vn 0.0667 0.0000 -0.9978
vn 0.2250 0.0000 -0.9744
vn 0.2245 0.0000 -0.9745
vn 0.4141 0.0000 -0.9102
vn 0.6142 0.0000 -0.7891
vn 0.7893 0.0000 -0.6141
vn 0.9103 0.0000 -0.4139
vn 0.9104 0.0000 -0.4137
vn 0.9742 0.0000 -0.2257
vn 0.9978 0.0000 -0.0669
vn 0.9977 0.0000 -0.0672
vn 0.2259 -0.0000 0.9742
vn 0.4141 -0.0000 0.9102
vn 0.7892 -0.0000 0.6142
vn 0.9103 -0.0000 0.4140
vn 0.9741 -0.0000 0.2260
vn 0.9978 0.0000 0.0670
vn 0.0000 0.0000 -1.0000
vn 0.0000 -0.0000 1.0000
vn 0.0000 -1.0000 0.0000
vn 0.0000 -1.0000 0.0002
vn 0.0000 -1.0000 -0.0007
vn 0.0000 -1.0000 0.0003
vn -1.0000 0.0000 0.0000
vn 0.0000 1.0000 -0.0000
vn 0.0000 1.0000 -0.0002
vn 0.0002 1.0000 0.0002
vn 0.0001 1.0000 -0.0000
vn 0.0000 1.0000 0.0011
vn -0.0000 1.0000 0.0009
vn 1.0000 0.0000 0.0000
vn 0.0000 -1.0000 0.0001
vn 0.0000 -1.0000 -0.0005
vn 0.0000 -1.0000 -0.0003
vn 0.0000 1.0000 0.0006
vn -0.0000 1.0000 0.0005
vn -0.0000 1.0000 0.0001
vn 0.0000 1.0000 0.0002
vn 0.0000 1.0000 -0.0003
vn -0.0000 1.0000 -0.0005
vn 0.0002 1.0000 0.0000
usemtl 01___Default.002
s off
f 1/1/1 2/2/1 3/3/1
f 4/4/2 5/5/2 6/6/2
f 7/7/3 2/2/3 8/8/4
f 7/7/5 9/9/5 10/10/5
f 10/10/6 11/11/6 12/12/6
f 12/13/7 13/14/7 14/15/7
f 14/15/8 15/16/8 16/17/9
f 16/17/10 17/18/10 18/19/11
f 18/19/12 19/20/12 20/21/13
f 6/6/14 21/22/14 22/23/14
f 22/23/15 23/24/15 24/25/15
f 24/25/16 25/26/16 26/27/17
f 26/28/18 27/29/18 28/30/18
f 28/30/19 29/31/19 30/32/19
f 30/32/20 31/33/20 32/34/20
f 32/34/21 33/35/21 34/36/21
f 35/37/22 36/38/22 37/39/22
f 37/39/23 38/40/23 39/41/24
f 39/41/25 40/42/25 41/43/25
f 41/43/26 42/44/26 43/45/26
f 44/46/27 42/47/27 45/48/28
f 44/46/29 46/49/29 47/50/29
f 47/50/30 48/51/30 49/52/30
f 49/52/31 50/53/31 51/54/32
f 52/55/33 53/56/33 54/57/33
f 54/57/34 55/58/34 56/59/34
f 56/59/35 57/60/35 58/61/35
f 58/61/36 59/62/36 60/63/36
f 60/64/37 61/65/37 62/66/37
f 62/66/38 63/67/38 64/68/39
f 64/68/40 65/69/40 66/70/40
f 66/70/41 67/71/41 68/72/41
f 1/1/42 69/73/42 2/2/42
f 4/4/2 70/74/2 5/5/2
f 7/7/43 3/3/44 2/2/43
f 7/7/45 8/8/45 9/9/45
f 10/10/46 9/9/46 11/11/46
f 12/13/47 11/75/48 13/14/47
f 14/15/49 13/14/49 15/16/49
f 16/17/50 15/16/50 17/18/50
f 18/19/12 17/18/51 19/20/12
f 6/6/52 5/5/52 21/22/52
f 22/23/53 21/22/53 23/24/53
f 24/25/54 23/24/54 25/26/54
f 26/28/55 25/76/55 27/29/55
f 28/30/56 27/29/56 29/31/56
f 30/32/57 29/31/57 31/33/57
f 32/34/21 31/33/21 33/35/21
f 35/37/58 71/77/58 36/38/58
f 37/39/59 36/38/60 38/40/59
f 39/41/61 38/40/61 40/42/61
f 41/43/62 40/42/26 42/44/62
f 44/46/63 43/78/27 42/47/63
f 44/46/64 45/48/65 46/49/64
f 47/50/66 46/49/66 48/51/66
f 49/52/67 48/51/68 50/53/67
f 52/55/33 72/79/33 53/56/33
f 54/57/69 53/56/69 55/58/69
f 56/59/70 55/58/70 57/60/70
f 58/61/36 57/60/36 59/62/36
f 60/64/71 59/80/71 61/65/71
f 62/66/72 61/65/72 63/67/72
f 64/68/73 63/67/73 65/69/73
f 66/70/74 65/69/74 67/71/74
s 1
f 1/1/75 35/37/75 69/73/75
f 70/74/76 72/79/76 52/55/76
f 8/81/77 69/82/78 35/83/77
f 11/84/77 8/81/77 35/83/77
f 15/85/77 11/84/77 35/83/77
f 19/86/77 15/85/77 35/83/77
f 30/87/77 34/88/77 19/86/77
f 26/89/77 30/87/77 19/86/77
f 22/90/77 26/89/77 19/86/77
f 4/91/77 22/90/77 19/86/77
f 67/92/77 19/86/77 35/83/77
f 55/93/77 72/94/79 4/91/77
f 59/95/77 55/93/77 4/91/77
f 63/96/77 59/95/77 4/91/77
f 67/92/77 63/96/77 4/91/77
f 39/97/77 35/83/77 37/98/77
f 43/99/77 39/97/77 41/100/77
f 47/101/77 43/99/77 44/102/80
f 51/103/77 47/101/77 49/104/77
f 33/35/81 19/20/81 34/36/81
f 38/105/82 71/106/83 1/107/82
f 42/108/82 38/105/82 1/107/82
f 46/109/82 42/108/82 1/107/82
f 50/110/82 46/109/82 1/107/82
f 64/111/84 68/112/85 50/110/82
f 60/113/82 64/111/84 50/110/82
f 56/114/82 60/113/82 50/110/82
f 52/115/82 56/114/82 50/110/82
f 33/116/82 50/110/82 1/107/82
f 21/117/82 70/118/86 52/115/82
f 25/119/82 21/117/82 52/115/82
f 29/120/82 25/119/82 52/115/82
f 33/116/82 29/120/82 52/115/82
f 7/121/82 1/107/82 3/122/82
f 12/123/82 7/121/82 10/124/87
f 16/125/82 12/123/82 14/126/82
f 20/127/82 16/125/82 18/128/82
f 67/71/88 50/53/88 68/72/88
f 1/1/75 71/77/75 35/37/75
f 70/74/76 4/4/76 72/79/76
f 8/81/77 2/129/77 69/82/77
f 11/84/77 9/130/77 8/81/77
f 15/85/77 13/131/80 11/84/77
f 19/86/77 17/132/77 15/85/77
f 30/87/77 32/133/77 34/88/77
f 26/89/77 28/134/89 30/87/77
f 22/90/77 24/135/90 26/89/77
f 4/91/77 6/136/77 22/90/77
f 67/92/77 4/91/77 19/86/77
f 55/93/77 53/137/77 72/94/90
f 59/95/77 57/138/77 55/93/77
f 63/96/77 61/139/91 59/95/77
f 67/92/77 65/140/77 63/96/77
f 39/97/77 67/92/77 35/83/77
f 43/99/77 67/92/77 39/97/77
f 47/101/77 67/92/77 43/99/77
f 51/103/77 67/92/77 47/101/77
f 33/35/81 20/21/81 19/20/81
f 38/105/82 36/141/92 71/106/83
f 42/108/82 40/142/93 38/105/82
f 46/109/82 45/143/82 42/108/82
f 50/110/82 48/144/82 46/109/82
f 64/111/94 66/145/85 68/112/85
f 60/113/82 62/146/95 64/111/84
f 56/114/82 58/147/96 60/113/82
f 52/115/82 54/148/82 56/114/82
f 33/116/82 52/115/82 50/110/82
f 21/117/82 5/149/87 70/118/87
f 25/119/82 23/150/97 21/117/82
f 29/120/82 27/151/92 25/119/82
f 33/116/82 31/152/82 29/120/82
f 7/121/82 33/116/82 1/107/82
f 12/123/82 33/116/82 7/121/82
f 16/125/82 33/116/82 12/123/82
f 20/127/98 33/116/82 16/125/82
f 67/71/88 51/54/88 50/53/88