# Blender v3.0.1 OBJ File: ''
# www.blender.org
mtllib 03.mtl
o model_normalized.005_model_normalized.007
v -0.301253 -0.119286 -0.225815
v -0.313575 -0.119286 -0.225815
v -0.307414 -0.119286 -0.225004
v -0.295511 -0.119286 -0.228194
v -0.311134 -0.589589 -0.238702
v -0.314363 -0.589589 -0.237364
v -0.317829 -0.589589 -0.236907
v -0.321294 -0.589589 -0.237364
v -0.319317 -0.119286 -0.228194
v -0.324524 -0.589589 -0.238702
v -0.324247 -0.119286 -0.231977
v -0.327298 -0.589589 -0.240830
v -0.329426 -0.589589 -0.243602
v -0.328031 -0.119286 -0.236907
v -0.286798 -0.119286 -0.236907
v -0.290582 -0.119286 -0.231977
v -0.308360 -0.589589 -0.240830
v -0.306233 -0.589589 -0.243602
v -0.330764 -0.589589 -0.246832
v -0.330408 -0.119286 -0.242648
v -0.284419 -0.119286 -0.242648
v -0.304895 -0.589589 -0.246832
v -0.331219 -0.589589 -0.250298
v -0.331219 -0.119286 -0.248809
v -0.283608 -0.119286 -0.248809
v -0.304438 -0.589589 -0.250298
v -0.330764 -0.589589 -0.253764
v -0.330408 -0.119286 -0.254972
v -0.284419 -0.119286 -0.254972
v -0.304895 -0.589589 -0.253764
v -0.329426 -0.589589 -0.256994
v -0.328031 -0.119286 -0.260712
v -0.286798 -0.119286 -0.260712
v -0.306233 -0.589589 -0.256994
v -0.327298 -0.589589 -0.259766
v -0.324247 -0.119286 -0.265643
v -0.290582 -0.119286 -0.265643
v -0.308360 -0.589589 -0.259766
v -0.324524 -0.589589 -0.261894
v -0.319317 -0.119286 -0.269426
v -0.295511 -0.119286 -0.269426
v -0.311134 -0.589589 -0.261894
v -0.321294 -0.589589 -0.263232
v -0.313575 -0.119286 -0.271804
v -0.301253 -0.119286 -0.271804
v -0.314363 -0.589589 -0.263232
v -0.317829 -0.589589 -0.263688
v -0.307414 -0.119286 -0.272615
vt -0.020123 0.743397
vt -0.020123 0.437705
vt 0.000000 0.590551
vt -0.079119 0.885827
vt -0.694510 -0.011934
vt -0.590377 8.658220
vt -0.848675 -0.011934
vt -0.503659 8.658220
vt -0.585499 -0.002903
vt -0.454602 8.664660
vt -0.739664 -0.002903
vt -0.367884 8.664660
vt -0.431334 0.002304
vt -0.290802 8.667590
vt -0.585499 0.002304
vt -0.204084 8.667590
vt -0.242522 0.004111
vt -0.110139 8.667640
vt -0.396686 0.004111
vt -0.023421 8.667640
vt -0.031929 0.003588
vt 0.075075 8.665950
vt -0.186093 0.003588
vt 0.161793 8.665950
vt 0.031929 0.002062
vt 0.338935 8.663790
vt 0.252218 8.663790
vt 0.186093 0.002062
vt -0.172968 0.172968
vt -0.295276 1.101980
vt -0.295276 0.079119
vt -0.172968 1.008130
vt -0.079119 0.295276
vt -0.750938 -0.024324
vt -0.688873 8.648400
vt -0.905103 -0.024324
vt -0.602155 8.648400
vt 0.339780 0.498278
vt 0.392570 0.097295
vt 0.392570 0.567075
vt 0.339780 0.166093
vt 0.306595 0.418161
vt 0.306595 0.246209
vt 0.295276 0.332185
vt 0.461368 0.044504
vt 0.461368 0.619866
vt 0.541485 0.011319
vt 0.242522 0.000679
vt 0.495935 8.662150
vt 0.409217 8.662150
vt 0.396686 0.000679
vt -0.437705 0.020123
vt -0.437705 1.160980
vt -0.663461 8.623260
vt -0.848675 -0.053096
vt -0.694510 -0.053096
vt -0.750179 8.623260
vt 0.541485 0.653051
vt 0.627461 -0.000000
vt 0.431334 0.000043
vt 0.622093 8.661460
vt 0.535375 8.661460
vt 0.585499 0.000043
vt -0.590551 1.181100
vt -0.590551 0.000000
vt -0.622093 8.611650
vt -0.739664 -0.065196
vt -0.585499 -0.065196
vt -0.708810 8.611650
vt 0.627461 0.664370
vt 0.713436 0.011319
vt 0.708810 8.661460
vt 0.739664 0.000043
vt -0.743397 1.160980
vt -0.743397 0.020123
vt -0.535375 8.603270
vt -0.585499 -0.073003
vt -0.431334 -0.073003
vt -0.622093 8.603270
vt 0.713436 0.653051
vt 0.793553 0.044504
vt 0.694510 -0.000102
vt 0.750179 8.661320
vt 0.663461 8.661320
vt 0.848675 -0.000102
vt -0.885827 0.079119
vt -0.885827 1.101980
vt -0.409217 8.599540
vt -0.396686 -0.075206
vt -0.242522 -0.075206
vt -0.495935 8.599540
vt 0.793553 0.619866
vt 0.862351 0.097295
vt 0.750938 -0.001579
vt 0.743378 8.659890
vt 0.656661 8.659890
vt 0.905103 -0.001579
vt -1.008130 0.172968
vt -1.008130 1.008130
vt -0.252218 8.601020
vt -0.186093 -0.071497
vt -0.031929 -0.071497
vt -0.338935 8.601020
vt 0.862351 0.567075
vt 0.915141 0.166093
vt 0.750938 -0.005580
vt 0.688873 8.656120
vt 0.602155 8.656120
vt 0.905103 -0.005580
vt -1.101980 0.885827
vt -1.101980 0.295276
vt -0.075075 8.607300
vt 0.031929 -0.062632
vt 0.186093 -0.062632
vt -0.161793 8.607300
vt 0.915141 0.498278
vt 0.948327 0.246209
vt 0.694510 -0.012871
vt 0.590377 8.649420
vt 0.503659 8.649420
vt 0.848675 -0.012871
vt -1.160980 0.743397
vt -1.160980 0.437705
vt 0.110139 8.617110
vt 0.242522 -0.050249
vt 0.396686 -0.050249
vt 0.023421 8.617110
vt 0.948327 0.418161
vt 0.959646 0.332185
vt 0.585499 -0.023465
vt 0.454602 8.639950
vt 0.367884 8.639950
vt 0.739664 -0.023465
vt -1.181100 0.590551
vt 0.290802 8.628640
vt 0.431334 -0.036482
vt 0.585499 -0.036482
vt 0.204084 8.628640
vt -0.905103 -0.038717
vt -0.656661 8.636190
vt -0.743378 8.636190
vt -0.750938 -0.038717
vn 0.0000 1.0000 -0.0000
vn 0.3826 -0.0333 0.9233
vn 0.1305 -0.0280 0.9911
vn 0.1307 -0.0280 0.9910
vn -0.1305 -0.0222 0.9912
vn -0.1307 -0.0222 0.9912
vn -0.3827 -0.0164 0.9237
vn -0.6087 -0.0110 0.7933
vn -0.6086 -0.0110 0.7934
vn -0.7933 -0.0063 0.6089
vn -0.7932 -0.0063 0.6089
vn 0.6084 -0.0379 0.7927
vn 0.6082 -0.0379 0.7929
vn 0.0000 -1.0000 0.0000
vn -0.9239 -0.0027 0.3825
vn -0.9239 -0.0027 0.3827
vn 0.9230 -0.0436 0.3823
vn 0.9229 -0.0436 0.3825
vn -0.9915 -0.0003 0.1298
vn -0.9915 -0.0004 0.1302
vn -0.9914 -0.0004 0.1305
vn 0.9904 -0.0443 0.1306
vn 0.9905 -0.0443 0.1304
vn -0.9915 0.0004 -0.1305
vn -0.9915 0.0004 -0.1302
vn 0.9905 -0.0436 -0.1303
vn 0.9905 -0.0435 -0.1303
vn 0.9905 -0.0435 -0.1306
vn -0.9239 -0.0003 -0.3826
vn -0.9239 -0.0003 -0.3827
vn 0.9231 -0.0412 -0.3824
vn 0.9230 -0.0412 -0.3826
vn -0.7933 -0.0025 -0.6088
vn -0.7932 -0.0025 -0.6089
vn 0.7928 -0.0376 -0.6083
vn 0.7928 -0.0376 -0.6084
vn -0.6088 -0.0060 -0.7933
vn -0.6087 -0.0060 -0.7934
vn -0.6086 -0.0060 -0.7934
vn 0.6083 -0.0329 -0.7930
vn 0.6085 -0.0329 -0.7929
vn -0.3826 -0.0106 -0.9239
vn -0.3827 -0.0106 -0.9238
vn -0.3823 -0.0107 -0.9240
vn 0.3827 -0.0275 -0.9235
vn 0.3825 -0.0275 -0.9236
vn -0.1305 -0.0159 -0.9913
vn 0.1304 -0.0217 -0.9912
vn 0.1305 -0.0217 -0.9912
vn 0.7926 -0.0414 0.6083
vn 0.7927 -0.0414 0.6082
vn 0.7931 -0.0414 0.6077
usemtl Color_009.003
s 1
f 1/1/1 2/2/1 3/3/1
f 2/2/1 1/1/1 4/4/1
f 1/5/2 5/6/2 4/7/2
f 5/6/2 1/5/2 6/8/2
f 3/9/3 6/10/4 1/11/3
f 6/10/4 3/9/3 7/12/4
f 2/13/5 7/14/6 3/15/5
f 7/14/6 2/13/5 8/16/6
f 9/17/7 8/18/7 2/19/7
f 8/18/7 9/17/7 10/20/7
f 11/21/8 10/22/9 9/23/8
f 10/22/9 11/21/8 12/24/9
f 11/25/10 13/26/11 12/27/11
f 13/26/11 11/25/10 14/28/10
f 11/29/1 15/30/1 14/31/1
f 11/29/1 16/32/1 15/30/1
f 9/33/1 16/32/1 11/29/1
f 9/33/1 4/4/1 16/32/1
f 2/2/1 4/4/1 9/33/1
f 4/34/12 17/35/13 16/36/12
f 17/35/13 4/34/12 5/37/13
f 5/38/14 12/39/14 17/40/14
f 5/38/14 10/41/14 12/39/14
f 6/42/14 10/41/14 5/38/14
f 6/42/14 8/43/14 10/41/14
f 8/43/14 6/42/14 7/44/14
f 17/40/14 12/39/14 13/45/14
f 17/40/14 13/45/14 18/46/14
f 18/46/14 13/45/14 19/47/14
f 14/48/15 19/49/16 13/50/16
f 19/49/16 14/48/15 20/51/15
f 14/31/1 15/30/1 20/52/1
f 20/52/1 15/30/1 21/53/1
f 18/54/17 21/55/18 15/56/18
f 21/55/18 18/54/17 22/57/17
f 18/46/14 19/47/14 22/58/14
f 22/58/14 19/47/14 23/59/14
f 20/60/19 23/61/20 19/62/20
f 23/61/20 20/60/19 24/63/21
f 20/52/1 25/64/1 24/65/1
f 20/52/1 21/53/1 25/64/1
f 22/66/22 25/67/23 21/68/23
f 25/67/23 22/66/22 26/69/22
f 22/58/14 23/59/14 26/70/14
f 26/70/14 23/59/14 27/71/14
f 24/63/24 27/72/25 23/61/25
f 27/72/25 24/63/24 28/73/24
f 24/65/1 29/74/1 28/75/1
f 24/65/1 25/64/1 29/74/1
f 26/76/26 29/77/27 25/78/27
f 29/77/27 26/76/26 30/79/28
f 26/70/14 27/71/14 30/80/14
f 30/80/14 27/71/14 31/81/14
f 28/82/29 31/83/30 27/84/30
f 31/83/30 28/82/29 32/85/29
f 28/75/1 29/74/1 32/86/1
f 32/86/1 29/74/1 33/87/1
f 30/88/31 33/89/32 29/90/32
f 33/89/32 30/88/31 34/91/31
f 30/80/14 31/81/14 34/92/14
f 34/92/14 31/81/14 35/93/14
f 32/94/33 35/95/34 31/96/34
f 35/95/34 32/94/33 36/97/33
f 32/86/1 33/87/1 36/98/1
f 36/98/1 33/87/1 37/99/1
f 34/100/35 37/101/36 33/102/36
f 37/101/36 34/100/35 38/103/35
f 34/92/14 35/93/14 38/104/14
f 38/104/14 35/93/14 39/105/14
f 36/106/37 39/107/38 35/108/39
f 39/107/38 36/106/37 40/109/37
f 36/98/1 41/110/1 40/111/1
f 36/98/1 37/99/1 41/110/1
f 38/112/40 41/113/41 37/114/41
f 41/113/41 38/112/40 42/115/40
f 38/104/14 39/105/14 42/116/14
f 42/116/14 39/105/14 43/117/14
f 40/118/42 43/119/43 39/120/43
f 43/119/43 40/118/42 44/121/44
f 40/111/1 45/122/1 44/123/1
f 40/111/1 41/110/1 45/122/1
f 42/124/45 45/125/46 41/126/46
f 45/125/46 42/124/45 46/127/45
f 42/116/14 43/117/14 46/128/14
f 46/128/14 43/117/14 47/129/14
f 44/130/47 47/131/47 43/132/47
f 47/131/47 44/130/47 48/133/47
f 44/123/1 45/122/1 48/134/1
f 46/135/48 48/136/49 45/137/49
f 48/136/49 46/135/48 47/138/48
f 15/139/50 17/140/51 18/141/52
f 17/140/51 15/139/50 16/142/50