# Blender v3.0.1 OBJ File: ''
# www.blender.org
mtllib 04.mtl
o model_normalized.004_model_normalized.006
v 0.328390 -0.119286 0.272705
v 0.316067 -0.119286 0.272705
v 0.322229 -0.119286 0.273516
v 0.334132 -0.119286 0.270328
v 0.336109 -0.589589 0.375628
v 0.339339 -0.589589 0.374542
v 0.339062 -0.119286 0.266544
v 0.342112 -0.589589 0.372814
v 0.342845 -0.119286 0.261613
v 0.344240 -0.589589 0.370562
v 0.345223 -0.119286 0.255873
v 0.345578 -0.589589 0.367940
v 0.346034 -0.119286 0.249711
v 0.346034 -0.589589 0.365125
v 0.345223 -0.119286 0.243550
v 0.345578 -0.589589 0.362311
v 0.342845 -0.119286 0.237808
v 0.344240 -0.589589 0.359689
v 0.339062 -0.119286 0.232879
v 0.342112 -0.589589 0.357437
v 0.339339 -0.589589 0.355709
v 0.325948 -0.589589 0.355709
v 0.323175 -0.589589 0.357437
v 0.321047 -0.589589 0.359689
v 0.319709 -0.589589 0.362311
v 0.319253 -0.589589 0.365125
v 0.319709 -0.589589 0.367940
v 0.321047 -0.589589 0.370562
v 0.323175 -0.589589 0.372814
v 0.325948 -0.589589 0.374542
v 0.329178 -0.589589 0.375628
v 0.332644 -0.589589 0.375999
v 0.310326 -0.119286 0.270328
v 0.305396 -0.119286 0.266544
v 0.301613 -0.119286 0.261613
v 0.299234 -0.119286 0.255873
v 0.298423 -0.119286 0.249711
v 0.299234 -0.119286 0.243550
v 0.301613 -0.119286 0.237808
v 0.305396 -0.119286 0.232879
v 0.334132 -0.119286 0.229095
v 0.336109 -0.589589 0.354622
v 0.329178 -0.589589 0.354622
v 0.316067 -0.119286 0.226716
v 0.310326 -0.119286 0.229095
v 0.328390 -0.119286 0.226716
v 0.332644 -0.589589 0.354252
v 0.322229 -0.119286 0.225905
vt -0.020123 0.743397
vt -0.020123 0.437705
vt 0.000000 0.590551
vt -0.079119 0.885827
vt 0.105659 9.068310
vt -0.848675 0.071885
vt -0.694510 0.071885
vt -0.163066 9.070010
vt -0.864828 0.057341
vt -0.078539 9.070010
vt 0.720407 9.033180
vt -0.905103 0.113772
vt -0.750938 0.113772
vt 0.382834 9.054090
vt -0.947100 0.098246
vt 0.463895 9.054090
vt 1.294500 8.951080
vt -0.905103 0.131099
vt -0.750938 0.131099
vt 0.969175 8.990380
vt -0.971476 0.126971
vt 1.046040 8.990380
vt 1.789240 8.837390
vt -0.848675 0.110588
vt -0.694510 0.110588
vt 1.555060 8.875480
vt -0.917450 0.121287
vt 1.628100 8.875480
vt 2.169670 8.716270
vt -0.739664 0.046889
vt -0.585499 0.046889
vt 2.054270 8.730130
vt -0.771960 0.056599
vt 2.124990 8.730130
vt 2.407300 8.615680
vt -0.585499 -0.053801
vt -0.431334 -0.053801
vt 2.361580 8.606280
vt -0.548015 -0.067496
vt 2.432310 8.606280
vt 2.482740 8.559510
vt -0.396686 -0.173930
vt -0.242522 -0.173930
vt 2.420730 8.552830
vt -0.288362 -0.212093
vt 2.493770 8.552830
vt 2.387870 8.559540
vt -0.186093 -0.289623
vt -0.031929 -0.289623
vt 2.257520 8.573850
vt -0.040340 -0.330850
vt 2.334380 8.573850
vt 2.020800 8.641410
vt 1.939740 8.641410
vt 0.322491 -0.396816
vt -2.081840 1.083810
vt -2.038970 0.682825
vt -2.038970 1.015010
vt -2.081840 0.614027
vt -2.137710 1.136600
vt -2.137710 0.561237
vt -2.202760 1.169780
vt -2.202760 0.528051
vt -2.272580 1.181100
vt -2.272580 0.516732
vt -2.342390 1.169780
vt -2.342390 0.528051
vt -2.407450 1.136600
vt -2.407450 0.561237
vt -2.463320 1.083810
vt -2.463320 0.614027
vt -2.506180 1.015010
vt -2.506180 0.682825
vt -2.533130 0.934893
vt -2.533130 0.762942
vt -2.542320 0.848917
vt -0.660323 9.048300
vt -0.741324 0.016722
vt -0.573858 9.048300
vt -0.509815 9.052010
vt -0.739664 0.021804
vt -0.585499 0.021804
vt -1.114360 8.997710
vt -0.587205 -0.017412
vt -1.027890 8.997710
vt -1.087050 8.990650
vt -0.585499 -0.021289
vt -0.431334 -0.021289
vt -1.530700 8.924820
vt -0.408451 -0.040979
vt -1.446180 8.924820
vt -1.589920 8.899830
vt -0.396686 -0.046598
vt -0.242522 -0.046598
vt -0.079119 0.295276
vt -0.172968 1.008130
vt -0.172968 0.172968
vt -0.295276 1.101980
vt -0.295276 0.079119
vt -0.437705 1.160980
vt -0.437705 0.020123
vt -0.590551 1.181100
vt -0.590551 0.000000
vt -0.743397 1.160980
vt -0.743397 0.020123
vt -0.885827 0.079119
vt -0.885827 1.101980
vt -1.008130 1.008130
vt -1.008130 0.172968
vt -1.101980 0.885827
vt 2.046510 8.611940
vt 0.031929 -0.379385
vt 0.186093 -0.379385
vt 1.612080 8.719510
vt 1.527550 8.719510
vt 0.488288 -0.425958
vt -2.012020 0.762942
vt -2.012020 0.934893
vt 0.081690 8.878400
vt -0.002837 8.878400
vt 0.784991 -0.324816
vt -0.149433 8.882150
vt 0.694510 -0.300641
vt 0.848675 -0.300641
vt -0.498750 8.879650
vt -0.579810 8.879650
vt 0.833375 -0.245123
vt -0.780203 8.870370
vt 0.750938 -0.208078
vt 0.905103 -0.208078
vt -1.277840 8.825270
vt 0.750938 -0.118852
vt 0.905103 -0.118852
vt -1.168280 8.846390
vt 0.698186 -0.148642
vt -1.091420 8.846390
vt -1.760210 8.760040
vt 0.694510 -0.048373
vt 0.848675 -0.048373
vt -1.722280 8.779910
vt 0.671363 -0.064778
vt -1.649250 8.779910
vt -2.114990 8.698970
vt 0.585499 -0.007863
vt 0.739664 -0.007863
vt -2.160590 8.704870
vt 0.582940 -0.010500
vt -2.089860 8.704870
vt -2.320580 8.663760
vt 0.431334 0.001233
vt 0.585499 0.001233
vt -2.396710 8.662190
vt 0.428843 0.000586
vt -2.325980 8.662190
vt -2.366170 8.669060
vt 0.242522 -0.012746
vt 0.396686 -0.012746
vt -2.399580 8.679370
vt 0.227081 -0.018790
vt -2.326550 8.679370
vt -2.251620 8.718000
vt 0.031929 -0.034989
vt 0.186093 -0.034989
vt -2.212140 8.747200
vt 0.006921 -0.041456
vt -2.135280 8.747200
vt -1.986710 8.801240
vt -0.186093 -0.049950
vt -0.031929 -0.049950
vt -1.904890 8.836930
vt -0.208767 -0.049984
vt -1.823830 8.836930
vt -1.101980 0.295276
vt -1.160980 0.437705
vt -1.160980 0.743397
vt 1.633700 8.695550
vt 0.242522 -0.425272
vt 0.396686 -0.425272
vt 1.143470 8.791460
vt 1.057010 8.791460
vt 0.615773 -0.419748
vt -2.002830 0.848917
vt 0.631206 8.846800
vt 0.544740 8.846800
vt 0.712757 -0.384543
vt 0.493793 8.851710
vt 0.585499 -0.377887
vt 0.739664 -0.377887
vt -1.181100 0.590551
vt 1.103080 8.783900
vt 0.431334 -0.423333
vt 0.585499 -0.423333
vn 0.0000 1.0000 0.0000
vn 0.3744 0.2041 0.9045
vn 0.3117 0.2089 0.9270
vn 0.5990 0.1796 0.7804
vn 0.5191 0.1916 0.8330
vn 0.7855 0.1413 0.6026
vn 0.7176 0.1592 0.6780
vn 0.9200 0.0910 0.3812
vn 0.8857 0.1082 0.4515
vn 0.8855 0.1083 0.4519
vn 0.9909 0.0318 0.1304
vn 0.9864 0.0392 0.1598
vn 0.9909 -0.0320 -0.1304
vn 0.9863 -0.0396 -0.1598
vn 0.9197 -0.0955 -0.3809
vn 0.8849 -0.1144 -0.4515
vn 0.7839 -0.1536 -0.6016
vn 0.7157 -0.1745 -0.6763
vn 0.5164 -0.2161 -0.8286
vn 0.0000 -1.0000 -0.0000
vn 0.0000 -1.0000 -0.0004
vn 0.1040 0.2143 0.9712
vn 0.1275 0.2139 0.9685
vn -0.1041 0.2096 0.9722
vn -0.1276 0.2086 0.9696
vn -0.3126 0.1948 0.9297
vn -0.3757 0.1886 0.9074
vn 0.5963 -0.2025 -0.7768
vn 0.3093 -0.2440 -0.9191
vn -0.3082 -0.2577 -0.9158
vn -0.3704 -0.2529 -0.8938
vn -0.5136 -0.2389 -0.8241
vn -0.5930 -0.2270 -0.7726
vn -0.7792 -0.1878 -0.5980
vn -0.7116 -0.2037 -0.6724
vn -0.9153 -0.1361 -0.3792
vn -0.8804 -0.1518 -0.4493
vn -0.9886 -0.0759 -0.1301
vn -0.9837 -0.0827 -0.1594
vn -0.9914 -0.0119 0.1305
vn -0.9871 -0.0049 0.1599
vn -0.9228 0.0507 0.3820
vn -0.9228 0.0507 0.3818
vn -0.8886 0.0683 0.4535
vn -0.7888 0.1076 0.6052
vn -0.7210 0.1267 0.6813
vn -0.6016 0.1544 0.7838
vn -0.5213 0.1681 0.8366
vn 0.3718 -0.2379 -0.8973
vn 0.1025 -0.2595 -0.9603
vn 0.0000 -1.0000 -0.0002
vn -0.1024 -0.2640 -0.9591
vn -0.1259 -0.2636 -0.9564
vn 0.1261 -0.2586 -0.9577
usemtl Color_009
s 1
f 1/1/1 2/2/1 3/3/1
f 2/2/1 1/1/1 4/4/1
f 5/5/2 4/6/2 1/7/2
f 6/8/3 4/9/3 5/10/3
f 6/11/4 7/12/4 4/13/4
f 8/14/5 7/15/5 6/16/5
f 8/17/6 9/18/6 7/19/6
f 10/20/7 9/21/7 8/22/7
f 10/23/8 11/24/8 9/25/8
f 12/26/9 11/27/9 10/28/10
f 12/29/11 13/30/11 11/31/11
f 14/32/12 13/33/12 12/34/12
f 14/35/13 15/36/13 13/37/13
f 16/38/14 15/39/14 14/40/14
f 16/41/15 17/42/15 15/43/15
f 18/44/16 17/45/16 16/46/16
f 18/47/17 19/48/17 17/49/17
f 20/50/18 19/51/18 18/52/18
f 20/53/19 21/54/19 19/55/19
f 20/56/20 22/57/20 21/58/20
f 20/56/20 23/59/20 22/57/20
f 18/60/20 23/59/20 20/56/20
f 18/60/20 24/61/20 23/59/20
f 16/62/20 24/61/20 18/60/20
f 16/62/20 25/63/20 24/61/20
f 14/64/20 25/63/20 16/62/20
f 14/64/20 26/65/20 25/63/20
f 12/66/20 26/65/20 14/64/20
f 12/66/20 27/67/20 26/65/20
f 10/68/20 27/67/20 12/66/20
f 10/68/20 28/69/20 27/67/20
f 8/70/20 28/69/20 10/68/20
f 8/70/20 29/71/20 28/69/20
f 6/72/20 29/71/20 8/70/20
f 6/72/20 30/73/20 29/71/20
f 5/74/20 30/73/20 6/72/20
f 5/74/20 31/75/20 30/73/20
f 31/75/20 5/74/20 32/76/21
f 5/77/22 1/78/22 32/79/22
f 32/80/23 1/81/23 3/82/23
f 32/83/24 3/84/24 31/85/24
f 31/86/25 3/87/25 2/88/25
f 31/89/26 2/90/26 30/91/26
f 30/92/27 2/93/27 33/94/27
f 2/2/1 4/4/1 33/95/1
f 33/95/1 4/4/1 7/96/1
f 33/95/1 7/96/1 34/97/1
f 34/97/1 7/96/1 9/98/1
f 34/97/1 9/98/1 35/99/1
f 35/99/1 9/98/1 11/100/1
f 35/99/1 11/100/1 36/101/1
f 36/101/1 11/100/1 13/102/1
f 36/101/1 13/102/1 37/103/1
f 37/103/1 13/102/1 15/104/1
f 37/103/1 15/104/1 38/105/1
f 38/105/1 15/104/1 39/106/1
f 39/106/1 15/104/1 17/107/1
f 39/106/1 17/107/1 19/108/1
f 39/106/1 19/108/1 40/109/1
f 40/109/1 19/108/1 41/110/1
f 21/111/28 41/112/28 19/113/28
f 21/114/29 42/115/29 41/116/29
f 21/58/20 43/117/20 42/118/20
f 21/58/20 22/57/20 43/117/20
f 43/119/30 22/120/30 44/121/30
f 22/122/31 45/123/31 44/124/31
f 22/125/32 23/126/32 45/127/32
f 23/128/33 40/129/33 45/130/33
f 23/131/34 39/132/34 40/133/34
f 24/134/35 39/135/35 23/136/35
f 24/137/36 38/138/36 39/139/36
f 25/140/37 38/141/37 24/142/37
f 25/143/38 37/144/38 38/145/38
f 26/146/39 37/147/39 25/148/39
f 26/149/40 36/150/40 37/151/40
f 27/152/41 36/153/41 26/154/41
f 27/155/42 35/156/42 36/157/43
f 28/158/44 35/159/44 27/160/44
f 28/161/45 34/162/45 35/163/45
f 29/164/46 34/165/46 28/166/46
f 29/167/47 33/168/47 34/169/47
f 30/170/48 33/171/48 29/172/48
f 40/109/1 41/110/1 45/173/1
f 45/173/1 41/110/1 44/174/1
f 44/174/1 41/110/1 46/175/1
f 42/176/49 46/177/49 41/178/49
f 42/179/50 47/180/50 46/181/50
f 42/118/20 43/117/20 47/182/51
f 47/183/52 43/184/52 48/185/52
f 43/186/53 44/187/53 48/188/53
f 44/174/1 46/175/1 48/189/1
f 47/190/54 48/191/54 46/192/54