# Blender v3.0.1 OBJ File: 'anno.blend'
# www.blender.org
mtllib 00.mtl
o model
v 0.519104 -0.667418 -0.533937
v 0.468677 -0.667418 -0.483510
v 0.468677 -0.667418 -0.533937
v 0.519104 -0.667418 -0.483510
v 0.519104 -0.667418 -0.483510
v 0.519104 -0.667418 -0.533937
v 0.468677 -0.667418 -0.483510
v 0.468677 -0.667418 -0.533937
v 0.519104 0.667418 -0.483510
v 0.468677 -0.667418 -0.483510
v 0.519104 -0.667418 -0.483510
v 0.468677 0.667418 -0.483510
v 0.468677 0.667418 -0.483510
v 0.519104 0.667418 -0.483510
v 0.468677 -0.667418 -0.483510
v 0.519104 -0.667418 -0.483510
v 0.468677 0.667418 -0.533937
v 0.468677 -0.667418 -0.483510
v 0.468677 0.667418 -0.483510
v 0.468677 -0.667418 -0.533937
v 0.468677 -0.667418 -0.533937
v 0.468677 0.667418 -0.533937
v 0.468677 -0.667418 -0.483510
v 0.468677 0.667418 -0.483510
v 0.468677 0.667418 -0.533937
v 0.519104 -0.667418 -0.533937
v 0.468677 -0.667418 -0.533937
v 0.519104 0.667418 -0.533937
v 0.519104 0.667418 -0.533937
v 0.468677 0.667418 -0.533937
v 0.519104 -0.667418 -0.533937
v 0.468677 -0.667418 -0.533937
v 0.519104 -0.667418 -0.533937
v 0.519104 0.667418 -0.483510
v 0.519104 -0.667418 -0.483510
v 0.519104 0.667418 -0.533937
v 0.519104 0.667418 -0.533937
v 0.519104 -0.667418 -0.533937
v 0.519104 0.667418 -0.483510
v 0.519104 -0.667418 -0.483510
v 0.519104 0.667418 -0.483510
v 0.468677 0.667418 -0.533937
v 0.468677 0.667418 -0.483510
v 0.519104 0.667418 -0.533937
v 0.519104 0.667418 -0.533937
v 0.519104 0.667418 -0.483510
v 0.468677 0.667418 -0.533937
v 0.468677 0.667418 -0.483510
v -0.468675 -0.667418 -0.533937
v -0.519102 -0.667418 -0.483510
v -0.519102 -0.667418 -0.533937
v -0.468675 -0.667418 -0.483510
v -0.468675 -0.667418 -0.483510
v -0.468675 -0.667418 -0.533937
v -0.519102 -0.667418 -0.483510
v -0.519102 -0.667418 -0.533937
v -0.468675 0.667418 -0.483510
v -0.519102 -0.667418 -0.483510
v -0.468675 -0.667418 -0.483510
v -0.519102 0.667418 -0.483510
v -0.519102 0.667418 -0.483510
v -0.468675 0.667418 -0.483510
v -0.519102 -0.667418 -0.483510
v -0.468675 -0.667418 -0.483510
v -0.519102 0.667418 -0.533937
v -0.519102 -0.667418 -0.483510
v -0.519102 0.667418 -0.483510
v -0.519102 -0.667418 -0.533937
v -0.519102 -0.667418 -0.533937
v -0.519102 0.667418 -0.533937
v -0.519102 -0.667418 -0.483510
v -0.519102 0.667418 -0.483510
v -0.519102 0.667418 -0.533937
v -0.468675 -0.667418 -0.533937
v -0.519102 -0.667418 -0.533937
v -0.468675 0.667418 -0.533937
v -0.468675 0.667418 -0.533937
v -0.519102 0.667418 -0.533937
v -0.468675 -0.667418 -0.533937
v -0.519102 -0.667418 -0.533937
v -0.468675 -0.667418 -0.533937
v -0.468675 0.667418 -0.483510
v -0.468675 -0.667418 -0.483510
v -0.468675 0.667418 -0.533937
v -0.468675 0.667418 -0.533937
v -0.468675 -0.667418 -0.533937
v -0.468675 0.667418 -0.483510
v -0.468675 -0.667418 -0.483510
v -0.468675 0.667418 -0.483510
v -0.519102 0.667418 -0.533937
v -0.519102 0.667418 -0.483510
v -0.468675 0.667418 -0.533937
v -0.468675 0.667418 -0.533937
v -0.468675 0.667418 -0.483510
v -0.519102 0.667418 -0.533937
v -0.519102 0.667418 -0.483510
v 0.474609 0.652586 -0.483510
v 0.519104 0.519103 -0.483510
v 0.474609 0.519103 -0.483510
v 0.519104 0.652586 -0.483510
v 0.519104 0.652586 -0.483510
v 0.474609 0.652586 -0.483510
v 0.519104 0.519103 -0.483510
v 0.474609 0.519103 -0.483510
v -0.519102 0.652586 -0.483510
v -0.474607 0.519103 -0.483510
v -0.519102 0.519103 -0.483510
v -0.474607 0.652586 -0.483510
v -0.474607 0.652586 -0.483510
v -0.519102 0.652586 -0.483510
v -0.474607 0.519103 -0.483510
v -0.519102 0.519103 -0.483510
v 0.474609 0.652586 -0.489442
v 0.468677 0.519103 -0.489442
v 0.474609 0.519103 -0.489442
v 0.468677 0.652586 -0.489442
v 0.468677 0.652586 -0.489442
v 0.474609 0.652586 -0.489442
v 0.468677 0.519103 -0.489442
v 0.474609 0.519103 -0.489442
v -0.468675 0.652586 -0.489442
v -0.474607 0.519103 -0.489442
v -0.468675 0.519103 -0.489442
v -0.474607 0.652586 -0.489442
v -0.474607 0.652586 -0.489442
v -0.468675 0.652586 -0.489442
v -0.474607 0.519103 -0.489442
v -0.468675 0.519103 -0.489442
v 0.468677 0.519103 -0.533937
v 0.468677 0.652586 -0.489442
v 0.468677 0.519103 -0.489442
v 0.468677 0.652586 -0.533937
v 0.468677 0.652586 -0.533937
v 0.468677 0.519103 -0.533937
v 0.468677 0.652586 -0.489442
v 0.468677 0.519103 -0.489442
v -0.468675 0.652586 -0.533937
v -0.468675 0.519103 -0.489442
v -0.468675 0.652586 -0.489442
v -0.468675 0.519103 -0.533937
v -0.468675 0.519103 -0.533937
v -0.468675 0.652586 -0.533937
v -0.468675 0.519103 -0.489442
v -0.468675 0.652586 -0.489442
v -0.468675 0.652586 -0.533937
v 0.468677 0.519103 -0.533937
v -0.468675 0.519103 -0.533937
v 0.468677 0.652586 -0.533937
v 0.468677 0.652586 -0.533937
v -0.468675 0.652586 -0.533937
v 0.468677 0.519103 -0.533937
v -0.468675 0.519103 -0.533937
v 0.468677 0.652586 -0.489442
v -0.468675 0.652586 -0.533937
v -0.468675 0.652586 -0.489442
v 0.468677 0.652586 -0.533937
v 0.468677 0.652586 -0.533937
v 0.468677 0.652586 -0.489442
v -0.468675 0.652586 -0.533937
v -0.468675 0.652586 -0.489442
v 0.468677 0.519103 -0.533937
v -0.468675 0.519103 -0.489442
v -0.468675 0.519103 -0.533937
v 0.468677 0.519103 -0.489442
v 0.468677 0.519103 -0.489442
v 0.468677 0.519103 -0.533937
v -0.468675 0.519103 -0.489442
v -0.468675 0.519103 -0.533937
v 0.474609 -0.133483 -0.483510
v 0.519104 -0.192809 -0.483510
v 0.474609 -0.192809 -0.483510
v 0.519104 -0.133483 -0.483510
v 0.519104 -0.133483 -0.483510
v 0.474609 -0.133483 -0.483510
v 0.519104 -0.192809 -0.483510
v 0.474609 -0.192809 -0.483510
v -0.468675 -0.133483 -0.533937
v -0.468675 -0.192809 -0.489442
v -0.468675 -0.133483 -0.489442
v -0.468675 -0.192809 -0.533937
v -0.468675 -0.192809 -0.533937
v -0.468675 -0.133483 -0.533937
v -0.468675 -0.192809 -0.489442
v -0.468675 -0.133483 -0.489442
v 0.468677 -0.192809 -0.533937
v 0.468677 -0.133483 -0.489442
v 0.468677 -0.192809 -0.489442
v 0.468677 -0.133483 -0.533937
v 0.468677 -0.133483 -0.533937
v 0.468677 -0.192809 -0.533937
v 0.468677 -0.133483 -0.489442
v 0.468677 -0.192809 -0.489442
v -0.519102 -0.133483 -0.483510
v -0.474607 -0.192809 -0.483510
v -0.519102 -0.192809 -0.483510
v -0.474607 -0.133483 -0.483510
v -0.474607 -0.133483 -0.483510
v -0.519102 -0.133483 -0.483510
v -0.474607 -0.192809 -0.483510
v -0.519102 -0.192809 -0.483510
v -0.468675 0.637755 -0.483510
v 0.468676 0.634788 -0.483510
v -0.468675 0.634788 -0.483510
v 0.468676 0.637755 -0.483510
v 0.468676 0.637755 -0.483510
v -0.468675 0.637755 -0.483510
v 0.468676 0.634788 -0.483510
v -0.468675 0.634788 -0.483510
v -0.468675 -0.133483 -0.533937
v 0.468677 -0.192809 -0.533937
v -0.468675 -0.192809 -0.533937
v 0.468677 -0.133483 -0.533937
v 0.468677 -0.133483 -0.533937
v -0.468675 -0.133483 -0.533937
v 0.468677 -0.192809 -0.533937
v -0.468675 -0.192809 -0.533937
v 0.468677 -0.192809 -0.533937
v -0.468675 -0.192809 -0.489443
v -0.468675 -0.192809 -0.533937
v 0.468677 -0.192809 -0.489443
v 0.468677 -0.192809 -0.489443
v 0.468677 -0.192809 -0.533937
v -0.468675 -0.192809 -0.489443
v -0.468675 -0.192809 -0.533937
v 0.468677 -0.133483 -0.489443
v -0.468675 -0.192809 -0.489443
v 0.468677 -0.192809 -0.489443
v -0.468675 -0.133483 -0.489443
v -0.468675 -0.133483 -0.489443
v 0.468677 -0.133483 -0.489443
v -0.468675 -0.192809 -0.489443
v 0.468677 -0.192809 -0.489443
v 0.468677 -0.133483 -0.489443
v -0.468675 -0.133483 -0.533937
v -0.468675 -0.133483 -0.489443
v 0.468677 -0.133483 -0.533937
v 0.468677 -0.133483 -0.533937
v 0.468677 -0.133483 -0.489443
v -0.468675 -0.133483 -0.533937
v -0.468675 -0.133483 -0.489443
vt -0.011184 0.022368
vt 0.000000 0.000000
vt 0.000000 0.022368
vt -0.011184 0.000000
vt -0.011184 0.000000
vt -0.011184 0.022368
vt 0.000000 0.000000
vt 0.000000 0.022368
vt 0.011184 0.592105
vt 0.000000 0.000000
vt 0.011184 0.000000
vt 0.000000 0.592105
vt 0.000000 0.592105
vt 0.011184 0.592105
vt 0.000000 0.000000
vt 0.011184 0.000000
vt -0.011184 0.592105
vt 0.000000 0.000000
vt 0.000000 0.592105
vt -0.011184 0.000000
vt -0.011184 0.000000
vt -0.011184 0.592105
vt 0.000000 0.000000
vt 0.000000 0.592105
vt 0.000000 0.592105
vt -0.011184 0.000000
vt 0.000000 0.000000
vt -0.011184 0.592105
vt -0.011184 0.592105
vt 0.000000 0.592105
vt -0.011184 0.000000
vt 0.000000 0.000000
vt 0.011184 0.000000
vt 0.000000 0.592105
vt 0.000000 0.000000
vt 0.011184 0.592105
vt 0.011184 0.592105
vt 0.011184 0.000000
vt 0.000000 0.592105
vt 0.000000 0.000000
vt 0.011184 0.000000
vt 0.000000 0.022368
vt 0.000000 0.000000
vt 0.011184 0.022368
vt 0.011184 0.022368
vt 0.011184 0.000000
vt 0.000000 0.022368
vt 0.000000 0.000000
vt -0.011184 0.022368
vt 0.000000 0.000000
vt 0.000000 0.022368
vt -0.011184 0.000000
vt -0.011184 0.000000
vt -0.011184 0.022368
vt 0.000000 0.000000
vt 0.000000 0.022368
vt 0.011184 0.592105
vt 0.000000 0.000000
vt 0.011184 0.000000
vt 0.000000 0.592105
vt 0.000000 0.592105
vt 0.011184 0.592105
vt 0.000000 0.000000
vt 0.011184 0.000000
vt -0.011184 0.592105
vt 0.000000 0.000000
vt 0.000000 0.592105
vt -0.011184 0.000000
vt -0.011184 0.000000
vt -0.011184 0.592105
vt 0.000000 0.000000
vt 0.000000 0.592105
vt 0.000000 0.592105
vt -0.011184 0.000000
vt 0.000000 0.000000
vt -0.011184 0.592105
vt -0.011184 0.592105
vt 0.000000 0.592105
vt -0.011184 0.000000
vt 0.000000 0.000000
vt 0.011184 0.000000
vt 0.000000 0.592105
vt 0.000000 0.000000
vt 0.011184 0.592105
vt 0.011184 0.592105
vt 0.011184 0.000000
vt 0.000000 0.592105
vt 0.000000 0.000000
vt 0.011184 0.000000
vt 0.000000 0.022368
vt 0.000000 0.000000
vt 0.011184 0.022368
vt 0.011184 0.022368
vt 0.011184 0.000000
vt 0.000000 0.022368
vt 0.000000 0.000000
vt -0.220395 0.059211
vt -0.230263 0.000000
vt -0.220395 0.000000
vt -0.230263 0.059211
vt -0.230263 0.059211
vt -0.220395 0.059211
vt -0.230263 0.000000
vt -0.220395 0.000000
vt 0.000000 0.059211
vt -0.009868 0.000000
vt 0.000000 0.000000
vt -0.009868 0.059211
vt -0.009868 0.059211
vt 0.000000 0.059211
vt -0.009868 0.000000
vt 0.000000 0.000000
vt 0.220395 0.059211
vt 0.219079 0.000000
vt 0.220395 0.000000
vt 0.219079 0.059211
vt 0.219079 0.059211
vt 0.220395 0.059211
vt 0.219079 0.000000
vt 0.220395 0.000000
vt 0.011184 0.059211
vt 0.009868 0.000000
vt 0.011184 0.000000
vt 0.009868 0.059211
vt 0.009868 0.059211
vt 0.011184 0.059211
vt 0.009868 0.000000
vt 0.011184 0.000000
vt 0.236842 0.000000
vt 0.226974 0.059211
vt 0.226974 0.000000
vt 0.236842 0.059211
vt 0.236842 0.059211
vt 0.236842 0.000000
vt 0.226974 0.059211
vt 0.226974 0.000000
vt -0.236842 0.059211
vt -0.226974 0.000000
vt -0.226974 0.059211
vt -0.236842 0.000000
vt -0.236842 0.000000
vt -0.236842 0.059211
vt -0.226974 0.000000
vt -0.226974 0.059211
vt -0.011184 0.059211
vt -0.219079 0.000000
vt -0.011184 0.000000
vt -0.219079 0.059211
vt -0.219079 0.059211
vt -0.011184 0.059211
vt -0.219079 0.000000
vt -0.011184 0.000000
vt 0.219079 0.453947
vt 0.011184 0.473684
vt 0.011184 0.453947
vt 0.219079 0.473684
vt 0.219079 0.473684
vt 0.219079 0.453947
vt 0.011184 0.473684
vt 0.011184 0.453947
vt -0.219079 0.473684
vt -0.011184 0.453947
vt -0.011184 0.473684
vt -0.219079 0.453947
vt -0.219079 0.453947
vt -0.219079 0.473684
vt -0.011184 0.453947
vt -0.011184 0.473684
vt -0.220395 0.059211
vt -0.230263 0.032895
vt -0.220395 0.032895
vt -0.230263 0.059211
vt -0.230263 0.059211
vt -0.220395 0.059211
vt -0.230263 0.032895
vt -0.220395 0.032895
vt -0.236842 0.059211
vt -0.226974 0.032895
vt -0.226974 0.059211
vt -0.236842 0.032895
vt -0.236842 0.032895
vt -0.236842 0.059211
vt -0.226974 0.032895
vt -0.226974 0.059211
vt 0.236842 0.032895
vt 0.226974 0.059211
vt 0.226974 0.032895
vt 0.236842 0.059211
vt 0.236842 0.059211
vt 0.236842 0.032895
vt 0.226974 0.059211
vt 0.226974 0.032895
vt 0.000000 0.059211
vt -0.009868 0.032895
vt 0.000000 0.032895
vt -0.009868 0.059211
vt -0.009868 0.059211
vt 0.000000 0.059211
vt -0.009868 0.032895
vt 0.000000 0.032895
vt 0.000000 0.000000
vt 0.000000 0.000000
vt 0.000000 0.000000
vt 0.000000 0.000000
vt 0.000000 0.000000
vt 0.000000 0.000000
vt 0.000000 0.000000
vt 0.000000 0.000000
vt -0.011184 0.059211
vt -0.219079 0.032895
vt -0.011184 0.032895
vt -0.219079 0.059211
vt -0.219079 0.059211
vt -0.011184 0.059211
vt -0.219079 0.032895
vt -0.011184 0.032895
vt -0.219079 0.473684
vt -0.011184 0.453947
vt -0.011184 0.473684
vt -0.219079 0.453947
vt -0.219079 0.453947
vt -0.219079 0.473684
vt -0.011184 0.453947
vt -0.011184 0.473684
vt 0.219079 0.059211
vt 0.011184 0.032895
vt 0.219079 0.032895
vt 0.011184 0.059211
vt 0.011184 0.059211
vt 0.219079 0.059211
vt 0.011184 0.032895
vt 0.219079 0.032895
vt 0.219079 0.453947
vt 0.011184 0.473684
vt 0.011184 0.453947
vt 0.219079 0.473684
vt 0.219079 0.473684
vt 0.219079 0.453947
vt 0.011184 0.473684
vt 0.011184 0.453947
vn 0.0000 -1.0000 0.0000
vn 0.0000 1.0000 0.0000
vn 0.0000 0.0000 1.0000
vn 0.0000 0.0000 -1.0000
vn -1.0000 0.0000 0.0000
vn 1.0000 0.0000 0.0000
usemtl material_0
s 1
f 1/1/1 2/2/1 3/3/1
f 2/2/1 1/1/1 4/4/1
f 5/5/2 6/6/2 7/7/2
f 8/8/2 7/7/2 6/6/2
f 9/9/3 10/10/3 11/11/3
f 10/10/3 9/9/3 12/12/3
f 13/13/4 14/14/4 15/15/4
f 16/16/4 15/15/4 14/14/4
f 17/17/5 18/18/5 19/19/5
f 18/18/5 17/17/5 20/20/5
f 21/21/6 22/22/6 23/23/6
f 24/24/6 23/23/6 22/22/6
f 25/25/4 26/26/4 27/27/4
f 26/26/4 25/25/4 28/28/4
f 29/29/3 30/30/3 31/31/3
f 32/32/3 31/31/3 30/30/3
f 33/33/6 34/34/6 35/35/6
f 34/34/6 33/33/6 36/36/6
f 37/37/5 38/38/5 39/39/5
f 40/40/5 39/39/5 38/38/5
f 41/41/2 42/42/2 43/43/2
f 42/42/2 41/41/2 44/44/2
f 45/45/1 46/46/1 47/47/1
f 48/48/1 47/47/1 46/46/1
f 49/49/1 50/50/1 51/51/1
f 50/50/1 49/49/1 52/52/1
f 53/53/2 54/54/2 55/55/2
f 56/56/2 55/55/2 54/54/2
f 57/57/3 58/58/3 59/59/3
f 58/58/3 57/57/3 60/60/3
f 61/61/4 62/62/4 63/63/4
f 64/64/4 63/63/4 62/62/4
f 65/65/5 66/66/5 67/67/5
f 66/66/5 65/65/5 68/68/5
f 69/69/6 70/70/6 71/71/6
f 72/72/6 71/71/6 70/70/6
f 73/73/4 74/74/4 75/75/4
f 74/74/4 73/73/4 76/76/4
f 77/77/3 78/78/3 79/79/3
f 80/80/3 79/79/3 78/78/3
f 81/81/6 82/82/6 83/83/6
f 82/82/6 81/81/6 84/84/6
f 85/85/5 86/86/5 87/87/5
f 88/88/5 87/87/5 86/86/5
f 89/89/2 90/90/2 91/91/2
f 90/90/2 89/89/2 92/92/2
f 93/93/1 94/94/1 95/95/1
f 96/96/1 95/95/1 94/94/1
f 97/97/4 98/98/4 99/99/4
f 98/98/4 97/97/4 100/100/4
f 101/101/3 102/102/3 103/103/3
f 104/104/3 103/103/3 102/102/3
f 105/105/4 106/106/4 107/107/4
f 106/106/4 105/105/4 108/108/4
f 109/109/3 110/110/3 111/111/3
f 112/112/3 111/111/3 110/110/3
f 113/113/3 114/114/3 115/115/3
f 114/114/3 113/113/3 116/116/3
f 117/117/4 118/118/4 119/119/4
f 120/120/4 119/119/4 118/118/4
f 121/121/3 122/122/3 123/123/3
f 122/122/3 121/121/3 124/124/3
f 125/125/4 126/126/4 127/127/4
f 128/128/4 127/127/4 126/126/4
f 129/129/6 130/130/6 131/131/6
f 130/130/6 129/129/6 132/132/6
f 133/133/5 134/134/5 135/135/5
f 136/136/5 135/135/5 134/134/5
f 116/116/3 123/123/3 114/114/3
f 123/123/3 116/116/3 121/121/3
f 126/126/4 117/117/4 128/128/4
f 119/119/4 128/128/4 117/117/4
f 137/137/5 138/138/5 139/139/5
f 138/138/5 137/137/5 140/140/5
f 141/141/6 142/142/6 143/143/6
f 144/144/6 143/143/6 142/142/6
f 145/145/4 146/146/4 147/147/4
f 146/146/4 145/145/4 148/148/4
f 149/149/3 150/150/3 151/151/3
f 152/152/3 151/151/3 150/150/3
f 153/153/2 154/154/2 155/155/2
f 154/154/2 153/153/2 156/156/2
f 157/157/1 158/158/1 159/159/1
f 160/160/1 159/159/1 158/158/1
f 161/161/1 162/162/1 163/163/1
f 162/162/1 161/161/1 164/164/1
f 165/165/2 166/166/2 167/167/2
f 168/168/2 167/167/2 166/166/2
f 169/169/4 170/170/4 171/171/4
f 170/170/4 169/169/4 172/172/4
f 173/173/3 174/174/3 175/175/3
f 176/176/3 175/175/3 174/174/3
f 177/177/5 178/178/5 179/179/5
f 178/178/5 177/177/5 180/180/5
f 181/181/6 182/182/6 183/183/6
f 184/184/6 183/183/6 182/182/6
f 185/185/6 186/186/6 187/187/6
f 186/186/6 185/185/6 188/188/6
f 189/189/5 190/190/5 191/191/5
f 192/192/5 191/191/5 190/190/5
f 193/193/4 194/194/4 195/195/4
f 194/194/4 193/193/4 196/196/4
f 197/197/3 198/198/3 199/199/3
f 200/200/3 199/199/3 198/198/3
f 201/201/4 202/202/4 203/203/4
f 202/202/4 201/201/4 204/204/4
f 205/205/3 206/206/3 207/207/3
f 208/208/3 207/207/3 206/206/3
f 209/209/4 210/210/4 211/211/4
f 210/210/4 209/209/4 212/212/4
f 213/213/3 214/214/3 215/215/3
f 216/216/3 215/215/3 214/214/3
f 217/217/1 218/218/1 219/219/1
f 218/218/1 217/217/1 220/220/1
f 221/221/2 222/222/2 223/223/2
f 224/224/2 223/223/2 222/222/2
f 225/225/3 226/226/3 227/227/3
f 226/226/3 225/225/3 228/228/3
f 229/229/4 230/230/4 231/231/4
f 232/232/4 231/231/4 230/230/4
f 233/233/2 234/234/2 235/235/2
f 234/234/2 233/233/2 236/236/2
f 237/237/1 238/238/1 239/239/1
f 240/240/1 239/239/1 238/238/1