# Blender v3.0.1 OBJ File: 'anno.blend'
# www.blender.org
mtllib 03.mtl
o model.003_model.004
v 0.474609 -0.163146 0.103818
v 0.474609 -0.148315 0.222470
v 0.474609 -0.163146 0.222470
v 0.474609 -0.148315 0.103818
v 0.474609 -0.148315 0.103818
v 0.474609 -0.163146 0.103818
v 0.474609 -0.148315 0.222470
v 0.474609 -0.163146 0.222470
v 0.474609 -0.148315 -0.118654
v 0.474609 -0.163146 -0.237307
v 0.474609 -0.148315 -0.237307
v 0.474609 -0.163146 -0.118654
v 0.474609 -0.163146 -0.118654
v 0.474609 -0.148315 -0.118654
v 0.474609 -0.163146 -0.237307
v 0.474609 -0.148315 -0.237307
v 0.474609 -0.163146 -0.074160
v 0.474609 -0.148315 0.044492
v 0.474609 -0.163146 0.044492
v 0.474609 -0.148315 -0.074160
v 0.474609 -0.148315 -0.074160
v 0.474609 -0.163146 -0.074160
v 0.474609 -0.148315 0.044492
v 0.474609 -0.163146 0.044492
v 0.519104 -0.192809 -0.483510
v 0.519104 -0.133483 0.483505
v 0.519104 -0.192809 0.483505
v 0.519104 -0.133483 -0.483510
v 0.519104 -0.133483 -0.483510
v 0.519104 -0.192809 -0.483510
v 0.519104 -0.133483 0.483505
v 0.519104 -0.192809 0.483505
v 0.519104 -0.133483 0.483505
v 0.474609 -0.133483 -0.483510
v 0.474609 -0.133483 0.483505
v 0.519104 -0.133483 -0.483510
v 0.519104 -0.133483 -0.483510
v 0.519104 -0.133483 0.483505
v 0.474609 -0.133483 -0.483510
v 0.474609 -0.133483 0.483505
v 0.474609 -0.133483 -0.483510
v 0.474609 -0.192809 0.483505
v 0.474609 -0.133483 0.483505
v 0.474609 -0.192809 -0.483510
v 0.474609 -0.192809 -0.483510
v 0.474609 -0.133483 -0.483510
v 0.474609 -0.192809 0.483505
v 0.474609 -0.133483 0.483505
v 0.519104 -0.192809 -0.483510
v 0.474609 -0.192809 0.483505
v 0.474609 -0.192809 -0.483510
v 0.519104 -0.192809 0.483505
v 0.519104 -0.192809 0.483505
v 0.519104 -0.192809 -0.483510
v 0.474609 -0.192809 0.483505
v 0.474609 -0.192809 -0.483510
vt 0.026316 0.000000
vt 0.000000 0.006579
vt 0.000000 0.000000
vt 0.026316 0.006579
vt 0.026316 0.006579
vt 0.026316 0.000000
vt 0.000000 0.006579
vt 0.000000 0.000000
vt -0.026316 0.006579
vt 0.000000 0.000000
vt 0.000000 0.006579
vt -0.026316 0.000000
vt -0.026316 0.000000
vt -0.026316 0.006579
vt 0.000000 0.000000
vt 0.000000 0.006579
vt 0.026316 0.000000
vt 0.000000 0.006579
vt 0.000000 0.000000
vt 0.026316 0.006579
vt 0.026316 0.006579
vt 0.026316 0.000000
vt 0.000000 0.006579
vt 0.000000 0.000000
vt 0.225658 0.032895
vt 0.011184 0.059211
vt 0.011184 0.032895
vt 0.225658 0.059211
vt 0.225658 0.059211
vt 0.225658 0.032895
vt 0.011184 0.059211
vt 0.011184 0.032895
vt 0.230263 0.022368
vt 0.220395 0.451316
vt 0.220395 0.022368
vt 0.230263 0.451316
vt 0.230263 0.451316
vt 0.230263 0.022368
vt 0.220395 0.451316
vt 0.220395 0.022368
vt -0.225658 0.059211
vt -0.011184 0.032895
vt -0.011184 0.059211
vt -0.225658 0.032895
vt -0.225658 0.032895
vt -0.225658 0.059211
vt -0.011184 0.032895
vt -0.011184 0.059211
vt -0.230263 0.451316
vt -0.220395 0.022368
vt -0.220395 0.451316
vt -0.230263 0.022368
vt -0.230263 0.022368
vt -0.230263 0.451316
vt -0.220395 0.022368
vt -0.220395 0.451316
vn 1.0000 0.0000 0.0000
vn -1.0000 0.0000 0.0000
vn 0.0000 1.0000 0.0000
vn 0.0000 -1.0000 0.0000
usemtl material_0
s 1
f 1/1/1 2/2/1 3/3/1
f 2/2/1 1/1/1 4/4/1
f 5/5/2 6/6/2 7/7/2
f 8/8/2 7/7/2 6/6/2
f 9/9/1 10/10/1 11/11/1
f 10/10/1 9/9/1 12/12/1
f 13/13/2 14/14/2 15/15/2
f 16/16/2 15/15/2 14/14/2
f 17/17/1 18/18/1 19/19/1
f 18/18/1 17/17/1 20/20/1
f 21/21/2 22/22/2 23/23/2
f 24/24/2 23/23/2 22/22/2
f 25/25/1 26/26/1 27/27/1
f 26/26/1 25/25/1 28/28/1
f 29/29/2 30/30/2 31/31/2
f 32/32/2 31/31/2 30/30/2
f 33/33/3 34/34/3 35/35/3
f 34/34/3 33/33/3 36/36/3
f 37/37/4 38/38/4 39/39/4
f 40/40/4 39/39/4 38/38/4
f 41/41/2 42/42/2 43/43/2
f 42/42/2 41/41/2 44/44/2
f 45/45/1 46/46/1 47/47/1
f 48/48/1 47/47/1 46/46/1
f 49/49/4 50/50/4 51/51/4
f 50/50/4 49/49/4 52/52/4
f 53/53/3 54/54/3 55/55/3
f 56/56/3 55/55/3 54/54/3