# Blender v3.0.1 OBJ File: 'anno.blend'
# www.blender.org
mtllib 04.mtl
o model.005_model.009
v 0.474609 0.652586 0.483505
v 0.474609 0.519103 0.489437
v 0.474609 0.652586 0.489437
v 0.474609 0.519103 0.483505
v 0.474609 0.519103 0.483505
v 0.474609 0.652586 0.483505
v 0.474609 0.519103 0.489437
v 0.474609 0.652586 0.489437
v 0.474609 0.652586 -0.483510
v 0.474609 0.519103 -0.483510
v 0.474609 0.519103 -0.483510
v 0.474609 0.652586 -0.483510
v 0.519104 0.519103 -0.483510
v 0.519104 0.652586 0.483505
v 0.519104 0.519103 0.483505
v 0.519104 0.652586 -0.483510
v 0.519104 0.652586 -0.483510
v 0.519104 0.519103 -0.483510
v 0.519104 0.652586 0.483505
v 0.519104 0.519103 0.483505
v 0.519104 0.652586 0.483505
v 0.474609 0.652586 -0.483510
v 0.474609 0.652586 0.483505
v 0.519104 0.652586 -0.483510
v 0.519104 0.652586 -0.483510
v 0.519104 0.652586 0.483505
v 0.474609 0.652586 -0.483510
v 0.474609 0.652586 0.483505
v 0.519104 0.519103 -0.483510
v 0.474609 0.519103 0.483505
v 0.474609 0.519103 -0.483510
v 0.519104 0.519103 0.483505
v 0.519104 0.519103 0.483505
v 0.519104 0.519103 -0.483510
v 0.474609 0.519103 0.483505
v 0.474609 0.519103 -0.483510
v 0.474609 0.652586 -0.489442
v 0.474609 0.519103 -0.489442
v 0.474609 0.519103 -0.489442
v 0.474609 0.652586 -0.489442
v 0.468676 0.634788 -0.483510
v 0.468676 0.637755 0.483505
v 0.468676 0.634788 0.483505
v 0.468676 0.637755 -0.483510
v 0.468676 0.637755 -0.483510
v 0.468676 0.634788 -0.483510
v 0.468676 0.637755 0.483505
v 0.468676 0.634788 0.483505
vt -0.011184 0.059211
vt -0.009868 0.000000
vt -0.009868 0.059211
vt -0.011184 0.000000
vt -0.011184 0.000000
vt -0.011184 0.059211
vt -0.009868 0.000000
vt -0.009868 0.059211
vt -0.225658 0.059211
vt -0.225658 0.000000
vt -0.225658 0.000000
vt -0.225658 0.059211
vt 0.225658 0.000000
vt 0.011184 0.059211
vt 0.011184 0.000000
vt 0.225658 0.059211
vt 0.225658 0.059211
vt 0.225658 0.000000
vt 0.011184 0.059211
vt 0.011184 0.000000
vt 0.230263 0.022368
vt 0.220395 0.451316
vt 0.220395 0.022368
vt 0.230263 0.451316
vt 0.230263 0.451316
vt 0.230263 0.022368
vt 0.220395 0.451316
vt 0.220395 0.022368
vt -0.230263 0.451316
vt -0.220395 0.022368
vt -0.220395 0.451316
vt -0.230263 0.022368
vt -0.230263 0.022368
vt -0.230263 0.451316
vt -0.220395 0.022368
vt -0.220395 0.451316
vt -0.226974 0.059211
vt -0.226974 0.000000
vt -0.226974 0.000000
vt -0.226974 0.059211
vt 0.000000 0.000000
vt 0.000000 0.000000
vt 0.000000 0.000000
vt 0.000000 0.000000
vt 0.000000 0.000000
vt 0.000000 0.000000
vt 0.000000 0.000000
vt 0.000000 0.000000
vn -1.0000 0.0000 0.0000
vn 1.0000 0.0000 0.0000
vn 0.0000 1.0000 0.0000
vn 0.0000 -1.0000 0.0000
usemtl material_0
s 1
f 1/1/1 2/2/1 3/3/1
f 2/2/1 1/1/1 4/4/1
f 5/5/2 6/6/2 7/7/2
f 8/8/2 7/7/2 6/6/2
f 9/9/1 4/4/1 1/1/1
f 4/4/1 9/9/1 10/10/1
f 11/11/2 12/12/2 5/5/2
f 6/6/2 5/5/2 12/12/2
f 13/13/2 14/14/2 15/15/2
f 14/14/2 13/13/2 16/16/2
f 17/17/1 18/18/1 19/19/1
f 20/20/1 19/19/1 18/18/1
f 21/21/3 22/22/3 23/23/3
f 22/22/3 21/21/3 24/24/3
f 25/25/4 26/26/4 27/27/4
f 28/28/4 27/27/4 26/26/4
f 29/29/4 30/30/4 31/31/4
f 30/30/4 29/29/4 32/32/4
f 33/33/3 34/34/3 35/35/3
f 36/36/3 35/35/3 34/34/3
f 37/37/1 10/10/1 9/9/1
f 10/10/1 37/37/1 38/38/1
f 39/39/2 40/40/2 11/11/2
f 12/12/2 11/11/2 40/40/2
f 41/41/2 42/42/2 43/43/2
f 42/42/2 41/41/2 44/44/2
f 45/45/1 46/46/1 47/47/1
f 48/48/1 47/47/1 46/46/1