# Blender v3.0.1 OBJ File: 'anno.blend'
# www.blender.org
mtllib 06.mtl
o model.010_model.014
v -0.468675 -0.667418 0.483505
v -0.519102 -0.667418 0.533932
v -0.519102 -0.667418 0.483505
v -0.468675 -0.667418 0.533932
v -0.468675 -0.667418 0.533932
v -0.468675 -0.667418 0.483505
v -0.519102 -0.667418 0.533932
v -0.519102 -0.667418 0.483505
v -0.468675 0.667418 0.533932
v -0.519102 -0.667418 0.533932
v -0.468675 -0.667418 0.533932
v -0.519102 0.667418 0.533932
v -0.519102 0.667418 0.533932
v -0.468675 0.667418 0.533932
v -0.519102 -0.667418 0.533932
v -0.468675 -0.667418 0.533932
v -0.519102 0.667418 0.483505
v -0.519102 -0.667418 0.533932
v -0.519102 0.667418 0.533932
v -0.519102 -0.667418 0.483505
v -0.519102 -0.667418 0.483505
v -0.519102 0.667418 0.483505
v -0.519102 -0.667418 0.533932
v -0.519102 0.667418 0.533932
v -0.519102 0.667418 0.483505
v -0.468675 -0.667418 0.483505
v -0.519102 -0.667418 0.483505
v -0.468675 0.667418 0.483505
v -0.468675 0.667418 0.483505
v -0.519102 0.667418 0.483505
v -0.468675 -0.667418 0.483505
v -0.519102 -0.667418 0.483505
v -0.468675 -0.667418 0.483505
v -0.468675 0.667418 0.533932
v -0.468675 -0.667418 0.533932
v -0.468675 0.667418 0.483505
v -0.468675 0.667418 0.483505
v -0.468675 -0.667418 0.483505
v -0.468675 0.667418 0.533932
v -0.468675 -0.667418 0.533932
v -0.468675 0.667418 0.533932
v -0.519102 0.667418 0.483505
v -0.519102 0.667418 0.533932
v -0.468675 0.667418 0.483505
v -0.468675 0.667418 0.483505
v -0.468675 0.667418 0.533932
v -0.519102 0.667418 0.483505
v -0.519102 0.667418 0.533932
v 0.519104 -0.667418 0.483505
v 0.468677 -0.667418 0.533932
v 0.468677 -0.667418 0.483505
v 0.519104 -0.667418 0.533932
v 0.519104 -0.667418 0.533932
v 0.519104 -0.667418 0.483505
v 0.468677 -0.667418 0.533932
v 0.468677 -0.667418 0.483505
v 0.519104 0.667418 0.533932
v 0.468677 -0.667418 0.533932
v 0.519104 -0.667418 0.533932
v 0.468677 0.667418 0.533932
v 0.468677 0.667418 0.533932
v 0.519104 0.667418 0.533932
v 0.468677 -0.667418 0.533932
v 0.519104 -0.667418 0.533932
v 0.468677 0.667418 0.483505
v 0.468677 -0.667418 0.533932
v 0.468677 0.667418 0.533932
v 0.468677 -0.667418 0.483505
v 0.468677 -0.667418 0.483505
v 0.468677 0.667418 0.483505
v 0.468677 -0.667418 0.533932
v 0.468677 0.667418 0.533932
v 0.468677 0.667418 0.483505
v 0.519104 -0.667418 0.483505
v 0.468677 -0.667418 0.483505
v 0.519104 0.667418 0.483505
v 0.519104 0.667418 0.483505
v 0.468677 0.667418 0.483505
v 0.519104 -0.667418 0.483505
v 0.468677 -0.667418 0.483505
v 0.519104 -0.667418 0.483505
v 0.519104 0.667418 0.533932
v 0.519104 -0.667418 0.533932
v 0.519104 0.667418 0.483505
v 0.519104 0.667418 0.483505
v 0.519104 -0.667418 0.483505
v 0.519104 0.667418 0.533932
v 0.519104 -0.667418 0.533932
v 0.519104 0.667418 0.533932
v 0.468677 0.667418 0.483505
v 0.468677 0.667418 0.533932
v 0.519104 0.667418 0.483505
v 0.519104 0.667418 0.483505
v 0.519104 0.667418 0.533932
v 0.468677 0.667418 0.483505
v 0.468677 0.667418 0.533932
v 0.468677 0.652586 0.533932
v -0.468675 0.519103 0.533932
v 0.468677 0.519103 0.533932
v -0.468675 0.652586 0.533932
v -0.468675 0.652586 0.533932
v 0.468677 0.652586 0.533932
v -0.468675 0.519103 0.533932
v 0.468677 0.519103 0.533932
v 0.468677 0.519103 0.489437
v 0.468677 0.652586 0.533932
v 0.468677 0.519103 0.533932
v 0.468677 0.652586 0.489437
v 0.468677 0.652586 0.489437
v 0.468677 0.519103 0.489437
v 0.468677 0.652586 0.533932
v 0.468677 0.519103 0.533932
v 0.468677 0.652586 0.533932
v -0.468675 0.652586 0.489437
v -0.468675 0.652586 0.533932
v 0.468677 0.652586 0.489437
v 0.468677 0.652586 0.489437
v 0.468677 0.652586 0.533932
v -0.468675 0.652586 0.489437
v -0.468675 0.652586 0.533932
v -0.468675 0.652586 0.489437
v -0.468675 0.519103 0.533932
v -0.468675 0.652586 0.533932
v -0.468675 0.519103 0.489437
v -0.468675 0.519103 0.489437
v -0.468675 0.652586 0.489437
v -0.468675 0.519103 0.533932
v -0.468675 0.652586 0.533932
v 0.468677 0.519103 0.489437
v -0.468675 0.519103 0.533932
v -0.468675 0.519103 0.489437
v 0.468677 0.519103 0.533932
v 0.468677 0.519103 0.533932
v 0.468677 0.519103 0.489437
v -0.468675 0.519103 0.533932
v -0.468675 0.519103 0.489437
v -0.468675 0.652586 0.489437
v 0.468677 0.519103 0.489437
v -0.468675 0.519103 0.489437
v 0.468677 0.652586 0.489437
v 0.468677 0.652586 0.489437
v -0.468675 0.652586 0.489437
v 0.468677 0.519103 0.489437
v -0.468675 0.519103 0.489437
v 0.474609 0.519103 0.489437
v 0.474609 0.652586 0.489437
v 0.474609 0.652586 0.489437
v 0.474609 0.519103 0.489437
v -0.474607 0.652586 0.489437
v -0.474607 0.519103 0.489437
v -0.474607 0.652586 0.489437
v -0.474607 0.519103 0.489437
v 0.519104 0.652586 0.483505
v 0.474609 0.519103 0.483505
v 0.519104 0.519103 0.483505
v 0.474609 0.652586 0.483505
v 0.474609 0.652586 0.483505
v 0.519104 0.652586 0.483505
v 0.474609 0.519103 0.483505
v 0.519104 0.519103 0.483505
v -0.474607 0.652586 0.483505
v -0.519102 0.519103 0.483505
v -0.474607 0.519103 0.483505
v -0.519102 0.652586 0.483505
v -0.519102 0.652586 0.483505
v -0.474607 0.652586 0.483505
v -0.519102 0.519103 0.483505
v -0.474607 0.519103 0.483505
v 0.468677 -0.192809 0.489437
v 0.468677 -0.133483 0.533932
v 0.468677 -0.192809 0.533932
v 0.468677 -0.133483 0.489437
v 0.468677 -0.133483 0.489437
v 0.468677 -0.192809 0.489437
v 0.468677 -0.133483 0.533932
v 0.468677 -0.192809 0.533932
v -0.468675 -0.133483 0.489437
v -0.468675 -0.192809 0.533932
v -0.468675 -0.133483 0.533932
v -0.468675 -0.192809 0.489437
v -0.468675 -0.192809 0.489437
v -0.468675 -0.133483 0.489437
v -0.468675 -0.192809 0.533932
v -0.468675 -0.133483 0.533932
v 0.519104 -0.133483 0.483505
v 0.474609 -0.192809 0.483505
v 0.519104 -0.192809 0.483505
v 0.474609 -0.133483 0.483505
v 0.474609 -0.133483 0.483505
v 0.519104 -0.133483 0.483505
v 0.474609 -0.192809 0.483505
v 0.519104 -0.192809 0.483505
v -0.474607 -0.133483 0.483505
v -0.519102 -0.192809 0.483505
v -0.474607 -0.192809 0.483505
v -0.519102 -0.133483 0.483505
v -0.519102 -0.133483 0.483505
v -0.474607 -0.133483 0.483505
v -0.519102 -0.192809 0.483505
v -0.474607 -0.192809 0.483505
v 0.468676 0.637755 0.483505
v -0.468675 0.634788 0.483505
v 0.468676 0.634788 0.483505
v -0.468675 0.637755 0.483505
v -0.468675 0.637755 0.483505
v 0.468676 0.637755 0.483505
v -0.468675 0.634788 0.483505
v 0.468676 0.634788 0.483505
v -0.468675 -0.133483 0.489437
v 0.468677 -0.192809 0.489437
v -0.468675 -0.192809 0.489437
v 0.468677 -0.133483 0.489437
v 0.468677 -0.133483 0.489437
v -0.468675 -0.133483 0.489437
v 0.468677 -0.192809 0.489437
v -0.468675 -0.192809 0.489437
v 0.468677 -0.133483 0.533931
v -0.468675 -0.192809 0.533931
v 0.468677 -0.192809 0.533931
v -0.468675 -0.133483 0.533931
v -0.468675 -0.133483 0.533931
v 0.468677 -0.133483 0.533931
v -0.468675 -0.192809 0.533931
v 0.468677 -0.192809 0.533931
v 0.468677 -0.133483 0.533931
v -0.468675 -0.133483 0.489437
v -0.468675 -0.133483 0.533931
v 0.468677 -0.133483 0.489437
v 0.468677 -0.133483 0.489437
v 0.468677 -0.133483 0.533931
v -0.468675 -0.133483 0.489437
v -0.468675 -0.133483 0.533931
v 0.468677 -0.192809 0.489437
v -0.468675 -0.192809 0.533931
v -0.468675 -0.192809 0.489437
v 0.468677 -0.192809 0.533931
v 0.468677 -0.192809 0.533931
v 0.468677 -0.192809 0.489437
v -0.468675 -0.192809 0.533931
v -0.468675 -0.192809 0.489437
vt -0.011184 0.022368
vt 0.000000 0.000000
vt 0.000000 0.022368
vt -0.011184 0.000000
vt -0.011184 0.000000
vt -0.011184 0.022368
vt 0.000000 0.000000
vt 0.000000 0.022368
vt 0.011184 0.592105
vt 0.000000 0.000000
vt 0.011184 0.000000
vt 0.000000 0.592105
vt 0.000000 0.592105
vt 0.011184 0.592105
vt 0.000000 0.000000
vt 0.011184 0.000000
vt -0.011184 0.592105
vt 0.000000 0.000000
vt 0.000000 0.592105
vt -0.011184 0.000000
vt -0.011184 0.000000
vt -0.011184 0.592105
vt 0.000000 0.000000
vt 0.000000 0.592105
vt 0.000000 0.592105
vt -0.011184 0.000000
vt 0.000000 0.000000
vt -0.011184 0.592105
vt -0.011184 0.592105
vt 0.000000 0.592105
vt -0.011184 0.000000
vt 0.000000 0.000000
vt 0.011184 0.000000
vt 0.000000 0.592105
vt 0.000000 0.000000
vt 0.011184 0.592105
vt 0.011184 0.592105
vt 0.011184 0.000000
vt 0.000000 0.592105
vt 0.000000 0.000000
vt 0.011184 0.000000
vt 0.000000 0.022368
vt 0.000000 0.000000
vt 0.011184 0.022368
vt 0.011184 0.022368
vt 0.011184 0.000000
vt 0.000000 0.022368
vt 0.000000 0.000000
vt -0.011184 0.022368
vt 0.000000 0.000000
vt 0.000000 0.022368
vt -0.011184 0.000000
vt -0.011184 0.000000
vt -0.011184 0.022368
vt 0.000000 0.000000
vt 0.000000 0.022368
vt 0.011184 0.592105
vt 0.000000 0.000000
vt 0.011184 0.000000
vt 0.000000 0.592105
vt 0.000000 0.592105
vt 0.011184 0.592105
vt 0.000000 0.000000
vt 0.011184 0.000000
vt -0.011184 0.592105
vt 0.000000 0.000000
vt 0.000000 0.592105
vt -0.011184 0.000000
vt -0.011184 0.000000
vt -0.011184 0.592105
vt 0.000000 0.000000
vt 0.000000 0.592105
vt 0.000000 0.592105
vt -0.011184 0.000000
vt 0.000000 0.000000
vt -0.011184 0.592105
vt -0.011184 0.592105
vt 0.000000 0.592105
vt -0.011184 0.000000
vt 0.000000 0.000000
vt 0.011184 0.000000
vt 0.000000 0.592105
vt 0.000000 0.000000
vt 0.011184 0.592105
vt 0.011184 0.592105
vt 0.011184 0.000000
vt 0.000000 0.592105
vt 0.000000 0.000000
vt 0.011184 0.000000
vt 0.000000 0.022368
vt 0.000000 0.000000
vt 0.011184 0.022368
vt 0.011184 0.022368
vt 0.011184 0.000000
vt 0.000000 0.022368
vt 0.000000 0.000000
vt 0.219079 0.059211
vt 0.011184 0.000000
vt 0.219079 0.000000
vt 0.011184 0.059211
vt 0.011184 0.059211
vt 0.219079 0.059211
vt 0.011184 0.000000
vt 0.219079 0.000000
vt 0.009868 0.000000
vt 0.000000 0.059211
vt 0.000000 0.000000
vt 0.009868 0.059211
vt 0.009868 0.059211
vt 0.009868 0.000000
vt 0.000000 0.059211
vt 0.000000 0.000000
vt 0.219079 0.000000
vt 0.011184 0.019737
vt 0.011184 0.000000
vt 0.219079 0.019737
vt 0.219079 0.019737
vt 0.219079 0.000000
vt 0.011184 0.019737
vt 0.011184 0.000000
vt -0.009868 0.059211
vt 0.000000 0.000000
vt 0.000000 0.059211
vt -0.009868 0.000000
vt -0.009868 0.000000
vt -0.009868 0.059211
vt 0.000000 0.000000
vt 0.000000 0.059211
vt -0.219079 0.019737
vt -0.011184 0.000000
vt -0.011184 0.019737
vt -0.219079 0.000000
vt -0.219079 0.000000
vt -0.219079 0.019737
vt -0.011184 0.000000
vt -0.011184 0.019737
vt -0.011184 0.059211
vt -0.219079 0.000000
vt -0.011184 0.000000
vt -0.219079 0.059211
vt -0.219079 0.059211
vt -0.011184 0.059211
vt -0.219079 0.000000
vt -0.011184 0.000000
vt -0.220395 0.000000
vt -0.220395 0.059211
vt -0.220395 0.059211
vt -0.220395 0.000000
vt -0.009868 0.059211
vt -0.009868 0.000000
vt -0.009868 0.059211
vt -0.009868 0.000000
vt 0.230263 0.059211
vt 0.220395 0.000000
vt 0.230263 0.000000
vt 0.220395 0.059211
vt 0.220395 0.059211
vt 0.230263 0.059211
vt 0.220395 0.000000
vt 0.230263 0.000000
vt 0.009868 0.059211
vt 0.000000 0.000000
vt 0.009868 0.000000
vt 0.000000 0.059211
vt 0.000000 0.059211
vt 0.009868 0.059211
vt 0.000000 0.000000
vt 0.009868 0.000000
vt 0.009868 0.032895
vt 0.000000 0.059211
vt 0.000000 0.032895
vt 0.009868 0.059211
vt 0.009868 0.059211
vt 0.009868 0.032895
vt 0.000000 0.059211
vt 0.000000 0.032895
vt -0.009868 0.059211
vt 0.000000 0.032895
vt 0.000000 0.059211
vt -0.009868 0.032895
vt -0.009868 0.032895
vt -0.009868 0.059211
vt 0.000000 0.032895
vt 0.000000 0.059211
vt 0.230263 0.059211
vt 0.220395 0.032895
vt 0.230263 0.032895
vt 0.220395 0.059211
vt 0.220395 0.059211
vt 0.230263 0.059211
vt 0.220395 0.032895
vt 0.230263 0.032895
vt 0.009868 0.059211
vt 0.000000 0.032895
vt 0.009868 0.032895
vt 0.000000 0.059211
vt 0.000000 0.059211
vt 0.009868 0.059211
vt 0.000000 0.032895
vt 0.009868 0.032895
vt 0.000000 0.000000
vt 0.000000 0.000000
vt 0.000000 0.000000
vt 0.000000 0.000000
vt 0.000000 0.000000
vt 0.000000 0.000000
vt 0.000000 0.000000
vt 0.000000 0.000000
vt -0.011184 0.059211
vt -0.219079 0.032895
vt -0.011184 0.032895
vt -0.219079 0.059211
vt -0.219079 0.059211
vt -0.011184 0.059211
vt -0.219079 0.032895
vt -0.011184 0.032895
vt 0.219079 0.059211
vt 0.011184 0.032895
vt 0.219079 0.032895
vt 0.011184 0.059211
vt 0.011184 0.059211
vt 0.219079 0.059211
vt 0.011184 0.032895
vt 0.219079 0.032895
vt 0.219079 0.000000
vt 0.011184 0.019737
vt 0.011184 0.000000
vt 0.219079 0.019737
vt 0.219079 0.019737
vt 0.219079 0.000000
vt 0.011184 0.019737
vt 0.011184 0.000000
vt -0.219079 0.019737
vt -0.011184 0.000000
vt -0.011184 0.019737
vt -0.219079 0.000000
vt -0.219079 0.000000
vt -0.219079 0.019737
vt -0.011184 0.000000
vt -0.011184 0.019737
vn 0.0000 -1.0000 0.0000
vn 0.0000 1.0000 0.0000
vn 0.0000 0.0000 1.0000
vn 0.0000 0.0000 -1.0000
vn -1.0000 0.0000 0.0000
vn 1.0000 0.0000 0.0000
usemtl material_0
s 1
f 1/1/1 2/2/1 3/3/1
f 2/2/1 1/1/1 4/4/1
f 5/5/2 6/6/2 7/7/2
f 8/8/2 7/7/2 6/6/2
f 9/9/3 10/10/3 11/11/3
f 10/10/3 9/9/3 12/12/3
f 13/13/4 14/14/4 15/15/4
f 16/16/4 15/15/4 14/14/4
f 17/17/5 18/18/5 19/19/5
f 18/18/5 17/17/5 20/20/5
f 21/21/6 22/22/6 23/23/6
f 24/24/6 23/23/6 22/22/6
f 25/25/4 26/26/4 27/27/4
f 26/26/4 25/25/4 28/28/4
f 29/29/3 30/30/3 31/31/3
f 32/32/3 31/31/3 30/30/3
f 33/33/6 34/34/6 35/35/6
f 34/34/6 33/33/6 36/36/6
f 37/37/5 38/38/5 39/39/5
f 40/40/5 39/39/5 38/38/5
f 41/41/2 42/42/2 43/43/2
f 42/42/2 41/41/2 44/44/2
f 45/45/1 46/46/1 47/47/1
f 48/48/1 47/47/1 46/46/1
f 49/49/1 50/50/1 51/51/1
f 50/50/1 49/49/1 52/52/1
f 53/53/2 54/54/2 55/55/2
f 56/56/2 55/55/2 54/54/2
f 57/57/3 58/58/3 59/59/3
f 58/58/3 57/57/3 60/60/3
f 61/61/4 62/62/4 63/63/4
f 64/64/4 63/63/4 62/62/4
f 65/65/5 66/66/5 67/67/5
f 66/66/5 65/65/5 68/68/5
f 69/69/6 70/70/6 71/71/6
f 72/72/6 71/71/6 70/70/6
f 73/73/4 74/74/4 75/75/4
f 74/74/4 73/73/4 76/76/4
f 77/77/3 78/78/3 79/79/3
f 80/80/3 79/79/3 78/78/3
f 81/81/6 82/82/6 83/83/6
f 82/82/6 81/81/6 84/84/6
f 85/85/5 86/86/5 87/87/5
f 88/88/5 87/87/5 86/86/5
f 89/89/2 90/90/2 91/91/2
f 90/90/2 89/89/2 92/92/2
f 93/93/1 94/94/1 95/95/1
f 96/96/1 95/95/1 94/94/1
f 97/97/3 98/98/3 99/99/3
f 98/98/3 97/97/3 100/100/3
f 101/101/4 102/102/4 103/103/4
f 104/104/4 103/103/4 102/102/4
f 105/105/6 106/106/6 107/107/6
f 106/106/6 105/105/6 108/108/6
f 109/109/5 110/110/5 111/111/5
f 112/112/5 111/111/5 110/110/5
f 113/113/2 114/114/2 115/115/2
f 114/114/2 113/113/2 116/116/2
f 117/117/1 118/118/1 119/119/1
f 120/120/1 119/119/1 118/118/1
f 121/121/5 122/122/5 123/123/5
f 122/122/5 121/121/5 124/124/5
f 125/125/6 126/126/6 127/127/6
f 128/128/6 127/127/6 126/126/6
f 129/129/1 130/130/1 131/131/1
f 130/130/1 129/129/1 132/132/1
f 133/133/2 134/134/2 135/135/2
f 136/136/2 135/135/2 134/134/2
f 137/137/4 138/138/4 139/139/4
f 138/138/4 137/137/4 140/140/4
f 141/141/3 142/142/3 143/143/3
f 144/144/3 143/143/3 142/142/3
f 140/140/4 145/145/4 138/138/4
f 145/145/4 140/140/4 146/146/4
f 147/147/3 141/141/3 148/148/3
f 143/143/3 148/148/3 141/141/3
f 149/149/4 139/139/4 150/150/4
f 139/139/4 149/149/4 137/137/4
f 142/142/3 151/151/3 144/144/3
f 152/152/3 144/144/3 151/151/3
f 153/153/3 154/154/3 155/155/3
f 154/154/3 153/153/3 156/156/3
f 157/157/4 158/158/4 159/159/4
f 160/160/4 159/159/4 158/158/4
f 161/161/3 162/162/3 163/163/3
f 162/162/3 161/161/3 164/164/3
f 165/165/4 166/166/4 167/167/4
f 168/168/4 167/167/4 166/166/4
f 169/169/6 170/170/6 171/171/6
f 170/170/6 169/169/6 172/172/6
f 173/173/5 174/174/5 175/175/5
f 176/176/5 175/175/5 174/174/5
f 177/177/5 178/178/5 179/179/5
f 178/178/5 177/177/5 180/180/5
f 181/181/6 182/182/6 183/183/6
f 184/184/6 183/183/6 182/182/6
f 185/185/3 186/186/3 187/187/3
f 186/186/3 185/185/3 188/188/3
f 189/189/4 190/190/4 191/191/4
f 192/192/4 191/191/4 190/190/4
f 193/193/3 194/194/3 195/195/3
f 194/194/3 193/193/3 196/196/3
f 197/197/4 198/198/4 199/199/4
f 200/200/4 199/199/4 198/198/4
f 201/201/3 202/202/3 203/203/3
f 202/202/3 201/201/3 204/204/3
f 205/205/4 206/206/4 207/207/4
f 208/208/4 207/207/4 206/206/4
f 209/209/4 210/210/4 211/211/4
f 210/210/4 209/209/4 212/212/4
f 213/213/3 214/214/3 215/215/3
f 216/216/3 215/215/3 214/214/3
f 217/217/3 218/218/3 219/219/3
f 218/218/3 217/217/3 220/220/3
f 221/221/4 222/222/4 223/223/4
f 224/224/4 223/223/4 222/222/4
f 225/225/2 226/226/2 227/227/2
f 226/226/2 225/225/2 228/228/2
f 229/229/1 230/230/1 231/231/1
f 232/232/1 231/231/1 230/230/1
f 233/233/1 234/234/1 235/235/1
f 234/234/1 233/233/1 236/236/1
f 237/237/2 238/238/2 239/239/2
f 240/240/2 239/239/2 238/238/2