# Blender v3.0.1 OBJ File: 'anno.blend'
# www.blender.org
mtllib 08.mtl
o model.006_model.016
v -0.474607 -0.148315 -0.237307
v 0.474609 -0.148315 -0.118654
v 0.474609 -0.148315 -0.237307
v -0.474607 -0.148315 -0.118654
v -0.474607 -0.148315 -0.118654
v -0.474607 -0.148315 -0.237307
v 0.474609 -0.148315 -0.118654
v 0.474609 -0.148315 -0.237307
v -0.474607 -0.148315 -0.237307
v 0.474609 -0.163146 -0.237307
v -0.474607 -0.163146 -0.237307
v 0.474609 -0.148315 -0.237307
v 0.474609 -0.148315 -0.237307
v -0.474607 -0.148315 -0.237307
v 0.474609 -0.163146 -0.237307
v -0.474607 -0.163146 -0.237307
v -0.474607 -0.163146 -0.118654
v 0.474609 -0.163146 -0.237307
v 0.474609 -0.163146 -0.118654
v -0.474607 -0.163146 -0.237307
v -0.474607 -0.163146 -0.237307
v -0.474607 -0.163146 -0.118654
v 0.474609 -0.163146 -0.237307
v 0.474609 -0.163146 -0.118654
v 0.474609 -0.148315 -0.118655
v -0.474607 -0.163146 -0.118655
v 0.474609 -0.163146 -0.118655
v -0.474607 -0.148315 -0.118655
v -0.474607 -0.148315 -0.118655
v 0.474609 -0.148315 -0.118655
v -0.474607 -0.163146 -0.118655
v 0.474609 -0.163146 -0.118655
vt 0.206378 0.000000
vt -0.004148 0.052632
vt -0.004148 0.000000
vt 0.206378 0.052632
vt 0.206378 0.052632
vt 0.206378 0.000000
vt -0.004148 0.052632
vt -0.004148 0.000000
vt 0.206378 0.006579
vt -0.004148 0.000000
vt 0.206378 0.000000
vt -0.004148 0.006579
vt -0.004148 0.006579
vt 0.206378 0.006579
vt -0.004148 0.000000
vt 0.206378 0.000000
vt -0.206378 0.052632
vt 0.004148 0.000000
vt 0.004148 0.052632
vt -0.206378 0.000000
vt -0.206378 0.000000
vt -0.206378 0.052632
vt 0.004148 0.000000
vt 0.004148 0.052632
vt 0.004148 0.006579
vt -0.206378 0.000000
vt 0.004148 0.000000
vt -0.206378 0.006579
vt -0.206378 0.006579
vt 0.004148 0.006579
vt -0.206378 0.000000
vt 0.004148 0.000000
vn 0.0000 1.0000 0.0000
vn 0.0000 -1.0000 0.0000
vn 0.0000 0.0000 -1.0000
vn 0.0000 0.0000 1.0000
usemtl material_0
s 1
f 1/1/1 2/2/1 3/3/1
f 2/2/1 1/1/1 4/4/1
f 5/5/2 6/6/2 7/7/2
f 8/8/2 7/7/2 6/6/2
f 9/9/3 10/10/3 11/11/3
f 10/10/3 9/9/3 12/12/3
f 13/13/4 14/14/4 15/15/4
f 16/16/4 15/15/4 14/14/4
f 17/17/2 18/18/2 19/19/2
f 18/18/2 17/17/2 20/20/2
f 21/21/1 22/22/1 23/23/1
f 24/24/1 23/23/1 22/22/1
f 25/25/4 26/26/4 27/27/4
f 26/26/4 25/25/4 28/28/4
f 29/29/3 30/30/3 31/31/3
f 32/32/3 31/31/3 30/30/3