# Blender v3.0.1 OBJ File: ''
# www.blender.org
mtllib 00.mtl
o SketchUp.030_ID311
v -0.852297 -0.120096 -0.015496
v -0.852297 -0.213074 -0.015496
v -0.852297 -0.120096 0.015496
v -0.852297 -0.213074 0.015496
v 0.852297 -0.213074 -0.015496
v 0.852297 -0.120096 -0.015496
v 0.852297 -0.213074 0.015496
v 0.852297 -0.120096 0.015496
v 0.852297 -0.120096 0.015496
v -0.852297 -0.120096 0.015496
v 0.852297 -0.120096 -0.015496
v -0.852297 -0.120096 -0.015496
v 0.852297 -0.213074 0.015496
v 0.852297 -0.213074 -0.015496
v -0.852297 -0.213074 0.015496
v -0.852297 -0.213074 -0.015496
v 0.852297 -0.120096 0.015496
v 0.852297 -0.213074 0.015496
v -0.852297 -0.120096 0.015496
v -0.852297 -0.213074 0.015496
v 0.852297 -0.120096 -0.015496
v -0.852297 -0.120096 -0.015496
v 0.852297 -0.213074 -0.015496
v -0.852297 -0.213074 -0.015496
v -0.852297 -0.213074 -0.015496
v -0.852297 -0.120096 0.015496
v -0.852297 -0.213074 0.015496
v -0.852297 -0.120096 -0.015496
v 0.852297 -0.120096 -0.015496
v 0.852297 -0.213074 0.015496
v 0.852297 -0.120096 0.015496
v 0.852297 -0.213074 -0.015496
v -0.852297 -0.213074 0.015496
v 0.852297 -0.213074 -0.015496
v 0.852297 -0.213074 0.015496
v -0.852297 -0.213074 -0.015496
v 0.852297 -0.120096 -0.015496
v -0.852297 -0.120096 0.015496
v 0.852297 -0.120096 0.015496
v -0.852297 -0.120096 -0.015496
v 0.852297 -0.213074 0.015496
v -0.852297 -0.120096 0.015496
v -0.852297 -0.213074 0.015496
v 0.852297 -0.120096 0.015496
v -0.852297 -0.120096 -0.015496
v 0.852297 -0.213074 -0.015496
v -0.852297 -0.213074 -0.015496
v 0.852297 -0.120096 -0.015496
vt 0.000000 0.000000
vt 0.000000 0.000000
vt 0.000000 0.000000
vt 0.000000 0.000000
vt 0.000000 0.000000
vt 0.000000 0.000000
vt 0.000000 0.000000
vt 0.000000 0.000000
vt 0.000000 0.000000
vt 0.000000 0.000000
vt 0.000000 0.000000
vt 0.000000 0.000000
vt 0.000000 0.000000
vt 0.000000 0.000000
vt 0.000000 0.000000
vt 0.000000 0.000000
vt 0.000000 0.000000
vt 0.000000 0.000000
vt 0.000000 0.000000
vt 0.000000 0.000000
vt 0.000000 0.000000
vt 0.000000 0.000000
vt 0.000000 0.000000
vt 0.000000 0.000000
vt 0.000000 0.000000
vt 0.000000 0.000000
vt 0.000000 0.000000
vt 0.000000 0.000000
vt 0.000000 0.000000
vt 0.000000 0.000000
vt 0.000000 0.000000
vt 0.000000 0.000000
vt -0.800000 0.060000
vt -0.780000 1.160000
vt -0.800000 1.160000
vt -0.780000 0.060000
vt 0.780000 1.160000
vt 0.800000 0.060000
vt 0.800000 1.160000
vt 0.780000 0.060000
vt 0.000000 0.000000
vt 0.000000 0.000000
vt 0.000000 0.000000
vt 0.000000 0.000000
vt 0.000000 0.000000
vt 0.000000 0.000000
vt 0.000000 0.000000
vt 0.000000 0.000000
vn -1.0000 0.0000 0.0000
vn 1.0000 0.0000 0.0000
vn 0.0000 -1.0000 0.0000
vn 0.0000 1.0000 0.0000
vn 0.0000 0.0000 -1.0000
vn 0.0000 -0.0000 1.0000
usemtl material.029
s 1
f 1/1/1 2/2/1 3/3/1
f 4/4/1 3/3/1 2/2/1
f 5/5/2 6/6/2 7/7/2
f 8/8/2 7/7/2 6/6/2
f 9/9/3 10/10/3 11/11/3
f 12/12/3 11/11/3 10/10/3
f 13/13/4 14/14/4 15/15/4
f 16/16/4 15/15/4 14/14/4
f 17/17/5 18/18/5 19/19/5
f 20/20/5 19/19/5 18/18/5
f 21/21/6 22/22/6 23/23/6
f 24/24/6 23/23/6 22/22/6
usemtl material_0.135
f 25/25/2 26/26/2 27/27/2
f 26/26/2 25/25/2 28/28/2
f 29/29/1 30/30/1 31/31/1
f 30/30/1 29/29/1 32/32/1
usemtl APPLARO_v.009
f 33/33/3 34/34/3 35/35/3
f 34/34/3 33/33/3 36/36/3
f 37/37/4 38/38/4 39/39/4
f 38/38/4 37/37/4 40/40/4
usemtl APPLARO_h.007
f 41/41/6 42/42/6 43/43/6
f 42/42/6 41/41/6 44/44/6
f 45/45/5 46/46/5 47/47/5
f 46/46/5 45/45/5 48/48/5