# Blender v3.0.1 OBJ File: ''
# www.blender.org
mtllib 04.mtl
o normalized.004_normalized.001
v 0.628640 -0.266020 -0.356941
v 0.628640 0.323892 -0.356941
v 0.628640 0.323892 -0.407259
v 0.728972 0.323892 -0.356941
v 0.628640 -0.266020 -0.407260
v 0.728972 0.323892 -0.407259
v 0.728972 -0.266020 -0.407260
v 0.728972 -0.266020 -0.356941
vt 1.000000 0.000000
vt 1.000000 1.000000
vt 0.000000 1.000000
vt 0.000000 0.000000
vt 1.000000 0.000000
vt 1.000000 0.000000
vt 1.000000 1.000000
vt 0.000000 1.000000
vt 1.000000 1.000000
vt 0.000000 0.000000
vt 1.000000 1.000000
vt 0.000000 1.000000
vt 0.000000 0.000000
vt 0.000000 0.000000
vt 0.000000 1.000000
vt 1.000000 0.000000
vt 0.000000 1.000000
vt 0.000000 0.000000
vt 1.000000 0.000000
vt 1.000000 1.000000
vn -1.0000 0.0000 0.0000
vn 0.0000 1.0000 0.0000
vn 0.0000 0.0000 -1.0000
vn 0.0000 -1.0000 0.0000
vn 1.0000 0.0000 0.0000
vn 0.0000 -0.0000 1.0000
usemtl initialShadingGroup.004
s 1
f 1/1/1 2/2/1 3/3/1
f 3/3/2 2/4/2 4/5/2
f 5/6/3 3/7/3 6/8/3
f 4/5/2 6/9/2 3/3/2
f 3/3/1 5/10/1 1/1/1
f 5/11/4 7/12/4 8/13/4
f 8/13/4 1/1/4 5/11/4
f 6/8/3 7/14/3 5/6/3
f 4/15/5 8/13/5 7/16/5
f 7/16/5 6/9/5 4/15/5
f 2/17/6 1/18/6 8/19/6
f 8/19/6 4/20/6 2/17/6