# Blender v3.0.1 OBJ File: ''
# www.blender.org
mtllib 10.mtl
o normalized.010_normalized.001
v 0.626568 0.337380 0.266611
v 0.627301 0.337380 0.212260
v 0.626568 0.337380 0.212261
v 0.730613 0.051710 0.268436
v 0.730613 0.378875 0.268436
v 0.626568 0.378875 0.268436
v 0.626568 0.051710 0.268436
v 0.626568 0.053883 0.212261
v 0.626568 0.051710 0.212261
v 0.626568 0.335391 0.212261
v 0.626568 0.075614 0.212261
v 0.626568 0.378875 0.266611
v 0.626568 0.337380 0.211868
v 0.728651 0.337380 0.211868
v 0.730613 0.091831 0.211868
v 0.728571 0.091831 0.211868
v 0.628609 0.052511 0.211868
v 0.628609 0.075782 0.211868
v 0.728571 0.052511 0.211868
v 0.730613 0.094611 0.212415
v 0.730613 0.378875 0.212415
v 0.730613 0.055322 0.212415
v 0.730613 0.091442 0.212415
v 0.728651 0.378875 0.266611
v 0.728670 0.378875 0.212409
v 0.728651 0.378875 0.212409
v 0.728651 0.337380 0.266611
v 0.728651 0.337790 0.212409
v 0.728651 0.337380 0.212409
v 0.730613 0.055338 0.212167
v 0.730613 0.051710 0.212167
v 0.730613 0.051710 0.212415
v 0.674835 0.051710 0.212218
v 0.728651 0.337609 0.212169
v 0.728651 0.337380 0.212169
v 0.728661 0.378875 0.212169
v 0.728651 0.378875 0.212169
v 0.730613 0.378875 0.212167
v 0.730613 0.093352 0.212167
v 0.635179 0.051710 0.212254
v 0.674835 0.337380 0.212218
v 0.730613 0.091619 0.212167
vt 0.000000 0.000000
vt 0.007185 0.992815
vt 0.000000 0.992802
vt 1.000000 0.000000
vt 1.000000 1.000000
vt 0.000000 1.000000
vt 0.000000 0.000000
vt 0.917244 0.009028
vt 0.917247 0.000000
vt 1.000000 0.000000
vt 0.917280 0.860663
vt 0.917280 0.099303
vt 0.997300 0.866700
vt 1.000000 1.000000
vt 0.997300 1.000000
vt 1.000000 0.866200
vt 0.018900 0.866200
vt 0.000000 0.163900
vt 0.019600 0.163900
vt 0.980400 0.000000
vt 0.980400 0.097000
vt 0.019600 0.000000
vt 0.082493 0.174772
vt 0.082493 1.000000
vt 0.000000 1.000000
vt 0.082529 0.015008
vt 0.082493 0.165085
vt 0.000000 0.000000
vt 0.981100 0.032300
vt 0.981281 0.990436
vt 0.981100 0.990438
vt 0.000000 0.000000
vt 1.000000 0.000000
vt 0.000000 0.032300
vt 1.000000 0.000000
vt 0.009882 0.009882
vt 0.009882 0.000000
vt 1.000000 1.000000
vt 0.000000 1.000000
vt 0.000000 0.000000
vt 1.000000 0.000000
vt 0.082895 0.015074
vt 0.000000 0.082892
vt 0.000000 0.082526
vt 0.536092 0.082818
vt 0.082526 0.000000
vt 0.005506 0.005506
vt 0.005506 0.000000
vt 1.000000 1.000000
vt 0.009882 1.000000
vt 0.981201 0.994673
vt 0.981100 0.994673
vt 0.082859 1.000000
vt 0.082859 0.171114
vt 1.000000 0.990314
vt 0.917235 0.082765
vt 1.000000 0.082753
vt 0.005505 1.000000
vt 0.082892 0.000000
vt 1.000000 0.990118
vt 1.000000 0.994494
vt 0.472817 0.993602
vt 1.000000 0.994704
vt 0.082859 0.165817
vt 0.917280 0.866700
vn 0.0000 1.0000 0.0000
vn 0.0000 -0.0000 1.0000
vn -1.0000 0.0000 0.0000
vn 0.0000 0.0000 -1.0000
vn 1.0000 0.0000 0.0000
vn 0.0000 -1.0000 0.0000
vn 0.0000 1.0000 0.0001
usemtl initialShadingGroup.003
s 1
f 1/1/1 2/2/1 3/3/1
f 4/4/2 5/5/2 6/6/2
f 6/6/2 7/7/2 4/4/2
f 8/8/3 9/9/3 7/10/3
f 10/11/3 11/12/3 7/10/3
f 1/13/3 7/10/3 6/14/3
f 6/14/3 12/15/3 1/13/3
f 13/16/4 14/17/4 15/18/4
f 16/19/4 17/20/4 18/21/4
f 18/21/4 13/16/4 16/19/4
f 16/19/4 19/22/4 17/20/4
f 20/23/5 21/24/5 5/25/5
f 22/26/5 23/27/5 4/28/5
f 24/29/1 25/30/1 26/31/1
f 6/32/1 5/33/1 24/29/1
f 24/29/1 12/34/1 6/32/1
f 27/35/3 28/36/3 29/37/3
f 12/38/4 24/39/4 27/40/4
f 27/40/4 1/41/4 12/38/4
f 30/42/5 23/27/5 22/26/5
f 31/43/6 32/44/6 33/45/6
f 4/28/5 32/46/5 22/26/5
f 29/37/3 34/47/3 35/48/3
f 24/49/3 26/50/3 28/36/3
f 4/28/5 20/23/5 5/25/5
f 26/31/1 36/51/7 37/52/1
f 38/53/5 20/23/5 39/54/5
f 5/33/1 21/55/1 25/30/1
f 7/10/6 40/56/6 33/45/6
f 7/10/6 9/57/6 40/56/6
f 37/58/3 28/36/3 26/50/3
f 7/10/3 11/12/3 8/8/3
f 31/59/5 22/26/5 32/46/5
f 29/60/1 35/61/1 41/62/1
f 23/27/5 39/54/5 20/23/5
f 38/63/1 25/30/1 21/55/1
f 27/35/1 41/62/1 2/2/1
f 1/13/3 10/11/3 7/10/3
f 1/1/1 27/35/1 2/2/1
f 24/29/1 5/33/1 25/30/1
f 27/35/3 24/49/3 28/36/3
f 30/42/5 42/64/5 23/27/5
f 29/37/3 28/36/3 34/47/3
f 4/28/5 23/27/5 20/23/5
f 26/31/1 25/30/1 36/51/7
f 38/53/5 21/24/5 20/23/5
f 33/45/6 32/44/6 4/28/6
f 4/28/6 7/10/6 33/45/6
f 37/58/3 34/47/3 28/36/3
f 31/59/5 30/42/5 22/26/5
f 23/27/5 42/64/5 39/54/5
f 38/63/1 36/51/7 25/30/1
f 27/35/1 29/60/1 41/62/1
f 1/13/3 3/65/3 10/11/3