# Blender v3.0.1 OBJ File: ''
# www.blender.org
mtllib 01.mtl
o NILSOLLE_stool.003_Plane.003
v 0.274628 0.654826 0.312572
v 0.269116 0.760649 0.312306
v 0.268473 0.760648 0.312572
v 0.268968 0.761173 0.312188
v 0.268437 0.761290 0.312306
v -0.268437 0.761290 0.312306
v -0.268473 0.760648 0.312572
v -0.274628 0.654826 0.312572
v -0.269116 0.760649 0.312306
v -0.275271 0.654825 0.312306
v -0.268968 0.761173 0.312188
v -0.275184 0.654301 0.312188
v -0.274666 0.654184 0.312306
v 0.274666 0.654184 0.312306
v -0.275538 0.654824 0.311663
v -0.269383 0.760650 0.311663
v -0.275310 0.654183 0.311663
v -0.275538 0.654824 0.270382
v -0.275310 0.654183 0.270382
v -0.269383 0.760650 0.270382
v -0.269080 0.761291 0.270382
v -0.269080 0.761291 0.311663
v -0.275271 0.654825 0.269740
v -0.269116 0.760649 0.269740
v -0.268968 0.761173 0.269858
v -0.268422 0.761557 0.270382
v -0.268437 0.761290 0.269740
v 0.268422 0.761557 0.270382
v 0.268437 0.761290 0.269740
v 0.268422 0.761557 0.311663
v -0.268422 0.761557 0.311663
v 0.269080 0.761291 0.311663
v 0.269080 0.761291 0.270382
v 0.269383 0.760650 0.311663
v 0.269383 0.760650 0.270382
v 0.268968 0.761173 0.269858
v 0.268473 0.760648 0.269474
v 0.269116 0.760649 0.269740
v -0.268473 0.760648 0.269474
v 0.274628 0.654826 0.269474
v -0.274628 0.654826 0.269474
v -0.275184 0.654301 0.269858
v 0.274666 0.654184 0.269740
v -0.274683 0.653918 0.270382
v -0.274666 0.654184 0.269740
v 0.274683 0.653918 0.270382
v 0.275184 0.654301 0.269858
v 0.275310 0.654183 0.270382
v 0.274683 0.653918 0.311663
v -0.274683 0.653918 0.311663
v 0.275184 0.654301 0.312188
v 0.275271 0.654825 0.312306
v 0.275538 0.654824 0.311663
v 0.275310 0.654183 0.311663
v 0.275538 0.654824 0.270382
v 0.275271 0.654825 0.269740
vt 0.717509 0.639705
vt 0.744700 0.641121
vt 0.744701 0.641286
vt 0.744834 0.641159
vt 0.744865 0.641296
vt 0.744865 0.779276
vt 0.744701 0.779286
vt 0.717509 0.780868
vt 0.744700 0.779451
vt 0.717507 0.781033
vt 0.744834 0.779413
vt 0.717372 0.781010
vt 0.717342 0.780877
vt 0.717342 0.639695
vt 0.891576 0.908895
vt 0.891711 0.908761
vt 0.891742 0.908896
vt 0.891576 0.936099
vt 0.891576 0.908731
vt 0.880967 0.908895
vt 0.880967 0.908731
vt 0.880967 0.936099
vt 0.880967 0.936264
vt 0.891711 0.936233
vt 0.891576 0.936264
vt 0.880802 0.908896
vt 0.880802 0.936099
vt 0.880832 0.936233
vt 0.919525 0.013979
vt 0.919390 0.013838
vt 0.919525 0.013809
vt 0.930135 0.013809
vt 0.919360 0.013975
vt 0.919525 0.151951
vt 0.919360 0.151955
vt 0.930135 0.151951
vt 0.930135 0.013979
vt 0.930270 0.013838
vt 0.930300 0.013975
vt 0.930300 0.151955
vt 0.930270 0.152092
vt 0.930135 0.152121
vt 0.919525 0.152121
vt 0.307130 0.931521
vt 0.306995 0.931656
vt 0.306965 0.931521
vt 0.317740 0.931686
vt 0.317740 0.931521
vt 0.317874 0.931656
vt 0.919390 0.152092
vt 0.524117 0.779882
vt 0.524247 0.780009
vt 0.524114 0.780047
vt 0.524117 0.641883
vt 0.524279 0.779872
vt 0.496942 0.781464
vt 0.496942 0.640301
vt 0.524247 0.641755
vt 0.524279 0.641892
vt 0.524114 0.641717
vt 0.496803 0.640158
vt 0.496939 0.640135
vt 0.496774 0.781473
vt 0.880967 0.549025
vt 0.880832 0.549154
vt 0.880802 0.549021
vt 0.880802 0.407838
vt 0.880967 0.407834
vt 0.496803 0.781607
vt 0.880832 0.407705
vt 0.880967 0.407673
vt 0.891577 0.407834
vt 0.891577 0.549025
vt 0.891711 0.407705
vt 0.891742 0.407838
vt 0.891742 0.549021
vt 0.880967 0.549186
vt 0.891711 0.549154
vt 0.891577 0.549186
vt 0.717372 0.639562
vt 0.717507 0.639539
vt 0.307130 0.904317
vt 0.306995 0.904183
vt 0.307130 0.904153
vt 0.306965 0.904318
vt 0.317740 0.904317
vt 0.317740 0.904153
vt 0.317874 0.904183
vt 0.317905 0.904318
vt 0.317905 0.931521
vt 0.880832 0.908761
vt 0.891742 0.936099
vt 0.307130 0.931686
vt 0.496939 0.781629
vt 0.496774 0.640291
vt 0.891577 0.407673
vn 0.2388 -0.2252 0.9446
vn 0.3595 0.1728 0.9170
vn 0.2407 0.2550 0.9365
vn 0.3225 0.3417 0.8827
vn 0.1515 0.3687 0.9171
vn -0.1515 0.3689 0.9171
vn 0.0000 0.0000 1.0000
vn -0.2388 -0.2253 0.9446
vn -0.3595 0.1728 0.9170
vn -0.3594 -0.1441 0.9220
vn -0.2407 0.2551 0.9365
vn -0.3225 0.3417 0.8827
vn -0.3263 -0.3080 0.8937
vn -0.1649 -0.3506 0.9219
vn 0.1649 -0.3504 0.9220
vn -0.9513 -0.1909 0.2419
vn -0.9018 -0.2775 0.3314
vn -0.9256 -0.1044 0.3637
vn -0.9274 0.2877 0.2392
vn -0.9363 -0.3122 0.1611
vn -0.9512 -0.1909 -0.2423
vn -0.9363 -0.3119 -0.1615
vn -0.9983 0.0581 0.0000
vn -0.9008 0.4050 -0.1567
vn -0.9273 0.2877 -0.2396
vn -0.8719 0.3700 0.3206
vn -0.9007 0.4051 0.1567
vn -0.9255 -0.1044 -0.3640
vn -0.9098 0.2107 -0.3576
vn -0.8717 0.3705 -0.3206
vn -0.2336 0.9424 -0.2394
vn -0.3189 0.8919 -0.3207
vn -0.3521 0.9228 -0.1565
vn -0.3521 0.9228 0.1565
vn -0.1576 0.9206 -0.3574
vn 0.2337 0.9423 -0.2398
vn 0.1576 0.9204 -0.3577
vn 0.0000 1.0000 0.0000
vn -0.2337 0.9424 0.2394
vn -0.3195 0.8919 0.3200
vn -0.1578 0.9204 0.3578
vn 0.1578 0.9205 0.3576
vn 0.2337 0.9424 0.2393
vn 0.3187 0.8920 0.3206
vn 0.3521 0.9228 0.1567
vn 0.3520 0.9228 -0.1566
vn 0.9274 0.2877 0.2392
vn 0.8719 0.3700 0.3206
vn 0.9099 0.2108 0.3574
vn 0.9008 0.4050 -0.1567
vn 0.9273 0.2877 -0.2396
vn 0.8717 0.3705 -0.3206
vn 0.3187 0.8920 -0.3206
vn 0.2405 0.2555 -0.9364
vn 0.3224 0.3417 -0.8828
vn 0.3593 0.1729 -0.9171
vn -0.2406 0.2550 -0.9365
vn 0.1518 0.3688 -0.9170
vn 0.2387 -0.2252 -0.9446
vn 0.0000 0.0000 -1.0000
vn -0.3224 0.3417 -0.8828
vn -0.1518 0.3686 -0.9171
vn -0.2387 -0.2253 -0.9446
vn -0.3593 0.1729 -0.9171
vn -0.3263 -0.3080 -0.8937
vn -0.3594 -0.1445 -0.9219
vn 0.1649 -0.3504 -0.9220
vn -0.2458 -0.9387 -0.2418
vn -0.3288 -0.8843 -0.3316
vn -0.1577 -0.9182 -0.3634
vn 0.1577 -0.9182 -0.3634
vn 0.2458 -0.9387 -0.2419
vn 0.3263 -0.3080 -0.8937
vn 0.3292 -0.8843 -0.3312
vn 0.3657 -0.9167 -0.1611
vn 0.2458 -0.9388 0.2415
vn 0.0000 -1.0000 0.0000
vn 0.3294 -0.8842 0.3311
vn 0.1580 -0.9181 0.3635
vn -0.1581 -0.9180 0.3636
vn -0.2458 -0.9386 0.2420
vn -0.3657 -0.9167 -0.1611
vn -0.3294 -0.8842 0.3311
vn -0.3660 -0.9166 0.1610
vn 0.3263 -0.3080 0.8937
vn 0.3595 -0.1445 0.9219
vn 0.9513 -0.1909 0.2419
vn 0.9018 -0.2775 0.3313
vn 0.9363 -0.3122 0.1611
vn 0.9256 -0.1044 0.3637
vn 0.9512 -0.1909 -0.2423
vn 0.9362 -0.3122 -0.1611
vn 0.9983 0.0581 0.0000
vn 0.9018 -0.2775 -0.3315
vn 0.9255 -0.1044 -0.3640
vn 0.9099 0.2107 -0.3574
vn -0.9017 -0.2774 -0.3317
vn -0.9099 0.2108 0.3574
vn 0.9009 0.4048 0.1566
vn 0.3594 -0.1445 -0.9219
vn -0.1649 -0.3505 -0.9219
vn 0.3657 -0.9167 0.1609
usemtl Wood.002
s 1
f 1/1/1 2/2/2 3/3/3
f 3/3/3 4/4/4 5/5/5
f 6/6/6 3/3/3 5/5/5
f 7/7/7 1/1/7 3/3/7
f 8/8/8 9/9/9 10/10/10
f 7/7/11 11/11/12 9/9/9
f 8/8/8 12/12/13 13/13/14
f 8/8/8 14/14/15 1/1/1
f 15/15/16 12/16/17 10/17/18
f 10/17/18 16/18/19 15/15/16
f 17/19/20 18/20/21 19/21/22
f 20/22/23 15/15/23 16/18/23
f 16/18/19 21/23/24 20/22/25
f 16/18/19 11/24/26 22/25/27
f 23/26/28 20/22/25 24/27/29
f 20/22/25 25/28/30 24/27/29
f 26/29/31 25/30/32 21/31/33
f 22/32/34 26/29/31 21/31/33
f 27/33/35 28/34/36 29/35/37
f 26/29/38 30/36/38 28/34/38
f 31/37/39 11/38/40 6/39/41
f 31/37/39 5/40/42 30/36/43
f 30/36/43 4/41/44 32/42/45
f 28/34/36 32/42/45 33/43/46
f 34/44/47 4/45/48 2/46/49
f 33/47/50 34/44/47 35/48/51
f 35/48/51 36/49/52 33/47/50
f 28/34/36 36/50/53 29/35/37
f 37/51/54 36/52/55 38/53/56
f 39/54/57 29/55/58 37/51/54
f 38/53/56 40/56/59 37/51/54
f 37/51/60 41/57/60 39/54/60
f 39/54/57 25/58/61 27/59/62
f 41/57/63 24/60/64 39/54/57
f 41/57/63 42/61/65 23/62/66
f 43/63/67 41/57/63 40/56/59
f 44/64/68 42/65/69 45/66/70
f 44/64/68 43/67/71 46/68/72
f 40/56/59 47/69/73 43/63/67
f 46/68/72 47/70/74 48/71/75
f 48/71/75 49/72/76 46/68/72
f 50/73/77 46/68/77 49/72/77
f 49/72/76 51/74/78 14/75/79
f 13/76/80 49/72/76 14/75/79
f 50/73/81 19/77/82 44/64/68
f 50/73/81 12/78/83 17/79/84
f 1/1/1 51/80/85 52/81/86
f 53/82/87 51/83/88 54/84/89
f 52/85/90 34/44/47 2/46/49
f 55/86/91 54/84/89 48/87/92
f 53/82/93 35/48/93 34/44/93
f 55/86/91 47/88/94 56/89/95
f 35/48/51 56/89/95 38/90/96
f 18/20/21 42/91/97 19/21/22
f 1/1/1 52/81/86 2/2/2
f 3/3/3 2/2/2 4/4/4
f 6/6/6 7/7/11 3/3/3
f 7/7/7 8/8/7 1/1/7
f 8/8/8 7/7/11 9/9/9
f 7/7/11 6/6/6 11/11/12
f 8/8/8 10/10/10 12/12/13
f 8/8/8 13/13/14 14/14/15
f 15/15/16 17/19/20 12/16/17
f 10/17/18 9/92/98 16/18/19
f 17/19/20 15/15/16 18/20/21
f 20/22/23 18/20/23 15/15/23
f 16/18/19 22/25/27 21/23/24
f 16/18/19 9/92/98 11/24/26
f 23/26/28 18/20/21 20/22/25
f 20/22/25 21/23/24 25/28/30
f 26/29/31 27/33/35 25/30/32
f 22/32/34 31/37/39 26/29/31
f 27/33/35 26/29/31 28/34/36
f 26/29/38 31/37/38 30/36/38
f 31/37/39 22/32/34 11/38/40
f 31/37/39 6/39/41 5/40/42
f 30/36/43 5/40/42 4/41/44
f 28/34/36 30/36/43 32/42/45
f 34/44/47 32/93/99 4/45/48
f 33/47/50 32/93/99 34/44/47
f 35/48/51 38/90/96 36/49/52
f 28/34/36 33/43/46 36/50/53
f 37/51/54 29/55/58 36/52/55
f 39/54/57 27/59/62 29/55/58
f 38/53/56 56/94/100 40/56/59
f 37/51/60 40/56/60 41/57/60
f 39/54/57 24/60/64 25/58/61
f 41/57/63 23/62/66 24/60/64
f 41/57/63 45/95/101 42/61/65
f 43/63/67 45/95/101 41/57/63
f 44/64/68 19/77/82 42/65/69
f 44/64/68 45/66/70 43/67/71
f 40/56/59 56/94/100 47/69/73
f 46/68/72 43/67/71 47/70/74
f 48/71/75 54/96/102 49/72/76
f 50/73/77 44/64/77 46/68/77
f 49/72/76 54/96/102 51/74/78
f 13/76/80 50/73/81 49/72/76
f 50/73/81 17/79/84 19/77/82
f 50/73/81 13/76/80 12/78/83
f 1/1/1 14/14/15 51/80/85
f 53/82/87 52/85/90 51/83/88
f 52/85/90 53/82/87 34/44/47
f 55/86/91 53/82/87 54/84/89
f 53/82/93 55/86/93 35/48/93
f 55/86/91 48/87/92 47/88/94
f 35/48/51 55/86/91 56/89/95
f 18/20/21 23/26/28 42/91/97