# Blender v3.0.1 OBJ File: ''
# www.blender.org
mtllib 04.mtl
o NILSOLLE_stool.011_Plane.011
v 0.274628 0.654826 -0.312572
v 0.269116 0.760649 -0.312306
v 0.275271 0.654825 -0.312306
v 0.268473 0.760648 -0.312572
v 0.268968 0.761173 -0.312188
v -0.268473 0.760648 -0.312572
v 0.268437 0.761290 -0.312306
v -0.274628 0.654826 -0.312572
v -0.269116 0.760649 -0.312306
v -0.268968 0.761173 -0.312188
v -0.268437 0.761290 -0.312306
v -0.275184 0.654301 -0.312188
v -0.275271 0.654825 -0.312306
v 0.274666 0.654184 -0.312306
v -0.275538 0.654824 -0.311663
v -0.275310 0.654183 -0.311663
v -0.269383 0.760650 -0.311663
v -0.275538 0.654824 -0.270382
v -0.275310 0.654183 -0.270382
v -0.269383 0.760650 -0.270382
v -0.269080 0.761291 -0.270382
v -0.275271 0.654825 -0.269740
v -0.269116 0.760649 -0.269740
v -0.268968 0.761173 -0.269858
v -0.268422 0.761557 -0.270382
v -0.268437 0.761290 -0.269740
v -0.269080 0.761291 -0.311663
v 0.268437 0.761290 -0.269740
v 0.268422 0.761557 -0.270382
v -0.268422 0.761557 -0.311663
v 0.268422 0.761557 -0.311663
v 0.269080 0.761291 -0.311663
v 0.269080 0.761291 -0.270382
v 0.269383 0.760650 -0.311663
v 0.269383 0.760650 -0.270382
v 0.268968 0.761173 -0.269858
v 0.269116 0.760649 -0.269740
v 0.268473 0.760648 -0.269474
v 0.274628 0.654826 -0.269474
v -0.274628 0.654826 -0.269474
v -0.268473 0.760648 -0.269474
v -0.275184 0.654301 -0.269858
v -0.274666 0.654184 -0.269740
v 0.274666 0.654184 -0.269740
v -0.274683 0.653918 -0.270382
v 0.274683 0.653918 -0.270382
v 0.275184 0.654301 -0.269858
v 0.275271 0.654825 -0.269740
v 0.274683 0.653918 -0.311663
v 0.275310 0.654183 -0.270382
v 0.275184 0.654301 -0.312188
v 0.275310 0.654183 -0.311663
v -0.274683 0.653918 -0.311663
v -0.274666 0.654184 -0.312306
v 0.275538 0.654824 -0.311663
v 0.275538 0.654824 -0.270382
vt 0.552083 0.781464
vt 0.579255 0.780047
vt 0.552080 0.781629
vt 0.579258 0.779882
vt 0.579388 0.780009
vt 0.579258 0.641883
vt 0.579420 0.779872
vt 0.552083 0.640301
vt 0.579255 0.641717
vt 0.579388 0.641755
vt 0.579420 0.641892
vt 0.551944 0.640158
vt 0.552080 0.640135
vt 0.551915 0.781473
vt 0.362271 0.904317
vt 0.362136 0.904183
vt 0.362271 0.904153
vt 0.362106 0.904318
vt 0.362271 0.931521
vt 0.362106 0.931521
vt 0.372880 0.904317
vt 0.372880 0.904153
vt 0.372880 0.931521
vt 0.372880 0.931686
vt 0.362136 0.931656
vt 0.373045 0.904318
vt 0.373045 0.931521
vt 0.373015 0.931656
vt 0.891577 0.742970
vt 0.891711 0.742829
vt 0.891742 0.742966
vt 0.880967 0.742801
vt 0.891577 0.742801
vt 0.891742 0.880946
vt 0.891577 0.880943
vt 0.880967 0.742970
vt 0.880967 0.880943
vt 0.880832 0.742829
vt 0.880802 0.742966
vt 0.880802 0.880946
vt 0.880832 0.881083
vt 0.880967 0.881112
vt 0.891577 0.881112
vt 0.123305 0.930163
vt 0.123440 0.930297
vt 0.123305 0.930328
vt 0.112696 0.930328
vt 0.112696 0.930163
vt 0.112561 0.930297
vt 0.112531 0.930163
vt 0.891711 0.881083
vt 0.689538 0.641286
vt 0.689671 0.641159
vt 0.689701 0.641296
vt 0.689701 0.779276
vt 0.662345 0.639705
vt 0.689537 0.641121
vt 0.662345 0.780868
vt 0.689538 0.779286
vt 0.689671 0.779413
vt 0.689537 0.779451
vt 0.662209 0.781010
vt 0.662179 0.780877
vt 0.662179 0.639695
vt 0.891576 0.155161
vt 0.891711 0.155290
vt 0.891576 0.155323
vt 0.891741 0.013975
vt 0.891576 0.013971
vt 0.662209 0.639562
vt 0.662344 0.639539
vt 0.891711 0.013842
vt 0.880967 0.013971
vt 0.891576 0.013809
vt 0.880832 0.013842
vt 0.880967 0.013809
vt 0.880967 0.155161
vt 0.880802 0.013975
vt 0.880832 0.155290
vt 0.880802 0.155157
vt 0.551944 0.781607
vt 0.123305 0.902959
vt 0.123440 0.902825
vt 0.123470 0.902960
vt 0.123305 0.902795
vt 0.112696 0.902959
vt 0.112696 0.902795
vt 0.112561 0.902825
vt 0.112531 0.902960
vt 0.373015 0.904183
vt 0.551915 0.640291
vt 0.362271 0.931686
vt 0.123470 0.930163
vt 0.662344 0.781033
vt 0.891741 0.155157
vt 0.880967 0.155323
vn 0.2388 -0.2252 -0.9446
vn 0.3593 0.1728 -0.9171
vn 0.3596 -0.1441 -0.9219
vn 0.2406 0.2550 -0.9365
vn 0.3225 0.3417 -0.8828
vn -0.2406 0.2550 -0.9365
vn 0.1515 0.3688 -0.9171
vn 0.0000 0.0000 -1.0000
vn -0.2388 -0.2253 -0.9446
vn -0.3593 0.1728 -0.9171
vn -0.3225 0.3417 -0.8828
vn -0.1515 0.3688 -0.9171
vn -0.3263 -0.3080 -0.8937
vn -0.3595 -0.1445 -0.9219
vn 0.1649 -0.3505 -0.9219
vn -0.9513 -0.1909 -0.2419
vn -0.9018 -0.2775 -0.3313
vn -0.9363 -0.3122 -0.1611
vn -0.9256 -0.1044 -0.3638
vn -0.9274 0.2877 -0.2392
vn -0.9099 0.2108 -0.3574
vn -0.9512 -0.1909 0.2423
vn -0.9362 -0.3122 0.1611
vn -0.9983 0.0581 0.0000
vn -0.9008 0.4050 0.1567
vn -0.9273 0.2877 0.2396
vn -0.8719 0.3700 -0.3208
vn -0.9255 -0.1044 0.3640
vn -0.9099 0.2107 0.3574
vn -0.8717 0.3705 0.3206
vn -0.2337 0.9423 0.2398
vn -0.3186 0.8919 0.3208
vn -0.1576 0.9204 0.3577
vn -0.3521 0.9227 -0.1568
vn -0.3520 0.9228 0.1567
vn 0.1576 0.9206 0.3572
vn 0.2336 0.9424 0.2394
vn 0.0000 1.0000 0.0000
vn -0.2338 0.9424 -0.2391
vn -0.3187 0.8919 -0.3208
vn -0.1578 0.9205 -0.3574
vn 0.2337 0.9424 -0.2395
vn 0.1578 0.9204 -0.3578
vn 0.3192 0.8918 -0.3205
vn 0.3521 0.9228 -0.1568
vn 0.3521 0.9227 0.1568
vn 0.9274 0.2877 -0.2392
vn 0.8719 0.3700 -0.3208
vn 0.9007 0.4051 -0.1567
vn 0.9008 0.4050 0.1567
vn 0.9273 0.2877 0.2396
vn 0.8717 0.3705 0.3206
vn 0.9098 0.2107 0.3576
vn 0.3187 0.8919 0.3210
vn 0.2406 0.2550 0.9365
vn 0.3225 0.3417 0.8828
vn 0.1519 0.3686 0.9171
vn -0.1519 0.3687 0.9170
vn 0.2387 -0.2252 0.9446
vn 0.3593 0.1729 0.9171
vn 0.0000 0.0000 1.0000
vn -0.2406 0.2550 0.9365
vn -0.3225 0.3417 0.8828
vn -0.3593 0.1729 0.9171
vn -0.2388 -0.2253 0.9446
vn -0.3263 -0.3081 0.8937
vn -0.1650 -0.3506 0.9219
vn 0.1651 -0.3504 0.9219
vn -0.2458 -0.9387 0.2418
vn -0.3292 -0.8843 0.3312
vn -0.3657 -0.9167 0.1611
vn 0.1577 -0.9181 0.3635
vn 0.2458 -0.9387 0.2419
vn 0.3263 -0.3081 0.8937
vn 0.3594 -0.1445 0.9219
vn 0.3288 -0.8843 0.3315
vn 0.2458 -0.9387 -0.2418
vn 0.3657 -0.9167 0.1611
vn 0.0000 -1.0000 0.0000
vn 0.3294 -0.8842 -0.3311
vn 0.3660 -0.9166 -0.1610
vn -0.2458 -0.9388 -0.2415
vn 0.1581 -0.9181 -0.3635
vn -0.3294 -0.8843 -0.3310
vn -0.1581 -0.9181 -0.3635
vn 0.3263 -0.3080 -0.8937
vn 0.9513 -0.1909 -0.2419
vn 0.9018 -0.2775 -0.3314
vn 0.9256 -0.1044 -0.3638
vn 0.9363 -0.3122 -0.1611
vn 0.9512 -0.1909 0.2423
vn 0.9363 -0.3119 0.1615
vn 0.9983 0.0581 0.0000
vn 0.9017 -0.2774 0.3317
vn 0.9255 -0.1044 0.3640
vn -0.9018 -0.2775 0.3314
vn -0.1649 -0.3506 -0.9219
vn -0.9009 0.4048 -0.1566
vn 0.9099 0.2108 -0.3574
vn -0.3594 -0.1445 0.9219
vn -0.1577 -0.9182 0.3634
vn -0.3657 -0.9167 -0.1607
usemtl Wood
s 1
f 1/1/1 2/2/2 3/3/3
f 4/4/4 5/5/5 2/2/2
f 6/6/6 7/7/7 4/4/4
f 8/8/8 4/4/8 1/1/8
f 8/8/9 9/9/10 6/6/6
f 6/6/6 10/10/11 11/11/12
f 8/8/9 12/12/13 13/13/14
f 14/14/15 8/8/9 1/1/1
f 15/15/16 12/16/17 16/17/18
f 13/18/19 17/19/20 9/20/21
f 18/21/22 16/17/18 19/22/23
f 15/15/24 20/23/24 17/19/24
f 21/24/25 17/19/20 20/23/26
f 17/19/20 10/25/27 9/20/21
f 20/23/26 22/26/28 23/27/29
f 20/23/26 24/28/30 21/24/25
f 25/29/31 24/30/32 26/31/33
f 25/29/31 27/32/34 21/33/35
f 25/29/31 28/34/36 29/35/37
f 30/36/38 29/35/38 31/37/38
f 30/36/39 10/38/40 27/32/34
f 11/39/41 31/37/42 7/40/43
f 31/37/42 5/41/44 7/40/43
f 32/42/45 29/35/37 33/43/46
f 34/44/47 5/45/48 32/46/49
f 34/44/47 33/47/50 35/48/51
f 35/48/51 36/49/52 37/50/53
f 29/35/37 36/51/54 33/43/46
f 38/52/55 36/53/56 28/54/57
f 26/55/58 38/52/55 28/54/57
f 39/56/59 37/57/60 38/52/55
f 40/58/61 38/52/61 41/59/61
f 41/59/62 24/60/63 23/61/64
f 23/61/64 40/58/65 41/59/62
f 40/58/65 42/62/66 43/63/67
f 40/58/65 44/64/68 39/56/59
f 45/65/69 42/66/70 19/67/71
f 44/68/72 45/65/69 46/69/73
f 39/56/59 47/70/74 48/71/75
f 46/69/73 47/72/76 44/68/72
f 49/73/77 50/74/78 46/69/73
f 45/65/79 49/73/79 46/69/79
f 49/73/77 51/75/80 52/76/81
f 53/77/82 14/78/83 49/73/77
f 19/67/71 53/77/82 45/65/69
f 53/77/82 12/79/84 54/80/85
f 1/1/1 51/81/86 14/14/15
f 55/82/87 51/83/88 3/84/89
f 3/84/89 34/44/47 55/82/87
f 52/85/90 56/86/91 50/87/92
f 35/48/93 55/82/93 34/44/93
f 56/86/91 47/88/94 50/87/92
f 48/89/95 35/48/51 37/50/53
f 18/21/22 42/90/96 22/26/28
f 1/1/1 4/4/4 2/2/2
f 4/4/4 7/7/7 5/5/5
f 6/6/6 11/11/12 7/7/7
f 8/8/8 6/6/8 4/4/8
f 8/8/9 13/13/14 9/9/10
f 6/6/6 9/9/10 10/10/11
f 8/8/9 54/91/97 12/12/13
f 14/14/15 54/91/97 8/8/9
f 15/15/16 13/18/19 12/16/17
f 13/18/19 15/15/16 17/19/20
f 18/21/22 15/15/16 16/17/18
f 15/15/24 18/21/24 20/23/24
f 21/24/25 27/92/98 17/19/20
f 17/19/20 27/92/98 10/25/27
f 20/23/26 18/21/22 22/26/28
f 20/23/26 23/27/29 24/28/30
f 25/29/31 21/33/35 24/30/32
f 25/29/31 30/36/39 27/32/34
f 25/29/31 26/31/33 28/34/36
f 30/36/38 25/29/38 29/35/38
f 30/36/39 11/39/41 10/38/40
f 11/39/41 30/36/39 31/37/42
f 31/37/42 32/42/45 5/41/44
f 32/42/45 31/37/42 29/35/37
f 34/44/47 2/93/99 5/45/48
f 34/44/47 32/46/49 33/47/50
f 35/48/51 33/47/50 36/49/52
f 29/35/37 28/34/36 36/51/54
f 38/52/55 37/57/60 36/53/56
f 26/55/58 41/59/62 38/52/55
f 39/56/59 48/71/75 37/57/60
f 40/58/61 39/56/61 38/52/61
f 41/59/62 26/55/58 24/60/63
f 23/61/64 22/94/100 40/58/65
f 40/58/65 22/94/100 42/62/66
f 40/58/65 43/63/67 44/64/68
f 45/65/69 43/95/101 42/66/70
f 44/68/72 43/95/101 45/65/69
f 39/56/59 44/64/68 47/70/74
f 46/69/73 50/74/78 47/72/76
f 49/73/77 52/76/81 50/74/78
f 45/65/79 53/77/79 49/73/79
f 49/73/77 14/78/83 51/75/80
f 53/77/82 54/80/85 14/78/83
f 19/67/71 16/96/102 53/77/82
f 53/77/82 16/96/102 12/79/84
f 1/1/1 3/3/3 51/81/86
f 55/82/87 52/85/90 51/83/88
f 3/84/89 2/93/99 34/44/47
f 52/85/90 55/82/87 56/86/91
f 35/48/93 56/86/93 55/82/93
f 56/86/91 48/89/95 47/88/94
f 48/89/95 56/86/91 35/48/51
f 18/21/22 19/22/23 42/90/96