# Blender v3.0.1 OBJ File: ''
# www.blender.org
mtllib 00.mtl
o model.148
v 0.395919 0.482181 -0.518697
v 0.387066 0.579193 -0.495746
v 0.395919 0.482181 -0.495746
v 0.387066 0.579193 -0.518697
v 0.387066 0.579193 -0.518697
v 0.395919 0.482181 -0.518697
v 0.387066 0.579193 -0.495746
v 0.395919 0.482181 -0.495746
v 0.407548 0.579193 -0.488860
v 0.445297 0.482181 -0.488860
v 0.423645 0.482181 -0.488860
v 0.429200 0.579193 -0.488860
v 0.429200 0.579193 -0.488860
v 0.407548 0.579193 -0.488860
v 0.445297 0.482181 -0.488860
v 0.423645 0.482181 -0.488860
v 0.365109 0.579194 -0.527878
v 0.495022 -0.611671 -0.527878
v 0.365109 0.579194 -0.488861
v 0.495022 -0.611671 -0.488861
v 0.495022 -0.611671 -0.527878
v 0.365109 0.579194 -0.488861
v 0.495022 -0.611671 -0.488861
v 0.365109 0.579194 -0.527878
v 0.365109 0.579194 -0.527878
v 0.455182 0.579194 -0.527878
v 0.495022 -0.611671 -0.527878
v 0.585095 -0.611671 -0.527878
v 0.455182 0.579194 -0.527878
v 0.495022 -0.611671 -0.527878
v 0.585095 -0.611671 -0.527878
v 0.365109 0.579194 -0.527878
v 0.365109 0.579194 -0.488861
v 0.365109 0.579194 -0.527878
v 0.455182 0.579194 -0.488861
v 0.455182 0.579194 -0.527878
v 0.365109 0.579194 -0.527878
v 0.455182 0.579194 -0.488861
v 0.455182 0.579194 -0.527878
v 0.365109 0.579194 -0.488861
v 0.455182 0.579194 -0.488861
v 0.365109 0.579194 -0.488861
v 0.585095 -0.611671 -0.488861
v 0.495022 -0.611671 -0.488861
v 0.365109 0.579194 -0.488861
v 0.585095 -0.611671 -0.488861
v 0.495022 -0.611671 -0.488861
v 0.455182 0.579194 -0.488861
v 0.495022 -0.611671 -0.488861
v 0.495022 -0.611671 -0.527878
v 0.585095 -0.611671 -0.488861
v 0.585095 -0.611671 -0.527878
v 0.495022 -0.611671 -0.527878
v 0.585095 -0.611671 -0.488861
v 0.585095 -0.611671 -0.527878
v 0.495022 -0.611671 -0.488861
v 0.585095 -0.611671 -0.527878
v 0.455182 0.579194 -0.527878
v 0.585095 -0.611671 -0.488861
v 0.455182 0.579194 -0.488861
v 0.455182 0.579194 -0.527878
v 0.585095 -0.611671 -0.488861
v 0.455182 0.579194 -0.488861
v 0.585095 -0.611671 -0.527878
vn 0.9959 0.0909 0.0000
vn -0.9959 -0.0909 0.0000
vn 0.0000 0.0000 -1.0000
vn 0.0000 0.0000 1.0000
vn -0.9941 -0.1084 0.0000
vn 0.9941 0.1084 0.0000
vn 0.0000 -1.0000 0.0000
vn 0.0000 1.0000 0.0000
usemtl Default_OBJ.206
s 1
f 1//1 2//1 3//1
f 2//1 1//1 4//1
f 5//2 6//2 7//2
f 8//2 7//2 6//2
f 9//3 10//3 11//3
f 10//3 9//3 12//3
f 13//4 14//4 15//4
f 16//4 15//4 14//4
f 17//5 18//5 19//5
f 20//5 19//5 18//5
f 21//6 22//6 23//6
f 22//6 21//6 24//6
f 25//3 26//3 27//3
f 28//3 27//3 26//3
f 29//4 30//4 31//4
f 30//4 29//4 32//4
f 33//7 34//7 35//7
f 36//7 35//7 34//7
f 37//8 38//8 39//8
f 38//8 37//8 40//8
f 41//4 42//4 43//4
f 44//4 43//4 42//4
f 45//3 46//3 47//3
f 46//3 45//3 48//3
f 49//7 50//7 51//7
f 52//7 51//7 50//7
f 53//8 54//8 55//8
f 54//8 53//8 56//8
f 57//6 58//6 59//6
f 60//6 59//6 58//6
f 61//5 62//5 63//5
f 62//5 61//5 64//5