# Blender v3.0.1 OBJ File: ''
# www.blender.org
mtllib 08.mtl
o model.004_model.159
v -0.493589 -0.129095 -0.484270
v -0.491945 -0.112007 0.493451
v -0.493589 -0.129095 0.493451
v -0.493589 -0.129095 0.493451
v -0.491945 -0.112007 0.493451
v -0.493589 -0.129095 -0.484270
v -0.491945 -0.112007 0.493451
v -0.512024 -0.112007 -0.484270
v -0.512024 -0.112007 0.493451
v -0.491945 -0.112007 -0.484270
v -0.491945 -0.112007 -0.484270
v -0.491945 -0.112007 0.493451
v -0.512024 -0.112007 -0.484270
v -0.512024 -0.112007 0.493451
v -0.512024 -0.112007 -0.484270
v -0.523323 -0.229487 0.493451
v -0.512024 -0.112007 0.493451
v -0.523323 -0.229487 -0.484270
v -0.523323 -0.229487 -0.484270
v -0.512024 -0.112007 -0.484270
v -0.523323 -0.229487 0.493451
v -0.512024 -0.112007 0.493451
v -0.503244 -0.229487 -0.484270
v -0.523323 -0.229487 0.493451
v -0.523323 -0.229487 -0.484270
v -0.503244 -0.229487 0.493451
v -0.503244 -0.229487 0.493451
v -0.503244 -0.229487 -0.484270
v -0.523323 -0.229487 0.493451
v -0.523323 -0.229487 -0.484270
v -0.503244 -0.229487 -0.484270
v -0.496875 -0.163271 0.493451
v -0.503244 -0.229487 0.493451
v -0.496875 -0.163271 -0.484270
v -0.496875 -0.163271 -0.484270
v -0.503244 -0.229487 -0.484270
v -0.496875 -0.163271 0.493451
v -0.503244 -0.229487 0.493451
v -0.496875 -0.163271 0.493451
v -0.523323 -0.229487 0.493451
v -0.503244 -0.229487 0.493451
v -0.512024 -0.112007 0.493451
v -0.493589 -0.129095 0.493451
v -0.491945 -0.112007 0.493451
v -0.491945 -0.112007 0.493451
v -0.493589 -0.129095 0.493451
v -0.512024 -0.112007 0.493451
v -0.496875 -0.163271 0.493451
v -0.523323 -0.229487 0.493451
v -0.503244 -0.229487 0.493451
v -0.512024 -0.112007 -0.484270
v -0.503244 -0.229487 -0.484270
v -0.523323 -0.229487 -0.484270
v -0.496875 -0.163271 -0.484270
v -0.493589 -0.129095 -0.484270
v -0.491945 -0.112007 -0.484270
v -0.491945 -0.112007 -0.484270
v -0.512024 -0.112007 -0.484270
v -0.493589 -0.129095 -0.484270
v -0.496875 -0.163271 -0.484270
v -0.503244 -0.229487 -0.484270
v -0.523323 -0.229487 -0.484270
v -0.491945 -0.112007 -0.484270
v -0.493589 -0.129095 -0.484270
v -0.491945 -0.112007 0.493451
v -0.491945 -0.112007 0.493451
v -0.493589 -0.129095 -0.484270
v -0.491945 -0.112007 -0.484270
vn 0.9954 -0.0958 -0.0000
vn -0.9954 0.0958 0.0000
vn 0.0000 1.0000 0.0000
vn 0.0000 -1.0000 -0.0000
vn -0.9954 0.0957 0.0000
vn 0.9954 -0.0957 -0.0000
vn -0.0000 0.0000 1.0000
vn 0.0000 0.0000 -1.0000
usemtl Default_OBJ.209
s 1
f 1//1 2//1 3//1
f 4//2 5//2 6//2
f 7//3 8//3 9//3
f 8//3 7//3 10//3
f 11//4 12//4 13//4
f 14//4 13//4 12//4
f 15//5 16//5 17//5
f 16//5 15//5 18//5
f 19//6 20//6 21//6
f 22//6 21//6 20//6
f 23//4 24//4 25//4
f 24//4 23//4 26//4
f 27//3 28//3 29//3
f 30//3 29//3 28//3
f 31//6 32//6 33//6
f 32//6 31//6 34//6
f 35//5 36//5 37//5
f 38//5 37//5 36//5
f 39//7 40//7 41//7
f 40//7 39//7 42//7
f 42//7 39//7 43//7
f 42//7 43//7 44//7
f 45//8 46//8 47//8
f 46//8 48//8 47//8
f 47//8 48//8 49//8
f 50//8 49//8 48//8
f 51//8 52//8 53//8
f 52//8 51//8 54//8
f 54//8 51//8 55//8
f 55//8 51//8 56//8
f 57//7 58//7 59//7
f 59//7 58//7 60//7
f 60//7 58//7 61//7
f 62//7 61//7 58//7
f 63//2 64//2 65//2
f 66//1 67//1 68//1