# Blender v3.0.1 OBJ File: ''
# www.blender.org
mtllib 10.mtl
o model.011_model.165
v -0.374047 0.579193 0.502632
v 0.382755 0.482181 0.502632
v -0.382751 0.482181 0.502632
v 0.374051 0.579193 0.502632
v 0.374051 0.579193 0.502632
v -0.374047 0.579193 0.502632
v 0.382755 0.482181 0.502632
v -0.382751 0.482181 0.502632
v 0.382755 0.482181 0.502632
v -0.382751 0.482181 0.525583
v -0.382751 0.482181 0.502632
v 0.382755 0.482181 0.525583
v 0.382755 0.482181 0.525583
v 0.382755 0.482181 0.502632
v -0.382751 0.482181 0.525583
v -0.382751 0.482181 0.502632
v 0.374051 0.579193 0.502632
v -0.374047 0.579193 0.525583
v -0.374047 0.579193 0.502632
v 0.374051 0.579193 0.525583
v 0.374051 0.579193 0.525583
v 0.374051 0.579193 0.502632
v -0.374047 0.579193 0.525583
v -0.374047 0.579193 0.502632
v 0.374051 0.579193 0.525583
v -0.382751 0.482181 0.525583
v 0.382755 0.482181 0.525583
v -0.374047 0.579193 0.525583
v -0.374047 0.579193 0.525583
v 0.374051 0.579193 0.525583
v -0.382751 0.482181 0.525583
v 0.382755 0.482181 0.525583
vn 0.0000 0.0000 -1.0000
vn 0.0000 -0.0000 1.0000
vn 0.0000 -1.0000 0.0000
vn 0.0000 1.0000 0.0000
usemtl Default_OBJ.201
s 1
f 1//1 2//1 3//1
f 2//1 1//1 4//1
f 5//2 6//2 7//2
f 8//2 7//2 6//2
f 9//3 10//3 11//3
f 10//3 9//3 12//3
f 13//4 14//4 15//4
f 16//4 15//4 14//4
f 17//3 18//3 19//3
f 18//3 17//3 20//3
f 21//4 22//4 23//4
f 24//4 23//4 22//4
f 25//2 26//2 27//2
f 26//2 25//2 28//2
f 29//1 30//1 31//1
f 32//1 31//1 30//1