# Blender v3.0.1 OBJ File: ''
# www.blender.org
mtllib 05.mtl
o model.024_model.2519
v -0.405054 0.073785 0.393169
v -0.402638 0.073288 -0.393169
v -0.405054 0.073785 -0.393169
v -0.402638 0.073288 0.393169
v -0.400433 0.072183 -0.393169
v -0.400433 0.072183 0.393169
v -0.398589 0.070544 -0.393169
v -0.398589 0.070544 0.393169
v -0.397232 0.068485 0.393169
v -0.397232 0.068485 -0.393169
v -0.396454 0.066144 -0.393169
v -0.396454 0.066144 0.393169
v -0.396309 0.063682 -0.393169
v -0.396309 0.063682 0.393169
v -0.433508 0.068813 -0.393169
v -0.434005 0.066397 0.393169
v -0.433508 0.068813 0.393169
v -0.434005 0.066397 -0.393169
v -0.432403 0.071018 -0.393169
v -0.432403 0.071018 0.393169
v -0.430764 0.072862 0.393169
v -0.430764 0.072862 -0.393169
v -0.428705 0.074219 -0.393169
v -0.428705 0.074219 0.393169
v -0.426364 0.074997 -0.393169
v -0.426364 0.074997 0.393169
v -0.423902 0.075142 -0.393169
v -0.423902 0.075142 0.393169
v -0.423902 0.075142 0.393169
v -0.405054 0.073785 -0.393169
v -0.423902 0.075142 -0.393169
v -0.405054 0.073785 0.393169
v -0.434005 0.066397 0.393169
v -0.439165 -0.005251 -0.393169
v -0.439165 -0.005251 0.393169
v -0.434005 0.066397 -0.393169
v -0.434005 0.066397 -0.393169
v -0.434005 0.066397 0.393169
v -0.439165 -0.005251 -0.393169
v -0.439165 -0.005251 0.393169
v -0.439165 -0.005251 -0.393169
v -0.439020 -0.007713 0.393169
v -0.439165 -0.005251 0.393169
v -0.439020 -0.007713 -0.393169
v -0.438242 -0.010054 0.393169
v -0.438242 -0.010054 -0.393169
v -0.436885 -0.012113 0.393169
v -0.435041 -0.013751 -0.393169
v -0.436885 -0.012113 -0.393169
v -0.435041 -0.013751 0.393169
v -0.432836 -0.014857 -0.393169
v -0.430420 -0.015353 -0.393169
v -0.432836 -0.014857 0.393169
v -0.430420 -0.015353 0.393169
v -0.439020 -0.007713 -0.393169
v -0.439165 -0.005251 -0.393169
v -0.439020 -0.007713 0.393169
v -0.438242 -0.010054 0.393169
v -0.438242 -0.010054 -0.393169
v -0.436885 -0.012113 0.393169
v -0.436885 -0.012113 -0.393169
v -0.435041 -0.013751 -0.393169
v -0.435041 -0.013751 0.393169
v -0.432836 -0.014857 -0.393169
v -0.432836 -0.014857 0.393169
v -0.430420 -0.015353 -0.393169
v -0.430420 -0.015353 0.393169
v -0.439165 -0.005251 0.393169
v -0.401469 -0.007966 -0.393169
v -0.396309 0.063682 0.393169
v -0.401469 -0.007966 0.393169
v -0.396309 0.063682 -0.393169
v -0.396309 0.063682 -0.393169
v -0.401469 -0.007966 -0.393169
v -0.396309 0.063682 0.393169
v -0.401469 -0.007966 0.393169
v -0.401966 -0.010382 -0.393169
v -0.401469 -0.007966 0.393169
v -0.401966 -0.010382 0.393169
v -0.401469 -0.007966 -0.393169
v -0.403071 -0.012587 -0.393169
v -0.403071 -0.012587 0.393169
v -0.404709 -0.014431 -0.393169
v -0.404709 -0.014431 0.393169
v -0.406769 -0.015788 0.393169
v -0.406769 -0.015788 -0.393169
v -0.409109 -0.016566 0.393169
v -0.409109 -0.016566 -0.393169
v -0.411572 -0.016711 0.393169
v -0.411572 -0.016711 -0.393169
v -0.401469 -0.007966 -0.393169
v -0.401966 -0.010382 -0.393169
v -0.401469 -0.007966 0.393169
v -0.401966 -0.010382 0.393169
v -0.403071 -0.012587 -0.393169
v -0.403071 -0.012587 0.393169
v -0.404709 -0.014431 -0.393169
v -0.404709 -0.014431 0.393169
v -0.406769 -0.015788 0.393169
v -0.406769 -0.015788 -0.393169
v -0.409109 -0.016566 0.393169
v -0.409109 -0.016566 -0.393169
v -0.411572 -0.016711 0.393169
v -0.411572 -0.016711 -0.393169
v -0.411572 -0.016711 -0.393169
v -0.430420 -0.015353 0.393169
v -0.430420 -0.015353 -0.393169
v -0.411572 -0.016711 0.393169
v -0.411572 -0.016711 0.393169
v -0.411572 -0.016711 -0.393169
v -0.430420 -0.015353 0.393169
v -0.430420 -0.015353 -0.393169
v -0.402638 0.073288 0.393169
v -0.405054 0.073785 0.393169
v -0.402638 0.073288 -0.393169
v -0.400433 0.072183 -0.393169
v -0.400433 0.072183 0.393169
v -0.398589 0.070544 -0.393169
v -0.398589 0.070544 0.393169
v -0.397232 0.068485 0.393169
v -0.397232 0.068485 -0.393169
v -0.396454 0.066144 -0.393169
v -0.396454 0.066144 0.393169
v -0.396309 0.063682 -0.393169
v -0.396309 0.063682 0.393169
v -0.405054 0.073785 -0.393169
v -0.434005 0.066397 -0.393169
v -0.433508 0.068813 -0.393169
v -0.434005 0.066397 0.393169
v -0.433508 0.068813 0.393169
v -0.432403 0.071018 -0.393169
v -0.432403 0.071018 0.393169
v -0.430764 0.072862 0.393169
v -0.430764 0.072862 -0.393169
v -0.428705 0.074219 -0.393169
v -0.428705 0.074219 0.393169
v -0.426364 0.074997 -0.393169
v -0.426364 0.074997 0.393169
v -0.423902 0.075142 -0.393169
v -0.423902 0.075142 0.393169
v -0.405054 0.073785 0.393169
v -0.423902 0.075142 0.393169
v -0.405054 0.073785 -0.393169
v -0.423902 0.075142 -0.393169
vn 0.2015 0.9795 0.0000
vn 0.2858 0.9583 0.0000
vn 0.3686 0.9296 0.0000
vn 0.5241 0.8517 0.0000
vn 0.5967 0.8025 0.0000
vn 0.7561 0.6544 0.0000
vn 0.7561 0.6545 0.0000
vn 0.8997 0.4366 0.0000
vn 0.9728 0.2316 0.0000
vn 0.9894 0.1455 0.0000
vn 0.9983 0.0588 0.0000
vn -0.9583 0.2858 0.0000
vn -0.9795 0.2015 0.0000
vn -0.9296 0.3686 0.0000
vn -0.8278 0.5610 0.0000
vn -0.6544 0.7561 0.0000
vn -0.4755 0.8797 0.0000
vn -0.3967 0.9180 0.0000
vn -0.2316 0.9728 0.0000
vn -0.1456 0.9893 0.0000
vn -0.0588 0.9983 0.0000
vn 0.0718 0.9974 0.0000
vn -0.9974 0.0718 0.0000
vn 0.9974 -0.0718 -0.0000
vn -0.9983 -0.0588 -0.0000
vn -0.9894 -0.1455 -0.0000
vn -0.9728 -0.2316 -0.0000
vn -0.9180 -0.3966 -0.0000
vn -0.8797 -0.4755 -0.0000
vn -0.7560 -0.6546 -0.0000
vn -0.5967 -0.8025 -0.0000
vn -0.5241 -0.8517 -0.0000
vn -0.3687 -0.9295 -0.0000
vn -0.2011 -0.9796 -0.0000
vn -0.2858 -0.9583 -0.0000
vn 0.9728 0.2317 0.0000
vn 0.9180 0.3966 0.0000
vn 0.8797 0.4755 0.0000
vn 0.7560 0.6546 0.0000
vn 0.3687 0.9295 -0.0000
vn 0.2011 0.9796 0.0000
vn 0.9583 -0.2858 -0.0000
vn 0.9795 -0.2015 -0.0000
vn 0.9296 -0.3686 -0.0000
vn 0.8517 -0.5241 -0.0000
vn 0.8025 -0.5967 -0.0000
vn 0.6545 -0.7561 -0.0000
vn 0.4755 -0.8797 -0.0000
vn 0.3966 -0.9180 -0.0000
vn 0.2317 -0.9728 -0.0000
vn 0.1455 -0.9894 -0.0000
vn 0.0588 -0.9983 -0.0000
vn -0.9296 0.3687 0.0000
vn -0.8517 0.5241 0.0000
vn -0.8025 0.5967 0.0000
vn -0.6545 0.7561 0.0000
vn -0.3966 0.9180 -0.0000
vn -0.1455 0.9894 -0.0000
vn -0.0719 -0.9974 -0.0000
vn 0.0719 0.9974 0.0000
vn -0.3687 -0.9296 -0.0000
vn -0.2015 -0.9795 -0.0000
vn -0.7561 -0.6544 -0.0000
vn -0.7561 -0.6545 -0.0000
vn -0.8997 -0.4366 -0.0000
vn -0.9728 -0.2317 -0.0000
vn 0.8278 -0.5610 -0.0000
vn 0.6544 -0.7561 -0.0000
vn 0.3967 -0.9179 -0.0000
vn 0.2316 -0.9728 -0.0000
vn 0.1456 -0.9893 -0.0000
vn -0.0718 -0.9974 -0.0000
usemtl Default_OBJ.179
s 1
f 1//1 2//2 3//1
f 2//2 1//1 4//3
f 4//3 5//4 2//2
f 5//4 4//3 6//5
f 6//5 7//6 5//4
f 7//6 6//5 8//7
f 9//8 7//6 8//7
f 7//6 9//8 10//8
f 9//8 11//9 10//8
f 11//9 9//8 12//10
f 12//10 13//11 11//9
f 13//11 12//10 14//11
f 15//12 16//13 17//14
f 16//13 15//12 18//13
f 17//14 19//15 15//12
f 19//15 17//14 20//15
f 21//16 19//15 20//15
f 19//15 21//16 22//16
f 21//16 23//17 22//16
f 23//17 21//16 24//18
f 24//18 25//19 23//17
f 25//19 24//18 26//20
f 26//20 27//21 25//19
f 27//21 26//20 28//21
f 29//22 30//22 31//22
f 30//22 29//22 32//22
f 33//23 34//23 35//23
f 34//23 33//23 36//23
f 37//24 38//24 39//24
f 40//24 39//24 38//24
f 41//25 42//26 43//25
f 42//26 41//25 44//27
f 44//27 45//28 42//26
f 45//28 44//27 46//29
f 46//29 47//30 45//28
f 48//31 47//30 49//30
f 47//30 46//29 49//30
f 47//30 48//31 50//32
f 51//33 50//32 48//31
f 52//34 53//35 51//33
f 50//32 51//33 53//35
f 53//35 52//34 54//34
f 55//36 56//11 57//10
f 57//10 58//37 55//36
f 59//38 55//36 58//37
f 58//37 60//39 59//38
f 61//39 60//39 62//5
f 61//39 59//38 60//39
f 63//4 62//5 60//39
f 62//5 63//4 64//40
f 64//40 65//2 66//41
f 65//2 64//40 63//4
f 67//41 66//41 65//2
f 68//11 57//10 56//11
f 69//24 70//24 71//24
f 70//24 69//24 72//24
f 73//23 74//23 75//23
f 76//23 75//23 74//23
f 77//42 78//43 79//44
f 78//43 77//42 80//43
f 79//44 81//45 77//42
f 81//45 79//44 82//46
f 82//46 83//47 81//45
f 83//47 82//46 84//47
f 85//48 83//47 84//47
f 83//47 85//48 86//49
f 87//50 86//49 85//48
f 86//49 87//50 88//51
f 89//52 88//51 87//50
f 88//51 89//52 90//52
f 91//13 92//12 93//13
f 94//53 93//13 92//12
f 92//12 95//54 94//53
f 96//55 94//53 95//54
f 95//54 97//56 96//55
f 98//56 96//55 97//56
f 98//56 97//56 99//17
f 100//57 99//17 97//56
f 99//17 100//57 101//19
f 102//58 101//19 100//57
f 101//19 102//58 103//21
f 104//21 103//21 102//58
f 105//59 106//59 107//59
f 106//59 105//59 108//59
f 109//60 110//60 111//60
f 112//60 111//60 110//60
f 113//61 114//62 115//35
f 115//35 116//32 113//61
f 117//31 113//61 116//32
f 116//32 118//63 117//31
f 119//64 117//31 118//63
f 119//64 118//63 120//65
f 121//65 120//65 118//63
f 121//65 122//66 120//65
f 123//26 120//65 122//66
f 122//66 124//25 123//26
f 125//25 123//26 124//25
f 126//62 115//35 114//62
f 127//43 128//42 129//43
f 130//44 129//43 128//42
f 128//42 131//67 130//44
f 132//67 130//44 131//67
f 132//67 131//67 133//68
f 134//68 133//68 131//67
f 134//68 135//48 133//68
f 136//69 133//68 135//48
f 135//48 137//70 136//69
f 138//71 136//69 137//70
f 137//70 139//52 138//71
f 140//52 138//71 139//52
f 141//72 142//72 143//72
f 144//72 143//72 142//72