# Blender v3.0.1 OBJ File: ''
# www.blender.org
mtllib 07.mtl
o model.001_model.2533
v 0.281254 0.060870 0.393169
v 0.283670 0.060373 -0.393169
v 0.281254 0.060870 -0.393169
v 0.283670 0.060373 0.393169
v 0.285875 0.059268 -0.393169
v 0.285875 0.059268 0.393169
v 0.287719 0.057629 -0.393169
v 0.287719 0.057629 0.393169
v 0.289076 0.055570 0.393169
v 0.289076 0.055570 -0.393169
v 0.289854 0.053229 -0.393169
v 0.289854 0.053229 0.393169
v 0.290000 0.050767 -0.393169
v 0.290000 0.050767 0.393169
v 0.252800 0.055898 -0.393169
v 0.252304 0.053482 0.393169
v 0.252800 0.055898 0.393169
v 0.252304 0.053482 -0.393169
v 0.253906 0.058103 -0.393169
v 0.253906 0.058103 0.393169
v 0.255544 0.059947 0.393169
v 0.255544 0.059947 -0.393169
v 0.257603 0.061304 -0.393169
v 0.257603 0.061304 0.393169
v 0.259944 0.062082 -0.393169
v 0.259944 0.062082 0.393169
v 0.262406 0.062227 -0.393169
v 0.262406 0.062227 0.393169
v 0.262406 0.062227 0.393169
v 0.281254 0.060870 -0.393169
v 0.262406 0.062227 -0.393169
v 0.281254 0.060870 0.393169
v 0.252304 0.053482 0.393169
v 0.247143 -0.018166 -0.393169
v 0.247143 -0.018166 0.393169
v 0.252304 0.053482 -0.393169
v 0.252304 0.053482 -0.393169
v 0.252304 0.053482 0.393169
v 0.247143 -0.018166 -0.393169
v 0.247143 -0.018166 0.393169
v 0.247143 -0.018166 -0.393169
v 0.247289 -0.020628 0.393169
v 0.247143 -0.018166 0.393169
v 0.247289 -0.020628 -0.393169
v 0.248066 -0.022969 0.393169
v 0.248066 -0.022969 -0.393169
v 0.249424 -0.025028 0.393169
v 0.251267 -0.026666 -0.393169
v 0.249424 -0.025028 -0.393169
v 0.251267 -0.026666 0.393169
v 0.253473 -0.027772 -0.393169
v 0.255889 -0.028268 -0.393169
v 0.253473 -0.027772 0.393169
v 0.255889 -0.028268 0.393169
v 0.247289 -0.020628 -0.393169
v 0.247143 -0.018166 -0.393169
v 0.247289 -0.020628 0.393169
v 0.248066 -0.022969 0.393169
v 0.248066 -0.022969 -0.393169
v 0.249424 -0.025028 0.393169
v 0.249424 -0.025028 -0.393169
v 0.251267 -0.026666 -0.393169
v 0.251267 -0.026666 0.393169
v 0.253473 -0.027772 -0.393169
v 0.253473 -0.027772 0.393169
v 0.255889 -0.028268 -0.393169
v 0.255889 -0.028268 0.393169
v 0.247143 -0.018166 0.393169
v 0.284839 -0.020881 -0.393169
v 0.290000 0.050767 0.393169
v 0.284839 -0.020881 0.393169
v 0.290000 0.050767 -0.393169
v 0.290000 0.050767 -0.393169
v 0.284839 -0.020881 -0.393169
v 0.290000 0.050767 0.393169
v 0.284839 -0.020881 0.393169
v 0.284343 -0.023297 -0.393169
v 0.284839 -0.020881 0.393169
v 0.284343 -0.023297 0.393169
v 0.284839 -0.020881 -0.393169
v 0.283237 -0.025502 -0.393169
v 0.283237 -0.025502 0.393169
v 0.281599 -0.027346 -0.393169
v 0.281599 -0.027346 0.393169
v 0.279540 -0.028703 0.393169
v 0.279540 -0.028703 -0.393169
v 0.277199 -0.029481 0.393169
v 0.277199 -0.029481 -0.393169
v 0.274737 -0.029626 0.393169
v 0.274737 -0.029626 -0.393169
v 0.284839 -0.020881 -0.393169
v 0.284343 -0.023297 -0.393169
v 0.284839 -0.020881 0.393169
v 0.284343 -0.023297 0.393169
v 0.283237 -0.025502 -0.393169
v 0.283237 -0.025502 0.393169
v 0.281599 -0.027346 -0.393169
v 0.281599 -0.027346 0.393169
v 0.279540 -0.028703 0.393169
v 0.279540 -0.028703 -0.393169
v 0.277199 -0.029481 0.393169
v 0.277199 -0.029481 -0.393169
v 0.274737 -0.029626 0.393169
v 0.274737 -0.029626 -0.393169
v 0.274737 -0.029626 -0.393169
v 0.255889 -0.028268 0.393169
v 0.255889 -0.028268 -0.393169
v 0.274737 -0.029626 0.393169
v 0.274737 -0.029626 0.393169
v 0.274737 -0.029626 -0.393169
v 0.255889 -0.028268 0.393169
v 0.255889 -0.028268 -0.393169
v 0.283670 0.060373 0.393169
v 0.281254 0.060870 0.393169
v 0.283670 0.060373 -0.393169
v 0.285875 0.059268 -0.393169
v 0.285875 0.059268 0.393169
v 0.287719 0.057629 -0.393169
v 0.287719 0.057629 0.393169
v 0.289076 0.055570 0.393169
v 0.289076 0.055570 -0.393169
v 0.289854 0.053229 -0.393169
v 0.289854 0.053229 0.393169
v 0.290000 0.050767 -0.393169
v 0.290000 0.050767 0.393169
v 0.281254 0.060870 -0.393169
v 0.252304 0.053482 -0.393169
v 0.252800 0.055898 -0.393169
v 0.252304 0.053482 0.393169
v 0.252800 0.055898 0.393169
v 0.253906 0.058103 -0.393169
v 0.253906 0.058103 0.393169
v 0.255544 0.059947 0.393169
v 0.255544 0.059947 -0.393169
v 0.257603 0.061304 -0.393169
v 0.257603 0.061304 0.393169
v 0.259944 0.062082 -0.393169
v 0.259944 0.062082 0.393169
v 0.262406 0.062227 -0.393169
v 0.262406 0.062227 0.393169
v 0.281254 0.060870 0.393169
v 0.262406 0.062227 0.393169
v 0.281254 0.060870 -0.393169
v 0.262406 0.062227 -0.393169
vn 0.2015 0.9795 0.0000
vn 0.2858 0.9583 0.0000
vn 0.3686 0.9296 0.0000
vn 0.5241 0.8517 0.0000
vn 0.5967 0.8025 0.0000
vn 0.7561 0.6544 0.0000
vn 0.8997 0.4366 0.0000
vn 0.9728 0.2316 0.0000
vn 0.9894 0.1455 0.0000
vn 0.9982 0.0592 0.0000
vn -0.9583 0.2858 0.0000
vn -0.9796 0.2011 0.0000
vn -0.9296 0.3686 0.0000
vn -0.8278 0.5610 0.0000
vn -0.6546 0.7560 0.0000
vn -0.4755 0.8797 0.0000
vn -0.3967 0.9180 0.0000
vn -0.2316 0.9728 0.0000
vn -0.1456 0.9893 0.0000
vn -0.0588 0.9983 0.0000
vn 0.0718 0.9974 0.0000
vn -0.9974 0.0718 0.0000
vn 0.9974 -0.0718 -0.0000
vn -0.9982 -0.0592 -0.0000
vn -0.9894 -0.1455 -0.0000
vn -0.9728 -0.2316 -0.0000
vn -0.9180 -0.3966 -0.0000
vn -0.8797 -0.4755 -0.0000
vn -0.7560 -0.6546 -0.0000
vn -0.5967 -0.8025 -0.0000
vn -0.5241 -0.8517 -0.0000
vn -0.3687 -0.9295 -0.0000
vn -0.2011 -0.9796 -0.0000
vn -0.2858 -0.9583 -0.0000
vn 0.9180 0.3966 0.0000
vn 0.8797 0.4755 0.0000
vn 0.7560 0.6546 0.0000
vn 0.5967 0.8025 -0.0001
vn 0.3687 0.9296 0.0000
vn 0.2011 0.9796 0.0000
vn 0.9583 -0.2858 -0.0000
vn 0.9796 -0.2011 -0.0000
vn 0.9296 -0.3686 -0.0000
vn 0.8517 -0.5241 -0.0000
vn 0.8025 -0.5967 -0.0000
vn 0.6546 -0.7560 -0.0000
vn 0.4755 -0.8797 -0.0000
vn 0.3966 -0.9180 -0.0000
vn 0.2317 -0.9728 -0.0000
vn 0.1455 -0.9894 0.0000
vn 0.0588 -0.9983 -0.0000
vn -0.8517 0.5241 0.0000
vn -0.8025 0.5967 0.0000
vn -0.3966 0.9180 0.0000
vn -0.1455 0.9894 0.0000
vn -0.0719 -0.9974 -0.0000
vn 0.0719 0.9974 0.0000
vn -0.3687 -0.9296 -0.0000
vn -0.2015 -0.9795 -0.0000
vn -0.7561 -0.6544 -0.0000
vn -0.8997 -0.4366 -0.0000
vn -0.9728 -0.2317 -0.0000
vn 0.8278 -0.5610 -0.0000
vn 0.3967 -0.9179 -0.0000
vn 0.2316 -0.9728 -0.0000
vn 0.1456 -0.9893 -0.0000
vn -0.0718 -0.9974 -0.0000
usemtl Default_OBJ.176
s 1
f 1//1 2//2 3//1
f 2//2 1//1 4//3
f 4//3 5//4 2//2
f 5//4 4//3 6//5
f 6//5 7//6 5//4
f 7//6 6//5 8//6
f 9//7 7//6 8//6
f 7//6 9//7 10//7
f 9//7 11//8 10//7
f 11//8 9//7 12//9
f 12//9 13//10 11//8
f 13//10 12//9 14//10
f 15//11 16//12 17//13
f 16//12 15//11 18//12
f 17//13 19//14 15//11
f 19//14 17//13 20//14
f 21//15 19//14 20//14
f 19//14 21//15 22//15
f 21//15 23//16 22//15
f 23//16 21//15 24//17
f 24//17 25//18 23//16
f 25//18 24//17 26//19
f 26//19 27//20 25//18
f 27//20 26//19 28//20
f 29//21 30//21 31//21
f 30//21 29//21 32//21
f 33//22 34//22 35//22
f 34//22 33//22 36//22
f 37//23 38//23 39//23
f 40//23 39//23 38//23
f 41//24 42//25 43//24
f 42//25 41//24 44//26
f 44//26 45//27 42//25
f 45//27 44//26 46//28
f 46//28 47//29 45//27
f 48//30 47//29 49//29
f 47//29 46//28 49//29
f 47//29 48//30 50//31
f 51//32 50//31 48//30
f 52//33 53//34 51//32
f 50//31 51//32 53//34
f 53//34 52//33 54//33
f 55//8 56//10 57//9
f 57//9 58//35 55//8
f 59//36 55//8 58//35
f 58//35 60//37 59//36
f 61//37 60//37 62//38
f 61//37 59//36 60//37
f 63//4 62//38 60//37
f 62//38 63//4 64//39
f 64//39 65//2 66//40
f 65//2 64//39 63//4
f 67//40 66//40 65//2
f 68//10 57//9 56//10
f 69//23 70//23 71//23
f 70//23 69//23 72//23
f 73//22 74//22 75//22
f 76//22 75//22 74//22
f 77//41 78//42 79//43
f 78//42 77//41 80//42
f 79//43 81//44 77//41
f 81//44 79//43 82//45
f 82//45 83//46 81//44
f 83//46 82//45 84//46
f 85//47 83//46 84//46
f 83//46 85//47 86//48
f 87//49 86//48 85//47
f 86//48 87//49 88//50
f 89//51 88//50 87//49
f 88//50 89//51 90//51
f 91//12 92//11 93//12
f 94//13 93//12 92//11
f 92//11 95//52 94//13
f 96//53 94//13 95//52
f 95//52 97//15 96//53
f 98//15 96//53 97//15
f 98//15 97//15 99//16
f 100//54 99//16 97//15
f 99//16 100//54 101//18
f 102//55 101//18 100//54
f 101//18 102//55 103//20
f 104//20 103//20 102//55
f 105//56 106//56 107//56
f 106//56 105//56 108//56
f 109//57 110//57 111//57
f 112//57 111//57 110//57
f 113//58 114//59 115//34
f 115//34 116//31 113//58
f 117//30 113//58 116//31
f 116//31 118//60 117//30
f 119//60 117//30 118//60
f 119//60 118//60 120//61
f 121//61 120//61 118//60
f 121//61 122//62 120//61
f 123//25 120//61 122//62
f 122//62 124//24 123//25
f 125//24 123//25 124//24
f 126//59 115//34 114//59
f 127//42 128//41 129//42
f 130//43 129//42 128//41
f 128//41 131//63 130//43
f 132//63 130//43 131//63
f 132//63 131//63 133//46
f 134//46 133//46 131//63
f 134//46 135//47 133//46
f 136//64 133//46 135//47
f 135//47 137//65 136//64
f 138//66 136//64 137//65
f 137//65 139//51 138//66
f 140//51 138//66 139//51
f 141//67 142//67 143//67
f 144//67 143//67 142//67