# Blender v3.0.1 OBJ File: ''
# www.blender.org
mtllib 01.mtl
o model.023_model.18852
v -0.359513 -0.753979 -0.499437
v -0.359523 -0.754075 -0.453605
v -0.279523 -0.034078 -0.497913
v -0.279548 -0.034302 -0.452081
v -0.277657 -0.015509 -0.497768
v -0.277721 -0.016118 -0.451940
v -0.276151 0.003458 -0.497407
v -0.276256 0.002336 -0.451589
v -0.275044 0.022449 -0.496833
v -0.275178 0.020812 -0.451030
v -0.274336 0.041449 -0.496045
v -0.274489 0.039298 -0.450263
v -0.274027 0.060451 -0.495044
v -0.274189 0.057786 -0.449289
v -0.274117 0.079443 -0.493830
v -0.274277 0.076263 -0.448108
v -0.274608 0.098414 -0.492405
v -0.274754 0.094720 -0.446722
v -0.275497 0.117354 -0.490769
v -0.275619 0.113146 -0.445130
v -0.276785 0.136251 -0.488922
v -0.276872 0.131531 -0.443334
v -0.278471 0.155095 -0.486867
v -0.278513 0.149865 -0.441334
v -0.280555 0.173875 -0.484605
v -0.280540 0.168137 -0.439133
v -0.282986 0.192220 -0.482183
v -0.282921 0.186102 -0.436761
v -0.359236 0.723956 -0.408910
v -0.359153 0.717711 -0.363506
v -0.279523 -0.034078 -0.497913
v -0.359523 -0.754075 -0.453605
v -0.359512 -0.753979 -0.499437
v -0.279548 -0.034302 -0.452081
v -0.277657 -0.015509 -0.497768
v -0.277721 -0.016118 -0.451940
v -0.276151 0.003458 -0.497407
v -0.276256 0.002336 -0.451589
v -0.275044 0.022448 -0.496833
v -0.275178 0.020812 -0.451030
v -0.274336 0.041449 -0.496044
v -0.274489 0.039298 -0.450263
v -0.274027 0.060451 -0.495043
v -0.274189 0.057785 -0.449289
v -0.274117 0.079443 -0.493830
v -0.274277 0.076262 -0.448108
v -0.274608 0.098414 -0.492405
v -0.274754 0.094719 -0.446722
v -0.275497 0.117353 -0.490769
v -0.275619 0.113146 -0.445130
v -0.276785 0.136250 -0.488922
v -0.276872 0.131531 -0.443334
v -0.278471 0.155095 -0.486867
v -0.278513 0.149865 -0.441334
v -0.280555 0.173875 -0.484605
v -0.280540 0.168137 -0.439133
v -0.282986 0.192220 -0.482183
v -0.282921 0.186102 -0.436761
v -0.359236 0.723956 -0.408910
v -0.359153 0.717711 -0.363506
v -0.404796 -0.749045 -0.453605
v -0.279548 -0.034302 -0.452081
v -0.324848 -0.029509 -0.452082
v -0.359523 -0.754075 -0.453605
v -0.277721 -0.016118 -0.451940
v -0.276256 0.002336 -0.451589
v -0.323091 -0.012037 -0.451946
v -0.275178 0.020812 -0.451030
v -0.321702 0.005465 -0.451613
v -0.274489 0.039298 -0.450263
v -0.320680 0.022988 -0.451083
v -0.274189 0.057785 -0.449289
v -0.320027 0.040521 -0.450355
v -0.274277 0.076262 -0.448108
v -0.319742 0.058055 -0.449432
v -0.320278 0.093085 -0.446997
v -0.319825 0.075580 -0.448312
v -0.274754 0.094719 -0.446722
v -0.321098 0.110561 -0.445487
v -0.275619 0.113146 -0.445130
v -0.322287 0.127999 -0.443783
v -0.276872 0.131531 -0.443334
v -0.323843 0.145387 -0.441887
v -0.278513 0.149865 -0.441334
v -0.325765 0.162717 -0.439799
v -0.280540 0.168137 -0.439133
v -0.328053 0.179978 -0.437521
v -0.282921 0.186102 -0.436761
v -0.404251 0.711353 -0.364297
v -0.359153 0.717711 -0.363506
v -0.279548 -0.034302 -0.452081
v -0.324848 -0.029509 -0.452082
v -0.277721 -0.016118 -0.451940
v -0.404796 -0.749045 -0.453605
v -0.323091 -0.012037 -0.451946
v -0.276256 0.002336 -0.451589
v -0.321702 0.005465 -0.451613
v -0.275178 0.020812 -0.451030
v -0.320680 0.022988 -0.451083
v -0.274489 0.039298 -0.450263
v -0.320027 0.040521 -0.450355
v -0.274189 0.057785 -0.449289
v -0.319742 0.058055 -0.449432
v -0.274277 0.076262 -0.448108
v -0.319825 0.075580 -0.448312
v -0.320278 0.093085 -0.446997
v -0.274754 0.094719 -0.446722
v -0.321098 0.110561 -0.445487
v -0.322287 0.127999 -0.443783
v -0.275619 0.113146 -0.445130
v -0.276872 0.131531 -0.443334
v -0.323843 0.145387 -0.441887
v -0.325765 0.162717 -0.439799
v -0.278513 0.149865 -0.441334
v -0.280540 0.168137 -0.439133
v -0.328053 0.179978 -0.437521
v -0.404251 0.711353 -0.364297
v -0.282921 0.186102 -0.436761
v -0.359153 0.717711 -0.363506
v -0.359523 -0.754075 -0.453605
v -0.404796 -0.749045 -0.453605
v -0.324823 -0.029285 -0.497913
v -0.404785 -0.748949 -0.499437
v -0.324848 -0.029509 -0.452082
v -0.323028 -0.011429 -0.497774
v -0.323091 -0.012037 -0.451946
v -0.321598 0.006587 -0.497432
v -0.321702 0.005465 -0.451613
v -0.320546 0.024625 -0.496886
v -0.320680 0.022988 -0.451083
v -0.319873 0.042673 -0.496137
v -0.320027 0.040521 -0.450355
v -0.319580 0.060721 -0.495186
v -0.319742 0.058055 -0.449432
v -0.319666 0.078760 -0.494034
v -0.319825 0.075580 -0.448312
v -0.320131 0.096780 -0.492680
v -0.320278 0.093085 -0.446997
v -0.320976 0.114769 -0.491126
v -0.321098 0.110561 -0.445487
v -0.322200 0.132718 -0.489372
v -0.322287 0.127999 -0.443783
v -0.323801 0.150617 -0.487420
v -0.323843 0.145387 -0.441887
v -0.325780 0.168455 -0.485271
v -0.325765 0.162717 -0.439799
v -0.328118 0.186096 -0.482942
v -0.328053 0.179978 -0.437521
v -0.404335 0.717598 -0.409702
v -0.404251 0.711353 -0.364297
v -0.404785 -0.748949 -0.499437
v -0.324823 -0.029285 -0.497913
v -0.404796 -0.749045 -0.453605
v -0.324848 -0.029509 -0.452082
v -0.323028 -0.011429 -0.497774
v -0.323091 -0.012037 -0.451946
v -0.321598 0.006587 -0.497432
v -0.321702 0.005465 -0.451613
v -0.320546 0.024625 -0.496886
v -0.320680 0.022988 -0.451083
v -0.319873 0.042673 -0.496137
v -0.320027 0.040521 -0.450355
v -0.319580 0.060721 -0.495186
v -0.319742 0.058055 -0.449432
v -0.319666 0.078760 -0.494034
v -0.319825 0.075580 -0.448312
v -0.320131 0.096780 -0.492680
v -0.320278 0.093085 -0.446997
v -0.320976 0.114769 -0.491126
v -0.321098 0.110561 -0.445487
v -0.322200 0.132718 -0.489372
v -0.322287 0.127999 -0.443783
v -0.323801 0.150617 -0.487420
v -0.323843 0.145387 -0.441887
v -0.325780 0.168455 -0.485271
v -0.325765 0.162717 -0.439799
v -0.328118 0.186096 -0.482942
v -0.328053 0.179978 -0.437521
v -0.404335 0.717598 -0.409702
v -0.404251 0.711353 -0.364297
v -0.279523 -0.034078 -0.497913
v -0.404785 -0.748949 -0.499437
v -0.324823 -0.029285 -0.497913
v -0.359512 -0.753979 -0.499437
v -0.277657 -0.015509 -0.497768
v -0.323028 -0.011429 -0.497774
v -0.276151 0.003458 -0.497407
v -0.321598 0.006587 -0.497432
v -0.275044 0.022448 -0.496833
v -0.320546 0.024625 -0.496886
v -0.274336 0.041449 -0.496044
v -0.319873 0.042673 -0.496137
v -0.274027 0.060451 -0.495043
v -0.319580 0.060721 -0.495186
v -0.274117 0.079443 -0.493830
v -0.319666 0.078760 -0.494034
v -0.320131 0.096780 -0.492680
v -0.274608 0.098414 -0.492405
v -0.320976 0.114769 -0.491126
v -0.322200 0.132718 -0.489372
v -0.275497 0.117353 -0.490769
v -0.323801 0.150617 -0.487420
v -0.276785 0.136250 -0.488922
v -0.325780 0.168455 -0.485271
v -0.278471 0.155095 -0.486867
v -0.328118 0.186096 -0.482942
v -0.280555 0.173875 -0.484605
v -0.404335 0.717598 -0.409702
v -0.282986 0.192220 -0.482183
v -0.359236 0.723956 -0.408910
v -0.324823 -0.029285 -0.497913
v -0.404785 -0.748949 -0.499437
v -0.279523 -0.034078 -0.497913
v -0.277657 -0.015509 -0.497768
v -0.323028 -0.011429 -0.497774
v -0.276151 0.003458 -0.497407
v -0.275044 0.022448 -0.496833
v -0.321598 0.006587 -0.497432
v -0.320546 0.024625 -0.496886
v -0.274336 0.041449 -0.496044
v -0.274027 0.060451 -0.495043
v -0.319873 0.042673 -0.496137
v -0.319580 0.060721 -0.495186
v -0.274117 0.079443 -0.493830
v -0.319666 0.078760 -0.494034
v -0.320131 0.096780 -0.492680
v -0.274608 0.098414 -0.492405
v -0.320976 0.114769 -0.491126
v -0.275497 0.117353 -0.490769
v -0.322200 0.132718 -0.489372
v -0.276785 0.136250 -0.488922
v -0.323801 0.150617 -0.487420
v -0.278471 0.155095 -0.486867
v -0.325780 0.168455 -0.485271
v -0.280555 0.173875 -0.484605
v -0.328118 0.186096 -0.482942
v -0.282986 0.192220 -0.482183
v -0.404335 0.717598 -0.409702
v -0.359236 0.723956 -0.408910
v -0.359512 -0.753979 -0.499437
v -0.359236 0.723956 -0.408910
v -0.404251 0.711353 -0.364297
v -0.359153 0.717711 -0.363506
v -0.404335 0.717598 -0.409702
v -0.359153 0.717711 -0.363506
v -0.404251 0.711353 -0.364297
v -0.359236 0.723956 -0.408910
v -0.404335 0.717598 -0.409702
v -0.359523 -0.754075 -0.453605
v -0.404785 -0.748949 -0.499437
v -0.359512 -0.753979 -0.499437
v -0.404796 -0.749045 -0.453605
v -0.359512 -0.753979 -0.499437
v -0.404785 -0.748949 -0.499437
v -0.359523 -0.754075 -0.453605
v -0.404796 -0.749045 -0.453605
vn -0.9939 0.1104 0.0000
vn -0.9939 0.1103 -0.0000
vn -0.9939 0.1099 0.0000
vn -0.9957 0.0929 -0.0001
vn -0.9963 0.0862 -0.0002
vn -0.9974 0.0721 -0.0005
vn -0.9979 0.0652 -0.0007
vn -0.9987 0.0511 -0.0011
vn -0.9990 0.0443 -0.0013
vn -0.9995 0.0303 -0.0019
vn -0.9997 0.0234 -0.0023
vn -1.0000 0.0093 -0.0030
vn -1.0000 0.0024 -0.0034
vn -0.9999 -0.0115 -0.0043
vn -0.9998 -0.0185 -0.0048
vn -0.9994 -0.0327 -0.0058
vn -0.9992 -0.0391 -0.0064
vn -0.9985 -0.0534 -0.0076
vn -0.9981 -0.0603 -0.0082
vn -0.9972 -0.0744 -0.0096
vn -0.9967 -0.0810 -0.0103
vn -0.9954 -0.0949 -0.0118
vn -0.9947 -0.1017 -0.0126
vn -0.9932 -0.1155 -0.0143
vn -0.9924 -0.1224 -0.0151
vn -0.9902 -0.1388 -0.0173
vn -0.9901 -0.1394 -0.0174
vn -0.9901 -0.1396 -0.0174
vn 0.9939 -0.1103 -0.0000
vn 0.9939 -0.1104 0.0000
vn 0.9940 -0.1097 0.0000
vn 0.9957 -0.0927 0.0001
vn 0.9963 -0.0860 0.0002
vn 0.9974 -0.0721 0.0005
vn 0.9979 -0.0653 0.0007
vn 0.9987 -0.0509 0.0011
vn 0.9990 -0.0444 0.0013
vn 0.9995 -0.0303 0.0019
vn 0.9997 -0.0234 0.0023
vn 1.0000 -0.0094 0.0030
vn 1.0000 -0.0024 0.0034
vn 0.9999 0.0116 0.0043
vn 0.9998 0.0185 0.0048
vn 0.9995 0.0326 0.0058
vn 0.9992 0.0394 0.0064
vn 0.9985 0.0535 0.0076
vn 0.9981 0.0603 0.0082
vn 0.9972 0.0742 0.0096
vn 0.9967 0.0811 0.0103
vn 0.9954 0.0949 0.0118
vn 0.9948 0.1015 0.0126
vn 0.9932 0.1157 0.0143
vn 0.9924 0.1224 0.0151
vn 0.9902 0.1389 0.0173
vn 0.9901 0.1394 0.0174
vn 0.9901 0.1396 0.0174
vn -0.0002 -0.0021 1.0000
vn -0.0002 -0.0023 1.0000
vn -0.0003 -0.0026 1.0000
vn -0.0012 -0.0118 0.9999
vn -0.0021 -0.0228 0.9997
vn -0.0015 -0.0150 0.9999
vn -0.0028 -0.0338 0.9994
vn -0.0024 -0.0261 0.9997
vn -0.0033 -0.0454 0.9990
vn -0.0030 -0.0375 0.9993
vn -0.0035 -0.0566 0.9984
vn -0.0034 -0.0486 0.9988
vn -0.0034 -0.0694 0.9976
vn -0.0035 -0.0600 0.9982
vn -0.0032 -0.0787 0.9969
vn -0.0031 -0.0823 0.9966
vn -0.0027 -0.0900 0.9959
vn -0.0025 -0.0936 0.9956
vn -0.0020 -0.1013 0.9949
vn -0.0017 -0.1045 0.9945
vn -0.0010 -0.1122 0.9937
vn -0.0007 -0.1159 0.9933
vn 0.0002 -0.1233 0.9924
vn 0.0006 -0.1268 0.9919
vn 0.0018 -0.1357 0.9908
vn 0.0018 -0.1360 0.9907
vn 0.0018 -0.1363 0.9907
vn 0.0002 0.0023 -1.0000
vn 0.0003 0.0024 -1.0000
vn 0.0012 0.0117 -0.9999
vn 0.0002 0.0021 -1.0000
vn 0.0015 0.0151 -0.9999
vn 0.0021 0.0229 -0.9997
vn 0.0023 0.0262 -0.9997
vn 0.0028 0.0338 -0.9994
vn 0.0029 0.0374 -0.9993
vn 0.0032 0.0452 -0.9990
vn 0.0033 0.0487 -0.9988
vn 0.0034 0.0564 -0.9984
vn 0.0035 0.0600 -0.9982
vn 0.0034 0.0694 -0.9976
vn 0.0032 0.0788 -0.9969
vn 0.0031 0.0820 -0.9966
vn 0.0027 0.0900 -0.9959
vn 0.0020 0.1013 -0.9948
vn 0.0025 0.0933 -0.9956
vn 0.0017 0.1045 -0.9945
vn 0.0010 0.1121 -0.9937
vn -0.0002 0.1233 -0.9924
vn 0.0007 0.1158 -0.9933
vn -0.0006 0.1269 -0.9919
vn -0.0018 0.1358 -0.9907
vn -0.0018 0.1363 -0.9907
vn -0.0018 0.1359 -0.9907
vn -0.9963 0.0861 -0.0002
vn -0.9974 0.0719 -0.0005
vn -0.9995 0.0300 -0.0019
vn -1.0000 0.0094 -0.0030
vn -1.0000 0.0026 -0.0034
vn -0.9999 -0.0116 -0.0043
vn -0.9998 -0.0184 -0.0048
vn -0.9995 -0.0325 -0.0058
vn -0.9992 -0.0393 -0.0064
vn -0.9982 -0.0600 -0.0082
vn -0.9972 -0.0741 -0.0096
vn -0.9967 -0.0809 -0.0103
vn -0.9947 -0.1018 -0.0126
vn -0.9932 -0.1156 -0.0143
vn -0.9924 -0.1225 -0.0151
vn -0.9902 -0.1389 -0.0173
vn -0.9901 -0.1395 -0.0174
vn 0.9939 -0.1099 0.0000
vn 0.9957 -0.0930 0.0001
vn 0.9963 -0.0861 0.0002
vn 0.9974 -0.0719 0.0005
vn 0.9979 -0.0652 0.0007
vn 0.9987 -0.0511 0.0011
vn 0.9995 -0.0301 0.0019
vn 1.0000 -0.0093 0.0030
vn 1.0000 -0.0026 0.0034
vn 0.9999 0.0115 0.0043
vn 0.9995 0.0325 0.0058
vn 0.9992 0.0395 0.0064
vn 0.9985 0.0533 0.0076
vn 0.9982 0.0600 0.0082
vn 0.9967 0.0810 0.0103
vn 0.9947 0.1018 0.0126
vn 0.9932 0.1156 0.0143
vn 0.9924 0.1222 0.0151
vn 0.0002 0.0022 -1.0000
vn 0.0011 0.0114 -0.9999
vn 0.0015 0.0152 -0.9999
vn 0.0021 0.0228 -0.9997
vn 0.0028 0.0339 -0.9994
vn 0.0029 0.0373 -0.9993
vn 0.0032 0.0451 -0.9990
vn 0.0031 0.0824 -0.9966
vn 0.0027 0.0901 -0.9959
vn 0.0020 0.1013 -0.9949
vn 0.0025 0.0935 -0.9956
vn 0.0010 0.1124 -0.9937
vn 0.0017 0.1048 -0.9945
vn -0.0002 0.1234 -0.9924
vn -0.0018 0.1356 -0.9908
vn -0.0006 0.1268 -0.9919
vn -0.0018 0.1360 -0.9907
vn -0.0003 -0.0025 1.0000
vn -0.0012 -0.0116 0.9999
vn -0.0015 -0.0152 0.9999
vn -0.0021 -0.0227 0.9997
vn -0.0028 -0.0339 0.9994
vn -0.0024 -0.0262 0.9997
vn -0.0033 -0.0453 0.9990
vn -0.0034 -0.0489 0.9988
vn -0.0035 -0.0601 0.9982
vn -0.0031 -0.0821 0.9966
vn -0.0027 -0.0899 0.9959
vn -0.0025 -0.0933 0.9956
vn -0.0020 -0.1015 0.9948
vn -0.0010 -0.1124 0.9937
vn -0.0007 -0.1158 0.9933
vn 0.0002 -0.1234 0.9924
vn 0.0006 -0.1267 0.9919
vn 0.0017 -0.1356 0.9908
vn 0.0018 -0.1359 0.9907
vn -0.1406 0.9808 0.1352
vn 0.1406 -0.9808 -0.1352
vn -0.1104 -0.9939 -0.0021
vn 0.1104 0.9939 0.0021
usemtl Default_OBJ.096
s 1
f 1//1 2//1 3//2
f 4//3 3//2 2//1
f 3//2 4//3 5//4
f 6//5 5//4 4//3
f 5//4 6//5 7//6
f 8//7 7//6 6//5
f 7//6 8//7 9//8
f 10//9 9//8 8//7
f 9//8 10//9 11//10
f 12//11 11//10 10//9
f 11//10 12//11 13//12
f 14//13 13//12 12//11
f 13//12 14//13 15//14
f 16//15 15//14 14//13
f 15//14 16//15 17//16
f 18//17 17//16 16//15
f 17//16 18//17 19//18
f 20//19 19//18 18//17
f 19//18 20//19 21//20
f 22//21 21//20 20//19
f 21//20 22//21 23//22
f 24//23 23//22 22//21
f 23//22 24//23 25//24
f 26//25 25//24 24//23
f 25//24 26//25 27//26
f 28//27 27//26 26//25
f 27//26 28//27 29//28
f 30//28 29//28 28//27
f 31//29 32//30 33//30
f 32//30 31//29 34//31
f 35//32 34//31 31//29
f 34//31 35//32 36//33
f 37//34 36//33 35//32
f 36//33 37//34 38//35
f 39//36 38//35 37//34
f 38//35 39//36 40//37
f 41//38 40//37 39//36
f 40//37 41//38 42//39
f 43//40 42//39 41//38
f 42//39 43//40 44//41
f 45//42 44//41 43//40
f 44//41 45//42 46//43
f 47//44 46//43 45//42
f 46//43 47//44 48//45
f 49//46 48//45 47//44
f 48//45 49//46 50//47
f 51//48 50//47 49//46
f 50//47 51//48 52//49
f 53//50 52//49 51//48
f 52//49 53//50 54//51
f 55//52 54//51 53//50
f 54//51 55//52 56//53
f 57//54 56//53 55//52
f 56//53 57//54 58//55
f 59//56 58//55 57//54
f 58//55 59//56 60//56
f 61//57 62//58 63//59
f 62//58 61//57 64//57
f 65//60 63//59 62//58
f 66//61 67//62 65//60
f 63//59 65//60 67//62
f 68//63 69//64 66//61
f 67//62 66//61 69//64
f 70//65 71//66 68//63
f 69//64 68//63 71//66
f 72//67 73//68 70//65
f 71//66 70//65 73//68
f 74//69 75//70 72//67
f 73//68 72//67 75//70
f 74//69 76//71 77//69
f 75//70 74//69 77//69
f 76//71 74//69 78//72
f 78//72 79//73 76//71
f 79//73 78//72 80//74
f 80//74 81//75 79//73
f 81//75 80//74 82//76
f 82//76 83//77 81//75
f 83//77 82//76 84//78
f 84//78 85//79 83//77
f 85//79 84//78 86//80
f 86//80 87//81 85//79
f 87//81 86//80 88//82
f 88//82 89//83 87//81
f 89//83 88//82 90//83
f 91//84 92//85 93//86
f 92//85 91//84 94//87
f 95//88 93//86 92//85
f 93//86 95//88 96//89
f 96//89 97//90 98//91
f 97//90 96//89 95//88
f 99//92 98//91 97//90
f 98//91 99//92 100//93
f 100//93 101//94 102//95
f 101//94 100//93 99//92
f 103//96 102//95 101//94
f 102//95 103//96 104//97
f 105//97 106//98 104//97
f 105//97 104//97 103//96
f 107//99 104//97 106//98
f 106//98 108//100 107//99
f 108//100 109//101 110//102
f 110//102 107//99 108//100
f 111//103 110//102 109//101
f 109//101 112//104 111//103
f 112//104 113//105 114//106
f 114//106 111//103 112//104
f 115//107 114//106 113//105
f 113//105 116//108 115//107
f 116//108 117//109 118//110
f 118//110 115//107 116//108
f 119//109 118//110 117//109
f 120//87 94//87 91//84
f 121//1 122//2 123//1
f 122//2 121//1 124//3
f 124//3 125//4 122//2
f 126//111 127//112 125//4
f 125//4 124//3 126//111
f 128//7 129//8 127//112
f 127//112 126//111 128//7
f 130//9 131//113 129//8
f 129//8 128//7 130//9
f 132//11 133//114 131//113
f 131//113 130//9 132//11
f 134//115 135//116 133//114
f 133//114 132//11 134//115
f 136//117 137//118 135//116
f 135//116 134//115 136//117
f 138//119 139//18 137//118
f 137//118 136//117 138//119
f 140//120 141//121 139//18
f 139//18 138//119 140//120
f 142//122 143//22 141//121
f 141//121 140//120 142//122
f 144//123 145//124 143//22
f 143//22 142//122 144//123
f 146//125 147//126 145//124
f 145//124 144//123 146//125
f 148//127 149//28 147//126
f 147//126 146//125 148//127
f 149//28 148//127 150//28
f 151//30 152//29 153//30
f 154//128 153//30 152//29
f 152//29 155//129 154//128
f 156//130 154//128 155//129
f 155//129 157//131 156//130
f 158//132 156//130 157//131
f 157//131 159//133 158//132
f 160//37 158//132 159//133
f 159//133 161//134 160//37
f 162//39 160//37 161//134
f 161//134 163//135 162//39
f 164//136 162//39 163//135
f 163//135 165//137 164//136
f 166//43 164//136 165//137
f 165//137 167//138 166//43
f 168//139 166//43 167//138
f 167//138 169//140 168//139
f 170//141 168//139 169//140
f 169//140 171//48 170//141
f 172//142 170//141 171//48
f 171//48 173//50 172//142
f 174//143 172//142 173//50
f 173//50 175//144 174//143
f 176//145 174//143 175//144
f 175//144 177//54 176//145
f 178//55 176//145 177//54
f 177//54 179//56 178//55
f 180//56 178//55 179//56
f 181//146 182//87 183//85
f 182//87 181//146 184//87
f 183//85 185//147 181//146
f 185//147 183//85 186//148
f 186//148 187//149 185//147
f 187//149 186//148 188//90
f 188//90 189//150 187//149
f 189//150 188//90 190//151
f 190//151 191//152 189//150
f 191//152 190//151 192//94
f 192//94 193//95 191//152
f 193//95 192//94 194//96
f 194//96 195//97 193//95
f 195//97 194//96 196//97
f 197//98 195//97 196//97
f 195//97 197//98 198//153
f 199//154 198//153 197//98
f 200//155 201//156 199//154
f 198//153 199//154 201//156
f 202//157 203//158 200//155
f 201//156 200//155 203//158
f 204//159 205//106 202//157
f 203//158 202//157 205//106
f 206//160 207//161 204//159
f 205//106 204//159 207//161
f 208//109 209//162 206//160
f 207//161 206//160 209//162
f 209//162 208//109 210//109
f 211//163 212//57 213//58
f 213//58 214//164 211//163
f 215//165 211//163 214//164
f 214//164 216//166 215//165
f 216//166 217//167 218//168
f 218//168 215//165 216//166
f 219//66 218//168 217//167
f 217//167 220//169 219//66
f 220//169 221//67 222//170
f 222//170 219//66 220//169
f 223//171 222//170 221//67
f 221//67 224//69 223//171
f 225//69 224//69 226//71
f 225//69 223//171 224//69
f 227//172 226//71 224//69
f 226//71 227//172 228//173
f 228//173 229//174 230//175
f 229//174 228//173 227//172
f 231//76 230//175 229//174
f 230//175 231//76 232//176
f 232//176 233//177 234//178
f 233//177 232//176 231//76
f 235//179 234//178 233//177
f 234//178 235//179 236//180
f 236//180 237//181 238//83
f 237//181 236//180 235//179
f 239//83 238//83 237//181
f 240//57 213//58 212//57
f 241//182 242//182 243//182
f 242//182 241//182 244//182
f 245//183 246//183 247//183
f 248//183 247//183 246//183
f 249//184 250//184 251//184
f 250//184 249//184 252//184
f 253//185 254//185 255//185
f 256//185 255//185 254//185