# Blender v3.0.1 OBJ File: ''
# www.blender.org
mtllib 02.mtl
o model.061_model.18890
v -0.359236 0.723956 0.407337
v -0.404251 0.711353 0.362725
v -0.359153 0.717711 0.361933
v -0.404335 0.717598 0.408129
v -0.359153 0.717711 0.361933
v -0.404251 0.711353 0.362725
v -0.359236 0.723956 0.407337
v -0.404335 0.717598 0.408129
v -0.359512 -0.753979 0.497864
v -0.359523 -0.754075 0.452032
v -0.279523 -0.034078 0.496340
v -0.279548 -0.034302 0.450508
v -0.277657 -0.015509 0.496196
v -0.277721 -0.016118 0.450367
v -0.276151 0.003458 0.495835
v -0.276256 0.002336 0.450016
v -0.275044 0.022448 0.495260
v -0.275178 0.020812 0.449457
v -0.274336 0.041449 0.494472
v -0.274489 0.039298 0.448690
v -0.274027 0.060451 0.493471
v -0.274189 0.057785 0.447716
v -0.274117 0.079443 0.492257
v -0.274277 0.076262 0.446535
v -0.274608 0.098414 0.490832
v -0.274754 0.094719 0.445149
v -0.275497 0.117353 0.489196
v -0.275619 0.113146 0.443557
v -0.276785 0.136250 0.487350
v -0.276872 0.131531 0.441761
v -0.278471 0.155094 0.485295
v -0.278513 0.149865 0.439761
v -0.280555 0.173875 0.483032
v -0.280540 0.168137 0.437560
v -0.282986 0.192220 0.480610
v -0.282921 0.186102 0.435188
v -0.359236 0.723956 0.407337
v -0.359152 0.717711 0.361933
v -0.359512 -0.753979 0.497864
v -0.404785 -0.748949 0.497864
v -0.359523 -0.754075 0.452032
v -0.404796 -0.749045 0.452032
v -0.359523 -0.754075 0.452032
v -0.404785 -0.748949 0.497864
v -0.359512 -0.753979 0.497864
v -0.404796 -0.749045 0.452032
v -0.279523 -0.034078 0.496340
v -0.359523 -0.754075 0.452032
v -0.359512 -0.753979 0.497864
v -0.279548 -0.034302 0.450508
v -0.277657 -0.015509 0.496196
v -0.277721 -0.016118 0.450367
v -0.276151 0.003458 0.495835
v -0.276256 0.002336 0.450016
v -0.275044 0.022448 0.495260
v -0.275178 0.020811 0.449457
v -0.274336 0.041449 0.494472
v -0.274489 0.039298 0.448690
v -0.274027 0.060451 0.493471
v -0.274189 0.057785 0.447716
v -0.274117 0.079443 0.492257
v -0.274277 0.076262 0.446535
v -0.274608 0.098414 0.490832
v -0.274754 0.094719 0.445149
v -0.275497 0.117353 0.489196
v -0.275619 0.113146 0.443557
v -0.276785 0.136250 0.487350
v -0.276872 0.131531 0.441761
v -0.278471 0.155094 0.485295
v -0.278513 0.149865 0.439761
v -0.280555 0.173875 0.483032
v -0.280540 0.168137 0.437560
v -0.282986 0.192220 0.480610
v -0.282921 0.186102 0.435188
v -0.359236 0.723955 0.407337
v -0.359152 0.717711 0.361933
v -0.279548 -0.034302 0.450508
v -0.324848 -0.029509 0.450509
v -0.277721 -0.016118 0.450367
v -0.404796 -0.749045 0.452032
v -0.323091 -0.012037 0.450373
v -0.276256 0.002336 0.450016
v -0.321702 0.005465 0.450040
v -0.275178 0.020811 0.449457
v -0.320680 0.022988 0.449510
v -0.274489 0.039298 0.448690
v -0.320027 0.040521 0.448783
v -0.274189 0.057785 0.447716
v -0.319742 0.058055 0.447859
v -0.274277 0.076262 0.446535
v -0.319825 0.075580 0.446739
v -0.320278 0.093085 0.445424
v -0.274754 0.094719 0.445149
v -0.321098 0.110561 0.443914
v -0.322287 0.127998 0.442211
v -0.275619 0.113146 0.443557
v -0.276872 0.131531 0.441761
v -0.323843 0.145387 0.440314
v -0.325765 0.162717 0.438226
v -0.278513 0.149865 0.439761
v -0.280540 0.168137 0.437560
v -0.328053 0.179978 0.435948
v -0.404251 0.711353 0.362725
v -0.282921 0.186102 0.435188
v -0.359152 0.717711 0.361933
v -0.359523 -0.754075 0.452032
v -0.404796 -0.749045 0.452032
v -0.279548 -0.034302 0.450508
v -0.324848 -0.029509 0.450509
v -0.359523 -0.754075 0.452032
v -0.277721 -0.016118 0.450367
v -0.276256 0.002336 0.450016
v -0.323091 -0.012037 0.450373
v -0.275178 0.020811 0.449457
v -0.321702 0.005465 0.450040
v -0.320680 0.022988 0.449510
v -0.274489 0.039298 0.448690
v -0.274189 0.057785 0.447716
v -0.320027 0.040521 0.448783
v -0.319742 0.058055 0.447859
v -0.274277 0.076262 0.446535
v -0.320278 0.093085 0.445424
v -0.319825 0.075580 0.446739
v -0.274754 0.094719 0.445149
v -0.321098 0.110561 0.443914
v -0.275619 0.113146 0.443557
v -0.322287 0.127998 0.442211
v -0.276872 0.131531 0.441761
v -0.323843 0.145387 0.440314
v -0.278513 0.149865 0.439761
v -0.325765 0.162717 0.438226
v -0.280540 0.168137 0.437560
v -0.328053 0.179978 0.435948
v -0.282921 0.186102 0.435188
v -0.404251 0.711353 0.362725
v -0.359152 0.717711 0.361933
v -0.404785 -0.748949 0.497864
v -0.324823 -0.029285 0.496340
v -0.404796 -0.749045 0.452032
v -0.324848 -0.029509 0.450509
v -0.323028 -0.011429 0.496202
v -0.323091 -0.012037 0.450373
v -0.321598 0.006587 0.495859
v -0.321702 0.005465 0.450040
v -0.320546 0.024625 0.495313
v -0.320680 0.022988 0.449510
v -0.319873 0.042673 0.494564
v -0.320027 0.040521 0.448783
v -0.319580 0.060721 0.493613
v -0.319742 0.058055 0.447859
v -0.319666 0.078760 0.492461
v -0.319825 0.075580 0.446739
v -0.320131 0.096779 0.491107
v -0.320278 0.093085 0.445424
v -0.320976 0.114768 0.489553
v -0.321098 0.110561 0.443914
v -0.322200 0.132717 0.487799
v -0.322287 0.127998 0.442211
v -0.323801 0.150617 0.485847
v -0.323843 0.145387 0.440314
v -0.325780 0.168455 0.483698
v -0.325765 0.162717 0.438226
v -0.328118 0.186096 0.481369
v -0.328053 0.179978 0.435948
v -0.404335 0.717597 0.408129
v -0.404251 0.711353 0.362725
v -0.404796 -0.749045 0.452032
v -0.324823 -0.029285 0.496340
v -0.404785 -0.748949 0.497864
v -0.324848 -0.029509 0.450509
v -0.323028 -0.011429 0.496202
v -0.323091 -0.012037 0.450373
v -0.321598 0.006587 0.495859
v -0.321702 0.005465 0.450040
v -0.320546 0.024625 0.495313
v -0.320680 0.022988 0.449510
v -0.319873 0.042673 0.494564
v -0.320027 0.040521 0.448783
v -0.319580 0.060721 0.493613
v -0.319742 0.058055 0.447859
v -0.319666 0.078760 0.492461
v -0.319825 0.075580 0.446739
v -0.320131 0.096779 0.491107
v -0.320278 0.093085 0.445424
v -0.320976 0.114768 0.489553
v -0.321098 0.110561 0.443914
v -0.322200 0.132717 0.487799
v -0.322287 0.127998 0.442211
v -0.323801 0.150617 0.485847
v -0.323843 0.145387 0.440314
v -0.325780 0.168455 0.483698
v -0.325765 0.162717 0.438226
v -0.328118 0.186096 0.481369
v -0.328053 0.179978 0.435948
v -0.404335 0.717597 0.408129
v -0.404251 0.711353 0.362725
v -0.324823 -0.029285 0.496340
v -0.404785 -0.748949 0.497864
v -0.279523 -0.034078 0.496340
v -0.277657 -0.015509 0.496196
v -0.323028 -0.011429 0.496202
v -0.276151 0.003458 0.495835
v -0.275044 0.022448 0.495260
v -0.321598 0.006587 0.495859
v -0.320546 0.024625 0.495313
v -0.274336 0.041449 0.494472
v -0.274027 0.060451 0.493471
v -0.319873 0.042673 0.494564
v -0.319580 0.060721 0.493613
v -0.274117 0.079443 0.492257
v -0.319666 0.078760 0.492461
v -0.320131 0.096779 0.491107
v -0.274608 0.098414 0.490832
v -0.320976 0.114768 0.489553
v -0.275497 0.117353 0.489196
v -0.322200 0.132717 0.487799
v -0.276785 0.136250 0.487350
v -0.323801 0.150617 0.485847
v -0.278471 0.155094 0.485295
v -0.325780 0.168455 0.483698
v -0.280555 0.173875 0.483032
v -0.328118 0.186096 0.481369
v -0.282986 0.192220 0.480610
v -0.404335 0.717597 0.408129
v -0.359236 0.723955 0.407337
v -0.359512 -0.753979 0.497864
v -0.279523 -0.034078 0.496340
v -0.404785 -0.748949 0.497864
v -0.324823 -0.029285 0.496340
v -0.359512 -0.753979 0.497864
v -0.277657 -0.015509 0.496196
v -0.323028 -0.011429 0.496202
v -0.276151 0.003458 0.495835
v -0.321598 0.006587 0.495859
v -0.275044 0.022448 0.495260
v -0.320546 0.024625 0.495313
v -0.274336 0.041449 0.494472
v -0.319873 0.042673 0.494564
v -0.274027 0.060451 0.493471
v -0.319580 0.060721 0.493613
v -0.274117 0.079443 0.492257
v -0.319666 0.078760 0.492461
v -0.320131 0.096779 0.491107
v -0.274608 0.098414 0.490832
v -0.320976 0.114768 0.489553
v -0.322200 0.132717 0.487799
v -0.275497 0.117353 0.489196
v -0.276785 0.136250 0.487350
v -0.323801 0.150617 0.485847
v -0.325780 0.168455 0.483698
v -0.278471 0.155094 0.485295
v -0.280555 0.173875 0.483032
v -0.328118 0.186096 0.481369
v -0.404335 0.717597 0.408129
v -0.282986 0.192220 0.480610
v -0.359236 0.723955 0.407337
vn 0.1406 -0.9808 0.1352
vn -0.1406 0.9808 -0.1352
vn 0.9939 -0.1104 -0.0000
vn 0.9939 -0.1103 -0.0000
vn 0.9939 -0.1099 0.0000
vn 0.9957 -0.0927 -0.0002
vn 0.9963 -0.0860 -0.0003
vn 0.9974 -0.0721 -0.0005
vn 0.9979 -0.0651 -0.0007
vn 0.9987 -0.0510 -0.0011
vn 0.9990 -0.0444 -0.0014
vn 0.9995 -0.0303 -0.0019
vn 0.9997 -0.0233 -0.0023
vn 1.0000 -0.0094 -0.0030
vn 1.0000 -0.0024 -0.0034
vn 0.9999 0.0115 -0.0043
vn 0.9998 0.0183 -0.0048
vn 0.9995 0.0325 -0.0058
vn 0.9992 0.0392 -0.0064
vn 0.9985 0.0534 -0.0076
vn 0.9982 0.0601 -0.0082
vn 0.9972 0.0742 -0.0096
vn 0.9967 0.0811 -0.0103
vn 0.9954 0.0951 -0.0118
vn 0.9947 0.1018 -0.0126
vn 0.9932 0.1156 -0.0143
vn 0.9924 0.1223 -0.0151
vn 0.9902 0.1389 -0.0173
vn 0.9901 0.1394 -0.0174
vn 0.9901 0.1396 -0.0174
vn -0.1104 -0.9939 0.0021
vn 0.1104 0.9939 -0.0021
vn -0.9939 0.1103 -0.0000
vn -0.9939 0.1104 0.0000
vn -0.9939 0.1099 0.0000
vn -0.9957 0.0929 0.0001
vn -0.9963 0.0861 0.0002
vn -0.9974 0.0721 0.0005
vn -0.9979 0.0653 0.0007
vn -0.9987 0.0511 0.0011
vn -0.9990 0.0445 0.0013
vn -0.9995 0.0302 0.0019
vn -0.9997 0.0233 0.0022
vn -1.0000 0.0094 0.0030
vn -1.0000 0.0025 0.0034
vn -0.9999 -0.0115 0.0043
vn -0.9998 -0.0185 0.0048
vn -0.9994 -0.0326 0.0058
vn -0.9992 -0.0393 0.0064
vn -0.9985 -0.0534 0.0076
vn -0.9982 -0.0601 0.0082
vn -0.9972 -0.0742 0.0096
vn -0.9967 -0.0810 0.0103
vn -0.9954 -0.0949 0.0118
vn -0.9947 -0.1018 0.0126
vn -0.9932 -0.1156 0.0143
vn -0.9924 -0.1224 0.0151
vn -0.9902 -0.1389 0.0173
vn -0.9901 -0.1394 0.0173
vn -0.9901 -0.1396 0.0174
vn -0.0002 -0.0023 -1.0000
vn -0.0003 -0.0026 -1.0000
vn -0.0012 -0.0117 -0.9999
vn -0.0002 -0.0021 -1.0000
vn -0.0015 -0.0151 -0.9999
vn -0.0021 -0.0230 -0.9997
vn -0.0023 -0.0263 -0.9997
vn -0.0028 -0.0340 -0.9994
vn -0.0030 -0.0375 -0.9993
vn -0.0032 -0.0451 -0.9990
vn -0.0033 -0.0489 -0.9988
vn -0.0035 -0.0568 -0.9984
vn -0.0035 -0.0600 -0.9982
vn -0.0034 -0.0694 -0.9976
vn -0.0032 -0.0787 -0.9969
vn -0.0031 -0.0823 -0.9966
vn -0.0027 -0.0901 -0.9959
vn -0.0020 -0.1015 -0.9948
vn -0.0025 -0.0934 -0.9956
vn -0.0017 -0.1045 -0.9945
vn -0.0011 -0.1122 -0.9937
vn 0.0001 -0.1233 -0.9924
vn -0.0007 -0.1159 -0.9933
vn 0.0006 -0.1270 -0.9919
vn 0.0018 -0.1357 -0.9907
vn 0.0018 -0.1363 -0.9907
vn 0.0018 -0.1360 -0.9907
vn 0.0002 0.0021 1.0000
vn 0.0002 0.0024 1.0000
vn 0.0012 0.0116 0.9999
vn 0.0021 0.0230 0.9997
vn 0.0015 0.0151 0.9999
vn 0.0028 0.0341 0.9994
vn 0.0023 0.0264 0.9997
vn 0.0030 0.0374 0.9993
vn 0.0032 0.0452 0.9990
vn 0.0035 0.0564 0.9984
vn 0.0033 0.0486 0.9988
vn 0.0035 0.0600 0.9982
vn 0.0034 0.0694 0.9976
vn 0.0032 0.0788 0.9969
vn 0.0030 0.0825 0.9966
vn 0.0027 0.0900 0.9959
vn 0.0025 0.0932 0.9956
vn 0.0020 0.1014 0.9948
vn 0.0017 0.1045 0.9945
vn 0.0010 0.1123 0.9937
vn 0.0006 0.1159 0.9933
vn -0.0002 0.1234 0.9924
vn -0.0006 0.1269 0.9919
vn -0.0018 0.1358 0.9907
vn -0.0018 0.1363 0.9907
vn -0.9963 0.0862 0.0002
vn -0.9974 0.0719 0.0005
vn -0.9979 0.0652 0.0007
vn -0.9990 0.0443 0.0013
vn -0.9997 0.0235 0.0022
vn -1.0000 0.0026 0.0034
vn -0.9999 -0.0116 0.0043
vn -0.9994 -0.0327 0.0058
vn -0.9992 -0.0395 0.0064
vn -0.9982 -0.0602 0.0082
vn -0.9972 -0.0741 0.0096
vn -0.9954 -0.0951 0.0118
vn -0.9947 -0.1016 0.0126
vn -0.9932 -0.1157 0.0143
vn 0.9939 -0.1100 -0.0000
vn 0.9957 -0.0928 -0.0002
vn 0.9974 -0.0719 -0.0005
vn 0.9979 -0.0652 -0.0007
vn 0.9987 -0.0511 -0.0011
vn 0.9990 -0.0443 -0.0014
vn 0.9995 -0.0300 -0.0020
vn 0.9997 -0.0234 -0.0023
vn 1.0000 -0.0093 -0.0030
vn 0.9999 0.0116 -0.0043
vn 0.9998 0.0186 -0.0048
vn 0.9992 0.0395 -0.0064
vn 0.9982 0.0602 -0.0082
vn 0.9954 0.0951 -0.0119
vn 0.9947 0.1019 -0.0126
vn 0.9924 0.1225 -0.0151
vn 0.0003 0.0026 1.0000
vn 0.0002 0.0023 1.0000
vn 0.0012 0.0115 0.9999
vn 0.0021 0.0229 0.9997
vn 0.0028 0.0339 0.9994
vn 0.0023 0.0262 0.9997
vn 0.0030 0.0373 0.9993
vn 0.0032 0.0454 0.9990
vn 0.0035 0.0566 0.9984
vn 0.0033 0.0485 0.9988
vn 0.0030 0.0821 0.9966
vn 0.0027 0.0903 0.9959
vn 0.0020 0.1013 0.9949
vn 0.0017 0.1047 0.9945
vn 0.0010 0.1121 0.9937
vn 0.0007 0.1159 0.9933
vn -0.0006 0.1267 0.9919
vn -0.0018 0.1356 0.9908
vn -0.0018 0.1359 0.9907
vn -0.0012 -0.0114 -0.9999
vn -0.0015 -0.0152 -0.9999
vn -0.0021 -0.0228 -0.9997
vn -0.0023 -0.0262 -0.9997
vn -0.0028 -0.0342 -0.9994
vn -0.0030 -0.0370 -0.9993
vn -0.0035 -0.0567 -0.9984
vn -0.0031 -0.0822 -0.9966
vn -0.0020 -0.1013 -0.9949
vn -0.0025 -0.0932 -0.9956
vn -0.0017 -0.1046 -0.9945
vn 0.0001 -0.1234 -0.9924
vn -0.0007 -0.1158 -0.9933
vn 0.0006 -0.1267 -0.9919
vn 0.0018 -0.1355 -0.9908
vn 0.0018 -0.1359 -0.9907
usemtl Default_OBJ.098
s 1
f 1//1 2//1 3//1
f 2//1 1//1 4//1
f 5//2 6//2 7//2
f 8//2 7//2 6//2
f 9//3 10//3 11//4
f 12//5 11//4 10//3
f 11//4 12//5 13//6
f 13//6 14//7 15//8
f 14//7 13//6 12//5
f 16//9 15//8 14//7
f 15//8 16//9 17//10
f 17//10 18//11 19//12
f 18//11 17//10 16//9
f 20//13 19//12 18//11
f 19//12 20//13 21//14
f 21//14 22//15 23//16
f 22//15 21//14 20//13
f 24//17 23//16 22//15
f 23//16 24//17 25//18
f 25//18 26//19 27//20
f 26//19 25//18 24//17
f 28//21 27//20 26//19
f 27//20 28//21 29//22
f 29//22 30//23 31//24
f 30//23 29//22 28//21
f 32//25 31//24 30//23
f 31//24 32//25 33//26
f 33//26 34//27 35//28
f 34//27 33//26 32//25
f 36//29 35//28 34//27
f 35//28 36//29 37//30
f 38//30 37//30 36//29
f 39//31 40//31 41//31
f 42//31 41//31 40//31
f 43//32 44//32 45//32
f 44//32 43//32 46//32
f 47//33 48//34 49//34
f 48//34 47//33 50//35
f 51//36 50//35 47//33
f 50//35 51//36 52//37
f 53//38 52//37 51//36
f 52//37 53//38 54//39
f 55//40 54//39 53//38
f 54//39 55//40 56//41
f 57//42 56//41 55//40
f 56//41 57//42 58//43
f 59//44 58//43 57//42
f 58//43 59//44 60//45
f 61//46 60//45 59//44
f 60//45 61//46 62//47
f 63//48 62//47 61//46
f 62//47 63//48 64//49
f 65//50 64//49 63//48
f 64//49 65//50 66//51
f 67//52 66//51 65//50
f 66//51 67//52 68//53
f 69//54 68//53 67//52
f 68//53 69//54 70//55
f 71//56 70//55 69//54
f 70//55 71//56 72//57
f 73//58 72//57 71//56
f 72//57 73//58 74//59
f 75//60 74//59 73//58
f 74//59 75//60 76//60
f 77//61 78//62 79//63
f 78//62 77//61 80//64
f 81//65 79//63 78//62
f 79//63 81//65 82//66
f 82//66 83//67 84//68
f 83//67 82//66 81//65
f 85//69 84//68 83//67
f 84//68 85//69 86//70
f 86//70 87//71 88//72
f 87//71 86//70 85//69
f 89//73 88//72 87//71
f 88//72 89//73 90//74
f 91//74 92//75 90//74
f 91//74 90//74 89//73
f 93//76 90//74 92//75
f 92//75 94//77 93//76
f 94//77 95//78 96//79
f 96//79 93//76 94//77
f 97//80 96//79 95//78
f 95//78 98//81 97//80
f 98//81 99//82 100//83
f 100//83 97//80 98//81
f 101//84 100//83 99//82
f 99//82 102//85 101//84
f 102//85 103//86 104//87
f 104//87 101//84 102//85
f 105//86 104//87 103//86
f 106//64 80//64 77//61
f 107//88 108//88 109//89
f 108//88 107//88 110//88
f 111//90 109//89 108//88
f 112//91 113//92 111//90
f 109//89 111//90 113//92
f 114//93 115//94 112//91
f 113//92 112//91 115//94
f 115//94 114//93 116//95
f 117//96 116//95 114//93
f 118//97 119//98 117//96
f 116//95 117//96 119//98
f 119//98 118//97 120//99
f 121//100 120//99 118//97
f 121//100 122//101 123//100
f 120//99 121//100 123//100
f 122//101 121//100 124//102
f 124//102 125//103 122//101
f 125//103 124//102 126//104
f 126//104 127//105 125//103
f 127//105 126//104 128//106
f 128//106 129//107 127//105
f 129//107 128//106 130//108
f 130//108 131//109 129//107
f 131//109 130//108 132//110
f 132//110 133//111 131//109
f 133//111 132//110 134//111
f 134//111 135//112 133//111
f 135//112 134//111 136//112
f 137//34 138//33 139//34
f 140//35 139//34 138//33
f 138//33 141//36 140//35
f 142//113 140//35 141//36
f 141//36 143//114 142//113
f 144//115 142//113 143//114
f 143//114 145//40 144//115
f 146//116 144//115 145//40
f 145//40 147//42 146//116
f 148//117 146//116 147//42
f 147//42 149//44 148//117
f 150//118 148//117 149//44
f 149//44 151//119 150//118
f 152//47 150//118 151//119
f 151//119 153//120 152//47
f 154//121 152//47 153//120
f 153//120 155//50 154//121
f 156//122 154//121 155//50
f 155//50 157//123 156//122
f 158//53 156//122 157//123
f 157//123 159//124 158//53
f 160//125 158//53 159//124
f 159//124 161//126 160//125
f 162//57 160//125 161//126
f 161//126 163//58 162//57
f 164//59 162//57 163//58
f 163//58 165//60 164//59
f 166//60 164//59 165//60
f 167//3 168//4 169//3
f 168//4 167//3 170//127
f 170//127 171//128 168//4
f 172//7 173//129 171//128
f 171//128 170//127 172//7
f 173//129 172//7 174//130
f 174//130 175//131 173//129
f 176//132 177//133 175//131
f 175//131 174//130 176//132
f 177//133 176//132 178//134
f 178//134 179//135 177//133
f 180//15 181//136 179//135
f 179//135 178//134 180//15
f 181//136 180//15 182//137
f 182//137 183//18 181//136
f 184//138 185//20 183//18
f 183//18 182//137 184//138
f 185//20 184//138 186//139
f 186//139 187//22 185//20
f 188//23 189//140 187//22
f 187//22 186//139 188//23
f 189//140 188//23 190//141
f 190//141 191//26 189//140
f 192//142 193//28 191//26
f 191//26 190//141 192//142
f 193//28 192//142 194//29
f 194//29 195//30 193//28
f 195//30 194//29 196//30
f 197//143 198//88 199//144
f 199//144 200//145 197//143
f 201//92 197//143 200//145
f 200//145 202//146 201//92
f 202//146 203//147 204//148
f 204//148 201//92 202//146
f 205//149 204//148 203//147
f 203//147 206//150 205//149
f 206//150 207//151 208//152
f 208//152 205//149 206//150
f 209//99 208//152 207//151
f 207//151 210//100 209//99
f 211//100 210//100 212//101
f 211//100 209//99 210//100
f 213//153 212//101 210//100
f 212//101 213//153 214//154
f 214//154 215//104 216//155
f 215//104 214//154 213//153
f 217//156 216//155 215//104
f 216//155 217//156 218//157
f 218//157 219//158 220//109
f 219//158 218//157 217//156
f 221//159 220//109 219//158
f 220//109 221//159 222//160
f 222//160 223//161 224//112
f 223//161 222//160 221//159
f 225//112 224//112 223//161
f 226//88 199//144 198//88
f 227//61 228//64 229//62
f 228//64 227//61 230//64
f 229//62 231//162 227//61
f 231//162 229//62 232//163
f 232//163 233//164 231//162
f 233//164 232//163 234//165
f 234//165 235//166 233//164
f 235//166 234//165 236//167
f 236//167 237//70 235//166
f 237//70 236//167 238//71
f 238//71 239//168 237//70
f 239//168 238//71 240//73
f 240//73 241//74 239//168
f 241//74 240//73 242//74
f 243//75 241//74 242//74
f 241//74 243//75 244//169
f 245//77 244//169 243//75
f 246//170 247//171 245//77
f 244//169 245//77 247//171
f 247//171 246//170 248//172
f 249//81 248//172 246//170
f 250//173 251//174 249//81
f 248//172 249//81 251//174
f 251//174 250//173 252//175
f 253//176 252//175 250//173
f 254//86 255//177 253//176
f 252//175 253//176 255//177
f 255//177 254//86 256//86