# Blender v3.0.1 OBJ File: ''
# www.blender.org
mtllib 06.mtl
o Cylinder.003
v -0.311567 0.411464 0.784155
v -0.314730 0.411776 0.784155
v -0.314730 0.411776 -0.789396
v -0.311567 0.411464 -0.789396
v -0.317772 0.412698 0.784155
v -0.317772 0.412698 -0.789396
v -0.320575 0.414197 0.784155
v -0.320575 0.414197 -0.789396
v -0.323032 0.416213 0.784155
v -0.323032 0.416213 -0.789396
v -0.325049 0.418670 0.784155
v -0.325049 0.418670 -0.789396
v -0.326547 0.421474 0.784155
v -0.326547 0.421474 -0.789396
v -0.327470 0.424515 0.784155
v -0.327470 0.424515 -0.789396
v -0.327781 0.427679 0.784155
v -0.327781 0.427679 -0.789396
v -0.327470 0.430842 0.784155
v -0.327470 0.430842 -0.789396
v -0.326547 0.433884 0.784155
v -0.326547 0.433884 -0.789396
v -0.325049 0.436687 0.784155
v -0.325049 0.436687 -0.789396
v -0.323032 0.439144 0.784155
v -0.323032 0.439144 -0.789396
v -0.320575 0.441161 0.784155
v -0.320575 0.441161 -0.789396
v -0.317772 0.442659 0.784155
v -0.317772 0.442659 -0.789396
v -0.314730 0.443582 0.784155
v -0.314730 0.443582 -0.789396
v -0.311567 0.443893 0.784155
v -0.311567 0.443893 -0.789396
v -0.308403 0.443582 0.784155
v -0.308403 0.443582 -0.789396
v -0.305362 0.442659 0.784155
v -0.305362 0.442659 -0.789396
v -0.302558 0.441161 0.784155
v -0.302558 0.441161 -0.789396
v -0.300101 0.439144 0.784155
v -0.300101 0.439144 -0.789396
v -0.298085 0.436687 0.784155
v -0.298085 0.436687 -0.789396
v -0.296586 0.433884 0.784155
v -0.296586 0.433884 -0.789396
v -0.295664 0.430842 0.784155
v -0.295664 0.430842 -0.789396
v -0.295352 0.427679 0.784155
v -0.295352 0.427679 -0.789396
v -0.295664 0.424515 0.784155
v -0.295664 0.424515 -0.789396
v -0.296586 0.421474 0.784155
v -0.296586 0.421474 -0.789396
v -0.298085 0.418670 0.784155
v -0.298085 0.418670 -0.789396
v -0.300101 0.416213 0.784155
v -0.300101 0.416213 -0.789396
v -0.302558 0.414197 0.784155
v -0.302558 0.414197 -0.789396
v -0.305362 0.412698 0.784155
v -0.305362 0.412698 -0.789396
v -0.308403 0.411776 -0.789396
v -0.308403 0.411776 0.784155
vt 0.968750 0.500000
vt 1.000000 1.000000
vt 1.000000 0.500000
vt 0.937500 0.500000
vt 0.968750 1.000000
vt 0.906250 0.500000
vt 0.937500 1.000000
vt 0.875000 0.500000
vt 0.906250 1.000000
vt 0.843750 0.500000
vt 0.875000 1.000000
vt 0.812500 0.500000
vt 0.843750 1.000000
vt 0.781250 0.500000
vt 0.812500 1.000000
vt 0.750000 0.500000
vt 0.781250 1.000000
vt 0.718750 0.500000
vt 0.750000 1.000000
vt 0.687500 0.500000
vt 0.718750 1.000000
vt 0.656250 0.500000
vt 0.687500 1.000000
vt 0.625000 0.500000
vt 0.656250 1.000000
vt 0.593750 0.500000
vt 0.625000 1.000000
vt 0.562500 0.500000
vt 0.593750 1.000000
vt 0.531250 0.500000
vt 0.562500 1.000000
vt 0.500000 0.500000
vt 0.531250 1.000000
vt 0.468750 0.500000
vt 0.500000 1.000000
vt 0.437500 0.500000
vt 0.468750 1.000000
vt 0.406250 0.500000
vt 0.437500 1.000000
vt 0.375000 0.500000
vt 0.406250 1.000000
vt 0.343750 0.500000
vt 0.375000 1.000000
vt 0.312500 0.500000
vt 0.343750 1.000000
vt 0.281250 0.500000
vt 0.312500 1.000000
vt 0.250000 0.500000
vt 0.281250 1.000000
vt 0.218750 0.500000
vt 0.250000 1.000000
vt 0.187500 0.500000
vt 0.218750 1.000000
vt 0.156250 0.500000
vt 0.187500 1.000000
vt 0.125000 0.500000
vt 0.156250 1.000000
vt 0.093750 0.500000
vt 0.125000 1.000000
vt 0.062500 0.500000
vt 0.093750 1.000000
vt 0.250000 0.010000
vt 0.010000 0.250000
vt 0.250000 0.490000
vt 0.031250 0.500000
vt 0.062500 1.000000
vt 0.000000 0.500000
vt 0.031250 1.000000
vt 0.883337 0.050447
vt 0.985388 0.203178
vt 0.796822 0.485388
vt 0.296822 0.485388
vt 0.419706 0.419706
vt 0.341844 0.471731
vt 0.383337 0.449553
vt 0.449553 0.383337
vt 0.471731 0.341844
vt 0.485388 0.296822
vt 0.490000 0.250000
vt 0.485388 0.203178
vt 0.471731 0.158156
vt 0.449553 0.116663
vt 0.419706 0.080294
vt 0.383337 0.050447
vt 0.341844 0.028269
vt 0.296822 0.014612
vt 0.203178 0.014612
vt 0.158156 0.028269
vt 0.116663 0.050447
vt 0.080294 0.080294
vt 0.050447 0.116663
vt 0.028269 0.158156
vt 0.014612 0.203178
vt 0.014612 0.296822
vt 0.080294 0.419706
vt 0.028269 0.341844
vt 0.050447 0.383337
vt 0.116663 0.449553
vt 0.158156 0.471731
vt 0.203178 0.485388
vt 0.000000 1.000000
vt 0.750000 0.490000
vt 0.703178 0.485388
vt 0.658156 0.471731
vt 0.616663 0.449553
vt 0.580294 0.419706
vt 0.550447 0.383337
vt 0.528269 0.341844
vt 0.514612 0.296822
vt 0.510000 0.250000
vt 0.514612 0.203178
vt 0.528269 0.158156
vt 0.550447 0.116663
vt 0.580294 0.080294
vt 0.616663 0.050447
vt 0.658156 0.028269
vt 0.703178 0.014612
vt 0.750000 0.010000
vt 0.796822 0.014612
vt 0.841844 0.028269
vt 0.919706 0.080294
vt 0.949553 0.116663
vt 0.971731 0.158156
vt 0.990000 0.250000
vt 0.949553 0.383337
vt 0.985388 0.296822
vt 0.971731 0.341844
vt 0.919706 0.419706
vt 0.883337 0.449553
vt 0.841844 0.471731
vn -0.0982 -0.9952 -0.0000
vn -0.2901 -0.9570 -0.0000
vn -0.4716 -0.8818 -0.0000
vn -0.6343 -0.7731 -0.0000
vn -0.7729 -0.6345 -0.0000
vn -0.8820 -0.4712 -0.0000
vn -0.9569 -0.2904 -0.0000
vn -0.9952 -0.0978 -0.0000
vn -0.9952 0.0978 0.0000
vn -0.9569 0.2904 0.0000
vn -0.9569 0.2903 0.0000
vn -0.8819 0.4713 0.0000
vn -0.8820 0.4713 0.0000
vn -0.7729 0.6345 0.0000
vn -0.6345 0.7729 0.0000
vn -0.4713 0.8820 0.0000
vn -0.2903 0.9569 0.0000
vn -0.2904 0.9569 0.0000
vn -0.0978 0.9952 0.0000
vn 0.0978 0.9952 0.0000
vn 0.2904 0.9569 0.0000
vn 0.4712 0.8820 0.0000
vn 0.6345 0.7729 0.0000
vn 0.7731 0.6343 0.0000
vn 0.8818 0.4716 0.0000
vn 0.9570 0.2901 0.0000
vn 0.9952 0.0982 0.0000
vn 0.9952 -0.0981 -0.0000
vn 0.9570 -0.2901 -0.0000
vn 0.9570 -0.2902 -0.0000
vn 0.8819 -0.4714 -0.0000
vn 0.7731 -0.6343 -0.0000
vn 0.6343 -0.7731 -0.0000
vn 0.4715 -0.8819 -0.0000
vn 0.0000 0.0000 -1.0000
vn 0.2901 -0.9570 -0.0000
vn 0.0981 -0.9952 -0.0000
vn 0.0000 0.0000 1.0000
vn -0.0001 0.0000 -1.0000
vn 0.0002 0.0000 -1.0000
vn 0.0001 0.0000 -1.0000
vn -0.0002 0.0000 -1.0000
vn -0.0001 0.0000 1.0000
vn 0.0002 0.0000 1.0000
vn -0.0002 0.0000 1.0000
vn 0.0001 0.0000 1.0000
usemtl None.014
s 1
f 2/1/1 4/2/1 1/3/1
f 5/4/2 3/5/2 2/1/2
f 7/6/3 6/7/3 5/4/3
f 9/8/4 8/9/4 7/6/4
f 11/10/5 10/11/5 9/8/5
f 13/12/6 12/13/6 11/10/6
f 15/14/7 14/15/7 13/12/7
f 17/16/8 16/17/8 15/14/8
f 19/18/9 18/19/9 17/16/9
f 21/20/10 20/21/11 19/18/10
f 23/22/12 22/23/13 21/20/12
f 25/24/14 24/25/14 23/22/14
f 27/26/15 26/27/15 25/24/15
f 29/28/16 28/29/16 27/26/16
f 31/30/17 30/31/18 29/28/17
f 33/32/19 32/33/19 31/30/19
f 35/34/20 34/35/20 33/32/20
f 37/36/21 36/37/21 35/34/21
f 39/38/22 38/39/22 37/36/22
f 41/40/23 40/41/23 39/38/23
f 43/42/24 42/43/24 41/40/24
f 45/44/25 44/45/25 43/42/25
f 47/46/26 46/47/26 45/44/26
f 49/48/27 48/49/27 47/46/27
f 51/50/28 50/51/28 49/48/28
f 53/52/29 52/53/30 51/50/29
f 55/54/31 54/55/31 53/52/31
f 57/56/32 56/57/32 55/54/32
f 59/58/33 58/59/33 57/56/33
f 61/60/34 60/61/34 59/58/34
f 34/62/35 50/63/35 4/64/35
f 64/65/36 62/66/36 61/60/36
f 1/67/37 63/68/37 64/65/37
f 27/69/38 19/70/38 2/71/38
f 2/1/1 3/5/1 4/2/1
f 5/4/2 6/7/2 3/5/2
f 7/6/3 8/9/3 6/7/3
f 9/8/4 10/11/4 8/9/4
f 11/10/5 12/13/5 10/11/5
f 13/12/6 14/15/6 12/13/6
f 15/14/7 16/17/7 14/15/7
f 17/16/8 18/19/8 16/17/8
f 19/18/9 20/21/9 18/19/9
f 21/20/10 22/23/11 20/21/11
f 23/22/12 24/25/13 22/23/13
f 25/24/14 26/27/14 24/25/14
f 27/26/15 28/29/15 26/27/15
f 29/28/16 30/31/16 28/29/16
f 31/30/17 32/33/18 30/31/18
f 33/32/19 34/35/19 32/33/19
f 35/34/20 36/37/20 34/35/20
f 37/36/21 38/39/21 36/37/21
f 39/38/22 40/41/22 38/39/22
f 41/40/23 42/43/23 40/41/23
f 43/42/24 44/45/24 42/43/24
f 45/44/25 46/47/25 44/45/25
f 47/46/26 48/49/26 46/47/26
f 49/48/27 50/51/27 48/49/27
f 51/50/28 52/53/28 50/51/28
f 53/52/29 54/55/30 52/53/30
f 55/54/31 56/57/31 54/55/31
f 57/56/32 58/59/32 56/57/32
f 59/58/33 60/61/33 58/59/33
f 61/60/34 62/66/34 60/61/34
f 4/64/35 3/72/35 10/73/35
f 3/72/35 6/74/35 10/73/35
f 6/74/35 8/75/39 10/73/35
f 10/73/35 12/76/40 14/77/35
f 14/77/35 16/78/40 18/79/35
f 18/79/35 20/80/40 22/81/35
f 22/81/35 24/82/41 26/83/35
f 26/83/35 28/84/39 30/85/35
f 30/85/35 32/86/35 34/62/35
f 34/62/35 36/87/41 38/88/35
f 38/88/35 40/89/41 42/90/35
f 42/90/35 44/91/42 46/92/35
f 46/92/35 48/93/35 42/90/35
f 48/93/35 50/63/35 42/90/35
f 50/63/35 52/94/41 58/95/35
f 52/94/41 54/96/35 58/95/35
f 54/96/35 56/97/39 58/95/35
f 58/95/35 60/98/41 62/99/35
f 62/99/35 63/100/35 58/95/35
f 63/100/35 4/64/35 58/95/35
f 10/73/35 14/77/35 4/64/35
f 14/77/35 18/79/35 4/64/35
f 18/79/35 22/81/35 26/83/35
f 26/83/35 30/85/35 34/62/35
f 34/62/35 38/88/35 50/63/35
f 38/88/35 42/90/35 50/63/35
f 18/79/35 26/83/35 34/62/35
f 50/63/35 58/95/35 4/64/35
f 4/64/35 18/79/35 34/62/35
f 64/65/36 63/68/36 62/66/36
f 1/67/37 4/101/37 63/68/37
f 2/71/38 1/102/38 64/103/38
f 64/103/38 61/104/43 59/105/38
f 59/105/38 57/106/43 55/107/38
f 55/107/38 53/108/44 51/109/38
f 51/109/38 49/110/44 47/111/38
f 47/111/38 45/112/45 43/113/38
f 43/113/38 41/114/38 39/115/38
f 39/115/38 37/116/38 43/113/38
f 37/116/38 35/117/38 43/113/38
f 35/117/38 33/118/38 27/69/38
f 33/118/38 31/119/38 27/69/38
f 31/119/38 29/120/38 27/69/38
f 27/69/38 25/121/38 19/70/38
f 25/121/38 23/122/43 19/70/38
f 23/122/43 21/123/44 19/70/38
f 19/70/38 17/124/43 11/125/38
f 17/124/43 15/126/46 11/125/38
f 15/126/46 13/127/45 11/125/38
f 11/125/38 9/128/46 7/129/38
f 7/129/38 5/130/46 2/71/38
f 2/71/38 64/103/38 51/109/38
f 64/103/38 59/105/38 51/109/38
f 59/105/38 55/107/38 51/109/38
f 51/109/38 47/111/38 43/113/38
f 11/125/38 7/129/38 19/70/38
f 7/129/38 2/71/38 19/70/38
f 51/109/38 43/113/38 2/71/38
f 43/113/38 35/117/38 2/71/38
f 35/117/38 27/69/38 2/71/38