# Blender v3.0.1 OBJ File: 'anno.blend'
# www.blender.org
mtllib 01.mtl
o model.004_model.033
v 0.747933 0.444323 0.469042
v -0.745397 0.439252 0.466507
v 0.745397 0.439252 0.466507
v -0.747933 0.444323 0.469042
v -0.747933 0.444323 -0.469043
v -0.745397 0.439252 0.466507
v -0.747933 0.444323 0.469042
v -0.745397 0.439252 -0.466507
v -0.747933 0.444323 -0.469043
v 0.745397 0.439252 -0.466507
v -0.745397 0.439252 -0.466507
v 0.747933 0.444323 -0.469043
v -0.747933 0.444323 0.469042
v 0.747933 0.444323 0.469042
v -0.745397 0.439252 0.466507
v 0.745397 0.439252 0.466507
v -0.745397 0.439252 -0.466507
v -0.747933 0.444323 -0.469043
v -0.745397 0.439252 0.466507
v -0.747933 0.444323 0.469042
v 0.747933 0.444323 -0.469043
v -0.747933 0.444323 -0.469043
v 0.745397 0.439252 -0.466507
v -0.745397 0.439252 -0.466507
v 0.637644 0.439252 0.415800
v -0.637644 0.439252 0.428477
v -0.637644 0.439252 0.415800
v -0.745397 0.439252 -0.466507
v -0.707367 0.439252 -0.428477
v -0.745397 0.439252 0.466507
v 0.745397 0.439252 -0.466507
v -0.707367 0.439252 0.358754
v -0.643983 0.439252 -0.428477
v -0.643983 0.439252 -0.415800
v 0.637644 0.439252 -0.428477
v 0.707367 0.439252 -0.428477
v 0.707367 0.439252 -0.358754
v 0.707367 0.439252 0.358754
v 0.707367 0.439252 0.428477
v -0.707367 0.439252 0.428477
v 0.745397 0.439252 0.466507
v 0.637644 0.439252 0.428477
v 0.694690 0.439252 0.358754
v 0.694690 0.439252 -0.358754
v 0.637644 0.439252 -0.415800
v -0.707367 0.439252 -0.358754
v -0.694690 0.439252 0.358754
v -0.694690 0.439252 -0.358754
v 0.745397 0.439252 0.466507
v 0.747933 0.444323 -0.469042
v 0.747933 0.444323 0.469043
v 0.745397 0.439252 -0.466507
v -0.694690 0.439252 -0.358754
v -0.707367 0.439252 -0.358754
v -0.694690 0.439252 0.358754
v -0.707367 0.439252 -0.428477
v -0.707367 0.439252 0.358754
v 0.637644 0.439252 -0.428477
v -0.643983 0.439252 -0.415800
v 0.637644 0.439252 -0.415800
v 0.707367 0.439252 0.358754
v 0.707367 0.439252 -0.358754
v 0.694690 0.439252 0.358754
v 0.694690 0.439252 -0.358754
v 0.745397 0.439252 -0.466507
v 0.707367 0.439252 0.428477
v 0.745397 0.439252 0.466507
v 0.637644 0.439252 0.428477
v 0.637644 0.439252 0.415800
v -0.637644 0.439252 0.428477
v -0.707367 0.439252 0.428477
v -0.745397 0.439252 0.466507
v 0.707367 0.439252 -0.428477
v -0.643983 0.439252 -0.428477
v -0.745397 0.439252 -0.466507
v -0.637644 0.439252 0.415800
v 0.745397 0.439252 -0.466507
v 0.745397 0.439252 0.466507
v 0.747933 0.444323 -0.469042
v 0.747933 0.444323 0.469043
v 0.669336 0.439252 -0.358754
v 0.637644 0.439252 0.358754
v 0.637644 0.439252 -0.358754
v 0.669336 0.439252 0.358754
v 0.637644 0.439252 -0.390446
v -0.643983 0.439252 -0.358754
v -0.643983 0.439252 -0.390446
v -0.637644 0.439252 0.358754
v -0.637644 0.439252 0.390446
v 0.637644 0.439252 0.390446
v -0.669336 0.439252 -0.358754
v -0.669336 0.439252 0.358754
v -0.643983 0.439252 -0.358754
v -0.669336 0.439252 -0.358754
v -0.637644 0.439252 0.358754
v -0.669336 0.439252 0.358754
v 0.637644 0.439252 0.358754
v 0.637644 0.439252 -0.358754
v 0.637644 0.439252 0.390446
v 0.637644 0.439252 -0.390446
v -0.637644 0.439252 0.390446
v -0.643983 0.439252 -0.390446
v 0.669336 0.439252 0.358754
v 0.669336 0.439252 -0.358754
v 0.747933 0.469676 0.469043
v -0.747933 0.444323 0.469043
v 0.747933 0.444323 0.469043
v -0.747933 0.469676 0.469043
v 0.747933 0.444323 -0.469042
v 0.747933 0.469676 0.469043
v 0.747933 0.444323 0.469043
v 0.747933 0.469676 -0.469042
v 0.745397 0.473479 0.466507
v -0.747933 0.469676 0.469043
v 0.747933 0.469676 0.469043
v -0.745397 0.473479 0.466507
v -0.747933 0.469676 -0.469042
v -0.747933 0.444323 0.469043
v -0.747933 0.469676 0.469043
v -0.747933 0.444323 -0.469042
v -0.747933 0.469676 -0.469042
v 0.747933 0.444323 -0.469042
v -0.747933 0.444323 -0.469042
v 0.747933 0.469676 -0.469042
v 0.747933 0.469676 -0.469042
v 0.745397 0.473479 0.466507
v 0.747933 0.469676 0.469043
v 0.745397 0.473479 -0.466507
v 0.745397 0.473479 0.466507
v -0.745397 0.473479 -0.466507
v -0.745397 0.473479 0.466507
v 0.745397 0.473479 -0.466507
v -0.745397 0.473479 0.466507
v -0.747933 0.469676 -0.469042
v -0.747933 0.469676 0.469043
v -0.745397 0.473479 -0.466507
v -0.745397 0.473479 -0.466507
v 0.747933 0.469676 -0.469042
v -0.747933 0.469676 -0.469042
v 0.745397 0.473479 -0.466507
v -0.747933 0.469676 0.469043
v 0.747933 0.469676 0.469043
v -0.747933 0.444323 0.469043
v 0.747933 0.444323 0.469043
v 0.747933 0.469676 -0.469042
v 0.747933 0.444323 -0.469042
v 0.747933 0.469676 0.469043
v 0.747933 0.444323 0.469043
v -0.745397 0.473479 0.466507
v 0.745397 0.473479 0.466507
v -0.747933 0.469676 0.469043
v 0.747933 0.469676 0.469043
v -0.747933 0.444323 -0.469042
v -0.747933 0.469676 -0.469042
v -0.747933 0.444323 0.469043
v -0.747933 0.469676 0.469043
v 0.747933 0.469676 -0.469042
v -0.747933 0.469676 -0.469042
v 0.747933 0.444323 -0.469042
v -0.747933 0.444323 -0.469042
v 0.745397 0.473479 -0.466507
v 0.747933 0.469676 -0.469042
v 0.745397 0.473479 0.466507
v 0.747933 0.469676 0.469043
v 0.745397 0.473479 -0.466507
v 0.745397 0.473479 0.466507
v -0.745397 0.473479 -0.466507
v -0.745397 0.473479 0.466507
v -0.745397 0.473479 -0.466507
v -0.745397 0.473479 0.466507
v -0.747933 0.469676 -0.469042
v -0.747933 0.469676 0.469043
v 0.745397 0.473479 -0.466507
v -0.745397 0.473479 -0.466507
v 0.747933 0.469676 -0.469042
v -0.747933 0.469676 -0.469042
vt 0.472000 0.000000
vt 0.000800 -0.001789
vt 0.471200 -0.001789
vt 0.000000 0.000000
vt -0.296000 0.000000
vt -0.000800 -0.001789
vt 0.000000 0.000000
vt -0.295200 -0.001789
vt -0.000000 0.132375
vt -0.471200 0.130586
vt -0.000800 0.130586
vt -0.472000 0.132375
vt 0.000000 0.000000
vt 0.000000 0.000000
vt 0.000000 0.000000
vt 0.000000 0.000000
vt 0.000000 0.000000
vt 0.000000 0.000000
vt 0.000000 0.000000
vt 0.000000 0.000000
vt 0.000000 0.000000
vt 0.000000 0.000000
vt 0.000000 0.000000
vt 0.000000 0.000000
vt -0.437200 0.016800
vt -0.034800 0.012800
vt -0.034800 0.016800
vt -0.000800 0.295200
vt -0.012800 0.283200
vt -0.000800 0.000800
vt -0.471200 0.295200
vt -0.012800 0.034800
vt -0.032800 0.283200
vt -0.032800 0.279200
vt -0.437200 0.283200
vt -0.459200 0.283200
vt -0.459200 0.261200
vt -0.459200 0.034800
vt -0.459200 0.012800
vt -0.012800 0.012800
vt -0.471200 0.000800
vt -0.437200 0.012800
vt -0.455200 0.034800
vt -0.455200 0.261200
vt -0.437200 0.279200
vt -0.012800 0.261200
vt -0.016800 0.034800
vt -0.016800 0.261200
vt 0.000800 0.209296
vt 0.296000 0.211085
vt 0.000000 0.211085
vt 0.295200 0.209296
vt 0.000000 0.000000
vt 0.000000 0.000000
vt 0.000000 0.000000
vt 0.000000 0.000000
vt 0.000000 0.000000
vt 0.000000 0.000000
vt 0.000000 0.000000
vt 0.000000 0.000000
vt 0.000000 0.000000
vt 0.000000 0.000000
vt 0.000000 0.000000
vt 0.000000 0.000000
vt 0.000000 0.000000
vt 0.000000 0.000000
vt 0.000000 0.000000
vt 0.000000 0.000000
vt 0.000000 0.000000
vt 0.000000 0.000000
vt 0.000000 0.000000
vt 0.000000 0.000000
vt 0.000000 0.000000
vt 0.000000 0.000000
vt 0.000000 0.000000
vt 0.000000 0.000000
vt 0.000000 0.000000
vt 0.000000 0.000000
vt 0.000000 0.000000
vt 0.000000 0.000000
vt -0.447200 0.261200
vt -0.437200 0.034800
vt -0.437200 0.261200
vt -0.447200 0.034800
vt -0.437200 0.271200
vt -0.032800 0.261200
vt -0.032800 0.271200
vt -0.034800 0.034800
vt -0.034800 0.024800
vt -0.437200 0.024800
vt -0.024800 0.261200
vt -0.024800 0.034800
vt 0.000000 0.000000
vt 0.000000 0.000000
vt 0.000000 0.000000
vt 0.000000 0.000000
vt 0.000000 0.000000
vt 0.000000 0.000000
vt 0.000000 0.000000
vt 0.000000 0.000000
vt 0.000000 0.000000
vt 0.000000 0.000000
vt 0.000000 0.000000
vt 0.000000 0.000000
vt 0.472000 0.008000
vt 0.000000 0.000000
vt 0.472000 0.000000
vt 0.000000 0.008000
vt 0.296000 0.000000
vt 0.000000 0.008000
vt 0.000000 0.000000
vt 0.296000 0.008000
vt 0.471200 0.008099
vt 0.000000 0.006656
vt 0.472000 0.006656
vt 0.000800 0.008099
vt -0.296000 0.008000
vt 0.000000 0.000000
vt 0.000000 0.008000
vt -0.296000 0.000000
vt 0.000000 0.008000
vt -0.472000 0.000000
vt 0.000000 0.000000
vt -0.472000 0.008000
vt 0.296000 -0.255162
vt 0.000800 -0.253720
vt 0.000000 -0.255162
vt 0.295200 -0.253720
vt 0.471200 0.000800
vt 0.000800 0.295200
vt 0.000800 0.000800
vt 0.471200 0.295200
vt -0.000800 0.008099
vt -0.296000 0.006656
vt 0.000000 0.006656
vt -0.295200 0.008099
vt -0.000800 -0.156093
vt -0.472000 -0.157535
vt -0.000000 -0.157535
vt -0.471200 -0.156093
vt 0.000000 0.000000
vt 0.000000 0.000000
vt 0.000000 0.000000
vt 0.000000 0.000000
vt 0.000000 0.000000
vt 0.000000 0.000000
vt 0.000000 0.000000
vt 0.000000 0.000000
vt 0.000000 0.000000
vt 0.000000 0.000000
vt 0.000000 0.000000
vt 0.000000 0.000000
vt 0.000000 0.000000
vt 0.000000 0.000000
vt 0.000000 0.000000
vt 0.000000 0.000000
vt 0.000000 0.000000
vt 0.000000 0.000000
vt 0.000000 0.000000
vt 0.000000 0.000000
vt 0.000000 0.000000
vt 0.000000 0.000000
vt 0.000000 0.000000
vt 0.000000 0.000000
vt 0.000000 0.000000
vt 0.000000 0.000000
vt 0.000000 0.000000
vt 0.000000 0.000000
vt 0.000000 0.000000
vt 0.000000 0.000000
vt 0.000000 0.000000
vt 0.000000 0.000000
vt 0.000000 0.000000
vt 0.000000 0.000000
vt 0.000000 0.000000
vt 0.000000 0.000000
vn 0.0000 -0.4472 0.8944
vn -0.8944 -0.4472 0.0000
vn 0.0000 -0.4472 -0.8944
vn 0.0000 0.4472 -0.8944
vn 0.8944 0.4472 0.0000
vn 0.0000 0.4472 0.8944
vn 0.0000 -1.0000 0.0000
vn 0.0000 1.0000 -0.0000
vn 0.8944 -0.4472 0.0000
vn -0.8944 0.4472 0.0000
vn -0.9998 0.0098 -0.0194
vn 0.8083 0.5888 0.0000
vn 0.0006 -1.0000 0.0000
vn 0.8054 0.5928 0.0000
vn 0.0000 0.0000 1.0000
vn 1.0000 0.0000 0.0000
vn 0.0000 0.5547 0.8321
vn -1.0000 0.0000 0.0000
vn 0.0000 0.0000 -1.0000
vn 0.8320 0.5547 0.0000
vn -0.8320 0.5547 0.0000
vn -0.8321 0.5547 0.0000
vn 0.0000 0.5547 -0.8321
vn 0.0000 -0.5547 -0.8321
vn -0.8320 -0.5547 0.0000
vn 0.8321 -0.5547 0.0000
vn 0.8320 -0.5547 0.0000
vn 0.0000 -0.5547 0.8321
usemtl material_0.002
s 1
f 1/1/1 2/2/1 3/3/1
f 2/2/1 1/1/1 4/4/1
f 5/5/2 6/6/2 7/7/2
f 6/6/2 5/5/2 8/8/2
f 9/9/3 10/10/3 11/11/3
f 10/10/3 9/9/3 12/12/3
f 13/13/4 14/14/4 15/15/4
f 16/16/4 15/15/4 14/14/4
f 17/17/5 18/18/5 19/19/5
f 20/20/5 19/19/5 18/18/5
f 21/21/6 22/22/6 23/23/6
f 24/24/6 23/23/6 22/22/6
f 25/25/7 26/26/7 27/27/7
f 28/28/7 29/29/7 30/30/7
f 29/29/7 28/28/7 31/31/7
f 30/30/7 29/29/7 32/32/7
f 29/29/7 31/31/7 33/33/7
f 33/33/7 31/31/7 34/34/7
f 34/34/7 31/31/7 35/35/7
f 35/35/7 31/31/7 36/36/7
f 36/36/7 31/31/7 37/37/7
f 37/37/7 31/31/7 38/38/7
f 38/38/7 31/31/7 39/39/7
f 30/30/7 40/40/7 41/41/7
f 40/40/7 30/30/7 32/32/7
f 41/41/7 40/40/7 26/26/7
f 41/41/7 26/26/7 42/42/7
f 42/42/7 26/26/7 25/25/7
f 41/41/7 42/42/7 39/39/7
f 41/41/7 39/39/7 31/31/7
f 37/37/7 43/43/7 44/44/7
f 43/43/7 37/37/7 38/38/7
f 45/45/7 34/34/7 35/35/7
f 32/32/7 46/46/8 47/47/7
f 46/46/8 32/32/7 29/29/7
f 47/47/7 46/46/8 48/48/7
f 49/49/9 50/50/9 51/51/9
f 50/50/9 49/49/9 52/52/9
f 53/53/8 54/54/8 55/55/8
f 56/56/8 57/57/8 54/54/8
f 55/55/8 54/54/8 57/57/8
f 58/58/8 59/59/8 60/60/8
f 61/61/8 62/62/8 63/63/8
f 64/64/8 63/63/8 62/62/8
f 65/65/8 66/66/8 67/67/8
f 66/66/8 68/68/8 67/67/8
f 69/69/8 70/70/8 68/68/8
f 68/68/8 70/70/8 67/67/8
f 70/70/8 71/71/8 67/67/8
f 57/57/8 72/72/8 71/71/8
f 67/67/8 71/71/8 72/72/8
f 66/66/8 65/65/8 61/61/8
f 61/61/8 65/65/8 62/62/8
f 62/62/8 65/65/8 73/73/8
f 73/73/8 65/65/8 58/58/8
f 58/58/8 65/65/8 59/59/8
f 59/59/8 65/65/8 74/74/8
f 74/74/8 65/65/8 56/56/8
f 57/57/8 56/56/8 72/72/8
f 65/65/8 75/75/8 56/56/8
f 72/72/8 56/56/8 75/75/8
f 76/76/8 70/70/8 69/69/8
f 77/77/10 78/78/10 79/79/10
f 80/80/10 79/79/10 78/78/10
f 81/81/7 82/82/11 83/83/12
f 82/82/11 81/81/7 84/84/7
f 85/85/13 86/86/7 87/87/7
f 86/86/7 85/85/13 88/88/7
f 88/88/7 85/85/13 89/89/7
f 89/89/7 85/85/13 90/90/7
f 90/90/7 85/85/13 83/83/12
f 90/90/7 83/83/12 82/82/11
f 91/91/7 88/88/7 92/92/7
f 88/88/7 91/91/7 86/86/7
f 93/93/8 94/94/8 95/95/8
f 96/96/8 95/95/8 94/94/8
f 97/97/14 98/98/6 99/99/8
f 98/98/6 100/100/8 99/99/8
f 99/99/8 100/100/8 101/101/8
f 101/101/8 100/100/8 95/95/8
f 95/95/8 100/100/8 93/93/8
f 102/102/8 93/93/8 100/100/8
f 103/103/8 104/104/8 97/97/14
f 98/98/6 97/97/14 104/104/8
f 105/105/15 106/106/15 107/107/15
f 106/106/15 105/105/15 108/108/15
f 109/109/16 110/110/16 111/111/16
f 110/110/16 109/109/16 112/112/16
f 113/113/17 114/114/17 115/115/17
f 114/114/17 113/113/17 116/116/17
f 117/117/18 118/118/18 119/119/18
f 118/118/18 117/117/18 120/120/18
f 121/121/19 122/122/19 123/123/19
f 122/122/19 121/121/19 124/124/19
f 125/125/20 126/126/20 127/127/20
f 126/126/20 125/125/20 128/128/20
f 129/129/8 130/130/8 131/131/8
f 130/130/8 129/129/8 132/132/8
f 133/133/21 134/134/22 135/135/21
f 134/134/22 133/133/21 136/136/22
f 137/137/23 138/138/23 139/139/23
f 138/138/23 137/137/23 140/140/23
f 141/141/19 142/142/19 143/143/19
f 144/144/19 143/143/19 142/142/19
f 145/145/18 146/146/18 147/147/18
f 148/148/18 147/147/18 146/146/18
f 149/149/24 150/150/24 151/151/24
f 152/152/24 151/151/24 150/150/24
f 153/153/16 154/154/16 155/155/16
f 156/156/16 155/155/16 154/154/16
f 157/157/15 158/158/15 159/159/15
f 160/160/15 159/159/15 158/158/15
f 161/161/25 162/162/25 163/163/25
f 164/164/25 163/163/25 162/162/25
f 165/165/7 166/166/7 167/167/7
f 168/168/7 167/167/7 166/166/7
f 169/169/26 170/170/27 171/171/26
f 172/172/27 171/171/26 170/170/27
f 173/173/28 174/174/28 175/175/28
f 176/176/28 175/175/28 174/174/28