# Blender v3.0.1 OBJ File: 'anno.blend'
# www.blender.org
mtllib 02.mtl
o model.005_model.034
v -0.669336 0.331499 -0.358754
v -0.669336 0.439252 0.358754
v -0.669336 0.331499 0.358754
v -0.669336 0.439252 -0.358754
v -0.669336 0.331499 -0.358754
v -0.694690 0.331499 0.358754
v -0.694690 0.331499 -0.358754
v -0.669336 0.331499 0.358754
v -0.694690 0.439252 0.358754
v -0.694690 0.331499 -0.358754
v -0.694690 0.331499 0.358754
v -0.694690 0.439252 -0.358754
v 0.669336 0.439252 -0.358754
v 0.669336 0.331499 0.358754
v 0.669336 0.439252 0.358754
v 0.669336 0.331499 -0.358754
v 0.694690 0.331499 -0.358754
v 0.694690 0.439252 0.358754
v 0.694690 0.331499 0.358754
v 0.694690 0.439252 -0.358754
v 0.694690 0.331499 -0.358754
v 0.669336 0.331499 0.358754
v 0.669336 0.331499 -0.358754
v 0.694690 0.331499 0.358754
v -0.669336 0.439252 -0.358754
v -0.669336 0.331499 -0.358754
v -0.669336 0.439252 0.358754
v -0.669336 0.331499 0.358754
v -0.669336 0.331499 0.358754
v -0.669336 0.331499 -0.358754
v -0.694690 0.331499 0.358754
v -0.694690 0.331499 -0.358754
v -0.694690 0.439252 -0.358754
v -0.694690 0.439252 0.358754
v -0.694690 0.331499 -0.358754
v -0.694690 0.331499 0.358754
v 0.669336 0.331499 -0.358754
v 0.669336 0.439252 -0.358754
v 0.669336 0.331499 0.358754
v 0.669336 0.439252 0.358754
v 0.694690 0.439252 -0.358754
v 0.694690 0.331499 -0.358754
v 0.694690 0.439252 0.358754
v 0.694690 0.331499 0.358754
v 0.694690 0.331499 0.358754
v 0.694690 0.331499 -0.358754
v 0.669336 0.331499 0.358754
v 0.669336 0.331499 -0.358754
v -0.694690 0.439252 -0.358754
v -0.669336 0.439252 0.358754
v -0.694690 0.439252 0.358754
v -0.669336 0.439252 -0.358754
v -0.669336 0.439252 -0.358754
v -0.694690 0.439252 -0.358754
v -0.669336 0.439252 0.358754
v -0.694690 0.439252 0.358754
v 0.694690 0.439252 -0.358754
v 0.669336 0.439252 0.358754
v 0.669336 0.439252 -0.358754
v 0.694690 0.439252 0.358754
v 0.694690 0.439252 0.358754
v 0.694690 0.439252 -0.358754
v 0.669336 0.439252 0.358754
v 0.669336 0.439252 -0.358754
v -0.643983 0.439252 -0.415800
v 0.637644 0.331499 -0.415800
v -0.643983 0.331499 -0.415800
v 0.637644 0.439252 -0.415800
v 0.637644 0.331499 -0.415800
v -0.643983 0.331499 -0.390446
v -0.643983 0.331499 -0.415800
v 0.637644 0.331499 -0.390446
v 0.637644 0.439252 -0.390446
v -0.643983 0.331499 -0.390446
v 0.637644 0.331499 -0.390446
v -0.643983 0.439252 -0.390446
v -0.637644 0.439252 0.390446
v 0.637644 0.331499 0.390446
v -0.637644 0.331499 0.390446
v 0.637644 0.439252 0.390446
v 0.637644 0.439252 0.415800
v -0.637644 0.331499 0.415800
v 0.637644 0.331499 0.415800
v -0.637644 0.439252 0.415800
v 0.637644 0.331499 0.390446
v -0.637644 0.331499 0.415800
v -0.637644 0.331499 0.390446
v 0.637644 0.331499 0.415800
v 0.637644 0.439252 -0.415800
v -0.643983 0.439252 -0.415800
v 0.637644 0.331499 -0.415800
v -0.643983 0.331499 -0.415800
v 0.637644 0.331499 -0.390446
v 0.637644 0.331499 -0.415800
v -0.643983 0.331499 -0.390446
v -0.643983 0.331499 -0.415800
v -0.643983 0.439252 -0.390446
v 0.637644 0.439252 -0.390446
v -0.643983 0.331499 -0.390446
v 0.637644 0.331499 -0.390446
v 0.637644 0.439252 0.390446
v -0.637644 0.439252 0.390446
v 0.637644 0.331499 0.390446
v -0.637644 0.331499 0.390446
v -0.637644 0.439252 0.415800
v 0.637644 0.439252 0.415800
v -0.637644 0.331499 0.415800
v 0.637644 0.331499 0.415800
v 0.637644 0.331499 0.415800
v 0.637644 0.331499 0.390446
v -0.637644 0.331499 0.415800
v -0.637644 0.331499 0.390446
v 0.637644 0.439252 -0.415800
v -0.643983 0.439252 -0.390446
v -0.643983 0.439252 -0.415800
v 0.637644 0.439252 -0.390446
v 0.637644 0.439252 -0.390446
v 0.637644 0.439252 -0.415800
v -0.643983 0.439252 -0.390446
v -0.643983 0.439252 -0.415800
v 0.637644 0.439252 0.390446
v -0.637644 0.439252 0.415800
v -0.637644 0.439252 0.390446
v 0.637644 0.439252 0.415800
v 0.637644 0.439252 0.415800
v 0.637644 0.439252 0.390446
v -0.637644 0.439252 0.415800
v -0.637644 0.439252 0.390446
vt 0.261200 -0.035600
vt 0.034800 -0.001600
vt 0.034800 -0.035600
vt 0.261200 -0.001600
vt -0.024800 0.261200
vt -0.016800 0.034800
vt -0.016800 0.261200
vt -0.024800 0.034800
vt -0.034800 -0.001600
vt -0.261200 -0.035600
vt -0.034800 -0.035600
vt -0.261200 -0.001600
vt -0.261200 -0.001600
vt -0.034800 -0.035600
vt -0.034800 -0.001600
vt -0.261200 -0.035600
vt 0.261200 -0.035600
vt 0.034800 -0.001600
vt 0.034800 -0.035600
vt 0.261200 -0.001600
vt -0.455200 0.261200
vt -0.447200 0.034800
vt -0.447200 0.261200
vt -0.455200 0.034800
vt 0.000000 0.000000
vt 0.000000 0.000000
vt 0.000000 0.000000
vt 0.000000 0.000000
vt 0.000000 0.000000
vt 0.000000 0.000000
vt 0.000000 0.000000
vt 0.000000 0.000000
vt 0.000000 0.000000
vt 0.000000 0.000000
vt 0.000000 0.000000
vt 0.000000 0.000000
vt 0.000000 0.000000
vt 0.000000 0.000000
vt 0.000000 0.000000
vt 0.000000 0.000000
vt 0.000000 0.000000
vt 0.000000 0.000000
vt 0.000000 0.000000
vt 0.000000 0.000000
vt 0.000000 0.000000
vt 0.000000 0.000000
vt 0.000000 0.000000
vt 0.000000 0.000000
vt 0.000000 0.000000
vt 0.000000 0.000000
vt 0.000000 0.000000
vt 0.000000 0.000000
vt 0.000000 0.000000
vt 0.000000 0.000000
vt 0.000000 0.000000
vt 0.000000 0.000000
vt 0.000000 0.000000
vt 0.000000 0.000000
vt 0.000000 0.000000
vt 0.000000 0.000000
vt 0.000000 0.000000
vt 0.000000 0.000000
vt 0.000000 0.000000
vt 0.000000 0.000000
vt -0.032800 -0.001600
vt -0.437200 -0.035600
vt -0.032800 -0.035600
vt -0.437200 -0.001600
vt -0.437200 0.279200
vt -0.032800 0.271200
vt -0.032800 0.279200
vt -0.437200 0.271200
vt 0.437200 -0.001600
vt 0.032800 -0.035600
vt 0.437200 -0.035600
vt 0.032800 -0.001600
vt -0.034800 -0.001600
vt -0.437200 -0.035600
vt -0.034800 -0.035600
vt -0.437200 -0.001600
vt 0.437200 -0.001600
vt 0.034800 -0.035600
vt 0.437200 -0.035600
vt 0.034800 -0.001600
vt -0.437200 0.024800
vt -0.034800 0.016800
vt -0.034800 0.024800
vt -0.437200 0.016800
vt 0.000000 0.000000
vt 0.000000 0.000000
vt 0.000000 0.000000
vt 0.000000 0.000000
vt 0.000000 0.000000
vt 0.000000 0.000000
vt 0.000000 0.000000
vt 0.000000 0.000000
vt 0.000000 0.000000
vt 0.000000 0.000000
vt 0.000000 0.000000
vt 0.000000 0.000000
vt 0.000000 0.000000
vt 0.000000 0.000000
vt 0.000000 0.000000
vt 0.000000 0.000000
vt 0.000000 0.000000
vt 0.000000 0.000000
vt 0.000000 0.000000
vt 0.000000 0.000000
vt 0.000000 0.000000
vt 0.000000 0.000000
vt 0.000000 0.000000
vt 0.000000 0.000000
vt 0.000000 0.000000
vt 0.000000 0.000000
vt 0.000000 0.000000
vt 0.000000 0.000000
vt 0.000000 0.000000
vt 0.000000 0.000000
vt 0.000000 0.000000
vt 0.000000 0.000000
vt 0.000000 0.000000
vt 0.000000 0.000000
vt 0.000000 0.000000
vt 0.000000 0.000000
vt 0.000000 0.000000
vt 0.000000 0.000000
vt 0.000000 0.000000
vt 0.000000 0.000000
vn 1.0000 0.0000 0.0000
vn 0.0000 -1.0000 0.0000
vn -1.0000 0.0000 0.0000
vn 0.0000 1.0000 0.0000
vn 0.0000 0.0000 -1.0000
vn 0.0000 0.0000 1.0000
usemtl material_0.002
s 1
f 1/1/1 2/2/1 3/3/1
f 2/2/1 1/1/1 4/4/1
f 5/5/2 6/6/2 7/7/2
f 6/6/2 5/5/2 8/8/2
f 9/9/3 10/10/3 11/11/3
f 10/10/3 9/9/3 12/12/3
f 13/13/3 14/14/3 15/15/3
f 14/14/3 13/13/3 16/16/3
f 17/17/1 18/18/1 19/19/1
f 18/18/1 17/17/1 20/20/1
f 21/21/2 22/22/2 23/23/2
f 22/22/2 21/21/2 24/24/2
f 25/25/3 26/26/3 27/27/3
f 28/28/3 27/27/3 26/26/3
f 29/29/4 30/30/4 31/31/4
f 32/32/4 31/31/4 30/30/4
f 33/33/1 34/34/1 35/35/1
f 36/36/1 35/35/1 34/34/1
f 37/37/1 38/38/1 39/39/1
f 40/40/1 39/39/1 38/38/1
f 41/41/3 42/42/3 43/43/3
f 44/44/3 43/43/3 42/42/3
f 45/45/4 46/46/4 47/47/4
f 48/48/4 47/47/4 46/46/4
f 49/49/2 50/50/2 51/51/2
f 50/50/2 49/49/2 52/52/2
f 53/53/4 54/54/4 55/55/4
f 56/56/4 55/55/4 54/54/4
f 57/57/2 58/58/2 59/59/2
f 58/58/2 57/57/2 60/60/2
f 61/61/4 62/62/4 63/63/4
f 64/64/4 63/63/4 62/62/4
f 65/65/5 66/66/5 67/67/5
f 66/66/5 65/65/5 68/68/5
f 69/69/2 70/70/2 71/71/2
f 70/70/2 69/69/2 72/72/2
f 73/73/6 74/74/6 75/75/6
f 74/74/6 73/73/6 76/76/6
f 77/77/5 78/78/5 79/79/5
f 78/78/5 77/77/5 80/80/5
f 81/81/6 82/82/6 83/83/6
f 82/82/6 81/81/6 84/84/6
f 85/85/2 86/86/2 87/87/2
f 86/86/2 85/85/2 88/88/2
f 89/89/6 90/90/6 91/91/6
f 92/92/6 91/91/6 90/90/6
f 93/93/4 94/94/4 95/95/4
f 96/96/4 95/95/4 94/94/4
f 97/97/5 98/98/5 99/99/5
f 100/100/5 99/99/5 98/98/5
f 101/101/6 102/102/6 103/103/6
f 104/104/6 103/103/6 102/102/6
f 105/105/5 106/106/5 107/107/5
f 108/108/5 107/107/5 106/106/5
f 109/109/4 110/110/4 111/111/4
f 112/112/4 111/111/4 110/110/4
f 113/113/2 114/114/2 115/115/2
f 114/114/2 113/113/2 116/116/2
f 117/117/4 118/118/4 119/119/4
f 120/120/4 119/119/4 118/118/4
f 121/121/2 122/122/2 123/123/2
f 122/122/2 121/121/2 124/124/2
f 125/125/4 126/126/4 127/127/4
f 128/128/4 127/127/4 126/126/4