# Blender v3.0.1 OBJ File: 'anno.blend'
# www.blender.org
mtllib 03.mtl
o model.006_model.036
v 0.637644 0.439252 0.358754
v 0.707367 -0.473479 0.358754
v 0.637644 -0.473479 0.358754
v 0.669336 0.331499 0.358754
v 0.669336 0.439252 0.358754
v 0.694690 0.331499 0.358754
v 0.707367 0.439252 0.358754
v 0.694690 0.439252 0.358754
v 0.669336 0.439252 0.358754
v 0.637644 0.439252 0.390446
v 0.637644 0.439252 0.358754
v 0.637644 0.439252 0.415800
v 0.637644 0.439252 0.428477
v 0.707367 0.439252 0.428477
v 0.694690 0.439252 0.358754
v 0.707367 0.439252 0.358754
v 0.637644 0.439252 0.358754
v 0.637644 0.331499 0.390446
v 0.637644 0.439252 0.390446
v 0.637644 0.439252 0.415800
v 0.637644 -0.473479 0.428477
v 0.637644 0.439252 0.428477
v 0.637644 0.331499 0.415800
v 0.637644 -0.473479 0.358754
v 0.707367 -0.473479 0.358754
v 0.707367 0.439252 0.428477
v 0.707367 -0.473479 0.428477
v 0.707367 0.439252 0.358754
v 0.707367 -0.473479 0.358754
v 0.637644 -0.473479 0.428477
v 0.637644 -0.473479 0.358754
v 0.707367 -0.473479 0.428477
v 0.707367 0.439252 0.428477
v 0.637644 -0.473479 0.428477
v 0.707367 -0.473479 0.428477
v 0.637644 0.439252 0.428477
v 0.694690 0.439252 0.358754
v 0.694690 0.331499 0.358754
v 0.707367 0.439252 0.358754
v 0.669336 0.331499 0.358754
v 0.707367 -0.473479 0.358754
v 0.669336 0.439252 0.358754
v 0.637644 0.439252 0.358754
v 0.637644 -0.473479 0.358754
v 0.707367 0.439252 0.358754
v 0.694690 0.439252 0.358754
v 0.707367 0.439252 0.428477
v 0.669336 0.439252 0.358754
v 0.637644 0.439252 0.428477
v 0.637644 0.439252 0.415800
v 0.637644 0.439252 0.390446
v 0.637644 0.439252 0.358754
v 0.637644 0.439252 0.358754
v 0.637644 0.331499 0.390446
v 0.637644 -0.473479 0.358754
v 0.637644 0.331499 0.415800
v 0.637644 -0.473479 0.428477
v 0.637644 0.439252 0.415800
v 0.637644 0.439252 0.428477
v 0.637644 0.439252 0.390446
v 0.707367 0.439252 0.358754
v 0.707367 -0.473479 0.358754
v 0.707367 0.439252 0.428477
v 0.707367 -0.473479 0.428477
v 0.707367 -0.473479 0.428477
v 0.707367 -0.473479 0.358754
v 0.637644 -0.473479 0.428477
v 0.637644 -0.473479 0.358754
v 0.637644 0.439252 0.428477
v 0.707367 0.439252 0.428477
v 0.637644 -0.473479 0.428477
v 0.707367 -0.473479 0.428477
v 0.637644 0.439252 0.390446
v 0.637644 0.331499 0.415800
v 0.637644 0.439252 0.415800
v 0.637644 0.331499 0.390446
v 0.637644 0.331499 0.390446
v 0.637644 0.439252 0.390446
v 0.637644 0.331499 0.415800
v 0.637644 0.439252 0.415800
v 0.669336 0.439252 0.358754
v 0.694690 0.331499 0.358754
v 0.669336 0.331499 0.358754
v 0.694690 0.439252 0.358754
v 0.694690 0.439252 0.358754
v 0.669336 0.439252 0.358754
v 0.694690 0.331499 0.358754
v 0.669336 0.331499 0.358754
vt -0.437200 -0.001600
vt -0.459200 -0.289600
vt -0.437200 -0.289600
vt -0.447200 -0.035600
vt -0.447200 -0.001600
vt -0.455200 -0.035600
vt -0.459200 -0.001600
vt -0.455200 -0.001600
vt -0.447200 0.034800
vt -0.437200 0.024800
vt -0.437200 0.034800
vt -0.437200 0.016800
vt -0.437200 0.012800
vt -0.459200 0.012800
vt -0.455200 0.034800
vt -0.459200 0.034800
vt -0.034800 -0.001600
vt -0.024800 -0.035600
vt -0.024800 -0.001600
vt -0.016800 -0.001600
vt -0.012800 -0.289600
vt -0.012800 -0.001600
vt -0.016800 -0.035600
vt -0.034800 -0.289600
vt 0.034800 -0.289600
vt 0.012800 -0.001600
vt 0.012800 -0.289600
vt 0.034800 -0.001600
vt -0.459200 0.034800
vt -0.437200 0.012800
vt -0.437200 0.034800
vt -0.459200 0.012800
vt 0.459200 -0.001600
vt 0.437200 -0.289600
vt 0.459200 -0.289600
vt 0.437200 -0.001600
vt 0.000000 0.000000
vt 0.000000 0.000000
vt 0.000000 0.000000
vt 0.000000 0.000000
vt 0.000000 0.000000
vt 0.000000 0.000000
vt 0.000000 0.000000
vt 0.000000 0.000000
vt 0.000000 0.000000
vt 0.000000 0.000000
vt 0.000000 0.000000
vt 0.000000 0.000000
vt 0.000000 0.000000
vt 0.000000 0.000000
vt 0.000000 0.000000
vt 0.000000 0.000000
vt 0.000000 0.000000
vt 0.000000 0.000000
vt 0.000000 0.000000
vt 0.000000 0.000000
vt 0.000000 0.000000
vt 0.000000 0.000000
vt 0.000000 0.000000
vt 0.000000 0.000000
vt 0.000000 0.000000
vt 0.000000 0.000000
vt 0.000000 0.000000
vt 0.000000 0.000000
vt 0.000000 0.000000
vt 0.000000 0.000000
vt 0.000000 0.000000
vt 0.000000 0.000000
vt 0.000000 0.000000
vt 0.000000 0.000000
vt 0.000000 0.000000
vt 0.000000 0.000000
vt 0.000000 0.000000
vt 0.000000 0.000000
vt 0.000000 0.000000
vt 0.000000 0.000000
vt 0.000000 0.000000
vt 0.000000 0.000000
vt 0.000000 0.000000
vt 0.000000 0.000000
vt 0.000000 0.000000
vt 0.000000 0.000000
vt 0.000000 0.000000
vt 0.000000 0.000000
vt 0.000000 0.000000
vt 0.000000 0.000000
vt 0.000000 0.000000
vt 0.000000 0.000000
vn -0.0000 0.0000 -1.0000
vn 0.0000 -1.0000 0.0000
vn -1.0000 0.0000 0.0000
vn 1.0000 0.0000 0.0000
vn 0.0000 0.0000 1.0000
vn 0.0000 1.0000 0.0000
usemtl material_0.002
s 1
f 1/1/1 2/2/1 3/3/1
f 2/2/1 1/1/1 4/4/1
f 4/4/1 1/1/1 5/5/1
f 2/2/1 6/6/1 7/7/1
f 6/6/1 2/2/1 4/4/1
f 7/7/1 6/6/1 8/8/1
f 9/9/2 10/10/2 11/11/2
f 10/10/2 9/9/2 12/12/2
f 12/12/2 9/9/2 13/13/2
f 13/13/2 9/9/2 14/14/2
f 14/14/2 9/9/2 15/15/2
f 14/14/2 15/15/2 16/16/2
f 17/17/3 18/18/3 19/19/3
f 20/20/3 21/21/3 22/22/3
f 21/21/3 20/20/3 23/23/3
f 21/21/3 23/23/3 24/24/3
f 24/24/3 23/23/3 18/18/3
f 24/24/3 18/18/3 17/17/3
f 25/25/4 26/26/4 27/27/4
f 26/26/4 25/25/4 28/28/4
f 29/29/2 30/30/2 31/31/2
f 30/30/2 29/29/2 32/32/2
f 33/33/5 34/34/5 35/35/5
f 34/34/5 33/33/5 36/36/5
f 37/37/5 38/38/5 39/39/5
f 40/40/5 41/41/5 38/38/5
f 39/39/5 38/38/5 41/41/5
f 42/42/5 43/43/5 40/40/5
f 40/40/5 43/43/5 41/41/5
f 44/44/5 41/41/5 43/43/5
f 45/45/6 46/46/6 47/47/6
f 46/46/6 48/48/6 47/47/6
f 47/47/6 48/48/6 49/49/6
f 49/49/6 48/48/6 50/50/6
f 50/50/6 48/48/6 51/51/6
f 52/52/6 51/51/6 48/48/6
f 53/53/4 54/54/4 55/55/4
f 54/54/4 56/56/4 55/55/4
f 55/55/4 56/56/4 57/57/4
f 56/56/4 58/58/4 57/57/4
f 59/59/4 57/57/4 58/58/4
f 60/60/4 54/54/4 53/53/4
f 61/61/3 62/62/3 63/63/3
f 64/64/3 63/63/3 62/62/3
f 65/65/6 66/66/6 67/67/6
f 68/68/6 67/67/6 66/66/6
f 69/69/1 70/70/1 71/71/1
f 72/72/1 71/71/1 70/70/1
f 73/73/3 74/74/3 75/75/3
f 74/74/3 73/73/3 76/76/3
f 77/77/4 78/78/4 79/79/4
f 80/80/4 79/79/4 78/78/4
f 81/81/1 82/82/1 83/83/1
f 82/82/1 81/81/1 84/84/1
f 85/85/5 86/86/5 87/87/5
f 88/88/5 87/87/5 86/86/5