# Blender v3.0.1 OBJ File: 'anno.blend'
# www.blender.org
mtllib 04.mtl
o model.007_model.037
v 0.637644 0.439252 -0.428477
v 0.637644 0.331499 -0.415800
v 0.637644 0.439252 -0.415800
v 0.637644 0.439252 -0.390446
v 0.637644 -0.473479 -0.358754
v 0.637644 0.439252 -0.358754
v 0.637644 0.331499 -0.390446
v 0.637644 -0.473479 -0.428477
v 0.707367 0.439252 -0.428477
v 0.637644 0.439252 -0.415800
v 0.637644 0.439252 -0.428477
v 0.637644 0.439252 -0.390446
v 0.637644 0.439252 -0.358754
v 0.669336 0.439252 -0.358754
v 0.694690 0.439252 -0.358754
v 0.707367 0.439252 -0.358754
v 0.707367 0.439252 -0.358754
v 0.637644 -0.473479 -0.358754
v 0.707367 -0.473479 -0.358754
v 0.694690 0.331499 -0.358754
v 0.694690 0.439252 -0.358754
v 0.669336 0.331499 -0.358754
v 0.637644 0.439252 -0.358754
v 0.669336 0.439252 -0.358754
v 0.637644 0.439252 -0.428477
v 0.707367 -0.473479 -0.428477
v 0.637644 -0.473479 -0.428477
v 0.707367 0.439252 -0.428477
v 0.707367 -0.473479 -0.428477
v 0.637644 -0.473479 -0.358754
v 0.637644 -0.473479 -0.428477
v 0.707367 -0.473479 -0.358754
v 0.707367 -0.473479 -0.428477
v 0.707367 0.439252 -0.358754
v 0.707367 -0.473479 -0.358754
v 0.707367 0.439252 -0.428477
v 0.637644 0.439252 -0.428477
v 0.637644 0.331499 -0.415800
v 0.637644 -0.473479 -0.428477
v 0.637644 0.331499 -0.390446
v 0.637644 -0.473479 -0.358754
v 0.637644 0.439252 -0.390446
v 0.637644 0.439252 -0.358754
v 0.637644 0.439252 -0.415800
v 0.707367 0.439252 -0.358754
v 0.707367 0.439252 -0.428477
v 0.694690 0.439252 -0.358754
v 0.669336 0.439252 -0.358754
v 0.637644 0.439252 -0.358754
v 0.637644 0.439252 -0.390446
v 0.637644 0.439252 -0.415800
v 0.637644 0.439252 -0.428477
v 0.669336 0.439252 -0.358754
v 0.669336 0.331499 -0.358754
v 0.637644 0.439252 -0.358754
v 0.694690 0.331499 -0.358754
v 0.637644 -0.473479 -0.358754
v 0.694690 0.439252 -0.358754
v 0.707367 0.439252 -0.358754
v 0.707367 -0.473479 -0.358754
v 0.707367 0.439252 -0.428477
v 0.637644 0.439252 -0.428477
v 0.707367 -0.473479 -0.428477
v 0.637644 -0.473479 -0.428477
v 0.707367 -0.473479 -0.358754
v 0.707367 -0.473479 -0.428477
v 0.637644 -0.473479 -0.358754
v 0.637644 -0.473479 -0.428477
v 0.707367 0.439252 -0.428477
v 0.707367 -0.473479 -0.428477
v 0.707367 0.439252 -0.358754
v 0.707367 -0.473479 -0.358754
v 0.637644 0.439252 -0.415800
v 0.637644 0.331499 -0.390446
v 0.637644 0.439252 -0.390446
v 0.637644 0.331499 -0.415800
v 0.637644 0.331499 -0.415800
v 0.637644 0.439252 -0.415800
v 0.637644 0.331499 -0.390446
v 0.637644 0.439252 -0.390446
v 0.694690 0.439252 -0.358754
v 0.669336 0.331499 -0.358754
v 0.694690 0.331499 -0.358754
v 0.669336 0.439252 -0.358754
v 0.669336 0.439252 -0.358754
v 0.694690 0.439252 -0.358754
v 0.669336 0.331499 -0.358754
v 0.694690 0.331499 -0.358754
vt -0.283200 -0.001600
vt -0.279200 -0.035600
vt -0.279200 -0.001600
vt -0.271200 -0.001600
vt -0.261200 -0.289600
vt -0.261200 -0.001600
vt -0.271200 -0.035600
vt -0.283200 -0.289600
vt -0.459200 0.283200
vt -0.437200 0.279200
vt -0.437200 0.283200
vt -0.437200 0.271200
vt -0.437200 0.261200
vt -0.447200 0.261200
vt -0.455200 0.261200
vt -0.459200 0.261200
vt 0.459200 -0.001600
vt 0.437200 -0.289600
vt 0.459200 -0.289600
vt 0.455200 -0.035600
vt 0.455200 -0.001600
vt 0.447200 -0.035600
vt 0.437200 -0.001600
vt 0.447200 -0.001600
vt -0.437200 -0.001600
vt -0.459200 -0.289600
vt -0.437200 -0.289600
vt -0.459200 -0.001600
vt -0.459200 0.283200
vt -0.437200 0.261200
vt -0.437200 0.283200
vt -0.459200 0.261200
vt 0.283200 -0.289600
vt 0.261200 -0.001600
vt 0.261200 -0.289600
vt 0.283200 -0.001600
vt 0.000000 0.000000
vt 0.000000 0.000000
vt 0.000000 0.000000
vt 0.000000 0.000000
vt 0.000000 0.000000
vt 0.000000 0.000000
vt 0.000000 0.000000
vt 0.000000 0.000000
vt 0.000000 0.000000
vt 0.000000 0.000000
vt 0.000000 0.000000
vt 0.000000 0.000000
vt 0.000000 0.000000
vt 0.000000 0.000000
vt 0.000000 0.000000
vt 0.000000 0.000000
vt 0.000000 0.000000
vt 0.000000 0.000000
vt 0.000000 0.000000
vt 0.000000 0.000000
vt 0.000000 0.000000
vt 0.000000 0.000000
vt 0.000000 0.000000
vt 0.000000 0.000000
vt 0.000000 0.000000
vt 0.000000 0.000000
vt 0.000000 0.000000
vt 0.000000 0.000000
vt 0.000000 0.000000
vt 0.000000 0.000000
vt 0.000000 0.000000
vt 0.000000 0.000000
vt 0.000000 0.000000
vt 0.000000 0.000000
vt 0.000000 0.000000
vt 0.000000 0.000000
vt 0.000000 0.000000
vt 0.000000 0.000000
vt 0.000000 0.000000
vt 0.000000 0.000000
vt 0.000000 0.000000
vt 0.000000 0.000000
vt 0.000000 0.000000
vt 0.000000 0.000000
vt 0.000000 0.000000
vt 0.000000 0.000000
vt 0.000000 0.000000
vt 0.000000 0.000000
vt 0.000000 0.000000
vt 0.000000 0.000000
vt 0.000000 0.000000
vt 0.000000 0.000000
vn -1.0000 0.0000 0.0000
vn 0.0000 -1.0000 0.0000
vn 0.0000 0.0000 1.0000
vn 0.0000 0.0000 -1.0000
vn 1.0000 0.0000 0.0000
vn 0.0000 1.0000 0.0000
usemtl material_0.002
s 1
f 1/1/1 2/2/1 3/3/1
f 4/4/1 5/5/1 6/6/1
f 5/5/1 4/4/1 7/7/1
f 5/5/1 7/7/1 8/8/1
f 8/8/1 7/7/1 2/2/1
f 8/8/1 2/2/1 1/1/1
f 9/9/2 10/10/2 11/11/2
f 10/10/2 9/9/2 12/12/2
f 12/12/2 9/9/2 13/13/2
f 13/13/2 9/9/2 14/14/2
f 14/14/2 9/9/2 15/15/2
f 15/15/2 9/9/2 16/16/2
f 17/17/3 18/18/3 19/19/3
f 18/18/3 17/17/3 20/20/3
f 20/20/3 17/17/3 21/21/3
f 18/18/3 22/22/3 23/23/3
f 22/22/3 18/18/3 20/20/3
f 23/23/3 22/22/3 24/24/3
f 25/25/4 26/26/4 27/27/4
f 26/26/4 25/25/4 28/28/4
f 29/29/2 30/30/2 31/31/2
f 30/30/2 29/29/2 32/32/2
f 33/33/5 34/34/5 35/35/5
f 34/34/5 33/33/5 36/36/5
f 37/37/5 38/38/5 39/39/5
f 38/38/5 40/40/5 39/39/5
f 39/39/5 40/40/5 41/41/5
f 40/40/5 42/42/5 41/41/5
f 43/43/5 41/41/5 42/42/5
f 44/44/5 38/38/5 37/37/5
f 45/45/6 46/46/6 47/47/6
f 47/47/6 46/46/6 48/48/6
f 48/48/6 46/46/6 49/49/6
f 49/49/6 46/46/6 50/50/6
f 50/50/6 46/46/6 51/51/6
f 52/52/6 51/51/6 46/46/6
f 53/53/4 54/54/4 55/55/4
f 56/56/4 57/57/4 54/54/4
f 55/55/4 54/54/4 57/57/4
f 58/58/4 59/59/4 56/56/4
f 56/56/4 59/59/4 57/57/4
f 60/60/4 57/57/4 59/59/4
f 61/61/3 62/62/3 63/63/3
f 64/64/3 63/63/3 62/62/3
f 65/65/6 66/66/6 67/67/6
f 68/68/6 67/67/6 66/66/6
f 69/69/1 70/70/1 71/71/1
f 72/72/1 71/71/1 70/70/1
f 73/73/1 74/74/1 75/75/1
f 74/74/1 73/73/1 76/76/1
f 77/77/5 78/78/5 79/79/5
f 80/80/5 79/79/5 78/78/5
f 81/81/3 82/82/3 83/83/3
f 82/82/3 81/81/3 84/84/3
f 85/85/4 86/86/4 87/87/4
f 88/88/4 87/87/4 86/86/4