# Blender v3.0.1 OBJ File: ''
# www.blender.org
mtllib 03.mtl
o model.356_model.918
v -0.426941 -0.754732 0.498098
v -0.189752 0.637329 0.260908
v -0.260908 0.637329 0.332065
v -0.355784 -0.754732 0.426941
v -0.426941 -0.754732 0.355784
v -0.332065 0.637329 0.260908
v -0.260908 0.637329 0.189752
v -0.498098 -0.754732 0.426941
v -0.260908 0.637329 0.189752
v -0.332065 0.637329 0.260908
v -0.426941 -0.754732 0.355784
v -0.498098 -0.754732 0.426941
v -0.189752 0.637329 0.260908
v -0.426941 -0.754732 0.355784
v -0.260908 0.637329 0.189752
v -0.355784 -0.754732 0.426941
v -0.260908 0.637329 0.189752
v -0.426941 -0.754732 0.355784
v -0.189752 0.637329 0.260908
v -0.355784 -0.754732 0.426941
v -0.260908 0.637329 0.332065
v -0.189752 0.637329 0.260908
v -0.426941 -0.754732 0.498098
v -0.355784 -0.754732 0.426941
v -0.498098 -0.754732 0.426941
v -0.260908 0.637329 0.332065
v -0.332065 0.637329 0.260908
v -0.426941 -0.754732 0.498098
v -0.332065 0.637329 0.260908
v -0.260908 0.637329 0.332065
v -0.498098 -0.754732 0.426941
v -0.426941 -0.754732 0.498098
v -0.260908 0.637329 0.189752
v -0.260908 0.637329 0.332065
v -0.189752 0.637329 0.260908
v -0.332065 0.637329 0.260908
v -0.189752 0.637329 0.260908
v -0.260908 0.637329 0.332065
v -0.260908 0.637329 0.189752
v -0.332065 0.637329 0.260908
v -0.077087 0.637330 0.136384
v -0.195681 0.637330 0.254979
v -0.215406 0.471947 0.274704
v -0.215406 0.471947 0.274704
v -0.195681 0.637330 0.254979
v -0.077087 0.637330 0.136384
v -0.136384 0.637330 0.077087
v -0.215406 0.471947 0.274704
v -0.274704 0.471947 0.215407
v -0.077087 0.637330 0.136384
v -0.077087 0.637330 0.136384
v -0.136384 0.637330 0.077087
v -0.215406 0.471947 0.274704
v -0.274704 0.471947 0.215407
v -0.136384 0.637330 0.077087
v -0.195681 0.637330 0.254979
v -0.077087 0.637330 0.136384
v -0.254979 0.637330 0.195681
v -0.077087 0.637330 0.136384
v -0.195681 0.637330 0.254979
v -0.136384 0.637330 0.077087
v -0.254979 0.637330 0.195681
v -0.274704 0.471947 0.215407
v -0.195681 0.637330 0.254979
v -0.254979 0.637330 0.195681
v -0.215406 0.471947 0.274704
v -0.254979 0.637330 0.195681
v -0.195681 0.637330 0.254979
v -0.274704 0.471947 0.215407
v -0.215406 0.471947 0.274704
v -0.254979 0.637330 0.195681
v -0.136384 0.637330 0.077087
v -0.274704 0.471947 0.215407
v -0.274704 0.471947 0.215407
v -0.136384 0.637330 0.077087
v -0.254979 0.637330 0.195681
v -0.426941 -0.754732 0.498098
v -0.426941 -0.754732 0.355784
v -0.355784 -0.754732 0.426941
v -0.498098 -0.754732 0.426941
v -0.355784 -0.754732 0.426941
v -0.426941 -0.754732 0.355784
v -0.426941 -0.754732 0.498098
v -0.498098 -0.754732 0.426941
vt 0.012000 -0.000000
vt 0.092000 2.075000
vt 0.068000 2.075000
vt 0.036000 -0.000000
vt -0.036000 0.000000
vt -0.068000 2.075000
vt -0.092000 2.075000
vt -0.012000 0.000000
vt -0.092000 2.075000
vt -0.068000 2.075000
vt -0.036000 0.000000
vt -0.012000 0.000000
vt -0.012000 2.141734
vt 0.012000 0.037423
vt 0.012000 2.141734
vt -0.012000 0.037423
vt 0.012000 2.141734
vt 0.012000 0.037423
vt -0.012000 2.141734
vt -0.012000 0.037423
vt 0.068000 2.075000
vt 0.092000 2.075000
vt 0.012000 -0.000000
vt 0.036000 -0.000000
vt -0.012000 0.012474
vt 0.012000 2.116785
vt -0.012000 2.116785
vt 0.012000 0.012474
vt -0.012000 2.116785
vt 0.012000 2.116785
vt -0.012000 0.012474
vt 0.012000 0.012474
vt 0.056569 0.459619
vt 0.056569 0.247487
vt 0.073539 0.353553
vt 0.039598 0.353553
vt 0.073539 0.353553
vt 0.056569 0.247487
vt 0.056569 0.459619
vt 0.039598 0.353553
vt 0.056653 0.246518
vt 0.016653 0.246518
vt 0.010000 0.000000
vt 0.010000 0.000000
vt 0.016653 0.246518
vt 0.056653 0.246518
vt 0.010000 0.429554
vt -0.010000 0.047728
vt 0.010000 0.047728
vt -0.010000 0.429554
vt -0.010000 0.429554
vt 0.010000 0.429554
vt -0.010000 0.047728
vt 0.010000 0.047728
vt 0.032989 0.294567
vt 0.018847 0.029402
vt 0.047131 0.206179
vt 0.004704 0.117791
vt 0.047131 0.206179
vt 0.018847 0.029402
vt 0.032989 0.294567
vt 0.004704 0.117791
vt -0.010000 0.010395
vt 0.010000 0.260395
vt -0.010000 0.260395
vt 0.010000 0.010395
vt -0.010000 0.260395
vt 0.010000 0.260395
vt -0.010000 0.010395
vt 0.010000 0.010395
vt -0.016653 0.246518
vt -0.056653 0.246518
vt -0.010000 0.000000
vt -0.010000 0.000000
vt -0.056653 0.246518
vt -0.016653 0.246518
vt -0.016971 -0.000000
vt -0.016971 0.212132
vt -0.033941 0.106066
vt -0.000000 0.106066
vt -0.033941 0.106066
vt -0.016971 0.212132
vt -0.016971 -0.000000
vt -0.000000 0.106066
vn 0.7071 0.0000 0.7071
vn -0.7071 0.0000 -0.7071
vn 0.6973 -0.1663 -0.6973
vn -0.6973 0.1663 0.6973
vn 0.0000 1.0000 0.0000
vn 0.0000 -1.0000 0.0000
vn 0.4565 -0.7636 -0.4565
vn -0.4565 0.7636 0.4565
usemtl material_0.150
s 1
f 1/1/1 2/2/1 3/3/1
f 2/2/1 1/1/1 4/4/1
f 5/5/2 6/6/2 7/7/2
f 6/6/2 5/5/2 8/8/2
f 9/9/1 10/10/1 11/11/1
f 12/12/1 11/11/1 10/10/1
f 13/13/3 14/14/3 15/15/3
f 14/14/3 13/13/3 16/16/3
f 17/17/4 18/18/4 19/19/4
f 20/20/4 19/19/4 18/18/4
f 21/21/2 22/22/2 23/23/2
f 24/24/2 23/23/2 22/22/2
f 25/25/4 26/26/4 27/27/4
f 26/26/4 25/25/4 28/28/4
f 29/29/3 30/30/3 31/31/3
f 32/32/3 31/31/3 30/30/3
f 33/33/5 34/34/5 35/35/5
f 34/34/5 33/33/5 36/36/5
f 37/37/6 38/38/6 39/39/6
f 40/40/6 39/39/6 38/38/6
f 41/41/1 42/42/1 43/43/1
f 44/44/2 45/45/2 46/46/2
f 47/47/7 48/48/7 49/49/7
f 48/48/7 47/47/7 50/50/7
f 51/51/8 52/52/8 53/53/8
f 54/54/8 53/53/8 52/52/8
f 55/55/5 56/56/5 57/57/5
f 56/56/5 55/55/5 58/58/5
f 59/59/6 60/60/6 61/61/6
f 62/62/6 61/61/6 60/60/6
f 63/63/4 64/64/4 65/65/4
f 64/64/4 63/63/4 66/66/4
f 67/67/3 68/68/3 69/69/3
f 70/70/3 69/69/3 68/68/3
f 71/71/2 72/72/2 73/73/2
f 74/74/1 75/75/1 76/76/1
f 77/77/6 78/78/6 79/79/6
f 78/78/6 77/77/6 80/80/6
f 81/81/5 82/82/5 83/83/5
f 84/84/5 83/83/5 82/82/5