# Blender v3.0.1 OBJ File: ''
# www.blender.org
mtllib 06.mtl
o model.421_model.983
v -0.189752 0.637329 -0.260908
v -0.355784 -0.754732 -0.426941
v -0.260908 0.637329 -0.189752
v -0.426941 -0.754732 -0.355784
v -0.136384 0.637330 -0.077087
v -0.254979 0.637330 -0.195681
v -0.077087 0.637330 -0.136384
v -0.195681 0.637330 -0.254979
v -0.195681 0.637330 -0.254979
v -0.077087 0.637330 -0.136384
v -0.215406 0.471947 -0.274704
v -0.260908 0.637329 -0.189751
v -0.355784 -0.754732 -0.426941
v -0.189751 0.637329 -0.260908
v -0.426941 -0.754732 -0.355784
v -0.498098 -0.754732 -0.426941
v -0.355784 -0.754732 -0.426941
v -0.426941 -0.754732 -0.355784
v -0.426941 -0.754732 -0.498098
v -0.355784 -0.754732 -0.426941
v -0.260908 0.637329 -0.332065
v -0.189751 0.637329 -0.260908
v -0.426941 -0.754732 -0.498098
v -0.498098 -0.754732 -0.426941
v -0.260908 0.637329 -0.189751
v -0.332065 0.637329 -0.260908
v -0.426941 -0.754732 -0.355784
v -0.260908 0.637329 -0.189751
v -0.332065 0.637329 -0.260908
v -0.189751 0.637329 -0.260908
v -0.260908 0.637329 -0.332065
v -0.136384 0.637330 -0.077087
v -0.254979 0.637330 -0.195681
v -0.274704 0.471947 -0.215406
v -0.274704 0.471947 -0.215406
v -0.254979 0.637330 -0.195681
v -0.136384 0.637330 -0.077087
v -0.077087 0.637330 -0.136384
v -0.254979 0.637330 -0.195681
v -0.136384 0.637330 -0.077087
v -0.195681 0.637330 -0.254978
v -0.260908 0.637329 -0.332065
v -0.332065 0.637329 -0.260908
v -0.426941 -0.754732 -0.498098
v -0.498098 -0.754732 -0.426941
v -0.426941 -0.754732 -0.498098
v -0.332065 0.637329 -0.260908
v -0.260908 0.637329 -0.332065
v -0.498098 -0.754732 -0.426941
v -0.189751 0.637329 -0.260908
v -0.260908 0.637329 -0.332065
v -0.355784 -0.754732 -0.426941
v -0.426941 -0.754732 -0.498098
v -0.426941 -0.754732 -0.355784
v -0.355784 -0.754732 -0.426941
v -0.498097 -0.754732 -0.426941
v -0.426941 -0.754732 -0.498098
v -0.189751 0.637329 -0.260908
v -0.332065 0.637329 -0.260908
v -0.260908 0.637329 -0.189751
v -0.260908 0.637329 -0.332065
v -0.332065 0.637329 -0.260908
v -0.260908 0.637329 -0.189752
v -0.498098 -0.754732 -0.426941
v -0.426941 -0.754732 -0.355784
v -0.274704 0.471947 -0.215406
v -0.077087 0.637330 -0.136384
v -0.136384 0.637330 -0.077087
v -0.215406 0.471947 -0.274704
v -0.136384 0.637330 -0.077087
v -0.077087 0.637330 -0.136384
v -0.274704 0.471947 -0.215406
v -0.215406 0.471947 -0.274704
v -0.215406 0.471947 -0.274704
v -0.254979 0.637330 -0.195681
v -0.195681 0.637330 -0.254979
v -0.274704 0.471947 -0.215406
v -0.195681 0.637330 -0.254979
v -0.254979 0.637330 -0.195681
v -0.215406 0.471947 -0.274704
v -0.274704 0.471947 -0.215406
v -0.215406 0.471947 -0.274704
v -0.077087 0.637330 -0.136384
v -0.195681 0.637330 -0.254979
vt 0.012000 2.141734
vt 0.012000 0.037423
vt -0.012000 2.141734
vt -0.012000 0.037423
vt 0.047131 0.206179
vt 0.018847 0.029402
vt 0.032989 0.294567
vt 0.004704 0.117791
vt -0.016653 0.246518
vt -0.056653 0.246518
vt -0.010000 0.000000
vt -0.012000 2.141734
vt 0.012000 0.037423
vt 0.012000 2.141734
vt -0.012000 0.037423
vt -0.016971 -0.000000
vt -0.016971 0.212132
vt -0.033941 0.106066
vt -0.000000 0.106066
vt -0.036000 0.000000
vt -0.068000 2.075000
vt -0.092000 2.075000
vt -0.012000 0.000000
vt 0.012000 -0.000000
vt 0.092000 2.075000
vt 0.068000 2.075000
vt 0.036000 -0.000000
vt 0.073539 0.353553
vt 0.056569 0.247487
vt 0.056569 0.459619
vt 0.039598 0.353553
vt 0.056653 0.246518
vt 0.016653 0.246518
vt 0.010000 0.000000
vt 0.010000 0.000000
vt 0.016653 0.246518
vt 0.056653 0.246518
vt 0.032989 0.294567
vt 0.018847 0.029402
vt 0.047131 0.206179
vt 0.004704 0.117791
vt -0.012000 2.116785
vt 0.012000 2.116785
vt -0.012000 0.012474
vt 0.012000 0.012474
vt -0.012000 0.012474
vt 0.012000 2.116785
vt -0.012000 2.116785
vt 0.012000 0.012474
vt -0.092000 2.075000
vt -0.068000 2.075000
vt -0.036000 0.000000
vt -0.012000 0.000000
vt -0.033941 0.106066
vt -0.016971 0.212132
vt -0.016971 -0.000000
vt -0.000000 0.106066
vt 0.056569 0.459619
vt 0.056569 0.247487
vt 0.073539 0.353553
vt 0.039598 0.353553
vt 0.068000 2.075000
vt 0.092000 2.075000
vt 0.012000 -0.000000
vt 0.036000 -0.000000
vt -0.010000 0.047728
vt 0.010000 0.429554
vt -0.010000 0.429554
vt 0.010000 0.047728
vt -0.010000 0.429554
vt 0.010000 0.429554
vt -0.010000 0.047728
vt 0.010000 0.047728
vt -0.010000 0.010395
vt 0.010000 0.260395
vt -0.010000 0.260395
vt 0.010000 0.010395
vt -0.010000 0.260395
vt 0.010000 0.260395
vt -0.010000 0.010395
vt 0.010000 0.010395
vt -0.010000 0.000000
vt -0.056653 0.246518
vt -0.016653 0.246518
vn -0.6973 0.1663 -0.6973
vn -0.0000 -1.0000 0.0000
vn 0.7071 -0.0000 -0.7071
vn 0.6973 -0.1663 0.6973
vn -0.7071 -0.0000 0.7071
vn 0.0000 1.0000 0.0000
vn 0.4565 -0.7636 0.4565
vn -0.4565 0.7636 -0.4565
usemtl material_0.144
s 1
f 1/1/1 2/2/1 3/3/1
f 4/4/1 3/3/1 2/2/1
f 5/5/2 6/6/2 7/7/2
f 8/8/2 7/7/2 6/6/2
f 9/9/3 10/10/3 11/11/3
f 12/12/4 13/13/4 14/14/4
f 13/13/4 12/12/4 15/15/4
f 16/16/2 17/17/2 18/18/2
f 17/17/2 16/16/2 19/19/2
f 20/20/3 21/21/3 22/22/3
f 21/21/3 20/20/3 23/23/3
f 24/24/5 25/25/5 26/26/5
f 25/25/5 24/24/5 27/27/5
f 28/28/2 29/29/2 30/30/2
f 31/31/2 30/30/2 29/29/2
f 32/32/5 33/33/5 34/34/5
f 35/35/3 36/36/3 37/37/3
f 38/38/6 39/39/6 40/40/6
f 39/39/6 38/38/6 41/41/6
f 42/42/4 43/43/4 44/44/4
f 45/45/4 44/44/4 43/43/4
f 46/46/1 47/47/1 48/48/1
f 47/47/1 46/46/1 49/49/1
f 50/50/5 51/51/5 52/52/5
f 53/53/5 52/52/5 51/51/5
f 54/54/6 55/55/6 56/56/6
f 57/57/6 56/56/6 55/55/6
f 58/58/6 59/59/6 60/60/6
f 59/59/6 58/58/6 61/61/6
f 62/62/3 63/63/3 64/64/3
f 65/65/3 64/64/3 63/63/3
f 66/66/7 67/67/7 68/68/7
f 67/67/7 66/66/7 69/69/7
f 70/70/8 71/71/8 72/72/8
f 73/73/8 72/72/8 71/71/8
f 74/74/1 75/75/1 76/76/1
f 75/75/1 74/74/1 77/77/1
f 78/78/4 79/79/4 80/80/4
f 81/81/4 80/80/4 79/79/4
f 82/82/5 83/83/5 84/84/5