# Blender v3.0.1 OBJ File: ''
# www.blender.org
mtllib 01.mtl
o model.007_model.027
v -0.457527 0.520634 -0.642904
v 0.462786 -0.320795 -0.642904
v 0.462786 0.520634 -0.642904
v -0.457527 -0.320795 -0.642904
v -0.457527 -0.320795 -0.642904
v -0.457527 0.520634 -0.642904
v 0.462786 -0.320795 -0.642904
v 0.462786 0.520634 -0.642904
v -0.457527 0.520634 -0.642904
v -0.457527 -0.320795 -0.684976
v -0.457527 -0.320795 -0.642904
v -0.457527 0.520634 -0.684976
v -0.457527 -0.320795 -0.684976
v 0.462786 -0.320795 -0.642904
v -0.457527 -0.320795 -0.642904
v 0.462786 -0.320795 -0.684976
v 0.462786 0.520634 -0.684976
v 0.462786 -0.320795 -0.642904
v 0.462786 -0.320795 -0.684976
v 0.462786 0.520634 -0.642904
v 0.462786 0.520634 -0.684976
v -0.457527 0.520634 -0.642904
v 0.462786 0.520634 -0.642904
v -0.457527 0.520634 -0.684976
v -0.457527 -0.320795 -0.684976
v 0.462786 0.520634 -0.684976
v 0.462786 -0.320795 -0.684976
v -0.457527 0.520634 -0.684976
v -0.457527 0.520634 -0.684976
v -0.457527 0.520634 -0.642904
v -0.457527 -0.320795 -0.684976
v -0.457527 -0.320795 -0.642904
v 0.462786 -0.320795 -0.684976
v -0.457527 -0.320795 -0.684976
v 0.462786 -0.320795 -0.642904
v -0.457527 -0.320795 -0.642904
v 0.462786 0.520634 -0.642904
v 0.462786 0.520634 -0.684976
v 0.462786 -0.320795 -0.642904
v 0.462786 -0.320795 -0.684976
v -0.457527 0.520634 -0.684976
v 0.462786 0.520634 -0.684976
v -0.457527 0.520634 -0.642904
v 0.462786 0.520634 -0.642904
v -0.457527 0.520634 -0.684976
v -0.457527 -0.320795 -0.684976
v 0.462786 0.520634 -0.684976
v 0.462786 -0.320795 -0.684976
vt 0.000000 0.000000
vt 0.000000 0.000000
vt 0.000000 0.000000
vt 0.000000 0.000000
vt 0.000000 0.000000
vt 0.000000 0.000000
vt 0.000000 0.000000
vt 0.000000 0.000000
vt 0.000000 0.000000
vt 0.000000 0.000000
vt 0.000000 0.000000
vt 0.000000 0.000000
vt 0.000000 0.000000
vt 0.000000 0.000000
vt 0.000000 0.000000
vt 0.000000 0.000000
vt 0.000000 0.000000
vt 0.000000 0.000000
vt 0.000000 0.000000
vt 0.000000 0.000000
vt 0.000000 0.000000
vt 0.000000 0.000000
vt 0.000000 0.000000
vt 0.000000 0.000000
vt 0.000000 0.000000
vt 0.000000 0.000000
vt 0.000000 0.000000
vt 0.000000 0.000000
vt 0.000000 0.000000
vt 0.000000 0.000000
vt 0.000000 0.000000
vt 0.000000 0.000000
vt 0.000000 0.000000
vt 0.000000 0.000000
vt 0.000000 0.000000
vt 0.000000 0.000000
vt 0.000000 0.000000
vt 0.000000 0.000000
vt 0.000000 0.000000
vt 0.000000 0.000000
vt 0.000000 0.000000
vt 0.000000 0.000000
vt 0.000000 0.000000
vt 0.000000 0.000000
vt 0.000000 0.000000
vt 0.000000 0.000000
vt 0.000000 0.000000
vt 0.000000 0.000000
vn 0.0000 -0.0000 1.0000
vn 0.0000 0.0000 -1.0000
vn -1.0000 0.0000 0.0000
vn 0.0000 -1.0000 0.0000
vn 1.0000 0.0000 0.0000
vn 0.0000 1.0000 0.0000
usemtl material_0.049
s 1
f 1/1/1 2/2/1 3/3/1
f 2/2/1 1/1/1 4/4/1
f 5/5/2 6/6/2 7/7/2
f 8/8/2 7/7/2 6/6/2
f 9/9/3 10/10/3 11/11/3
f 10/10/3 9/9/3 12/12/3
f 13/13/4 14/14/4 15/15/4
f 14/14/4 13/13/4 16/16/4
f 17/17/5 18/18/5 19/19/5
f 18/18/5 17/17/5 20/20/5
f 21/21/6 22/22/6 23/23/6
f 22/22/6 21/21/6 24/24/6
f 25/25/2 26/26/2 27/27/2
f 26/26/2 25/25/2 28/28/2
f 29/29/5 30/30/5 31/31/5
f 32/32/5 31/31/5 30/30/5
f 33/33/6 34/34/6 35/35/6
f 36/36/6 35/35/6 34/34/6
f 37/37/3 38/38/3 39/39/3
f 40/40/3 39/39/3 38/38/3
f 41/41/4 42/42/4 43/43/4
f 44/44/4 43/43/4 42/42/4
f 45/45/1 46/46/1 47/47/1
f 48/48/1 47/47/1 46/46/1