# Blender v3.0.1 OBJ File: ''
# www.blender.org
mtllib 04.mtl
o model.010_model.030
v -0.415456 0.120955 -0.232708
v 0.462786 0.120955 0.608721
v 0.462786 0.120955 -0.232708
v -0.415456 0.120955 0.608721
v -0.415456 0.078884 0.608721
v 0.462786 0.078884 -0.232708
v 0.462786 0.078884 0.608721
v -0.415456 0.078884 -0.232708
v -0.415456 0.120955 0.608721
v -0.415456 0.120955 -0.232708
v 0.462786 0.120955 0.608721
v 0.462786 0.120955 -0.232708
v -0.415456 0.078884 -0.232708
v -0.415456 0.078884 0.608721
v 0.462786 0.078884 -0.232708
v 0.462786 0.078884 0.608721
v 0.462786 0.078884 -0.232708
v 0.462786 0.120955 0.608721
v 0.462786 0.078884 0.608721
v 0.462786 0.120955 -0.232708
v -0.415456 0.078884 -0.232708
v -0.415456 0.120955 -0.232708
v -0.415456 0.078884 0.608721
v -0.415456 0.120955 0.608721
v 0.462786 0.078884 0.608721
v -0.415456 0.078884 0.608721
v 0.462786 0.120955 0.608721
v -0.415456 0.120955 0.608721
v 0.462786 0.120955 -0.232708
v 0.462786 0.078884 -0.232708
v 0.462786 0.120955 0.608721
v 0.462786 0.078884 0.608721
v -0.415456 0.078884 -0.232708
v 0.462786 0.078884 -0.232708
v -0.415456 0.120955 -0.232708
v 0.462786 0.120955 -0.232708
v -0.415456 0.120955 -0.232708
v -0.415456 0.078884 0.608721
v -0.415456 0.120955 0.608721
v -0.415456 0.078884 -0.232708
v -0.415456 0.078884 0.608721
v 0.462786 0.120955 0.608721
v -0.415456 0.120955 0.608721
v 0.462786 0.078884 0.608721
v 0.462786 0.078884 -0.232708
v -0.415456 0.120955 -0.232708
v 0.462786 0.120955 -0.232708
v -0.415456 0.078884 -0.232708
vt 0.000000 0.000000
vt 0.000000 0.000000
vt 0.000000 0.000000
vt 0.000000 0.000000
vt 0.000000 0.000000
vt 0.000000 0.000000
vt 0.000000 0.000000
vt 0.000000 0.000000
vt 0.000000 0.000000
vt 0.000000 0.000000
vt 0.000000 0.000000
vt 0.000000 0.000000
vt 0.000000 0.000000
vt 0.000000 0.000000
vt 0.000000 0.000000
vt 0.000000 0.000000
vt 0.000000 0.000000
vt 0.000000 0.000000
vt 0.000000 0.000000
vt 0.000000 0.000000
vt 0.000000 0.000000
vt 0.000000 0.000000
vt 0.000000 0.000000
vt 0.000000 0.000000
vt 0.000000 0.000000
vt 0.000000 0.000000
vt 0.000000 0.000000
vt 0.000000 0.000000
vt 0.000000 0.000000
vt 0.000000 0.000000
vt 0.000000 0.000000
vt 0.000000 0.000000
vt 0.000000 0.000000
vt 0.000000 0.000000
vt 0.000000 0.000000
vt 0.000000 0.000000
vt 0.000000 0.000000
vt 0.000000 0.000000
vt 0.000000 0.000000
vt 0.000000 0.000000
vt 0.000000 0.000000
vt 0.000000 0.000000
vt 0.000000 0.000000
vt 0.000000 0.000000
vt 0.000000 0.000000
vt 0.000000 0.000000
vt 0.000000 0.000000
vt 0.000000 0.000000
vn 0.0000 1.0000 0.0000
vn 0.0000 -1.0000 -0.0000
vn 1.0000 0.0000 0.0000
vn 0.0000 0.0000 -1.0000
vn -1.0000 0.0000 0.0000
vn 0.0000 0.0000 1.0000
usemtl material_0.047
s 1
f 1/1/1 2/2/1 3/3/1
f 2/2/1 1/1/1 4/4/1
f 5/5/2 6/6/2 7/7/2
f 6/6/2 5/5/2 8/8/2
f 9/9/2 10/10/2 11/11/2
f 12/12/2 11/11/2 10/10/2
f 13/13/1 14/14/1 15/15/1
f 16/16/1 15/15/1 14/14/1
f 17/17/3 18/18/3 19/19/3
f 18/18/3 17/17/3 20/20/3
f 21/21/3 22/22/3 23/23/3
f 24/24/3 23/23/3 22/22/3
f 25/25/4 26/26/4 27/27/4
f 28/28/4 27/27/4 26/26/4
f 29/29/5 30/30/5 31/31/5
f 32/32/5 31/31/5 30/30/5
f 33/33/6 34/34/6 35/35/6
f 36/36/6 35/35/6 34/34/6
f 37/37/5 38/38/5 39/39/5
f 38/38/5 37/37/5 40/40/5
f 41/41/6 42/42/6 43/43/6
f 42/42/6 41/41/6 44/44/6
f 45/45/4 46/46/4 47/47/4
f 46/46/4 45/45/4 48/48/4