# Blender v3.0.1 OBJ File: ''
# www.blender.org
mtllib 06.mtl
o model.016_model.036
v 0.462786 0.520634 -0.274779
v -0.415456 0.520634 -0.232708
v 0.462786 0.520634 -0.232708
v -0.415456 0.520634 -0.274779
v -0.415456 0.520634 -0.274779
v 0.462786 0.520634 -0.274779
v -0.415456 0.520634 -0.232708
v 0.462786 0.520634 -0.232708
v -0.415456 0.520634 -0.232708
v 0.462786 -0.320795 -0.232708
v 0.462786 0.520634 -0.232708
v -0.415456 -0.320795 -0.232708
v -0.415456 -0.320795 -0.274779
v 0.462786 -0.320795 -0.232708
v -0.415456 -0.320795 -0.232708
v 0.462786 -0.320795 -0.274779
v 0.462786 0.520634 -0.274779
v 0.462786 -0.320795 -0.232708
v 0.462786 -0.320795 -0.274779
v 0.462786 0.520634 -0.232708
v -0.415456 -0.320795 -0.274779
v 0.462786 0.520634 -0.274779
v 0.462786 -0.320795 -0.274779
v -0.415456 0.520634 -0.274779
v -0.415456 -0.320795 -0.232708
v -0.415456 0.520634 -0.232708
v 0.462786 -0.320795 -0.232708
v 0.462786 0.520634 -0.232708
v 0.462786 -0.320795 -0.274779
v -0.415456 -0.320795 -0.274779
v 0.462786 -0.320795 -0.232708
v -0.415456 -0.320795 -0.232708
v 0.462786 0.520634 -0.232708
v 0.462786 0.520634 -0.274779
v 0.462786 -0.320795 -0.232708
v 0.462786 -0.320795 -0.274779
v -0.415456 0.520634 -0.274779
v -0.415456 -0.320795 -0.274779
v 0.462786 0.520634 -0.274779
v 0.462786 -0.320795 -0.274779
vt 0.000000 0.000000
vt 0.000000 0.000000
vt 0.000000 0.000000
vt 0.000000 0.000000
vt 0.000000 0.000000
vt 0.000000 0.000000
vt 0.000000 0.000000
vt 0.000000 0.000000
vt 0.000000 0.000000
vt 0.000000 0.000000
vt 0.000000 0.000000
vt 0.000000 0.000000
vt 0.000000 0.000000
vt 0.000000 0.000000
vt 0.000000 0.000000
vt 0.000000 0.000000
vt 0.000000 0.000000
vt 0.000000 0.000000
vt 0.000000 0.000000
vt 0.000000 0.000000
vt 0.000000 0.000000
vt 0.000000 0.000000
vt 0.000000 0.000000
vt 0.000000 0.000000
vt 0.000000 0.000000
vt 0.000000 0.000000
vt 0.000000 0.000000
vt 0.000000 0.000000
vt 0.000000 0.000000
vt 0.000000 0.000000
vt 0.000000 0.000000
vt 0.000000 0.000000
vt 0.000000 0.000000
vt 0.000000 0.000000
vt 0.000000 0.000000
vt 0.000000 0.000000
vt 0.000000 0.000000
vt 0.000000 0.000000
vt 0.000000 0.000000
vt 0.000000 0.000000
vn 0.0000 1.0000 0.0000
vn 0.0000 -1.0000 0.0000
vn 0.0000 -0.0000 1.0000
vn 1.0000 0.0000 0.0000
vn 0.0000 0.0000 -1.0000
vn -1.0000 0.0000 0.0000
usemtl material_0.046
s 1
f 1/1/1 2/2/1 3/3/1
f 2/2/1 1/1/1 4/4/1
f 5/5/2 6/6/2 7/7/2
f 8/8/2 7/7/2 6/6/2
f 9/9/3 10/10/3 11/11/3
f 10/10/3 9/9/3 12/12/3
f 13/13/2 14/14/2 15/15/2
f 14/14/2 13/13/2 16/16/2
f 17/17/4 18/18/4 19/19/4
f 18/18/4 17/17/4 20/20/4
f 21/21/5 22/22/5 23/23/5
f 22/22/5 21/21/5 24/24/5
f 25/25/5 26/26/5 27/27/5
f 28/28/5 27/27/5 26/26/5
f 29/29/1 30/30/1 31/31/1
f 32/32/1 31/31/1 30/30/1
f 33/33/6 34/34/6 35/35/6
f 36/36/6 35/35/6 34/34/6
f 37/37/3 38/38/3 39/39/3
f 40/40/3 39/39/3 38/38/3