# Blender v3.0.1 OBJ File: ''
# www.blender.org
mtllib 10.mtl
o model.004_model.042
v 0.374699 -0.562706 -0.550873
v 0.386609 -0.362866 -0.552441
v 0.374699 -0.362866 -0.550873
v 0.386609 -0.562706 -0.552441
v 0.386609 -0.562706 -0.552441
v 0.374699 -0.562706 -0.550873
v 0.386609 -0.362866 -0.552441
v 0.374699 -0.362866 -0.550873
v 0.397707 -0.362866 -0.557038
v 0.397707 -0.562706 -0.557038
v 0.397707 -0.562706 -0.557038
v 0.397707 -0.362866 -0.557038
v 0.407237 -0.362866 -0.564351
v 0.407237 -0.562706 -0.564351
v 0.407237 -0.562706 -0.564351
v 0.407237 -0.362866 -0.564351
v 0.414550 -0.562706 -0.573881
v 0.414550 -0.362866 -0.573881
v 0.414550 -0.362866 -0.573881
v 0.414550 -0.562706 -0.573881
v 0.419147 -0.562706 -0.584979
v 0.419147 -0.362866 -0.584979
v 0.419147 -0.362866 -0.584979
v 0.419147 -0.562706 -0.584979
v 0.420714 -0.562706 -0.596889
v 0.420714 -0.362866 -0.596889
v 0.420714 -0.362866 -0.596889
v 0.420714 -0.562706 -0.596889
v 0.419147 -0.562706 -0.608799
v 0.419147 -0.362866 -0.608799
v 0.419147 -0.362866 -0.608799
v 0.419147 -0.562706 -0.608799
v 0.414550 -0.562706 -0.619897
v 0.414550 -0.362866 -0.619897
v 0.414550 -0.362866 -0.619897
v 0.414550 -0.562706 -0.619897
v 0.407237 -0.562706 -0.629427
v 0.407237 -0.362866 -0.629427
v 0.407237 -0.362866 -0.629427
v 0.407237 -0.562706 -0.629427
v 0.397707 -0.362866 -0.636739
v 0.397707 -0.562706 -0.636739
v 0.397707 -0.562706 -0.636739
v 0.397707 -0.362866 -0.636739
v 0.386609 -0.362866 -0.641337
v 0.386609 -0.562706 -0.641337
v 0.386609 -0.562706 -0.641337
v 0.386609 -0.362866 -0.641337
v 0.374699 -0.362866 -0.642904
v 0.374699 -0.562706 -0.642904
v 0.374699 -0.562706 -0.642904
v 0.374699 -0.362866 -0.642904
v 0.362789 -0.362866 -0.641337
v 0.362789 -0.562706 -0.641337
v 0.362789 -0.562706 -0.641337
v 0.362789 -0.362866 -0.641337
v 0.351691 -0.362866 -0.636739
v 0.351691 -0.562706 -0.636739
v 0.351691 -0.562706 -0.636739
v 0.351691 -0.362866 -0.636739
v 0.342161 -0.362866 -0.629427
v 0.342161 -0.562706 -0.629427
v 0.342161 -0.562706 -0.629427
v 0.342161 -0.362866 -0.629427
v 0.334848 -0.562706 -0.619897
v 0.334848 -0.362866 -0.619897
v 0.334848 -0.562706 -0.619897
v 0.334848 -0.362866 -0.619897
v 0.330251 -0.562706 -0.608799
v 0.330251 -0.362866 -0.608799
v 0.330251 -0.562706 -0.608799
v 0.330251 -0.362866 -0.608799
v 0.328683 -0.562706 -0.596889
v 0.328683 -0.362866 -0.596889
v 0.328683 -0.562706 -0.596889
v 0.328683 -0.362866 -0.596889
v 0.330251 -0.562706 -0.584979
v 0.330251 -0.362866 -0.584979
v 0.330251 -0.562706 -0.584979
v 0.330251 -0.362866 -0.584979
v 0.334848 -0.562706 -0.573881
v 0.334848 -0.362866 -0.573881
v 0.334848 -0.562706 -0.573881
v 0.334848 -0.362866 -0.573881
v 0.342161 -0.562706 -0.564351
v 0.342161 -0.362866 -0.564351
v 0.342161 -0.562706 -0.564351
v 0.342161 -0.362866 -0.564351
v 0.351691 -0.362866 -0.557038
v 0.351691 -0.562706 -0.557038
v 0.351691 -0.562706 -0.557038
v 0.351691 -0.362866 -0.557038
v 0.362789 -0.362866 -0.552441
v 0.362789 -0.562706 -0.552441
v 0.362789 -0.562706 -0.552441
v 0.362789 -0.362866 -0.552441
v 0.419147 -0.562706 -0.584979
v 0.419147 -0.562706 -0.608799
v 0.420714 -0.562706 -0.596889
v 0.414550 -0.562706 -0.573881
v 0.414550 -0.562706 -0.619897
v 0.407237 -0.562706 -0.564351
v 0.407237 -0.562706 -0.629427
v 0.397707 -0.562706 -0.557038
v 0.397707 -0.562706 -0.636739
v 0.386609 -0.562706 -0.552441
v 0.386609 -0.562706 -0.641337
v 0.374699 -0.562706 -0.550873
v 0.374699 -0.562706 -0.642904
v 0.362789 -0.562706 -0.552441
v 0.362789 -0.562706 -0.641337
v 0.351691 -0.562706 -0.557038
v 0.351691 -0.562706 -0.636739
v 0.342161 -0.562706 -0.564351
v 0.342161 -0.562706 -0.629427
v 0.334848 -0.562706 -0.573881
v 0.334848 -0.562706 -0.619897
v 0.330251 -0.562706 -0.584979
v 0.330251 -0.562706 -0.608799
v 0.328683 -0.562706 -0.596889
v 0.328683 -0.562706 -0.596889
v 0.330251 -0.562706 -0.584979
v 0.330251 -0.562706 -0.608799
v 0.334848 -0.562706 -0.619897
v 0.334848 -0.562706 -0.573881
v 0.342161 -0.562706 -0.629427
v 0.342161 -0.562706 -0.564351
v 0.351691 -0.562706 -0.636739
v 0.351691 -0.562706 -0.557038
v 0.362789 -0.562706 -0.641337
v 0.362789 -0.562706 -0.552441
v 0.374699 -0.562706 -0.642904
v 0.374699 -0.562706 -0.550873
v 0.386609 -0.562706 -0.641337
v 0.386609 -0.562706 -0.552441
v 0.397707 -0.562706 -0.636739
v 0.397707 -0.562706 -0.557038
v 0.407237 -0.562706 -0.629427
v 0.407237 -0.562706 -0.564351
v 0.414550 -0.562706 -0.619897
v 0.414550 -0.562706 -0.573881
v 0.419147 -0.562706 -0.608799
v 0.419147 -0.562706 -0.584979
v 0.420714 -0.562706 -0.596889
vt 0.034701 0.304000
vt 0.025564 0.000000
vt 0.034701 0.000000
vt 0.025564 0.304000
vt 0.025564 0.304000
vt 0.034701 0.304000
vt 0.025564 0.000000
vt 0.034701 0.000000
vt 0.023510 0.304000
vt 0.014373 0.000000
vt 0.023510 0.000000
vt 0.014373 0.304000
vt 0.014373 0.304000
vt 0.023510 0.304000
vt 0.014373 0.000000
vt 0.023510 0.000000
vt 0.011029 0.304000
vt 0.001892 0.000000
vt 0.011029 0.000000
vt 0.001892 0.304000
vt 0.001892 0.304000
vt 0.011029 0.304000
vt 0.001892 0.000000
vt 0.011029 0.000000
vt -0.011029 0.304000
vt -0.001892 0.000000
vt -0.001892 0.304000
vt -0.011029 0.000000
vt -0.011029 0.000000
vt -0.011029 0.304000
vt -0.001892 0.000000
vt -0.001892 0.304000
vt -0.023510 0.304000
vt -0.014373 0.000000
vt -0.014373 0.304000
vt -0.023510 0.000000
vt -0.023510 0.000000
vt -0.023510 0.304000
vt -0.014373 0.000000
vt -0.014373 0.304000
vt -0.034701 0.304000
vt -0.025564 0.000000
vt -0.025564 0.304000
vt -0.034701 0.000000
vt -0.034701 0.000000
vt -0.034701 0.304000
vt -0.025564 0.000000
vt -0.025564 0.304000
vt -0.043837 0.304000
vt -0.043837 0.000000
vt -0.043837 0.000000
vt -0.043837 0.304000
vt -0.050298 0.304000
vt -0.041161 0.000000
vt -0.041161 0.304000
vt -0.050298 0.000000
vt -0.050298 0.000000
vt -0.050298 0.304000
vt -0.041161 0.000000
vt -0.041161 0.304000
vt -0.053642 0.304000
vt -0.044506 0.000000
vt -0.044506 0.304000
vt -0.053642 0.000000
vt -0.053642 0.000000
vt -0.053642 0.304000
vt -0.044506 0.000000
vt -0.044506 0.304000
vt -0.044506 0.304000
vt -0.053642 0.000000
vt -0.044506 0.000000
vt -0.053642 0.304000
vt -0.053642 0.304000
vt -0.044506 0.304000
vt -0.053642 0.000000
vt -0.044506 0.000000
vt -0.041161 0.304000
vt -0.050298 0.000000
vt -0.041161 0.000000
vt -0.050298 0.304000
vt -0.050298 0.304000
vt -0.041161 0.304000
vt -0.050298 0.000000
vt -0.041161 0.000000
vt -0.034701 0.304000
vt -0.043837 0.000000
vt -0.034701 0.000000
vt -0.043837 0.304000
vt -0.043837 0.304000
vt -0.034701 0.304000
vt -0.043837 0.000000
vt -0.034701 0.000000
vt -0.025564 0.304000
vt -0.034701 0.000000
vt -0.025564 0.000000
vt -0.034701 0.304000
vt -0.034701 0.304000
vt -0.025564 0.304000
vt -0.034701 0.000000
vt -0.025564 0.000000
vt -0.014373 0.304000
vt -0.023510 0.000000
vt -0.014373 0.000000
vt -0.023510 0.304000
vt -0.023510 0.304000
vt -0.014373 0.304000
vt -0.023510 0.000000
vt -0.014373 0.000000
vt -0.001892 0.304000
vt -0.011029 0.000000
vt -0.001892 0.000000
vt -0.011029 0.304000
vt -0.011029 0.304000
vt -0.001892 0.304000
vt -0.011029 0.000000
vt -0.001892 0.000000
vt 0.011029 0.000000
vt 0.001892 0.304000
vt 0.001892 0.000000
vt 0.011029 0.304000
vt 0.011029 0.304000
vt 0.011029 0.000000
vt 0.001892 0.304000
vt 0.001892 0.000000
vt 0.023510 0.000000
vt 0.014373 0.304000
vt 0.014373 0.000000
vt 0.023510 0.304000
vt 0.023510 0.304000
vt 0.023510 0.000000
vt 0.014373 0.304000
vt 0.014373 0.000000
vt 0.034701 0.000000
vt 0.025564 0.304000
vt 0.025564 0.000000
vt 0.034701 0.304000
vt 0.034701 0.304000
vt 0.034701 0.000000
vt 0.025564 0.304000
vt 0.025564 0.000000
vt 0.043837 0.000000
vt 0.034701 0.304000
vt 0.034701 0.000000
vt 0.043837 0.304000
vt 0.043837 0.304000
vt 0.043837 0.000000
vt 0.034701 0.304000
vt 0.034701 0.000000
vt 0.050298 0.000000
vt 0.041161 0.304000
vt 0.041161 0.000000
vt 0.050298 0.304000
vt 0.050298 0.304000
vt 0.050298 0.000000
vt 0.041161 0.304000
vt 0.041161 0.000000
vt 0.053642 0.000000
vt 0.044506 0.304000
vt 0.044506 0.000000
vt 0.053642 0.304000
vt 0.053642 0.304000
vt 0.053642 0.000000
vt 0.044506 0.304000
vt 0.044506 0.000000
vt 0.053642 0.304000
vt 0.044506 0.000000
vt 0.053642 0.000000
vt 0.044506 0.304000
vt 0.044506 0.304000
vt 0.053642 0.304000
vt 0.044506 0.000000
vt 0.053642 0.000000
vt 0.050298 0.304000
vt 0.041161 0.000000
vt 0.050298 0.000000
vt 0.041161 0.304000
vt 0.041161 0.304000
vt 0.050298 0.304000
vt 0.041161 0.000000
vt 0.050298 0.000000
vt 0.043837 0.304000
vt 0.043837 0.000000
vt 0.043837 0.304000
vt 0.043837 0.000000
vt 0.001193 0.051883
vt 0.001193 0.088117
vt 0.000000 0.070000
vt 0.004689 0.035000
vt 0.004689 0.105000
vt 0.010251 0.020503
vt 0.010251 0.119498
vt 0.017500 0.009378
vt 0.017500 0.130622
vt 0.025941 0.002385
vt 0.025941 0.137615
vt 0.035000 0.000000
vt 0.035000 0.140000
vt 0.044059 0.002385
vt 0.044059 0.137615
vt 0.052500 0.009378
vt 0.052500 0.130622
vt 0.059749 0.020503
vt 0.059749 0.119498
vt 0.065311 0.035000
vt 0.065311 0.105000
vt 0.068807 0.051883
vt 0.068807 0.088117
vt 0.070000 0.070000
vt 0.070000 0.070000
vt 0.068807 0.051883
vt 0.068807 0.088117
vt 0.065311 0.105000
vt 0.065311 0.035000
vt 0.059749 0.119498
vt 0.059749 0.020503
vt 0.052500 0.130622
vt 0.052500 0.009378
vt 0.044059 0.137615
vt 0.044059 0.002385
vt 0.035000 0.140000
vt 0.035000 0.000000
vt 0.025941 0.137615
vt 0.025941 0.002385
vt 0.017500 0.130622
vt 0.017500 0.009378
vt 0.010251 0.119498
vt 0.010251 0.020503
vt 0.004689 0.105000
vt 0.004689 0.035000
vt 0.001193 0.088117
vt 0.001193 0.051883
vt 0.000000 0.070000
vn 0.0438 -0.0000 0.9990
vn 0.2162 -0.0000 0.9763
vn -0.0438 -0.0000 0.9990
vn 0.3009 -0.0000 0.9537
vn -0.3009 0.0000 -0.9536
vn -0.0439 0.0000 -0.9990
vn -0.2162 0.0000 -0.9763
vn 0.0439 0.0000 -0.9990
vn 0.4616 -0.0000 0.8871
vn 0.5375 -0.0000 0.8433
vn -0.5375 0.0000 -0.8433
vn -0.4615 0.0000 -0.8871
vn 0.7071 -0.0000 0.7071
vn -0.7071 0.0000 -0.7071
vn 0.8433 -0.0000 0.5375
vn 0.8871 -0.0000 0.4616
vn -0.8871 -0.0000 -0.4615
vn -0.8433 -0.0000 -0.5375
vn 0.9537 0.0000 0.3009
vn 0.9764 -0.0000 0.2162
vn -0.9763 -0.0000 -0.2162
vn -0.9536 0.0000 -0.3009
vn 0.9990 0.0000 0.0438
vn 0.9990 0.0000 -0.0438
vn -0.9990 0.0000 0.0438
vn -0.9990 0.0000 -0.0438
vn 0.9764 0.0000 -0.2162
vn 0.9537 0.0000 -0.3009
vn -0.9536 -0.0000 0.3009
vn -0.9763 -0.0000 0.2162
vn 0.8871 0.0000 -0.4616
vn 0.8433 -0.0000 -0.5375
vn -0.8433 0.0000 0.5375
vn -0.8871 0.0000 0.4615
vn 0.7071 0.0000 -0.7071
vn -0.7071 -0.0000 0.7071
vn 0.5375 0.0000 -0.8433
vn 0.4616 0.0000 -0.8871
vn -0.4615 -0.0000 0.8871
vn -0.5375 -0.0000 0.8433
vn 0.3009 0.0000 -0.9537
vn 0.2162 0.0000 -0.9763
vn -0.2162 -0.0000 0.9763
vn -0.3009 -0.0000 0.9536
vn 0.0438 0.0000 -0.9990
vn -0.0438 0.0000 -0.9990
vn -0.3009 0.0000 -0.9537
vn 0.3009 -0.0000 0.9536
vn -0.4616 0.0000 -0.8871
vn 0.4615 -0.0000 0.8871
vn -0.8871 0.0000 -0.4616
vn 0.8871 0.0000 0.4615
vn -0.9537 -0.0000 -0.3009
vn 0.9536 -0.0000 0.3009
vn 0.9763 -0.0000 0.2162
vn -0.9764 -0.0000 0.2162
vn -0.9537 -0.0000 0.3009
vn 0.9763 -0.0000 -0.2162
vn 0.9536 -0.0000 -0.3009
vn -0.8871 0.0000 0.4616
vn 0.8871 0.0000 -0.4615
vn -0.4616 -0.0000 0.8871
vn 0.4615 0.0000 -0.8871
vn -0.3009 -0.0000 0.9537
vn 0.3009 0.0000 -0.9536
vn 0.0000 -1.0000 0.0000
vn 0.0000 1.0000 0.0000
usemtl material_1.003
s 1
f 1/1/1 2/2/2 3/3/3
f 2/2/2 1/1/1 4/4/4
f 5/5/5 6/6/6 7/7/7
f 8/8/8 7/7/7 6/6/6
f 4/9/4 9/10/9 2/11/2
f 9/10/9 4/9/4 10/12/10
f 11/13/11 5/14/5 12/15/12
f 7/16/7 12/15/12 5/14/5
f 10/17/10 13/18/13 9/19/9
f 13/18/13 10/17/10 14/20/13
f 15/21/14 11/22/11 16/23/14
f 12/24/12 16/23/14 11/22/11
f 17/25/15 13/26/13 14/27/13
f 13/26/13 17/25/15 18/28/16
f 19/29/17 20/30/18 16/31/14
f 15/32/14 16/31/14 20/30/18
f 21/33/19 18/34/16 17/35/15
f 18/34/16 21/33/19 22/36/20
f 23/37/21 24/38/22 19/39/17
f 20/40/18 19/39/17 24/38/22
f 25/41/23 22/42/20 21/43/19
f 22/42/20 25/41/23 26/44/24
f 27/45/25 28/46/26 23/47/21
f 24/48/22 23/47/21 28/46/26
f 29/49/27 26/44/24 25/41/23
f 26/44/24 29/49/27 30/50/28
f 31/51/29 32/52/30 27/45/25
f 28/46/26 27/45/25 32/52/30
f 33/53/31 30/54/28 29/55/27
f 30/54/28 33/53/31 34/56/32
f 35/57/33 36/58/34 31/59/29
f 32/60/30 31/59/29 36/58/34
f 37/61/35 34/62/32 33/63/31
f 34/62/32 37/61/35 38/64/35
f 39/65/36 40/66/36 35/67/33
f 36/68/34 35/67/33 40/66/36
f 37/69/35 41/70/37 38/71/35
f 41/70/37 37/69/35 42/72/38
f 43/73/39 40/74/36 44/75/40
f 39/76/36 44/75/40 40/74/36
f 42/77/38 45/78/41 41/79/37
f 45/78/41 42/77/38 46/80/42
f 47/81/43 43/82/39 48/83/44
f 44/84/40 48/83/44 43/82/39
f 46/85/42 49/86/45 45/87/41
f 49/86/45 46/85/42 50/88/46
f 51/89/1 47/90/43 52/91/3
f 48/92/44 52/91/3 47/90/43
f 50/93/46 53/94/7 49/95/45
f 53/94/7 50/93/46 54/96/47
f 55/97/48 51/98/1 56/99/2
f 52/100/3 56/99/2 51/98/1
f 54/101/47 57/102/49 53/103/7
f 57/102/49 54/101/47 58/104/11
f 59/105/10 55/106/48 60/107/50
f 56/108/2 60/107/50 55/106/48
f 58/109/11 61/110/14 57/111/49
f 61/110/14 58/109/11 62/112/14
f 63/113/13 59/114/10 64/115/13
f 60/116/50 64/115/13 59/114/10
f 61/117/14 65/118/18 66/119/51
f 65/118/18 61/117/14 62/120/14
f 63/121/13 64/122/13 67/123/15
f 68/124/52 67/123/15 64/122/13
f 66/125/51 69/126/53 70/127/21
f 69/126/53 66/125/51 65/128/18
f 67/129/15 68/130/52 71/131/54
f 72/132/55 71/131/54 68/130/52
f 70/133/21 73/134/26 74/135/25
f 73/134/26 70/133/21 69/136/53
f 71/137/54 72/138/55 75/139/23
f 76/140/24 75/139/23 72/138/55
f 74/141/25 77/142/56 78/143/57
f 77/142/56 74/141/25 73/144/26
f 75/145/23 76/146/24 79/147/58
f 80/148/59 79/147/58 76/146/24
f 78/149/57 81/150/60 82/151/33
f 81/150/60 78/149/57 77/152/56
f 79/153/58 80/154/59 83/155/61
f 84/156/32 83/155/61 80/154/59
f 82/157/33 85/158/36 86/159/36
f 85/158/36 82/157/33 81/160/60
f 83/161/61 84/162/32 87/163/35
f 88/164/35 87/163/35 84/162/32
f 85/165/36 89/166/40 86/167/36
f 89/166/40 85/165/36 90/168/62
f 91/169/63 87/170/35 92/171/37
f 88/172/35 92/171/37 87/170/35
f 90/173/62 93/174/64 89/175/40
f 93/174/64 90/173/62 94/176/43
f 95/177/42 91/178/63 96/179/65
f 92/180/37 96/179/65 91/178/63
f 94/181/43 3/3/3 93/182/64
f 3/3/3 94/181/43 1/1/1
f 6/6/6 95/183/42 8/8/8
f 96/184/65 8/8/8 95/183/42
f 97/185/66 98/186/66 99/187/66
f 98/186/66 97/185/66 100/188/66
f 98/186/66 100/188/66 101/189/66
f 101/189/66 100/188/66 102/190/66
f 101/189/66 102/190/66 103/191/66
f 103/191/66 102/190/66 104/192/66
f 103/191/66 104/192/66 105/193/66
f 105/193/66 104/192/66 106/194/66
f 105/193/66 106/194/66 107/195/66
f 107/195/66 106/194/66 108/196/66
f 107/195/66 108/196/66 109/197/66
f 109/197/66 108/196/66 110/198/66
f 109/197/66 110/198/66 111/199/66
f 111/199/66 110/198/66 112/200/66
f 111/199/66 112/200/66 113/201/66
f 113/201/66 112/200/66 114/202/66
f 113/201/66 114/202/66 115/203/66
f 115/203/66 114/202/66 116/204/66
f 115/203/66 116/204/66 117/205/66
f 117/205/66 116/204/66 118/206/66
f 117/205/66 118/206/66 119/207/66
f 119/207/66 118/206/66 120/208/66
f 121/209/67 122/210/67 123/211/67
f 123/211/67 122/210/67 124/212/67
f 122/210/67 125/213/67 124/212/67
f 124/212/67 125/213/67 126/214/67
f 125/213/67 127/215/67 126/214/67
f 126/214/67 127/215/67 128/216/67
f 127/215/67 129/217/67 128/216/67
f 128/216/67 129/217/67 130/218/67
f 129/217/67 131/219/67 130/218/67
f 130/218/67 131/219/67 132/220/67
f 131/219/67 133/221/67 132/220/67
f 132/220/67 133/221/67 134/222/67
f 133/221/67 135/223/67 134/222/67
f 134/222/67 135/223/67 136/224/67
f 135/223/67 137/225/67 136/224/67
f 136/224/67 137/225/67 138/226/67
f 137/225/67 139/227/67 138/226/67
f 138/226/67 139/227/67 140/228/67
f 139/227/67 141/229/67 140/228/67
f 140/228/67 141/229/67 142/230/67
f 141/229/67 143/231/67 142/230/67
f 144/232/67 142/230/67 143/231/67