# Blender v3.0.1 OBJ File: ''
# www.blender.org
mtllib 03.mtl
o model.008_model.28570
v 0.574044 0.175087 -0.136109
v 0.584634 0.175087 -0.136456
v 0.574044 0.786523 -0.136109
v 0.574073 0.175087 -0.138330
v 0.574044 0.786523 -0.136109
v 0.574044 0.175087 -0.136109
v 0.573822 0.175087 -0.143811
v 0.574115 0.786523 -0.141609
v 0.574115 0.175087 -0.141609
v 0.572782 0.175087 -0.149198
v 0.573390 0.786523 -0.147062
v 0.573390 0.175087 -0.147062
v 0.570973 0.175087 -0.154378
v 0.571884 0.786523 -0.152353
v 0.571884 0.175087 -0.152353
v 0.568434 0.175087 -0.159243
v 0.569628 0.786523 -0.157370
v 0.569628 0.175087 -0.157370
v 0.565218 0.175087 -0.163688
v 0.566671 0.786523 -0.162008
v 0.566671 0.175087 -0.162008
v 0.558912 0.175087 -0.169767
v 0.560592 0.175087 -0.168315
v 0.558912 0.786523 -0.169767
v 0.554274 0.175087 -0.172725
v 0.556146 0.175087 -0.171531
v 0.554274 0.786523 -0.172725
v 0.549257 0.175087 -0.174980
v 0.551282 0.175087 -0.174070
v 0.549257 0.786523 -0.174980
v 0.543966 0.175087 -0.176486
v 0.546102 0.175087 -0.175878
v 0.543966 0.786523 -0.176486
v 0.538513 0.175087 -0.177211
v 0.540715 0.175087 -0.176919
v 0.538513 0.786523 -0.177211
v 0.533013 0.175087 -0.177140
v 0.535233 0.175087 -0.177169
v 0.533013 0.786523 -0.177140
v 0.598696 0.175087 -0.150714
v 0.598012 0.786523 -0.154154
v 0.598012 0.175087 -0.154154
v 0.596347 0.175087 -0.159058
v 0.595220 0.786523 -0.162379
v 0.595220 0.175087 -0.162379
v 0.592929 0.175087 -0.167024
v 0.591378 0.786523 -0.170169
v 0.591378 0.175087 -0.170169
v 0.588501 0.175087 -0.174475
v 0.586552 0.786523 -0.177391
v 0.586552 0.175087 -0.177391
v 0.574295 0.175087 -0.189649
v 0.571379 0.175087 -0.191597
v 0.574295 0.786523 -0.189649
v 0.567073 0.175087 -0.194474
v 0.563928 0.175087 -0.196025
v 0.567073 0.786523 -0.194474
v 0.551058 0.175087 -0.201108
v 0.547618 0.175087 -0.201792
v 0.551058 0.786523 -0.201108
v 0.542539 0.175087 -0.202802
v 0.539039 0.175087 -0.203032
v 0.542539 0.786523 -0.202802
v 0.559283 0.786523 -0.198316
v 0.555962 0.175087 -0.199443
v 0.559283 0.175087 -0.198316
v 0.533013 0.786523 -0.177140
v 0.535233 0.175087 -0.177169
v 0.533013 0.175087 -0.177140
v 0.538513 0.786523 -0.177211
v 0.540715 0.175087 -0.176919
v 0.538513 0.175087 -0.177211
v 0.543966 0.786523 -0.176486
v 0.546102 0.175087 -0.175878
v 0.543966 0.175087 -0.176486
v 0.549257 0.786523 -0.174980
v 0.551282 0.175087 -0.174070
v 0.549257 0.175087 -0.174980
v 0.554274 0.786523 -0.172725
v 0.556146 0.175087 -0.171531
v 0.554274 0.175087 -0.172725
v 0.558912 0.786523 -0.169767
v 0.560592 0.175087 -0.168315
v 0.558912 0.175087 -0.169767
v 0.574044 0.786523 -0.136109
v 0.584634 0.175087 -0.136455
v 0.574044 0.175087 -0.136109
v 0.584634 0.175087 -0.136455
v 0.600274 0.786523 -0.136968
v 0.600274 0.175087 -0.136968
v 0.560592 0.175087 -0.168315
v 0.563073 0.786523 -0.166170
v 0.563073 0.175087 -0.166170
v 0.556146 0.175087 -0.171531
v 0.558912 0.786523 -0.169767
v 0.558912 0.175087 -0.169767
v 0.551282 0.175087 -0.174070
v 0.554274 0.786523 -0.172725
v 0.554274 0.175087 -0.172725
v 0.546102 0.175087 -0.175878
v 0.549257 0.786523 -0.174980
v 0.549257 0.175087 -0.174980
v 0.540715 0.175087 -0.176919
v 0.543966 0.786523 -0.176486
v 0.543966 0.175087 -0.176486
v 0.535233 0.175087 -0.177169
v 0.538513 0.786523 -0.177211
v 0.538513 0.175087 -0.177211
v 0.599706 0.786523 -0.145635
v 0.574044 0.786523 -0.136109
v 0.598012 0.786523 -0.154154
v 0.600274 0.786523 -0.136968
v 0.580825 0.786523 -0.183922
v 0.574115 0.786523 -0.141609
v 0.595220 0.786523 -0.162379
v 0.591378 0.786523 -0.170169
v 0.586552 0.786523 -0.177391
v 0.574295 0.786523 -0.189649
v 0.573390 0.786523 -0.147062
v 0.567073 0.786523 -0.194474
v 0.571884 0.786523 -0.152353
v 0.569628 0.786523 -0.157370
v 0.566671 0.786523 -0.162008
v 0.559283 0.786523 -0.198316
v 0.563073 0.786523 -0.166170
v 0.558912 0.786523 -0.169767
v 0.551058 0.786523 -0.201108
v 0.554274 0.786523 -0.172725
v 0.549257 0.786523 -0.174980
v 0.542539 0.786523 -0.202802
v 0.543966 0.786523 -0.176486
v 0.538513 0.786523 -0.177211
v 0.533871 0.786523 -0.203370
v 0.533013 0.786523 -0.177140
v 0.533013 0.786523 -0.177140
v 0.538513 0.786523 -0.177211
v 0.533871 0.786523 -0.203370
v 0.542539 0.786523 -0.202802
v 0.543966 0.786523 -0.176486
v 0.549257 0.786523 -0.174980
v 0.551058 0.786523 -0.201108
v 0.554274 0.786523 -0.172725
v 0.558912 0.786523 -0.169767
v 0.559283 0.786523 -0.198316
v 0.563073 0.786523 -0.166170
v 0.566671 0.786523 -0.162008
v 0.567073 0.786523 -0.194474
v 0.569628 0.786523 -0.157370
v 0.571884 0.786523 -0.152353
v 0.573390 0.786523 -0.147062
v 0.574295 0.786523 -0.189649
v 0.574115 0.786523 -0.141609
v 0.580825 0.786523 -0.183922
v 0.574044 0.786523 -0.136109
v 0.586552 0.786523 -0.177391
v 0.591378 0.786523 -0.170169
v 0.595220 0.786523 -0.162379
v 0.598012 0.786523 -0.154154
v 0.599706 0.786523 -0.145635
v 0.600274 0.786523 -0.136968
v 0.599936 0.175087 -0.142135
v 0.599706 0.786523 -0.145635
v 0.599706 0.175087 -0.145635
v 0.583138 0.175087 -0.181285
v 0.580825 0.786523 -0.183922
v 0.580825 0.175087 -0.183922
v 0.578189 0.175087 -0.186234
v 0.574295 0.786523 -0.189649
v 0.574295 0.175087 -0.189649
v 0.571379 0.175087 -0.191597
v 0.567073 0.786523 -0.194474
v 0.567073 0.175087 -0.194474
v 0.563928 0.175087 -0.196025
v 0.559283 0.786523 -0.198316
v 0.559283 0.175087 -0.198316
v 0.555962 0.175087 -0.199443
v 0.551058 0.786523 -0.201108
v 0.551058 0.175087 -0.201108
v 0.547618 0.175087 -0.201792
v 0.542539 0.786523 -0.202802
v 0.542539 0.175087 -0.202802
v 0.599706 0.175087 -0.145635
v 0.599706 0.786523 -0.145635
v 0.599936 0.175087 -0.142135
v 0.598012 0.175087 -0.154154
v 0.598012 0.786523 -0.154154
v 0.598696 0.175087 -0.150714
v 0.580825 0.175087 -0.183922
v 0.578189 0.175087 -0.186234
v 0.580825 0.786523 -0.183922
v 0.559283 0.175087 -0.198316
v 0.555962 0.175087 -0.199443
v 0.559283 0.786523 -0.198316
v 0.586552 0.786523 -0.177391
v 0.583138 0.175087 -0.181285
v 0.600274 0.786523 -0.136968
v 0.600274 0.786523 -0.136968
v 0.595220 0.175087 -0.162379
v 0.595220 0.786523 -0.162379
v 0.596347 0.175087 -0.159058
v 0.591378 0.175087 -0.170169
v 0.591378 0.786523 -0.170169
v 0.592929 0.175087 -0.167024
v 0.586552 0.175087 -0.177391
v 0.586552 0.786523 -0.177391
v 0.588501 0.175087 -0.174475
v 0.580825 0.175087 -0.183922
v 0.580825 0.786523 -0.183922
v 0.583138 0.175087 -0.181285
v 0.533013 0.175087 -0.177140
v 0.533013 0.786523 -0.177140
v 0.533359 0.175087 -0.187730
v 0.533871 0.786523 -0.203370
v 0.533359 0.175087 -0.187730
v 0.533871 0.786523 -0.203370
v 0.533013 0.786523 -0.177140
v 0.533871 0.786523 -0.203370
v 0.539039 0.175087 -0.203032
v 0.533871 0.175087 -0.203370
v 0.542539 0.786523 -0.202802
v 0.547618 0.175087 -0.201792
v 0.542539 0.175087 -0.202802
v 0.551058 0.786523 -0.201108
v 0.555962 0.175087 -0.199443
v 0.551058 0.175087 -0.201108
v 0.559283 0.786523 -0.198316
v 0.563928 0.175087 -0.196025
v 0.559283 0.175087 -0.198316
v 0.567073 0.786523 -0.194474
v 0.571379 0.175087 -0.191597
v 0.567073 0.175087 -0.194474
v 0.574295 0.786523 -0.189649
v 0.578189 0.175087 -0.186234
v 0.574295 0.175087 -0.189649
v 0.598012 0.786523 -0.154154
v 0.542539 0.786523 -0.202802
v 0.539039 0.175087 -0.203032
v 0.542539 0.175087 -0.202802
v 0.551058 0.786523 -0.201108
v 0.547618 0.175087 -0.201792
v 0.551058 0.175087 -0.201108
v 0.567073 0.786523 -0.194474
v 0.563928 0.175087 -0.196025
v 0.567073 0.175087 -0.194474
v 0.574295 0.786523 -0.189649
v 0.571379 0.175087 -0.191597
v 0.574295 0.175087 -0.189649
v 0.580825 0.786523 -0.183922
v 0.578189 0.175087 -0.186234
v 0.580825 0.175087 -0.183922
v 0.583138 0.175087 -0.181285
v 0.586552 0.786523 -0.177391
v 0.588501 0.175087 -0.174475
v 0.591378 0.786523 -0.170169
v 0.592929 0.175087 -0.167024
v 0.595220 0.786523 -0.162379
v 0.596347 0.175087 -0.159058
v 0.598012 0.786523 -0.154154
v 0.598696 0.175087 -0.150714
v 0.599706 0.786523 -0.145635
v 0.574044 0.175087 -0.136109
v 0.574044 0.786523 -0.136109
v 0.574073 0.175087 -0.138330
v 0.574115 0.175087 -0.141609
v 0.574115 0.786523 -0.141609
v 0.573822 0.175087 -0.143811
v 0.573390 0.175087 -0.147062
v 0.573390 0.786523 -0.147062
v 0.572782 0.175087 -0.149198
v 0.571884 0.175087 -0.152353
v 0.571884 0.786523 -0.152353
v 0.570973 0.175087 -0.154378
v 0.569628 0.175087 -0.157370
v 0.569628 0.786523 -0.157370
v 0.568434 0.175087 -0.159242
v 0.566671 0.175087 -0.162008
v 0.566671 0.786523 -0.162008
v 0.565218 0.175087 -0.163688
v 0.539039 0.175087 -0.203032
v 0.533871 0.786523 -0.203370
v 0.533871 0.175087 -0.203370
v 0.533359 0.175087 -0.187730
v 0.533013 0.786523 -0.177140
v 0.533013 0.175087 -0.177140
v 0.538513 0.786523 -0.177211
v 0.535233 0.175087 -0.177169
v 0.538513 0.175087 -0.177211
v 0.543966 0.786523 -0.176486
v 0.540715 0.175087 -0.176919
v 0.543966 0.175087 -0.176486
v 0.549257 0.786523 -0.174980
v 0.546102 0.175087 -0.175878
v 0.549257 0.175087 -0.174980
v 0.554274 0.786523 -0.172725
v 0.551282 0.175087 -0.174070
v 0.554274 0.175087 -0.172725
v 0.558912 0.786523 -0.169767
v 0.556146 0.175087 -0.171531
v 0.558912 0.175087 -0.169767
v 0.563073 0.786523 -0.166170
v 0.560592 0.175087 -0.168315
v 0.563073 0.175087 -0.166170
v 0.565218 0.175087 -0.163688
v 0.563073 0.786523 -0.166170
v 0.566671 0.786523 -0.162008
v 0.568434 0.175087 -0.159242
v 0.569628 0.786523 -0.157370
v 0.570973 0.175087 -0.154378
v 0.571884 0.786523 -0.152353
v 0.572782 0.175087 -0.149198
v 0.573390 0.786523 -0.147062
v 0.573822 0.175087 -0.143811
v 0.574115 0.786523 -0.141609
v 0.574073 0.175087 -0.138330
v 0.574044 0.786523 -0.136109
v 0.600274 0.786523 -0.136968
v 0.584634 0.175087 -0.136455
v 0.600274 0.175087 -0.136968
v 0.574044 0.786523 -0.136109
v 0.533013 0.786523 -0.177140
v 0.586552 0.175087 -0.177391
v 0.600274 0.175087 -0.136968
v 0.600274 0.175087 -0.136968
v 0.533871 0.175087 -0.203370
v 0.533871 0.175087 -0.203370
v 0.598012 0.175087 -0.154154
v 0.586552 0.175087 -0.177391
v 0.591378 0.175087 -0.170169
v 0.595220 0.175087 -0.162379
v 0.598012 0.175087 -0.154154
v 0.599706 0.175087 -0.145635
v 0.542539 0.786523 -0.202802
v 0.533013 0.786523 -0.177140
v 0.563073 0.175087 -0.166170
v 0.566671 0.175087 -0.162008
v 0.569628 0.175087 -0.157370
v 0.571884 0.175087 -0.152353
v 0.573390 0.175087 -0.147062
v 0.574115 0.175087 -0.141609
v 0.574044 0.786523 -0.136109
vn 0.0328 -0.0000 0.9995
vn 1.0000 -0.0084 0.0045
vn 0.9999 0.0000 0.0131
vn 0.9941 0.0000 -0.1084
vn 0.9910 -0.0236 -0.1318
vn 0.9879 0.0000 -0.1552
vn 0.9615 0.0237 -0.2736
vn 0.9615 -0.0237 -0.2737
vn 0.9615 0.0237 -0.2737
vn 0.9215 0.0000 -0.3883
vn 0.9117 -0.0237 -0.4102
vn 0.9021 0.0000 -0.4315
vn 0.8557 0.0000 -0.5175
vn 0.8430 -0.0237 -0.5374
vn 0.8429 0.0237 -0.5375
vn 0.7619 0.0084 -0.6476
vn 0.7561 -0.0237 -0.6540
vn 0.7563 0.0237 -0.6538
vn -0.6350 -0.0000 0.7725
vn -0.6539 0.0124 0.7565
vn -0.6537 -0.0248 0.7563
vn -0.5166 -0.0000 0.8562
vn -0.5377 0.0248 0.8428
vn -0.5376 -0.0248 0.8428
vn -0.3873 -0.0000 0.9220
vn -0.4099 0.0248 0.9118
vn -0.4098 -0.0248 0.9118
vn -0.2499 -0.0000 0.9683
vn -0.2738 0.0248 0.9615
vn -0.2737 -0.0248 0.9615
vn -0.1072 -0.0000 0.9942
vn -0.1315 0.0248 0.9910
vn -0.1314 -0.0248 0.9910
vn 0.0131 -0.0000 0.9999
vn 0.0130 0.0124 0.9998
vn -0.9806 0.0223 0.1949
vn -0.9806 -0.0223 0.1950
vn -0.9762 -0.0000 0.2169
vn -0.9468 0.0223 0.3211
vn -0.9467 -0.0223 0.3213
vn -0.9395 -0.0000 0.3425
vn -0.8967 0.0223 0.4421
vn -0.8966 -0.0223 0.4422
vn -0.8868 -0.0000 0.4622
vn -0.8313 0.0223 0.5554
vn -0.8312 -0.0223 0.5555
vn -0.8189 -0.0000 0.5740
vn 0.5554 0.0214 -0.8313
vn 0.5732 0.0000 -0.8194
vn 0.5554 -0.0214 -0.8313
vn 0.4230 0.0000 -0.9061
vn 0.4423 0.0214 -0.8966
vn 0.4422 -0.0214 -0.8967
vn 0.1950 0.0214 -0.9806
vn 0.2160 0.0000 -0.9764
vn 0.1950 -0.0214 -0.9806
vn 0.0654 0.0214 -0.9976
vn 0.0730 0.0075 -0.9973
vn 0.0656 -0.0214 -0.9976
vn -0.3214 -0.0223 0.9467
vn -0.3212 0.0223 0.9467
vn -0.3425 -0.0000 0.9395
vn -0.0131 0.0000 -0.9999
vn -0.0248 0.0000 -0.9997
vn 0.1315 -0.0237 -0.9910
vn 0.1083 0.0000 -0.9941
vn 0.1318 0.0237 -0.9910
vn 0.2738 -0.0237 -0.9615
vn 0.2509 0.0000 -0.9680
vn 0.2737 0.0237 -0.9615
vn 0.4099 -0.0237 -0.9118
vn 0.3883 0.0000 -0.9215
vn 0.4098 0.0237 -0.9119
vn 0.5377 -0.0237 -0.8428
vn 0.5175 0.0000 -0.8557
vn 0.5376 0.0237 -0.8429
vn 0.6538 -0.0237 -0.7563
vn 0.6450 0.0000 -0.7642
vn 0.6537 0.0237 -0.7564
vn -0.0327 0.0000 -0.9995
vn -0.0328 0.0000 -0.9995
vn 0.6539 0.0118 -0.7564
vn 0.6540 0.0000 -0.7565
vn 0.5375 0.0237 -0.8429
vn 0.5376 -0.0237 -0.8429
vn 0.4098 -0.0237 -0.9118
vn 0.2736 0.0237 -0.9616
vn 0.2737 -0.0237 -0.9615
vn 0.1319 0.0237 -0.9910
vn 0.1318 -0.0237 -0.9910
vn -0.0129 0.0118 -0.9998
vn -0.0129 -0.0237 -0.9996
vn -0.0366 0.0000 -0.9993
vn 0.0000 -1.0000 -0.0000
vn 0.0000 1.0000 0.0000
vn -0.0005 1.0000 0.0000
vn -0.9971 -0.0000 0.0765
vn -0.9976 -0.0223 0.0654
vn -0.9962 -0.0000 0.0876
vn -0.7518 0.0111 0.6593
vn -0.7518 -0.0000 0.6594
vn -0.6652 0.0079 0.7466
vn -0.6424 -0.0000 0.7664
vn -0.6592 0.0223 0.7517
vn -0.5740 -0.0000 0.8189
vn -0.5369 -0.0000 0.8436
vn -0.5554 0.0223 0.8313
vn -0.4622 -0.0000 0.8868
vn -0.4222 -0.0000 0.9065
vn -0.4422 0.0223 0.8966
vn -0.3003 0.0000 0.9538
vn -0.3214 0.0223 0.9467
vn -0.2169 -0.0000 0.9762
vn -0.1732 -0.0000 0.9849
vn -0.1950 0.0223 0.9805
vn 0.9883 0.0000 -0.1523
vn 0.9941 0.0000 -0.1089
vn 0.9971 0.0000 -0.0761
vn 0.9806 0.0214 -0.1950
vn 0.9847 0.0000 -0.1741
vn 0.9764 0.0000 -0.2160
vn 0.6594 0.0000 -0.7518
vn 0.6650 0.0075 -0.7468
vn 0.3214 0.0214 -0.9467
vn 0.3416 0.0000 -0.9398
vn 0.3213 -0.0214 -0.9467
vn 0.7517 -0.0214 -0.6592
vn 0.7518 0.0107 -0.6593
vn 0.7519 0.0000 -0.6593
vn 0.9979 0.0000 -0.0654
vn -0.9979 -0.0000 0.0654
vn 0.9152 0.0000 -0.4029
vn 0.9320 -0.0000 -0.3624
vn 0.9398 -0.0000 -0.3416
vn 0.8548 0.0000 -0.5189
vn 0.8767 0.0000 -0.4810
vn 0.8872 0.0000 -0.4614
vn 0.8312 0.0214 -0.5556
vn 0.8432 0.0000 -0.5377
vn 0.8194 0.0000 -0.5732
vn 0.7518 0.0000 -0.6594
vn 0.7448 0.0000 -0.6673
vn -0.9995 0.0000 -0.0327
vn 0.9995 0.0000 0.0327
vn 0.0654 0.0000 -0.9979
vn 0.0579 0.0076 -0.9983
vn 0.0653 0.0000 -0.9979
vn 0.1952 0.0214 -0.9805
vn 0.3214 -0.0214 -0.9467
vn 0.3215 0.0214 -0.9467
vn 0.4614 0.0000 -0.8872
vn 0.5555 0.0214 -0.8312
vn 0.6592 -0.0214 -0.7517
vn 0.6536 0.0076 -0.7568
vn 0.6753 0.0000 -0.7376
vn 0.9467 -0.0214 -0.3214
vn -0.0657 -0.0223 0.9976
vn -0.0575 0.0078 0.9983
vn -0.0876 -0.0000 0.9962
vn -0.1951 -0.0223 0.9805
vn -0.1949 0.0223 0.9806
vn -0.4423 -0.0223 0.8966
vn -0.4421 0.0223 0.8967
vn -0.5555 -0.0223 0.8312
vn -0.5553 0.0223 0.8313
vn -0.6594 0.0000 0.7518
vn -0.6534 0.0078 0.7570
vn -0.7445 -0.0000 0.6677
vn -0.7663 -0.0000 0.6424
vn -0.7519 -0.0000 0.6593
vn -0.8437 -0.0000 0.5369
vn -0.8312 -0.0223 0.5556
vn -0.9065 0.0000 0.4222
vn -0.8966 -0.0223 0.4423
vn -0.9539 0.0000 0.3002
vn -0.9467 -0.0223 0.3215
vn -0.9849 0.0000 0.1732
vn -0.9805 -0.0223 0.1951
vn -0.9999 0.0000 -0.0131
vn -0.9999 -0.0000 -0.0129
vn -0.9998 0.0124 -0.0130
vn -0.9965 0.0000 0.0835
vn -0.9965 -0.0000 0.0837
vn -0.9942 -0.0000 0.1072
vn -0.9739 -0.0000 0.2268
vn -0.9739 0.0000 0.2270
vn -0.9683 -0.0000 0.2499
vn -0.9474 0.0000 0.3201
vn -0.9308 -0.0000 0.3655
vn -0.9220 -0.0000 0.3873
vn -0.8683 -0.0000 0.4961
vn -0.8682 0.0000 0.4962
vn -0.8296 0.0000 0.5584
vn -0.7874 -0.0000 0.6165
vn -0.7873 -0.0000 0.6166
vn -0.7565 -0.0124 0.6539
vn -0.0732 0.0079 0.9973
vn -0.0654 -0.0000 0.9979
vn -0.0653 -0.0000 0.9979
vn -0.0118 -0.0000 0.9999
vn 0.0253 -0.0000 0.9997
vn 0.0128 0.0248 0.9996
vn -0.1563 -0.0000 0.9877
vn -0.1320 0.0248 0.9909
vn -0.2976 -0.0000 0.9547
vn -0.2737 0.0248 0.9615
vn -0.4326 -0.0000 0.9016
vn -0.5584 0.0000 0.8296
vn -0.5375 0.0248 0.8429
vn -0.7071 0.0000 0.7071
vn -0.6445 -0.0000 0.7646
vn -0.7072 -0.0000 0.7070
vn 0.7510 0.0084 -0.6603
vn 0.7565 -0.0000 -0.6540
vn 0.7408 -0.0000 -0.6717
vn 0.8430 0.0237 -0.5374
vn 0.8429 -0.0237 -0.5375
vn 0.8302 -0.0000 -0.5575
vn 0.9119 0.0237 -0.4098
vn 0.9118 -0.0237 -0.4099
vn 0.9550 0.0000 -0.2965
vn 0.9910 0.0236 -0.1317
vn 0.9910 -0.0237 -0.1318
vn 0.9997 -0.0084 0.0213
vn 0.9996 -0.0236 0.0130
vn 0.9999 0.0000 0.0129
vn 0.0327 0.0000 0.9995
vn 0.6717 0.0000 -0.7408
vn 0.5575 -0.0000 -0.8302
vn 0.4315 0.0000 -0.9021
vn 0.2965 0.0000 -0.9550
vn 0.1552 0.0000 -0.9879
vn -0.0129 0.0000 -0.9999
vn -0.3215 -0.0223 0.9467
vn -0.1952 -0.0223 0.9805
vn 0.7376 0.0000 -0.6753
vn 0.9979 0.0000 -0.0653
vn -0.9979 -0.0000 0.0653
vn 0.0441 0.0000 -0.9990
vn 0.1741 0.0000 -0.9847
vn 0.3011 -0.0000 -0.9536
vn 0.5377 0.0000 -0.8432
vn -0.7517 0.0223 0.6591
vn -0.8966 0.0223 0.4422
vn -0.9467 0.0223 0.3214
vn -0.9806 0.0223 0.1950
vn -0.0655 -0.0223 0.9976
vn 0.0129 -0.0000 0.9999
vn -0.1317 -0.0248 0.9910
vn -0.2736 -0.0248 0.9615
vn -0.4097 -0.0248 0.9119
vn -0.5375 -0.0248 0.8429
vn 0.7566 0.0000 -0.6539
vn 0.9941 0.0000 -0.1083
vn 0.9996 0.0236 0.0128
usemtl Default_OBJ.009
s 1
f 1//1 2//1 3//1
f 4//2 5//3 6//3
f 7//4 8//5 9//6
f 10//7 11//8 12//9
f 13//10 14//11 15//12
f 16//13 17//14 18//15
f 19//16 20//17 21//18
f 22//19 23//20 24//21
f 25//22 26//23 27//24
f 28//25 29//26 30//27
f 31//28 32//29 33//30
f 34//31 35//32 36//33
f 37//34 38//35 39//34
f 40//36 41//37 42//38
f 43//39 44//40 45//41
f 46//42 47//43 48//44
f 49//45 50//46 51//47
f 52//48 53//49 54//50
f 55//51 56//52 57//53
f 58//54 59//55 60//56
f 61//57 62//58 63//59
f 64//60 65//61 66//62
f 67//63 68//64 69//63
f 70//65 71//66 72//67
f 73//68 74//69 75//70
f 76//71 77//72 78//73
f 79//74 80//75 81//76
f 82//77 83//78 84//79
f 85//80 86//80 87//80
f 88//81 89//80 90//81
f 91//82 92//83 93//83
f 94//84 95//85 96//75
f 97//73 98//86 99//72
f 100//87 101//88 102//69
f 103//89 104//90 105//66
f 106//91 107//92 108//93
f 109//94 110//94 111//94
f 110//94 109//94 112//94
f 113//94 110//94 114//94
f 111//94 110//94 115//94
f 115//94 110//94 116//94
f 116//94 110//94 117//94
f 117//94 110//94 113//94
f 113//94 114//94 118//94
f 119//94 118//94 114//94
f 118//94 119//94 120//94
f 120//94 119//94 121//94
f 120//94 121//94 122//94
f 120//94 122//94 123//94
f 120//94 123//94 124//94
f 124//94 123//94 125//94
f 124//94 125//94 126//94
f 124//94 126//94 127//94
f 127//94 126//94 128//94
f 127//94 128//94 129//94
f 127//94 129//94 130//94
f 130//94 129//94 131//94
f 130//94 131//94 132//94
f 130//94 132//94 133//94
f 133//94 132//94 134//94
f 135//95 136//95 137//95
f 137//95 136//95 138//95
f 136//95 139//95 138//95
f 139//95 140//95 138//95
f 138//95 140//95 141//95
f 142//95 143//95 141//95
f 140//95 142//95 141//95
f 141//95 143//95 144//95
f 143//95 145//95 144//95
f 145//95 146//95 144//95
f 144//95 146//95 147//95
f 146//95 148//95 147//95
f 148//95 149//95 147//95
f 149//95 150//95 147//95
f 147//95 150//95 151//95
f 152//96 151//95 150//95
f 151//95 152//96 153//95
f 152//96 154//95 153//95
f 153//95 154//95 155//95
f 155//95 154//95 156//95
f 156//95 154//95 157//95
f 157//95 154//95 158//95
f 158//95 154//95 159//95
f 160//95 159//95 154//95
f 161//97 162//98 163//99
f 164//100 165//101 166//101
f 167//102 168//103 169//104
f 170//105 171//106 172//107
f 173//108 174//109 175//110
f 176//62 177//111 178//112
f 179//113 180//114 181//115
f 182//116 183//117 184//118
f 185//119 186//120 187//121
f 188//122 189//123 190//122
f 191//124 192//125 193//126
f 194//127 195//128 190//129
f 183//117 187//121 186//120
f 196//130 184//118 183//117
f 161//97 197//131 162//98
f 198//132 199//133 200//134
f 201//135 202//136 203//137
f 204//138 205//139 206//140
f 207//141 208//141 209//142
f 210//143 211//143 212//143
f 213//143 212//143 211//143
f 214//144 215//144 216//144
f 217//145 218//146 219//147
f 220//56 221//148 222//55
f 223//149 224//150 225//125
f 226//53 227//51 228//151
f 229//50 230//152 231//48
f 232//153 233//154 234//155
f 202//136 206//140 205//139
f 199//133 203//137 202//136
f 235//156 200//134 199//133
f 236//157 237//158 238//159
f 239//160 240//161 241//113
f 242//162 243//163 244//108
f 245//164 246//165 247//105
f 248//166 249//167 250//166
f 251//168 252//169 248//170
f 253//47 254//171 252//172
f 255//44 256//173 254//174
f 257//41 258//175 256//176
f 259//38 260//177 258//178
f 261//179 262//180 263//181
f 264//182 265//183 266//184
f 267//185 268//186 269//187
f 270//188 271//189 272//190
f 273//191 274//192 275//193
f 276//194 277//195 278//196
f 279//197 280//198 281//199
f 282//144 283//144 284//144
f 285//200 286//201 287//202
f 288//203 289//31 290//204
f 291//205 292//28 293//206
f 294//207 295//25 296//26
f 297//208 298//22 299//209
f 300//210 301//211 302//212
f 300//210 278//196 277//195
f 277//195 275//193 274//192
f 274//192 272//190 271//189
f 271//189 269//187 268//186
f 268//186 266//184 265//183
f 265//183 263//181 262//180
f 303//213 304//214 305//215
f 306//216 305//217 307//218
f 308//219 307//220 309//12
f 310//221 309//8 311//221
f 312//222 311//223 313//6
f 314//224 313//225 315//226
f 316//227 317//1 318//1
f 88//81 319//80 89//80
f 91//82 95//228 92//83
f 94//84 98//229 95//85
f 97//73 101//230 98//86
f 100//87 104//231 101//88
f 103//89 107//232 104//90
f 106//91 320//233 107//92
f 167//102 165//166 168//103
f 170//105 168//164 171//106
f 173//108 171//162 174//109
f 176//62 174//234 177//111
f 179//113 177//235 180//114
f 194//127 321//236 195//128
f 183//117 182//116 187//121
f 196//130 322//237 184//118
f 161//97 323//238 197//131
f 213//143 324//143 212//143
f 214//144 325//144 215//144
f 217//145 220//239 218//146
f 220//56 223//240 221//148
f 223//149 226//241 224//150
f 226//53 229//51 227//51
f 229//50 232//242 230//152
f 232//153 208//122 233//154
f 202//136 201//135 206//140
f 199//133 198//132 203//137
f 235//156 326//134 200//134
f 251//168 327//243 252//169
f 253//47 328//45 254//171
f 255//44 329//244 256//173
f 257//41 330//245 258//175
f 259//38 331//246 260//177
f 279//197 332//247 280//198
f 285//200 333//248 286//201
f 288//203 285//249 289//31
f 291//205 288//250 292//28
f 294//207 291//251 295//25
f 297//208 294//252 298//22
f 300//210 297//21 301//211
f 300//210 302//212 278//196
f 277//195 276//194 275//193
f 274//192 273//191 272//190
f 271//189 270//188 269//187
f 268//186 267//185 266//184
f 265//183 264//182 263//181
f 303//213 334//253 304//214
f 306//216 335//13 305//217
f 308//219 336//10 307//220
f 310//221 337//9 309//8
f 312//222 338//254 311//223
f 314//224 339//255 313//225
f 316//227 340//227 317//1