# Blender v3.0.1 OBJ File: ''
# www.blender.org
mtllib 04.mtl
o model.007_model.28572
v 0.574044 0.175087 0.135063
v 0.584617 0.175087 0.135410
v 0.574044 0.786523 0.135063
v 0.584617 0.175087 0.135410
v 0.600274 0.786523 0.135922
v 0.600274 0.175087 0.135922
v 0.574044 0.175087 0.135063
v 0.574044 0.786523 0.135063
v 0.574073 0.175087 0.137281
v 0.574115 0.175087 0.140564
v 0.574115 0.786523 0.140564
v 0.573823 0.175087 0.142762
v 0.573390 0.175087 0.146017
v 0.573390 0.786523 0.146017
v 0.572783 0.175087 0.148149
v 0.571884 0.175087 0.151307
v 0.571884 0.786523 0.151307
v 0.570975 0.175087 0.153330
v 0.569628 0.175087 0.156325
v 0.569628 0.786523 0.156325
v 0.568436 0.175087 0.158194
v 0.566671 0.175087 0.160963
v 0.566671 0.786523 0.160963
v 0.565221 0.175087 0.162640
v 0.558912 0.175087 0.168722
v 0.560589 0.175087 0.167272
v 0.558912 0.786523 0.168722
v 0.554274 0.175087 0.171679
v 0.556143 0.175087 0.170487
v 0.554274 0.786523 0.171679
v 0.549257 0.175087 0.173935
v 0.551279 0.175087 0.173026
v 0.549257 0.786523 0.173935
v 0.543966 0.175087 0.175441
v 0.546099 0.175087 0.174834
v 0.543966 0.786523 0.175441
v 0.533013 0.175087 0.176095
v 0.535230 0.175087 0.176123
v 0.533013 0.786523 0.176095
v 0.560589 0.175087 0.167272
v 0.563073 0.786523 0.165124
v 0.563073 0.175087 0.165124
v 0.556143 0.175087 0.170487
v 0.558912 0.786523 0.168722
v 0.558912 0.175087 0.168722
v 0.551279 0.175087 0.173026
v 0.554274 0.786523 0.171679
v 0.554274 0.175087 0.171679
v 0.546099 0.175087 0.174834
v 0.549257 0.786523 0.173935
v 0.549257 0.175087 0.173935
v 0.540711 0.175087 0.175874
v 0.543966 0.786523 0.175441
v 0.543966 0.175087 0.175441
v 0.533013 0.786523 0.176095
v 0.538513 0.786523 0.176166
v 0.533871 0.786523 0.202325
v 0.542539 0.786523 0.201757
v 0.543966 0.786523 0.175441
v 0.549257 0.786523 0.173935
v 0.551058 0.786523 0.200063
v 0.554274 0.786523 0.171679
v 0.558912 0.786523 0.168722
v 0.559283 0.786523 0.197271
v 0.563073 0.786523 0.165124
v 0.566671 0.786523 0.160963
v 0.567073 0.786523 0.193429
v 0.569628 0.786523 0.156325
v 0.571884 0.786523 0.151307
v 0.573390 0.786523 0.146017
v 0.574295 0.786523 0.188603
v 0.574115 0.786523 0.140564
v 0.580825 0.786523 0.182876
v 0.574044 0.786523 0.135063
v 0.586552 0.786523 0.176346
v 0.591378 0.786523 0.169124
v 0.595220 0.786523 0.161334
v 0.598012 0.786523 0.153109
v 0.599706 0.786523 0.144589
v 0.600274 0.786523 0.135922
v 0.599706 0.786523 0.144589
v 0.574044 0.786523 0.135063
v 0.598012 0.786523 0.153109
v 0.600274 0.786523 0.135922
v 0.595220 0.786523 0.161334
v 0.591378 0.786523 0.169124
v 0.586552 0.786523 0.176346
v 0.580825 0.786523 0.182876
v 0.574115 0.786523 0.140564
v 0.574295 0.786523 0.188603
v 0.573390 0.786523 0.146017
v 0.567073 0.786523 0.193429
v 0.571884 0.786523 0.151307
v 0.569628 0.786523 0.156325
v 0.566671 0.786523 0.160963
v 0.559283 0.786523 0.197271
v 0.563073 0.786523 0.165124
v 0.558912 0.786523 0.168722
v 0.551058 0.786523 0.200063
v 0.554274 0.786523 0.171679
v 0.549257 0.786523 0.173935
v 0.542539 0.786523 0.201757
v 0.543966 0.786523 0.175441
v 0.538513 0.786523 0.176166
v 0.533871 0.786523 0.202325
v 0.533013 0.786523 0.176095
v 0.599706 0.175087 0.144589
v 0.599706 0.786523 0.144589
v 0.599935 0.175087 0.141096
v 0.598012 0.175087 0.153109
v 0.598012 0.786523 0.153109
v 0.598695 0.175087 0.149675
v 0.595220 0.175087 0.161334
v 0.595220 0.786523 0.161334
v 0.596345 0.175087 0.158018
v 0.591378 0.175087 0.169124
v 0.591378 0.786523 0.169124
v 0.592927 0.175087 0.165984
v 0.586552 0.175087 0.176346
v 0.586552 0.786523 0.176346
v 0.588498 0.175087 0.173435
v 0.580825 0.175087 0.182876
v 0.580825 0.786523 0.182876
v 0.583134 0.175087 0.180244
v 0.578193 0.175087 0.185185
v 0.574295 0.175087 0.188603
v 0.571384 0.175087 0.190548
v 0.574295 0.786523 0.188603
v 0.567073 0.175087 0.193429
v 0.563933 0.175087 0.194977
v 0.567073 0.786523 0.193429
v 0.559283 0.175087 0.197271
v 0.555967 0.175087 0.198396
v 0.559283 0.786523 0.197271
v 0.551058 0.175087 0.200063
v 0.547624 0.175087 0.200746
v 0.551058 0.786523 0.200063
v 0.542539 0.175087 0.201757
v 0.539045 0.175087 0.201986
v 0.542539 0.786523 0.201757
v 0.599935 0.175087 0.141096
v 0.599706 0.786523 0.144589
v 0.599706 0.175087 0.144589
v 0.598695 0.175087 0.149675
v 0.598012 0.786523 0.153109
v 0.598012 0.175087 0.153109
v 0.578193 0.175087 0.185185
v 0.574295 0.786523 0.188603
v 0.574295 0.175087 0.188603
v 0.571384 0.175087 0.190548
v 0.567073 0.786523 0.193429
v 0.567073 0.175087 0.193429
v 0.563933 0.175087 0.194977
v 0.559283 0.786523 0.197271
v 0.559283 0.175087 0.197271
v 0.555967 0.175087 0.198396
v 0.551058 0.786523 0.200063
v 0.551058 0.175087 0.200063
v 0.547624 0.175087 0.200746
v 0.542539 0.786523 0.201757
v 0.542539 0.175087 0.201757
v 0.539045 0.175087 0.201986
v 0.533871 0.786523 0.202325
v 0.533871 0.175087 0.202325
v 0.596345 0.175087 0.158018
v 0.595220 0.786523 0.161334
v 0.600274 0.786523 0.135922
v 0.600274 0.786523 0.135922
v 0.574073 0.175087 0.137281
v 0.574044 0.786523 0.135063
v 0.574044 0.175087 0.135063
v 0.573823 0.175087 0.142762
v 0.574115 0.786523 0.140564
v 0.574115 0.175087 0.140564
v 0.572783 0.175087 0.148149
v 0.573390 0.786523 0.146017
v 0.573390 0.175087 0.146017
v 0.570975 0.175087 0.153330
v 0.571884 0.786523 0.151307
v 0.571884 0.175087 0.151307
v 0.568436 0.175087 0.158194
v 0.569628 0.786523 0.156325
v 0.569628 0.175087 0.156325
v 0.565221 0.175087 0.162640
v 0.566671 0.786523 0.160963
v 0.566671 0.175087 0.160963
v 0.533359 0.175087 0.186668
v 0.533013 0.786523 0.176095
v 0.533013 0.175087 0.176095
v 0.533871 0.786523 0.202325
v 0.533871 0.786523 0.202325
v 0.533359 0.175087 0.186668
v 0.533013 0.786523 0.176095
v 0.533013 0.786523 0.176095
v 0.535230 0.175087 0.176123
v 0.533013 0.175087 0.176095
v 0.538513 0.786523 0.176166
v 0.540711 0.175087 0.175874
v 0.538513 0.175087 0.176166
v 0.543966 0.786523 0.175441
v 0.546099 0.175087 0.174834
v 0.543966 0.175087 0.175441
v 0.549257 0.786523 0.173935
v 0.551279 0.175087 0.173026
v 0.549257 0.175087 0.173935
v 0.554274 0.786523 0.171679
v 0.556143 0.175087 0.170487
v 0.554274 0.175087 0.171679
v 0.558912 0.786523 0.168722
v 0.560589 0.175087 0.167272
v 0.558912 0.175087 0.168722
v 0.563073 0.786523 0.165124
v 0.538513 0.786523 0.176166
v 0.535230 0.175087 0.176123
v 0.538513 0.175087 0.176166
v 0.543966 0.786523 0.175441
v 0.540711 0.175087 0.175874
v 0.543966 0.175087 0.175441
v 0.549257 0.786523 0.173935
v 0.546099 0.175087 0.174834
v 0.549257 0.175087 0.173935
v 0.554274 0.786523 0.171679
v 0.551279 0.175087 0.173026
v 0.554274 0.175087 0.171679
v 0.558912 0.786523 0.168722
v 0.556143 0.175087 0.170487
v 0.558912 0.175087 0.168722
v 0.563073 0.786523 0.165124
v 0.560589 0.175087 0.167272
v 0.563073 0.175087 0.165124
v 0.565221 0.175087 0.162640
v 0.566671 0.786523 0.160963
v 0.568436 0.175087 0.158194
v 0.569628 0.786523 0.156325
v 0.570975 0.175087 0.153330
v 0.571884 0.786523 0.151307
v 0.572783 0.175087 0.148149
v 0.573390 0.786523 0.146017
v 0.573823 0.175087 0.142762
v 0.574115 0.786523 0.140564
v 0.574073 0.175087 0.137281
v 0.574044 0.786523 0.135063
v 0.574044 0.786523 0.135063
v 0.584617 0.175087 0.135410
v 0.574044 0.175087 0.135063
v 0.600274 0.786523 0.135922
v 0.584617 0.175087 0.135410
v 0.600274 0.175087 0.135922
v 0.538513 0.175087 0.176166
v 0.540711 0.175087 0.175874
v 0.538513 0.786523 0.176166
v 0.535230 0.175087 0.176123
v 0.538513 0.786523 0.176166
v 0.538513 0.175087 0.176166
v 0.596345 0.175087 0.158018
v 0.595220 0.786523 0.161334
v 0.595220 0.175087 0.161334
v 0.592927 0.175087 0.165984
v 0.591378 0.786523 0.169124
v 0.591378 0.175087 0.169124
v 0.588498 0.175087 0.173435
v 0.586552 0.786523 0.176346
v 0.586552 0.175087 0.176346
v 0.583134 0.175087 0.180244
v 0.580825 0.786523 0.182876
v 0.580825 0.175087 0.182876
v 0.533013 0.175087 0.176095
v 0.533013 0.786523 0.176095
v 0.533359 0.175087 0.186668
v 0.542539 0.786523 0.201757
v 0.539045 0.175087 0.201986
v 0.542539 0.175087 0.201757
v 0.551058 0.786523 0.200063
v 0.547624 0.175087 0.200746
v 0.551058 0.175087 0.200063
v 0.559283 0.786523 0.197271
v 0.555967 0.175087 0.198396
v 0.559283 0.175087 0.197271
v 0.567073 0.786523 0.193429
v 0.563933 0.175087 0.194977
v 0.567073 0.175087 0.193429
v 0.574295 0.786523 0.188603
v 0.571384 0.175087 0.190548
v 0.574295 0.175087 0.188603
v 0.578193 0.175087 0.185185
v 0.533871 0.786523 0.202325
v 0.539045 0.175087 0.201986
v 0.533871 0.175087 0.202325
v 0.542539 0.786523 0.201757
v 0.547624 0.175087 0.200746
v 0.542539 0.175087 0.201757
v 0.551058 0.786523 0.200063
v 0.555967 0.175087 0.198396
v 0.551058 0.175087 0.200063
v 0.559283 0.786523 0.197271
v 0.563933 0.175087 0.194977
v 0.559283 0.175087 0.197271
v 0.567073 0.786523 0.193429
v 0.571384 0.175087 0.190548
v 0.567073 0.175087 0.193429
v 0.574295 0.786523 0.188603
v 0.578193 0.175087 0.185185
v 0.574295 0.175087 0.188603
v 0.586552 0.786523 0.176346
v 0.583134 0.175087 0.180244
v 0.580825 0.786523 0.182876
v 0.591378 0.786523 0.169124
v 0.588498 0.175087 0.173435
v 0.595220 0.786523 0.161334
v 0.592927 0.175087 0.165984
v 0.598012 0.786523 0.153109
v 0.596345 0.175087 0.158018
v 0.574044 0.786523 0.135063
v 0.538513 0.786523 0.176166
v 0.580825 0.786523 0.182876
v 0.600274 0.175087 0.135922
v 0.600274 0.175087 0.135922
v 0.533871 0.175087 0.202325
v 0.533871 0.175087 0.202325
v 0.563073 0.175087 0.165124
v 0.533013 0.786523 0.176095
v 0.566671 0.175087 0.160963
v 0.569628 0.175087 0.156325
v 0.571884 0.175087 0.151307
v 0.573390 0.175087 0.146017
v 0.574115 0.175087 0.140564
v 0.574044 0.786523 0.135063
v 0.533013 0.786523 0.176095
v 0.586552 0.175087 0.176346
v 0.591378 0.175087 0.169124
v 0.595220 0.175087 0.161334
v 0.598012 0.175087 0.153109
vn -0.0328 -0.0000 0.9995
vn 0.0327 0.0000 -0.9995
vn 0.9999 0.0000 -0.0131
vn 0.9997 0.0000 -0.0248
vn 0.9910 0.0237 0.1317
vn 0.9910 -0.0237 0.1317
vn 0.9941 0.0000 0.1083
vn 0.9615 0.0237 0.2738
vn 0.9615 -0.0237 0.2738
vn 0.9680 -0.0000 0.2509
vn 0.9119 0.0237 0.4097
vn 0.9119 -0.0237 0.4098
vn 0.9215 0.0000 0.3884
vn 0.8429 0.0236 0.5376
vn 0.8429 -0.0236 0.5376
vn 0.8556 0.0000 0.5176
vn 0.7562 0.0237 0.6539
vn 0.7562 -0.0237 0.6539
vn 0.7642 -0.0000 0.6450
vn 0.6538 0.0237 0.7563
vn 0.6476 0.0084 0.7620
vn 0.6539 -0.0237 0.7562
vn 0.5375 0.0237 0.8429
vn 0.5175 -0.0000 0.8557
vn 0.5376 -0.0237 0.8429
vn 0.4099 0.0237 0.9118
vn 0.3883 -0.0000 0.9215
vn 0.4099 -0.0237 0.9118
vn 0.2737 0.0237 0.9615
vn 0.2510 -0.0000 0.9680
vn 0.2736 -0.0237 0.9615
vn -0.0126 -0.0000 0.9999
vn -0.0214 0.0084 0.9997
vn -0.6473 0.0088 -0.7622
vn -0.6541 0.0000 -0.7564
vn -0.5166 0.0000 -0.8562
vn -0.5584 0.0000 -0.8296
vn -0.5375 0.0248 -0.8429
vn -0.3873 0.0000 -0.9219
vn -0.4325 -0.0000 -0.9016
vn -0.4099 0.0248 -0.9118
vn -0.2738 0.0248 -0.9615
vn -0.2975 -0.0000 -0.9547
vn -0.1319 0.0248 -0.9910
vn -0.1563 -0.0000 -0.9877
vn -0.1318 0.0248 -0.9910
vn 0.0000 -1.0000 0.0000
vn 0.0000 1.0000 -0.0000
vn -0.9884 -0.0000 -0.1520
vn -0.9941 0.0000 -0.1088
vn -0.9978 0.0112 -0.0654
vn -0.9762 0.0000 -0.2169
vn -0.9805 -0.0223 -0.1950
vn -0.9395 -0.0000 -0.3425
vn -0.9467 -0.0223 -0.3213
vn -0.9467 0.0223 -0.3212
vn -0.8868 -0.0000 -0.4622
vn -0.8965 -0.0223 -0.4424
vn -0.8967 0.0223 -0.4421
vn -0.8311 0.0223 -0.5556
vn -0.8311 -0.0223 -0.5557
vn -0.8436 0.0000 -0.5369
vn -0.7071 0.0000 -0.7071
vn -0.7570 0.0078 -0.6534
vn -0.6594 0.0111 -0.7517
vn -0.5740 0.0000 -0.8189
vn -0.5553 0.0223 -0.8313
vn -0.5554 -0.0223 -0.8313
vn -0.4622 0.0000 -0.8868
vn -0.4420 0.0223 -0.8968
vn -0.4421 -0.0223 -0.8967
vn -0.3425 0.0000 -0.9395
vn -0.3211 0.0223 -0.9468
vn -0.3212 -0.0223 -0.9467
vn -0.2169 0.0000 -0.9762
vn -0.1949 0.0223 -0.9806
vn -0.1950 -0.0223 -0.9805
vn -0.0876 0.0000 -0.9962
vn -0.0653 0.0111 -0.9978
vn -0.0654 -0.0223 -0.9976
vn 0.9978 0.0107 0.0654
vn 0.9941 0.0000 0.1088
vn 0.9883 0.0000 0.1523
vn 0.9764 -0.0000 0.2160
vn 0.9713 -0.0000 0.2377
vn 0.9600 -0.0000 0.2800
vn 0.6593 0.0107 0.7518
vn 0.6592 -0.0214 0.7516
vn 0.6753 -0.0000 0.7376
vn 0.5556 0.0214 0.8312
vn 0.5555 -0.0214 0.8313
vn 0.5732 -0.0000 0.8194
vn 0.4424 0.0214 0.8965
vn 0.4422 -0.0214 0.8966
vn 0.4614 -0.0000 0.8872
vn 0.3216 0.0214 0.9466
vn 0.3214 -0.0214 0.9467
vn 0.3416 -0.0000 0.9399
vn 0.1951 0.0214 0.9806
vn 0.1950 -0.0214 0.9806
vn 0.2160 -0.0000 0.9764
vn 0.0654 0.0107 0.9978
vn 0.0654 -0.0000 0.9979
vn 0.9467 0.0214 0.3215
vn 0.9536 -0.0000 0.3011
vn 0.9979 0.0000 0.0654
vn -0.9979 -0.0000 -0.0654
vn -0.9997 0.0000 0.0253
vn -0.9999 -0.0000 0.0129
vn -0.9999 0.0000 0.0131
vn -0.9942 -0.0000 -0.1072
vn -0.9965 -0.0000 -0.0837
vn -0.9994 -0.0000 -0.0356
vn -0.9683 0.0000 -0.2498
vn -0.9739 -0.0000 -0.2270
vn -0.9837 0.0000 -0.1797
vn -0.9219 0.0000 -0.3873
vn -0.9308 -0.0000 -0.3655
vn -0.9474 0.0000 -0.3202
vn -0.8562 0.0000 -0.5166
vn -0.8682 -0.0000 -0.4963
vn -0.8911 0.0000 -0.4538
vn -0.7646 0.0000 -0.6446
vn -0.7873 0.0000 -0.6166
vn -0.8161 0.0000 -0.5779
vn -0.9995 -0.0000 0.0327
vn 0.9995 0.0000 -0.0327
vn 0.0126 0.0000 -0.9999
vn 0.0042 0.0087 -1.0000
vn -0.1316 -0.0248 -0.9910
vn -0.1316 0.0248 -0.9910
vn -0.2735 -0.0248 -0.9615
vn -0.2499 0.0000 -0.9683
vn -0.4098 -0.0248 -0.9118
vn -0.4100 0.0248 -0.9117
vn -0.5375 -0.0248 -0.8429
vn -0.5376 0.0248 -0.8429
vn -0.6538 -0.0248 -0.7563
vn -0.6606 0.0088 -0.7507
vn -0.6350 0.0000 -0.7725
vn -0.7564 0.0000 -0.6541
vn -0.0130 -0.0237 0.9996
vn -0.0046 0.0084 1.0000
vn -0.0131 0.0237 0.9996
vn 0.1318 -0.0237 0.9910
vn 0.1552 -0.0000 0.9879
vn 0.1083 -0.0000 0.9941
vn 0.2737 -0.0237 0.9615
vn 0.2736 0.0237 0.9616
vn 0.2509 -0.0000 0.9680
vn 0.5375 -0.0237 0.8429
vn 0.5374 0.0237 0.8430
vn 0.7071 -0.0000 0.7071
vn 0.6603 0.0084 0.7510
vn 0.7564 0.0118 0.6540
vn 0.7408 -0.0000 0.6717
vn 0.8430 -0.0237 0.5374
vn 0.8431 0.0236 0.5373
vn 0.8302 -0.0000 0.5574
vn 0.9118 -0.0236 0.4099
vn 0.9118 0.0236 0.4100
vn 0.9021 0.0000 0.4315
vn 0.9615 -0.0237 0.2737
vn 0.9615 0.0237 0.2736
vn 0.9550 -0.0000 0.2965
vn 0.9910 -0.0237 0.1318
vn 0.9879 0.0000 0.1552
vn 0.9996 -0.0237 -0.0129
vn 0.9998 0.0118 -0.0128
vn 0.9999 0.0000 -0.0129
vn 0.0328 0.0000 -0.9995
vn -0.0327 0.0000 0.9995
vn 0.1316 0.0237 0.9910
vn 0.1316 -0.0237 0.9910
vn 0.0217 0.0088 -0.9997
vn -0.0118 -0.0000 -0.9999
vn 0.9398 -0.0000 0.3416
vn 0.8969 -0.0214 0.4416
vn 0.9321 -0.0000 0.3622
vn 0.9061 0.0000 0.4230
vn 0.8767 0.0000 0.4810
vn 0.8548 -0.0000 0.5189
vn 0.8194 -0.0000 0.5732
vn 0.8065 0.0000 0.5912
vn 0.7797 -0.0000 0.6261
vn 0.7518 0.0107 0.6593
vn 0.7515 0.0000 0.6597
vn 0.0653 -0.0214 0.9976
vn 0.0761 -0.0000 0.9971
vn 0.0654 0.0214 0.9976
vn 0.1949 -0.0214 0.9806
vn 0.1950 0.0214 0.9806
vn 0.3211 -0.0214 0.9468
vn 0.3416 -0.0000 0.9398
vn 0.3212 0.0214 0.9468
vn 0.4420 -0.0214 0.8968
vn 0.4421 0.0214 0.8967
vn 0.5553 -0.0214 0.8314
vn 0.5554 0.0214 0.8313
vn 0.6673 -0.0000 0.7448
vn -0.0654 0.0000 -0.9979
vn -0.0765 0.0000 -0.9971
vn -0.1732 -0.0000 -0.9849
vn -0.3003 0.0000 -0.9538
vn -0.3215 0.0223 -0.9467
vn -0.4222 0.0000 -0.9065
vn -0.4423 0.0223 -0.8966
vn -0.5369 0.0000 -0.8436
vn -0.5555 0.0223 -0.8312
vn -0.6424 -0.0000 -0.7664
vn -0.6676 0.0000 -0.7445
vn -0.6591 0.0223 -0.7517
vn -0.7664 -0.0000 -0.6424
vn -0.7466 0.0079 -0.6652
vn -0.7518 -0.0000 -0.6594
vn -0.8437 -0.0000 -0.5369
vn -0.8314 0.0223 -0.5553
vn -0.8312 -0.0223 -0.5555
vn -0.9065 -0.0000 -0.4222
vn -0.8966 -0.0223 -0.4423
vn -0.9538 0.0000 -0.3003
vn -0.9466 -0.0223 -0.3215
vn -0.6537 -0.0248 -0.7563
vn -0.5374 -0.0248 -0.8430
vn -0.2736 -0.0248 -0.9615
vn -0.1317 -0.0248 -0.9910
vn 0.6594 0.0000 0.7518
vn 0.5377 -0.0000 0.8432
vn 0.4230 -0.0000 0.9061
vn 0.3011 -0.0000 0.9536
vn 0.1741 0.0000 0.9847
vn 0.0441 -0.0000 0.9990
vn -0.0129 -0.0000 0.9999
vn 0.2965 0.0000 0.9550
vn 0.4315 0.0000 0.9021
vn 0.5575 -0.0000 0.8302
vn 0.6717 0.0000 0.7408
vn 0.8557 -0.0000 0.5175
vn 0.9993 0.0000 -0.0366
vn 0.0129 0.0000 -0.9999
vn -0.0655 -0.0223 -0.9976
vn -0.1951 -0.0223 -0.9805
vn -0.3215 -0.0223 -0.9467
vn -0.4423 -0.0223 -0.8966
vn -0.5556 -0.0223 -0.8312
vn -0.6594 -0.0000 -0.7518
vn -0.8313 0.0223 -0.5554
vn -0.8967 0.0223 -0.4422
vn -0.9467 0.0223 -0.3214
usemtl Default_OBJ.003
s 1
f 1//1 2//1 3//1
f 4//2 5//2 6//2
f 7//3 8//3 9//4
f 10//5 11//6 12//7
f 13//8 14//9 15//10
f 16//11 17//12 18//13
f 19//14 20//15 21//16
f 22//17 23//18 24//19
f 25//20 26//21 27//22
f 28//23 29//24 30//25
f 31//26 32//27 33//28
f 34//29 35//30 36//31
f 37//32 38//33 39//32
f 40//34 41//35 42//35
f 43//36 44//37 45//38
f 46//39 47//40 48//41
f 49//42 50//43 51//43
f 52//44 53//45 54//46
f 55//47 56//47 57//47
f 57//47 56//47 58//47
f 56//47 59//47 58//47
f 59//47 60//47 58//47
f 58//47 60//47 61//47
f 60//47 62//47 61//47
f 62//47 63//47 61//47
f 61//47 63//47 64//47
f 63//47 65//47 64//47
f 65//47 66//47 64//47
f 64//47 66//47 67//47
f 66//47 68//47 67//47
f 68//47 69//47 67//47
f 69//47 70//47 67//47
f 67//47 70//47 71//47
f 71//47 72//47 73//47
f 72//47 71//47 70//47
f 72//47 74//47 73//47
f 73//47 74//47 75//47
f 75//47 74//47 76//47
f 76//47 74//47 77//47
f 77//47 74//47 78//47
f 78//47 74//47 79//47
f 80//47 79//47 74//47
f 81//48 82//48 83//48
f 82//48 81//48 84//48
f 83//48 82//48 85//48
f 85//48 82//48 86//48
f 86//48 82//48 87//48
f 87//48 82//48 88//48
f 88//48 82//48 89//48
f 88//48 89//48 90//48
f 91//48 90//48 89//48
f 90//48 91//48 92//48
f 92//48 91//48 93//48
f 92//48 93//48 94//48
f 92//48 94//48 95//48
f 96//48 95//48 97//48
f 92//48 95//48 96//48
f 96//48 97//48 98//48
f 96//48 98//48 99//48
f 99//48 98//48 100//48
f 99//48 100//48 101//48
f 99//48 101//48 102//48
f 102//48 101//48 103//48
f 102//48 103//48 104//48
f 105//48 104//48 106//48
f 102//48 104//48 105//48
f 107//49 108//50 109//51
f 110//52 111//53 112//52
f 113//54 114//55 115//56
f 116//57 117//58 118//59
f 119//60 120//61 121//62
f 122//63 123//63 124//64
f 122//63 125//65 123//63
f 126//66 127//67 128//68
f 129//69 130//70 131//71
f 132//72 133//73 134//74
f 135//75 136//76 137//77
f 138//78 139//79 140//80
f 141//81 142//82 143//83
f 144//84 145//85 146//86
f 147//87 148//88 149//89
f 150//90 151//91 152//92
f 153//93 154//94 155//95
f 156//96 157//97 158//98
f 159//99 160//100 161//101
f 162//102 163//103 164//103
f 165//104 145//85 166//105
f 144//84 142//82 145//85
f 141//81 167//106 142//82
f 108//50 112//52 111//53
f 168//107 109//51 108//50
f 169//108 170//109 171//110
f 172//111 173//112 174//113
f 175//114 176//115 177//116
f 178//117 179//118 180//119
f 181//120 182//121 183//122
f 184//123 185//124 186//125
f 187//126 188//126 189//126
f 187//126 190//126 188//126
f 191//127 192//127 193//127
f 194//128 195//129 196//128
f 197//130 198//45 199//131
f 200//132 201//43 202//133
f 203//134 204//135 205//41
f 206//136 207//137 208//36
f 209//138 210//139 211//140
f 184//123 212//141 185//124
f 181//120 185//124 182//121
f 178//117 182//121 179//118
f 175//114 179//118 176//115
f 172//111 176//115 173//112
f 169//108 173//112 170//109
f 213//142 214//143 215//144
f 216//145 217//146 218//147
f 219//148 220//149 221//150
f 222//28 223//26 224//27
f 225//151 226//152 227//24
f 228//153 229//154 230//153
f 228//153 231//155 232//156
f 232//157 233//158 234//159
f 234//160 235//161 236//162
f 236//163 237//164 238//165
f 238//166 239//5 240//167
f 240//168 241//169 242//170
f 243//171 244//171 245//171
f 246//172 247//172 248//172
f 249//146 250//173 251//174
f 252//175 253//176 254//176
f 255//177 256//178 257//179
f 258//180 259//181 260//182
f 261//183 262//184 263//185
f 264//186 265//187 266//153
f 267//127 268//127 269//127
f 270//188 271//189 272//190
f 273//191 274//101 275//192
f 276//193 277//194 278//195
f 279//196 280//95 281//197
f 282//198 283//92 284//199
f 265//187 285//200 266//153
f 264//186 262//184 265//187
f 261//183 259//181 262//184
f 258//180 256//178 259//181
f 286//201 287//202 288//201
f 289//203 290//75 291//76
f 292//204 293//72 294//205
f 295//206 296//69 297//207
f 298//208 299//66 300//209
f 301//210 302//211 303//212
f 304//213 305//214 306//215
f 307//216 308//217 304//218
f 309//219 310//57 307//220
f 311//221 312//54 309//222
f 4//2 313//2 5//2
f 40//34 44//223 41//35
f 43//36 47//224 44//37
f 46//39 50//134 47//40
f 49//42 53//225 50//43
f 52//44 314//226 53//45
f 147//87 315//227 148//88
f 150//90 148//228 151//91
f 153//93 151//229 154//94
f 156//96 154//230 157//97
f 159//99 157//231 160//100
f 162//102 160//232 163//103
f 165//104 146//86 145//85
f 144//84 143//83 142//82
f 141//81 316//106 167//106
f 108//50 107//49 112//52
f 168//107 317//107 109//51
f 187//126 318//126 190//126
f 191//127 319//127 192//127
f 184//123 320//141 212//141
f 181//120 186//125 185//124
f 178//117 183//122 182//121
f 175//114 180//119 179//118
f 172//111 177//116 176//115
f 169//108 174//113 173//112
f 213//142 321//233 214//143
f 216//145 213//146 217//146
f 219//148 216//234 220//149
f 222//28 219//235 223//26
f 225//151 222//236 226//152
f 228//153 225//237 229//154
f 228//153 230//153 231//155
f 232//157 322//238 233//158
f 234//160 323//13 235//161
f 236//163 324//10 237//164
f 238//166 325//7 239//5
f 240//168 326//239 241//169
f 246//172 327//172 247//172
f 252//175 328//240 253//176
f 264//186 263//185 262//184
f 261//183 260//182 259//181
f 258//180 257//179 256//178
f 286//201 289//241 287//202
f 289//203 292//242 290//75
f 292//204 295//243 293//72
f 295//206 298//244 296//69
f 298//208 301//245 299//66
f 301//210 306//246 302//211
f 304//213 329//213 305//214
f 307//216 330//247 308//217
f 309//219 331//248 310//57
f 311//221 332//249 312//54