# Blender v3.0.1 OBJ File: ''
# www.blender.org
mtllib 07.mtl
o model.011_model.28575
v 0.533013 -0.428127 -0.177140
v 0.533359 0.175087 -0.187730
v 0.533701 -0.428127 -0.198178
v 0.533359 0.175087 -0.187730
v 0.533013 -0.428127 -0.177140
v 0.533701 -0.428127 -0.198178
v 0.542539 -0.428127 -0.202802
v 0.539039 0.175087 -0.203032
v 0.542539 0.175087 -0.202802
v 0.551058 -0.428127 -0.201108
v 0.547618 0.175087 -0.201792
v 0.551058 0.175087 -0.201108
v 0.559283 -0.428127 -0.198316
v 0.555962 0.175087 -0.199443
v 0.559283 0.175087 -0.198316
v 0.567073 -0.428127 -0.194474
v 0.563928 0.175087 -0.196025
v 0.567073 0.175087 -0.194474
v 0.574295 -0.428127 -0.189649
v 0.571379 0.175087 -0.191597
v 0.574295 0.175087 -0.189649
v 0.580825 -0.428127 -0.183922
v 0.578189 0.175087 -0.186234
v 0.580825 0.175087 -0.183922
v 0.583138 0.175087 -0.181285
v 0.585419 -0.428127 -0.178684
v 0.586552 -0.428127 -0.177391
v 0.588501 0.175087 -0.174475
v 0.590423 -0.428127 -0.171599
v 0.591378 -0.428127 -0.170169
v 0.592929 0.175087 -0.167024
v 0.594459 -0.428127 -0.163921
v 0.595220 -0.428127 -0.162379
v 0.596347 0.175087 -0.159058
v 0.597459 -0.428127 -0.155782
v 0.598012 -0.428127 -0.154154
v 0.598696 0.175087 -0.150714
v 0.599371 -0.428127 -0.147321
v 0.599706 -0.428127 -0.145635
v 0.599936 0.175087 -0.142135
v 0.600162 -0.428127 -0.138683
v 0.535587 -0.428127 -0.203258
v 0.533871 0.175087 -0.203371
v 0.533871 -0.428127 -0.203371
v 0.544225 -0.428127 -0.202467
v 0.542539 0.175087 -0.202802
v 0.542539 -0.428127 -0.202802
v 0.552686 -0.428127 -0.200555
v 0.551058 0.175087 -0.201108
v 0.551058 -0.428127 -0.201108
v 0.560825 -0.428127 -0.197555
v 0.559283 0.175087 -0.198316
v 0.559283 -0.428127 -0.198316
v 0.568502 -0.428127 -0.193519
v 0.567073 0.175087 -0.194474
v 0.567073 -0.428127 -0.194474
v 0.575588 -0.428127 -0.188515
v 0.574295 0.175087 -0.189649
v 0.574295 -0.428127 -0.189649
v 0.583138 0.175087 -0.181285
v 0.580825 -0.428127 -0.183922
v 0.585419 -0.428127 -0.178684
v 0.588501 0.175087 -0.174475
v 0.586552 -0.428127 -0.177391
v 0.590423 -0.428127 -0.171599
v 0.592929 0.175087 -0.167024
v 0.591378 -0.428127 -0.170169
v 0.594459 -0.428127 -0.163921
v 0.596347 0.175087 -0.159058
v 0.595220 -0.428127 -0.162379
v 0.597459 -0.428127 -0.155782
v 0.598696 0.175087 -0.150714
v 0.598012 -0.428127 -0.154154
v 0.599371 -0.428127 -0.147321
v 0.599936 0.175087 -0.142135
v 0.599706 -0.428127 -0.145635
v 0.600162 -0.428127 -0.138683
v 0.533013 -0.428127 -0.177140
v 0.535233 0.175087 -0.177169
v 0.533013 0.175087 -0.177140
v 0.538513 -0.428127 -0.177211
v 0.540715 0.175087 -0.176919
v 0.538513 0.175087 -0.177211
v 0.543966 -0.428127 -0.176486
v 0.546102 0.175087 -0.175878
v 0.543966 0.175087 -0.176486
v 0.549257 -0.428127 -0.174980
v 0.551282 0.175087 -0.174070
v 0.549257 0.175087 -0.174980
v 0.554274 -0.428127 -0.172725
v 0.556146 0.175087 -0.171531
v 0.554274 0.175087 -0.172725
v 0.558912 -0.428127 -0.169767
v 0.560592 0.175087 -0.168315
v 0.558912 0.175087 -0.169767
v 0.566671 -0.428127 -0.162008
v 0.565218 0.175087 -0.163688
v 0.563786 -0.428127 -0.165346
v 0.569628 -0.428127 -0.157370
v 0.568434 0.175087 -0.159243
v 0.567256 -0.428127 -0.161090
v 0.571884 -0.428127 -0.152353
v 0.570973 0.175087 -0.154378
v 0.570075 -0.428127 -0.156377
v 0.573390 -0.428127 -0.147062
v 0.572782 0.175087 -0.149198
v 0.572182 -0.428127 -0.151306
v 0.574115 -0.428127 -0.141609
v 0.573822 0.175087 -0.143811
v 0.573534 -0.428127 -0.145983
v 0.574044 -0.428127 -0.136109
v 0.574073 0.175087 -0.138330
v 0.574101 -0.428127 -0.140520
v 0.537424 -0.428127 -0.177197
v 0.538513 0.175087 -0.177211
v 0.538513 -0.428127 -0.177211
v 0.542886 -0.428127 -0.176630
v 0.543966 0.175087 -0.176486
v 0.543966 -0.428127 -0.176486
v 0.548209 -0.428127 -0.175278
v 0.549257 0.175087 -0.174980
v 0.549257 -0.428127 -0.174980
v 0.553281 -0.428127 -0.173171
v 0.554274 0.175087 -0.172725
v 0.554274 -0.428127 -0.172725
v 0.557994 -0.428127 -0.170352
v 0.558912 0.175087 -0.169767
v 0.558912 -0.428127 -0.169767
v 0.562250 -0.428127 -0.166882
v 0.563073 0.175087 -0.166170
v 0.563073 -0.428127 -0.166170
v 0.565218 0.175087 -0.163688
v 0.566671 -0.428127 -0.162008
v 0.563786 -0.428127 -0.165346
v 0.568434 0.175087 -0.159243
v 0.569628 -0.428127 -0.157370
v 0.567256 -0.428127 -0.161090
v 0.570973 0.175087 -0.154378
v 0.571884 -0.428127 -0.152353
v 0.570075 -0.428127 -0.156377
v 0.572782 0.175087 -0.149198
v 0.573390 -0.428127 -0.147062
v 0.572182 -0.428127 -0.151306
v 0.573822 0.175087 -0.143811
v 0.574115 -0.428127 -0.141609
v 0.573534 -0.428127 -0.145983
v 0.574073 0.175087 -0.138330
v 0.574044 -0.428127 -0.136109
v 0.574101 -0.428127 -0.140520
v 0.574044 -0.428127 -0.136109
v 0.584634 0.175087 -0.136456
v 0.574044 0.175087 -0.136109
v 0.595082 -0.428127 -0.136798
v 0.600274 0.175087 -0.136968
v 0.600274 -0.428127 -0.136968
v 0.600274 0.175087 -0.136968
v 0.563073 0.175087 -0.166170
v 0.562250 -0.428127 -0.166882
v 0.563073 -0.428127 -0.166170
v 0.533871 0.175087 -0.203371
v 0.533871 0.175087 -0.203371
v 0.533871 0.175087 -0.203371
v 0.535587 -0.428127 -0.203258
v 0.533871 -0.428127 -0.203371
v 0.544225 -0.428127 -0.202467
v 0.552686 -0.428127 -0.200555
v 0.560825 -0.428127 -0.197555
v 0.568502 -0.428127 -0.193519
v 0.575588 -0.428127 -0.188515
v 0.586552 0.175087 -0.177391
v 0.591378 0.175087 -0.170169
v 0.595220 0.175087 -0.162379
v 0.598012 0.175087 -0.154154
v 0.599706 0.175087 -0.145635
v 0.600274 0.175087 -0.136968
v 0.539039 0.175087 -0.203032
v 0.547618 0.175087 -0.201792
v 0.555962 0.175087 -0.199443
v 0.563928 0.175087 -0.196025
v 0.571379 0.175087 -0.191597
v 0.578189 0.175087 -0.186234
v 0.580825 0.175087 -0.183922
v 0.586552 0.175087 -0.177391
v 0.591378 0.175087 -0.170169
v 0.595220 0.175087 -0.162379
v 0.598012 0.175087 -0.154154
v 0.599706 0.175087 -0.145635
v 0.537424 -0.428127 -0.177197
v 0.542886 -0.428127 -0.176630
v 0.548209 -0.428127 -0.175278
v 0.553281 -0.428127 -0.173171
v 0.557994 -0.428127 -0.170352
v 0.566671 0.175087 -0.162008
v 0.569628 0.175087 -0.157370
v 0.571884 0.175087 -0.152353
v 0.573390 0.175087 -0.147062
v 0.574115 0.175087 -0.141609
v 0.535233 0.175087 -0.177169
v 0.533013 -0.428127 -0.177140
v 0.533013 0.175087 -0.177140
v 0.540715 0.175087 -0.176919
v 0.546102 0.175087 -0.175878
v 0.551282 0.175087 -0.174070
v 0.556146 0.175087 -0.171531
v 0.560592 0.175087 -0.168315
v 0.566671 0.175087 -0.162008
v 0.569628 0.175087 -0.157370
v 0.571884 0.175087 -0.152353
v 0.573390 0.175087 -0.147062
v 0.574115 0.175087 -0.141609
v 0.600274 0.175087 -0.136968
v 0.595082 -0.428127 -0.136798
v 0.600274 -0.428127 -0.136968
v 0.584634 0.175087 -0.136456
v 0.574044 -0.428127 -0.136109
v 0.574044 0.175087 -0.136109
v 0.533013 0.175087 -0.177140
v 0.533013 0.175087 -0.177140
v 0.574044 0.175087 -0.136109
v 0.574044 0.175087 -0.136109
v 0.600274 -0.428127 -0.136968
v 0.533871 -0.428127 -0.203371
v 0.533871 -0.428127 -0.203371
v 0.600274 -0.428127 -0.136968
vn -0.9995 -0.0000 -0.0327
vn 0.9995 0.0000 0.0327
vn 0.1523 -0.0000 -0.9883
vn 0.0654 -0.0107 -0.9978
vn 0.1087 0.0000 -0.9941
vn 0.2800 0.0000 -0.9600
vn 0.1741 0.0000 -0.9847
vn 0.2375 -0.0000 -0.9714
vn 0.4029 0.0000 -0.9152
vn 0.3011 -0.0000 -0.9536
vn 0.3623 -0.0000 -0.9321
vn 0.4999 0.0220 -0.8658
vn 0.4614 -0.0000 -0.8872
vn 0.5189 -0.0000 -0.8548
vn 0.6260 0.0000 -0.7798
vn 0.5377 0.0000 -0.8432
vn 0.5912 0.0000 -0.8065
vn 0.7071 -0.0000 -0.7071
vn 0.6593 -0.0107 -0.7518
vn 0.7588 0.0000 -0.6513
vn 0.7412 0.0000 -0.6713
vn 0.7798 0.0000 -0.6260
vn 0.8432 0.0000 -0.5377
vn 0.8194 0.0000 -0.5732
vn 0.8548 0.0000 -0.5189
vn 0.9061 -0.0000 -0.4230
vn 0.8872 0.0000 -0.4614
vn 0.9152 0.0000 -0.4029
vn 0.9536 -0.0000 -0.3011
vn 0.9398 0.0000 -0.3416
vn 0.9600 0.0000 -0.2800
vn 0.9847 0.0000 -0.1741
vn 0.9764 0.0000 -0.2160
vn 0.9883 -0.0000 -0.1523
vn 0.9985 0.0000 -0.0547
vn 0.9975 -0.0000 -0.0707
vn -0.0615 0.0039 0.9981
vn -0.0655 0.0000 0.9979
vn -0.0657 -0.0000 0.9978
vn -0.2169 -0.0000 0.9762
vn -0.1090 -0.0000 0.9940
vn -0.1520 -0.0000 0.9884
vn -0.3425 -0.0000 0.9395
vn -0.2378 -0.0000 0.9713
vn -0.2797 -0.0000 0.9601
vn -0.4622 -0.0000 0.8868
vn -0.3626 0.0000 0.9319
vn -0.4026 0.0000 0.9154
vn -0.5740 -0.0000 0.8189
vn -0.4811 0.0000 0.8767
vn -0.5187 0.0000 0.8550
vn -0.6681 0.0118 0.7440
vn -0.5914 -0.0000 0.8064
vn -0.6258 -0.0000 0.7800
vn -0.7591 -0.0000 0.6509
vn -0.7071 0.0000 0.7071
vn -0.7407 -0.0000 0.6718
vn -0.8437 -0.0000 0.5369
vn -0.7800 -0.0000 0.6258
vn -0.8189 -0.0000 0.5740
vn -0.9065 0.0000 0.4222
vn -0.8550 0.0000 0.5186
vn -0.8868 0.0000 0.4622
vn -0.9538 0.0000 0.3003
vn -0.9154 -0.0000 0.4026
vn -0.9395 -0.0000 0.3425
vn -0.9849 -0.0000 0.1732
vn -0.9601 -0.0000 0.2796
vn -0.9762 -0.0000 0.2169
vn -0.9985 -0.0000 0.0543
vn -0.9884 0.0000 0.1520
vn -0.9975 0.0000 0.0710
vn 0.0129 0.0000 0.9999
vn 0.0006 -0.0000 1.0000
vn 0.0130 -0.0000 0.9999
vn -0.0356 0.0000 0.9994
vn -0.1563 -0.0000 0.9877
vn -0.0835 -0.0000 0.9965
vn -0.1798 -0.0000 0.9837
vn -0.2975 0.0000 0.9547
vn -0.2268 -0.0000 0.9739
vn -0.3201 0.0000 0.9474
vn -0.4326 0.0000 0.9016
vn -0.3653 0.0000 0.9309
vn -0.4538 -0.0000 0.8911
vn -0.5584 0.0000 0.8296
vn -0.4961 0.0000 0.8683
vn -0.5779 -0.0000 0.8161
vn -0.6633 -0.0000 0.7483
vn -0.6165 0.0000 0.7874
vn -0.8017 0.0240 0.5972
vn -0.7565 0.0124 0.6539
vn -0.7536 -0.0044 0.6573
vn -0.8797 0.0240 0.4750
vn -0.8562 0.0000 0.5166
vn -0.8429 0.0248 0.5375
vn -0.9474 0.0000 0.3201
vn -0.9016 -0.0000 0.4325
vn -0.9220 0.0000 0.3873
vn -0.9788 -0.0240 0.2033
vn -0.9547 0.0000 0.2975
vn -0.9683 -0.0000 0.2499
vn -0.9979 0.0240 0.0595
vn -0.9877 -0.0000 0.1563
vn -0.9942 -0.0000 0.1072
vn -0.9999 0.0000 -0.0129
vn -0.9998 -0.0124 -0.0130
vn -0.9996 0.0131 -0.0261
vn -0.0307 -0.0000 -0.9995
vn 0.0839 0.0000 -0.9965
vn 0.0352 -0.0000 -0.9994
vn 0.1083 -0.0000 -0.9941
vn 0.2272 0.0000 -0.9739
vn 0.1794 0.0000 -0.9838
vn 0.2509 0.0000 -0.9680
vn 0.3657 -0.0000 -0.9308
vn 0.3198 -0.0000 -0.9475
vn 0.3883 -0.0000 -0.9215
vn 0.4964 -0.0000 -0.8681
vn 0.4536 0.0000 -0.8912
vn 0.5175 0.0000 -0.8557
vn 0.6168 -0.0000 -0.7871
vn 0.5776 0.0000 -0.8163
vn 0.6495 0.0000 -0.7604
vn 0.7072 0.0000 -0.7070
vn 0.7565 -0.0118 -0.6539
vn 0.8163 -0.0000 -0.5776
vn 0.7538 0.0042 -0.6571
vn 0.8302 -0.0000 -0.5575
vn 0.8913 -0.0000 -0.4535
vn 0.8557 -0.0000 -0.5175
vn 0.9021 0.0000 -0.4315
vn 0.9391 -0.0244 -0.3427
vn 0.9215 0.0000 -0.3883
vn 0.9680 -0.0000 -0.2509
vn 0.9838 0.0000 -0.1794
vn 0.9615 -0.0237 -0.2737
vn 0.9879 0.0000 -0.1552
vn 0.9979 -0.0244 -0.0596
vn 0.9941 0.0000 -0.1083
vn 0.9998 0.0118 0.0130
vn 0.9999 -0.0000 0.0129
vn 0.9996 -0.0125 0.0255
vn 0.0327 0.0000 0.9995
vn -0.0327 0.0000 -0.9995
vn -0.9979 -0.0000 0.0653
vn -0.7072 -0.0000 0.7070
vn -0.6494 -0.0000 0.7605
vn 0.0655 -0.0000 -0.9979
vn 0.0616 0.0038 -0.9981
vn 0.0657 0.0000 -0.9978
vn 0.2160 0.0000 -0.9764
vn 0.3416 0.0000 -0.9399
vn 0.4422 0.0214 -0.8967
vn 0.5732 0.0000 -0.8194
vn 0.6678 0.0113 -0.7443
vn 0.8065 0.0000 -0.5912
vn 0.8768 0.0000 -0.4808
vn 0.9321 -0.0000 -0.3623
vn 0.9714 -0.0000 -0.2375
vn 0.9941 0.0000 -0.1087
vn 0.9979 0.0000 -0.0653
vn -0.0654 -0.0111 0.9978
vn -0.1732 -0.0000 0.9849
vn -0.3003 0.0000 0.9538
vn -0.4222 0.0000 0.9065
vn -0.5369 0.0000 0.8436
vn -0.6593 -0.0111 0.7518
vn -0.8064 -0.0000 0.5914
vn -0.8767 -0.0000 0.4811
vn -0.9320 0.0000 0.3626
vn -0.9713 0.0000 0.2378
vn -0.9940 -0.0000 0.1090
vn 0.0315 0.0000 0.9995
vn -0.1072 0.0000 0.9942
vn -0.2499 -0.0000 0.9683
vn -0.3873 0.0000 0.9219
vn -0.5165 0.0000 0.8563
vn -0.8161 0.0000 0.5780
vn -0.8911 -0.0000 0.4538
vn -0.9309 0.0000 0.3653
vn -0.9837 -0.0000 0.1797
vn -0.9994 0.0000 0.0356
vn -0.0011 0.0000 -1.0000
vn -0.0129 -0.0000 -0.9999
vn -0.0130 0.0000 -0.9999
vn 0.1552 0.0000 -0.9879
vn 0.2965 -0.0000 -0.9550
vn 0.4315 -0.0000 -0.9021
vn 0.5575 -0.0000 -0.8302
vn 0.6629 0.0000 -0.7487
vn 0.7871 -0.0000 -0.6168
vn 0.8681 0.0000 -0.4964
vn 0.9475 0.0000 -0.3198
vn 0.9739 -0.0000 -0.2272
vn 0.9994 0.0000 -0.0352
vn -0.9999 0.0000 -0.0131
vn 0.9999 -0.0000 0.0131
vn -0.9979 0.0000 0.0652
vn 0.9979 0.0000 -0.0652
usemtl Default_OBJ.004
s 1
f 1//1 2//1 3//1
f 4//2 5//2 6//2
f 7//3 8//4 9//5
f 10//6 11//7 12//8
f 13//9 14//10 15//11
f 16//12 17//13 18//14
f 19//15 20//16 21//17
f 22//18 23//19 24//18
f 22//18 25//20 26//21
f 27//22 28//23 29//24
f 30//25 31//26 32//27
f 33//28 34//29 35//30
f 36//31 37//32 38//33
f 39//34 40//35 41//36
f 42//37 43//38 44//39
f 45//40 46//41 47//42
f 48//43 49//44 50//45
f 51//46 52//47 53//48
f 54//49 55//50 56//51
f 57//52 58//53 59//54
f 60//55 61//56 62//57
f 63//58 64//59 65//60
f 66//61 67//62 68//63
f 69//64 70//65 71//66
f 72//67 73//68 74//69
f 75//70 76//71 77//72
f 78//73 79//74 80//75
f 81//76 82//77 83//78
f 84//79 85//80 86//81
f 87//82 88//83 89//84
f 90//85 91//86 92//87
f 93//88 94//89 95//90
f 96//91 97//92 98//93
f 99//94 100//95 101//96
f 102//97 103//98 104//99
f 105//100 106//101 107//102
f 108//103 109//104 110//105
f 111//106 112//107 113//108
f 114//109 115//110 116//111
f 117//112 118//113 119//114
f 120//115 121//116 122//117
f 123//118 124//119 125//120
f 126//121 127//122 128//123
f 129//124 130//125 131//18
f 132//126 133//127 134//128
f 135//129 136//130 137//131
f 138//132 139//133 140//134
f 141//135 142//136 143//137
f 144//138 145//139 146//140
f 147//141 148//142 149//143
f 150//144 151//144 152//144
f 153//145 154//145 155//145
f 77//72 156//146 75//70
f 157//147 158//148 159//56
f 160//1 3//1 2//1
f 6//2 161//2 4//2
f 162//149 163//150 164//151
f 9//5 165//152 7//3
f 12//8 166//153 10//6
f 15//11 167//154 13//9
f 18//14 168//155 16//12
f 21//17 169//156 19//15
f 170//157 26//21 25//20
f 171//158 29//24 28//23
f 172//159 32//27 31//26
f 173//160 35//30 34//29
f 174//161 38//33 37//32
f 175//162 41//36 40//35
f 176//163 47//42 46//41
f 177//164 50//45 49//44
f 178//165 53//48 52//47
f 179//166 56//51 55//50
f 180//167 59//54 58//53
f 181//168 61//56 182//56
f 62//57 183//169 60//55
f 65//60 184//170 63//58
f 68//63 185//171 66//61
f 71//66 186//172 69//64
f 74//69 187//173 72//67
f 83//78 188//174 81//76
f 86//81 189//175 84//79
f 89//84 190//176 87//82
f 92//87 191//177 90//85
f 95//90 192//178 93//88
f 157//147 98//93 97//92
f 193//179 101//96 100//95
f 194//180 104//99 103//98
f 195//181 107//102 106//101
f 196//182 110//105 109//104
f 197//183 113//108 112//107
f 198//184 199//185 200//186
f 201//187 116//111 115//110
f 202//188 119//114 118//113
f 203//189 122//117 121//116
f 204//190 125//120 124//119
f 205//191 128//123 127//122
f 134//128 130//125 132//126
f 137//131 206//192 135//129
f 140//134 207//193 138//132
f 143//137 208//194 141//135
f 146//140 209//195 144//138
f 149//143 210//196 147//141
f 211//144 212//144 213//144
f 214//145 215//145 216//145
f 1//1 217//1 2//1
f 4//2 218//2 5//2
f 7//3 163//150 8//4
f 10//6 165//152 11//7
f 13//9 166//153 14//10
f 16//12 167//154 17//13
f 19//15 168//155 20//16
f 22//18 169//156 23//19
f 22//18 24//18 25//20
f 27//22 170//157 28//23
f 30//25 171//158 31//26
f 33//28 172//159 34//29
f 36//31 173//160 37//32
f 39//34 174//161 40//35
f 42//37 176//163 43//38
f 45//40 177//164 46//41
f 48//43 178//165 49//44
f 51//46 179//166 52//47
f 54//49 180//167 55//50
f 57//52 181//168 58//53
f 60//55 182//56 61//56
f 63//58 183//169 64//59
f 66//61 184//170 67//62
f 69//64 185//171 70//65
f 72//67 186//172 73//68
f 75//70 187//173 76//71
f 78//73 188//174 79//74
f 81//76 189//175 82//77
f 84//79 190//176 85//80
f 87//82 191//177 88//83
f 90//85 192//178 91//86
f 93//88 158//148 94//89
f 96//91 193//179 97//92
f 99//94 194//180 100//95
f 102//97 195//181 103//98
f 105//100 196//182 106//101
f 108//103 197//183 109//104
f 111//106 219//197 112//107
f 114//109 198//184 115//110
f 117//112 201//187 118//113
f 120//115 202//188 121//116
f 123//118 203//189 124//119
f 126//121 204//190 127//122
f 129//124 205//191 130//125
f 132//126 206//192 133//127
f 135//129 207//193 136//130
f 138//132 208//194 139//133
f 141//135 209//195 142//136
f 144//138 210//196 145//139
f 147//141 220//198 148//142
f 150//144 212//144 151//144
f 153//145 214//145 154//145
f 77//72 221//199 156//146
f 157//147 94//89 158//148
f 160//1 222//1 3//1
f 6//2 223//2 161//2
f 162//149 8//4 163//150
f 9//5 11//7 165//152
f 12//8 14//10 166//153
f 15//11 17//13 167//154
f 18//14 20//16 168//155
f 21//17 23//19 169//156
f 170//157 27//22 26//21
f 171//158 30//25 29//24
f 172//159 33//28 32//27
f 173//160 36//31 35//30
f 174//161 39//34 38//33
f 175//162 224//200 41//36
f 176//163 42//37 47//42
f 177//164 45//40 50//45
f 178//165 48//43 53//48
f 179//166 51//46 56//51
f 180//167 54//49 59//54
f 181//168 57//52 61//56
f 62//57 64//59 183//169
f 65//60 67//62 184//170
f 68//63 70//65 185//171
f 71//66 73//68 186//172
f 74//69 76//71 187//173
f 83//78 79//74 188//174
f 86//81 82//77 189//175
f 89//84 85//80 190//176
f 92//87 88//83 191//177
f 95//90 91//86 192//178
f 157//147 159//56 98//93
f 193//179 96//91 101//96
f 194//180 99//94 104//99
f 195//181 102//97 107//102
f 196//182 105//100 110//105
f 197//183 108//103 113//108
f 198//184 114//109 199//185
f 201//187 117//112 116//111
f 202//188 120//115 119//114
f 203//189 123//118 122//117
f 204//190 126//121 125//120
f 205//191 129//124 128//123
f 134//128 131//18 130//125
f 137//131 133//127 206//192
f 140//134 136//130 207//193
f 143//137 139//133 208//194
f 146//140 142//136 209//195
f 149//143 145//139 210//196
f 211//144 151//144 212//144
f 214//145 153//145 215//145