# Blender v3.0.1 OBJ File: ''
# www.blender.org
mtllib 08.mtl
o model.012_model.28576
v 0.533359 0.175087 0.186668
v 0.533013 -0.428127 0.176095
v 0.533700 -0.428127 0.197099
v 0.533013 -0.428127 0.176095
v 0.533359 0.175087 0.186668
v 0.533700 -0.428127 0.197099
v 0.535598 -0.428127 0.202212
v 0.533871 0.175087 0.202325
v 0.533871 -0.428127 0.202325
v 0.544236 -0.428127 0.201419
v 0.542539 0.175087 0.201757
v 0.542539 -0.428127 0.201757
v 0.552696 -0.428127 0.199506
v 0.551058 0.175087 0.200063
v 0.551058 -0.428127 0.200063
v 0.560835 -0.428127 0.196505
v 0.559283 0.175087 0.197271
v 0.559283 -0.428127 0.197271
v 0.568512 -0.428127 0.192467
v 0.567073 0.175087 0.193429
v 0.567073 -0.428127 0.193429
v 0.575596 -0.428127 0.187462
v 0.574295 0.175087 0.188603
v 0.574295 -0.428127 0.188603
v 0.583134 0.175087 0.180244
v 0.580825 -0.428127 0.182876
v 0.585411 -0.428127 0.177647
v 0.588498 0.175087 0.173435
v 0.586552 -0.428127 0.176346
v 0.590417 -0.428127 0.170563
v 0.592927 0.175087 0.165984
v 0.591378 -0.428127 0.169124
v 0.594454 -0.428127 0.162886
v 0.596345 0.175087 0.158018
v 0.595220 -0.428127 0.161334
v 0.597455 -0.428127 0.154747
v 0.598695 0.175087 0.149675
v 0.598012 -0.428127 0.153109
v 0.599369 -0.428127 0.146287
v 0.599935 0.175087 0.141096
v 0.599706 -0.428127 0.144589
v 0.600161 -0.428127 0.137649
v 0.542539 -0.428127 0.201757
v 0.539045 0.175087 0.201986
v 0.542539 0.175087 0.201757
v 0.551058 -0.428127 0.200063
v 0.547624 0.175087 0.200746
v 0.551058 0.175087 0.200063
v 0.559283 -0.428127 0.197271
v 0.555967 0.175087 0.198396
v 0.559283 0.175087 0.197271
v 0.567073 -0.428127 0.193429
v 0.563933 0.175087 0.194977
v 0.567073 0.175087 0.193429
v 0.574295 -0.428127 0.188603
v 0.571384 0.175087 0.190548
v 0.574295 0.175087 0.188603
v 0.580825 -0.428127 0.182876
v 0.578193 0.175087 0.185185
v 0.580825 0.175087 0.182876
v 0.583134 0.175087 0.180244
v 0.585411 -0.428127 0.177647
v 0.586552 -0.428127 0.176346
v 0.588498 0.175087 0.173435
v 0.590417 -0.428127 0.170563
v 0.591378 -0.428127 0.169124
v 0.592927 0.175087 0.165984
v 0.594454 -0.428127 0.162886
v 0.595220 -0.428127 0.161334
v 0.596345 0.175087 0.158018
v 0.597455 -0.428127 0.154747
v 0.598012 -0.428127 0.153109
v 0.598695 0.175087 0.149675
v 0.599369 -0.428127 0.146287
v 0.599706 -0.428127 0.144589
v 0.599935 0.175087 0.141096
v 0.600161 -0.428127 0.137649
v 0.537417 -0.428127 0.176152
v 0.538513 0.175087 0.176166
v 0.538513 -0.428127 0.176166
v 0.542880 -0.428127 0.175585
v 0.543966 0.175087 0.175441
v 0.543966 -0.428127 0.175441
v 0.548203 -0.428127 0.174235
v 0.549257 0.175087 0.173935
v 0.549257 -0.428127 0.173935
v 0.553274 -0.428127 0.172129
v 0.554274 0.175087 0.171679
v 0.554274 -0.428127 0.171679
v 0.557988 -0.428127 0.169311
v 0.558912 0.175087 0.168722
v 0.558912 -0.428127 0.168722
v 0.562244 -0.428127 0.165841
v 0.563073 0.175087 0.165124
v 0.563073 -0.428127 0.165124
v 0.565221 0.175087 0.162640
v 0.566671 -0.428127 0.160963
v 0.563790 -0.428127 0.164295
v 0.568436 0.175087 0.158194
v 0.569628 -0.428127 0.156325
v 0.567260 -0.428127 0.160039
v 0.570975 0.175087 0.153330
v 0.571884 -0.428127 0.151307
v 0.570078 -0.428127 0.155325
v 0.572783 0.175087 0.148149
v 0.573390 -0.428127 0.146017
v 0.572184 -0.428127 0.150253
v 0.573823 0.175087 0.142762
v 0.574115 -0.428127 0.140564
v 0.573535 -0.428127 0.144930
v 0.574073 0.175087 0.137281
v 0.574044 -0.428127 0.135063
v 0.574101 -0.428127 0.139468
v 0.533013 -0.428127 0.176095
v 0.535230 0.175087 0.176123
v 0.533013 0.175087 0.176095
v 0.538513 -0.428127 0.176166
v 0.540711 0.175087 0.175874
v 0.538513 0.175087 0.176166
v 0.543966 -0.428127 0.175441
v 0.546099 0.175087 0.174834
v 0.543966 0.175087 0.175441
v 0.549257 -0.428127 0.173935
v 0.551279 0.175087 0.173026
v 0.549257 0.175087 0.173935
v 0.554274 -0.428127 0.171679
v 0.556143 0.175087 0.170487
v 0.554274 0.175087 0.171679
v 0.558912 -0.428127 0.168722
v 0.560589 0.175087 0.167272
v 0.558912 0.175087 0.168722
v 0.566671 -0.428127 0.160963
v 0.565221 0.175087 0.162640
v 0.563790 -0.428127 0.164295
v 0.569628 -0.428127 0.156325
v 0.568436 0.175087 0.158194
v 0.567260 -0.428127 0.160039
v 0.571884 -0.428127 0.151307
v 0.570975 0.175087 0.153330
v 0.570078 -0.428127 0.155325
v 0.573390 -0.428127 0.146017
v 0.572783 0.175087 0.148149
v 0.572184 -0.428127 0.150253
v 0.574115 -0.428127 0.140564
v 0.573823 0.175087 0.142762
v 0.573535 -0.428127 0.144930
v 0.574044 -0.428127 0.135063
v 0.574073 0.175087 0.137281
v 0.574101 -0.428127 0.139468
v 0.595048 -0.428127 0.135751
v 0.600274 0.175087 0.135922
v 0.600274 -0.428127 0.135922
v 0.574044 -0.428127 0.135063
v 0.584617 0.175087 0.135410
v 0.574044 0.175087 0.135063
v 0.600274 0.175087 0.135922
v 0.563073 0.175087 0.165124
v 0.562244 -0.428127 0.165841
v 0.563073 -0.428127 0.165124
v 0.533871 0.175087 0.202325
v 0.533871 0.175087 0.202325
v 0.539045 0.175087 0.201986
v 0.547624 0.175087 0.200746
v 0.555967 0.175087 0.198396
v 0.563933 0.175087 0.194977
v 0.571384 0.175087 0.190548
v 0.578193 0.175087 0.185185
v 0.580825 0.175087 0.182876
v 0.586552 0.175087 0.176346
v 0.591378 0.175087 0.169124
v 0.595220 0.175087 0.161334
v 0.598012 0.175087 0.153109
v 0.599706 0.175087 0.144589
v 0.533871 0.175087 0.202325
v 0.535598 -0.428127 0.202212
v 0.533871 -0.428127 0.202325
v 0.544236 -0.428127 0.201419
v 0.552696 -0.428127 0.199506
v 0.560835 -0.428127 0.196505
v 0.568512 -0.428127 0.192467
v 0.575596 -0.428127 0.187462
v 0.586552 0.175087 0.176346
v 0.591378 0.175087 0.169124
v 0.595220 0.175087 0.161334
v 0.598012 0.175087 0.153109
v 0.599706 0.175087 0.144589
v 0.600274 0.175087 0.135922
v 0.535230 0.175087 0.176123
v 0.533013 -0.428127 0.176095
v 0.533013 0.175087 0.176095
v 0.540711 0.175087 0.175874
v 0.546099 0.175087 0.174834
v 0.551279 0.175087 0.173026
v 0.556143 0.175087 0.170487
v 0.560589 0.175087 0.167272
v 0.566671 0.175087 0.160963
v 0.569628 0.175087 0.156325
v 0.571884 0.175087 0.151307
v 0.573390 0.175087 0.146017
v 0.574115 0.175087 0.140564
v 0.537417 -0.428127 0.176152
v 0.542880 -0.428127 0.175585
v 0.548203 -0.428127 0.174235
v 0.553274 -0.428127 0.172129
v 0.557988 -0.428127 0.169311
v 0.566671 0.175087 0.160963
v 0.569628 0.175087 0.156325
v 0.571884 0.175087 0.151307
v 0.573390 0.175087 0.146017
v 0.574115 0.175087 0.140564
v 0.584617 0.175087 0.135410
v 0.574044 -0.428127 0.135063
v 0.574044 0.175087 0.135063
v 0.600274 0.175087 0.135922
v 0.595048 -0.428127 0.135751
v 0.600274 -0.428127 0.135922
v 0.533013 0.175087 0.176095
v 0.533013 0.175087 0.176095
v 0.574044 0.175087 0.135063
v 0.574044 0.175087 0.135063
v 0.600274 -0.428127 0.135922
v 0.533871 -0.428127 0.202325
v 0.533871 -0.428127 0.202325
v 0.600274 -0.428127 0.135922
vn -0.9995 0.0000 0.0327
vn 0.9995 -0.0000 -0.0327
vn 0.0707 -0.0000 0.9975
vn 0.0654 0.0000 0.9979
vn 0.0653 -0.0000 0.9979
vn 0.2160 -0.0000 0.9764
vn 0.1087 -0.0000 0.9941
vn 0.1523 -0.0000 0.9883
vn 0.3416 -0.0000 0.9399
vn 0.2375 -0.0000 0.9714
vn 0.2800 -0.0000 0.9600
vn 0.4614 0.0000 0.8872
vn 0.3623 -0.0000 0.9321
vn 0.4029 -0.0000 0.9152
vn 0.5732 -0.0000 0.8194
vn 0.4809 -0.0000 0.8768
vn 0.5189 0.0000 0.8548
vn 0.6713 -0.0000 0.7412
vn 0.5912 -0.0000 0.8065
vn 0.6260 -0.0000 0.7798
vn 0.7518 -0.0107 0.6593
vn 0.7071 -0.0000 0.7071
vn 0.7443 0.0113 0.6678
vn 0.8431 0.0000 0.5377
vn 0.7797 0.0000 0.6261
vn 0.8194 -0.0000 0.5732
vn 0.8872 -0.0000 0.4614
vn 0.8548 0.0000 0.5189
vn 0.8967 -0.0214 0.4422
vn 0.9536 -0.0000 0.3011
vn 0.9237 -0.0220 0.3826
vn 0.9398 0.0000 0.3416
vn 0.9847 0.0000 0.1742
vn 0.9600 0.0000 0.2800
vn 0.9764 -0.0000 0.2160
vn 0.9978 -0.0107 0.0654
vn 0.9883 -0.0000 0.1523
vn 0.9981 0.0038 0.0617
vn -0.1520 0.0000 -0.9884
vn -0.0543 0.0000 -0.9985
vn -0.1090 0.0000 -0.9940
vn -0.2797 0.0000 -0.9601
vn -0.1732 0.0000 -0.9849
vn -0.2378 0.0000 -0.9713
vn -0.4026 0.0000 -0.9154
vn -0.3003 0.0000 -0.9539
vn -0.3626 0.0000 -0.9319
vn -0.5187 -0.0000 -0.8550
vn -0.4222 0.0000 -0.9065
vn -0.4811 0.0000 -0.8767
vn -0.6258 0.0000 -0.7800
vn -0.5369 0.0000 -0.8436
vn -0.5914 0.0000 -0.8064
vn -0.7071 0.0000 -0.7071
vn -0.6509 0.0000 -0.7592
vn -0.7518 -0.0111 -0.6593
vn -0.7440 0.0118 -0.6681
vn -0.7932 0.0217 -0.6086
vn -0.8189 -0.0000 -0.5740
vn -0.8313 0.0223 -0.5554
vn -0.8550 0.0000 -0.5186
vn -0.9065 0.0000 -0.4222
vn -0.8868 -0.0000 -0.4622
vn -0.9154 0.0000 -0.4026
vn -0.9538 0.0000 -0.3003
vn -0.9395 -0.0000 -0.3425
vn -0.9601 -0.0000 -0.2797
vn -0.9849 -0.0000 -0.1732
vn -0.9762 -0.0000 -0.2169
vn -0.9884 0.0000 -0.1520
vn -0.9978 -0.0112 -0.0654
vn -0.9981 0.0039 -0.0615
vn 0.0261 0.0131 -0.9996
vn -0.0356 -0.0000 -0.9994
vn -0.0596 0.0240 -0.9979
vn -0.1318 0.0248 -0.9910
vn -0.2268 0.0000 -0.9739
vn -0.1798 -0.0000 -0.9837
vn -0.2737 -0.0248 -0.9615
vn -0.3202 0.0000 -0.9474
vn -0.3427 -0.0240 -0.9391
vn -0.3873 0.0000 -0.9220
vn -0.4961 -0.0000 -0.8683
vn -0.4538 -0.0000 -0.8911
vn -0.5166 -0.0000 -0.8562
vn -0.6165 0.0000 -0.7874
vn -0.5780 0.0000 -0.8161
vn -0.6573 0.0044 -0.7536
vn -0.7484 -0.0000 -0.6633
vn -0.8161 0.0000 -0.5780
vn -0.7605 0.0000 -0.6493
vn -0.8296 0.0000 -0.5584
vn -0.8911 -0.0000 -0.4538
vn -0.8562 -0.0000 -0.5166
vn -0.9016 -0.0000 -0.4325
vn -0.9473 0.0000 -0.3202
vn -0.9220 0.0000 -0.3873
vn -0.9547 -0.0000 -0.2976
vn -0.9837 0.0000 -0.1797
vn -0.9683 0.0000 -0.2498
vn -0.9877 -0.0000 -0.1563
vn -0.9994 0.0000 -0.0356
vn -0.9942 0.0000 -0.1072
vn -1.0000 -0.0000 0.0006
vn -0.9999 0.0000 0.0129
vn -0.9995 0.0000 0.0315
vn -0.0129 0.0000 0.9999
vn -0.0130 -0.0118 0.9998
vn -0.0126 -0.0000 0.9999
vn 0.0596 0.0244 0.9979
vn 0.1083 -0.0000 0.9941
vn 0.0352 0.0000 0.9994
vn 0.1794 0.0000 0.9838
vn 0.2965 -0.0000 0.9550
vn 0.2272 0.0000 0.9739
vn 0.3198 -0.0000 0.9475
vn 0.4315 0.0000 0.9021
vn 0.3657 -0.0000 0.9307
vn 0.4535 0.0000 0.8913
vn 0.5575 -0.0000 0.8302
vn 0.4964 0.0000 0.8681
vn 0.5776 -0.0000 0.8163
vn 0.6539 -0.0118 0.7565
vn 0.6168 -0.0000 0.7871
vn 0.8163 -0.0000 0.5776
vn 0.7487 0.0000 0.6629
vn 0.7604 -0.0000 0.6495
vn 0.8912 0.0000 0.4535
vn 0.8302 0.0000 0.5574
vn 0.8556 0.0000 0.5176
vn 0.9475 -0.0000 0.3198
vn 0.9021 0.0000 0.4315
vn 0.9215 -0.0000 0.3884
vn 0.9838 0.0000 0.1794
vn 0.9550 0.0000 0.2965
vn 0.9680 0.0000 0.2509
vn 0.9994 0.0000 0.0352
vn 0.9879 0.0000 0.1552
vn 0.9941 0.0000 0.1083
vn 0.9999 -0.0000 -0.0129
vn 1.0000 0.0000 -0.0011
vn 0.9995 -0.0000 -0.0307
vn 0.0327 0.0000 -0.9995
vn -0.0327 -0.0000 0.9995
vn -0.0328 -0.0000 0.9995
vn 0.9979 0.0000 0.0654
vn 0.6571 0.0042 0.7538
vn 0.0547 -0.0000 0.9985
vn 0.1741 -0.0000 0.9847
vn 0.3011 -0.0000 0.9536
vn 0.4230 -0.0000 0.9061
vn 0.5377 -0.0000 0.8431
vn 0.6513 -0.0000 0.7588
vn 0.8065 0.0000 0.5912
vn 0.8768 0.0000 0.4808
vn 0.9153 -0.0000 0.4028
vn 0.9714 -0.0000 0.2375
vn 0.9941 0.0000 0.1087
vn -0.0654 -0.0000 -0.9979
vn -0.0710 0.0000 -0.9975
vn -0.0653 0.0000 -0.9979
vn -0.2169 0.0000 -0.9762
vn -0.3425 0.0000 -0.9395
vn -0.4622 -0.0000 -0.8868
vn -0.5740 0.0000 -0.8189
vn -0.6718 0.0000 -0.7407
vn -0.7800 0.0000 -0.6258
vn -0.8767 -0.0000 -0.4811
vn -0.9319 0.0000 -0.3626
vn -0.9713 0.0000 -0.2378
vn -0.9940 -0.0000 -0.1090
vn -0.9979 -0.0000 -0.0654
vn 0.0130 -0.0124 -0.9998
vn 0.0129 -0.0000 -0.9999
vn 0.0126 0.0000 -0.9999
vn -0.1072 0.0000 -0.9942
vn -0.2499 0.0000 -0.9683
vn -0.4325 -0.0000 -0.9016
vn -0.5584 0.0000 -0.8296
vn -0.6539 -0.0124 -0.7565
vn -0.7874 0.0000 -0.6165
vn -0.8683 -0.0000 -0.4961
vn -0.9309 -0.0000 -0.3653
vn -0.9739 -0.0000 -0.2268
vn -0.9965 -0.0000 -0.0835
vn -0.0255 0.0125 0.9996
vn 0.1318 0.0237 0.9910
vn 0.2510 -0.0000 0.9680
vn 0.3883 -0.0000 0.9215
vn 0.5175 0.0000 0.8557
vn 0.7871 -0.0000 0.6168
vn 0.8681 0.0000 0.4964
vn 0.9308 0.0000 0.3656
vn 0.9739 0.0000 0.2272
vn 0.9965 0.0000 0.0839
vn 0.0328 0.0000 -0.9995
vn -0.9999 -0.0000 0.0131
vn 0.9999 0.0000 -0.0131
vn 0.9979 -0.0000 0.0653
vn -0.9979 0.0000 -0.0653
usemtl Default_OBJ.010
s 1
f 1//1 2//1 3//1
f 4//2 5//2 6//2
f 7//3 8//4 9//5
f 10//6 11//7 12//8
f 13//9 14//10 15//11
f 16//12 17//13 18//14
f 19//15 20//16 21//17
f 22//18 23//19 24//20
f 25//21 26//22 27//23
f 28//24 29//25 30//26
f 31//27 32//28 33//29
f 34//30 35//31 36//32
f 37//33 38//34 39//35
f 40//36 41//37 42//38
f 43//39 44//40 45//41
f 46//42 47//43 48//44
f 49//45 50//46 51//47
f 52//48 53//49 54//50
f 55//51 56//52 57//53
f 58//54 59//55 60//54
f 58//54 61//56 62//57
f 63//58 64//59 65//60
f 66//61 67//62 68//63
f 69//64 70//65 71//66
f 72//67 73//68 74//69
f 75//70 76//71 77//72
f 78//73 79//74 80//75
f 81//76 82//77 83//78
f 84//79 85//80 86//81
f 87//82 88//83 89//84
f 90//85 91//86 92//87
f 93//88 94//54 95//54
f 96//89 97//90 98//91
f 99//92 100//93 101//94
f 102//95 103//96 104//97
f 105//98 106//99 107//100
f 108//101 109//102 110//103
f 111//104 112//105 113//106
f 114//107 115//108 116//109
f 117//110 118//111 119//112
f 120//113 121//114 122//115
f 123//116 124//117 125//118
f 126//119 127//120 128//121
f 129//122 130//123 131//124
f 132//125 133//126 134//127
f 135//128 136//129 137//130
f 138//131 139//132 140//133
f 141//134 142//135 143//136
f 144//137 145//138 146//139
f 147//140 148//141 149//142
f 150//143 151//143 152//143
f 153//144 154//144 155//145
f 42//38 156//146 40//36
f 157//22 158//147 159//22
f 3//1 160//1 1//1
f 161//2 6//2 5//2
f 162//148 12//8 11//7
f 163//149 15//11 14//10
f 164//150 18//14 17//13
f 165//151 21//17 20//16
f 166//152 24//20 23//19
f 167//153 26//22 168//22
f 27//23 169//154 25//21
f 30//26 170//155 28//24
f 33//29 171//156 31//27
f 36//32 172//157 34//30
f 39//35 173//158 37//33
f 174//159 175//160 176//161
f 45//41 177//162 43//39
f 48//44 178//163 46//42
f 51//47 179//164 49//45
f 54//50 180//165 52//48
f 57//53 181//166 55//51
f 182//167 62//57 61//56
f 183//168 65//60 64//59
f 184//169 68//63 67//62
f 185//170 71//66 70//65
f 186//171 74//69 73//68
f 187//172 77//72 76//71
f 188//173 189//174 190//175
f 191//176 80//75 79//74
f 192//177 83//78 82//77
f 193//178 86//81 85//80
f 194//179 89//84 88//83
f 195//180 92//87 91//86
f 98//91 94//54 96//89
f 101//94 196//181 99//92
f 104//97 197//182 102//95
f 107//100 198//183 105//98
f 110//103 199//184 108//101
f 113//106 200//185 111//104
f 119//112 201//186 117//110
f 122//115 202//187 120//113
f 125//118 203//188 123//116
f 128//121 204//189 126//119
f 131//124 205//190 129//122
f 157//22 134//127 133//126
f 206//191 137//130 136//129
f 207//192 140//133 139//132
f 208//193 143//136 142//135
f 209//194 146//139 145//138
f 210//195 149//142 148//141
f 211//143 212//143 213//196
f 214//144 215//144 216//144
f 1//1 217//1 2//1
f 4//2 218//2 5//2
f 7//3 162//148 8//4
f 10//6 163//149 11//7
f 13//9 164//150 14//10
f 16//12 165//151 17//13
f 19//15 166//152 20//16
f 22//18 167//153 23//19
f 25//21 168//22 26//22
f 28//24 169//154 29//25
f 31//27 170//155 32//28
f 34//30 171//156 35//31
f 37//33 172//157 38//34
f 40//36 173//158 41//37
f 43//39 175//160 44//40
f 46//42 177//162 47//43
f 49//45 178//163 50//46
f 52//48 179//164 53//49
f 55//51 180//165 56//52
f 58//54 181//166 59//55
f 58//54 60//54 61//56
f 63//58 182//167 64//59
f 66//61 183//168 67//62
f 69//64 184//169 70//65
f 72//67 185//170 73//68
f 75//70 186//171 76//71
f 78//73 188//173 79//74
f 81//76 191//176 82//77
f 84//79 192//177 85//80
f 87//82 193//178 88//83
f 90//85 194//179 91//86
f 93//88 195//180 94//54
f 96//89 196//181 97//90
f 99//92 197//182 100//93
f 102//95 198//183 103//96
f 105//98 199//184 106//99
f 108//101 200//185 109//102
f 111//104 219//197 112//105
f 114//107 201//186 115//108
f 117//110 202//187 118//111
f 120//113 203//188 121//114
f 123//116 204//189 124//117
f 126//119 205//190 127//120
f 129//122 158//147 130//123
f 132//125 206//191 133//126
f 135//128 207//192 136//129
f 138//131 208//193 139//132
f 141//134 209//194 142//135
f 144//137 210//195 145//138
f 147//140 220//198 148//141
f 150//143 211//143 151//143
f 153//144 215//144 154//144
f 42//38 221//199 156//146
f 157//22 130//123 158//147
f 3//1 222//1 160//1
f 161//2 223//2 6//2
f 162//148 7//3 12//8
f 163//149 10//6 15//11
f 164//150 13//9 18//14
f 165//151 16//12 21//17
f 166//152 19//15 24//20
f 167//153 22//18 26//22
f 27//23 29//25 169//154
f 30//26 32//28 170//155
f 33//29 35//31 171//156
f 36//32 38//34 172//157
f 39//35 41//37 173//158
f 174//159 44//40 175//160
f 45//41 47//43 177//162
f 48//44 50//46 178//163
f 51//47 53//49 179//164
f 54//50 56//52 180//165
f 57//53 59//55 181//166
f 182//167 63//58 62//57
f 183//168 66//61 65//60
f 184//169 69//64 68//63
f 185//170 72//67 71//66
f 186//171 75//70 74//69
f 187//172 224//200 77//72
f 188//173 78//73 189//174
f 191//176 81//76 80//75
f 192//177 84//79 83//78
f 193//178 87//82 86//81
f 194//179 90//85 89//84
f 195//180 93//88 92//87
f 98//91 95//54 94//54
f 101//94 97//90 196//181
f 104//97 100//93 197//182
f 107//100 103//96 198//183
f 110//103 106//99 199//184
f 113//106 109//102 200//185
f 119//112 115//108 201//186
f 122//115 118//111 202//187
f 125//118 121//114 203//188
f 128//121 124//117 204//189
f 131//124 127//120 205//190
f 157//22 159//22 134//127
f 206//191 132//125 137//130
f 207//192 135//128 140//133
f 208//193 138//131 143//136
f 209//194 141//134 146//139
f 210//195 144//137 149//142
f 211//143 150//143 212//143
f 214//144 154//144 215//144