# Blender v3.0.1 OBJ File: ''
# www.blender.org
mtllib 09.mtl
o model.013_model.28577
v -0.541644 -0.428127 0.201757
v -0.538144 0.175087 0.201986
v -0.541644 0.175087 0.201757
v -0.550163 -0.428127 0.200063
v -0.546723 0.175087 0.200747
v -0.550163 0.175087 0.200063
v -0.558388 -0.428127 0.197271
v -0.555067 0.175087 0.198398
v -0.558388 0.175087 0.197271
v -0.566178 -0.428127 0.193429
v -0.563032 0.175087 0.194980
v -0.566178 0.175087 0.193429
v -0.573400 -0.428127 0.188603
v -0.570484 0.175087 0.190552
v -0.573400 0.175087 0.188603
v -0.579930 -0.428127 0.182876
v -0.577294 0.175087 0.185189
v -0.579930 0.175087 0.182876
v -0.582243 0.175087 0.180239
v -0.584525 -0.428127 0.177638
v -0.585658 -0.428127 0.176346
v -0.587606 0.175087 0.173429
v -0.589529 -0.428127 0.170552
v -0.590483 -0.428127 0.169124
v -0.592034 0.175087 0.165978
v -0.593565 -0.428127 0.162875
v -0.594325 -0.428127 0.161334
v -0.595452 0.175087 0.158012
v -0.596565 -0.428127 0.154736
v -0.597117 -0.428127 0.153109
v -0.597801 0.175087 0.149669
v -0.598476 -0.428127 0.146275
v -0.598811 -0.428127 0.144589
v -0.599041 0.175087 0.141090
v -0.599267 -0.428127 0.137637
v -0.534691 -0.428127 0.202213
v -0.532977 0.175087 0.202325
v -0.532977 -0.428127 0.202325
v -0.543329 -0.428127 0.201422
v -0.541644 0.175087 0.201757
v -0.541644 -0.428127 0.201757
v -0.551790 -0.428127 0.199510
v -0.550163 0.175087 0.200063
v -0.550163 -0.428127 0.200063
v -0.559929 -0.428127 0.196511
v -0.558388 0.175087 0.197271
v -0.558388 -0.428127 0.197271
v -0.567607 -0.428127 0.192474
v -0.566178 0.175087 0.193429
v -0.566178 -0.428127 0.193429
v -0.574692 -0.428127 0.187470
v -0.573400 0.175087 0.188603
v -0.573400 -0.428127 0.188603
v -0.582243 0.175087 0.180239
v -0.579930 -0.428127 0.182876
v -0.584525 -0.428127 0.177638
v -0.587606 0.175087 0.173429
v -0.585658 -0.428127 0.176346
v -0.589529 -0.428127 0.170552
v -0.592034 0.175087 0.165978
v -0.590483 -0.428127 0.169124
v -0.593565 -0.428127 0.162875
v -0.595452 0.175087 0.158012
v -0.594325 -0.428127 0.161334
v -0.596565 -0.428127 0.154736
v -0.597801 0.175087 0.149669
v -0.597117 -0.428127 0.153109
v -0.598476 -0.428127 0.146275
v -0.599041 0.175087 0.141090
v -0.598811 -0.428127 0.144589
v -0.599267 -0.428127 0.137637
v -0.532118 -0.428127 0.176095
v -0.534339 0.175087 0.176123
v -0.532118 0.175087 0.176095
v -0.537618 -0.428127 0.176166
v -0.539820 0.175087 0.175873
v -0.537618 0.175087 0.176166
v -0.543071 -0.428127 0.175441
v -0.545208 0.175087 0.174833
v -0.543071 0.175087 0.175441
v -0.548362 -0.428127 0.173935
v -0.550388 0.175087 0.173024
v -0.548362 0.175087 0.173935
v -0.553379 -0.428127 0.171679
v -0.555252 0.175087 0.170485
v -0.553379 0.175087 0.171679
v -0.558017 -0.428127 0.168722
v -0.559698 0.175087 0.167269
v -0.558017 0.175087 0.168722
v -0.565776 -0.428127 0.160963
v -0.564323 0.175087 0.162643
v -0.562890 -0.428127 0.164301
v -0.568734 -0.428127 0.156325
v -0.567539 0.175087 0.158197
v -0.566361 -0.428127 0.160045
v -0.569644 0.175087 0.154299
v -0.568734 0.175087 0.156325
v -0.570989 -0.428127 0.151307
v -0.571597 0.175087 0.149171
v -0.570989 0.175087 0.151307
v -0.573220 -0.428127 0.140564
v -0.572928 0.175087 0.142766
v -0.572639 -0.428127 0.144938
v -0.573192 0.175087 0.138343
v -0.573220 0.175087 0.140564
v -0.536530 -0.428127 0.176152
v -0.537618 0.175087 0.176166
v -0.537618 -0.428127 0.176166
v -0.541992 -0.428127 0.175584
v -0.543071 0.175087 0.175441
v -0.543071 -0.428127 0.175441
v -0.547315 -0.428127 0.174233
v -0.548362 0.175087 0.173935
v -0.548362 -0.428127 0.173935
v -0.552386 -0.428127 0.172126
v -0.553379 0.175087 0.171679
v -0.553379 -0.428127 0.171679
v -0.557099 -0.428127 0.169307
v -0.558017 0.175087 0.168722
v -0.558017 -0.428127 0.168722
v -0.561355 -0.428127 0.165836
v -0.562179 0.175087 0.165124
v -0.562179 -0.428127 0.165124
v -0.564323 0.175087 0.162643
v -0.565776 -0.428127 0.160963
v -0.562890 -0.428127 0.164301
v -0.567539 0.175087 0.158197
v -0.568734 -0.428127 0.156325
v -0.566361 -0.428127 0.160045
v -0.570543 -0.428127 0.152300
v -0.570989 0.175087 0.151307
v -0.570989 -0.428127 0.151307
v -0.572197 -0.428127 0.147063
v -0.572495 0.175087 0.146017
v -0.572495 -0.428127 0.146017
v -0.573163 -0.428127 0.136152
v -0.573149 0.175087 0.135063
v -0.573149 -0.428127 0.135063
v -0.572928 0.175087 0.142766
v -0.573220 -0.428127 0.140564
v -0.572639 -0.428127 0.144938
v -0.573149 -0.428127 0.135063
v -0.583741 0.175087 0.135410
v -0.573149 0.175087 0.135063
v -0.594190 -0.428127 0.135752
v -0.599379 0.175087 0.135922
v -0.599379 -0.428127 0.135922
v -0.599379 0.175087 0.135922
v -0.562179 0.175087 0.165124
v -0.561355 -0.428127 0.165836
v -0.562179 -0.428127 0.165124
v -0.572495 0.175087 0.146017
v -0.572197 -0.428127 0.147063
v -0.572495 -0.428127 0.146017
v -0.532977 0.175087 0.202325
v -0.534691 -0.428127 0.202213
v -0.532977 -0.428127 0.202325
v -0.543329 -0.428127 0.201422
v -0.551790 -0.428127 0.199510
v -0.559929 -0.428127 0.196511
v -0.567607 -0.428127 0.192474
v -0.574692 -0.428127 0.187470
v -0.585658 0.175087 0.176346
v -0.590483 0.175087 0.169124
v -0.594325 0.175087 0.161334
v -0.597117 0.175087 0.153109
v -0.598811 0.175087 0.144589
v -0.599379 0.175087 0.135922
v -0.538144 0.175087 0.201986
v -0.546723 0.175087 0.200747
v -0.555067 0.175087 0.198398
v -0.563032 0.175087 0.194980
v -0.570484 0.175087 0.190552
v -0.585658 0.175087 0.176346
v -0.577294 0.175087 0.185189
v -0.579930 0.175087 0.182876
v -0.590483 0.175087 0.169124
v -0.594325 0.175087 0.161334
v -0.597117 0.175087 0.153109
v -0.598811 0.175087 0.144589
v -0.536530 -0.428127 0.176152
v -0.541992 -0.428127 0.175584
v -0.547315 -0.428127 0.174233
v -0.552386 -0.428127 0.172126
v -0.557099 -0.428127 0.169307
v -0.565776 0.175087 0.160963
v -0.570543 -0.428127 0.152300
v -0.573149 0.175087 0.135063
v -0.573163 -0.428127 0.136152
v -0.573149 -0.428127 0.135063
v -0.534339 0.175087 0.176123
v -0.532118 -0.428127 0.176095
v -0.532118 0.175087 0.176095
v -0.539820 0.175087 0.175873
v -0.545208 0.175087 0.174833
v -0.550388 0.175087 0.173024
v -0.555252 0.175087 0.170485
v -0.559698 0.175087 0.167269
v -0.565776 0.175087 0.160963
v -0.569644 0.175087 0.154299
v -0.568734 0.175087 0.156325
v -0.571597 0.175087 0.149171
v -0.573192 0.175087 0.138343
v -0.573220 0.175087 0.140564
v -0.599379 0.175087 0.135922
v -0.594190 -0.428127 0.135752
v -0.599379 -0.428127 0.135922
v -0.583741 0.175087 0.135410
v -0.573149 -0.428127 0.135063
v -0.573149 0.175087 0.135063
v -0.532977 -0.428127 0.202325
v -0.532630 0.175087 0.191733
v -0.532977 0.175087 0.202325
v -0.532288 -0.428127 0.181284
v -0.532118 0.175087 0.176095
v -0.532118 -0.428127 0.176095
v -0.532118 0.175087 0.176095
v -0.532288 -0.428127 0.181284
v -0.532118 -0.428127 0.176095
v -0.532630 0.175087 0.191733
v -0.532977 -0.428127 0.202325
v -0.532977 0.175087 0.202325
v -0.599379 -0.428127 0.135922
v -0.599379 -0.428127 0.135922
vn -0.1305 0.0220 0.9912
vn -0.0654 0.0107 0.9978
vn -0.1523 -0.0000 0.9883
vn -0.2800 -0.0000 0.9600
vn -0.1741 -0.0000 0.9847
vn -0.2375 0.0000 0.9714
vn -0.3826 -0.0220 0.9237
vn -0.3011 -0.0000 0.9536
vn -0.4029 0.0000 0.9152
vn -0.4999 0.0220 0.8658
vn -0.4230 0.0000 0.9061
vn -0.5189 -0.0000 0.8548
vn -0.6086 0.0220 0.7932
vn -0.5732 -0.0000 0.8194
vn -0.6260 -0.0000 0.7798
vn -0.7071 -0.0000 0.7071
vn -0.6593 -0.0107 0.7518
vn -0.7072 -0.0000 0.7070
vn -0.7588 0.0000 0.6513
vn -0.7412 -0.0000 0.6713
vn -0.7798 0.0000 0.6260
vn -0.8432 0.0000 0.5377
vn -0.8194 0.0000 0.5732
vn -0.8548 0.0000 0.5189
vn -0.9061 0.0000 0.4230
vn -0.8872 0.0000 0.4614
vn -0.9152 0.0000 0.4029
vn -0.9536 0.0000 0.3011
vn -0.9398 0.0000 0.3416
vn -0.9600 0.0000 0.2800
vn -0.9847 0.0000 0.1741
vn -0.9764 -0.0000 0.2160
vn -0.9883 -0.0000 0.1523
vn -0.9985 0.0000 0.0547
vn -0.9975 -0.0000 0.0707
vn 0.0615 -0.0039 -0.9981
vn 0.0655 -0.0000 -0.9979
vn 0.0652 0.0000 -0.9979
vn 0.2169 0.0000 -0.9762
vn 0.1520 0.0000 -0.9884
vn 0.1305 0.0217 -0.9912
vn 0.3425 0.0000 -0.9395
vn 0.2378 0.0000 -0.9713
vn 0.2797 0.0000 -0.9601
vn 0.4622 -0.0000 -0.8868
vn 0.3626 0.0000 -0.9319
vn 0.4026 0.0000 -0.9154
vn 0.5554 0.0223 -0.8313
vn 0.4811 0.0000 -0.8767
vn 0.5187 0.0000 -0.8550
vn 0.6681 0.0118 -0.7440
vn 0.6258 0.0000 -0.7800
vn 0.6086 0.0217 -0.7932
vn 0.7591 -0.0000 -0.6509
vn 0.7071 0.0000 -0.7071
vn 0.7407 0.0000 -0.6718
vn 0.8436 -0.0000 -0.5369
vn 0.7800 -0.0000 -0.6258
vn 0.8189 -0.0000 -0.5740
vn 0.9065 -0.0000 -0.4222
vn 0.8550 -0.0000 -0.5187
vn 0.8868 -0.0000 -0.4622
vn 0.9538 -0.0000 -0.3003
vn 0.9154 -0.0000 -0.4026
vn 0.9395 -0.0000 -0.3425
vn 0.9849 -0.0000 -0.1732
vn 0.9601 0.0000 -0.2797
vn 0.9762 0.0000 -0.2169
vn 0.9985 -0.0000 -0.0543
vn 0.9884 0.0000 -0.1520
vn 0.9975 0.0000 -0.0710
vn -0.0129 -0.0000 -0.9999
vn -0.0006 -0.0000 -1.0000
vn -0.0126 0.0000 -0.9999
vn 0.0356 0.0000 -0.9994
vn 0.1563 0.0000 -0.9877
vn 0.0835 -0.0000 -0.9965
vn 0.1798 0.0000 -0.9837
vn 0.2976 0.0000 -0.9547
vn 0.2268 0.0000 -0.9739
vn 0.3202 0.0000 -0.9474
vn 0.4325 -0.0000 -0.9016
vn 0.3653 0.0000 -0.9309
vn 0.4538 0.0000 -0.8911
vn 0.5584 0.0000 -0.8296
vn 0.4961 -0.0000 -0.8683
vn 0.5779 0.0000 -0.8161
vn 0.6632 0.0000 -0.7484
vn 0.6165 0.0000 -0.7874
vn 0.8017 -0.0240 -0.5972
vn 0.7565 -0.0124 -0.6539
vn 0.7536 0.0044 -0.6573
vn 0.8799 -0.0000 -0.4751
vn 0.8431 0.0124 -0.5376
vn 0.8501 -0.0131 -0.5265
vn 0.9171 -0.0000 -0.3987
vn 0.8799 0.0000 -0.4752
vn 0.9309 -0.0000 -0.3653
vn 0.9651 0.0000 -0.2618
vn 0.9474 -0.0000 -0.3201
vn 0.9982 0.0000 -0.0595
vn 0.9913 -0.0000 -0.1317
vn 0.9913 0.0000 -0.1320
vn 0.9999 0.0000 0.0129
vn 0.9982 0.0000 -0.0596
vn 0.0307 0.0000 0.9995
vn -0.0839 0.0000 0.9965
vn -0.0352 -0.0000 0.9994
vn -0.1083 -0.0000 0.9941
vn -0.2272 -0.0000 0.9738
vn -0.1794 -0.0000 0.9838
vn -0.2510 -0.0000 0.9680
vn -0.3657 -0.0000 0.9307
vn -0.3198 0.0000 0.9475
vn -0.3883 0.0000 0.9215
vn -0.4964 0.0000 0.8681
vn -0.4534 -0.0000 0.8913
vn -0.5175 -0.0000 0.8557
vn -0.6168 -0.0000 0.7871
vn -0.5776 -0.0000 0.8163
vn -0.6495 -0.0000 0.7604
vn -0.7565 0.0118 0.6539
vn -0.8017 0.0244 0.5972
vn -0.7538 -0.0042 0.6571
vn -0.8431 -0.0118 0.5376
vn -0.8799 0.0000 0.4751
vn -0.8498 0.0125 0.5270
vn -0.9047 0.0000 0.4261
vn -0.9475 0.0000 0.3198
vn -0.9307 0.0000 0.3657
vn -0.9602 0.0000 0.2795
vn -0.9791 0.0000 0.2035
vn -0.9790 0.0000 0.2037
vn -0.9999 -0.0000 -0.0129
vn -0.9999 -0.0000 -0.0131
vn -0.9999 -0.0000 -0.0128
vn -0.9913 0.0000 0.1317
vn -0.9982 -0.0000 0.0595
vn -0.0327 0.0000 -0.9995
vn 0.0327 -0.0000 0.9995
vn 0.9979 -0.0000 -0.0653
vn 0.7072 0.0000 -0.7070
vn 0.6493 0.0000 -0.7605
vn 0.9791 -0.0000 -0.2035
vn 0.9790 0.0000 -0.2037
vn -0.0655 0.0000 0.9979
vn -0.0616 -0.0038 0.9981
vn -0.0652 -0.0000 0.9979
vn -0.2160 -0.0000 0.9764
vn -0.3416 0.0000 0.9398
vn -0.4614 -0.0000 0.8872
vn -0.5554 0.0214 0.8313
vn -0.6678 0.0113 0.7443
vn -0.8065 0.0000 0.5912
vn -0.8768 0.0000 0.4809
vn -0.9321 0.0000 0.3623
vn -0.9714 0.0000 0.2375
vn -0.9941 0.0000 0.1087
vn -0.9979 0.0000 0.0653
vn 0.0654 0.0111 -0.9978
vn 0.1732 0.0000 -0.9849
vn 0.3003 0.0000 -0.9539
vn 0.4222 -0.0000 -0.9065
vn 0.5740 0.0000 -0.8188
vn 0.8064 -0.0000 -0.5914
vn 0.6593 -0.0111 -0.7518
vn 0.8767 -0.0000 -0.4811
vn 0.9319 -0.0000 -0.3626
vn 0.9713 -0.0000 -0.2378
vn 0.9940 -0.0000 -0.1090
vn -0.0315 -0.0000 -0.9995
vn 0.1072 0.0000 -0.9942
vn 0.2499 0.0000 -0.9683
vn 0.3873 -0.0000 -0.9220
vn 0.5166 0.0000 -0.8562
vn 0.8161 0.0000 -0.5780
vn 0.9043 -0.0000 -0.4269
vn 0.9999 0.0000 0.0131
vn 0.9999 0.0000 0.0128
vn 0.0011 0.0000 1.0000
vn 0.0129 0.0000 0.9999
vn 0.0126 -0.0000 0.9999
vn -0.1552 -0.0000 0.9879
vn -0.2965 -0.0000 0.9550
vn -0.4315 0.0000 0.9021
vn -0.5575 -0.0000 0.8302
vn -0.6629 -0.0000 0.7487
vn -0.8163 -0.0000 0.5776
vn -0.9169 0.0000 0.3992
vn -0.8799 -0.0000 0.4752
vn -0.9650 -0.0000 0.2624
vn -0.9982 -0.0000 0.0596
vn 0.9995 -0.0000 0.0327
vn -0.9995 0.0000 -0.0327
vn 0.9979 0.0000 -0.0652
vn -0.9979 0.0000 0.0652
usemtl Default_OBJ.011
s 1
f 1//1 2//2 3//3
f 4//4 5//5 6//6
f 7//7 8//8 9//9
f 10//10 11//11 12//12
f 13//13 14//14 15//15
f 16//16 17//17 18//18
f 16//16 19//19 20//20
f 21//21 22//22 23//23
f 24//24 25//25 26//26
f 27//27 28//28 29//29
f 30//30 31//31 32//32
f 33//33 34//34 35//35
f 36//36 37//37 38//38
f 39//39 40//40 41//41
f 42//42 43//43 44//44
f 45//45 46//46 47//47
f 48//48 49//49 50//50
f 51//51 52//52 53//53
f 54//54 55//55 56//56
f 57//57 58//58 59//59
f 60//60 61//61 62//62
f 63//63 64//64 65//65
f 66//66 67//67 68//68
f 69//69 70//70 71//71
f 72//72 73//73 74//74
f 75//75 76//76 77//77
f 78//78 79//79 80//80
f 81//81 82//82 83//83
f 84//84 85//85 86//86
f 87//87 88//88 89//89
f 90//90 91//91 92//92
f 93//93 94//94 95//95
f 93//93 96//96 97//97
f 98//98 99//99 100//100
f 101//101 102//102 103//103
f 101//101 104//104 105//105
f 106//106 107//107 108//108
f 109//109 110//110 111//111
f 112//112 113//113 114//114
f 115//115 116//116 117//117
f 118//118 119//119 120//120
f 121//121 122//18 123//16
f 124//122 125//123 126//124
f 127//125 128//126 129//127
f 130//128 131//129 132//130
f 133//131 134//132 135//133
f 136//134 137//135 138//136
f 139//137 140//138 141//137
f 142//139 143//139 144//139
f 145//140 146//140 147//140
f 71//71 148//141 69//69
f 149//142 150//143 151//55
f 152//144 153//67 154//145
f 155//146 156//147 157//148
f 3//3 158//149 1//1
f 6//6 159//150 4//4
f 9//9 160//151 7//7
f 12//12 161//152 10//10
f 15//15 162//153 13//13
f 163//154 20//20 19//19
f 164//155 23//23 22//22
f 165//156 26//26 25//25
f 166//157 29//29 28//28
f 167//158 32//32 31//31
f 168//159 35//35 34//34
f 169//160 41//41 40//40
f 170//161 44//44 43//43
f 171//162 47//47 46//46
f 172//163 50//50 49//49
f 173//164 53//53 52//52
f 56//56 174//165 54//54
f 175//166 55//55 176//142
f 59//59 177//167 57//57
f 62//62 178//168 60//60
f 65//65 179//169 63//63
f 68//68 180//170 66//66
f 77//77 181//171 75//75
f 80//80 182//172 78//78
f 83//83 183//173 81//81
f 86//86 184//174 84//84
f 89//89 185//175 87//87
f 149//142 92//92 91//91
f 186//176 95//95 94//94
f 100//100 187//177 98//98
f 152//144 103//103 102//102
f 188//178 189//104 190//179
f 191//180 192//181 193//182
f 194//183 108//108 107//107
f 195//184 111//111 110//110
f 196//185 114//114 113//113
f 197//186 117//117 116//116
f 198//187 120//120 119//119
f 126//124 122//18 124//122
f 129//127 199//188 127//125
f 200//189 128//126 201//190
f 202//191 132//130 131//129
f 203//134 140//138 204//192
f 141//137 134//132 139//137
f 205//139 206//139 207//139
f 208//140 209//140 210//140
f 211//193 212//193 213//193
f 214//194 215//194 216//194
f 217//193 218//193 219//193
f 220//194 221//194 222//194
f 1//1 156//147 2//2
f 4//4 158//149 5//5
f 7//7 159//150 8//8
f 10//10 160//151 11//11
f 13//13 161//152 14//14
f 16//16 162//153 17//17
f 16//16 18//18 19//19
f 21//21 163//154 22//22
f 24//24 164//155 25//25
f 27//27 165//156 28//28
f 30//30 166//157 31//31
f 33//33 167//158 34//34
f 36//36 169//160 37//37
f 39//39 170//161 40//40
f 42//42 171//162 43//43
f 45//45 172//163 46//46
f 48//48 173//164 49//49
f 51//51 175//166 52//52
f 54//54 176//142 55//55
f 57//57 174//165 58//58
f 60//60 177//167 61//61
f 63//63 178//168 64//64
f 66//66 179//169 67//67
f 69//69 180//170 70//70
f 72//72 181//171 73//73
f 75//75 182//172 76//76
f 78//78 183//173 79//79
f 81//81 184//174 82//82
f 84//84 185//175 85//85
f 87//87 150//143 88//88
f 90//90 186//176 91//91
f 93//93 97//97 94//94
f 93//93 187//177 96//96
f 98//98 153//67 99//99
f 101//101 105//105 102//102
f 101//101 189//104 104//104
f 106//106 191//180 107//107
f 109//109 194//183 110//110
f 112//112 195//184 113//113
f 115//115 196//185 116//116
f 118//118 197//186 119//119
f 121//121 198//187 122//18
f 124//122 199//188 125//123
f 127//125 201//190 128//126
f 130//128 200//189 131//129
f 133//131 202//191 134//132
f 136//134 203//134 137//135
f 139//137 204//192 140//138
f 142//139 206//139 143//139
f 145//140 208//140 146//140
f 71//71 223//195 148//141
f 149//142 88//88 150//143
f 152//144 99//99 153//67
f 155//146 2//2 156//147
f 3//3 5//5 158//149
f 6//6 8//8 159//150
f 9//9 11//11 160//151
f 12//12 14//14 161//152
f 15//15 17//17 162//153
f 163//154 21//21 20//20
f 164//155 24//24 23//23
f 165//156 27//27 26//26
f 166//157 30//30 29//29
f 167//158 33//33 32//32
f 168//159 224//196 35//35
f 169//160 36//36 41//41
f 170//161 39//39 44//44
f 171//162 42//42 47//47
f 172//163 45//45 50//50
f 173//164 48//48 53//53
f 56//56 58//58 174//165
f 175//166 51//51 55//55
f 59//59 61//61 177//167
f 62//62 64//64 178//168
f 65//65 67//67 179//169
f 68//68 70//70 180//170
f 77//77 73//73 181//171
f 80//80 76//76 182//172
f 83//83 79//79 183//173
f 86//86 82//82 184//174
f 89//89 85//85 185//175
f 149//142 151//55 92//92
f 186//176 90//90 95//95
f 100//100 96//96 187//177
f 152//144 154//145 103//103
f 188//178 104//104 189//104
f 191//180 106//106 192//181
f 194//183 109//109 108//108
f 195//184 112//112 111//111
f 196//185 115//115 114//114
f 197//186 118//118 117//117
f 198//187 121//121 120//120
f 126//124 123//16 122//18
f 129//127 125//123 199//188
f 200//189 130//128 128//126
f 202//191 133//131 132//130
f 203//134 136//134 140//138
f 141//137 135//133 134//132
f 205//139 143//139 206//139
f 208//140 145//140 209//140
f 211//193 218//193 212//193
f 214//194 220//194 215//194
f 217//193 212//193 218//193
f 220//194 214//194 221//194