# Blender v3.0.1 OBJ File: ''
# www.blender.org
mtllib 10.mtl
o model.014_model.28578
v -0.532464 0.175087 -0.187723
v -0.532118 -0.428127 -0.177140
v -0.532806 -0.428127 -0.198163
v -0.532118 -0.428127 -0.177140
v -0.532464 0.175087 -0.187723
v -0.532806 -0.428127 -0.198163
v -0.534697 -0.428127 -0.203258
v -0.532977 0.175087 -0.203371
v -0.532977 -0.428127 -0.203371
v -0.543335 -0.428127 -0.202466
v -0.541644 0.175087 -0.202802
v -0.541644 -0.428127 -0.202802
v -0.551796 -0.428127 -0.200554
v -0.550163 0.175087 -0.201108
v -0.550163 -0.428127 -0.201108
v -0.559934 -0.428127 -0.197553
v -0.558388 0.175087 -0.198316
v -0.558388 -0.428127 -0.198316
v -0.567612 -0.428127 -0.193516
v -0.566178 0.175087 -0.194474
v -0.566178 -0.428127 -0.194474
v -0.574697 -0.428127 -0.188512
v -0.573400 0.175087 -0.189649
v -0.573400 -0.428127 -0.189649
v -0.582241 0.175087 -0.181287
v -0.579930 -0.428127 -0.183922
v -0.584521 -0.428127 -0.178688
v -0.587604 0.175087 -0.174477
v -0.585658 -0.428127 -0.177391
v -0.589525 -0.428127 -0.171603
v -0.592033 0.175087 -0.167026
v -0.590483 -0.428127 -0.170169
v -0.593562 -0.428127 -0.163925
v -0.595451 0.175087 -0.159061
v -0.594325 -0.428127 -0.162379
v -0.596563 -0.428127 -0.155787
v -0.597800 0.175087 -0.150717
v -0.597117 -0.428127 -0.154154
v -0.598475 -0.428127 -0.147326
v -0.599041 0.175087 -0.142138
v -0.598811 -0.428127 -0.145635
v -0.599267 -0.428127 -0.138688
v -0.541644 -0.428127 -0.202802
v -0.538147 0.175087 -0.203032
v -0.541644 0.175087 -0.202802
v -0.550163 -0.428127 -0.201108
v -0.546726 0.175087 -0.201792
v -0.550163 0.175087 -0.201108
v -0.558388 -0.428127 -0.198316
v -0.555070 0.175087 -0.199442
v -0.558388 0.175087 -0.198316
v -0.566178 -0.428127 -0.194474
v -0.563035 0.175087 -0.196024
v -0.566178 0.175087 -0.194474
v -0.573400 -0.428127 -0.189649
v -0.570486 0.175087 -0.191595
v -0.573400 0.175087 -0.189649
v -0.579930 -0.428127 -0.183922
v -0.577296 0.175087 -0.186232
v -0.579930 0.175087 -0.183922
v -0.582241 0.175087 -0.181287
v -0.584521 -0.428127 -0.178688
v -0.585658 -0.428127 -0.177391
v -0.587604 0.175087 -0.174477
v -0.589525 -0.428127 -0.171603
v -0.590483 -0.428127 -0.170169
v -0.592033 0.175087 -0.167026
v -0.593562 -0.428127 -0.163925
v -0.594325 -0.428127 -0.162379
v -0.595451 0.175087 -0.159061
v -0.596563 -0.428127 -0.155787
v -0.597117 -0.428127 -0.154154
v -0.597800 0.175087 -0.150717
v -0.598475 -0.428127 -0.147326
v -0.598811 -0.428127 -0.145635
v -0.599041 0.175087 -0.142138
v -0.599267 -0.428127 -0.138688
v -0.536526 -0.428127 -0.177197
v -0.537618 0.175087 -0.177211
v -0.537618 -0.428127 -0.177211
v -0.541988 -0.428127 -0.176630
v -0.543071 0.175087 -0.176486
v -0.543071 -0.428127 -0.176486
v -0.547311 -0.428127 -0.175279
v -0.548362 0.175087 -0.174980
v -0.548362 -0.428127 -0.174980
v -0.552383 -0.428127 -0.173172
v -0.553379 0.175087 -0.172725
v -0.553379 -0.428127 -0.172725
v -0.557096 -0.428127 -0.170354
v -0.558017 0.175087 -0.169767
v -0.558017 -0.428127 -0.169767
v -0.561352 -0.428127 -0.166884
v -0.562179 0.175087 -0.166170
v -0.562179 -0.428127 -0.166170
v -0.564325 0.175087 -0.163687
v -0.565776 -0.428127 -0.162008
v -0.562893 -0.428127 -0.165343
v -0.567540 0.175087 -0.159241
v -0.568734 -0.428127 -0.157370
v -0.566363 -0.428127 -0.161087
v -0.570079 0.175087 -0.154377
v -0.570989 -0.428127 -0.152353
v -0.569181 -0.428127 -0.156374
v -0.571888 0.175087 -0.149197
v -0.572495 -0.428127 -0.147062
v -0.571288 -0.428127 -0.151302
v -0.572928 0.175087 -0.143809
v -0.573220 -0.428127 -0.141609
v -0.572639 -0.428127 -0.145979
v -0.573178 0.175087 -0.138328
v -0.573149 -0.428127 -0.136109
v -0.573206 -0.428127 -0.140517
v -0.532118 -0.428127 -0.177140
v -0.534337 0.175087 -0.177169
v -0.532118 0.175087 -0.177140
v -0.537618 -0.428127 -0.177211
v -0.539818 0.175087 -0.176919
v -0.537618 0.175087 -0.177211
v -0.543071 -0.428127 -0.176486
v -0.545206 0.175087 -0.175879
v -0.543071 0.175087 -0.176486
v -0.548362 -0.428127 -0.174980
v -0.550386 0.175087 -0.174070
v -0.548362 0.175087 -0.174980
v -0.553379 -0.428127 -0.172725
v -0.555250 0.175087 -0.171531
v -0.553379 0.175087 -0.172725
v -0.558017 -0.428127 -0.169767
v -0.559696 0.175087 -0.168316
v -0.558017 0.175087 -0.169767
v -0.565776 -0.428127 -0.162008
v -0.564325 0.175087 -0.163687
v -0.562893 -0.428127 -0.165343
v -0.568734 -0.428127 -0.157370
v -0.567540 0.175087 -0.159241
v -0.566363 -0.428127 -0.161087
v -0.570989 -0.428127 -0.152353
v -0.570079 0.175087 -0.154377
v -0.569181 -0.428127 -0.156374
v -0.572495 -0.428127 -0.147062
v -0.571888 0.175087 -0.149197
v -0.571288 -0.428127 -0.151302
v -0.573220 -0.428127 -0.141609
v -0.572928 0.175087 -0.143809
v -0.572639 -0.428127 -0.145979
v -0.573149 -0.428127 -0.136109
v -0.573178 0.175087 -0.138328
v -0.573206 -0.428127 -0.140517
v -0.594172 -0.428127 -0.136797
v -0.599379 0.175087 -0.136968
v -0.599379 -0.428127 -0.136968
v -0.573149 -0.428127 -0.136109
v -0.583732 0.175087 -0.136455
v -0.573149 0.175087 -0.136109
v -0.599379 0.175087 -0.136968
v -0.562179 0.175087 -0.166170
v -0.561352 -0.428127 -0.166884
v -0.562179 -0.428127 -0.166170
v -0.532977 0.175087 -0.203371
v -0.532977 0.175087 -0.203371
v -0.538147 0.175087 -0.203032
v -0.546726 0.175087 -0.201792
v -0.555070 0.175087 -0.199442
v -0.563035 0.175087 -0.196024
v -0.570486 0.175087 -0.191595
v -0.577296 0.175087 -0.186232
v -0.579930 0.175087 -0.183922
v -0.585658 0.175087 -0.177391
v -0.590483 0.175087 -0.170169
v -0.594325 0.175087 -0.162379
v -0.597117 0.175087 -0.154154
v -0.598811 0.175087 -0.145635
v -0.532977 0.175087 -0.203371
v -0.534697 -0.428127 -0.203258
v -0.532977 -0.428127 -0.203371
v -0.543335 -0.428127 -0.202466
v -0.551796 -0.428127 -0.200554
v -0.559934 -0.428127 -0.197553
v -0.567612 -0.428127 -0.193516
v -0.574697 -0.428127 -0.188512
v -0.585658 0.175087 -0.177391
v -0.590483 0.175087 -0.170169
v -0.594325 0.175087 -0.162379
v -0.597117 0.175087 -0.154154
v -0.598811 0.175087 -0.145635
v -0.599379 0.175087 -0.136968
v -0.534337 0.175087 -0.177169
v -0.532118 -0.428127 -0.177140
v -0.532118 0.175087 -0.177140
v -0.539818 0.175087 -0.176919
v -0.545206 0.175087 -0.175879
v -0.550386 0.175087 -0.174070
v -0.555250 0.175087 -0.171531
v -0.559696 0.175087 -0.168316
v -0.565776 0.175087 -0.162008
v -0.568734 0.175087 -0.157370
v -0.570989 0.175087 -0.152353
v -0.572495 0.175087 -0.147062
v -0.573220 0.175087 -0.141609
v -0.536526 -0.428127 -0.177197
v -0.541988 -0.428127 -0.176630
v -0.547311 -0.428127 -0.175279
v -0.552383 -0.428127 -0.173172
v -0.557096 -0.428127 -0.170354
v -0.565776 0.175087 -0.162008
v -0.568734 0.175087 -0.157370
v -0.570989 0.175087 -0.152353
v -0.572495 0.175087 -0.147062
v -0.573220 0.175087 -0.141609
v -0.583732 0.175087 -0.136455
v -0.573149 -0.428127 -0.136109
v -0.573149 0.175087 -0.136109
v -0.599379 0.175087 -0.136968
v -0.594172 -0.428127 -0.136797
v -0.599379 -0.428127 -0.136968
v -0.532118 0.175087 -0.177140
v -0.532118 0.175087 -0.177140
v -0.573149 0.175087 -0.136109
v -0.573149 0.175087 -0.136109
v -0.599379 -0.428127 -0.136968
v -0.532977 -0.428127 -0.203371
v -0.532977 -0.428127 -0.203371
v -0.599379 -0.428127 -0.136968
vn 0.9995 0.0000 -0.0327
vn 0.9995 -0.0000 -0.0328
vn -0.9995 0.0000 0.0327
vn -0.9995 0.0000 0.0328
vn -0.0707 -0.0000 -0.9975
vn -0.0654 -0.0000 -0.9979
vn -0.0656 0.0000 -0.9978
vn -0.2160 -0.0000 -0.9764
vn -0.1087 0.0000 -0.9941
vn -0.1523 -0.0000 -0.9883
vn -0.3416 0.0000 -0.9399
vn -0.2375 0.0000 -0.9714
vn -0.2800 -0.0000 -0.9600
vn -0.4614 -0.0000 -0.8872
vn -0.3623 -0.0000 -0.9321
vn -0.4029 0.0000 -0.9152
vn -0.5732 0.0000 -0.8194
vn -0.4808 0.0000 -0.8768
vn -0.5189 -0.0000 -0.8548
vn -0.6713 0.0000 -0.7412
vn -0.5912 0.0000 -0.8065
vn -0.6260 0.0000 -0.7798
vn -0.7518 -0.0107 -0.6593
vn -0.7071 0.0000 -0.7071
vn -0.7443 0.0113 -0.6678
vn -0.8432 0.0000 -0.5377
vn -0.7798 -0.0000 -0.6260
vn -0.8194 0.0000 -0.5732
vn -0.8872 -0.0000 -0.4614
vn -0.8548 0.0000 -0.5189
vn -0.8967 -0.0214 -0.4422
vn -0.9398 0.0000 -0.3416
vn -0.9152 0.0000 -0.4029
vn -0.9467 0.0214 -0.3214
vn -0.9764 0.0000 -0.2160
vn -0.9600 0.0000 -0.2800
vn -0.9806 -0.0214 -0.1950
vn -0.9978 -0.0107 -0.0654
vn -0.9912 -0.0220 -0.1305
vn -0.9981 0.0038 -0.0616
vn 0.1520 0.0000 0.9884
vn 0.0543 0.0000 0.9985
vn 0.1090 -0.0000 0.9940
vn 0.2797 0.0000 0.9601
vn 0.1732 -0.0000 0.9849
vn 0.2378 -0.0000 0.9713
vn 0.4026 -0.0000 0.9154
vn 0.3003 -0.0000 0.9538
vn 0.3626 0.0000 0.9319
vn 0.5186 0.0000 0.8550
vn 0.4222 0.0000 0.9065
vn 0.4811 -0.0000 0.8767
vn 0.6258 -0.0000 0.7800
vn 0.5369 -0.0000 0.8436
vn 0.5914 -0.0000 0.8064
vn 0.7071 -0.0000 0.7071
vn 0.6509 -0.0000 0.7591
vn 0.7518 -0.0111 0.6593
vn 0.7440 0.0118 0.6681
vn 0.7800 -0.0000 0.6258
vn 0.8436 -0.0000 0.5369
vn 0.8189 -0.0000 0.5740
vn 0.8550 -0.0000 0.5187
vn 0.8868 0.0000 0.4622
vn 0.8966 -0.0223 0.4422
vn 0.9154 0.0000 0.4026
vn 0.9395 -0.0000 0.3425
vn 0.9467 0.0223 0.3214
vn 0.9601 0.0000 0.2797
vn 0.9762 -0.0000 0.2169
vn 0.9805 -0.0223 0.1950
vn 0.9912 -0.0217 0.1305
vn 0.9978 -0.0111 0.0654
vn 0.9981 0.0039 0.0615
vn -0.0261 0.0131 0.9996
vn 0.0835 -0.0000 0.9965
vn 0.0356 0.0000 0.9994
vn 0.1072 0.0000 0.9942
vn 0.2268 -0.0000 0.9739
vn 0.1798 0.0000 0.9837
vn 0.2499 0.0000 0.9683
vn 0.3653 -0.0000 0.9309
vn 0.3202 -0.0000 0.9473
vn 0.3873 -0.0000 0.9220
vn 0.4961 0.0000 0.8683
vn 0.4538 -0.0000 0.8911
vn 0.5166 -0.0000 0.8562
vn 0.5780 0.0000 0.8161
vn 0.5972 0.0240 0.8017
vn 0.6573 -0.0044 0.7536
vn 0.7484 0.0000 0.6633
vn 0.8161 0.0000 0.5780
vn 0.7605 0.0000 0.6493
vn 0.8296 0.0000 0.5584
vn 0.8911 -0.0000 0.4538
vn 0.8562 -0.0000 0.5166
vn 0.9016 0.0000 0.4325
vn 0.9474 0.0000 0.3202
vn 0.9219 0.0000 0.3874
vn 0.9547 0.0000 0.2975
vn 0.9837 0.0000 0.1798
vn 0.9683 0.0000 0.2499
vn 0.9877 0.0000 0.1563
vn 0.9994 0.0000 0.0356
vn 0.9942 0.0000 0.1072
vn 1.0000 -0.0000 -0.0006
vn 0.9999 0.0000 -0.0129
vn 0.9995 0.0000 -0.0315
vn 0.0129 -0.0000 -0.9999
vn 0.0130 -0.0118 -0.9998
vn 0.0130 0.0000 -0.9999
vn -0.0352 0.0000 -0.9994
vn -0.1552 0.0000 -0.9879
vn -0.0839 0.0000 -0.9965
vn -0.1794 -0.0000 -0.9838
vn -0.2965 -0.0000 -0.9550
vn -0.2272 -0.0000 -0.9738
vn -0.3198 0.0000 -0.9475
vn -0.4315 -0.0000 -0.9021
vn -0.3657 0.0000 -0.9308
vn -0.4535 0.0000 -0.8913
vn -0.5175 -0.0000 -0.8557
vn -0.4964 -0.0000 -0.8681
vn -0.5776 -0.0000 -0.8163
vn -0.6539 0.0118 -0.7565
vn -0.6168 -0.0000 -0.7871
vn -0.8163 -0.0000 -0.5776
vn -0.7487 -0.0000 -0.6629
vn -0.7604 -0.0000 -0.6495
vn -0.8912 0.0000 -0.4535
vn -0.8302 0.0000 -0.5575
vn -0.8557 0.0000 -0.5175
vn -0.9475 0.0000 -0.3198
vn -0.9021 -0.0000 -0.4315
vn -0.9215 0.0000 -0.3883
vn -0.9838 -0.0000 -0.1794
vn -0.9550 -0.0000 -0.2965
vn -0.9680 -0.0000 -0.2509
vn -0.9994 -0.0000 -0.0352
vn -0.9879 -0.0000 -0.1552
vn -0.9941 -0.0000 -0.1083
vn -0.9999 -0.0000 0.0129
vn -1.0000 0.0000 0.0011
vn -0.9995 -0.0000 0.0307
vn -0.0328 -0.0000 0.9995
vn 0.0327 0.0000 -0.9995
vn -0.9979 0.0000 -0.0652
vn -0.6571 -0.0042 -0.7538
vn -0.0547 -0.0000 -0.9985
vn -0.1741 0.0000 -0.9847
vn -0.3011 0.0000 -0.9536
vn -0.4230 -0.0000 -0.9061
vn -0.5377 0.0000 -0.8431
vn -0.6513 0.0000 -0.7588
vn -0.8065 0.0000 -0.5912
vn -0.8768 0.0000 -0.4809
vn -0.9321 -0.0000 -0.3623
vn -0.9714 0.0000 -0.2375
vn -0.9883 0.0000 -0.1523
vn 0.0654 0.0000 0.9979
vn 0.0710 0.0000 0.9975
vn 0.0656 -0.0000 0.9978
vn 0.2169 0.0000 0.9762
vn 0.3425 -0.0000 0.9395
vn 0.4622 -0.0000 0.8868
vn 0.5739 -0.0000 0.8189
vn 0.6718 -0.0000 0.7407
vn 0.8064 -0.0000 0.5914
vn 0.8767 -0.0000 0.4811
vn 0.9319 0.0000 0.3626
vn 0.9713 0.0000 0.2378
vn 0.9884 -0.0000 0.1520
vn 0.9979 -0.0000 0.0652
vn -0.0130 -0.0124 0.9998
vn -0.0129 0.0000 0.9999
vn -0.0130 -0.0000 0.9999
vn 0.1563 -0.0000 0.9877
vn 0.2976 0.0000 0.9547
vn 0.4325 0.0000 0.9016
vn 0.5584 0.0000 0.8296
vn 0.6539 0.0124 0.7565
vn 0.7874 0.0000 0.6165
vn 0.8683 0.0000 0.4961
vn 0.9309 0.0000 0.3653
vn 0.9739 -0.0000 0.2268
vn 0.9965 0.0000 0.0835
vn 0.0255 0.0125 -0.9996
vn -0.1083 -0.0000 -0.9941
vn -0.2510 -0.0000 -0.9680
vn -0.3883 0.0000 -0.9215
vn -0.5375 -0.0237 -0.8429
vn -0.7871 -0.0000 -0.6168
vn -0.8681 -0.0000 -0.4964
vn -0.9307 -0.0000 -0.3657
vn -0.9738 -0.0000 -0.2272
vn -0.9965 0.0000 -0.0839
vn -0.0327 0.0000 0.9995
vn 0.0328 -0.0000 -0.9995
vn 0.9999 -0.0000 -0.0131
vn -0.9999 0.0000 0.0131
vn -0.9979 0.0000 -0.0650
vn 0.9979 0.0000 0.0650
usemtl Default_OBJ.002
s 1
f 1//1 2//1 3//2
f 4//3 5//3 6//4
f 7//5 8//6 9//7
f 10//8 11//9 12//10
f 13//11 14//12 15//13
f 16//14 17//15 18//16
f 19//17 20//18 21//19
f 22//20 23//21 24//22
f 25//23 26//24 27//25
f 28//26 29//27 30//28
f 31//29 32//30 33//31
f 34//32 35//33 36//34
f 37//35 38//36 39//37
f 40//38 41//39 42//40
f 43//41 44//42 45//43
f 46//44 47//45 48//46
f 49//47 50//48 51//49
f 52//50 53//51 54//52
f 55//53 56//54 57//55
f 58//56 59//57 60//56
f 58//56 61//58 62//59
f 63//60 64//61 65//62
f 66//63 67//64 68//65
f 69//66 70//67 71//68
f 72//69 73//70 74//71
f 75//72 76//73 77//74
f 78//75 79//76 80//77
f 81//78 82//79 83//80
f 84//81 85//82 86//83
f 87//84 88//85 89//86
f 90//87 91//88 92//89
f 93//90 94//56 95//56
f 96//91 97//92 98//93
f 99//94 100//95 101//96
f 102//97 103//98 104//99
f 105//100 106//101 107//102
f 108//103 109//104 110//105
f 111//106 112//107 113//108
f 114//109 115//110 116//111
f 117//112 118//113 119//114
f 120//115 121//116 122//117
f 123//118 124//119 125//120
f 126//121 127//122 128//123
f 129//124 130//125 131//126
f 132//127 133//128 134//129
f 135//130 136//131 137//132
f 138//133 139//134 140//135
f 141//136 142//137 143//138
f 144//139 145//140 146//141
f 147//142 148//143 149//144
f 150//145 151//145 152//145
f 153//146 154//146 155//146
f 42//40 156//147 40//38
f 157//24 158//148 159//24
f 3//2 160//2 1//1
f 161//4 6//4 5//3
f 162//149 12//10 11//9
f 163//150 15//13 14//12
f 164//151 18//16 17//15
f 165//152 21//19 20//18
f 166//153 24//22 23//21
f 167//154 26//24 168//24
f 27//25 169//155 25//23
f 30//28 170//156 28//26
f 33//31 171//157 31//29
f 36//34 172//158 34//32
f 39//37 173//159 37//35
f 174//160 175//161 176//162
f 45//43 177//163 43//41
f 48//46 178//164 46//44
f 51//49 179//165 49//47
f 54//52 180//166 52//50
f 57//55 181//167 55//53
f 182//168 62//59 61//58
f 183//169 65//62 64//61
f 184//170 68//65 67//64
f 185//171 71//68 70//67
f 186//172 74//71 73//70
f 187//173 77//74 76//73
f 188//174 189//175 190//176
f 191//177 80//77 79//76
f 192//178 83//80 82//79
f 193//179 86//83 85//82
f 194//180 89//86 88//85
f 195//181 92//89 91//88
f 98//93 94//56 96//91
f 101//96 196//182 99//94
f 104//99 197//183 102//97
f 107//102 198//184 105//100
f 110//105 199//185 108//103
f 113//108 200//186 111//106
f 119//114 201//187 117//112
f 122//117 202//188 120//115
f 125//120 203//189 123//118
f 128//123 204//190 126//121
f 131//126 205//191 129//124
f 157//24 134//129 133//128
f 206//192 137//132 136//131
f 207//193 140//135 139//134
f 208//194 143//138 142//137
f 209//195 146//141 145//140
f 210//196 149//144 148//143
f 211//197 212//197 213//197
f 214//198 215//198 216//198
f 1//1 217//1 2//1
f 4//3 218//3 5//3
f 7//5 162//149 8//6
f 10//8 163//150 11//9
f 13//11 164//151 14//12
f 16//14 165//152 17//15
f 19//17 166//153 20//18
f 22//20 167//154 23//21
f 25//23 168//24 26//24
f 28//26 169//155 29//27
f 31//29 170//156 32//30
f 34//32 171//157 35//33
f 37//35 172//158 38//36
f 40//38 173//159 41//39
f 43//41 175//161 44//42
f 46//44 177//163 47//45
f 49//47 178//164 50//48
f 52//50 179//165 53//51
f 55//53 180//166 56//54
f 58//56 181//167 59//57
f 58//56 60//56 61//58
f 63//60 182//168 64//61
f 66//63 183//169 67//64
f 69//66 184//170 70//67
f 72//69 185//171 73//70
f 75//72 186//172 76//73
f 78//75 188//174 79//76
f 81//78 191//177 82//79
f 84//81 192//178 85//82
f 87//84 193//179 88//85
f 90//87 194//180 91//88
f 93//90 195//181 94//56
f 96//91 196//182 97//92
f 99//94 197//183 100//95
f 102//97 198//184 103//98
f 105//100 199//185 106//101
f 108//103 200//186 109//104
f 111//106 219//199 112//107
f 114//109 201//187 115//110
f 117//112 202//188 118//113
f 120//115 203//189 121//116
f 123//118 204//190 124//119
f 126//121 205//191 127//122
f 129//124 158//148 130//125
f 132//127 206//192 133//128
f 135//130 207//193 136//131
f 138//133 208//194 139//134
f 141//136 209//195 142//137
f 144//139 210//196 145//140
f 147//142 220//200 148//143
f 150//145 211//197 151//145
f 153//146 215//198 154//146
f 42//40 221//201 156//147
f 157//24 130//125 158//148
f 3//2 222//2 160//2
f 161//4 223//4 6//4
f 162//149 7//5 12//10
f 163//150 10//8 15//13
f 164//151 13//11 18//16
f 165//152 16//14 21//19
f 166//153 19//17 24//22
f 167//154 22//20 26//24
f 27//25 29//27 169//155
f 30//28 32//30 170//156
f 33//31 35//33 171//157
f 36//34 38//36 172//158
f 39//37 41//39 173//159
f 174//160 44//42 175//161
f 45//43 47//45 177//163
f 48//46 50//48 178//164
f 51//49 53//51 179//165
f 54//52 56//54 180//166
f 57//55 59//57 181//167
f 182//168 63//60 62//59
f 183//169 66//63 65//62
f 184//170 69//66 68//65
f 185//171 72//69 71//68
f 186//172 75//72 74//71
f 187//173 224//202 77//74
f 188//174 78//75 189//175
f 191//177 81//78 80//77
f 192//178 84//81 83//80
f 193//179 87//84 86//83
f 194//180 90//87 89//86
f 195//181 93//90 92//89
f 98//93 95//56 94//56
f 101//96 97//92 196//182
f 104//99 100//95 197//183
f 107//102 103//98 198//184
f 110//105 106//101 199//185
f 113//108 109//104 200//186
f 119//114 115//110 201//187
f 122//117 118//113 202//188
f 125//120 121//116 203//189
f 128//123 124//119 204//190
f 131//126 127//122 205//191
f 157//24 159//24 134//129
f 206//192 132//127 137//132
f 207//193 135//130 140//135
f 208//194 138//133 143//138
f 209//195 141//136 146//141
f 210//196 144//139 149//144
f 211//197 150//145 212//197
f 214//198 154//146 215//198