# Blender v3.0.1 OBJ File: ''
# www.blender.org
mtllib 03.mtl
o normalized.010
v 0.251680 -0.156017 0.384181
v 0.251714 -0.157200 0.398334
v 0.251696 -0.164153 0.390633
v -0.249646 -0.157090 0.399676
v -0.249686 -0.155906 0.385523
v -0.249671 -0.164043 0.391975
v 0.251699 -0.149054 0.391773
v -0.249661 -0.148944 0.393115
v -0.383839 -0.189320 0.399996
v -0.115852 -0.187848 0.401123
v -0.383833 -0.187730 0.401842
v -0.115849 -0.185422 0.402010
v -0.383830 -0.185304 0.402729
v -0.383895 -0.182526 0.378096
v -0.115864 -0.189850 0.396867
v -0.383846 -0.189732 0.397586
v -0.383858 -0.189219 0.393037
v -0.383874 -0.188514 0.386784
v -0.383895 -0.185095 0.378477
v -0.383886 -0.188001 0.382235
v -0.115913 -0.182644 0.377377
v -0.115903 -0.167478 0.378915
v -0.383884 -0.167360 0.379634
v -0.383819 -0.170138 0.404268
v -0.115905 -0.188119 0.381516
v -0.383892 -0.187060 0.379962
v -0.115910 -0.187178 0.379243
v 0.000980 -0.188170 0.381202
v -0.115913 -0.185213 0.377758
v 0.000974 -0.187230 0.378929
v 0.000970 -0.182695 0.377063
v 0.000971 -0.185265 0.377444
v 0.117854 -0.185265 0.377132
v 0.117853 -0.182695 0.376751
v 0.117858 -0.187230 0.378617
v 0.000978 -0.167529 0.378602
v 0.117858 -0.167529 0.378289
v 0.000990 -0.141706 0.381221
v 0.117865 -0.141706 0.380909
v -0.383866 -0.141536 0.382253
v -0.383855 -0.126370 0.383792
v -0.115884 -0.141654 0.381534
v 0.000998 -0.126539 0.382759
v -0.115870 -0.124062 0.383960
v -0.383852 -0.123944 0.384679
v -0.115873 -0.126488 0.383073
v 0.001000 -0.124113 0.383647
v 0.117869 -0.126540 0.382447
v 0.117871 -0.124113 0.383334
v -0.115864 -0.122472 0.385806
v 0.001006 -0.122524 0.385493
v 0.117876 -0.122524 0.385180
v 0.001012 -0.122111 0.387903
v 0.117882 -0.122111 0.387590
v -0.115846 -0.122573 0.392765
v -0.115858 -0.122060 0.388216
v 0.001025 -0.122624 0.392452
v 0.117894 -0.122624 0.392139
v 0.385876 -0.122624 0.391423
v 0.385857 -0.122524 0.384464
v 0.385864 -0.122111 0.386874
v 0.117911 -0.123329 0.398392
v 0.385893 -0.123329 0.397676
v 0.001041 -0.123329 0.398705
v 0.117923 -0.123842 0.402941
v 0.385905 -0.123842 0.402225
v 0.001053 -0.123842 0.403254
v 0.117929 -0.124783 0.405214
v 0.385911 -0.124783 0.404498
v 0.117933 -0.126748 0.406700
v 0.385915 -0.126748 0.405983
v 0.001063 -0.126748 0.407012
v -0.115811 -0.124732 0.405840
v -0.115817 -0.123791 0.403567
v -0.115808 -0.126696 0.407326
v 0.001059 -0.124783 0.405527
v -0.383793 -0.124614 0.406559
v -0.383799 -0.123673 0.404286
v -0.383790 -0.126579 0.408044
v -0.383790 -0.129148 0.408425
v -0.115808 -0.129266 0.407706
v -0.115819 -0.144432 0.406168
v -0.383801 -0.144315 0.406887
v 0.001063 -0.129318 0.407393
v 0.117934 -0.129318 0.407081
v 0.117930 -0.144484 0.405542
v 0.385916 -0.129318 0.406364
v 0.385912 -0.144484 0.404826
v 0.117923 -0.170307 0.402923
v 0.385905 -0.170307 0.402207
v 0.001056 -0.144483 0.405855
v 0.117919 -0.185473 0.401385
v 0.385901 -0.185473 0.400668
v 0.001043 -0.170307 0.403235
v -0.115838 -0.170256 0.403549
v 0.001035 -0.185473 0.401697
v 0.117917 -0.187900 0.400497
v 0.001032 -0.187900 0.400809
v 0.117912 -0.189489 0.398651
v -0.115857 -0.189437 0.399277
v 0.001021 -0.189901 0.396554
v 0.117906 -0.189902 0.396241
v 0.001027 -0.189489 0.398963
v 0.117893 -0.189388 0.391692
v 0.001009 -0.189388 0.392005
v -0.115876 -0.189337 0.392318
v -0.115893 -0.188632 0.386065
v 0.000992 -0.188683 0.385751
v 0.117876 -0.188683 0.385439
v 0.117865 -0.188170 0.380890
v 0.385858 -0.188683 0.384723
v 0.385846 -0.188170 0.380174
v 0.385840 -0.187230 0.377901
v 0.385836 -0.185265 0.376415
v 0.385835 -0.182695 0.376034
v 0.385875 -0.189388 0.390976
v 0.385894 -0.189489 0.397935
v 0.385887 -0.189901 0.395525
v 0.385839 -0.167529 0.377573
v 0.385898 -0.187900 0.399780
v 0.385846 -0.141706 0.380192
v 0.385850 -0.126540 0.381730
v 0.385853 -0.124113 0.382618
v -0.383811 -0.123160 0.399737
v -0.383827 -0.122455 0.393484
v -0.115829 -0.123278 0.399018
v -0.383839 -0.121942 0.388935
v -0.383846 -0.122355 0.386525
vt 0.903600 0.701000
vt 0.917500 0.701800
vt 0.910000 0.707100
vt 0.082500 0.701800
vt 0.096400 0.701000
vt 0.090000 0.707100
vt 0.911000 0.695600
vt 0.089000 0.695600
vt 0.920200 0.726300
vt 0.627600 0.725200
vt 0.920200 0.725100
vt 0.627600 0.723300
vt 0.920200 0.723300
vt 0.082400 0.726300
vt 0.079700 0.723300
vt 0.103800 0.721300
vt 0.627600 0.084700
vt 0.920200 0.082400
vt 0.920200 0.084700
vt 0.089200 0.726300
vt 0.095300 0.725800
vt 0.103400 0.723200
vt 0.099700 0.725400
vt 0.372400 0.721300
vt 0.079800 0.723200
vt 0.079800 0.721300
vt 0.372400 0.709800
vt 0.079800 0.709700
vt 0.078300 0.711700
vt 0.102400 0.709700
vt 0.627600 0.099700
vt 0.920200 0.095300
vt 0.920200 0.099700
vt 0.920200 0.102000
vt 0.372400 0.724800
vt 0.079800 0.724700
vt 0.627600 0.102000
vt 0.500000 0.099700
vt 0.372400 0.723300
vt 0.500000 0.724800
vt 0.500000 0.721400
vt 0.500000 0.723300
vt 0.627600 0.723300
vt 0.627600 0.721300
vt 0.627600 0.724800
vt 0.500000 0.709800
vt 0.627600 0.709800
vt 0.500000 0.690100
vt 0.627600 0.690100
vt 0.079800 0.690100
vt 0.079800 0.678500
vt 0.372400 0.690100
vt 0.500000 0.678600
vt 0.372400 0.676700
vt 0.079800 0.676700
vt 0.372400 0.678600
vt 0.500000 0.676700
vt 0.627600 0.678600
vt 0.627600 0.676700
vt 0.372400 0.675500
vt 0.500000 0.675500
vt 0.627600 0.675500
vt 0.372400 0.096000
vt 0.500000 0.093600
vt 0.500000 0.096000
vt 0.627600 0.093600
vt 0.627600 0.096000
vt 0.372400 0.089200
vt 0.372400 0.093600
vt 0.500000 0.089200
vt 0.627600 0.089200
vt 0.920200 0.089200
vt 0.920200 0.096000
vt 0.920200 0.093600
vt 0.627600 0.083100
vt 0.920200 0.083100
vt 0.500000 0.083100
vt 0.627600 0.078600
vt 0.920200 0.078600
vt 0.500000 0.078600
vt 0.627600 0.076400
vt 0.920200 0.076400
vt 0.079800 0.677100
vt 0.372400 0.678600
vt 0.079800 0.678500
vt 0.372400 0.677100
vt 0.500000 0.678600
vt 0.372400 0.076400
vt 0.372400 0.078600
vt 0.627600 0.678600
vt 0.500000 0.677100
vt 0.627600 0.677100
vt 0.079800 0.076400
vt 0.079800 0.078600
vt 0.920200 0.677100
vt 0.920200 0.678500
vt 0.920200 0.680500
vt 0.627600 0.680500
vt 0.627600 0.692100
vt 0.920200 0.692100
vt 0.500000 0.680600
vt 0.372400 0.680500
vt 0.372400 0.692100
vt 0.079800 0.680500
vt 0.079800 0.692100
vt 0.372400 0.711800
vt 0.079800 0.711700
vt 0.500000 0.692100
vt 0.372400 0.723300
vt 0.079800 0.723300
vt 0.500000 0.711800
vt 0.627600 0.711800
vt 0.920200 0.711700
vt 0.075900 0.692100
vt 0.100000 0.690100
vt 0.074500 0.680500
vt 0.074900 0.678500
vt 0.500000 0.723300
vt 0.372400 0.725200
vt 0.500000 0.725200
vt 0.372400 0.726400
vt 0.627600 0.726400
vt 0.372400 0.082400
vt 0.500000 0.084700
vt 0.372400 0.084700
vt 0.500000 0.082400
vt 0.627600 0.082400
vt 0.372400 0.089200
vt 0.500000 0.089200
vt 0.627600 0.089200
vt 0.920200 0.089200
vt 0.627600 0.095300
vt 0.500000 0.095300
vt 0.372400 0.095300
vt 0.372400 0.099700
vt 0.372400 0.102000
vt 0.079800 0.095300
vt 0.079800 0.099700
vt 0.079800 0.102000
vt 0.920200 0.724700
vt 0.920200 0.723200
vt 0.896600 0.723200
vt 0.900300 0.725400
vt 0.898000 0.724700
vt 0.920200 0.721300
vt 0.910800 0.726300
vt 0.917600 0.726300
vt 0.915300 0.726700
vt 0.904700 0.725800
vt 0.896200 0.721300
vt 0.921700 0.711700
vt 0.897600 0.709700
vt 0.920300 0.723300
vt 0.919400 0.725100
vt 0.920200 0.709700
vt 0.079800 0.725100
vt 0.079800 0.726300
vt 0.079800 0.084700
vt 0.079800 0.089200
vt 0.924100 0.692100
vt 0.900000 0.690100
vt 0.920200 0.690100
vt 0.920200 0.678500
vt 0.910800 0.675500
vt 0.901400 0.678500
vt 0.906400 0.675100
vt 0.916900 0.676000
vt 0.925100 0.678500
vt 0.921400 0.676300
vt 0.923600 0.677100
vt 0.925500 0.680500
vt 0.902200 0.676700
vt 0.920200 0.676700
vt 0.920200 0.675400
vt 0.078600 0.676300
vt 0.083100 0.676000
vt 0.089200 0.675500
vt 0.372400 0.083100
vt 0.079800 0.083100
vt 0.079800 0.089200
vt 0.079800 0.093600
vt 0.098600 0.678500
vt 0.093600 0.675100
vt 0.097800 0.676700
vt 0.096000 0.675400
vt 0.079800 0.096000
vt 0.079800 0.675400
vt 0.080600 0.725100
vt 0.084700 0.726700
vt 0.102000 0.724700
vt 0.500000 0.102000
vt 0.500000 0.076400
vt 0.500000 0.726400
vt 0.079800 0.082400
vt 0.904000 0.675400
vt 0.076400 0.677100
vn 1.0000 0.0001 -0.0024
vn -1.0000 0.0004 0.0029
vn 1.0000 -0.0001 -0.0024
vn -1.0000 0.0005 0.0029
vn 0.0007 -0.9047 0.4261
vn 0.0020 -0.5690 0.8223
vn 0.0020 -0.5689 0.8224
vn 0.0024 -0.3434 0.9392
vn -1.0000 0.0005 0.0027
vn -1.0000 0.0004 0.0027
vn 0.0000 -0.9856 0.1689
vn 0.0000 -0.9857 0.1685
vn -1.0000 0.0003 0.0026
vn -0.0027 -0.1467 -0.9892
vn -0.0026 -0.3868 -0.9221
vn -0.0026 0.1009 -0.9949
vn -0.0007 -0.9937 -0.1121
vn -0.0020 -0.7912 -0.6116
vn -0.0014 -0.9240 -0.3825
vn -0.0012 -0.9241 -0.3822
vn -0.0018 -0.7913 -0.6114
vn -0.0027 -0.1466 -0.9892
vn -0.0025 -0.3868 -0.9222
vn -0.0026 -0.1466 -0.9892
vn -0.0016 -0.7913 -0.6114
vn -0.0027 0.1009 -0.9949
vn -0.0026 0.1010 -0.9949
vn -0.0020 0.5689 -0.8224
vn -0.0024 0.3434 -0.9392
vn -0.0020 0.5690 -0.8223
vn -0.0021 0.5691 -0.8222
vn -0.0024 0.3437 -0.9391
vn -0.0022 0.5690 -0.8224
vn -0.0025 0.3433 -0.9392
vn -0.0007 0.9047 -0.4261
vn -0.0009 0.9047 -0.4261
vn -0.0011 0.9047 -0.4261
vn -0.0002 0.9856 -0.1689
vn -0.0005 0.9856 -0.1689
vn 0.0007 0.9937 0.1120
vn 0.0005 0.9937 0.1121
vn 0.0007 0.9937 0.1121
vn 0.0003 0.9937 0.1121
vn 0.0005 0.9937 0.1120
vn 0.0003 0.9937 0.1120
vn 0.0012 0.9240 0.3825
vn 0.0016 0.7913 0.6115
vn 0.0010 0.9240 0.3825
vn 0.0016 0.7912 0.6116
vn 0.0025 0.3870 0.9221
vn 0.0025 0.3868 0.9222
vn 0.0026 0.3868 0.9222
vn 0.0020 0.7913 0.6114
vn 0.0014 0.9240 0.3825
vn 0.0026 0.3869 0.9221
vn 0.0018 0.7912 0.6116
vn 0.0020 0.7912 0.6116
vn 0.0026 0.3868 0.9221
vn 0.0027 0.1467 0.9892
vn 0.0027 0.1468 0.9892
vn 0.0026 -0.1009 0.9949
vn 0.0026 0.1467 0.9892
vn 0.0027 -0.1009 0.9949
vn 0.0027 -0.1010 0.9949
vn 0.0026 0.1466 0.9892
vn 0.0026 -0.1010 0.9949
vn 0.0024 -0.3436 0.9391
vn 0.0022 -0.5691 0.8223
vn 0.0025 -0.3436 0.9391
vn 0.0021 -0.5691 0.8222
vn 0.0011 -0.9047 0.4261
vn 0.0002 -0.9857 0.1686
vn 0.0004 -0.9856 0.1689
vn 0.0009 -0.9047 0.4260
vn -0.0005 -0.9937 -0.1121
vn -0.0003 -0.9937 -0.1122
vn -0.0003 -0.9937 -0.1123
vn -0.0005 -0.9937 -0.1120
vn -0.0007 -0.9937 -0.1120
vn -0.0003 -0.9937 -0.1120
vn -0.0003 -0.9937 -0.1121
vn -0.0010 -0.9241 -0.3822
vn -0.0016 -0.7914 -0.6113
vn -0.0025 -0.3870 -0.9221
vn 1.0000 0.0000 -0.0027
vn 1.0000 -0.0000 -0.0026
vn -0.0026 -0.1467 -0.9892
vn 1.0000 -0.0001 -0.0027
vn 1.0000 -0.0001 -0.0026
vn 1.0000 -0.0003 -0.0027
vn -0.0027 0.1010 -0.9949
vn 0.0022 -0.5690 0.8223
vn 0.0005 -0.9857 0.1685
vn 1.0000 0.0001 -0.0026
vn 1.0000 -0.0002 -0.0025
vn -0.0025 0.3436 -0.9391
vn -0.0022 0.5691 -0.8223
vn -1.0000 0.0005 0.0026
vn -1.0000 0.0004 0.0028
vn -1.0000 0.0001 0.0030
vn -1.0000 0.0005 0.0028
vn -0.0000 0.9857 -0.1685
vn -0.0007 0.9046 -0.4262
vn -0.0000 0.9856 -0.1689
vn -1.0000 0.0002 0.0029
vn -1.0000 0.0011 0.0027
vn -1.0000 0.0007 0.0029
vn -0.0010 -0.9241 -0.3821
usemtl Material__0.008
s off
f 1/1/1 2/2/1 3/3/1
f 4/4/2 5/5/2 6/6/2
f 1/1/3 7/7/3 2/2/3
f 4/4/4 8/8/4 5/5/4
s 1
f 9/9/5 10/10/6 11/11/7
f 11/11/7 12/12/8 13/13/8
f 9/14/9 13/15/10 14/16/10
f 15/17/11 9/18/5 16/19/12
f 17/20/9 9/14/9 14/16/10
f 14/16/10 18/21/13 17/20/9
f 19/22/10 20/23/10 14/16/10
f 21/24/14 19/25/15 14/26/14
f 22/27/16 14/26/16 23/28/16
f 14/16/10 24/29/10 23/30/10
f 25/31/17 18/32/17 20/33/17
f 26/34/18 25/31/19 20/33/19
f 19/25/15 27/35/18 26/36/18
f 27/37/18 28/38/20 25/31/19
f 29/39/15 30/40/21 27/35/18
f 29/39/15 31/41/22 32/42/15
f 33/43/23 31/41/22 34/44/24
f 35/45/25 32/42/15 33/43/23
f 34/44/26 36/46/16 37/47/26
f 21/24/16 36/46/16 31/41/27
f 37/47/26 38/48/16 39/49/26
f 22/27/16 38/48/16 36/46/16
f 40/50/16 22/27/16 23/28/16
f 41/51/27 42/52/16 40/50/16
f 42/52/16 43/53/16 38/48/16
f 44/54/28 41/51/29 45/55/30
f 46/56/29 47/57/31 43/53/32
f 39/49/26 43/53/16 48/58/26
f 43/53/32 49/59/33 48/58/34
f 50/60/35 47/57/31 44/54/28
f 49/59/33 51/61/36 52/62/37
f 50/63/35 53/64/38 51/65/36
f 51/65/36 54/66/39 52/67/37
f 55/68/40 53/64/41 56/69/42
f 54/66/43 57/70/44 58/71/45
f 59/72/45 54/66/43 58/71/45
f 60/73/37 54/66/39 61/74/39
f 57/70/44 62/75/45 58/71/45
f 59/72/45 62/75/45 63/76/45
f 64/77/44 65/78/43 62/75/45
f 66/79/43 62/75/45 65/78/43
f 67/80/46 68/81/47 65/78/48
f 69/82/49 65/78/48 68/81/47
f 69/83/49 70/84/50 71/85/51
f 68/86/47 72/87/52 70/84/50
f 73/88/53 67/80/46 74/89/54
f 75/90/55 76/91/56 73/92/53
f 77/93/57 74/89/54 78/94/54
f 75/90/55 77/95/57 79/96/58
f 80/97/59 75/90/55 79/96/58
f 81/98/60 72/87/52 75/90/55
f 82/99/61 80/97/61 83/100/61
f 82/99/61 84/101/61 81/98/61
f 72/87/52 85/102/62 70/84/50
f 84/101/61 86/103/63 85/102/64
f 87/104/65 70/84/50 85/102/62
f 87/104/63 86/103/63 88/105/63
f 88/105/63 89/106/63 90/107/63
f 91/108/61 89/106/63 86/103/63
f 90/107/63 92/109/63 93/110/64
f 94/111/61 92/109/63 89/106/63
f 12/12/66 94/111/61 95/112/61
f 95/112/61 91/108/61 82/99/61
f 12/12/66 24/113/61 13/13/66
f 95/112/61 83/100/61 24/113/61
f 23/30/10 83/114/10 40/115/10
f 40/115/10 80/116/10 79/117/10
f 10/10/6 96/118/67 12/12/8
f 96/118/67 97/119/68 92/109/69
f 98/120/70 99/121/71 97/119/68
f 100/122/5 98/120/70 10/10/6
f 99/123/71 101/124/72 102/125/73
f 15/17/11 103/126/74 100/127/5
f 101/124/75 104/128/76 102/125/77
f 15/17/17 105/129/78 101/124/75
f 106/130/79 16/19/17 17/131/79
f 107/132/79 17/131/79 18/32/17
f 106/130/79 108/133/78 105/129/78
f 25/31/17 108/133/78 107/132/79
f 105/129/78 109/134/80 104/128/76
f 109/134/80 28/38/75 110/135/81
f 28/38/20 35/136/25 110/135/82
f 111/137/80 110/135/81 112/138/81
f 113/139/83 110/135/82 35/136/25
f 113/140/83 33/43/23 114/141/84
f 114/142/85 112/143/86 113/144/86
f 114/141/84 34/44/24 115/145/87
f 116/146/88 117/147/89 118/148/90
f 111/149/88 115/150/85 116/146/88
f 90/151/85 115/150/85 119/152/85
f 117/147/89 93/153/86 120/154/89
f 115/145/91 37/47/26 119/155/26
f 120/156/92 99/121/71 117/157/71
f 118/158/93 99/123/71 102/125/73
f 116/159/81 102/125/77 104/128/76
f 120/156/92 92/109/69 97/119/68
f 88/160/85 119/152/85 121/161/85
f 119/155/26 39/49/26 121/162/26
f 122/163/26 39/49/26 48/58/26
f 59/164/85 122/165/89 61/166/85
f 63/167/85 121/161/85 59/164/85
f 71/168/85 66/169/85 69/170/94
f 87/171/85 121/161/85 71/168/85
f 123/172/95 61/166/85 122/165/89
f 122/163/96 49/59/33 123/173/97
f 60/174/37 49/59/33 52/62/37
f 111/137/80 104/128/76 109/134/80
f 79/117/10 78/175/10 40/115/10
f 40/115/10 124/176/9 125/177/98
f 78/94/42 126/178/40 124/179/40
f 124/179/40 55/68/40 125/180/40
f 126/178/40 57/70/44 55/68/40
f 74/89/42 64/77/44 126/178/40
f 55/68/40 127/181/42 125/180/40
f 41/182/99 125/177/98 127/183/10
f 45/184/100 127/183/10 128/185/101
f 56/69/102 128/186/103 127/181/104
f 128/187/103 44/54/28 45/55/30
f 9/9/5 100/122/5 10/10/6
f 11/11/7 10/10/6 12/12/8
f 9/14/9 11/188/105 13/15/10
f 15/17/11 100/127/5 9/18/5
f 17/20/9 16/189/106 9/14/9
f 14/16/10 20/23/10 18/21/13
f 19/22/10 26/190/107 20/23/10
f 21/24/14 29/39/15 19/25/15
f 22/27/16 21/24/16 14/26/16
f 14/16/10 13/15/10 24/29/10
f 25/31/17 107/132/79 18/32/17
f 26/34/18 27/37/18 25/31/19
f 19/25/15 29/39/15 27/35/18
f 27/37/18 30/191/21 28/38/20
f 29/39/15 32/42/15 30/40/21
f 29/39/15 21/24/14 31/41/22
f 33/43/23 32/42/15 31/41/22
f 35/45/25 30/40/21 32/42/15
f 34/44/26 31/41/27 36/46/16
f 21/24/16 22/27/16 36/46/16
f 37/47/26 36/46/16 38/48/16
f 22/27/16 42/52/16 38/48/16
f 40/50/16 42/52/16 22/27/16
f 41/51/27 46/56/27 42/52/16
f 42/52/16 46/56/27 43/53/16
f 44/54/28 46/56/29 41/51/29
f 46/56/29 44/54/28 47/57/31
f 39/49/26 38/48/16 43/53/16
f 43/53/32 47/57/31 49/59/33
f 50/60/35 51/61/36 47/57/31
f 49/59/33 47/57/31 51/61/36
f 50/63/35 56/69/102 53/64/38
f 51/65/36 53/64/38 54/66/39
f 55/68/40 57/70/44 53/64/41
f 54/66/43 53/64/41 57/70/44
f 59/72/45 61/74/43 54/66/43
f 60/73/37 52/67/37 54/66/39
f 57/70/44 64/77/44 62/75/45
f 59/72/45 58/71/45 62/75/45
f 64/77/44 67/80/41 65/78/43
f 66/79/43 63/76/45 62/75/45
f 67/80/46 76/192/56 68/81/47
f 69/82/49 66/79/48 65/78/48
f 69/83/49 68/86/47 70/84/50
f 68/86/47 76/91/56 72/87/52
f 73/88/53 76/192/56 67/80/46
f 75/90/55 72/87/52 76/91/56
f 77/93/57 73/88/53 74/89/54
f 75/90/55 73/92/53 77/95/57
f 80/97/59 81/98/60 75/90/55
f 81/98/60 84/101/59 72/87/52
f 82/99/61 81/98/61 80/97/61
f 82/99/61 91/108/61 84/101/61
f 72/87/52 84/101/59 85/102/62
f 84/101/61 91/108/61 86/103/63
f 87/104/65 71/85/51 70/84/50
f 87/104/63 85/102/64 86/103/63
f 88/105/63 86/103/63 89/106/63
f 91/108/61 94/111/61 89/106/63
f 90/107/63 89/106/63 92/109/63
f 94/111/61 96/118/61 92/109/63
f 12/12/66 96/118/61 94/111/61
f 95/112/61 94/111/61 91/108/61
f 12/12/66 95/112/61 24/113/61
f 95/112/61 82/99/61 83/100/61
f 23/30/10 24/29/10 83/114/10
f 40/115/10 83/114/10 80/116/10
f 10/10/6 98/120/70 96/118/67
f 96/118/67 98/120/70 97/119/68
f 98/120/70 103/193/74 99/121/71
f 100/122/5 103/193/74 98/120/70
f 99/123/71 103/126/74 101/124/72
f 15/17/11 101/124/72 103/126/74
f 101/124/75 105/129/78 104/128/76
f 15/17/17 106/130/79 105/129/78
f 106/130/79 15/17/17 16/19/17
f 107/132/79 106/130/79 17/131/79
f 106/130/79 107/132/79 108/133/78
f 25/31/17 28/38/75 108/133/78
f 105/129/78 108/133/78 109/134/80
f 109/134/80 108/133/78 28/38/75
f 28/38/20 30/191/21 35/136/25
f 111/137/80 109/134/80 110/135/81
f 113/139/83 112/138/108 110/135/82
f 113/140/83 35/45/25 33/43/23
f 114/142/85 115/150/85 112/143/86
f 114/141/84 33/43/23 34/44/24
f 116/146/88 115/150/85 117/147/89
f 111/149/88 112/143/86 115/150/85
f 90/151/85 93/153/86 115/150/85
f 117/147/89 115/150/85 93/153/86
f 115/145/91 34/44/26 37/47/26
f 120/156/92 97/119/68 99/121/71
f 118/158/93 117/194/71 99/123/71
f 116/159/81 118/158/81 102/125/77
f 120/156/92 93/110/69 92/109/69
f 88/160/85 90/151/85 119/152/85
f 119/155/26 37/47/26 39/49/26
f 122/163/26 121/162/26 39/49/26
f 59/164/85 121/161/85 122/165/89
f 63/167/85 66/169/85 121/161/85
f 71/168/85 121/161/85 66/169/85
f 87/171/85 88/160/85 121/161/85
f 123/172/95 60/195/89 61/166/85
f 122/163/96 48/58/34 49/59/33
f 60/174/37 123/173/97 49/59/33
f 111/137/80 116/159/81 104/128/76
f 79/117/10 77/196/107 78/175/10
f 40/115/10 78/175/10 124/176/9
f 78/94/42 74/89/42 126/178/40
f 124/179/40 126/178/40 55/68/40
f 126/178/40 64/77/44 57/70/44
f 74/89/42 67/80/41 64/77/44
f 55/68/40 56/69/42 127/181/42
f 41/182/99 40/115/10 125/177/98
f 45/184/100 41/182/99 127/183/10
f 56/69/102 50/63/35 128/186/103
f 128/187/103 50/60/35 44/54/28