# Blender v3.0.1 OBJ File: ''
# www.blender.org
mtllib 04.mtl
o normalized.012
v -0.111463 -0.510981 -0.407928
v -0.386974 -0.512678 -0.409170
v -0.386971 -0.510865 -0.407522
v -0.111468 -0.515315 -0.410175
v -0.386976 -0.515199 -0.409769
v -0.386979 -0.521633 -0.409670
v -0.386917 -0.542024 -0.369113
v -0.386966 -0.510149 -0.405177
v -0.111453 -0.542482 -0.391865
v -0.386956 -0.542366 -0.391459
v -0.111419 -0.542139 -0.369519
v -0.386894 -0.541821 -0.355892
v -0.386983 -0.531227 -0.409523
v -0.386943 -0.509946 -0.391956
v -0.386904 -0.509604 -0.369610
v -0.386881 -0.530337 -0.351399
v -0.386877 -0.520743 -0.351546
v -0.386886 -0.539292 -0.351899
v -0.386884 -0.536771 -0.351300
v -0.386875 -0.511807 -0.352321
v -0.386881 -0.509402 -0.356388
v -0.111400 -0.541937 -0.356298
v -0.386889 -0.541105 -0.353547
v -0.111396 -0.541221 -0.353953
v -0.001073 -0.541983 -0.356455
v -0.001067 -0.541267 -0.354111
v -0.001109 -0.542186 -0.369677
v 0.109262 -0.541269 -0.354544
v 0.109253 -0.541986 -0.356888
v 0.109201 -0.542188 -0.370110
v -0.001168 -0.542528 -0.392023
v 0.109115 -0.542530 -0.392456
v 0.384745 -0.541991 -0.357958
v 0.384697 -0.542193 -0.371179
v 0.384617 -0.542535 -0.393526
v -0.001204 -0.542731 -0.405244
v 0.109063 -0.542733 -0.405677
v 0.384569 -0.542738 -0.406747
v -0.001210 -0.542086 -0.407610
v 0.109054 -0.542089 -0.408042
v 0.384560 -0.542094 -0.409112
v 0.109048 -0.540328 -0.409745
v 0.384554 -0.540332 -0.410815
v -0.001214 -0.540325 -0.409312
v -0.111472 -0.542684 -0.405087
v -0.111475 -0.542040 -0.407452
v -0.386979 -0.542568 -0.404681
v -0.386983 -0.541924 -0.407046
v -0.111477 -0.540279 -0.409154
v -0.386985 -0.540163 -0.408749
v -0.111477 -0.537777 -0.409831
v -0.386985 -0.537661 -0.409425
v -0.001216 -0.537823 -0.409988
v -0.111475 -0.531343 -0.409929
v -0.001214 -0.531389 -0.410087
v -0.001213 -0.521796 -0.410234
v -0.111471 -0.521749 -0.410076
v -0.001211 -0.515362 -0.410332
v 0.109045 -0.521798 -0.410667
v 0.109044 -0.515364 -0.410765
v 0.109045 -0.531392 -0.410520
v 0.384551 -0.515369 -0.411835
v 0.384551 -0.521803 -0.411736
v 0.109045 -0.537825 -0.410421
v 0.384552 -0.537830 -0.411491
v 0.384552 -0.531397 -0.411589
v -0.001209 -0.512840 -0.409733
v 0.109047 -0.512842 -0.410166
v 0.384553 -0.512847 -0.411236
v 0.109053 -0.511030 -0.408518
v 0.384559 -0.511035 -0.409588
v -0.001204 -0.511028 -0.408085
v 0.109062 -0.510313 -0.406174
v 0.384567 -0.510318 -0.407243
v 0.384615 -0.510116 -0.394022
v 0.109113 -0.510111 -0.392952
v -0.001198 -0.510311 -0.405741
v -0.111459 -0.510265 -0.405583
v -0.111440 -0.510062 -0.392362
v -0.111406 -0.509720 -0.370015
v -0.001163 -0.510109 -0.392519
v -0.111387 -0.509518 -0.356794
v -0.001103 -0.509766 -0.370173
v 0.109200 -0.509769 -0.370606
v 0.109251 -0.509566 -0.357385
v -0.111383 -0.510162 -0.354429
v -0.001067 -0.509564 -0.356952
v 0.109260 -0.510210 -0.355020
v -0.001061 -0.510208 -0.354587
v 0.109267 -0.511972 -0.353317
v -0.111382 -0.511923 -0.352726
v -0.001057 -0.511969 -0.352884
v 0.109270 -0.514474 -0.352641
v -0.111382 -0.514425 -0.352050
v -0.386875 -0.514309 -0.351644
v -0.386877 -0.510046 -0.354023
v -0.111384 -0.520859 -0.351952
v -0.001056 -0.514471 -0.352208
v -0.111388 -0.530453 -0.351804
v -0.001057 -0.520905 -0.352109
v 0.109270 -0.520907 -0.352542
v 0.109270 -0.530501 -0.352395
v -0.001059 -0.530499 -0.351962
v 0.109270 -0.536935 -0.352297
v -0.111391 -0.536887 -0.351706
v -0.001062 -0.539454 -0.352463
v -0.001060 -0.536933 -0.351864
v 0.109268 -0.539457 -0.352896
v -0.111393 -0.539408 -0.352305
v 0.384759 -0.539462 -0.353966
v 0.384754 -0.541274 -0.355614
v 0.384762 -0.536940 -0.353367
v 0.384744 -0.509571 -0.358455
v 0.384696 -0.509774 -0.371676
v 0.384758 -0.511976 -0.354387
v 0.384752 -0.510215 -0.356089
v 0.384761 -0.520912 -0.353612
v 0.384761 -0.514479 -0.353710
v 0.384761 -0.530506 -0.353465
v -0.111466 -0.512794 -0.409575
vt 0.379600 0.975400
vt 0.078800 0.976700
vt 0.078800 0.975300
vt 0.379600 0.978700
vt 0.078800 0.978600
vt 0.871800 0.976700
vt 0.872300 0.983500
vt 0.832500 0.998800
vt 0.867900 0.974800
vt 0.620400 0.854000
vt 0.921200 0.832500
vt 0.921200 0.854300
vt 0.620400 0.832100
vt 0.921200 0.819500
vt 0.854300 0.999200
vt 0.872100 0.990800
vt 0.855000 0.974500
vt 0.819500 0.998600
vt 0.833200 0.974200
vt 0.815200 0.989900
vt 0.815400 0.982600
vt 0.815600 0.996700
vt 0.815100 0.994800
vt 0.816200 0.975800
vt 0.820200 0.973900
vt 0.620400 0.819200
vt 0.921200 0.817200
vt 0.620500 0.816900
vt 0.500000 0.819100
vt 0.500000 0.816800
vt 0.500000 0.832000
vt 0.379500 0.816900
vt 0.379600 0.819200
vt 0.379600 0.832100
vt 0.500000 0.853900
vt 0.379600 0.854000
vt 0.078800 0.819500
vt 0.078800 0.832500
vt 0.078800 0.854300
vt 0.500000 0.866800
vt 0.379600 0.866900
vt 0.078800 0.867200
vt 0.500000 0.869100
vt 0.379600 0.869200
vt 0.078800 0.869600
vt 0.921200 0.999000
vt 0.620400 0.997700
vt 0.921200 0.997600
vt 0.620400 0.999000
vt 0.500000 0.997700
vt 0.620400 0.866900
vt 0.379600 0.999000
vt 0.500000 0.999000
vt 0.620400 0.869200
vt 0.921200 0.867200
vt 0.921200 0.869600
vt 0.379600 0.997700
vt 0.078800 0.999000
vt 0.078800 0.997600
vt 0.379600 0.995800
vt 0.078800 0.995700
vt 0.500000 0.995800
vt 0.379600 0.990900
vt 0.078800 0.990800
vt 0.500000 0.990900
vt 0.078800 0.983500
vt 0.500000 0.983600
vt 0.379600 0.983600
vt 0.500000 0.978700
vt 0.620400 0.983600
vt 0.620400 0.978700
vt 0.620400 0.990900
vt 0.921200 0.978600
vt 0.921200 0.983500
vt 0.620400 0.995800
vt 0.921200 0.995700
vt 0.921200 0.990800
vt 0.127900 0.990800
vt 0.132800 0.999400
vt 0.128100 0.995700
vt 0.127700 0.983500
vt 0.145700 0.999200
vt 0.128800 0.997600
vt 0.130400 0.999000
vt 0.500000 0.976800
vt 0.620400 0.976800
vt 0.921200 0.976700
vt 0.620400 0.975400
vt 0.921200 0.975300
vt 0.500000 0.869800
vt 0.620400 0.867600
vt 0.620400 0.869900
vt 0.921200 0.867900
vt 0.921200 0.855000
vt 0.620400 0.854700
vt 0.500000 0.867500
vt 0.379600 0.867600
vt 0.379600 0.869900
vt 0.379600 0.854700
vt 0.078800 0.867900
vt 0.078800 0.870200
vt 0.078800 0.855000
vt 0.078800 0.833200
vt 0.379600 0.832800
vt 0.500000 0.854600
vt 0.078800 0.820200
vt 0.379600 0.819900
vt 0.500000 0.832700
vt 0.620400 0.832800
vt 0.620400 0.819900
vt 0.379600 0.817600
vt 0.500000 0.819800
vt 0.620400 0.817600
vt 0.500000 0.974500
vt 0.379600 0.975800
vt 0.379600 0.974500
vt 0.620400 0.975800
vt 0.620400 0.974500
vt 0.500000 0.975800
vt 0.379600 0.977700
vt 0.620400 0.977700
vt 0.921200 0.977700
vt 0.921200 0.975800
vt 0.921200 0.974400
vt 0.921200 0.982600
vt 0.620500 0.982600
vt 0.500000 0.977700
vt 0.620500 0.989900
vt 0.921200 0.989900
vt 0.500000 0.982600
vt 0.379500 0.982600
vt 0.379500 0.989900
vt 0.500000 0.989900
vt 0.379500 0.994800
vt 0.620500 0.994800
vt 0.500000 0.996700
vt 0.500000 0.994800
vt 0.379500 0.996700
vt 0.620500 0.996700
vt 0.500000 0.998100
vt 0.379500 0.998100
vt 0.078800 0.996700
vt 0.078800 0.998100
vt 0.078800 0.817200
vt 0.184400 0.996700
vt 0.180500 0.998600
vt 0.184900 0.994800
vt 0.179800 0.973900
vt 0.167500 0.998800
vt 0.166800 0.974200
vt 0.183800 0.975800
vt 0.182100 0.974400
vt 0.184600 0.982600
vt 0.184500 0.977700
vt 0.184800 0.989900
vt 0.921200 0.820200
vt 0.921200 0.817900
vt 0.078800 0.975800
vt 0.145000 0.974500
vt 0.132100 0.974800
vt 0.921200 0.833200
vt 0.078800 0.982600
vt 0.078800 0.989900
vt 0.078800 0.994800
vt 0.078800 0.977700
vt 0.921200 0.994800
vt 0.921200 0.996700
vt 0.921200 0.998100
vt 0.078800 0.817900
vt 0.379600 0.976800
vt 0.128200 0.976700
vt 0.129800 0.975300
vt 0.127600 0.978600
vt 0.867200 0.999400
vt 0.871900 0.995700
vt 0.871200 0.997600
vt 0.869600 0.999000
vt 0.872400 0.978600
vt 0.870200 0.975300
vt 0.817200 0.998100
vt 0.817900 0.974400
vt 0.815500 0.977700
vt 0.500000 0.975400
vt 0.921200 0.870200
vt 0.500000 0.817400
vt 0.620500 0.998100
vt 0.182800 0.998100
vt 0.078800 0.974400
vn -0.0004 0.8447 -0.5353
vn -0.0011 0.4667 -0.8844
vn -0.0004 0.8447 -0.5352
vn -0.0013 0.2315 -0.9728
vn -0.0013 0.2312 -0.9729
vn -1.0000 0.0004 0.0018
vn -1.0000 0.0005 0.0017
vn -1.0000 0.0004 0.0017
vn -1.0000 0.0003 0.0018
vn -0.0004 -0.9999 0.0153
vn -0.0004 -0.9999 0.0154
vn -1.0000 0.0004 0.0020
vn 0.0000 -0.9564 0.2920
vn 0.0004 -0.8448 0.5351
vn 0.0006 -0.9564 0.2922
vn 0.0012 -0.8446 0.5353
vn -0.0002 -0.9999 0.0153
vn -0.0002 -0.9999 0.0154
vn 0.0021 -0.8447 0.5352
vn 0.0011 -0.9563 0.2925
vn 0.0000 -0.9999 0.0153
vn 0.0000 -0.9999 0.0154
vn -0.0010 -0.9649 -0.2627
vn -0.0016 -0.8607 -0.5091
vn -0.0020 -0.8608 -0.5090
vn -0.0010 -0.9649 -0.2628
vn -0.0020 -0.8607 -0.5091
vn -0.0034 -0.4936 -0.8697
vn -0.0034 -0.4935 -0.8697
vn -0.0024 -0.4936 -0.8697
vn -0.0008 -0.9649 -0.2628
vn -0.0009 -0.9648 -0.2630
vn -0.0011 -0.8607 -0.5091
vn -0.0008 -0.9649 -0.2627
vn -0.0011 -0.8607 -0.5090
vn -0.0015 -0.4937 -0.8696
vn -0.0015 -0.4936 -0.8697
vn -0.0015 -0.2607 -0.9654
vn -0.0015 -0.2608 -0.9654
vn -0.0026 -0.2608 -0.9654
vn -0.0015 -0.0153 -0.9999
vn -0.0015 -0.0152 -0.9999
vn -0.0027 -0.0154 -0.9999
vn -0.0015 -0.0154 -0.9999
vn -0.0027 -0.0153 -0.9999
vn -0.0027 -0.0152 -0.9999
vn -0.0039 -0.0153 -0.9999
vn -0.0039 -0.0152 -0.9999
vn -0.0039 -0.0154 -0.9999
vn 1.0000 0.0000 -0.0036
vn 1.0000 -0.0001 -0.0037
vn 1.0000 -0.0003 -0.0038
vn 1.0000 -0.0003 -0.0039
vn -0.0038 -0.2607 -0.9654
vn -0.0038 -0.2608 -0.9654
vn -0.0038 0.2311 -0.9729
vn -0.0023 0.4668 -0.8844
vn -0.0034 0.4668 -0.8844
vn -0.0034 0.4667 -0.8844
vn -0.0021 0.8447 -0.5353
vn -0.0012 0.8448 -0.5351
vn -0.0011 0.9563 -0.2925
vn -0.0011 0.9563 -0.2924
vn -0.0000 0.9999 -0.0153
vn 0.0002 0.9999 -0.0153
vn -0.0000 0.9564 -0.2920
vn 0.0004 0.9999 -0.0153
vn 0.0004 0.9999 -0.0154
vn 0.0011 0.8608 0.5090
vn 0.0009 0.9649 0.2628
vn 0.0008 0.9649 0.2627
vn 0.0020 0.8607 0.5091
vn 0.0010 0.9649 0.2627
vn 0.0018 0.8602 0.5099
vn 0.0034 0.4935 0.8697
vn 0.0015 0.4936 0.8697
vn 0.0024 0.4935 0.8697
vn 0.0038 0.2608 0.9654
vn 0.0015 0.2608 0.9654
vn 0.0015 0.2612 0.9653
vn 0.0015 0.4937 0.8696
vn 0.0011 0.8607 0.5091
vn 0.0015 0.0153 0.9999
vn 0.0015 0.0152 0.9999
vn 0.0027 0.0154 0.9999
vn 0.0015 0.0154 0.9999
vn 0.0039 0.0154 0.9999
vn 0.0039 0.0153 0.9999
vn 0.0027 0.0153 0.9999
vn 0.0039 0.0152 0.9999
vn 0.0013 -0.2312 0.9729
vn 0.0023 -0.4666 0.8845
vn 0.0026 -0.2312 0.9729
vn 0.0038 -0.2311 0.9729
vn 0.0034 -0.4668 0.8844
vn 0.0011 -0.4667 0.8844
vn 1.0000 -0.0003 -0.0033
vn 1.0000 0.0001 -0.0036
vn 1.0000 0.0000 -0.0037
vn 1.0000 -0.0000 -0.0035
vn 1.0000 0.0002 -0.0033
vn 1.0000 -0.0000 -0.0039
vn 0.0020 0.8608 0.5090
vn 0.0034 0.4936 0.8697
vn 0.0038 0.2611 0.9653
vn 1.0000 -0.0000 -0.0031
vn -0.0026 0.2311 -0.9729
vn -1.0000 0.0004 0.0016
vn -1.0000 0.0005 0.0018
vn -1.0000 0.0006 0.0019
vn -1.0000 0.0005 0.0013
vn -1.0000 -0.0000 0.0020
vn -1.0000 0.0007 0.0019
vn -1.0000 0.0004 0.0019
vn -0.0006 0.9563 -0.2925
vn 0.0026 0.2608 0.9654
vn 0.0027 0.0152 0.9999
vn 0.0010 0.9649 0.2626
usemtl Material__0.003
s 1
f 1/1/1 2/2/2 3/3/3
f 2/2/2 4/4/4 5/5/5
f 2/6/6 6/7/7 7/8/8
f 8/9/9 2/6/6 7/8/8
f 9/10/10 7/11/10 10/12/10
f 11/13/10 12/14/11 7/11/10
f 10/15/8 6/7/7 13/16/8
f 7/8/8 14/17/8 8/9/9
f 12/18/9 15/19/8 7/8/8
f 12/18/9 16/20/8 17/21/12
f 12/18/9 18/22/9 19/23/7
f 20/24/8 21/25/7 12/18/9
f 17/21/12 20/24/8 12/18/9
f 22/26/13 23/27/14 12/14/13
f 24/28/14 25/29/15 26/30/16
f 22/26/10 27/31/17 25/29/18
f 28/32/19 25/29/15 29/33/20
f 29/33/21 27/31/17 30/34/21
f 30/34/21 31/35/17 32/36/21
f 11/13/10 31/35/17 27/31/17
f 33/37/21 30/34/21 34/38/21
f 34/38/21 32/36/21 35/39/21
f 32/36/21 36/40/18 37/41/22
f 35/39/21 37/41/22 38/42/21
f 37/41/23 39/43/24 40/44/25
f 38/42/26 40/44/25 41/45/27
f 41/46/27 42/47/28 43/48/29
f 40/49/25 44/50/30 42/47/28
f 45/51/31 39/43/24 36/40/32
f 46/52/33 44/50/30 39/53/24
f 46/54/33 47/55/34 48/56/35
f 49/57/36 48/58/35 50/59/37
f 51/60/38 50/59/37 52/61/39
f 49/57/36 53/62/40 44/50/30
f 54/63/41 52/61/42 13/64/41
f 51/60/42 55/65/43 53/62/43
f 6/66/44 54/63/41 13/64/41
f 54/63/41 56/67/45 55/65/43
f 57/68/44 58/69/46 56/67/45
f 5/5/44 57/68/44 6/66/44
f 59/70/47 58/69/46 60/71/48
f 61/72/49 56/67/45 59/70/47
f 62/73/49 59/70/47 60/71/48
f 63/74/49 61/72/49 59/70/47
f 64/75/49 55/65/43 61/72/49
f 65/76/48 61/72/49 66/77/47
f 66/78/50 38/79/51 65/80/51
f 63/81/50 35/82/50 66/78/50
f 43/83/52 38/79/51 41/84/53
f 43/48/29 64/75/54 65/76/55
f 42/47/28 53/62/40 64/75/54
f 60/71/56 67/85/57 68/86/58
f 62/73/56 68/86/58 69/87/59
f 67/85/57 70/88/60 68/86/58
f 71/89/60 68/86/58 70/88/60
f 72/90/61 73/91/62 70/92/60
f 74/93/63 70/92/60 73/91/62
f 75/94/64 73/91/64 76/95/64
f 77/96/65 76/95/64 73/91/64
f 78/97/66 72/90/61 1/98/1
f 79/99/67 77/96/65 78/97/68
f 8/100/66 1/98/1 3/101/3
f 14/102/67 78/97/68 8/100/68
f 15/103/67 79/99/67 14/102/67
f 80/104/67 81/105/65 79/99/67
f 21/106/67 80/104/67 15/103/67
f 82/107/67 83/108/65 80/104/67
f 81/105/65 84/109/64 76/95/64
f 83/108/65 85/110/64 84/109/64
f 86/111/69 87/112/70 82/107/71
f 87/112/70 88/113/72 85/110/73
f 89/114/74 90/115/75 88/116/72
f 91/117/76 89/114/74 86/118/69
f 92/119/77 93/120/78 90/115/75
f 94/121/79 92/119/77 91/117/76
f 95/122/80 91/117/76 20/123/81
f 91/117/76 96/124/82 20/123/81
f 17/125/83 94/121/84 95/122/84
f 97/126/83 98/127/85 94/121/84
f 99/128/83 17/125/83 16/129/86
f 99/128/83 100/130/85 97/126/83
f 98/127/85 101/131/87 93/120/87
f 100/130/85 102/132/88 101/131/87
f 103/133/89 104/134/90 102/132/88
f 105/135/84 103/133/89 99/128/83
f 105/135/91 106/136/92 107/137/93
f 104/134/94 106/136/92 108/138/95
f 109/139/96 26/140/16 106/136/92
f 108/138/95 26/140/16 28/141/19
f 110/142/95 104/134/94 108/138/95
f 110/142/95 28/141/19 111/143/19
f 111/144/19 29/33/20 33/37/20
f 110/145/97 33/146/98 112/147/99
f 113/148/100 34/149/50 114/150/50
f 115/151/50 113/148/100 116/152/101
f 117/153/99 115/151/50 118/154/102
f 119/155/100 33/146/98 117/153/99
f 113/156/64 84/109/64 85/110/64
f 116/157/103 85/110/73 88/113/72
f 115/158/104 88/116/72 90/115/75
f 75/159/50 34/149/50 74/160/100
f 114/161/64 76/95/64 84/109/64
f 117/162/88 93/120/87 101/131/87
f 119/163/88 101/131/87 102/132/88
f 119/163/88 104/134/90 112/164/90
f 115/158/104 93/120/78 118/165/105
f 109/139/96 19/166/91 18/167/96
f 23/168/14 109/139/96 18/167/96
f 105/135/84 16/129/86 19/166/86
f 96/169/82 82/107/71 21/106/71
f 1/1/1 67/85/57 120/170/2
f 74/160/100 69/171/100 71/172/98
f 69/171/100 63/81/50 62/173/106
f 120/170/2 58/69/107 4/4/4
f 47/174/8 13/16/8 52/175/108
f 47/174/8 50/176/109 48/177/110
f 45/51/10 10/12/10 47/55/10
f 9/10/10 36/40/18 31/35/17
f 1/1/1 120/170/2 2/2/2
f 2/2/2 120/170/2 4/4/4
f 2/6/6 5/178/111 6/7/7
f 8/9/9 3/179/9 2/6/6
f 9/10/10 11/13/10 7/11/10
f 11/13/10 22/26/10 12/14/11
f 10/15/8 7/8/8 6/7/7
f 7/8/8 15/19/8 14/17/8
f 12/18/9 21/25/7 15/19/8
f 12/18/9 19/23/7 16/20/8
f 12/18/9 23/180/112 18/22/9
f 20/24/8 96/181/113 21/25/7
f 17/21/12 95/182/114 20/24/8
f 22/26/13 24/28/14 23/27/14
f 24/28/14 22/26/13 25/29/15
f 22/26/10 11/13/10 27/31/17
f 28/32/19 26/30/16 25/29/15
f 29/33/21 25/29/18 27/31/17
f 30/34/21 27/31/17 31/35/17
f 11/13/10 9/10/10 31/35/17
f 33/37/21 29/33/21 30/34/21
f 34/38/21 30/34/21 32/36/21
f 32/36/21 31/35/17 36/40/18
f 35/39/21 32/36/21 37/41/22
f 37/41/23 36/40/32 39/43/24
f 38/42/26 37/41/23 40/44/25
f 41/46/27 40/49/25 42/47/28
f 40/49/25 39/53/24 44/50/30
f 45/51/31 46/54/33 39/43/24
f 46/52/33 49/57/36 44/50/30
f 46/54/33 45/51/31 47/55/34
f 49/57/36 46/52/33 48/58/35
f 51/60/38 49/57/36 50/59/37
f 49/57/36 51/60/38 53/62/40
f 54/63/41 51/60/42 52/61/42
f 51/60/42 54/63/41 55/65/43
f 6/66/44 57/68/44 54/63/41
f 54/63/41 57/68/44 56/67/45
f 57/68/44 4/4/44 58/69/46
f 5/5/44 4/4/44 57/68/44
f 59/70/47 56/67/45 58/69/46
f 61/72/49 55/65/43 56/67/45
f 62/73/49 63/74/49 59/70/47
f 63/74/49 66/77/47 61/72/49
f 64/75/49 53/62/43 55/65/43
f 65/76/48 64/75/49 61/72/49
f 66/78/50 35/82/50 38/79/51
f 63/81/50 34/149/50 35/82/50
f 43/83/52 65/80/51 38/79/51
f 43/48/29 42/47/28 64/75/54
f 42/47/28 44/50/30 53/62/40
f 60/71/56 58/69/107 67/85/57
f 62/73/56 60/71/56 68/86/58
f 67/85/57 72/183/61 70/88/60
f 71/89/60 69/87/59 68/86/58
f 72/90/61 77/96/115 73/91/62
f 74/93/63 71/184/60 70/92/60
f 75/94/64 74/93/64 73/91/64
f 77/96/65 81/105/65 76/95/64
f 78/97/66 77/96/115 72/90/61
f 79/99/67 81/105/65 77/96/65
f 8/100/66 78/97/66 1/98/1
f 14/102/67 79/99/67 78/97/68
f 15/103/67 80/104/67 79/99/67
f 80/104/67 83/108/65 81/105/65
f 21/106/67 82/107/67 80/104/67
f 82/107/67 87/112/65 83/108/65
f 81/105/65 83/108/65 84/109/64
f 83/108/65 87/112/65 85/110/64
f 86/111/69 89/185/74 87/112/70
f 87/112/70 89/185/74 88/113/72
f 89/114/74 92/119/77 90/115/75
f 91/117/76 92/119/77 89/114/74
f 92/119/77 98/127/116 93/120/78
f 94/121/79 98/127/116 92/119/77
f 95/122/80 94/121/79 91/117/76
f 91/117/76 86/118/69 96/124/82
f 17/125/83 97/126/83 94/121/84
f 97/126/83 100/130/85 98/127/85
f 99/128/83 97/126/83 17/125/83
f 99/128/83 103/133/89 100/130/85
f 98/127/85 100/130/85 101/131/87
f 100/130/85 103/133/89 102/132/88
f 103/133/89 107/137/117 104/134/90
f 105/135/84 107/137/117 103/133/89
f 105/135/91 109/139/96 106/136/92
f 104/134/94 107/137/93 106/136/92
f 109/139/96 24/186/14 26/140/16
f 108/138/95 106/136/92 26/140/16
f 110/142/95 112/164/94 104/134/94
f 110/142/95 108/138/95 28/141/19
f 111/144/19 28/32/19 29/33/20
f 110/145/97 111/187/100 33/146/98
f 113/148/100 33/146/98 34/149/50
f 115/151/50 33/146/98 113/148/100
f 117/153/99 33/146/98 115/151/50
f 119/155/100 112/147/99 33/146/98
f 113/156/64 114/161/64 84/109/64
f 116/157/103 113/156/118 85/110/73
f 115/158/104 116/188/103 88/116/72
f 75/159/50 114/150/50 34/149/50
f 114/161/64 75/94/64 76/95/64
f 117/162/88 118/165/90 93/120/87
f 119/163/88 117/162/88 101/131/87
f 119/163/88 102/132/88 104/134/90
f 115/158/104 90/115/75 93/120/78
f 109/139/96 105/135/91 19/166/91
f 23/168/14 24/186/14 109/139/96
f 105/135/84 99/128/83 16/129/86
f 96/169/82 86/111/69 82/107/71
f 1/1/1 72/183/61 67/85/57
f 74/160/100 34/149/50 69/171/100
f 69/171/100 34/149/50 63/81/50
f 120/170/2 67/85/57 58/69/107
f 47/174/8 10/15/8 13/16/8
f 47/174/8 52/175/108 50/176/109
f 45/51/10 9/10/10 10/12/10
f 9/10/10 45/51/10 36/40/18