# Blender v3.0.1 OBJ File: ''
# www.blender.org
mtllib 08.mtl
o normalized.002_normalized.024
v -0.237210 -0.040055 -0.192040
v -0.112945 -0.004168 -0.206207
v -0.237138 -0.002151 -0.197763
v -0.237415 0.000884 -0.201958
v -0.361915 0.003449 -0.191039
v -0.361603 0.000414 -0.186848
v -0.361680 -0.037490 -0.181124
v -0.364234 -0.043527 -0.210077
v -0.362007 -0.042035 -0.184170
v -0.363922 -0.046563 -0.205885
v -0.364157 -0.005623 -0.215800
v -0.363830 -0.001078 -0.212754
v -0.239418 -0.008194 -0.226741
v -0.239213 -0.049132 -0.216823
v -0.239125 -0.003648 -0.223691
v -0.113121 -0.001135 -0.210409
v -0.114213 -0.005677 -0.232187
v -0.001280 -0.001973 -0.213601
v -0.001334 -0.006523 -0.235409
v -0.114401 -0.010224 -0.235244
v -0.001339 -0.011072 -0.238472
v 0.111559 -0.005530 -0.232775
v 0.110574 -0.000989 -0.210992
v 0.111737 -0.010077 -0.235833
v 0.236511 -0.003338 -0.224931
v 0.234909 0.001192 -0.203189
v 0.236794 -0.007883 -0.227982
v 0.111877 -0.047981 -0.230111
v 0.236946 -0.045787 -0.222259
v 0.361741 -0.043053 -0.211969
v 0.361585 -0.005150 -0.217692
v 0.361268 -0.000605 -0.214644
v 0.359460 0.003920 -0.192919
v 0.359174 0.000884 -0.188726
v 0.236694 -0.048822 -0.218063
v 0.359647 -0.041565 -0.186051
v 0.359330 -0.037020 -0.183003
v 0.361455 -0.046090 -0.207776
v 0.235091 -0.044293 -0.196321
v 0.234809 -0.039747 -0.193270
v 0.110742 -0.046474 -0.204126
v 0.111727 -0.051014 -0.225909
v 0.110564 -0.041927 -0.201068
v 0.234657 -0.001843 -0.198993
v 0.110424 -0.004022 -0.206790
v -0.001228 -0.042909 -0.203674
v -0.001267 -0.005005 -0.209394
v -0.113005 -0.042072 -0.200485
v -0.113193 -0.046620 -0.203542
v -0.237503 -0.044601 -0.195090
v -0.114285 -0.051162 -0.225319
v -0.001233 -0.047458 -0.206737
v -0.239490 -0.046097 -0.221017
v -0.114462 -0.048129 -0.229521
v -0.001286 -0.052009 -0.228545
v -0.001299 -0.048977 -0.232751
vt 0.757700 0.358300
vt 0.621900 0.336000
vt 0.757500 0.332400
vt 0.378100 0.896700
vt 0.242200 0.894700
vt 0.242500 0.889900
vt 0.106200 0.885800
vt 0.106500 0.880900
vt 0.893600 0.353700
vt 0.893500 0.327900
vt 0.888300 0.365300
vt 0.880900 0.327900
vt 0.885800 0.326700
vt 0.864800 0.357700
vt 0.883500 0.366400
vt 0.893900 0.357700
vt 0.905700 0.339400
vt 0.904400 0.335400
vt 0.240000 0.344000
vt 0.103700 0.365300
vt 0.103800 0.339400
vt 0.896300 0.888300
vt 0.759800 0.892400
vt 0.896000 0.883500
vt 0.240400 0.340000
vt 0.104200 0.335400
vt 0.104200 0.904400
vt 0.377900 0.901500
vt 0.240400 0.913300
vt 0.376800 0.343500
vt 0.376800 0.920200
vt 0.500000 0.903900
vt 0.500000 0.922600
vt 0.376600 0.347600
vt 0.500000 0.344900
vt 0.500000 0.349000
vt 0.623200 0.920200
vt 0.622100 0.901500
vt 0.623400 0.347600
vt 0.623200 0.343500
vt 0.759600 0.913300
vt 0.757800 0.894700
vt 0.760000 0.344000
vt 0.759600 0.340000
vt 0.623600 0.373400
vt 0.760100 0.369800
vt 0.896300 0.365300
vt 0.896200 0.339400
vt 0.895800 0.335400
vt 0.094300 0.339400
vt 0.114200 0.326700
vt 0.111700 0.365300
vt 0.119100 0.327900
vt 0.103700 0.888300
vt 0.240200 0.892400
vt 0.239900 0.897300
vt 0.135200 0.357700
vt 0.136500 0.353700
vt 0.104000 0.883500
vt 0.242000 0.873800
vt 0.106100 0.357700
vt 0.242300 0.358300
vt 0.242000 0.362300
vt 0.377800 0.880600
vt 0.376600 0.899300
vt 0.378000 0.361800
vt 0.377800 0.365800
vt 0.106400 0.353700
vt 0.242500 0.332400
vt 0.378100 0.336000
vt 0.500000 0.363200
vt 0.500000 0.337300
vt 0.500000 0.899100
vt 0.621900 0.896700
vt 0.757500 0.889900
vt 0.622000 0.361800
vt 0.622200 0.365800
vt 0.758000 0.362300
vt 0.622200 0.880600
vt 0.758000 0.873800
vt 0.623400 0.899300
vt 0.500000 0.883000
vt 0.760100 0.897300
vt 0.623600 0.904100
vt 0.500000 0.901700
vt 0.239900 0.369800
vt 0.376400 0.373400
vt 0.500000 0.374800
vt 0.376400 0.904100
vt 0.893900 0.864800
vt 0.893800 0.885800
vt 0.893500 0.880900
vt 0.895800 0.904400
vt 0.863500 0.353700
vt 0.095600 0.335400
vt 0.116500 0.366400
vt 0.106100 0.864800
vt 0.106500 0.327900
vt 0.500000 0.367200
vt 0.500000 0.906600
vn 0.0794 0.1487 0.9857
vn 0.0495 0.1490 0.9876
vn 0.0795 0.1487 0.9857
vn 0.0378 0.8110 0.5838
vn 0.0603 0.8106 0.5825
vn 0.0677 0.8105 0.5819
vn 0.0894 0.1485 0.9849
vn -0.9963 0.0148 0.0848
vn -0.9963 0.0148 0.0849
vn -0.9963 0.0147 0.0848
vn 0.0610 -0.5587 0.8271
vn 0.0542 -0.5587 0.8276
vn -0.9963 0.0149 0.0848
vn -0.0795 -0.1487 -0.9857
vn -0.0894 -0.1485 -0.9849
vn -0.0677 -0.8104 -0.5819
vn -0.0603 -0.8105 -0.5826
vn -0.0542 0.5587 -0.8276
vn -0.0610 0.5587 -0.8271
vn 0.0021 0.9789 -0.2043
vn 0.0023 0.9789 -0.2043
vn 0.0018 0.9789 -0.2043
vn -0.0334 0.5586 -0.8288
vn -0.0541 0.5587 -0.8276
vn -0.0012 0.9789 -0.2042
vn -0.0333 0.5586 -0.8288
vn -0.0025 0.5585 -0.8295
vn -0.0041 0.9789 -0.2043
vn 0.0283 0.5586 -0.8290
vn -0.0045 0.9789 -0.2043
vn 0.0491 0.5588 -0.8279
vn 0.0444 -0.1490 -0.9878
vn -0.0025 -0.1492 -0.9888
vn 0.0445 -0.1490 -0.9878
vn 0.0745 -0.1486 -0.9861
vn 0.0746 -0.1486 -0.9861
vn 0.0845 -0.1484 -0.9853
vn 0.0560 0.5588 -0.8274
vn 0.9967 0.0161 0.0796
vn 0.0658 -0.8103 -0.5824
vn 0.0583 -0.8105 -0.5828
vn 0.0046 -0.9789 0.2043
vn 0.0045 -0.9789 0.2042
vn -0.0560 -0.5588 0.8274
vn -0.0491 -0.5587 0.8279
vn 0.0041 -0.9789 0.2042
vn -0.0283 -0.5586 0.8289
vn -0.0845 0.1484 0.9853
vn -0.0745 0.1486 0.9861
vn -0.0445 0.1490 0.9878
vn -0.0444 0.1490 0.9878
vn 0.0025 -0.5585 0.8295
vn 0.0025 0.1492 0.9888
vn -0.0358 0.8109 0.5840
vn 0.0010 0.8113 0.5847
vn -0.0358 0.8109 0.5841
vn -0.0583 0.8105 0.5828
vn 0.0494 0.1490 0.9876
vn 0.0333 -0.5585 0.8288
vn 0.0334 -0.5585 0.8288
vn 0.0541 -0.5587 0.8276
vn -0.0021 -0.9789 0.2043
vn -0.0018 -0.9789 0.2043
vn 0.0012 -0.9789 0.2043
vn -0.0378 -0.8110 -0.5838
vn -0.0010 -0.8112 -0.5848
vn -0.0495 -0.1490 -0.9876
vn -0.0794 -0.1487 -0.9857
vn -0.0494 -0.1490 -0.9876
vn 0.0358 -0.8109 -0.5840
vn -0.0023 -0.9789 0.2043
vn -0.0658 0.8103 0.5823
vn -0.0046 0.9789 -0.2043
vn 0.9967 0.0162 0.0796
vn 0.9967 0.0160 0.0796
usemtl Material__0.009
s 1
f 1/1/1 2/2/2 3/3/3
f 2/4/4 4/5/5 3/6/5
f 3/6/5 5/7/6 6/8/6
f 7/9/7 3/3/3 6/10/7
f 8/11/8 6/12/9 5/13/8
f 9/14/8 8/11/8 10/15/10
f 9/16/11 1/1/12 7/9/11
f 11/17/8 5/13/8 12/18/13
f 13/19/14 8/20/15 11/21/15
f 8/22/16 14/23/17 10/24/16
f 15/25/18 11/21/19 12/26/19
f 4/5/20 12/27/21 5/7/21
f 16/28/22 15/29/20 4/5/20
f 17/30/23 13/19/24 15/25/18
f 17/31/22 18/32/25 19/33/25
f 20/34/26 19/35/27 21/36/27
f 22/37/28 18/32/25 23/38/28
f 24/39/29 19/35/27 22/40/29
f 25/41/30 23/38/28 26/42/30
f 27/43/31 22/40/29 25/44/31
f 28/45/32 21/36/33 24/39/34
f 29/46/35 24/39/34 27/43/36
f 30/47/37 27/43/36 31/48/37
f 31/48/38 25/44/31 32/49/38
f 31/50/39 33/51/39 30/52/39
f 34/53/39 30/52/39 33/51/39
f 30/54/40 35/55/41 29/56/41
f 36/57/39 30/52/39 37/58/39
f 38/59/42 39/60/43 35/55/43
f 36/61/44 40/62/45 39/63/45
f 35/55/43 41/64/46 42/65/46
f 39/63/45 43/66/47 41/67/47
f 37/68/48 44/69/49 40/62/49
f 40/62/49 45/70/50 43/66/51
f 46/71/52 41/67/47 43/66/47
f 47/72/53 43/66/51 45/70/50
f 23/38/54 47/73/55 45/74/56
f 26/42/57 45/74/56 44/75/57
f 16/28/4 47/73/55 18/32/55
f 48/76/58 47/72/53 2/2/2
f 49/77/59 46/71/52 48/76/60
f 50/78/61 48/76/60 1/1/12
f 14/23/62 49/79/63 50/80/62
f 51/81/63 52/82/64 49/79/63
f 53/83/17 51/81/65 14/23/17
f 54/84/65 55/85/66 51/81/65
f 20/34/67 53/86/68 13/19/14
f 54/87/69 21/36/33 56/88/33
f 55/85/66 28/89/70 42/65/70
f 52/82/64 42/65/46 41/64/46
f 29/56/41 42/65/70 28/89/70
f 10/24/71 50/80/62 9/90/71
f 33/91/72 44/75/57 34/92/72
f 32/93/73 26/42/30 33/91/73
f 1/1/1 48/76/58 2/2/2
f 2/4/4 16/28/4 4/5/5
f 3/6/5 4/5/5 5/7/6
f 7/9/7 1/1/1 3/3/3
f 8/11/8 7/94/8 6/12/9
f 9/14/8 7/94/8 8/11/8
f 9/16/11 50/78/61 1/1/12
f 11/17/8 8/11/8 5/13/8
f 13/19/14 53/86/68 8/20/15
f 8/22/16 53/83/17 14/23/17
f 15/25/18 13/19/24 11/21/19
f 4/5/20 15/29/20 12/27/21
f 16/28/22 17/31/22 15/29/20
f 17/30/23 20/34/26 13/19/24
f 17/31/22 16/28/22 18/32/25
f 20/34/26 17/30/23 19/35/27
f 22/37/28 19/33/25 18/32/25
f 24/39/29 21/36/27 19/35/27
f 25/41/30 22/37/28 23/38/28
f 27/43/31 24/39/29 22/40/29
f 28/45/32 56/88/33 21/36/33
f 29/46/35 28/45/32 24/39/34
f 30/47/37 29/46/35 27/43/36
f 31/48/38 27/43/31 25/44/31
f 31/50/39 32/95/74 33/51/39
f 34/53/39 37/58/39 30/52/39
f 30/54/40 38/59/40 35/55/41
f 36/57/39 38/96/75 30/52/39
f 38/59/42 36/97/42 39/60/43
f 36/61/44 37/68/44 40/62/45
f 35/55/43 39/60/43 41/64/46
f 39/63/45 40/62/45 43/66/47
f 37/68/48 34/98/48 44/69/49
f 40/62/49 44/69/49 45/70/50
f 46/71/52 52/99/52 41/67/47
f 47/72/53 46/71/53 43/66/51
f 23/38/54 18/32/55 47/73/55
f 26/42/57 23/38/54 45/74/56
f 16/28/4 2/4/4 47/73/55
f 48/76/58 46/71/53 47/72/53
f 49/77/59 52/99/52 46/71/52
f 50/78/61 49/77/59 48/76/60
f 14/23/62 51/81/63 49/79/63
f 51/81/63 55/85/64 52/82/64
f 53/83/17 54/84/65 51/81/65
f 54/84/65 56/100/66 55/85/66
f 20/34/67 54/87/69 53/86/68
f 54/87/69 20/34/67 21/36/33
f 55/85/66 56/100/66 28/89/70
f 52/82/64 55/85/64 42/65/46
f 29/56/41 35/55/41 42/65/70
f 10/24/71 14/23/62 50/80/62
f 33/91/72 26/42/57 44/75/57
f 32/93/73 25/41/30 26/42/30