# Blender v3.0.1 OBJ File: ''
# www.blender.org
mtllib 00.mtl
o model.001_model.1128
v 0.752710 0.286030 0.135488
v 0.764500 0.210759 0.158069
v 0.752710 0.286030 0.158069
v 0.764500 0.210759 0.135488
v 0.752710 0.286030 0.158069
v 0.764500 0.210759 0.158069
v 0.752710 0.286030 0.135488
v 0.764500 0.210759 0.135488
v 0.764500 0.210759 0.135488
v 0.764500 0.210759 0.158069
v -0.764499 0.210759 0.135488
v -0.764499 0.210759 0.158069
v -0.764499 0.210759 0.135488
v 0.764500 0.210759 0.158069
v 0.764500 0.210759 0.135488
v -0.764499 0.210759 0.158069
v 0.752710 0.286030 0.158069
v -0.752710 0.286030 0.158069
v 0.764499 0.210759 0.158069
v -0.764499 0.210759 0.158069
v 0.764500 0.210759 0.158069
v -0.752710 0.286030 0.158069
v 0.752710 0.286030 0.158069
v -0.764499 0.210759 0.158069
v 0.752710 0.286030 0.158069
v 0.752710 0.286030 0.135488
v -0.752710 0.286030 0.158069
v -0.752710 0.286030 0.135488
v -0.752710 0.286030 0.158069
v 0.752710 0.286030 0.135488
v 0.752710 0.286030 0.158069
v -0.752710 0.286030 0.135488
v -0.752710 0.286030 0.135488
v 0.752710 0.286030 0.135488
v -0.764499 0.210759 0.135488
v 0.764500 0.210759 0.135488
v -0.764499 0.210759 0.135488
v 0.752710 0.286030 0.135488
v -0.752710 0.286030 0.135488
v 0.764500 0.210759 0.135488
v -0.764499 0.210759 0.158069
v -0.752710 0.286030 0.158069
v -0.764499 0.210759 0.135488
v -0.752710 0.286030 0.135488
v -0.764499 0.210759 0.135488
v -0.752710 0.286030 0.158069
v -0.764499 0.210759 0.158069
v -0.752710 0.286030 0.135488
v 0.775291 0.286030 -0.112907
v 0.797873 0.286030 0.112906
v 0.797873 0.286030 -0.112907
v 0.775291 0.286030 0.112906
v 0.797873 0.286030 -0.112907
v 0.797873 0.286030 0.112906
v 0.775291 0.286030 -0.112907
v 0.775291 0.286030 0.112906
v 0.775291 0.210759 0.124696
v 0.797873 0.286030 0.112906
v 0.775291 0.286030 0.112906
v 0.797873 0.210759 0.124696
v 0.775291 0.286030 0.112906
v 0.797873 0.286030 0.112906
v 0.775291 0.210759 0.124696
v 0.797873 0.210759 0.124696
v 0.797873 0.286030 0.112906
v 0.797873 0.210759 -0.124696
v 0.797873 0.286030 -0.112907
v 0.797873 0.210759 0.124696
v 0.797873 0.286030 -0.112907
v 0.797873 0.210759 -0.124696
v 0.797873 0.286030 0.112906
v 0.797873 0.210759 0.124696
v 0.797873 0.210759 -0.124696
v 0.775291 0.286030 -0.112907
v 0.797873 0.286030 -0.112907
v 0.775291 0.210759 -0.124696
v 0.797873 0.286030 -0.112907
v 0.775291 0.286030 -0.112907
v 0.797873 0.210759 -0.124696
v 0.775291 0.210759 -0.124696
v 0.775291 0.210759 -0.124696
v 0.775291 0.286030 0.112906
v 0.775291 0.286030 -0.112907
v 0.775291 0.210759 0.124696
v 0.775291 0.286030 -0.112907
v 0.775291 0.286030 0.112906
v 0.775291 0.210759 -0.124696
v 0.775291 0.210759 0.124696
v 0.775291 0.210759 0.124696
v 0.797873 0.210759 -0.124696
v 0.797873 0.210759 0.124696
v 0.775291 0.210759 -0.124696
v 0.797873 0.210759 0.124696
v 0.797873 0.210759 -0.124696
v 0.775291 0.210759 0.124696
v 0.775291 0.210759 -0.124696
v -0.805400 0.286030 0.112906
v -0.752707 0.286048 0.165593
v -0.752707 0.286049 0.112903
v -0.805400 0.286030 0.165596
v -0.752707 0.286049 0.112903
v -0.752707 0.286048 0.165593
v -0.805400 0.286030 0.112906
v -0.805400 0.286030 0.165596
v 0.903252 0.338719 0.004516
v 0.903252 0.312374 0.218286
v 0.903252 0.312374 0.004516
v 0.903252 0.338719 0.218286
v 0.903252 0.286030 0.004516
v 0.903252 0.286030 0.218286
v 0.903252 0.312374 0.004516
v 0.903252 0.286030 0.004516
v 0.903252 0.312374 0.218286
v 0.903252 0.338719 0.004516
v 0.903252 0.286030 0.218286
v 0.903252 0.338719 0.218286
v -0.903252 0.312374 0.218286
v 0.903252 0.338719 0.218286
v -0.903252 0.338719 0.218286
v 0.903252 0.312374 0.218286
v -0.903252 0.286030 0.218286
v 0.903252 0.286030 0.218286
v -0.903252 0.338719 0.218286
v 0.903252 0.338719 0.218286
v -0.903252 0.312374 0.218286
v 0.903252 0.312374 0.218286
v -0.903252 0.286030 0.218286
v 0.903252 0.286030 0.218286
v 0.903252 0.338719 0.004516
v -0.903252 0.312374 0.004516
v -0.903252 0.338719 0.004516
v 0.903252 0.312374 0.004516
v -0.903252 0.286030 0.004516
v 0.903252 0.286030 0.004516
v -0.903252 0.338719 0.004516
v -0.903252 0.312374 0.004516
v 0.903252 0.338719 0.004516
v 0.903252 0.312374 0.004516
v -0.903252 0.286030 0.004516
v 0.903252 0.286030 0.004516
v -0.903252 0.338719 0.004516
v 0.903252 0.338719 0.218286
v 0.903252 0.338719 0.004516
v -0.903252 0.338719 0.218286
v 0.903252 0.338719 0.004516
v 0.903252 0.338719 0.218286
v -0.903252 0.338719 0.004516
v -0.903252 0.338719 0.218286
v -0.903252 0.312374 0.218286
v -0.903252 0.338719 0.004516
v -0.903252 0.312374 0.004516
v -0.903252 0.338719 0.218286
v -0.903252 0.286030 0.218286
v -0.903252 0.286030 0.004516
v -0.903252 0.312374 0.004516
v -0.903252 0.338719 0.004516
v -0.903252 0.312374 0.218286
v -0.903252 0.286030 0.218286
v -0.903252 0.286030 0.004516
v -0.903252 0.338719 0.218286
v 0.903252 0.286030 0.218286
v -0.903252 0.286030 0.004516
v 0.903252 0.286030 0.004516
v -0.903252 0.286030 0.218286
v 0.903252 0.286030 0.004516
v -0.903252 0.286030 0.004516
v 0.903252 0.286030 0.218286
v -0.903252 0.286030 0.218286
v -0.797872 0.286030 -0.112907
v -0.775291 0.286030 0.112906
v -0.775291 0.286030 -0.112907
v -0.797872 0.286030 0.112906
v -0.775291 0.286030 -0.112907
v -0.775291 0.286030 0.112906
v -0.797872 0.286030 -0.112907
v -0.797872 0.286030 0.112906
v -0.797872 0.210759 0.124696
v -0.775291 0.286030 0.112906
v -0.797872 0.286030 0.112906
v -0.775291 0.210759 0.124696
v -0.797872 0.286030 0.112906
v -0.775291 0.286030 0.112906
v -0.797872 0.210759 0.124696
v -0.775291 0.210759 0.124696
v -0.775291 0.286030 0.112906
v -0.775291 0.210759 -0.124696
v -0.775291 0.286030 -0.112907
v -0.775291 0.210759 0.124696
v -0.775291 0.286030 -0.112907
v -0.775291 0.210759 -0.124696
v -0.775291 0.286030 0.112906
v -0.775291 0.210759 0.124696
v -0.775291 0.210759 -0.124696
v -0.797872 0.286030 -0.112907
v -0.775291 0.286030 -0.112907
v -0.797872 0.210759 -0.124696
v -0.775291 0.286030 -0.112907
v -0.797872 0.286030 -0.112907
v -0.775291 0.210759 -0.124696
v -0.797872 0.210759 -0.124696
v -0.797872 0.210759 -0.124696
v -0.797872 0.286030 0.112906
v -0.797872 0.286030 -0.112907
v -0.797872 0.210759 0.124696
v -0.797872 0.286030 -0.112907
v -0.797872 0.286030 0.112906
v -0.797872 0.210759 -0.124696
v -0.797872 0.210759 0.124696
v -0.797872 0.210759 0.124696
v -0.775291 0.210759 -0.124696
v -0.775291 0.210759 0.124696
v -0.797872 0.210759 -0.124696
v -0.775291 0.210759 0.124696
v -0.775291 0.210759 -0.124696
v -0.797872 0.210759 0.124696
v -0.797872 0.210759 -0.124696
v -0.752710 0.286030 -0.158069
v -0.764499 0.210759 -0.135488
v -0.752710 0.286030 -0.135488
v -0.764499 0.210759 -0.158069
v -0.752710 0.286030 -0.135488
v -0.764499 0.210759 -0.135488
v -0.752710 0.286030 -0.158069
v -0.764499 0.210759 -0.158069
v 0.764500 0.210759 -0.158069
v -0.764499 0.210759 -0.135488
v -0.764499 0.210759 -0.158069
v 0.764500 0.210759 -0.135488
v -0.764499 0.210759 -0.158069
v -0.764499 0.210759 -0.135488
v 0.764500 0.210759 -0.158069
v 0.764500 0.210759 -0.135488
v -0.764499 0.210759 -0.135488
v 0.752710 0.286030 -0.135488
v -0.752710 0.286030 -0.135488
v 0.764500 0.210759 -0.135488
v -0.752710 0.286030 -0.135488
v 0.752710 0.286030 -0.135488
v -0.764499 0.210759 -0.135488
v 0.764500 0.210759 -0.135488
v 0.752710 0.286030 -0.135488
v -0.752710 0.286030 -0.158069
v -0.752710 0.286030 -0.135488
v 0.752710 0.286030 -0.158069
v -0.752710 0.286030 -0.135488
v -0.752710 0.286030 -0.158069
v 0.752710 0.286030 -0.135488
v 0.752710 0.286030 -0.158069
v 0.764500 0.210759 -0.158069
v -0.752710 0.286030 -0.158069
v 0.752710 0.286030 -0.158069
v -0.764499 0.210759 -0.158069
v 0.752710 0.286030 -0.158069
v -0.752710 0.286030 -0.158069
v 0.764500 0.210759 -0.158069
v -0.764499 0.210759 -0.158069
v 0.764500 0.210759 -0.158069
v 0.752710 0.286030 -0.135488
v 0.764500 0.210759 -0.135488
v 0.752710 0.286030 -0.158069
v 0.764500 0.210759 -0.135488
v 0.752710 0.286030 -0.135488
v 0.764500 0.210759 -0.158069
v 0.752710 0.286030 -0.158069
v -0.903252 0.312375 -0.004516
v -0.903252 0.338720 -0.004516
v -0.903252 0.312375 -0.218286
v -0.903252 0.286030 -0.004516
v -0.903252 0.338720 -0.218286
v -0.903252 0.286030 -0.218286
v -0.903252 0.286030 -0.004516
v -0.903252 0.312375 -0.218286
v -0.903252 0.312375 -0.004516
v -0.903252 0.286030 -0.218286
v -0.903252 0.338720 -0.004516
v -0.903252 0.338720 -0.218286
v 0.903252 0.286030 -0.218286
v -0.903252 0.286030 -0.218286
v 0.903252 0.312375 -0.218286
v -0.903252 0.312375 -0.218286
v 0.903252 0.338720 -0.218286
v -0.903252 0.338720 -0.218286
v 0.903252 0.312375 -0.218286
v -0.903252 0.286030 -0.218286
v 0.903252 0.286030 -0.218286
v -0.903252 0.312375 -0.218286
v 0.903252 0.338720 -0.218286
v -0.903252 0.338720 -0.218286
v 0.903252 0.286030 -0.004516
v 0.903252 0.312375 -0.004516
v -0.903252 0.286030 -0.004516
v -0.903252 0.312375 -0.004516
v 0.903252 0.338720 -0.004516
v -0.903252 0.338720 -0.004516
v -0.903252 0.286030 -0.004516
v 0.903252 0.312375 -0.004516
v 0.903252 0.286030 -0.004516
v -0.903252 0.312375 -0.004516
v 0.903252 0.338720 -0.004516
v -0.903252 0.338720 -0.004516
v -0.903252 0.286030 -0.004516
v -0.903252 0.286030 -0.218286
v 0.903252 0.286030 -0.004516
v 0.903252 0.286030 -0.218286
v 0.903252 0.286030 -0.004516
v -0.903252 0.286030 -0.218286
v -0.903252 0.286030 -0.004516
v 0.903252 0.286030 -0.218286
v 0.903252 0.312375 -0.004516
v 0.903252 0.286030 -0.004516
v 0.903252 0.312375 -0.218286
v 0.903252 0.338720 -0.218286
v 0.903252 0.338720 -0.004516
v 0.903252 0.286030 -0.218286
v 0.903252 0.312375 -0.218286
v 0.903252 0.286030 -0.004516
v 0.903252 0.312375 -0.004516
v 0.903252 0.286030 -0.218286
v 0.903252 0.338720 -0.218286
v 0.903252 0.338720 -0.004516
v -0.903252 0.338720 -0.004516
v 0.903252 0.338720 -0.004516
v -0.903252 0.338720 -0.218286
v 0.903252 0.338720 -0.218286
v -0.903252 0.338720 -0.218286
v 0.903252 0.338720 -0.004516
v -0.903252 0.338720 -0.004516
v 0.903252 0.338720 -0.218286
v 0.805400 0.286030 -0.112907
v 0.752707 0.286048 -0.165593
v 0.752707 0.286049 -0.112904
v 0.805400 0.286030 -0.165596
v 0.752707 0.286049 -0.112904
v 0.752707 0.286048 -0.165593
v 0.805400 0.286030 -0.112907
v 0.805400 0.286030 -0.165596
v 0.805400 0.286030 0.112906
v 0.752707 0.286049 0.165593
v 0.805400 0.286030 0.165596
v 0.752707 0.286049 0.112903
v 0.805400 0.286030 0.165596
v 0.752707 0.286049 0.165593
v 0.805400 0.286030 0.112906
v 0.752707 0.286049 0.112903
v -0.805400 0.286030 -0.112906
v -0.752707 0.286049 -0.165593
v -0.805400 0.286030 -0.165596
v -0.752707 0.286049 -0.112904
v -0.805400 0.286030 -0.165596
v -0.752707 0.286049 -0.165593
v -0.805400 0.286030 -0.112906
v -0.752707 0.286049 -0.112904
vt 0.000000 -0.532770
vt 0.012000 -0.785818
vt 0.012000 -0.532770
vt 0.000000 -0.785818
vt 0.012000 -0.532770
vt 0.012000 -0.785818
vt 0.000000 -0.532770
vt 0.000000 -0.785818
vt -0.812530 0.000000
vt -0.812530 0.075000
vt 0.000000 0.000000
vt 0.000000 0.075000
vt 0.000000 0.000000
vt -0.812530 0.075000
vt -0.812530 0.000000
vt 0.000000 0.075000
vt -0.806265 0.250000
vt -0.006265 0.250000
vt -0.812530 -0.000000
vt -0.000000 -0.000000
vt -0.812530 -0.000000
vt -0.006265 0.250000
vt -0.806265 0.250000
vt -0.000000 -0.000000
vt 0.806265 0.075000
vt 0.806265 0.000000
vt 0.006265 0.075000
vt 0.006265 0.000000
vt 0.006265 0.075000
vt 0.806265 0.000000
vt 0.806265 0.075000
vt 0.006265 0.000000
vt 0.006265 0.250000
vt 0.806265 0.250000
vt 0.000000 0.000000
vt 0.812530 0.000000
vt 0.000000 0.000000
vt 0.806265 0.250000
vt 0.006265 0.250000
vt 0.812530 0.000000
vt -0.012000 0.000000
vt -0.012000 0.253048
vt 0.000000 0.000000
vt 0.000000 0.253048
vt 0.000000 0.000000
vt -0.012000 0.253048
vt -0.012000 0.000000
vt 0.000000 0.253048
vt 0.000000 0.789157
vt 0.012000 0.039157
vt 0.012000 0.789157
vt 0.000000 0.039157
vt 0.012000 0.789157
vt 0.012000 0.039157
vt 0.000000 0.789157
vt 0.000000 0.039157
vt 0.000000 0.000000
vt 0.012000 0.253048
vt 0.000000 0.253048
vt 0.012000 0.000000
vt 0.000000 0.253048
vt 0.012000 0.253048
vt 0.000000 0.000000
vt 0.012000 0.000000
vt 0.006265 0.250000
vt 0.132530 0.000000
vt 0.126265 0.250000
vt 0.000000 0.000000
vt 0.126265 0.250000
vt 0.132530 0.000000
vt 0.006265 0.250000
vt 0.000000 0.000000
vt -0.012000 -0.128173
vt 0.000000 0.124875
vt -0.012000 0.124875
vt 0.000000 -0.128173
vt -0.012000 0.124875
vt 0.000000 0.124875
vt -0.012000 -0.128173
vt 0.000000 -0.128173
vt -0.132530 0.000000
vt -0.006265 0.250000
vt -0.126265 0.250000
vt 0.000000 0.000000
vt -0.126265 0.250000
vt -0.006265 0.250000
vt -0.132530 0.000000
vt 0.000000 0.000000
vt 0.000000 0.000000
vt -0.012000 0.828313
vt -0.012000 0.000000
vt 0.000000 0.828313
vt -0.012000 0.000000
vt -0.012000 0.828313
vt 0.000000 0.000000
vt 0.000000 0.828313
vt 0.052118 0.500002
vt 0.080120 0.325012
vt 0.080120 0.500012
vt 0.052118 0.325002
vt 0.080120 0.500012
vt 0.080120 0.325012
vt 0.052118 0.500002
vt 0.052118 0.325002
vt 0.113600 0.175000
vt 0.000000 0.087500
vt 0.113600 0.087500
vt -0.000000 0.175000
vt 0.113600 -0.000000
vt 0.000000 -0.000000
vt 0.113600 0.087500
vt 0.113600 -0.000000
vt 0.000000 0.087500
vt 0.113600 0.175000
vt 0.000000 -0.000000
vt -0.000000 0.175000
vt 0.000000 0.087500
vt 0.960000 0.175000
vt 0.000000 0.175000
vt 0.960000 0.087500
vt 0.000000 0.000000
vt 0.960000 -0.000000
vt 0.000000 0.175000
vt 0.960000 0.175000
vt 0.000000 0.087500
vt 0.960000 0.087500
vt 0.000000 0.000000
vt 0.960000 -0.000000
vt -0.960000 0.175000
vt 0.000000 0.087500
vt -0.000000 0.175000
vt -0.960000 0.087500
vt -0.000000 -0.000000
vt -0.960000 -0.000000
vt -0.000000 0.175000
vt 0.000000 0.087500
vt -0.960000 0.175000
vt -0.960000 0.087500
vt -0.000000 -0.000000
vt -0.960000 -0.000000
vt 0.000000 0.710000
vt 0.960000 -0.000000
vt 0.960000 0.710000
vt 0.000000 -0.000000
vt 0.960000 0.710000
vt 0.960000 -0.000000
vt 0.000000 0.710000
vt 0.000000 -0.000000
vt 0.000000 0.087500
vt -0.113600 0.175000
vt -0.113600 0.087500
vt 0.000000 0.175000
vt 0.000000 0.000000
vt -0.113600 -0.000000
vt -0.113600 0.087500
vt -0.113600 0.175000
vt 0.000000 0.087500
vt 0.000000 0.000000
vt -0.113600 -0.000000
vt 0.000000 0.175000
vt -0.960000 0.000000
vt -0.000000 0.710000
vt -0.960000 0.710000
vt 0.000000 0.000000
vt -0.960000 0.710000
vt -0.000000 0.710000
vt -0.960000 0.000000
vt 0.000000 0.000000
vt 0.000000 0.789157
vt 0.012000 0.039157
vt 0.012000 0.789157
vt 0.000000 0.039157
vt 0.012000 0.789157
vt 0.012000 0.039157
vt 0.000000 0.789157
vt 0.000000 0.039157
vt 0.000000 0.000000
vt 0.012000 0.253048
vt 0.000000 0.253048
vt 0.012000 0.000000
vt 0.000000 0.253048
vt 0.012000 0.253048
vt 0.000000 0.000000
vt 0.012000 0.000000
vt 0.006265 0.250000
vt 0.132530 0.000000
vt 0.126265 0.250000
vt 0.000000 0.000000
vt 0.126265 0.250000
vt 0.132530 0.000000
vt 0.006265 0.250000
vt 0.000000 0.000000
vt -0.012000 -0.128173
vt 0.000000 0.124875
vt -0.012000 0.124875
vt 0.000000 -0.128173
vt -0.012000 0.124875
vt 0.000000 0.124875
vt -0.012000 -0.128173
vt 0.000000 -0.128173
vt -0.132530 0.000000
vt -0.006265 0.250000
vt -0.126265 0.250000
vt 0.000000 0.000000
vt -0.126265 0.250000
vt -0.006265 0.250000
vt -0.132530 0.000000
vt 0.000000 0.000000
vt 0.000000 0.000000
vt -0.012000 0.828313
vt -0.012000 0.000000
vt 0.000000 0.828313
vt -0.012000 0.000000
vt -0.012000 0.828313
vt 0.000000 0.000000
vt 0.000000 0.828313
vt 0.000000 -0.532770
vt 0.012000 -0.785818
vt 0.012000 -0.532770
vt 0.000000 -0.785818
vt 0.012000 -0.532770
vt 0.012000 -0.785818
vt 0.000000 -0.532770
vt 0.000000 -0.785818
vt 0.000000 0.000000
vt -0.812530 0.075000
vt -0.812530 0.000000
vt 0.000000 0.075000
vt -0.812530 0.000000
vt -0.812530 0.075000
vt 0.000000 0.000000
vt 0.000000 0.075000
vt -0.812530 -0.000000
vt -0.006265 0.250000
vt -0.806265 0.250000
vt -0.000000 -0.000000
vt -0.806265 0.250000
vt -0.006265 0.250000
vt -0.812530 -0.000000
vt -0.000000 -0.000000
vt 0.006265 0.075000
vt 0.806265 0.000000
vt 0.806265 0.075000
vt 0.006265 0.000000
vt 0.806265 0.075000
vt 0.806265 0.000000
vt 0.006265 0.075000
vt 0.006265 0.000000
vt 0.000000 0.000000
vt 0.806265 0.250000
vt 0.006265 0.250000
vt 0.812530 0.000000
vt 0.006265 0.250000
vt 0.806265 0.250000
vt 0.000000 0.000000
vt 0.812530 0.000000
vt 0.000000 0.000000
vt -0.012000 0.253048
vt -0.012000 0.000000
vt 0.000000 0.253048
vt -0.012000 0.000000
vt -0.012000 0.253048
vt 0.000000 0.000000
vt 0.000000 0.253048
vt 0.113600 0.087500
vt 0.113600 -0.000000
vt 0.000000 0.087500
vt 0.113600 0.175000
vt 0.000000 -0.000000
vt -0.000000 0.175000
vt 0.113600 0.175000
vt 0.000000 0.087500
vt 0.113600 0.087500
vt -0.000000 0.175000
vt 0.113600 -0.000000
vt 0.000000 -0.000000
vt 0.000000 0.175000
vt 0.960000 0.175000
vt 0.000000 0.087500
vt 0.960000 0.087500
vt 0.000000 0.000000
vt 0.960000 -0.000000
vt 0.000000 0.087500
vt 0.960000 0.175000
vt 0.000000 0.175000
vt 0.960000 0.087500
vt 0.000000 0.000000
vt 0.960000 -0.000000
vt -0.000000 0.175000
vt 0.000000 0.087500
vt -0.960000 0.175000
vt -0.960000 0.087500
vt -0.000000 -0.000000
vt -0.960000 -0.000000
vt -0.960000 0.175000
vt 0.000000 0.087500
vt -0.000000 0.175000
vt -0.960000 0.087500
vt -0.000000 -0.000000
vt -0.960000 -0.000000
vt 0.960000 0.710000
vt 0.960000 -0.000000
vt 0.000000 0.710000
vt 0.000000 -0.000000
vt 0.000000 0.710000
vt 0.960000 -0.000000
vt 0.960000 0.710000
vt 0.000000 -0.000000
vt -0.113600 0.087500
vt -0.113600 0.175000
vt 0.000000 0.087500
vt 0.000000 0.000000
vt -0.113600 -0.000000
vt 0.000000 0.175000
vt 0.000000 0.087500
vt -0.113600 0.175000
vt -0.113600 0.087500
vt 0.000000 0.175000
vt 0.000000 0.000000
vt -0.113600 -0.000000
vt -0.960000 0.710000
vt -0.000000 0.710000
vt -0.960000 0.000000
vt 0.000000 0.000000
vt -0.960000 0.000000
vt -0.000000 0.710000
vt -0.960000 0.710000
vt 0.000000 0.000000
vt 0.052118 0.500002
vt 0.080120 0.325012
vt 0.080120 0.500012
vt 0.052118 0.325002
vt 0.080120 0.500012
vt 0.080120 0.325012
vt 0.052118 0.500002
vt 0.052118 0.325002
vt -0.028002 0.000010
vt -0.000000 0.175000
vt -0.028002 0.175010
vt -0.000000 -0.000000
vt -0.028002 0.175010
vt -0.000000 0.175000
vt -0.028002 0.000010
vt -0.000000 -0.000000
vt -0.028002 0.000010
vt -0.000000 0.175000
vt -0.028002 0.175010
vt -0.000000 -0.000000
vt -0.028002 0.175010
vt -0.000000 0.175000
vt -0.028002 0.000010
vt -0.000000 -0.000000
vn -0.9880 -0.1547 -0.0000
vn 0.9880 0.1547 0.0000
vn 0.0000 -1.0000 0.0000
vn 0.0000 1.0000 0.0000
vn 0.0000 -0.0000 1.0000
vn 0.0000 0.0000 -1.0000
vn -0.9880 0.1547 0.0000
vn 0.9880 -0.1547 -0.0000
vn 0.0000 0.1547 0.9880
vn 0.0000 -0.1547 -0.9880
vn 1.0000 -0.0000 0.0000
vn -1.0000 0.0000 0.0000
vn 0.0000 0.1547 -0.9880
vn 0.0000 -0.1547 0.9880
vn -0.0004 1.0000 0.0000
vn -0.0003 1.0000 0.0000
vn 0.0004 -1.0000 -0.0000
vn 0.0003 -1.0000 0.0000
vn 0.0004 1.0000 -0.0000
vn 0.0003 1.0000 0.0000
vn -0.0004 -1.0000 0.0000
vn -0.0003 -1.0000 0.0000
usemtl material_0.131
s 1
f 1/1/1 2/2/1 3/3/1
f 2/2/1 1/1/1 4/4/1
f 5/5/2 6/6/2 7/7/2
f 8/8/2 7/7/2 6/6/2
f 9/9/3 10/10/3 11/11/3
f 12/12/3 11/11/3 10/10/3
f 13/13/4 14/14/4 15/15/4
f 14/14/4 13/13/4 16/16/4
f 17/17/5 18/18/5 19/19/5
f 20/20/5 19/19/5 18/18/5
f 21/21/6 22/22/6 23/23/6
f 22/22/6 21/21/6 24/24/6
f 25/25/4 26/26/4 27/27/4
f 28/28/4 27/27/4 26/26/4
f 29/29/3 30/30/3 31/31/3
f 30/30/3 29/29/3 32/32/3
f 33/33/6 34/34/6 35/35/6
f 36/36/6 35/35/6 34/34/6
f 37/37/5 38/38/5 39/39/5
f 38/38/5 37/37/5 40/40/5
f 41/41/7 42/42/7 43/43/7
f 44/44/7 43/43/7 42/42/7
f 45/45/8 46/46/8 47/47/8
f 46/46/8 45/45/8 48/48/8
f 49/49/4 50/50/4 51/51/4
f 50/50/4 49/49/4 52/52/4
f 53/53/3 54/54/3 55/55/3
f 56/56/3 55/55/3 54/54/3
f 57/57/9 58/58/9 59/59/9
f 58/58/9 57/57/9 60/60/9
f 61/61/10 62/62/10 63/63/10
f 64/64/10 63/63/10 62/62/10
f 65/65/11 66/66/11 67/67/11
f 66/66/11 65/65/11 68/68/11
f 69/69/12 70/70/12 71/71/12
f 72/72/12 71/71/12 70/70/12
f 73/73/13 74/74/13 75/75/13
f 74/74/13 73/73/13 76/76/13
f 77/77/14 78/78/14 79/79/14
f 80/80/14 79/79/14 78/78/14
f 81/81/12 82/82/12 83/83/12
f 82/82/12 81/81/12 84/84/12
f 85/85/11 86/86/11 87/87/11
f 88/88/11 87/87/11 86/86/11
f 89/89/3 90/90/3 91/91/3
f 90/90/3 89/89/3 92/92/3
f 93/93/4 94/94/4 95/95/4
f 96/96/4 95/95/4 94/94/4
f 97/97/15 98/98/15 99/99/15
f 98/98/15 97/97/15 100/100/16
f 101/101/17 102/102/17 103/103/17
f 104/104/18 103/103/17 102/102/17
f 105/105/11 106/106/11 107/107/11
f 106/106/11 105/105/11 108/108/11
f 106/106/11 109/109/11 107/107/11
f 109/109/11 106/106/11 110/110/11
f 111/111/12 112/112/12 113/113/12
f 111/111/12 113/113/12 114/114/12
f 115/115/12 113/113/12 112/112/12
f 116/116/12 114/114/12 113/113/12
f 117/117/5 118/118/5 119/119/5
f 118/118/5 117/117/5 120/120/5
f 121/121/5 120/120/5 117/117/5
f 120/120/5 121/121/5 122/122/5
f 123/123/6 124/124/6 125/125/6
f 126/126/6 125/125/6 124/124/6
f 125/125/6 126/126/6 127/127/6
f 128/128/6 127/127/6 126/126/6
f 129/129/6 130/130/6 131/131/6
f 130/130/6 129/129/6 132/132/6
f 132/132/6 133/133/6 130/130/6
f 133/133/6 132/132/6 134/134/6
f 135/135/5 136/136/5 137/137/5
f 138/138/5 137/137/5 136/136/5
f 136/136/5 139/139/5 138/138/5
f 140/140/5 138/138/5 139/139/5
f 141/141/4 142/142/4 143/143/4
f 142/142/4 141/141/4 144/144/4
f 145/145/3 146/146/3 147/147/3
f 148/148/3 147/147/3 146/146/3
f 149/149/12 150/150/12 151/151/12
f 150/150/12 149/149/12 152/152/12
f 151/151/12 153/153/12 149/149/12
f 153/153/12 151/151/12 154/154/12
f 155/155/11 156/156/11 157/157/11
f 157/157/11 158/158/11 155/155/11
f 159/159/11 155/155/11 158/158/11
f 160/160/11 157/157/11 156/156/11
f 161/161/3 162/162/3 163/163/3
f 162/162/3 161/161/3 164/164/3
f 165/165/4 166/166/4 167/167/4
f 168/168/4 167/167/4 166/166/4
f 169/169/4 170/170/4 171/171/4
f 170/170/4 169/169/4 172/172/4
f 173/173/3 174/174/3 175/175/3
f 176/176/3 175/175/3 174/174/3
f 177/177/9 178/178/9 179/179/9
f 178/178/9 177/177/9 180/180/9
f 181/181/10 182/182/10 183/183/10
f 184/184/10 183/183/10 182/182/10
f 185/185/11 186/186/11 187/187/11
f 186/186/11 185/185/11 188/188/11
f 189/189/12 190/190/12 191/191/12
f 192/192/12 191/191/12 190/190/12
f 193/193/13 194/194/13 195/195/13
f 194/194/13 193/193/13 196/196/13
f 197/197/14 198/198/14 199/199/14
f 200/200/14 199/199/14 198/198/14
f 201/201/12 202/202/12 203/203/12
f 202/202/12 201/201/12 204/204/12
f 205/205/11 206/206/11 207/207/11
f 208/208/11 207/207/11 206/206/11
f 209/209/3 210/210/3 211/211/3
f 210/210/3 209/209/3 212/212/3
f 213/213/4 214/214/4 215/215/4
f 216/216/4 215/215/4 214/214/4
f 217/217/7 218/218/7 219/219/7
f 218/218/7 217/217/7 220/220/7
f 221/221/8 222/222/8 223/223/8
f 224/224/8 223/223/8 222/222/8
f 225/225/3 226/226/3 227/227/3
f 226/226/3 225/225/3 228/228/3
f 229/229/4 230/230/4 231/231/4
f 232/232/4 231/231/4 230/230/4
f 233/233/5 234/234/5 235/235/5
f 234/234/5 233/233/5 236/236/5
f 237/237/6 238/238/6 239/239/6
f 240/240/6 239/239/6 238/238/6
f 241/241/4 242/242/4 243/243/4
f 242/242/4 241/241/4 244/244/4
f 245/245/3 246/246/3 247/247/3
f 248/248/3 247/247/3 246/246/3
f 249/249/6 250/250/6 251/251/6
f 250/250/6 249/249/6 252/252/6
f 253/253/5 254/254/5 255/255/5
f 256/256/5 255/255/5 254/254/5
f 257/257/2 258/258/2 259/259/2
f 258/258/2 257/257/2 260/260/2
f 261/261/1 262/262/1 263/263/1
f 264/264/1 263/263/1 262/262/1
f 265/265/12 266/266/12 267/267/12
f 265/265/12 267/267/12 268/268/12
f 269/269/12 267/267/12 266/266/12
f 270/270/12 268/268/12 267/267/12
f 271/271/11 272/272/11 273/273/11
f 272/272/11 271/271/11 274/274/11
f 272/272/11 275/275/11 273/273/11
f 275/275/11 272/272/11 276/276/11
f 277/277/6 278/278/6 279/279/6
f 280/280/6 279/279/6 278/278/6
f 279/279/6 280/280/6 281/281/6
f 282/282/6 281/281/6 280/280/6
f 283/283/5 284/284/5 285/285/5
f 284/284/5 283/283/5 286/286/5
f 287/287/5 286/286/5 283/283/5
f 286/286/5 287/287/5 288/288/5
f 289/289/5 290/290/5 291/291/5
f 292/292/5 291/291/5 290/290/5
f 290/290/5 293/293/5 292/292/5
f 294/294/5 292/292/5 293/293/5
f 295/295/6 296/296/6 297/297/6
f 296/296/6 295/295/6 298/298/6
f 298/298/6 299/299/6 296/296/6
f 299/299/6 298/298/6 300/300/6
f 301/301/3 302/302/3 303/303/3
f 304/304/3 303/303/3 302/302/3
f 305/305/4 306/306/4 307/307/4
f 306/306/4 305/305/4 308/308/4
f 309/309/11 310/310/11 311/311/11
f 311/311/11 312/312/11 309/309/11
f 313/313/11 309/309/11 312/312/11
f 314/314/11 311/311/11 310/310/11
f 315/315/12 316/316/12 317/317/12
f 316/316/12 315/315/12 318/318/12
f 317/317/12 319/319/12 315/315/12
f 319/319/12 317/317/12 320/320/12
f 321/321/4 322/322/4 323/323/4
f 324/324/4 323/323/4 322/322/4
f 325/325/3 326/326/3 327/327/3
f 326/326/3 325/325/3 328/328/3
f 329/329/19 330/330/19 331/331/19
f 330/330/19 329/329/19 332/332/20
f 333/333/21 334/334/21 335/335/21
f 336/336/22 335/335/21 334/334/21
f 337/337/19 338/338/19 339/339/19
f 338/338/19 337/337/19 340/340/19
f 341/341/21 342/342/21 343/343/21
f 344/344/21 343/343/21 342/342/21
f 345/345/15 346/346/15 347/347/15
f 346/346/15 345/345/15 348/348/15
f 349/349/17 350/350/17 351/351/17
f 352/352/17 351/351/17 350/350/17