# Blender v3.0.1 OBJ File: ''
# www.blender.org
mtllib 04.mtl
o model.108_model.1235
v -0.752707 0.286049 -0.165593
v -0.850559 -0.338700 -0.210756
v -0.850559 -0.338700 -0.263446
v -0.752707 0.286049 -0.112904
v -0.850559 -0.338700 -0.263446
v -0.850559 -0.338700 -0.210756
v -0.752707 0.286049 -0.165593
v -0.752707 0.286049 -0.112904
v -0.805400 0.286030 -0.165596
v -0.850559 -0.338700 -0.263446
v -0.903252 -0.338720 -0.263449
v -0.752707 0.286049 -0.165593
v -0.903252 -0.338720 -0.263449
v -0.850559 -0.338700 -0.263446
v -0.805400 0.286030 -0.165596
v -0.752707 0.286049 -0.165593
v -0.850559 -0.338700 -0.210756
v -0.805400 0.286030 -0.112906
v -0.903252 -0.338719 -0.210759
v -0.752707 0.286049 -0.112904
v -0.903252 -0.338719 -0.210759
v -0.805400 0.286030 -0.112906
v -0.850559 -0.338700 -0.210756
v -0.752707 0.286049 -0.112904
v -0.850559 -0.338700 -0.263446
v -0.903252 -0.338719 -0.210759
v -0.903252 -0.338720 -0.263449
v -0.850559 -0.338700 -0.210756
v -0.903252 -0.338720 -0.263449
v -0.903252 -0.338719 -0.210759
v -0.850559 -0.338700 -0.263446
v -0.850559 -0.338700 -0.210756
v -0.903252 -0.338719 -0.210759
v -0.805400 0.286030 -0.165596
v -0.903252 -0.338720 -0.263449
v -0.805400 0.286030 -0.112906
v -0.903252 -0.338720 -0.263449
v -0.805400 0.286030 -0.165596
v -0.903252 -0.338719 -0.210759
v -0.805400 0.286030 -0.112906
vt -0.028000 0.000000
vt -0.052000 2.100298
vt -0.080000 2.100298
vt 0.000000 -0.000000
vt -0.080000 2.100298
vt -0.052000 2.100298
vt -0.028000 0.000000
vt 0.000000 -0.000000
vt -0.028002 0.027143
vt -0.052000 2.127377
vt -0.080002 2.127440
vt -0.000000 0.027080
vt -0.080002 2.127440
vt -0.052000 2.127377
vt -0.028002 0.027143
vt -0.000000 0.027080
vt 0.052000 2.100298
vt 0.028002 0.000063
vt 0.080002 2.100361
vt 0.000000 -0.000000
vt 0.080002 2.100361
vt 0.028002 0.000063
vt 0.052000 2.100298
vt 0.000000 -0.000000
vt 0.052118 0.500002
vt 0.080120 0.325012
vt 0.080120 0.500012
vt 0.052118 0.325002
vt 0.080120 0.500012
vt 0.080120 0.325012
vt 0.052118 0.500002
vt 0.052118 0.325002
vt 0.052002 2.127440
vt 0.028002 0.027143
vt 0.080002 2.127440
vt 0.000002 0.027143
vt 0.080002 2.127440
vt 0.028002 0.027143
vt 0.052002 2.127440
vt 0.000002 0.027143
vn 0.9880 -0.1547 0.0000
vn -0.9880 0.1547 0.0000
vn 0.0000 0.1547 -0.9880
vn 0.0000 -0.1547 0.9880
vn 0.0004 -1.0000 0.0000
vn -0.0004 1.0000 -0.0000
usemtl material_0.129
s 1
f 1/1/1 2/2/1 3/3/1
f 2/2/1 1/1/1 4/4/1
f 5/5/2 6/6/2 7/7/2
f 8/8/2 7/7/2 6/6/2
f 9/9/3 10/10/3 11/11/3
f 10/10/3 9/9/3 12/12/3
f 13/13/4 14/14/4 15/15/4
f 16/16/4 15/15/4 14/14/4
f 17/17/4 18/18/4 19/19/4
f 18/18/4 17/17/4 20/20/4
f 21/21/3 22/22/3 23/23/3
f 24/24/3 23/23/3 22/22/3
f 25/25/5 26/26/5 27/27/5
f 26/26/5 25/25/5 28/28/5
f 29/29/6 30/30/6 31/31/6
f 32/32/6 31/31/6 30/30/6
f 33/33/2 34/34/2 35/35/2
f 34/34/2 33/33/2 36/36/2
f 37/37/1 38/38/1 39/39/1
f 40/40/1 39/39/1 38/38/1