# Blender v3.0.1 OBJ File: ''
# www.blender.org
mtllib 02.mtl
o model.004_model.023
v 0.604333 0.418820 0.175547
v 0.583251 0.395314 0.175547
v 0.604333 0.395314 0.175547
v 0.583251 0.418820 0.175547
v 0.583251 0.418820 0.175547
v 0.604333 0.418820 0.175547
v 0.583251 0.395314 0.175547
v 0.604333 0.395314 0.175547
v 0.583251 0.395314 0.175547
v 0.604333 0.395314 0.159588
v 0.604333 0.395314 0.175547
v 0.583251 0.395314 0.159588
v 0.583251 0.395314 0.159588
v 0.583251 0.395314 0.175547
v 0.604333 0.395314 0.159588
v 0.604333 0.395314 0.175547
v -0.583251 0.395314 0.175547
v -0.583251 0.418820 0.175547
v -0.583251 0.418820 0.175547
v -0.583251 0.395314 0.175547
v 0.583251 0.418820 0.159588
v 0.604333 0.418820 0.175547
v 0.604333 0.418820 0.159588
v 0.583251 0.418820 0.175547
v 0.583251 0.418820 0.175547
v 0.583251 0.418820 0.159588
v 0.604333 0.418820 0.175547
v 0.604333 0.418820 0.159588
v -0.583251 0.395314 0.175547
v -0.583251 0.395314 0.159588
v -0.583251 0.395314 0.159588
v -0.583251 0.395314 0.175547
v 0.583251 0.418820 0.159588
v 0.604333 0.395314 0.159588
v 0.583251 0.395314 0.159588
v 0.604333 0.418820 0.159588
v 0.604333 0.418820 0.159588
v 0.583251 0.418820 0.159588
v 0.604333 0.395314 0.159588
v 0.583251 0.395314 0.159588
v -0.583251 0.418820 0.175547
v -0.583251 0.418820 0.159588
v -0.583251 0.418820 0.159588
v -0.583251 0.418820 0.175547
v -0.604332 0.395314 0.175547
v -0.604332 0.418820 0.175547
v -0.604332 0.418820 0.175547
v -0.604332 0.395314 0.175547
v -0.583251 0.418820 0.159588
v -0.583251 0.395314 0.159588
v -0.583251 0.418820 0.159588
v -0.583251 0.395314 0.159588
v -0.604332 0.395314 0.175547
v -0.604332 0.395314 0.159588
v -0.604332 0.395314 0.159588
v -0.604332 0.395314 0.175547
v -0.604332 0.418820 0.175547
v -0.604332 0.418820 0.159588
v -0.604332 0.418820 0.159588
v -0.604332 0.418820 0.175547
v -0.604332 0.418820 0.159588
v -0.604332 0.395314 0.159588
v -0.604332 0.418820 0.159588
v -0.604332 0.395314 0.159588
vt 0.000000 0.000000
vt 0.000000 0.000000
vt 0.000000 0.000000
vt 0.000000 0.000000
vt 0.000000 0.000000
vt 0.000000 0.000000
vt 0.000000 0.000000
vt 0.000000 0.000000
vt 0.000000 0.000000
vt 0.000000 0.000000
vt 0.000000 0.000000
vt 0.000000 0.000000
vt 0.000000 0.000000
vt 0.000000 0.000000
vt 0.000000 0.000000
vt 0.000000 0.000000
vt 0.000000 0.000000
vt 0.000000 0.000000
vt 0.000000 0.000000
vt 0.000000 0.000000
vt 0.000000 0.000000
vt 0.000000 0.000000
vt 0.000000 0.000000
vt 0.000000 0.000000
vt 0.000000 0.000000
vt 0.000000 0.000000
vt 0.000000 0.000000
vt 0.000000 0.000000
vt 0.000000 0.000000
vt 0.000000 0.000000
vt 0.000000 0.000000
vt 0.000000 0.000000
vt 0.000000 0.000000
vt 0.000000 0.000000
vt 0.000000 0.000000
vt 0.000000 0.000000
vt 0.000000 0.000000
vt 0.000000 0.000000
vt 0.000000 0.000000
vt 0.000000 0.000000
vt 0.000000 0.000000
vt 0.000000 0.000000
vt 0.000000 0.000000
vt 0.000000 0.000000
vt 0.000000 0.000000
vt 0.000000 0.000000
vt 0.000000 0.000000
vt 0.000000 0.000000
vt 0.000000 0.000000
vt 0.000000 0.000000
vt 0.000000 0.000000
vt 0.000000 0.000000
vt 0.000000 0.000000
vt 0.000000 0.000000
vt 0.000000 0.000000
vt 0.000000 0.000000
vt 0.000000 0.000000
vt 0.000000 0.000000
vt 0.000000 0.000000
vt 0.000000 0.000000
vt 0.000000 0.000000
vt 0.000000 0.000000
vt 0.000000 0.000000
vt 0.000000 0.000000
vn 0.0000 -0.0000 1.0000
vn 0.0000 0.0000 -1.0000
vn 0.0000 -1.0000 0.0000
vn 0.0000 1.0000 0.0000
usemtl material_0.026
s 1
f 1/1/1 2/2/1 3/3/1
f 2/2/1 1/1/1 4/4/1
f 5/5/2 6/6/2 7/7/2
f 8/8/2 7/7/2 6/6/2
f 9/9/3 10/10/3 11/11/3
f 10/10/3 9/9/3 12/12/3
f 13/13/4 14/14/4 15/15/4
f 16/16/4 15/15/4 14/14/4
f 4/4/1 17/17/1 2/2/1
f 17/17/1 4/4/1 18/18/1
f 19/19/2 5/5/2 20/20/2
f 7/7/2 20/20/2 5/5/2
f 21/21/4 22/22/4 23/23/4
f 22/22/4 21/21/4 24/24/4
f 25/25/3 26/26/3 27/27/3
f 28/28/3 27/27/3 26/26/3
f 29/29/3 12/12/3 9/9/3
f 12/12/3 29/29/3 30/30/3
f 31/31/4 32/32/4 13/13/4
f 14/14/4 13/13/4 32/32/4
f 33/33/2 34/34/2 35/35/2
f 34/34/2 33/33/2 36/36/2
f 37/37/1 38/38/1 39/39/1
f 40/40/1 39/39/1 38/38/1
f 21/21/4 41/41/4 24/24/4
f 41/41/4 21/21/4 42/42/4
f 43/43/3 26/26/3 44/44/3
f 25/25/3 44/44/3 26/26/3
f 18/18/1 45/45/1 17/17/1
f 45/45/1 18/18/1 46/46/1
f 47/47/2 19/19/2 48/48/2
f 20/20/2 48/48/2 19/19/2
f 49/49/2 35/35/2 50/50/2
f 35/35/2 49/49/2 33/33/2
f 38/38/1 51/51/1 40/40/1
f 52/52/1 40/40/1 51/51/1
f 53/53/3 30/30/3 29/29/3
f 30/30/3 53/53/3 54/54/3
f 55/55/4 56/56/4 31/31/4
f 32/32/4 31/31/4 56/56/4
f 42/42/4 57/57/4 41/41/4
f 57/57/4 42/42/4 58/58/4
f 59/59/3 43/43/3 60/60/3
f 44/44/3 60/60/3 43/43/3
f 61/61/2 50/50/2 62/62/2
f 50/50/2 61/61/2 49/49/2
f 51/51/1 63/63/1 52/52/1
f 64/64/1 52/52/1 63/63/1