# Blender v3.0.1 OBJ File: ''
# www.blender.org
mtllib 05.mtl
o model.005_model.029
v 0.716766 -0.646763 0.260660
v 0.695685 -0.646763 0.244702
v 0.716766 -0.646763 0.244702
v 0.695685 -0.646763 0.260660
v 0.695685 -0.646763 0.260660
v 0.716766 -0.646763 0.260660
v 0.695685 -0.646763 0.244702
v 0.716766 -0.646763 0.244702
v 0.716766 -0.646763 0.260660
v 0.716766 -0.646763 0.244702
v 0.604333 0.395314 0.175547
v 0.604333 0.395314 0.175547
v 0.716766 -0.646763 0.244702
v 0.716766 -0.646763 0.260660
v 0.604333 0.395314 0.175547
v 0.695685 -0.646763 0.260660
v 0.716766 -0.646763 0.260660
v 0.583251 0.395314 0.175547
v 0.583251 0.395314 0.175547
v 0.604333 0.395314 0.175547
v 0.695685 -0.646763 0.260660
v 0.716766 -0.646763 0.260660
v 0.695685 -0.646763 0.260660
v 0.583251 0.395314 0.175547
v 0.695685 -0.646763 0.244702
v 0.695685 -0.646763 0.244702
v 0.583251 0.395314 0.175547
v 0.695685 -0.646763 0.260660
v 0.654985 -0.292716 0.213891
v 0.716766 -0.646763 0.244702
v 0.695685 -0.646763 0.244702
v 0.676067 -0.292716 0.213891
v 0.676067 -0.292716 0.213891
v 0.654985 -0.292716 0.213891
v 0.716766 -0.646763 0.244702
v 0.695685 -0.646763 0.244702
v 0.716766 -0.646763 0.244702
v 0.676067 -0.292716 0.213891
v 0.604333 0.395314 0.175547
v 0.604333 0.395314 0.175547
v 0.676067 -0.292716 0.213891
v 0.716766 -0.646763 0.244702
v 0.695685 -0.646763 0.244702
v 0.583251 0.395314 0.175547
v 0.654985 -0.292716 0.213891
v 0.654985 -0.292716 0.213891
v 0.583251 0.395314 0.175547
v 0.695685 -0.646763 0.244702
v 0.654985 -0.292716 0.213891
v 0.676067 -0.292716 -0.213891
v 0.676067 -0.292716 0.213891
v 0.654985 -0.292716 -0.213891
v 0.654985 -0.292716 -0.213891
v 0.654985 -0.292716 0.213891
v 0.676067 -0.292716 -0.213891
v 0.676067 -0.292716 0.213891
v 0.652485 -0.246371 0.211999
v 0.676067 -0.292716 0.213891
v 0.654985 -0.292716 0.213891
v 0.673566 -0.246371 0.211999
v 0.673566 -0.246371 0.211999
v 0.652485 -0.246371 0.211999
v 0.676067 -0.292716 0.213891
v 0.654985 -0.292716 0.213891
v 0.604333 0.395314 0.175547
v 0.676067 -0.292716 0.213891
v 0.673566 -0.246371 0.211999
v 0.673566 -0.246371 0.211999
v 0.676067 -0.292716 0.213891
v 0.604333 0.395314 0.175547
v 0.583251 0.418820 0.175547
v 0.583251 0.395314 0.159588
v 0.583251 0.418820 0.159588
v 0.583251 0.395314 0.175547
v 0.583251 0.395314 0.175547
v 0.583251 0.418820 0.175547
v 0.583251 0.395314 0.159588
v 0.583251 0.418820 0.159588
v 0.604333 0.418820 0.175547
v 0.604333 0.395314 0.159588
v 0.604333 0.418820 0.159588
v 0.604333 0.395314 0.175547
v 0.604333 0.395314 0.175547
v 0.604333 0.418820 0.175547
v 0.604333 0.395314 0.159588
v 0.604333 0.418820 0.159588
v 0.673566 -0.246371 0.211999
v 0.604333 0.395314 0.159588
v 0.604333 0.395314 0.175547
v 0.604333 0.395314 0.175547
v 0.604333 0.395314 0.159588
v 0.673566 -0.246371 0.211999
v 0.652485 -0.246371 0.211999
v 0.583251 0.395314 0.175547
v 0.583251 0.395314 0.159588
v 0.583251 0.395314 0.159588
v 0.583251 0.395314 0.175547
v 0.652485 -0.246371 0.211999
v 0.583251 0.395314 0.159588
v 0.673566 -0.246371 0.211999
v 0.652485 -0.246371 0.211999
v 0.604333 0.395314 0.159588
v 0.604333 0.395314 0.159588
v 0.583251 0.395314 0.159588
v 0.673566 -0.246371 0.211999
v 0.652485 -0.246371 0.211999
v 0.583251 0.395314 0.175547
v 0.652485 -0.246371 0.211999
v 0.654985 -0.292716 0.213891
v 0.654985 -0.292716 0.213891
v 0.652485 -0.246371 0.211999
v 0.583251 0.395314 0.175547
v 0.673566 -0.246371 -0.211999
v 0.676067 -0.292716 0.213891
v 0.676067 -0.292716 -0.213891
v 0.673566 -0.246371 0.211999
v 0.673566 -0.246371 0.211999
v 0.673566 -0.246371 -0.211999
v 0.676067 -0.292716 0.213891
v 0.676067 -0.292716 -0.213891
v 0.654985 -0.292716 0.213891
v 0.652485 -0.246371 -0.211999
v 0.654985 -0.292716 -0.213891
v 0.652485 -0.246371 0.006553
v 0.652485 -0.246371 0.022400
v 0.652485 -0.246371 0.211999
v 0.652485 -0.246371 0.211999
v 0.654985 -0.292716 0.213891
v 0.652485 -0.246371 0.022400
v 0.652485 -0.246371 0.006553
v 0.652485 -0.246371 -0.211999
v 0.654985 -0.292716 -0.213891
v 0.673566 -0.246371 -0.211999
v 0.654985 -0.292716 -0.213891
v 0.676067 -0.292716 -0.213891
v 0.652485 -0.246371 -0.211999
v 0.652485 -0.246371 -0.211999
v 0.673566 -0.246371 -0.211999
v 0.654985 -0.292716 -0.213891
v 0.676067 -0.292716 -0.213891
v 0.676067 -0.292716 -0.213891
v 0.695685 -0.646763 -0.244702
v 0.716766 -0.646763 -0.244702
v 0.654985 -0.292716 -0.213891
v 0.654985 -0.292716 -0.213891
v 0.676067 -0.292716 -0.213891
v 0.695685 -0.646763 -0.244702
v 0.716766 -0.646763 -0.244702
v 0.673566 -0.246371 -0.211999
v 0.652485 -0.246371 0.211999
v 0.673566 -0.246371 0.211999
v 0.652485 -0.246371 0.006553
v 0.652485 -0.246371 -0.211999
v 0.652485 -0.246371 0.022400
v 0.652485 -0.246371 0.006553
v 0.652485 -0.246371 0.211999
v 0.652485 -0.246371 0.022400
v 0.652485 -0.246371 -0.211999
v 0.673566 -0.246371 -0.211999
v 0.673566 -0.246371 0.211999
v 0.673566 -0.246371 -0.211999
v 0.676067 -0.292716 -0.213891
v 0.716766 -0.646763 -0.260660
v 0.716766 -0.646763 -0.260660
v 0.676067 -0.292716 -0.213891
v 0.673566 -0.246371 -0.211999
v 0.652485 -0.269544 0.022400
v 0.652485 -0.246371 0.006553
v 0.652485 -0.269544 0.006553
v 0.652485 -0.246371 0.022400
v 0.652485 -0.246371 0.022400
v 0.652485 -0.269544 0.022400
v 0.652485 -0.246371 0.006553
v 0.652485 -0.269544 0.006553
v 0.652485 -0.246371 -0.211999
v 0.695685 -0.646763 -0.260660
v 0.654985 -0.292716 -0.213891
v 0.654985 -0.292716 -0.213891
v 0.695685 -0.646763 -0.260660
v 0.652485 -0.246371 -0.211999
v 0.604333 0.395314 -0.159588
v 0.652485 -0.246371 -0.211999
v 0.673566 -0.246371 -0.211999
v 0.583251 0.395314 -0.159588
v 0.583251 0.395314 -0.159588
v 0.604333 0.395314 -0.159588
v 0.652485 -0.246371 -0.211999
v 0.673566 -0.246371 -0.211999
v 0.676067 -0.292716 -0.213891
v 0.716766 -0.646763 -0.244702
v 0.716766 -0.646763 -0.260660
v 0.716766 -0.646763 -0.260660
v 0.716766 -0.646763 -0.244702
v 0.676067 -0.292716 -0.213891
v 0.654985 -0.292716 -0.213891
v 0.695685 -0.646763 -0.260660
v 0.695685 -0.646763 -0.244702
v 0.695685 -0.646763 -0.244702
v 0.695685 -0.646763 -0.260660
v 0.654985 -0.292716 -0.213891
v 0.716766 -0.646763 -0.244702
v 0.695685 -0.646763 -0.260660
v 0.716766 -0.646763 -0.260660
v 0.695685 -0.646763 -0.244702
v 0.695685 -0.646763 -0.244702
v 0.716766 -0.646763 -0.244702
v 0.695685 -0.646763 -0.260660
v 0.716766 -0.646763 -0.260660
v 0.604333 0.395314 -0.175547
v 0.673566 -0.246371 -0.211999
v 0.716766 -0.646763 -0.260660
v 0.604333 0.395314 -0.159588
v 0.604333 0.395314 -0.159588
v 0.604333 0.395314 -0.175547
v 0.673566 -0.246371 -0.211999
v 0.716766 -0.646763 -0.260660
v 0.652485 -0.246371 -0.211999
v 0.583251 0.395314 -0.175547
v 0.695685 -0.646763 -0.260660
v 0.583251 0.395314 -0.159588
v 0.583251 0.395314 -0.159588
v 0.652485 -0.246371 -0.211999
v 0.583251 0.395314 -0.175547
v 0.695685 -0.646763 -0.260660
v 0.583251 0.418820 -0.159588
v 0.604333 0.395314 -0.159588
v 0.583251 0.395314 -0.159588
v 0.604333 0.418820 -0.159588
v 0.604333 0.418820 -0.159588
v 0.583251 0.418820 -0.159588
v 0.604333 0.395314 -0.159588
v 0.583251 0.395314 -0.159588
v 0.583251 0.395314 -0.175547
v 0.716766 -0.646763 -0.260660
v 0.695685 -0.646763 -0.260660
v 0.604333 0.395314 -0.175547
v 0.604333 0.395314 -0.175547
v 0.583251 0.395314 -0.175547
v 0.716766 -0.646763 -0.260660
v 0.695685 -0.646763 -0.260660
v 0.604333 0.418820 -0.159588
v 0.604333 0.395314 -0.175547
v 0.604333 0.418820 -0.175547
v 0.604333 0.395314 -0.159588
v 0.604333 0.395314 -0.159588
v 0.604333 0.418820 -0.159588
v 0.604333 0.395314 -0.175547
v 0.604333 0.418820 -0.175547
v 0.583251 0.395314 -0.159588
v 0.583251 0.418820 -0.175547
v 0.583251 0.395314 -0.175547
v 0.583251 0.418820 -0.159588
v 0.583251 0.418820 -0.159588
v 0.583251 0.395314 -0.159588
v 0.583251 0.418820 -0.175547
v 0.583251 0.395314 -0.175547
v 0.604333 0.418820 -0.175547
v 0.583251 0.418820 -0.159588
v 0.604333 0.418820 -0.159588
v 0.583251 0.418820 -0.175547
v 0.583251 0.418820 -0.175547
v 0.604333 0.418820 -0.175547
v 0.583251 0.418820 -0.159588
v 0.604333 0.418820 -0.159588
v 0.583251 0.371809 0.159588
v 0.583251 0.418820 -0.159588
v 0.583251 0.371809 -0.159588
v 0.583251 0.418820 0.159588
v 0.583251 0.418820 0.159588
v 0.583251 0.371809 0.159588
v 0.583251 0.418820 -0.159588
v 0.583251 0.371809 -0.159588
v 0.583251 0.418820 -0.159588
v 0.604333 0.418820 0.159588
v 0.604333 0.418820 -0.159588
v 0.583251 0.418820 0.159588
v 0.583251 0.418820 0.159588
v 0.583251 0.418820 -0.159588
v 0.604333 0.418820 0.159588
v 0.604333 0.418820 -0.159588
v 0.604333 0.371809 0.159588
v 0.583251 0.371809 -0.159588
v 0.604333 0.371809 -0.159588
v 0.583251 0.371809 0.159588
v 0.583251 0.371809 0.159588
v 0.604333 0.371809 0.159588
v 0.583251 0.371809 -0.159588
v 0.604333 0.371809 -0.159588
v 0.604333 0.418820 0.159588
v 0.604333 0.371809 -0.159588
v 0.604333 0.418820 -0.159588
v 0.604333 0.371809 0.159588
v 0.604333 0.371809 0.159588
v 0.604333 0.418820 0.159588
v 0.604333 0.371809 -0.159588
v 0.604333 0.418820 -0.159588
vt 0.000000 0.000000
vt 0.000000 0.000000
vt 0.000000 0.000000
vt 0.000000 0.000000
vt 0.000000 0.000000
vt 0.000000 0.000000
vt 0.000000 0.000000
vt 0.000000 0.000000
vt 0.000000 0.000000
vt 0.000000 0.000000
vt 0.000000 0.000000
vt 0.000000 0.000000
vt 0.000000 0.000000
vt 0.000000 0.000000
vt 0.000000 0.000000
vt 0.000000 0.000000
vt 0.000000 0.000000
vt 0.000000 0.000000
vt 0.000000 0.000000
vt 0.000000 0.000000
vt 0.000000 0.000000
vt 0.000000 0.000000
vt 0.000000 0.000000
vt 0.000000 0.000000
vt 0.000000 0.000000
vt 0.000000 0.000000
vt 0.000000 0.000000
vt 0.000000 0.000000
vt 0.000000 0.000000
vt 0.000000 0.000000
vt 0.000000 0.000000
vt 0.000000 0.000000
vt 0.000000 0.000000
vt 0.000000 0.000000
vt 0.000000 0.000000
vt 0.000000 0.000000
vt 0.000000 0.000000
vt 0.000000 0.000000
vt 0.000000 0.000000
vt 0.000000 0.000000
vt 0.000000 0.000000
vt 0.000000 0.000000
vt 0.000000 0.000000
vt 0.000000 0.000000
vt 0.000000 0.000000
vt 0.000000 0.000000
vt 0.000000 0.000000
vt 0.000000 0.000000
vt 0.000000 0.000000
vt 0.000000 0.000000
vt 0.000000 0.000000
vt 0.000000 0.000000
vt 0.000000 0.000000
vt 0.000000 0.000000
vt 0.000000 0.000000
vt 0.000000 0.000000
vt 0.000000 0.000000
vt 0.000000 0.000000
vt 0.000000 0.000000
vt 0.000000 0.000000
vt 0.000000 0.000000
vt 0.000000 0.000000
vt 0.000000 0.000000
vt 0.000000 0.000000
vt 0.000000 0.000000
vt 0.000000 0.000000
vt 0.000000 0.000000
vt 0.000000 0.000000
vt 0.000000 0.000000
vt 0.000000 0.000000
vt 0.000000 0.000000
vt 0.000000 0.000000
vt 0.000000 0.000000
vt 0.000000 0.000000
vt 0.000000 0.000000
vt 0.000000 0.000000
vt 0.000000 0.000000
vt 0.000000 0.000000
vt 0.000000 0.000000
vt 0.000000 0.000000
vt 0.000000 0.000000
vt 0.000000 0.000000
vt 0.000000 0.000000
vt 0.000000 0.000000
vt 0.000000 0.000000
vt 0.000000 0.000000
vt 0.000000 0.000000
vt 0.000000 0.000000
vt 0.000000 0.000000
vt 0.000000 0.000000
vt 0.000000 0.000000
vt 0.000000 0.000000
vt 0.000000 0.000000
vt 0.000000 0.000000
vt 0.000000 0.000000
vt 0.000000 0.000000
vt 0.000000 0.000000
vt 0.000000 0.000000
vt 0.000000 0.000000
vt 0.000000 0.000000
vt 0.000000 0.000000
vt 0.000000 0.000000
vt 0.000000 0.000000
vt 0.000000 0.000000
vt 0.000000 0.000000
vt 0.000000 0.000000
vt 0.000000 0.000000
vt 0.000000 0.000000
vt 0.000000 0.000000
vt 0.000000 0.000000
vt 0.000000 0.000000
vt 0.000000 0.000000
vt 0.000000 0.000000
vt 0.000000 0.000000
vt 0.000000 0.000000
vt 0.000000 0.000000
vt 0.000000 0.000000
vt 0.000000 0.000000
vt 0.000000 0.000000
vt 0.000000 0.000000
vt 0.000000 0.000000
vt 0.000000 0.000000
vt 0.000000 0.000000
vt 0.000000 0.000000
vt 0.000000 0.000000
vt 0.000000 0.000000
vt 0.000000 0.000000
vt 0.000000 0.000000
vt 0.000000 0.000000
vt 0.000000 0.000000
vt 0.000000 0.000000
vt 0.000000 0.000000
vt 0.000000 0.000000
vt 0.000000 0.000000
vt 0.000000 0.000000
vt 0.000000 0.000000
vt 0.000000 0.000000
vt 0.000000 0.000000
vt 0.000000 0.000000
vt 0.000000 0.000000
vt 0.000000 0.000000
vt 0.000000 0.000000
vt 0.000000 0.000000
vt 0.000000 0.000000
vt 0.000000 0.000000
vt 0.000000 0.000000
vt 0.000000 0.000000
vt 0.000000 0.000000
vt 0.000000 0.000000
vt 0.000000 0.000000
vt 0.000000 0.000000
vt 0.000000 0.000000
vt 0.000000 0.000000
vt 0.000000 0.000000
vt 0.000000 0.000000
vt 0.000000 0.000000
vt 0.000000 0.000000
vt 0.000000 0.000000
vt 0.000000 0.000000
vt 0.000000 0.000000
vt 0.000000 0.000000
vt 0.000000 0.000000
vt 0.000000 0.000000
vt 0.000000 0.000000
vt 0.000000 0.000000
vt 0.000000 0.000000
vt 0.000000 0.000000
vt 0.000000 0.000000
vt 0.000000 0.000000
vt 0.000000 0.000000
vt 0.000000 0.000000
vt 0.000000 0.000000
vt 0.000000 0.000000
vt 0.000000 0.000000
vt 0.000000 0.000000
vt 0.000000 0.000000
vt 0.000000 0.000000
vt 0.000000 0.000000
vt 0.000000 0.000000
vt 0.000000 0.000000
vt 0.000000 0.000000
vt 0.000000 0.000000
vt 0.000000 0.000000
vt 0.000000 0.000000
vt 0.000000 0.000000
vt 0.000000 0.000000
vt 0.000000 0.000000
vt 0.000000 0.000000
vt 0.000000 0.000000
vt 0.000000 0.000000
vt 0.000000 0.000000
vt 0.000000 0.000000
vt 0.000000 0.000000
vt 0.000000 0.000000
vt 0.000000 0.000000
vt 0.000000 0.000000
vt 0.000000 0.000000
vt 0.000000 0.000000
vt 0.000000 0.000000
vt 0.000000 0.000000
vt 0.000000 0.000000
vt 0.000000 0.000000
vt 0.000000 0.000000
vt 0.000000 0.000000
vt 0.000000 0.000000
vt 0.000000 0.000000
vt 0.000000 0.000000
vt 0.000000 0.000000
vt 0.000000 0.000000
vt 0.000000 0.000000
vt 0.000000 0.000000
vt 0.000000 0.000000
vt 0.000000 0.000000
vt 0.000000 0.000000
vt 0.000000 0.000000
vt 0.000000 0.000000
vt 0.000000 0.000000
vt 0.000000 0.000000
vt 0.000000 0.000000
vt 0.000000 0.000000
vt 0.000000 0.000000
vt 0.000000 0.000000
vt 0.000000 0.000000
vt 0.000000 0.000000
vt 0.000000 0.000000
vt 0.000000 0.000000
vt 0.000000 0.000000
vt 0.000000 0.000000
vt 0.000000 0.000000
vt 0.000000 0.000000
vt 0.000000 0.000000
vt 0.000000 0.000000
vt 0.000000 0.000000
vt 0.000000 0.000000
vt 0.000000 0.000000
vt 0.000000 0.000000
vt 0.000000 0.000000
vt 0.000000 0.000000
vt 0.000000 0.000000
vt 0.000000 0.000000
vt 0.000000 0.000000
vt 0.000000 0.000000
vt 0.000000 0.000000
vt 0.000000 0.000000
vt 0.000000 0.000000
vt 0.000000 0.000000
vt 0.000000 0.000000
vt 0.000000 0.000000
vt 0.000000 0.000000
vt 0.000000 0.000000
vt 0.000000 0.000000
vt 0.000000 0.000000
vt 0.000000 0.000000
vt 0.000000 0.000000
vt 0.000000 0.000000
vt 0.000000 0.000000
vt 0.000000 0.000000
vt 0.000000 0.000000
vt 0.000000 0.000000
vt 0.000000 0.000000
vt 0.000000 0.000000
vt 0.000000 0.000000
vt 0.000000 0.000000
vt 0.000000 0.000000
vt 0.000000 0.000000
vt 0.000000 0.000000
vt 0.000000 0.000000
vt 0.000000 0.000000
vt 0.000000 0.000000
vt 0.000000 0.000000
vt 0.000000 0.000000
vt 0.000000 0.000000
vt 0.000000 0.000000
vt 0.000000 0.000000
vt 0.000000 0.000000
vt 0.000000 0.000000
vt 0.000000 0.000000
vt 0.000000 0.000000
vt 0.000000 0.000000
vt 0.000000 0.000000
vt 0.000000 0.000000
vt 0.000000 0.000000
vt 0.000000 0.000000
vt 0.000000 0.000000
vt 0.000000 0.000000
vt 0.000000 0.000000
vt 0.000000 0.000000
vt 0.000000 0.000000
vt 0.000000 0.000000
vt 0.000000 0.000000
vt 0.000000 0.000000
vt 0.000000 0.000000
vt 0.000000 0.000000
vt 0.000000 0.000000
vt 0.000000 0.000000
vt 0.000000 0.000000
vn 0.0000 -1.0000 0.0000
vn 0.0000 1.0000 0.0000
vn 0.9942 0.1073 0.0000
vn -0.9942 -0.1073 0.0000
vn 0.0000 0.0814 0.9967
vn 0.0000 -0.0814 -0.9967
vn 0.0000 -0.0867 -0.9962
vn 0.0000 0.0867 0.9962
vn 0.9432 0.0804 -0.3223
vn -0.9432 -0.0804 0.3223
vn -0.9432 -0.0804 0.3224
vn 0.9432 0.0804 -0.3224
vn 0.0000 -0.0408 -0.9992
vn 0.0000 0.0408 0.9992
vn -0.2841 0.0238 0.9585
vn 0.2840 -0.0238 -0.9585
vn 1.0000 -0.0000 0.0000
vn -1.0000 0.0000 0.0000
vn 0.2839 -0.0238 -0.9585
vn -0.2839 0.0238 0.9585
vn 0.9985 0.0539 0.0000
vn -0.9985 -0.0539 -0.0000
vn 0.0000 -0.0408 0.9992
vn 0.0000 0.0408 -0.9992
vn 0.0000 -0.0867 0.9962
vn 0.0000 0.0867 -0.9962
vn -0.0000 0.0000 -1.0000
vn 0.0000 0.0000 1.0000
vn 0.8313 0.0222 0.5554
vn -0.8313 -0.0222 -0.5554
vn -0.8312 -0.0222 -0.5556
vn 0.8312 0.0222 0.5556
vn 0.0000 -0.0814 0.9967
vn 0.0000 0.0814 -0.9967
vn 0.9935 0.1142 0.0000
vn -0.9935 -0.1142 0.0000
usemtl material_0.023
s 1
f 1/1/1 2/2/1 3/3/1
f 2/2/1 1/1/1 4/4/1
f 5/5/2 6/6/2 7/7/2
f 8/8/2 7/7/2 6/6/2
f 9/9/3 10/10/3 11/11/3
f 12/12/4 13/13/4 14/14/4
f 15/15/5 16/16/5 17/17/5
f 16/16/5 15/15/5 18/18/5
f 19/19/6 20/20/6 21/21/6
f 22/22/6 21/21/6 20/20/6
f 23/23/4 24/24/4 25/25/4
f 26/26/3 27/27/3 28/28/3
f 29/29/7 30/30/7 31/31/7
f 30/30/7 29/29/7 32/32/7
f 33/33/8 34/34/8 35/35/8
f 36/36/8 35/35/8 34/34/8
f 37/37/9 38/38/9 39/39/9
f 40/40/10 41/41/10 42/42/10
f 43/43/11 44/44/11 45/45/11
f 46/46/12 47/47/12 48/48/12
f 49/49/1 50/50/1 51/51/1
f 50/50/1 49/49/1 52/52/1
f 53/53/2 54/54/2 55/55/2
f 56/56/2 55/55/2 54/54/2
f 57/57/13 58/58/13 59/59/13
f 58/58/13 57/57/13 60/60/13
f 61/61/14 62/62/14 63/63/14
f 64/64/14 63/63/14 62/62/14
f 65/65/15 66/66/15 67/67/15
f 68/68/16 69/69/16 70/70/16
f 71/71/17 72/72/17 73/73/17
f 72/72/17 71/71/17 74/74/17
f 75/75/18 76/76/18 77/77/18
f 78/78/18 77/77/18 76/76/18
f 79/79/17 80/80/17 81/81/17
f 80/80/17 79/79/17 82/82/17
f 83/83/18 84/84/18 85/85/18
f 86/86/18 85/85/18 84/84/18
f 87/87/3 88/88/3 89/89/3
f 90/90/4 91/91/4 92/92/4
f 93/93/4 94/94/4 95/95/4
f 96/96/3 97/97/3 98/98/3
f 99/99/6 100/100/6 101/101/6
f 100/100/6 99/99/6 102/102/6
f 103/103/5 104/104/5 105/105/5
f 106/106/5 105/105/5 104/104/5
f 107/107/19 108/108/19 109/109/19
f 110/110/20 111/111/20 112/112/20
f 113/113/21 114/114/21 115/115/21
f 114/114/21 113/113/21 116/116/21
f 117/117/22 118/118/22 119/119/22
f 120/120/22 119/119/22 118/118/22
f 121/121/22 122/122/22 123/123/22
f 122/122/22 121/121/22 124/124/22
f 124/124/22 121/121/22 125/125/22
f 125/125/22 121/121/22 126/126/22
f 127/127/21 128/128/21 129/129/21
f 129/129/21 128/128/21 130/130/21
f 130/130/21 128/128/21 131/131/21
f 132/132/21 131/131/21 128/128/21
f 133/133/23 134/134/23 135/135/23
f 134/134/23 133/133/23 136/136/23
f 137/137/24 138/138/24 139/139/24
f 140/140/24 139/139/24 138/138/24
f 141/141/25 142/142/25 143/143/25
f 142/142/25 141/141/25 144/144/25
f 145/145/26 146/146/26 147/147/26
f 148/148/26 147/147/26 146/146/26
f 149/149/2 150/150/2 151/151/2
f 150/150/2 149/149/2 152/152/2
f 152/152/2 149/149/2 153/153/2
f 154/154/27 150/150/2 152/152/2
f 155/155/1 156/156/1 157/157/28
f 158/158/1 159/159/1 155/155/1
f 155/155/1 159/159/1 156/156/1
f 160/160/1 156/156/1 159/159/1
f 161/161/29 162/162/29 163/163/29
f 164/164/30 165/165/30 166/166/30
f 167/167/18 168/168/18 169/169/18
f 168/168/18 167/167/18 170/170/18
f 171/171/17 172/172/17 173/173/17
f 174/174/17 173/173/17 172/172/17
f 175/175/31 176/176/31 177/177/31
f 178/178/32 179/179/32 180/180/32
f 181/181/33 182/182/33 183/183/33
f 182/182/33 181/181/33 184/184/33
f 185/185/34 186/186/34 187/187/34
f 188/188/34 187/187/34 186/186/34
f 189/189/35 190/190/35 191/191/35
f 192/192/36 193/193/36 194/194/36
f 195/195/36 196/196/36 197/197/36
f 198/198/35 199/199/35 200/200/35
f 201/201/1 202/202/1 203/203/1
f 202/202/1 201/201/1 204/204/1
f 205/205/2 206/206/2 207/207/2
f 208/208/2 207/207/2 206/206/2
f 209/209/3 210/210/3 211/211/3
f 210/210/3 209/209/3 212/212/3
f 213/213/4 214/214/4 215/215/4
f 216/216/4 215/215/4 214/214/4
f 217/217/4 218/218/4 219/219/4
f 218/218/4 217/217/4 220/220/4
f 221/221/3 222/222/3 223/223/3
f 224/224/3 223/223/3 222/222/3
f 225/225/27 226/226/27 227/227/27
f 226/226/27 225/225/27 228/228/27
f 229/229/28 230/230/28 231/231/28
f 232/232/28 231/231/28 230/230/28
f 233/233/34 234/234/34 235/235/34
f 234/234/34 233/233/34 236/236/34
f 237/237/33 238/238/33 239/239/33
f 240/240/33 239/239/33 238/238/33
f 241/241/17 242/242/17 243/243/17
f 242/242/17 241/241/17 244/244/17
f 245/245/18 246/246/18 247/247/18
f 248/248/18 247/247/18 246/246/18
f 249/249/18 250/250/18 251/251/18
f 250/250/18 249/249/18 252/252/18
f 253/253/17 254/254/17 255/255/17
f 256/256/17 255/255/17 254/254/17
f 257/257/2 258/258/2 259/259/2
f 258/258/2 257/257/2 260/260/2
f 261/261/1 262/262/1 263/263/1
f 264/264/1 263/263/1 262/262/1
f 265/265/18 266/266/18 267/267/18
f 266/266/18 265/265/18 268/268/18
f 269/269/17 270/270/17 271/271/17
f 272/272/17 271/271/17 270/270/17
f 273/273/2 274/274/2 275/275/2
f 274/274/2 273/273/2 276/276/2
f 277/277/1 278/278/1 279/279/1
f 280/280/1 279/279/1 278/278/1
f 281/281/1 282/282/1 283/283/1
f 282/282/1 281/281/1 284/284/1
f 285/285/2 286/286/2 287/287/2
f 288/288/2 287/287/2 286/286/2
f 289/289/17 290/290/17 291/291/17
f 290/290/17 289/289/17 292/292/17
f 293/293/18 294/294/18 295/295/18
f 296/296/18 295/295/18 294/294/18