# Blender v3.0.1 OBJ File: ''
# www.blender.org
mtllib 06.mtl
o model.002_model.030
v 0.652485 -0.269544 0.006553
v -0.652485 -0.246371 0.006553
v -0.652485 -0.269544 0.006553
v 0.652485 -0.246371 0.006553
v 0.652485 -0.246371 0.006553
v 0.652485 -0.269544 0.006553
v -0.652485 -0.246371 0.006553
v -0.652485 -0.269544 0.006553
v -0.652485 -0.246371 0.022400
v 0.652485 -0.269544 0.022400
v -0.652485 -0.269544 0.022400
v 0.652485 -0.246371 0.022400
v 0.652485 -0.246371 0.022400
v -0.652485 -0.246371 0.022400
v 0.652485 -0.269544 0.022400
v -0.652485 -0.269544 0.022400
v -0.652485 -0.269544 0.006553
v 0.652485 -0.269544 0.022400
v 0.652485 -0.269544 0.006553
v -0.652485 -0.269544 0.022400
v -0.652485 -0.269544 0.022400
v -0.652485 -0.269544 0.006553
v 0.652485 -0.269544 0.022400
v 0.652485 -0.269544 0.006553
vt 0.000000 0.000000
vt 0.000000 0.000000
vt 0.000000 0.000000
vt 0.000000 0.000000
vt 0.000000 0.000000
vt 0.000000 0.000000
vt 0.000000 0.000000
vt 0.000000 0.000000
vt 0.000000 0.000000
vt 0.000000 0.000000
vt 0.000000 0.000000
vt 0.000000 0.000000
vt 0.000000 0.000000
vt 0.000000 0.000000
vt 0.000000 0.000000
vt 0.000000 0.000000
vt 0.000000 0.000000
vt 0.000000 0.000000
vt 0.000000 0.000000
vt 0.000000 0.000000
vt 0.000000 0.000000
vt 0.000000 0.000000
vt 0.000000 0.000000
vt 0.000000 0.000000
vn 0.0000 -0.0000 1.0000
vn 0.0000 0.0000 -1.0000
vn 0.0000 1.0000 0.0000
vn 0.0000 -1.0000 0.0000
usemtl material_0.021
s 1
f 1/1/1 2/2/1 3/3/1
f 2/2/1 1/1/1 4/4/1
f 5/5/2 6/6/2 7/7/2
f 8/8/2 7/7/2 6/6/2
f 9/9/2 10/10/2 11/11/2
f 10/10/2 9/9/2 12/12/2
f 13/13/1 14/14/1 15/15/1
f 16/16/1 15/15/1 14/14/1
f 17/17/3 18/18/3 19/19/3
f 18/18/3 17/17/3 20/20/3
f 21/21/4 22/22/4 23/23/4
f 24/24/4 23/23/4 22/22/4