# Blender v3.0.1 OBJ File: ''
# www.blender.org
mtllib 05.mtl
o model.047_model.2581
v 0.129348 0.274989 -0.282125
v 0.128747 0.279552 -0.282125
v 0.128747 0.270425 -0.282125
v 0.126986 0.266172 -0.282125
v 0.126986 0.283805 -0.282125
v 0.124184 0.262520 -0.282125
v 0.124184 0.287457 -0.282125
v 0.120532 0.259718 -0.282125
v 0.120532 0.290259 -0.282125
v 0.116279 0.257957 -0.282125
v 0.116279 0.292021 -0.282125
v 0.111715 0.257356 -0.282125
v 0.111715 0.292621 -0.282125
v 0.107152 0.292021 -0.282125
v 0.107152 0.257957 -0.282125
v 0.102899 0.259718 -0.282125
v 0.102899 0.290259 -0.282125
v 0.099247 0.262520 -0.282125
v 0.099247 0.287457 -0.282125
v 0.096445 0.283805 -0.282125
v 0.096445 0.266172 -0.282125
v 0.094683 0.270425 -0.282125
v 0.094683 0.279552 -0.282125
v 0.094082 0.274989 -0.282125
v 0.094683 0.270425 -0.282125
v 0.094082 0.274989 0.282125
v 0.094082 0.274989 -0.282125
v 0.094683 0.270425 0.282125
v 0.094683 0.279552 0.282125
v 0.094683 0.279552 -0.282125
v 0.096445 0.283805 0.282125
v 0.096445 0.283805 -0.282125
v 0.099247 0.287457 0.282125
v 0.102899 0.290259 -0.282125
v 0.099247 0.287457 -0.282125
v 0.102899 0.290259 0.282125
v 0.107152 0.292021 -0.282125
v 0.107152 0.292021 0.282125
v 0.111715 0.292621 -0.282125
v 0.111715 0.292621 0.282125
v 0.116279 0.292021 -0.282125
v 0.116279 0.292021 0.282125
v 0.120532 0.290259 -0.282125
v 0.120532 0.290259 0.282125
v 0.124184 0.287457 -0.282125
v 0.124184 0.287457 0.282125
v 0.126986 0.283805 0.282125
v 0.126986 0.283805 -0.282125
v 0.128747 0.279552 0.282125
v 0.129348 0.274989 -0.282125
v 0.128747 0.279552 -0.282125
v 0.129348 0.274989 0.282125
v 0.128747 0.270425 -0.282125
v 0.128747 0.270425 0.282125
v 0.126986 0.266172 -0.282125
v 0.126986 0.266172 0.282125
v 0.124184 0.262520 -0.282125
v 0.124184 0.262520 0.282125
v 0.120532 0.259718 -0.282125
v 0.120532 0.259718 0.282125
v 0.116279 0.257957 -0.282125
v 0.116279 0.257957 0.282125
v 0.111715 0.257356 -0.282125
v 0.111715 0.257356 0.282125
v 0.107152 0.257957 -0.282125
v 0.107152 0.257957 0.282125
v 0.102899 0.259718 -0.282125
v 0.102899 0.259718 0.282125
v 0.099247 0.262520 -0.282125
v 0.099247 0.262520 0.282125
v 0.096445 0.266172 0.282125
v 0.096445 0.266172 -0.282125
v 0.094082 0.274989 0.282125
v 0.094082 0.274989 -0.282125
v 0.094683 0.279552 0.282125
v 0.094683 0.270425 -0.282125
v 0.094683 0.279552 -0.282125
v 0.096445 0.283805 0.282125
v 0.096445 0.283805 -0.282125
v 0.099247 0.287457 0.282125
v 0.099247 0.287457 -0.282125
v 0.102899 0.290259 -0.282125
v 0.102899 0.290259 0.282125
v 0.107152 0.292021 -0.282125
v 0.107152 0.292021 0.282125
v 0.111715 0.292621 -0.282125
v 0.111715 0.292621 0.282125
v 0.116279 0.292021 -0.282125
v 0.120532 0.290259 -0.282125
v 0.116279 0.292021 0.282125
v 0.120532 0.290259 0.282125
v 0.124184 0.287457 -0.282125
v 0.124184 0.287457 0.282125
v 0.126986 0.283805 0.282125
v 0.126986 0.283805 -0.282125
v 0.128747 0.279552 0.282125
v 0.128747 0.279552 -0.282125
v 0.129348 0.274989 -0.282125
v 0.129348 0.274989 0.282125
v 0.128747 0.270425 -0.282125
v 0.128747 0.270425 0.282125
v 0.126986 0.266172 -0.282125
v 0.126986 0.266172 0.282125
v 0.124184 0.262520 -0.282125
v 0.120532 0.259718 -0.282125
v 0.124184 0.262520 0.282125
v 0.120532 0.259718 0.282125
v 0.116279 0.257957 -0.282125
v 0.116279 0.257957 0.282125
v 0.111715 0.257356 -0.282125
v 0.111715 0.257356 0.282125
v 0.107152 0.257957 -0.282125
v 0.102899 0.259718 -0.282125
v 0.107152 0.257957 0.282125
v 0.102899 0.259718 0.282125
v 0.099247 0.262520 -0.282125
v 0.099247 0.262520 0.282125
v 0.096445 0.266172 0.282125
v 0.096445 0.266172 -0.282125
v 0.094683 0.270425 0.282125
v 0.094683 0.270425 -0.282125
v 0.094683 0.279552 -0.282125
v 0.096445 0.283805 -0.282125
v 0.094082 0.274989 -0.282125
v 0.096445 0.266172 -0.282125
v 0.099247 0.262520 -0.282125
v 0.099247 0.287457 -0.282125
v 0.102899 0.290259 -0.282125
v 0.102899 0.259718 -0.282125
v 0.107152 0.292021 -0.282125
v 0.107152 0.257957 -0.282125
v 0.111715 0.257356 -0.282125
v 0.111715 0.292621 -0.282125
v 0.116279 0.292021 -0.282125
v 0.116279 0.257957 -0.282125
v 0.120532 0.290259 -0.282125
v 0.120532 0.259718 -0.282125
v 0.124184 0.287457 -0.282125
v 0.124184 0.262520 -0.282125
v 0.126986 0.283805 -0.282125
v 0.126986 0.266172 -0.282125
v 0.128747 0.279552 -0.282125
v 0.128747 0.270425 -0.282125
v 0.129348 0.274989 -0.282125
vn 0.0000 -0.0000 1.0000
vn -0.9763 -0.2162 -0.0000
vn -0.9990 -0.0438 0.0000
vn -0.9990 0.0438 0.0000
vn -0.9537 -0.3009 -0.0000
vn -0.9764 0.2162 -0.0000
vn -0.9537 0.3009 0.0000
vn -0.8871 0.4616 0.0000
vn -0.8433 0.5375 0.0000
vn -0.7071 0.7071 0.0000
vn -0.5375 0.8433 0.0000
vn -0.4616 0.8871 0.0000
vn -0.3009 0.9537 0.0000
vn -0.2162 0.9763 0.0000
vn -0.0438 0.9990 0.0000
vn 0.0438 0.9990 0.0000
vn 0.2162 0.9763 0.0000
vn 0.3009 0.9537 0.0000
vn 0.4616 0.8871 0.0000
vn 0.5375 0.8433 0.0000
vn 0.7071 0.7071 0.0000
vn 0.8433 0.5375 0.0000
vn 0.8871 0.4616 -0.0000
vn 0.9659 0.2588 0.0000
vn 0.9990 0.0438 0.0000
vn 0.9990 -0.0438 -0.0000
vn 0.9763 -0.2162 0.0000
vn 0.9537 -0.3009 -0.0000
vn 0.8871 -0.4616 -0.0000
vn 0.8433 -0.5375 -0.0000
vn 0.7374 -0.6754 -0.0000
vn 0.6754 -0.7374 -0.0000
vn 0.5375 -0.8433 -0.0000
vn 0.4616 -0.8871 -0.0000
vn 0.3009 -0.9537 -0.0000
vn 0.2162 -0.9763 -0.0000
vn 0.0438 -0.9990 -0.0000
vn -0.0438 -0.9990 -0.0000
vn -0.2162 -0.9764 -0.0000
vn -0.3009 -0.9537 -0.0000
vn -0.4616 -0.8871 -0.0000
vn -0.5375 -0.8433 -0.0000
vn -0.7071 -0.7071 -0.0000
vn -0.8433 -0.5375 -0.0000
vn -0.8871 -0.4616 -0.0000
vn 0.9990 0.0439 0.0000
vn 0.9990 -0.0439 -0.0000
vn 0.9763 0.2162 -0.0000
vn 0.8871 -0.4615 -0.0000
vn 0.7071 -0.7071 -0.0000
vn 0.3009 -0.9536 -0.0000
vn -0.2162 -0.9763 -0.0000
vn -0.9659 -0.2588 -0.0000
vn -0.9990 -0.0439 -0.0000
vn -0.9990 0.0439 -0.0000
vn -0.9763 0.2162 0.0000
vn -0.9536 0.3009 0.0000
vn -0.8871 0.4615 0.0000
vn -0.7374 0.6755 0.0000
vn -0.6755 0.7374 0.0000
vn -0.3009 0.9536 0.0000
vn -0.0439 0.9990 0.0000
vn 0.0439 0.9990 0.0000
vn 0.8871 0.4615 0.0000
vn 0.9536 0.3009 0.0000
vn 0.0000 0.0000 -1.0000
usemtl Default_OBJ.136
s 1
f 1//1 2//1 3//1
f 3//1 2//1 4//1
f 2//1 5//1 4//1
f 4//1 5//1 6//1
f 5//1 7//1 6//1
f 6//1 7//1 8//1
f 7//1 9//1 8//1
f 8//1 9//1 10//1
f 9//1 11//1 10//1
f 10//1 11//1 12//1
f 11//1 13//1 12//1
f 13//1 14//1 12//1
f 12//1 14//1 15//1
f 15//1 14//1 16//1
f 14//1 17//1 16//1
f 16//1 17//1 18//1
f 17//1 19//1 18//1
f 19//1 20//1 18//1
f 18//1 20//1 21//1
f 21//1 20//1 22//1
f 20//1 23//1 22//1
f 24//1 22//1 23//1
f 25//2 26//3 27//4
f 26//3 25//2 28//5
f 29//6 27//4 26//3
f 27//4 29//6 30//7
f 31//8 30//7 29//6
f 30//7 31//8 32//9
f 33//10 32//9 31//8
f 33//10 34//11 35//10
f 32//9 33//10 35//10
f 34//11 33//10 36//12
f 36//12 37//13 34//11
f 37//13 36//12 38//14
f 38//14 39//15 37//13
f 39//15 38//14 40//16
f 40//16 41//17 39//15
f 41//17 40//16 42//18
f 42//18 43//19 41//17
f 43//19 42//18 44//20
f 44//20 45//21 43//19
f 45//21 44//20 46//21
f 47//22 45//21 46//21
f 45//21 47//22 48//23
f 49//24 48//23 47//22
f 49//24 50//25 51//24
f 48//23 49//24 51//24
f 50//25 49//24 52//26
f 52//26 53//27 50//25
f 53//27 52//26 54//28
f 54//28 55//29 53//27
f 55//29 54//28 56//30
f 56//30 57//31 55//29
f 57//31 56//30 58//32
f 58//32 59//33 57//31
f 59//33 58//32 60//34
f 60//34 61//35 59//33
f 61//35 60//34 62//36
f 62//36 63//37 61//35
f 63//37 62//36 64//38
f 64//38 65//39 63//37
f 65//39 64//38 66//40
f 66//40 67//41 65//39
f 67//41 66//40 68//42
f 68//42 69//43 67//41
f 69//43 68//42 70//43
f 71//44 69//43 70//43
f 28//5 72//45 71//44
f 69//43 71//44 72//45
f 72//45 28//5 25//2
f 73//46 74//47 75//27
f 74//47 73//46 76//48
f 77//28 75//27 74//47
f 75//27 77//28 78//49
f 79//30 78//49 77//28
f 78//49 79//30 80//50
f 81//50 82//33 80//50
f 81//50 80//50 79//30
f 83//34 80//50 82//33
f 82//33 84//51 83//34
f 85//36 83//34 84//51
f 84//51 86//37 85//36
f 87//38 85//36 86//37
f 86//37 88//52 87//38
f 88//52 89//41 90//40
f 90//40 87//38 88//52
f 91//42 90//40 89//41
f 89//41 92//43 91//42
f 93//43 91//42 92//43
f 93//43 92//43 94//44
f 95//45 94//44 92//43
f 94//44 95//45 96//53
f 97//53 96//53 95//45
f 97//53 98//54 96//53
f 99//55 96//53 98//54
f 98//54 100//56 99//55
f 101//57 99//55 100//56
f 100//56 102//58 101//57
f 103//9 101//57 102//58
f 102//58 104//59 103//9
f 104//59 105//11 106//60
f 106//60 103//9 104//59
f 107//12 106//60 105//11
f 105//11 108//61 107//12
f 109//14 107//12 108//61
f 108//61 110//62 109//14
f 111//63 109//14 110//62
f 110//62 112//17 111//63
f 112//17 113//19 114//18
f 114//18 111//63 112//17
f 115//20 114//18 113//19
f 113//19 116//21 115//20
f 117//21 115//20 116//21
f 117//21 116//21 118//22
f 119//64 118//22 116//21
f 118//22 119//64 120//65
f 120//65 76//48 73//46
f 76//48 120//65 119//64
f 121//66 122//66 123//66
f 122//66 121//66 124//66
f 121//66 123//66 125//66
f 126//66 123//66 127//66
f 125//66 123//66 126//66
f 126//66 128//66 129//66
f 126//66 127//66 128//66
f 129//66 128//66 130//66
f 129//66 130//66 131//66
f 131//66 130//66 132//66
f 132//66 130//66 133//66
f 132//66 133//66 134//66
f 132//66 134//66 135//66
f 135//66 134//66 136//66
f 135//66 136//66 137//66
f 137//66 136//66 138//66
f 137//66 138//66 139//66
f 139//66 138//66 140//66
f 139//66 140//66 141//66
f 141//66 140//66 142//66
f 141//66 142//66 143//66
f 143//66 142//66 144//66