# Blender v3.0.1 OBJ File: ''
# www.blender.org
mtllib 06.mtl
o model.053_model.2587
v -0.251521 0.274989 -0.282125
v -0.252122 0.279552 -0.282125
v -0.252122 0.270425 -0.282125
v -0.253883 0.266172 -0.282125
v -0.253883 0.283805 -0.282125
v -0.256686 0.262520 -0.282125
v -0.256686 0.287457 -0.282125
v -0.260337 0.259718 -0.282125
v -0.260337 0.290259 -0.282125
v -0.264590 0.257957 -0.282125
v -0.264590 0.292021 -0.282125
v -0.269154 0.257356 -0.282125
v -0.269154 0.292621 -0.282125
v -0.273718 0.292021 -0.282125
v -0.273718 0.257957 -0.282125
v -0.277970 0.259718 -0.282125
v -0.277970 0.290259 -0.282125
v -0.281622 0.262520 -0.282125
v -0.281622 0.287457 -0.282125
v -0.284424 0.283805 -0.282125
v -0.284424 0.266172 -0.282125
v -0.286186 0.270425 -0.282125
v -0.286186 0.279552 -0.282125
v -0.286787 0.274989 -0.282125
v -0.286186 0.279552 0.282125
v -0.286186 0.270425 0.282125
v -0.284424 0.266172 0.282125
v -0.286787 0.274989 0.282125
v -0.284424 0.283805 0.282125
v -0.281622 0.262520 0.282125
v -0.281622 0.287457 0.282125
v -0.277970 0.259718 0.282125
v -0.277970 0.290259 0.282125
v -0.273718 0.257957 0.282125
v -0.273718 0.292021 0.282125
v -0.269154 0.257356 0.282125
v -0.269154 0.292621 0.282125
v -0.264590 0.257957 0.282125
v -0.264590 0.292021 0.282125
v -0.260337 0.259718 0.282125
v -0.260337 0.290259 0.282125
v -0.256686 0.262520 0.282125
v -0.256686 0.287457 0.282125
v -0.253883 0.266172 0.282125
v -0.253883 0.283805 0.282125
v -0.252122 0.270425 0.282125
v -0.252122 0.279552 0.282125
v -0.251521 0.274989 0.282125
v -0.286186 0.270425 -0.282125
v -0.286186 0.279552 -0.282125
v -0.284424 0.283805 -0.282125
v -0.286787 0.274989 -0.282125
v -0.284424 0.266172 -0.282125
v -0.281622 0.262520 -0.282125
v -0.281622 0.287457 -0.282125
v -0.277970 0.290259 -0.282125
v -0.277970 0.259718 -0.282125
v -0.273718 0.292021 -0.282125
v -0.273718 0.257957 -0.282125
v -0.269154 0.257356 -0.282125
v -0.269154 0.292621 -0.282125
v -0.264590 0.292021 -0.282125
v -0.264590 0.257957 -0.282125
v -0.260337 0.290259 -0.282125
v -0.260337 0.259718 -0.282125
v -0.256686 0.287457 -0.282125
v -0.256686 0.262520 -0.282125
v -0.253883 0.283805 -0.282125
v -0.253883 0.266172 -0.282125
v -0.252122 0.279552 -0.282125
v -0.252122 0.270425 -0.282125
v -0.251521 0.274989 -0.282125
v -0.286787 0.274989 0.282125
v -0.286787 0.274989 -0.282125
v -0.286186 0.279552 0.282125
v -0.286186 0.270425 -0.282125
v -0.286186 0.279552 -0.282125
v -0.286186 0.270425 0.282125
v -0.284424 0.266172 -0.282125
v -0.284424 0.266172 0.282125
v -0.281622 0.262520 -0.282125
v -0.281622 0.262520 0.282125
v -0.277970 0.259718 0.282125
v -0.273718 0.257957 0.282125
v -0.277970 0.259718 -0.282125
v -0.273718 0.257957 -0.282125
v -0.269154 0.257356 0.282125
v -0.269154 0.257356 -0.282125
v -0.264590 0.257957 -0.282125
v -0.264590 0.257957 0.282125
v -0.260337 0.259718 -0.282125
v -0.260337 0.259718 0.282125
v -0.256686 0.262520 -0.282125
v -0.256686 0.262520 0.282125
v -0.253883 0.266172 0.282125
v -0.252122 0.270425 0.282125
v -0.253883 0.266172 -0.282125
v -0.252122 0.270425 -0.282125
v -0.251521 0.274989 -0.282125
v -0.251521 0.274989 0.282125
v -0.252122 0.279552 0.282125
v -0.252122 0.279552 -0.282125
v -0.253883 0.283805 -0.282125
v -0.253883 0.283805 0.282125
v -0.256686 0.287457 -0.282125
v -0.260337 0.290259 -0.282125
v -0.260337 0.290259 0.282125
v -0.256686 0.287457 0.282125
v -0.264590 0.292021 -0.282125
v -0.264590 0.292021 0.282125
v -0.269154 0.292621 0.282125
v -0.269154 0.292621 -0.282125
v -0.273718 0.292021 -0.282125
v -0.273718 0.292021 0.282125
v -0.277970 0.290259 -0.282125
v -0.277970 0.290259 0.282125
v -0.281622 0.287457 -0.282125
v -0.281622 0.287457 0.282125
v -0.284424 0.283805 -0.282125
v -0.284424 0.283805 0.282125
v -0.251521 0.274989 0.282125
v -0.252122 0.270425 0.282125
v -0.252122 0.279552 0.282125
v -0.253883 0.283805 0.282125
v -0.253883 0.266172 0.282125
v -0.256686 0.287457 0.282125
v -0.256686 0.262520 0.282125
v -0.260337 0.290259 0.282125
v -0.260337 0.259718 0.282125
v -0.264590 0.292021 0.282125
v -0.264590 0.257957 0.282125
v -0.269154 0.292621 0.282125
v -0.269154 0.257356 0.282125
v -0.273718 0.292021 0.282125
v -0.273718 0.257957 0.282125
v -0.277970 0.290259 0.282125
v -0.277970 0.259718 0.282125
v -0.281622 0.287457 0.282125
v -0.281622 0.262520 0.282125
v -0.284424 0.283805 0.282125
v -0.284424 0.266172 0.282125
v -0.286186 0.279552 0.282125
v -0.286186 0.270425 0.282125
v -0.286787 0.274989 0.282125
vn 0.0000 -0.0000 1.0000
vn 0.0000 0.0000 -1.0000
vn 0.9990 0.0438 -0.0000
vn 0.9990 -0.0438 -0.0000
vn 0.9763 -0.2162 -0.0000
vn 0.9763 0.2162 -0.0000
vn 0.9537 -0.3009 -0.0000
vn 0.9537 0.3009 0.0000
vn 0.8871 0.4615 0.0000
vn 0.8433 0.5375 -0.0000
vn 0.7071 0.7071 0.0000
vn 0.5375 0.8433 0.0000
vn 0.3009 0.9536 0.0000
vn 0.4616 0.8871 0.0000
vn 0.2162 0.9763 0.0000
vn 0.0439 0.9990 0.0000
vn -0.0439 0.9990 0.0000
vn -0.3009 0.9536 0.0000
vn -0.2162 0.9763 0.0000
vn -0.5375 0.8433 0.0000
vn -0.4616 0.8871 0.0000
vn -0.7374 0.6755 0.0000
vn -0.6754 0.7374 0.0000
vn -0.8433 0.5375 0.0000
vn -0.9537 0.3009 0.0000
vn -0.8871 0.4615 0.0000
vn -0.9763 0.2162 0.0000
vn -0.9990 -0.0438 -0.0000
vn -0.9990 0.0438 0.0000
vn -0.9659 -0.2588 -0.0000
vn -0.8871 -0.4615 -0.0000
vn -0.8433 -0.5375 0.0000
vn -0.7071 -0.7071 -0.0000
vn -0.4615 -0.8871 -0.0000
vn -0.5375 -0.8433 -0.0000
vn -0.2162 -0.9763 -0.0000
vn -0.3009 -0.9537 -0.0000
vn -0.0438 -0.9990 -0.0000
vn 0.0438 -0.9990 -0.0000
vn 0.3009 -0.9537 -0.0000
vn 0.2162 -0.9763 -0.0000
vn 0.5375 -0.8433 -0.0000
vn 0.4616 -0.8871 -0.0000
vn 0.7071 -0.7071 -0.0000
vn 0.8433 -0.5375 -0.0000
vn 0.8871 -0.4615 -0.0000
vn 0.0001 0.0000 -1.0000
usemtl Default_OBJ.134
s 1
f 1//1 2//1 3//1
f 3//1 2//1 4//1
f 2//1 5//1 4//1
f 4//1 5//1 6//1
f 5//1 7//1 6//1
f 6//1 7//1 8//1
f 7//1 9//1 8//1
f 8//1 9//1 10//1
f 9//1 11//1 10//1
f 10//1 11//1 12//1
f 11//1 13//1 12//1
f 13//1 14//1 12//1
f 12//1 14//1 15//1
f 15//1 14//1 16//1
f 14//1 17//1 16//1
f 16//1 17//1 18//1
f 17//1 19//1 18//1
f 19//1 20//1 18//1
f 18//1 20//1 21//1
f 21//1 20//1 22//1
f 20//1 23//1 22//1
f 24//1 22//1 23//1
f 25//1 26//1 27//1
f 26//1 25//1 28//1
f 25//1 27//1 29//1
f 29//1 27//1 30//1
f 29//1 30//1 31//1
f 31//1 30//1 32//1
f 31//1 32//1 33//1
f 33//1 32//1 34//1
f 33//1 34//1 35//1
f 35//1 34//1 36//1
f 35//1 36//1 37//1
f 37//1 36//1 38//1
f 37//1 38//1 39//1
f 39//1 38//1 40//1
f 39//1 40//1 41//1
f 41//1 40//1 42//1
f 41//1 42//1 43//1
f 43//1 42//1 44//1
f 43//1 44//1 45//1
f 45//1 44//1 46//1
f 45//1 46//1 47//1
f 47//1 46//1 48//1
f 49//2 50//2 51//2
f 50//2 49//2 52//2
f 49//2 51//2 53//2
f 54//2 51//2 55//2
f 53//2 51//2 54//2
f 54//2 55//2 56//2
f 54//2 56//2 57//2
f 57//2 56//2 58//2
f 57//2 58//2 59//2
f 59//2 58//2 60//2
f 60//2 58//2 61//2
f 60//2 61//2 62//2
f 60//2 62//2 63//2
f 63//2 62//2 64//2
f 63//2 64//2 65//2
f 65//2 64//2 66//2
f 65//2 66//2 67//2
f 67//2 66//2 68//2
f 67//2 68//2 69//2
f 69//2 68//2 70//2
f 69//2 70//2 71//2
f 71//2 70//2 72//2
f 73//3 74//4 75//5
f 74//4 73//3 76//6
f 77//7 75//5 74//4
f 78//8 76//6 73//3
f 76//6 78//8 79//9
f 80//10 79//9 78//8
f 79//9 80//10 81//11
f 82//11 81//11 80//10
f 82//11 83//12 81//11
f 83//12 84//13 85//14
f 85//14 81//11 83//12
f 86//15 85//14 84//13
f 84//13 87//16 86//15
f 88//17 86//15 87//16
f 89//18 88//17 90//19
f 87//16 90//19 88//17
f 91//20 89//18 92//21
f 90//19 92//21 89//18
f 93//22 91//20 94//23
f 92//21 94//23 91//20
f 94//23 95//24 93//22
f 95//24 96//25 97//26
f 97//26 93//22 95//24
f 98//27 97//26 96//25
f 99//28 98//27 100//29
f 96//25 100//29 98//27
f 100//29 101//30 99//28
f 102//30 99//28 101//30
f 102//30 101//30 103//31
f 104//32 103//31 101//30
f 103//31 104//32 105//33
f 106//34 105//33 107//35
f 108//33 107//35 105//33
f 108//33 105//33 104//32
f 109//36 106//34 110//37
f 107//35 110//37 106//34
f 110//37 111//38 109//36
f 112//39 109//36 111//38
f 113//40 112//39 114//41
f 111//38 114//41 112//39
f 115//42 113//40 116//43
f 114//41 116//43 113//40
f 117//44 115//42 118//44
f 116//43 118//44 115//42
f 117//44 118//44 119//45
f 120//46 119//45 118//44
f 75//5 77//7 120//46
f 119//45 120//46 77//7
f 121//2 122//2 123//2
f 123//2 122//2 124//2
f 122//2 125//2 124//2
f 124//2 125//2 126//2
f 125//2 127//2 126//2
f 126//2 127//2 128//2
f 127//2 129//2 128//2
f 128//2 129//2 130//2
f 129//2 131//2 130//2
f 130//2 131//2 132//2
f 131//2 133//2 132//2
f 132//2 133//2 134//2
f 133//2 135//2 134//2
f 134//2 135//2 136//2
f 135//2 137//2 136//2
f 136//2 137//2 138//2
f 137//2 139//2 138//2
f 138//2 139//2 140//2
f 139//2 141//2 140//2
f 140//2 141//2 142//2
f 141//2 143//47 142//2
f 144//2 142//2 143//47